ply
    format ascii 1.0           
    element vertex 45
    property double x           
    property double y           
    property double z           
    end_header
0.370276 -0.106139 0.498806
0.371576 -0.109145 0.492411
0.366904 -0.107161 0.505153
0.371586 -0.113762 0.488244
0.375557 -0.113603 0.484106
3.70289 1.31758 -6.05326
0.366129 -0.112656 0.501971
0.36751 -0.110157 0.499744
0.374549 -0.112096 0.486004
0.369718 -0.115304 0.490487
0.37404 -0.11506 0.486436
0.363647 -0.121769 0.501833
0.374375 -0.112605 0.484264
0.376618 -0.114435 0.483353
0.370681 -0.112998 0.490682
0.372986 -0.111874 0.487885
0.365726 -0.118897 0.498333
0.347646 -0.127567 0.53195
0.367032 -0.114743 0.496046
0.370596 -0.118944 0.492614
0.374169 -0.116425 0.487163
0.371378 -0.116968 0.490809
0.369045 -0.11183 0.503247
0.376335 -0.113558 0.484872
0.375245 -0.11276 0.486279
0.372988 -0.109591 0.492378
0.361871 -0.124462 0.508116
0.370973 -0.106327 0.49671
0.371441 -0.114981 0.490475
0.376803 -0.114471 0.485695
0.374419 -0.112166 0.491292
0.374804 -0.11194 0.487904
0.36927 -0.122164 0.506555
0.37621 -0.115603 0.485695
0.37318 -0.110984 0.492265
0.375082 -0.113003 0.489007
0.373199 -0.111555 0.495244
0.374792 -0.113308 0.491961
0.374147 -0.115621 0.496843
0.371846 -0.118915 0.500983
0.367874 -0.122242 0.505251
0.373776 -0.112839 0.495971
0.375826 -0.114424 0.490209
0.375339 -0.116665 0.489223
0.369136 -0.121442 0.510506
