ply
    format ascii 1.0           
    element vertex 46
    property double x           
    property double y           
    property double z           
    end_header
-0.0407141 -0.158278 0.979408
-0.00493776 -0.12352 0.995373
-0.0277626 -0.123667 0.993128
0.000450149 -0.207498 0.980166
-0.0100259 -0.163313 0.992751
-0.0323044 -0.241691 0.940413
-0.0355104 -0.201478 0.954294
-0.0253324 -0.179593 0.963994
-0.0174025 -0.308964 0.929543
-0.017982 -0.219023 0.959719
-0.0390587 -0.268103 0.918293
0.0315292 -0.312469 0.979017
-0.0195542 -0.263381 0.942086
0.00181946 -0.324475 0.93833
-0.0431104 -0.223739 0.954982
-0.00663947 -0.28076 0.941454
-0.0691245 -0.262255 0.945086
-0.0491417 -0.188331 0.966428
-0.0653674 -0.284392 0.936594
-0.0154773 -0.142309 1.00436
-0.0480767 -0.29346 0.92602
0.0122821 -0.299863 0.968887
-0.0488649 -0.249952 0.949367
-0.0645455 -0.233602 0.959374
-0.0611706 -0.322521 0.929162
-0.0363822 -0.145171 0.994255
-0.00151386 -0.301307 0.94768
-0.00412226 -0.241844 0.982754
-0.00903778 -0.341279 0.954646
-0.0102528 -0.182864 0.982119
-0.042224 -0.312526 0.93577
-0.0204254 -0.248629 0.959483
-0.0102245 -0.263227 0.97438
0.0121957 -0.32285 0.962268
0.00207656 -0.283734 0.98296
-0.00247028 -0.340047 0.979345
-0.0058858 -0.283605 0.963464
-0.0305929 -0.285908 0.910851
-0.0588598 -0.329322 0.942342
0.0116505 -0.327162 0.993386
-0.0185251 -0.251975 0.997245
0.0119313 -0.304802 0.991204
-0.0365539 -0.222847 0.994934
-0.0304613 -0.207596 1.00423
-0.00926339 -0.272701 0.994001
-0.0268797 -0.164135 1.0065
