ply
    format ascii 1.0           
    element vertex 52
    property double x           
    property double y           
    property double z           
    end_header
0.0338575 -0.681166 1.3054
0.0307896 -0.640208 1.27078
-0.0380783 -0.59356 1.28336
-0.017011 -0.434968 1.38236
-0.0714643 -0.543702 1.33313
0.0674547 -0.599512 1.32233
-0.000949973 -0.582837 1.28818
-0.0675466 -0.448486 1.41292
-0.0326794 -0.505792 1.34797
-0.0212163 -0.620777 1.2691
-0.00652638 -0.397204 1.40256
-0.0327882 -0.481018 1.37485
-0.0166862 -0.526665 1.3297
-0.0375068 -0.399504 1.41854
-0.0694063 -0.574257 1.32091
-0.0762244 -0.536297 1.37336
-0.0490175 -0.638985 1.27808
0.0180872 -0.61277 1.2886
-0.0775549 -0.647098 1.30632
-0.05877 -0.421556 1.42921
0.0127309 -0.463399 1.40264
0.0234062 -0.540688 1.35913
-0.014602 -0.378526 1.42565
-0.0428058 -0.455922 1.38979
0.0272712 -0.514334 1.3747
0.0172234 -0.485051 1.37721
0.0302549 -0.559213 1.33657
-0.0847619 -0.589756 1.28429
0.0228001 -0.576968 1.31013
-0.00804059 -0.488527 1.36257
0.00401828 -0.548725 1.31683
-9.68727e-05 -0.517861 1.35505
0.057072 -0.621716 1.283
0.0754401 -0.635377 1.30873
0.0492522 -0.592037 1.29548
0.00994859 -0.391691 1.43349
0.0527596 -0.655352 1.29534
0.0196488 -0.422077 1.42942
0.000899343 -0.428931 1.40611
0.0421892 -0.542718 1.38911
0.0314448 -0.492506 1.41146
0.0171481 -0.448903 1.42414
-0.0197201 -0.556472 1.29775
0.0152785 -0.409548 1.45441
0.0275635 -0.573932 1.37346
0.0273314 -0.683364 1.30856
0.0237389 -0.531675 1.42238
0.0148912 -0.569703 1.4105
0.0498173 -0.65018 1.36073
0.0202837 -0.445288 1.41759
0.0455433 -0.677321 1.34056
0.0171386 -0.609619 1.40682
