ply
    format ascii 1.0           
    element vertex 67
    property double x           
    property double y           
    property double z           
    end_header
-0.730157 -0.606244 4.91409
-0.833698 -1.91287 4.45494
-0.972845 -1.70254 4.44168
-0.617455 -0.946821 4.7641
-0.703157 -1.30245 4.64683
-0.64777 -1.39662 4.41998
-0.732858 -0.795623 4.88256
-0.877904 -1.69497 4.34533
-0.809941 -0.875085 4.97125
-0.40246 -1.84105 4.29378
-0.527852 -1.4819 4.36547
-0.629663 -1.1906 4.63292
-0.731108 -1.18637 4.71802
-0.72317 -1.07804 4.80226
-0.789446 -1.01542 4.94278
-0.641937 -0.702236 4.88057
-0.641942 -1.53182 4.41913
-0.509459 -1.35993 4.41804
-0.644374 -1.7916 4.32334
-0.419189 -1.59274 4.32601
-0.686088 -1.67945 4.36672
-0.799039 -1.64373 4.43027
-0.54165 -1.74273 4.29579
-0.833133 -0.736342 4.98095
-0.256381 -1.84634 4.34965
-0.542787 -1.62618 4.37384
-0.687106 -0.534271 5.02185
-0.56373 -1.30109 4.61961
-0.226569 -2.06137 4.34798
-0.325885 -1.96883 4.29658
-0.774976 -1.77302 4.36853
-0.431703 -1.31147 4.53838
-0.544312 -0.772524 4.93533
-0.492492 -1.10369 4.85355
-0.0949859 -1.85349 4.44154
-0.731764 -1.58743 4.52484
-0.147119 -1.9455 4.35838
-0.900908 -1.652 4.53116
-0.479176 -1.19376 4.6546
-0.727084 -1.40297 4.7386
-0.07591 -1.77212 4.55094
-0.273621 -1.74513 4.44653
-0.483197 -0.953503 4.84208
-0.312648 -1.56122 4.50848
-0.600282 -0.883369 4.89812
-0.317534 -1.42081 4.5657
-0.602315 -0.633953 4.97069
0.0185539 -1.89156 4.50492
-0.422581 -1.44721 4.48806
0.020658 -1.8083 4.57882
-0.585378 -1.12959 4.73933
-0.247484 -1.68862 4.57215
-0.00459321 -2.04026 4.5602
-0.469648 -1.76736 4.36315
-0.163822 -2.08592 4.48346
-0.267445 -1.57283 4.66113
-0.0729018 -1.9899 4.46588
-0.202074 -1.82019 4.55136
-0.421183 -1.22454 4.79385
-0.388436 -1.66628 4.42837
0.0164423 -1.82665 4.62856
-0.429819 -1.32823 4.70241
0.0688128 -1.9538 4.63554
-0.229727 -2.07043 4.36212
-0.202498 -1.73687 4.696
-0.744153 -0.791827 4.88424
-0.337792 -1.45928 4.69126
