ply
    format ascii 1.0           
    element vertex 32
    property double x           
    property double y           
    property double z           
    end_header
0.251634 -0.644388 5.96555
-0.0525241 -0.967757 5.9268
0.1897 -0.477491 6.10657
0.599336 -1.10011 5.94879
0.0746477 -0.645972 6.07181
0.142184 -0.857005 5.93004
0.3318 -0.820039 5.90093
0.372766 -1.00757 5.89316
0.369846 -0.292293 6.18956
0.395912 -0.522471 6.07899
-0.04184 -0.815138 6.1221
0.380947 -1.17749 5.98981
0.153154 -1.07135 5.98598
0.681809 -1.298 6.02077
0.536071 -0.336647 6.29115
0.445358 -0.727251 6.0576
0.50039 -0.919082 6.01584
0.632971 -0.784321 6.11947
0.939736 -1.17766 6.20523
0.596324 -0.196666 6.44791
0.581669 -0.63481 6.26173
0.39915 -0.166397 6.34211
0.758418 -1.1439 6.1093
0.82648 -1.32023 6.15698
0.832105 -1.0081 6.23893
0.659347 -0.977075 6.15469
0.492605 -1.3648 5.98856
0.570632 -0.609231 6.1825
0.207444 -0.640041 5.98635
0.674915 -0.819107 6.24425
0.616401 -0.67042 6.3486
0.658978 -0.995398 6.55479
