ply
    format ascii 1.0           
    element vertex 43
    property double x           
    property double y           
    property double z           
    end_header
-0.249351 -0.278679 4.90585
-0.472703 -0.24635 5.0243
-0.778013 -0.642299 5.64326
-0.600886 0.417127 5.28275
-0.500207 -0.0134028 5.15417
-0.321154 -0.0438173 4.98424
-0.826815 -0.763851 5.87286
-0.529086 -0.477432 5.13648
-0.852198 -0.425089 5.73261
-0.0041999 -0.244055 4.84409
-0.650575 -0.460737 5.37404
0.0521525 -0.0227125 4.76788
-0.748912 0.141501 5.49202
-0.622878 0.0208077 5.36343
-0.0964932 0.017059 4.9431
-0.542597 -0.224755 5.33804
-0.024577 1.07709 5.86191
-0.50991 -0.653987 5.5502
-0.451146 0.252671 5.24572
-0.350165 0.46012 5.20306
-0.107676 0.785972 5.414
-0.114565 0.263031 5.23447
-0.328667 -0.77438 5.49345
-0.279957 0.0997787 5.16965
-0.154392 -0.502146 5.0493
-0.328874 0.737167 5.57196
0.12091 0.713825 5.5034
0.306064 0.982095 5.76165
-0.479452 0.58484 5.37753
-0.0524585 0.54305 5.45332
-0.240243 0.582311 5.35586
0.193287 0.039922 4.89797
-0.00679544 0.96885 5.52655
0.0498854 0.310144 5.47542
0.148511 0.926812 5.65206
0.240678 -0.123545 5.02853
0.139489 -0.513553 5.28271
0.219861 -0.276933 5.2768
0.101762 -0.362194 5.04348
-0.59386 -0.706157 5.70974
0.371948 -0.126601 5.43022
0.160187 0.49769 5.59215
0.22813 0.096439 5.48906
