ply
    format ascii 1.0           
    element vertex 51
    property double x           
    property double y           
    property double z           
    end_header
-0.703046 -2.39801 6.13392
-0.41338 -2.4468 5.95405
-0.449884 -1.99278 6.02471
-0.32266 -2.09039 5.96099
-0.15432 -2.15535 5.89577
-0.114531 -2.34274 5.82255
0.0322525 -2.20802 5.86511
0.373141 -2.26959 5.89958
-0.218695 -1.80488 5.95442
0.0851994 -2.40433 5.83123
-0.776466 -2.6399 6.23659
0.122817 -1.48818 6.39913
0.212272 -2.20104 5.93056
-0.508328 -2.36969 6.1349
-0.291421 -2.30502 5.97731
-0.128966 -1.6122 6.26246
-0.129216 -1.95749 5.98384
-0.188331 -1.49489 6.5256
-0.628795 -2.56845 6.09709
-0.22834 -2.49177 5.85037
-0.169842 -1.70766 6.08501
-0.0193966 -1.82144 6.01762
-0.340431 -1.84327 6.09449
-0.317102 -1.73183 6.37343
-0.421889 -2.5987 6.08434
0.278404 -2.42191 5.90818
0.09974 -2.00971 6.12494
0.0401464 -2.58179 5.95386
-0.00380524 -2.09797 6.00417
-0.304054 -2.73402 6.1767
-0.0449413 -1.54858 6.40471
-0.0430994 -1.41372 6.66765
-0.0041866 -1.73933 6.17308
0.0803102 -1.6147 6.27699
0.179428 -1.70579 6.42936
0.130441 -1.4112 6.60886
0.07752 -1.80934 6.30863
0.21006 -1.54511 6.69588
0.089997 -1.99997 6.36141
0.408941 -2.24369 6.05759
0.164584 -2.18936 6.44045
0.231016 -2.17591 6.11954
0.159162 -1.56063 6.54636
0.269483 -2.41847 5.90888
0.338768 -2.38167 6.15149
0.229011 -2.3877 6.46692
0.102853 -2.6645 6.23811
0.16475 -1.71479 6.59693
0.226036 -2.54798 6.07107
0.087098 -1.87552 6.5122
0.0682525 -1.82716 6.6821
