ply
    format ascii 1.0           
    element vertex 66
    property double x           
    property double y           
    property double z           
    end_header
0.143961 0.708829 3.3781
-0.505247 -0.110293 3.29813
-0.0421284 -0.354945 3.96626
0.0734491 0.364814 3.59379
0.255597 1.03347 3.33009
0.213351 0.871465 3.47705
-0.471651 -0.278908 3.42801
-0.347871 -0.485268 3.6957
-0.371884 -0.272736 3.63924
0.307564 1.14274 3.28869
-0.426732 -0.0787224 3.51263
0.29258 0.739042 3.536
-0.0232884 0.0849949 3.716
0.325233 1.00774 3.48754
-0.437315 -0.00520046 3.11166
-0.412029 -0.209828 3.13115
-0.187681 -0.432711 3.83566
0.165418 0.620829 3.47679
0.139102 -0.00741421 3.90159
0.193909 0.501516 3.58754
-0.274135 -0.0950205 3.66167
0.320396 -0.823077 3.87114
0.132545 0.184694 3.83369
0.270543 -0.640867 3.95862
0.513213 -0.584751 4.01413
-0.0034001 -0.167951 3.8478
-0.383948 -0.460492 3.46177
0.0364136 0.206002 3.456
0.146651 0.530637 3.30881
0.525726 0.679787 3.53358
-0.399653 0.051413 3.33103
-0.194847 -0.602535 3.72299
0.389333 0.466428 3.63908
0.141939 -0.458067 3.99205
-0.220076 -0.617318 3.52308
0.335422 0.169509 3.84127
0.18229 -0.662186 3.76923
-0.271961 0.0433783 3.50213
-0.00847179 -0.57061 3.83433
0.0568693 0.206249 3.22665
0.229431 -0.252689 3.90206
0.376446 -0.420915 3.97607
-0.184157 -0.289133 3.74287
0.488813 -0.288917 3.80954
-0.113963 -0.0912114 3.6928
0.367021 -0.0519409 3.83595
0.401702 0.847551 3.47108
0.362142 1.14399 3.43505
0.511827 -0.838193 3.97782
0.560358 0.879199 3.39397
0.439902 0.293005 3.65069
-0.0402055 -0.651099 3.65273
0.459766 1.00034 3.38842
0.576721 0.152565 3.52736
0.6449 -0.481153 3.83557
0.525467 0.491272 3.47772
0.632497 -0.756632 3.77843
0.52937 0.980729 3.22741
0.411776 0.099239 3.66474
0.342013 1.12176 3.41534
0.447716 1.12925 3.27378
0.486556 -0.251477 3.33849
0.547896 -0.095596 3.68945
0.503331 0.288466 3.46866
0.509408 0.817799 3.22202
0.551462 -0.0536203 3.44345
