ply
    format ascii 1.0           
    element vertex 49
    property double x           
    property double y           
    property double z           
    end_header
-0.620368 -0.553829 3.55407
-0.571622 0.292324 3.48603
-0.437005 0.662783 3.43353
0.0302794 -0.437618 3.07769
-0.24412 0.304472 3.23627
-0.179043 -0.15637 3.12128
-0.60896 -0.137062 3.43011
-0.407168 -0.314905 3.26502
-0.579934 0.00952043 3.20138
-0.66121 -0.345234 3.58594
-0.48823 0.82825 3.77308
-0.350423 -0.764699 3.60008
-0.67015 -0.280114 3.80073
-0.395333 -0.115651 3.18459
-0.505164 -0.335698 3.4542
-0.671779 -0.480568 3.77472
-0.23447 0.430419 3.37747
-0.143253 -0.35012 3.18169
-0.428317 -0.530382 3.40724
-0.369422 0.0934284 3.22366
0.00683082 -0.234497 3.10757
-0.0773613 0.208956 3.24481
-0.382974 0.263148 3.36928
-0.413053 0.470476 3.74142
-0.161453 0.0337556 3.2187
-0.220466 1.01209 3.83416
0.0201021 -0.0754816 3.22377
-0.224418 0.763738 3.45034
-0.390908 1.08264 3.85706
-0.0214417 0.398678 3.42205
0.0743493 0.0876794 3.33345
0.173134 -0.221206 3.20751
0.183685 -0.0933886 3.35481
0.225784 -0.404362 3.35592
0.0998028 0.201038 3.52948
-0.129045 0.713803 3.60465
0.329267 -0.28533 3.46539
0.401395 -0.455942 3.43066
0.173119 0.0267458 3.52512
0.450671 -0.566203 3.54553
-0.255501 0.550638 3.48988
0.337397 -0.578431 3.3109
0.0699646 -0.386686 3.26799
0.24822 -0.132988 3.54008
-0.16749 0.610162 3.79777
0.124905 -0.59093 3.25079
0.0611333 -0.749354 3.37537
0.297401 -0.659978 3.49266
-0.128247 0.400351 3.73644
