ply
    format ascii 1.0           
    element vertex 56
    property double x           
    property double y           
    property double z           
    end_header
0.217631 -2.42514 7.86493
-0.635538 -3.36826 8.15711
-0.273221 -3.01579 8.14756
-0.177975 -1.44871 8.51626
0.56373 -1.78499 8.32352
1.36087 -3.48653 8.69216
-0.0569372 -3.44214 8.00829
0.0945006 -0.553111 8.70765
1.01049 -1.24029 8.9154
0.829543 -0.369755 8.86935
0.514651 -1.3506 8.59542
0.101257 -1.05138 8.63728
0.821436 0.103742 9.14698
-0.0727651 -0.0203714 8.90578
1.10504 -4.01096 8.58153
0.150405 -2.07672 8.27043
-0.383859 -4.13068 8.51282
0.266286 -3.03288 8.13951
-0.283843 -0.394034 8.95702
0.597785 -0.859092 8.77866
0.00338767 0.388511 9.29626
0.0324874 -3.93235 8.22884
0.363146 -0.149554 8.92726
0.78007 -3.10272 8.18889
0.681111 -2.53895 7.77926
-0.0428021 -2.57798 8.23643
1.71184 -3.36714 9.07994
0.934207 -2.1296 8.4795
0.94323 -1.69936 8.72255
0.423696 -3.55703 8.22748
0.523998 0.421771 9.30733
1.04126 -0.787036 9.21087
0.0173319 -1.80118 8.44301
0.833422 -3.52055 8.52931
0.610981 -2.23437 8.12979
-0.386085 -3.64943 8.29745
1.23791 -1.74825 9.20314
0.983171 -2.5959 8.1932
1.5332 -3.92518 8.97103
-0.470847 -2.69832 8.52647
-0.701152 -3.77565 8.70311
1.72333 -3.01959 9.47815
1.33468 -2.95037 9.06202
1.34274 -2.24271 8.99527
1.52024 -2.54897 9.32547
1.02816 -3.05883 8.6311
1.21817 -2.60456 8.65394
-0.802562 -2.9759 8.36901
1.78483 -3.53487 9.60247
1.59404 -3.98157 9.44803
1.07354 -4.23646 9.10213
0.67113 0.0749861 9.69836
0.98858 -0.761903 9.72107
1.18359 -1.32958 9.43154
0.993831 -1.71052 9.74766
0.770622 -0.357068 9.44045
