ply
    format ascii 1.0           
    element vertex 54
    property double x           
    property double y           
    property double z           
    end_header
0.377236 -0.0360781 1.56308
0.377431 -0.0363837 1.5624
0.377096 -0.0362288 1.56303
0.377164 -0.0364812 1.56275
0.376864 -0.0359651 1.56362
0.377291 -0.0364807 1.56263
0.377389 -0.0363261 1.56258
0.377507 -0.0363941 1.56231
0.377486 -0.0364302 1.56239
0.377288 -0.0364359 1.56261
0.377048 -0.0361404 1.56322
0.377501 -0.0364931 1.56241
0.377013 -0.035941 1.56346
0.377545 -0.0364491 1.56235
0.376777 -0.0358246 1.56376
0.377285 -0.0362515 1.56283
0.377329 -0.0362319 1.56289
0.377391 -0.0364317 1.5625
0.377005 -0.0366342 1.56312
0.376745 -0.0356129 1.56423
0.37542 -0.034799 1.56677
0.377214 -0.0361544 1.56304
0.376598 -0.0364728 1.56363
0.377219 -0.0365608 1.5628
0.377353 -0.0363467 1.56257
0.377383 -0.0364822 1.56255
0.377523 -0.0363978 1.56233
0.377563 -0.0364445 1.56238
0.377156 -0.0359524 1.56332
0.377457 -0.0364674 1.56248
0.377472 -0.0363678 1.56258
0.377177 -0.0365224 1.56279
0.37739 -0.0363089 1.56269
0.377456 -0.0363726 1.56243
0.377225 -0.0361066 1.56325
0.377539 -0.0364848 1.56241
0.377465 -0.0364293 1.5626
0.34656 -0.041151 1.67125
0.377472 -0.0363639 1.56247
0.377323 -0.0362812 1.56301
0.377487 -0.0364311 1.56245
0.377523 -0.0363984 1.56239
0.377465 -0.0363933 1.56269
0.377544 -0.0364735 1.56254
0.377544 -0.0364947 1.56247
4.25786 0.603553 -10.7363
0.377127 -0.0361259 1.56366
0.191459 0.133415 2.11003
0.37728 -0.0366477 1.563
0.37713 -0.0358936 1.56346
0.376597 -0.0355573 1.56507
0.377449 -0.0364779 1.56289
0.377518 -0.0365185 1.56255
0.377066 -0.0362994 1.56387
