ply
    format ascii 1.0           
    element vertex 50
    property double x           
    property double y           
    property double z           
    end_header
-0.226287 0.980884 2.98618
-0.160921 0.378709 2.74367
-0.263779 0.817303 3.17482
-0.352857 -0.0732078 2.57744
-0.263818 0.685777 2.94444
-0.340173 0.51306 3.01968
-0.0814515 0.628186 2.86188
-0.142515 -0.706876 2.25858
-0.284161 0.249748 2.84974
-0.438478 -0.493853 2.47529
-0.547607 -0.390928 2.61616
-0.531001 -0.571554 2.63965
-0.244768 -0.179087 2.45137
-0.311799 -0.00561947 2.76622
-0.089076 -0.12851 2.33099
-0.268777 -0.599313 2.40336
-0.47522 -0.316732 2.78549
-0.331481 0.124902 3.00402
-0.10892 -0.32388 2.29438
-0.212519 0.405159 3.11696
-0.383066 -0.303861 2.56117
-0.312303 -0.740128 2.72266
-0.171495 0.123108 2.71618
-0.103694 -0.500737 2.26041
-0.253125 -0.395227 2.43914
-0.353609 -0.132592 2.91922
-0.331907 -0.199062 2.72614
0.107192 -0.569467 2.26407
0.00131785 0.0647238 2.62126
0.0535449 -0.773215 2.26282
0.0954879 -0.376822 2.32057
-0.00615513 0.250767 2.72576
-0.160216 -0.0623777 2.6131
0.0657538 -0.206925 2.22227
0.285464 -0.712428 2.50744
-0.0249791 0.432507 2.88999
0.134275 -0.0944373 2.64382
-0.0852547 0.884374 3.08514
0.235882 -0.255679 2.41187
0.0133097 0.713791 3.02063
0.461562 -0.572047 2.7704
0.421039 -0.727396 2.6708
0.262381 -0.472192 2.40531
0.322183 -0.35675 2.55955
0.218198 -0.0202151 2.80601
0.2515 -0.198298 2.76996
0.0798387 -0.131266 2.44395
0.323967 -0.578209 2.63677
0.282849 -0.842689 2.73171
0.254187 -0.663397 2.36971
