ply
    format ascii 1.0           
    element vertex 48
    property double x           
    property double y           
    property double z           
    end_header
-0.387478 -0.520188 2.23933
-0.39281 -0.644067 2.21015
-0.375773 -0.435871 2.25777
-0.329139 -0.534637 2.22149
-0.395612 -0.488511 2.30925
-0.402926 -0.731046 2.12227
-0.329378 -0.917791 2.03175
-0.307468 -0.749024 2.06336
-0.462775 -0.872279 2.13525
-0.346606 -0.603811 2.19221
-0.363568 -0.762588 2.091
-0.255508 -0.773638 2.03831
-0.418424 -0.753669 2.22581
-0.467962 -0.821775 2.12479
-0.373367 -0.88383 2.07013
-0.413422 -0.797797 2.11671
-0.312954 -0.859794 2.03618
-0.428799 -0.852147 2.08415
-0.365605 -0.826292 2.08979
-0.354361 -0.679713 2.17472
-0.404979 -0.92598 2.15996
-0.29738 -0.700612 2.15389
-0.416467 -0.571514 2.2538
-0.313798 -0.80425 2.04011
-0.304254 -0.6481 2.18664
-0.251934 -0.884751 2.04922
-0.415189 -0.679444 2.23724
-0.347275 -0.733817 2.14368
-0.255538 -0.826181 2.06718
-0.311543 -0.518438 2.27887
-0.217682 -0.863962 2.10791
-0.339485 -0.470443 2.28624
-0.318273 -0.599331 2.23608
-0.218728 -0.9185 2.09182
-0.270796 -0.943626 2.04493
-0.2185 -0.796415 2.10701
-0.265613 -0.750549 2.17001
-0.197649 -0.950324 2.201
-0.185262 -0.905532 2.22963
-0.251479 -0.734961 2.22554
-0.290632 -0.672287 2.24113
-0.209661 -0.833244 2.15909
-0.246705 -0.791505 2.21647
-0.266616 -0.756417 2.10818
-0.219398 -0.90163 2.18034
-0.347037 -0.608101 2.18321
-0.232195 -0.941279 2.14682
-0.342914 -0.577928 2.29725
