ply
    format ascii 1.0           
    element vertex 47
    property double x           
    property double y           
    property double z           
    end_header
0.563418 -0.684834 4.85143
0.570436 -0.682189 4.83759
0.564612 -0.686444 4.8511
0.560639 -0.674341 4.88432
0.568655 -0.684107 4.84211
0.566723 -0.683865 4.84506
0.572577 -0.681223 4.83114
0.557909 -0.676147 4.88756
0.569144 -0.681065 4.8425
0.566832 -0.680474 4.84948
0.565742 -0.674747 4.87135
0.569793 -0.684896 4.84036
0.561512 -0.679706 4.87081
0.567388 -0.686172 4.84561
0.563576 -0.684036 4.85574
0.571275 -0.683015 4.83735
0.572546 -0.680686 4.83389
0.57274 -0.682867 4.83611
0.57065 -0.681373 4.83885
0.571515 -0.684247 4.83871
0.568045 -0.682923 4.84425
0.562835 -0.677754 4.87569
0.566171 -0.682332 4.85099
0.570046 -0.687442 4.84828
0.572106 -0.68212 4.84385
0.563808 -0.688368 4.85584
0.567314 -0.678353 4.86123
0.568102 -0.677469 4.86828
0.573063 -0.684074 4.84145
0.568053 -0.681372 4.87553
0.568376 -0.680063 4.85668
0.573293 -0.685555 4.8415
0.57267 -0.681753 4.83358
0.569838 -0.695342 4.87462
0.573227 -0.683664 4.83481
0.569202 -0.680063 4.84465
0.57288 -0.687734 4.85679
8.18789 3.05873 -35.6471
0.572909 -0.682209 4.83825
0.572307 -0.680984 4.84034
0.566751 -0.68021 4.86299
0.571092 -0.680449 4.85179
0.565301 -0.68581 4.90677
0.563385 -0.692043 4.9233
0.399697 -0.957299 5.87811
0.226918 -1.02751 6.19516
0.570719 -0.688517 4.87126
