ply
    format ascii 1.0           
    element vertex 38
    property double x           
    property double y           
    property double z           
    end_header
-0.463673 -0.895046 3.44617
-0.547203 -1.00653 3.41058
-0.427295 -0.695084 3.51647
-0.323261 -0.660727 3.53453
-0.479529 -0.796467 3.47883
-0.410429 -1.07884 3.34792
-0.276345 -0.745095 3.50357
-0.434367 -1.01282 3.42883
-0.556785 -0.943316 3.50236
-0.367207 -0.812083 3.52714
0.525584 0.937663 -1.81215
-0.371734 -0.588911 3.62656
-0.262714 -0.848034 3.49204
-0.340724 -0.990903 3.39885
-0.310156 -1.07098 3.32251
-0.240578 -1.00059 3.36764
-0.364641 -0.905149 3.4813
-0.425828 -0.503164 3.60642
-0.363547 -1.18123 3.39143
-0.139115 -1.16777 3.54505
-0.319033 -1.31373 3.49967
-0.169656 -1.09506 3.61007
-0.216566 -0.833141 3.58526
-0.275924 -0.949416 3.45689
-0.210621 -1.21503 3.50155
-0.206841 -0.932054 3.53361
-0.253611 -1.15382 3.39706
-0.518948 -0.496246 3.57751
-0.229611 -1.05982 3.46166
-0.246673 -1.00752 3.58816
-0.39415 -0.657396 3.707
-0.295375 -0.76325 3.60939
-0.265327 -1.2685 3.61309
-0.288138 -0.969326 3.68079
-0.1765 -1.20631 3.63935
-0.353045 -0.748474 3.70234
-0.301308 -0.850088 3.67491
-0.430566 -0.511135 3.59858
