ply
    format ascii 1.0           
    element vertex 37
    property double x           
    property double y           
    property double z           
    end_header
-0.427974 -0.896664 2.89278
-0.262468 -0.970866 2.77475
-0.502681 -0.982587 2.86804
-0.26224 -0.780321 2.92384
-0.294566 -0.718016 2.96836
-0.135561 -1.12537 2.86197
-0.42797 -0.819316 2.93549
-0.405849 -0.989963 2.85743
-0.253962 -0.862449 2.89621
-0.333642 -1.02548 2.74405
-0.518037 -1.06926 2.87876
-0.408241 -1.03952 2.79305
-0.313952 -0.670231 3.0576
-0.337393 -0.970815 2.82414
-0.35813 -1.12009 2.7915
-0.225397 -1.16289 2.85237
-0.483764 -0.932011 2.93356
-0.337967 -0.907227 2.9
-0.296125 -1.24009 2.84743
-0.434892 -0.672039 3.08817
-0.172068 -1.07881 2.94916
-0.206665 -0.935925 2.91138
-0.383131 -0.740134 2.97191
-0.275023 -0.940368 2.86713
-0.204485 -0.863421 2.96594
-0.26691 -1.09723 2.77985
-0.237224 -1.02838 2.84112
-0.319845 -0.737384 3.11357
-0.237205 -1.21639 2.93808
-0.164641 -1.17244 2.95251
-0.236476 -1.00076 2.95419
-0.147736 -1.12807 2.87516
-0.343001 -1.0234 2.75126
-0.258872 -0.933516 2.85227
-0.276623 -0.805902 3.01462
-0.260647 -0.886755 3.05346
-0.300533 -0.806225 3.09815
