ply
    format ascii 1.0           
    element vertex 55
    property double x           
    property double y           
    property double z           
    end_header
-0.424732 -1.44229 3.152
-0.308281 -1.2142 3.02051
-0.448808 -1.22098 3.33837
-0.379994 -1.01963 3.36433
-0.325944 -1.3654 2.99657
-0.391126 -0.814808 3.4838
-0.398752 -1.25438 3.11377
-0.389747 -0.892998 3.38418
-0.425804 -1.37737 3.10338
-0.396912 -1.12406 3.24309
-0.403004 -1.08594 3.31548
-0.373732 -0.791879 3.42065
-0.443801 -1.29227 3.293
-0.516404 -1.3664 3.25968
-0.391959 -0.961218 3.42243
-0.381219 -0.8851 3.53064
-0.341004 -1.30126 3.05713
-0.450464 -1.32243 3.16348
-0.263975 -1.02676 3.24349
-0.372259 -1.15758 3.17166
-0.361729 -1.01127 3.30043
-0.211644 -0.958309 3.31282
-0.407851 -1.18165 3.39961
-0.329427 -1.2037 3.10894
-0.284339 -0.914955 3.34298
-0.286819 -1.14418 3.1498
-0.288968 -1.28316 2.97343
-0.271511 -1.10163 3.21385
-0.433984 -1.20873 3.18069
-0.232637 -1.43147 3.00585
-0.323082 -1.41174 3.09505
-0.309204 -0.744747 3.42517
-0.234737 -1.36484 2.98263
-0.201027 -1.28388 2.97283
-0.223596 -1.19983 3.0286
-0.334572 -1.07596 3.25797
-0.186593 -1.06875 3.22465
-0.32662 -0.849076 3.39597
-0.302195 -0.973224 3.29349
-0.205894 -1.16369 3.20728
-0.261125 -0.86308 3.37161
-0.393381 -0.955521 3.42142
-0.217906 -1.44923 3.0326
-0.237845 -0.76995 3.45968
-0.181832 -0.926388 3.39975
-0.136101 -1.39717 3.05158
-0.11583 -1.32082 3.09349
-0.157545 -1.04568 3.31293
-0.267259 -0.802303 3.40187
-0.118486 -1.24312 3.26734
-0.160084 -1.23094 3.17755
-0.214927 -0.875098 3.42671
-0.207591 -0.85045 3.50255
-0.123549 -1.3262 3.24065
-0.166948 -1.26497 3.05861
