ply
    format ascii 1.0           
    element vertex 38
    property double x           
    property double y           
    property double z           
    end_header
-0.0588958 -0.576717 6.30277
0.0105452 -0.755866 6.22407
-0.082454 -1.39342 5.99254
-0.137718 -1.07735 6.10767
-0.364447 -1.73331 6.12138
0.231911 -1.87185 5.97851
0.0476762 -0.929994 6.14844
-0.213767 -1.52227 6.02288
-0.113992 -0.908052 6.26236
-0.0522001 -1.89984 6.0003
-0.360409 -1.59756 6.24632
-0.215454 -1.07562 6.26751
-0.222737 -1.39394 6.14595
-0.236661 -1.26007 6.27678
-0.257808 -1.92361 6.0846
-0.120817 -0.734002 6.38774
0.0398779 -1.56008 5.9427
-0.342861 -1.93768 6.28304
-0.106716 -1.26497 6.16257
-0.173927 -1.74088 6.06942
0.421849 -1.7673 6.12507
0.0922329 -1.81901 6.05283
0.120447 -1.38429 5.93946
0.0813002 -1.18224 6.31084
0.123019 -0.637017 6.3659
0.247011 -1.36087 6.09317
0.152641 -0.832224 6.34818
0.272989 -1.69582 6.29257
0.155814 -1.5986 6.12289
0.151163 -1.0208 6.40687
0.329318 -1.76883 6.07597
0.321421 -1.95547 6.25066
0.209258 -1.87577 5.99598
0.127383 -1.44726 6.41077
0.446201 -1.76874 6.2118
0.451803 -1.84273 6.32753
0.155349 -1.62437 6.29625
15.8813 -1.1137 -4.43754
