ply
    format ascii 1.0           
    element vertex 38
    property double x           
    property double y           
    property double z           
    end_header
-0.235058 -0.822133 1.69856
-0.226271 -0.558232 1.76703
-0.158832 -0.591596 1.76686
-0.0995836 -0.813586 1.68338
-0.139382 -0.641866 1.74814
-0.191036 -0.521602 1.77996
-0.190761 -0.640414 1.72515
-0.195601 -0.788308 1.66574
-0.248961 -0.772156 1.71162
-0.118219 -0.733405 1.65494
-0.14771 -0.714776 1.66586
-0.142988 -0.805596 1.6556
-0.186578 -0.721832 1.65898
-0.151279 -0.747053 1.65341
-0.17328 -0.619587 1.74593
-0.119022 -0.69608 1.7073
-0.170532 -0.689006 1.65772
-0.128537 -0.775578 1.66733
-0.180141 -0.678668 1.68593
-0.159003 -0.669704 1.71286
-0.130027 -0.676725 1.73384
-0.249284 -0.798983 1.71595
-0.115938 -0.723413 1.68764
-0.151238 -0.695113 1.69197
-0.0898381 -0.761996 1.71247
-0.102553 -0.753734 1.67683
-0.110631 -0.785792 1.69674
-0.112303 -0.734917 1.7223
-0.106107 -0.791458 1.73324
-0.148417 -0.803765 1.66132
-0.119486 -0.81921 1.71252
-0.17694 -0.665366 1.77056
-0.129961 -0.769913 1.75296
-0.142816 -0.711191 1.73277
-0.164087 -0.590907 1.76834
-0.151342 -0.839135 1.69985
-0.157369 -0.637211 1.77288
-0.17433 -0.713453 1.75818
