ply
    format ascii 1.0           
    element vertex 39
    property double x           
    property double y           
    property double z           
    end_header
-0.863435 -1.71126 5.38661
-0.834175 -1.8514 5.37334
-0.780656 -1.41272 5.64469
-0.738045 -1.60738 5.61546
-0.714635 -2.0147 5.43161
-0.77599 -1.80146 5.48152
-0.587824 -1.0961 5.5662
-0.630881 -2.02382 5.53553
-0.842302 -1.41702 5.5307
-0.678004 -1.82894 5.54248
-0.81135 -1.68193 5.51017
-0.701823 -1.71604 5.5676
-0.681802 -1.49454 5.62751
-0.588218 -1.90168 5.50073
-0.635787 -1.25404 5.61234
-0.865426 -1.58549 5.56188
-0.837728 -1.45977 5.39441
-0.78367 -1.946 5.34299
-0.543337 -2.12663 5.51794
-0.575541 -1.3145 5.65858
-0.777364 -1.91865 5.45166
-0.674647 -2.14594 5.48228
-0.78652 -1.50957 5.5806
-0.592996 -1.41056 5.6173
-0.70578 -1.32942 5.62447
-0.705117 -1.19185 5.53409
-0.586979 -1.50779 5.5487
-0.607388 -1.63144 5.55419
-0.609786 -1.12217 5.58365
-0.490896 -1.06777 5.45312
-0.553021 -2.17734 5.40535
-0.461033 -2.0844 5.39972
-0.519642 -2.00105 5.48788
-0.497578 -1.2695 5.58993
-0.858833 -1.56283 5.50997
-0.591785 -1.64882 5.37997
-0.662348 -2.14961 5.50264
-0.625247 -2.02441 5.55649
-0.519806 -1.86137 5.36606
