ply
    format ascii 1.0           
    element vertex 63
    property double x           
    property double y           
    property double z           
    end_header
-0.184409 -0.354349 1.81971
-0.205006 -0.170047 1.94218
-0.132258 -0.0808646 1.97935
-0.13925 -0.427665 1.75412
-0.214584 -0.604384 1.61913
-0.250439 -0.655755 1.63828
-0.166727 -0.392669 1.78894
-0.194491 -0.4483 1.7713
-0.281084 -0.594579 1.66976
-0.215978 -0.425071 1.81616
-0.196932 -0.500984 1.70765
-0.0864997 -0.458226 1.73013
-0.14597 -0.134256 1.94896
-0.114121 -0.375443 1.75752
-0.235773 -0.483437 1.80333
-0.0768513 -0.313683 1.80194
-0.131426 -0.26475 1.82875
-0.126428 -0.338919 1.79139
-0.141614 -0.507594 1.69351
-0.112068 -0.579345 1.67372
-0.184432 -0.66348 1.63558
-0.121318 -0.645354 1.64976
-0.0764359 -0.694783 1.66994
-0.0896626 -0.538254 1.70744
-0.076624 -0.413897 1.76591
-0.0270985 -0.660783 1.6988
-0.0726993 -0.276464 1.8384
-0.0783214 -0.623666 1.69894
-0.169638 -0.556116 1.68389
-0.0995351 -0.235185 1.86574
-0.156436 -0.482531 1.74696
-0.0129465 -0.723879 1.70162
-0.0596146 -0.373056 1.78898
-0.0403534 -0.515869 1.75486
0.00286621 -0.575125 1.78078
-0.213223 -0.750309 1.69688
-0.174328 -0.603516 1.66135
-0.0192881 -0.619164 1.74537
-0.0517531 -0.573489 1.74072
-0.228042 -0.555392 1.66271
-0.141667 -0.214781 1.88018
-0.0373557 -0.471996 1.79451
-0.150479 -0.705143 1.68749
0.0319904 -0.712734 1.79739
-0.0280634 -0.423805 1.79986
-0.0174631 -0.38907 1.8314
-0.129186 -0.193547 1.93451
0.0124837 -0.680471 1.74243
0.00638695 -0.651794 1.80433
-0.026967 -0.335803 1.82169
-0.0829673 -0.231593 1.917
-0.128297 -0.128872 2.01554
-0.00304726 -0.74263 1.74961
-0.127288 -0.222694 1.87426
-0.0089349 -0.438733 1.85609
-0.115091 -0.18515 1.98739
-0.138968 -0.162662 2.07543
-0.0197223 -0.464712 1.76817
-0.0345822 -0.287959 1.91784
-0.0354337 -0.306226 1.87039
-0.0148732 -0.350895 1.91394
-0.0141277 -0.579127 1.8324
-0.200709 -0.748575 1.69021
