ply
    format ascii 1.0           
    element vertex 44
    property double x           
    property double y           
    property double z           
    end_header
-1.39781 -3.71931 8.44372
-1.81025 -3.48779 8.78059
-1.86529 -3.42016 9.07132
-1.17316 -3.07676 8.44805
-1.64783 -2.80608 8.69526
-1.02418 -2.37281 8.89427
-1.39531 -3.16834 8.63203
-0.783676 -2.72382 8.74601
-1.08239 -1.83452 9.39816
-1.58837 -3.58437 8.6164
-1.10291 -2.16723 9.31075
-0.891151 -2.02291 9.1354
-1.57867 -3.09833 8.83392
-1.52051 -3.82987 8.76523
-1.2268 -3.49606 8.38646
-1.58094 -3.35754 8.7805
-1.3085 -2.6452 8.93723
-1.34308 -2.72346 8.66696
-0.777799 -3.35694 8.55528
-0.869783 -3.02871 8.58707
-1.78522 -3.72247 8.91175
-1.2361 -2.44079 9.10927
-1.28276 -3.96606 8.68828
-1.45025 -2.87551 8.52339
-1.04512 -2.64309 8.82958
-1.30877 -3.43396 8.65484
-1.1156 -2.89073 8.6622
-0.53866 -2.62919 9.00609
-0.809028 -2.53982 8.95883
-0.668724 -2.22371 9.37477
-0.799931 -1.727 9.54204
-0.591337 -1.90424 9.59514
-1.00578 -3.52791 8.5569
-0.597784 -2.46285 9.54223
-1.04067 -3.26162 8.63497
-0.599821 -2.88103 8.90196
-0.895583 -2.32326 9.17945
-0.566437 -3.12011 9.09669
-0.625247 -3.45921 8.77647
-0.800148 -1.95723 9.38299
-0.780633 -3.20742 8.75343
-0.466018 -2.85234 9.15214
-0.867543 -2.93961 8.84538
-0.772454 -3.82275 9.16266
