ply
    format ascii 1.0           
    element vertex 36
    property double x           
    property double y           
    property double z           
    end_header
-0.940178 -1.19275 6.43637
-1.12626 -2.07387 5.95362
-1.03507 -2.0739 5.83216
-0.981427 -1.39206 6.36563
-1.09262 -1.93269 5.93747
-0.819166 -1.55452 6.10022
-0.978418 -1.64182 6.20368
-0.979887 -1.80385 6.21002
-0.921099 -1.50363 6.2046
-0.873214 -1.69868 6.13147
-0.993034 -1.93444 5.8372
-0.886652 -1.2846 6.3428
-0.804693 -1.43111 6.16353
-0.883768 -1.84498 5.93865
-0.744696 -1.32576 6.31187
-0.766869 -2.08302 5.80974
-0.741934 -1.86118 5.9134
-0.591532 -2.00602 5.87407
-0.806833 -1.75676 6.0106
-0.669456 -1.75251 5.97429
-0.902355 -2.04672 5.81531
-0.477142 -2.12566 5.93704
-0.431268 -1.8365 6.08238
-0.59129 -1.88355 5.96317
-0.667001 -1.54325 6.13645
-0.843577 -1.96968 5.90234
-0.77973 -1.21288 6.41152
-0.457732 -1.9593 5.99886
-0.559221 -1.77929 6.05167
-0.701006 -1.45903 6.2452
-0.722729 -1.66576 6.07925
-0.88336 -2.30124 6.136
-0.975958 -2.17018 5.9306
-0.599494 -1.67403 6.14633
-0.451535 -2.0849 6.10359
-0.547206 -1.64069 6.27744
