ply
    format ascii 1.0           
    element vertex 47
    property double x           
    property double y           
    property double z           
    end_header
-0.084364 -1.04932 3.10395
-0.0618804 -0.86207 3.30963
-0.0245484 -0.89792 3.2084
-0.349714 -1.29708 3.10699
-0.222953 -1.24108 3.09872
-0.282294 -1.39578 2.99868
-0.434555 -1.30548 3.11802
-0.0395893 -1.28996 2.98762
-0.1205 -1.12318 3.07472
-0.0100516 -1.20067 3.04593
-0.0152605 -0.798566 3.30955
-0.129639 -1.33733 2.97079
-0.0421058 -0.983387 3.1357
-0.195052 -1.4053 2.9785
-0.367196 -1.37699 3.03852
-0.0684237 -1.40648 3.0034
-0.0900709 -0.956327 3.19779
-0.210512 -1.32092 3.02255
0.0681692 -0.915292 3.22474
0.0226118 -0.85049 3.26784
-0.125001 -1.26981 3.03317
-0.0306645 -1.11932 3.08408
-0.387354 -1.45648 3.03986
-0.202336 -1.49395 3.00099
-0.30751 -1.48932 3.00928
-0.293225 -1.33714 3.05935
0.000540142 -1.46392 3.03021
-0.107844 -1.20314 3.08043
0.0159721 -1.05697 3.1318
0.0426919 -1.14759 3.13699
0.0196243 -1.42589 3.10742
0.0246363 -0.998563 3.20376
0.00602887 -1.29037 3.06616
-0.272118 -1.56386 3.06038
0.0236406 -1.29546 3.15705
0.0488925 -1.08979 3.21429
0.028548 -1.0044 3.29065
-0.0117584 -1.51796 3.10854
-0.0616771 -1.35423 3.08953
0.0149159 -1.1949 3.2178
-0.0363841 -1.4926 3.1879
-0.037518 -1.34888 3.24249
-0.0507393 -1.25956 3.25432
-0.122392 -1.44195 3.23996
-0.041087 -1.22462 3.14671
-0.0134542 -1.05346 3.28883
-0.0285916 -1.40519 3.16198
