ply
    format ascii 1.0           
    element vertex 41
    property double x           
    property double y           
    property double z           
    end_header
-0.219805 -0.261651 1.78404
-0.288645 -0.641655 1.62915
-0.262524 -0.403966 1.73011
-0.185389 -0.627395 1.1645
-0.250862 -0.539523 1.66315
-0.598045 0.374819 -0.856673
-0.261442 -0.473099 1.67737
-0.259304 -0.792255 1.63553
-0.129559 -0.782822 1.59201
-0.247206 -0.593015 1.6297
-0.207777 -0.504342 1.65004
-0.21905 -0.674321 1.59111
-0.261509 -0.723868 1.61502
-0.182361 -0.325882 1.85009
-0.183143 -0.394911 1.73869
-0.16812 -0.74208 1.61941
-0.101345 -0.747624 1.62932
-0.215851 -0.454786 1.70781
-0.136789 -0.476981 1.74081
-0.0979013 -0.6231 1.71252
-0.200485 -0.211948 1.83601
-0.190961 -0.593055 1.66137
-0.181242 -0.639749 1.62051
-0.127883 -0.671367 1.63761
-0.110939 -0.562802 1.69893
-0.0130976 -0.795976 1.65203
-0.118631 -0.530659 1.75379
-0.160382 -0.541541 1.66256
-0.0446022 -0.842369 1.62663
-0.174574 -0.502918 1.70686
-0.169475 -0.265774 1.84721
-0.0551669 -0.790439 1.60261
-0.0920285 -0.676751 1.69465
-0.148273 -0.64117 1.6767
-0.0932134 -0.840656 1.5856
-0.178884 -0.456995 1.74921
-0.0560409 -0.746423 1.67032
-0.175395 -0.381934 1.79703
-0.0987713 -0.695313 1.76243
-0.126972 -0.593887 1.75872
-0.122274 -0.729145 1.66895
