ply
    format ascii 1.0           
    element vertex 52
    property double x           
    property double y           
    property double z           
    end_header
0.176993 -0.38632 1.34474
0.163007 -0.377528 1.36632
0.144713 -0.519327 1.29484
0.142381 -0.504222 1.31281
0.134227 -0.552539 1.31571
0.144541 -0.472861 1.31859
0.159933 -0.46033 1.30784
0.191294 -0.579302 1.30274
0.12754 -0.506002 1.26616
0.158011 -0.435745 1.32551
0.159735 -0.485093 1.30801
0.309884 -0.60569 2.27027
0.169763 -0.535575 1.28876
0.144623 -0.573568 1.30383
0.161655 -0.504655 1.29658
0.280027 -0.484491 1.90215
0.152811 -0.458141 1.33366
0.132174 -0.507728 1.32792
0.177932 -0.47556 1.3055
-4.14508 8.55295 -27.3866
0.168747 -0.421683 1.33701
0.135445 -0.499713 1.35687
0.150248 -0.549382 1.29404
0.137478 -0.595293 1.36323
0.178735 -0.562328 1.30636
0.19515 -0.457052 1.40777
1.57189 -2.4023 9.04432
0.182353 -0.525513 1.30162
0.191455 -0.491471 1.31568
0.20056 -0.568628 1.31817
0.173145 -0.45621 1.32364
0.205314 -0.520837 1.33813
0.178242 -0.507255 1.31306
0.198272 -0.467648 1.34155
0.161172 -0.579593 1.31676
0.196925 -0.538835 1.31222
0.187633 -0.436517 1.33401
0.157026 -0.533559 1.30875
0.211929 -0.564802 1.32904
0.184629 -0.36775 1.36247
0.18579 -0.409165 1.36818
0.185886 -0.47492 1.32705
0.204851 -0.499559 1.33031
0.200965 -0.484763 1.34384
0.188539 -0.523846 1.32144
0.227629 -0.585587 1.32586
0.188773 -0.38783 1.36973
0.186928 -0.429876 1.35176
0.199686 -0.540056 1.33664
0.202473 -0.600322 1.30144
0.211642 -0.602685 1.32102
0.190806 -0.55715 1.32699
