ply
    format ascii 1.0           
    element vertex 51
    property double x           
    property double y           
    property double z           
    end_header
-0.127238 -0.438116 2.94031
-0.0928227 -0.345462 3.03723
-0.339697 -1.28519 2.79647
-0.310314 -1.04678 2.79531
-0.298601 -0.890065 2.83449
-0.305159 -1.12948 2.71656
-0.195646 -0.389795 3.02434
-0.322726 -0.978284 2.90037
-0.232275 -0.697194 2.85841
-0.243416 -0.811706 2.89364
-0.266655 -1.28138 2.70555
-0.213962 -1.05235 2.71811
-0.222601 -0.949943 2.77058
-0.16764 -1.21096 2.67556
-0.167591 -0.62187 2.90323
-0.29334 -0.778777 2.98151
-0.126196 -0.900004 2.75529
-0.227366 -0.826126 2.7766
-0.0983273 -1.33785 2.74433
-0.282051 -1.39933 2.74757
-0.0744997 -0.695509 2.89599
-0.0924279 -1.15359 2.72838
0.0244097 -1.36451 2.79062
0.0190873 -1.52509 2.72522
-0.00871135 -1.004 2.84677
0.0750844 -1.43996 2.75464
-0.144323 -0.797544 2.84061
-0.0139857 -0.853786 2.93074
0.0295105 -1.12564 2.91199
-0.115161 -1.05985 2.78648
-0.0297929 -1.42648 2.72188
-0.228845 -1.18632 2.73355
-0.0880732 -0.553864 3.07272
-0.201075 -1.4323 2.81187
-0.0178389 -1.2214 2.78725
-0.0774996 -0.891544 2.85502
0.0122953 -1.02063 2.88593
0.0590108 -1.35862 2.88264
-0.0433322 -0.974914 2.79446
0.125872 -1.4719 2.88561
-0.0134906 -0.946104 2.9635
-0.0947108 -0.341103 3.03839
0.0816591 -1.4595 2.78113
-0.15056 -0.659165 2.82448
-0.0684413 -1.14697 2.84287
-0.00237438 -1.2267 2.91138
-0.0803166 -0.442679 3.0886
-0.084188 -0.661618 2.99605
0.0166951 -1.53974 2.73333
0.0622386 -1.55188 2.83645
-0.0396678 -1.31322 2.85536
