ply
    format ascii 1.0           
    element vertex 48
    property double x           
    property double y           
    property double z           
    end_header
-0.75057 -2.56975 6.62316
-0.741117 -1.42023 6.89948
-0.321195 -2.47939 6.55983
-0.717254 -1.90138 6.71147
-0.824194 -1.72599 6.82391
-0.797525 -2.38965 6.6139
-0.747896 -2.26608 6.90784
-0.874294 -1.7647 6.95368
-0.685297 -2.25088 6.67668
-0.775813 -1.38298 7.06545
-0.781774 -2.57826 6.81739
-0.806596 -2.04891 6.85498
-0.763635 -1.88924 6.91264
-0.621432 -2.34204 6.52031
-0.69211 -1.61781 6.77871
-0.686448 -2.15553 6.46539
-0.67468 -2.07439 6.75441
-0.739658 -1.59584 6.96788
-0.810514 -2.39416 6.80749
-0.491539 -1.83685 6.73868
-0.348486 -1.88237 6.64625
-0.757472 -1.60678 7.17163
-0.635027 -1.79263 6.82135
-0.560292 -1.96936 6.65557
-0.328508 -2.22904 6.61886
-0.395117 -1.7264 6.94811
-0.716177 -1.22444 7.11296
-0.432397 -1.54205 6.96583
-0.938727 -1.43393 7.13419
0.0163602 -2.37285 6.86689
-0.0409009 -2.4892 6.76606
-0.429447 -2.4052 6.63748
-0.691188 -2.17195 6.47124
-0.425375 -2.07953 6.54573
-0.595135 -2.12063 6.60808
-0.561057 -1.65777 6.90208
-0.123281 -2.28163 6.84497
-0.246606 -2.17169 6.77344
-0.609656 -1.48078 7.0068
-0.247315 -2.38608 6.76124
-0.162807 -2.47389 6.63174
-0.3615 -2.02828 6.76868
-0.217425 -2.08755 6.92534
-0.454412 -1.46574 7.12013
-0.36568 -1.8615 7.0651
-0.178576 -2.64317 6.85873
-0.299038 -1.96015 6.89603
-0.631684 -1.38738 7.16485
