ply
    format ascii 1.0           
    element vertex 54
    property double x           
    property double y           
    property double z           
    end_header
-0.306249 -0.985715 2.45713
-0.0968449 -1.07552 2.33452
-0.157568 -0.322335 2.67258
-0.161428 -0.955266 2.40079
-0.323267 -0.90449 2.50691
-0.0587408 -0.978715 2.37824
-0.230288 -0.423692 2.64663
-0.271563 -0.636003 2.58961
-0.237184 -0.776462 2.47295
-0.249574 -0.700668 2.53554
-0.173334 -0.490034 2.58175
-0.161421 -0.786267 2.41874
-0.0819635 -0.846149 2.40352
0.0393304 -0.991408 2.36302
-0.236379 -0.358733 2.7117
-0.224012 -0.566535 2.59772
-0.081322 -0.736344 2.44533
-0.172063 -0.86443 2.46004
-0.261404 -0.506506 2.6432
0.00585903 -0.907313 2.40457
-0.15928 -1.04755 2.41865
-0.180273 -0.63906 2.5663
-0.316033 -0.718176 2.60509
-0.180487 -0.708368 2.4785
-0.31425 -0.784038 2.55001
-0.0798744 -0.612792 2.56864
-0.147238 -0.410123 2.66341
-0.272802 -0.861783 2.55556
-0.0936385 -0.447756 2.59962
-0.0725793 -0.529862 2.62235
-0.113213 -0.684598 2.52298
-0.00189762 -1.10171 2.39298
-0.0849276 -0.353246 2.71023
-0.0923662 -0.911683 2.43863
-0.0118175 -0.810836 2.46376
0.0898667 -0.960382 2.41981
0.0792608 -1.05899 2.42213
-0.0236826 -0.488173 2.69436
0.0882055 -0.896417 2.47337
0.121887 -1.00573 2.48987
-0.0435465 -0.70149 2.59407
-0.045373 -0.578365 2.69457
-0.0493345 -0.639409 2.65347
-0.0945052 -0.446352 2.60407
-0.052687 -0.411183 2.66916
0.0712833 -0.929808 2.56325
0.056898 -1.09996 2.51172
-0.0404626 -0.770758 2.54207
-0.0502985 -0.43169 2.77475
-0.0628888 -0.526873 2.772
-0.082764 -0.73601 2.66883
-0.157534 -0.330989 2.67451
-0.0991345 -0.738717 2.74104
-0.0982979 -0.648105 2.74892
