ply
    format ascii 1.0           
    element vertex 44
    property double x           
    property double y           
    property double z           
    end_header
-1.8793 -2.64836 7.57622
-1.81272 -2.68737 7.26196
-1.82332 -2.23471 7.46503
-1.79311 -2.21003 7.20652
-1.72943 -2.05182 6.96698
-1.79276 -2.43909 7.12206
-1.44046 -1.28688 7.67893
-1.34954 -1.18253 7.46989
-1.77395 -1.98417 7.43121
-1.63136 -1.6413 7.46627
-1.54835 -1.888 6.94949
-1.80472 -2.4613 7.38019
-1.51018 -2.11097 6.83637
-1.70308 -1.97292 7.19746
-1.56371 -1.48243 7.62112
-1.33316 -1.76474 7.01598
-1.25514 -2.23158 6.80934
-1.58569 -1.79677 7.2991
-1.39758 -1.64705 7.22926
-1.18143 -1.3563 7.40231
-1.08873 -2.42652 6.83109
-1.63464 -2.28805 7.00069
-1.42307 -1.51248 7.42037
-1.29145 -1.96035 6.83687
-1.54436 -2.50742 7.09559
-1.38695 -2.37021 6.96486
-1.27491 -2.55373 7.06237
-1.04019 -2.69661 6.98993
-1.11409 -1.84603 6.97634
-0.899922 -2.07344 6.93211
-0.804968 -2.29595 6.93917
-1.10924 -1.65088 7.35183
-1.24527 -2.68919 6.93707
-0.858163 -2.82933 7.12046
-1.12097 -2.13981 7.00846
-1.04551 -3.01523 7.18114
-0.962322 -1.84225 7.32165
-1.00961 -1.95136 7.1084
-0.883457 -1.96062 7.50849
-1.18256 -1.29779 7.62839
-0.878611 -2.1798 7.51782
-0.96203 -2.44999 7.03491
-0.95522 -2.65073 7.21858
-1.2083 -1.81034 7.22354
