ply
    format ascii 1.0           
    element vertex 60
    property double x           
    property double y           
    property double z           
    end_header
-0.625062 -0.267079 3.48756
-0.649626 -0.463753 3.29408
-0.717612 -0.72144 3.16947
-0.753386 -1.02387 3.0606
-0.667758 -0.550666 3.25933
-0.58549 -0.261288 3.34545
-0.665283 -0.36107 3.30388
-0.665321 -0.623325 3.21106
-0.656479 -0.622408 3.33257
-0.723194 -0.862405 3.23788
-0.695792 -0.817521 3.14998
-0.771856 -0.881102 3.02618
-0.720352 -1.09224 3.12853
-0.785009 -0.927972 3.11828
-0.734632 -0.998385 3.15754
-0.762101 -0.961591 2.98605
-0.698797 -1.10028 3.02869
-0.569924 -0.222116 3.42681
-0.625256 -0.58337 3.12678
-0.565637 -0.430022 3.20353
-0.664783 -0.669833 3.12101
-0.63842 -0.512276 3.1788
-0.567122 -0.750518 3.06256
-0.472153 -0.854182 2.96574
-0.621288 -0.751155 3.13667
-0.587209 -0.398923 3.27635
-0.494734 -0.681995 3.07684
-0.477225 -0.756143 3.03486
-0.614509 -0.830211 3.096
-0.611961 -1.104 2.98639
-0.548202 -0.322678 3.29156
-0.546997 -0.506224 3.15566
-0.528387 -0.591956 3.1176
-0.656921 -0.937427 2.98471
-0.442309 -0.947855 2.98482
-0.592327 -0.870347 3.0155
-0.599223 -1.01012 2.95508
-0.581061 -0.66965 3.10537
-0.697388 -1.0259 2.97165
-0.537619 -0.949321 2.99736
-0.396253 -0.799004 3.00169
-0.372618 -0.883647 2.96238
-0.684772 -0.878291 3.05901
-0.523771 -0.839098 3.05624
-0.377671 -1.02415 3.09817
-0.521116 -1.04603 2.99457
-0.471629 -0.47976 3.22763
-0.463419 -0.564997 3.18643
-0.501611 -0.408672 3.26875
-0.404673 -1.10824 3.1554
-0.408506 -0.628145 3.24286
-0.566589 -0.423679 3.21104
-0.66109 -0.372792 3.3018
-0.395869 -0.727038 3.21678
-0.458621 -0.651379 3.16399
-0.485436 -1.0841 3.06588
-0.437305 -0.734065 3.13471
-0.570995 -0.222076 3.42684
-0.363377 -0.893724 3.05925
-0.53999 -0.320442 3.41925
