ply
    format ascii 1.0           
    element vertex 36
    property double x           
    property double y           
    property double z           
    end_header
-0.634833 -0.427533 2.80072
-0.582017 -0.307887 2.98672
-0.650856 -0.527076 2.81929
-0.635784 -0.680323 2.72278
-0.621186 -0.581296 2.73401
-0.735544 -0.682022 2.79743
-0.702029 -0.848817 2.77903
-0.567946 -0.723637 2.66233
-0.732096 -0.763084 2.80879
-0.657634 -0.462855 2.90043
-0.691817 -0.913666 2.87177
-0.512061 -0.26974 2.93002
-0.657132 -0.76763 2.74324
-0.671566 -0.62265 2.8114
-0.663753 -0.553503 2.93003
-0.633335 -0.377647 2.88066
-0.67912 -0.637527 2.91489
-0.63088 -0.922933 2.75737
-0.699815 -0.822483 2.87488
-0.493144 -0.785572 2.7017
-0.537502 -0.469237 2.78517
-0.535495 -0.640891 2.70616
-0.528492 -0.551159 2.74145
-0.419597 -0.846808 2.75237
-0.544138 -0.391274 2.85637
-0.435621 -0.518273 2.81436
-0.454623 -0.608831 2.76208
-0.461529 -0.368288 2.90851
-0.423203 -0.750817 2.76878
-0.464059 -0.423006 2.82037
-0.433278 -0.688326 2.83556
-0.426165 -0.460191 2.89757
-0.410481 -0.550344 2.88238
-0.436334 -0.512383 2.81657
-0.449253 -0.612427 2.93774
-0.456183 -0.428497 2.96975
