ply
    format ascii 1.0           
    element vertex 59
    property double x           
    property double y           
    property double z           
    end_header
-0.415945 -1.60479 3.96763
-0.468344 -0.780791 4.47935
-0.642048 -1.59518 4.30605
-0.268023 -1.44234 3.97348
-0.472348 -1.19194 4.27659
-0.427777 -0.99779 4.42923
-0.516727 -1.46908 4.16277
-0.671337 -1.71037 4.2937
-0.524614 -1.6848 4.09134
-0.5799 -1.6123 4.19302
-0.364379 -0.878118 4.49288
-0.70755 -1.64928 4.39157
-0.545433 -1.35164 4.23941
-0.535403 -1.26074 4.37035
-0.294602 -1.67816 3.93409
-0.391055 -1.48541 4.01921
-0.45533 -1.57493 4.10307
-0.452775 -0.668469 4.55624
-0.399723 -1.7302 4.02265
-0.569251 -1.14298 4.39015
-0.196357 -1.55903 3.94296
-0.436339 -1.36882 4.16351
-0.344259 -0.744015 4.5349
-0.340058 -1.1902 4.31278
-0.245872 -1.36517 4.23718
-0.313401 -1.05159 4.43988
-0.309265 -1.54844 3.94444
-0.344027 -1.85428 4.07722
-0.365813 -1.34108 4.25923
-0.441455 -1.13762 4.37964
-0.46256 -1.79809 4.12932
-0.194434 -1.32705 4.34381
-0.35428 -0.670338 4.63439
-0.147439 -1.42924 4.28623
-0.503946 -1.10092 4.49394
-0.176928 -1.66344 4.01908
-0.086546 -1.88509 4.3419
-0.0320828 -1.75902 4.33958
-0.0806128 -1.56149 4.38733
-0.163395 -1.54787 4.08199
-0.525052 -0.900103 4.53395
-0.260995 -1.76292 4.04235
-0.458685 -0.672473 4.55593
-0.134917 -1.74278 4.25749
-0.302737 -1.18088 4.43266
-0.237451 -1.92194 4.37857
-0.129779 -1.67035 4.36592
-0.251244 -1.81495 4.17626
-0.30491 -1.09667 4.56067
-0.157061 -1.58995 4.24464
-0.268531 -1.4613 4.10302
-0.236331 -1.27566 4.5028
-0.202799 -1.69499 4.14752
-0.100437 -1.62641 4.49932
-0.341765 -1.20715 4.55821
-0.178346 -1.43358 4.41153
-0.388861 -1.00356 4.54979
-0.361361 -1.87041 4.3492
-0.0851931 -1.78943 4.45302
