ply
    format ascii 1.0           
    element vertex 45
    property double x           
    property double y           
    property double z           
    end_header
-0.178281 -0.290941 0.714487
-0.244228 -0.335579 0.832623
-0.179908 -0.257539 0.818802
-0.196063 -0.310908 0.780065
-0.21772 -0.323961 0.824619
-0.234071 -0.310365 0.845
-0.183482 -0.302265 0.742789
-0.212243 -0.295646 0.833679
-0.260042 -0.308652 0.854
-0.196853 -0.252511 0.859961
-0.172351 -0.278686 0.750778
-0.195553 -0.277552 0.82231
-0.259512 -0.186438 0.883496
-0.280076 -0.323485 0.862178
-0.193762 -0.2836 0.769611
-0.214501 -0.198171 0.826748
-0.223001 -0.20423 0.862136
-0.208966 -0.231211 0.863917
-0.20675 -0.298561 0.803577
-0.225596 -0.25423 0.867976
-0.211627 -0.331703 0.798133
-0.214676 -0.267915 0.848962
-0.195862 -0.236741 0.833816
-0.209288 -0.311979 0.755894
-0.233864 -0.320969 0.745028
-0.254261 -0.266292 0.849853
-0.23611 -0.28444 0.842793
-0.25395 -0.338251 0.801617
-0.24978 -0.210071 0.8768
-0.275796 -0.206957 0.8636
-0.236243 -0.230913 0.865726
-0.294115 -0.164462 0.862162
-0.257269 -0.224997 0.852727
-0.27358 -0.15721 0.876074
-0.195037 -0.2515 0.857025
-0.27321 -0.335983 0.840835
-0.29749 -0.289768 0.831284
-0.269757 -0.240075 0.831254
-0.291141 -0.254227 0.812902
-0.277324 -0.179509 0.867881
-0.278264 -0.214984 0.835887
-0.298288 -0.309752 0.831671
-0.309789 -0.275644 0.799603
-0.286803 -0.332127 0.815973
-0.290471 -0.323711 0.785101
