ply
    format ascii 1.0           
    element vertex 47
    property double x           
    property double y           
    property double z           
    end_header
0.273922 -0.401243 1.90511
0.352789 -0.486694 2.16524
0.340616 -0.396974 2.17159
0.270061 -0.486955 1.90576
0.324034 -0.532593 2.23349
0.330821 -0.279941 2.07317
0.328544 -0.344806 2.10892
0.331973 -0.444605 2.23893
0.219697 -0.484951 1.8248
0.308212 -0.482894 2.01893
0.332367 -0.533503 2.09234
0.354804 -0.240965 2.19423
0.306679 -0.431336 2.09462
0.290796 -0.453534 2.30872
0.29076 -0.501556 2.36859
0.238088 -0.130871 2.25072
0.318222 -0.308546 2.20736
0.309846 -0.261997 2.27054
0.316547 -0.224663 2.13898
0.195722 -0.588024 2.01561
0.264248 -0.419488 1.98932
0.235896 -0.336606 2.28294
0.215441 -0.156953 2.33365
0.240506 -0.528705 1.98735
0.257897 -0.584384 2.1861
0.0917776 -0.00696943 2.30561
0.286274 -0.37969 2.23416
0.136103 -0.185568 2.35463
0.306763 -0.190068 2.22753
0.182612 -0.228162 2.29814
0.0389076 -0.0852275 2.38503
0.171886 -0.0940236 2.36256
0.252559 -0.212485 2.28277
0.275679 -0.548939 2.30345
0.221439 -0.472943 2.37714
0.142892 -0.302283 2.27552
0.200534 -0.570107 2.26741
0.102285 -0.105867 2.36586
0.131703 -0.581965 2.20437
0.173958 -0.506277 2.32892
0.0867766 -0.376767 2.27842
0.0557264 -0.465552 2.28821
0.128459 -0.520525 2.27084
0.0940845 -0.235582 2.30526
0.0300911 -0.191935 2.29612
0.285468 -0.499252 2.36069
0.133534 -0.429747 2.27897
