ply
    format ascii 1.0           
    element vertex 63
    property double x           
    property double y           
    property double z           
    end_header
0.0648351 -0.189651 1.45669
-0.129067 -0.313204 1.42925
0.100962 0.0808986 1.59058
0.0682807 -0.0181968 1.53958
0.0589636 0.088274 1.63274
-0.105367 -0.333196 1.38134
0.036188 -0.0712281 1.5523
0.0375245 -0.14202 1.5604
0.0555511 -0.394028 1.3295
-0.0715025 -0.372674 1.36391
0.0643312 -0.107496 1.51648
-0.052706 -0.31623 1.36083
0.0923892 -0.144595 1.48242
0.118652 -0.23498 1.39405
-0.0177003 -0.360634 1.33955
0.0519641 0.0409553 1.59647
0.0634833 -0.266509 1.40089
0.00170114 -0.409491 1.34044
0.040295 -0.239618 1.48541
0.103563 -0.368627 1.32342
0.100472 0.0295549 1.55991
0.00598716 -0.246551 1.54776
-0.0425457 -0.417715 1.3761
0.00431445 -0.313985 1.36051
0.130903 -0.285412 1.3734
0.252364 -0.423325 1.35679
-0.0825491 -0.287347 1.40532
0.105556 -0.0654161 1.52476
0.041754 -0.445782 1.34609
0.0931023 -0.329228 1.36528
0.122533 -0.214613 1.44969
0.185098 -0.442168 1.35174
0.00934024 -0.458912 1.39243
0.179702 -0.0830843 1.54909
0.154626 -0.153131 1.49141
-0.0242322 -0.284531 1.39829
0.0997782 -0.431823 1.34959
0.159253 -0.348555 1.37438
0.173197 -0.0165026 1.60565
0.170822 -0.238343 1.41667
0.2088 -0.386164 1.36417
0.152252 -0.393483 1.33788
0.0390808 -0.361503 1.35902
0.193232 -0.493991 1.36918
0.184039 -0.300006 1.41068
0.0437019 -0.316027 1.38689
0.126884 -0.0275261 1.56532
0.140671 -0.460781 1.37937
-0.0704483 -0.275193 1.45499
0.175547 -0.210165 1.48141
0.217196 -0.363739 1.41949
0.133375 0.032222 1.60899
0.248409 -0.484858 1.36472
0.260004 -0.410577 1.4212
0.177876 -0.150367 1.55089
0.206108 -0.255144 1.51927
0.0383846 -0.444261 1.35086
0.103215 0.0871636 1.66589
0.136005 0.030048 1.67297
0.258365 -0.481211 1.42197
0.172927 -0.266547 1.46541
0.189352 -0.319981 1.53585
0.200983 -0.322116 1.47075
