ply
    format ascii 1.0           
    element vertex 42
    property double x           
    property double y           
    property double z           
    end_header
-0.0860016 -0.13912 1.09292
-0.0353233 -0.0739107 1.12776
-0.00942641 0.0808378 1.17343
-0.126348 -0.137951 1.11341
-0.042028 -0.151635 1.09884
0.0339598 -0.186578 1.13965
-0.096526 -0.217545 1.15567
-0.0704498 -0.108785 1.12265
-0.0107161 0.037416 1.15851
-0.0827728 -0.182143 1.12597
-0.0112906 -0.137215 1.12674
-0.0544286 0.0224619 1.17021
-0.0467824 0.061714 1.18024
0.0408788 -0.114549 1.13851
-0.0389007 -0.00486518 1.1353
-0.0881925 -0.0418357 1.18188
0.00425622 -0.093041 1.13427
0.0410803 -0.069079 1.15005
-0.10567 -0.249995 1.18241
-0.0268059 -0.0361397 1.12011
-0.00945443 -0.191405 1.12022
0.0729796 -0.192174 1.15902
0.00364154 -0.0488943 1.14131
0.0785012 -0.150484 1.1728
0.0367205 -0.153633 1.16983
0.0480926 0.038324 1.21055
0.056306 -0.00571197 1.20942
0.0187213 -0.235657 1.23306
0.0138941 0.0543684 1.1914
0.0338839 -0.025856 1.17482
0.0234827 0.0160618 1.1779
0.0944939 -0.130948 1.20439
0.0592289 -0.0626975 1.1904
-0.00379598 0.10832 1.23171
0.0530925 -0.106369 1.18198
0.0933318 -0.158027 1.23349
0.00232385 -0.00740728 1.14964
0.073856 -0.197298 1.21352
-0.00885137 0.0783775 1.17292
0.0554705 -0.0714958 1.23114
0.0326319 0.0272356 1.24993
0.0324875 -0.0313135 1.24511
