ply
    format ascii 1.0           
    element vertex 54
    property double x           
    property double y           
    property double z           
    end_header
0.0288075 -0.237206 0.972787
-0.028799 -0.0898777 1.06894
0.0225883 -0.18039 1.00327
-0.0100514 -0.133315 1.01404
-0.019951 -0.296095 0.957316
-0.0670402 -0.216108 0.969505
-0.0212439 -0.163585 1.0067
0.00674492 -0.262471 0.962226
0.018998 -0.289932 0.964227
-0.0228294 -0.262513 0.954088
-0.0883881 -0.355428 0.963522
-0.00744703 -0.191605 0.994139
-0.0940738 -0.300108 0.962647
0.0154007 -0.153228 1.01857
-0.0164369 -0.225509 0.958761
-0.120188 -0.30737 0.967443
0.0123 -0.317976 0.968223
-0.0799271 -0.325416 0.95976
0.0345187 -0.270031 0.979282
0.0496712 -0.242236 1.00104
0.00319587 -0.218764 0.981234
-0.0494106 -0.320438 0.963291
-0.0687111 -0.299146 0.973293
-0.0580317 -0.193781 0.986338
-0.0111949 -0.113599 1.03816
-0.0219071 -0.326069 0.972156
0.0281152 -0.326212 0.993866
0.00248787 -0.341584 0.991253
0.0400396 -0.298133 0.992575
0.0268856 -0.217325 1.00132
0.0125157 -0.136313 1.04196
0.019017 -0.360514 1.02735
0.0223245 -0.197418 1.03098
-0.00640912 -0.111297 1.0698
0.0242681 -0.300184 1.08791
0.0369282 -0.270937 1.01234
0.026892 -0.328223 1.04744
0.0158757 -0.170667 1.0462
0.0238345 -0.299403 1.04409
0.00661972 -0.348053 1.05054
0.0283111 -0.315888 1.0212
0.0165757 -0.32985 1.07458
-0.0193727 -0.254863 1.06151
0.0128665 -0.22757 1.0446
0.0078107 -0.291267 1.06651
0.00744486 -0.337858 1.01814
-0.00823328 -0.140302 1.06303
-0.0358105 -0.248223 1.08383
0.0058416 -0.258645 1.04051
-0.00304599 -0.112231 1.06781
0.0210379 -0.247174 1.01705
-0.0100722 -0.338916 1.06483
-0.013491 -0.227811 1.05257
-0.0481666 -0.266716 1.09654
