ply
    format ascii 1.0           
    element vertex 60
    property double x           
    property double y           
    property double z           
    end_header
-2.07185 -2.85219 6.68317
-2.02381 -2.5441 6.50553
-1.84665 -2.00021 6.92791
-1.57434 -1.09825 7.37472
-1.52735 -1.01918 7.18526
-2.13728 -2.34773 6.64743
-1.91945 -2.71456 6.38865
-1.74805 -1.83664 6.81912
-2.01329 -2.32215 6.4865
-1.77296 -1.99572 6.71324
-1.91215 -2.13636 6.82361
-1.66445 -1.31944 7.08935
-1.72202 -1.65207 6.89281
-1.62124 -1.53455 7.09427
-1.61074 -1.48217 7.28128
-1.54113 -1.51813 6.88099
-1.98558 -2.23096 6.64484
-1.84827 -2.47223 6.3883
-1.61788 -2.09608 6.55191
-1.60957 -1.86264 6.64412
-1.75783 -1.85811 7.02061
-1.54099 -1.72424 6.78489
-1.32217 -1.677 6.73147
-1.47725 -1.37923 7.0252
-1.28279 -1.29656 6.97795
-1.52788 -2.23709 6.42166
-1.49147 -2.74753 6.3476
-1.33495 -1.18914 7.17259
-1.27829 -2.56353 6.43815
-1.81243 -2.28196 6.4837
-1.22712 -2.93797 6.47273
-1.27115 -2.76086 6.34472
-1.72966 -2.64323 6.34708
-1.79835 -2.17202 6.65166
-1.64158 -2.41139 6.40817
-1.40749 -2.00795 6.65116
-1.36868 -2.11737 6.48309
-1.10709 -2.47238 6.56469
-1.43535 -2.93665 6.51603
-1.07237 -2.67173 6.46363
-1.26582 -2.31558 6.49853
-1.4524 -2.42283 6.48035
-1.81043 -2.89581 6.3393
-1.30888 -1.54412 6.87403
-1.37334 -1.86155 6.7956
-1.40056 -1.03136 7.27195
-1.21619 -2.148 6.62772
-0.985746 -2.50765 6.72529
-1.70855 -3.04047 6.47211
-1.17652 -1.60009 7.07147
-1.21569 -2.03735 6.80155
-1.515 -2.59888 6.42534
-1.16567 -1.96982 6.98594
-1.07313 -2.8673 6.55938
-1.01267 -2.82726 6.70329
-1.2489 -1.33465 7.23885
-1.20386 -1.81639 6.90651
-1.17631 -2.31047 6.70259
-1.2015 -2.16777 6.95199
-1.88105 -2.48283 6.39456
