ply
    format ascii 1.0           
    element vertex 38
    property double x           
    property double y           
    property double z           
    end_header
-0.244823 -0.624537 2.04825
-0.271072 -0.526444 2.1267
-0.287793 -0.692571 2.05278
-0.288847 -0.404353 2.2531
-0.30633 -0.455568 2.1974
-0.303831 -0.429737 2.30581
-0.302359 -0.493262 2.15461
-0.351539 -0.682588 2.09434
-0.305008 -0.656189 2.09166
-0.309084 -0.575051 2.16537
-0.369727 -0.698483 2.14548
-0.288626 -0.59856 2.08242
-0.25774 -0.442654 2.16932
-0.337697 -0.653863 2.13656
-0.265035 -0.575586 2.12665
-0.313852 -0.738261 2.0697
-0.213365 -0.524637 2.11595
-0.342057 -0.727951 2.11469
-0.25092 -0.735337 2.05525
-0.209729 -0.699785 2.06301
-0.222491 -0.593797 2.09315
-0.24244 -0.489181 2.14899
-0.201131 -0.463357 2.17898
-0.166813 -0.5941 2.10928
-0.165433 -0.567639 2.15324
-0.113009 -0.682431 2.09766
-0.159311 -0.686723 2.0698
-0.199322 -0.65114 2.07908
-0.153991 -0.649797 2.11631
-0.184164 -0.740872 2.09573
-0.232276 -0.423523 2.20864
-0.130784 -0.731263 2.11676
-0.190064 -0.518782 2.16481
-0.17882 -0.496761 2.2166
-0.156922 -0.547894 2.20458
-0.257972 -0.405981 2.29385
-0.150338 -0.596044 2.1959
-0.154982 -0.617378 2.15442
