ply
    format ascii 1.0           
    element vertex 43
    property double x           
    property double y           
    property double z           
    end_header
-0.0673572 -0.311796 1.94181
-0.0541078 -0.239104 1.93903
-0.0494704 -0.112233 1.86293
-0.0250743 -0.54984 1.8344
-0.00113318 -0.523047 1.77551
-0.0962734 -0.470757 1.91696
-0.106314 -0.582782 1.86164
-0.152007 -0.518954 1.92701
-0.078416 -0.618159 1.80692
-0.0629761 -0.380991 1.86562
-0.0798477 -0.5201 1.86096
-0.0633927 -0.27569 1.87848
-0.0709516 -0.13598 1.93283
-0.108976 -0.362325 1.94005
-0.114134 -0.245671 1.97498
-0.0394987 -0.481624 1.81886
-0.177564 -0.363638 1.95377
-0.121419 -0.408742 1.89834
-0.0880257 -0.446894 1.84944
-0.155824 -0.615677 1.8227
-0.13815 -0.304585 1.95197
-0.189586 -0.245196 1.94777
-0.201392 -0.572644 1.85074
-0.263056 -0.547153 1.86273
-0.175122 -0.448422 1.91495
-0.0431789 -0.571026 1.76813
-0.242223 -0.428466 1.90579
-0.236985 -0.577007 1.78765
-0.2425 -0.363865 1.89152
-0.302854 -0.542931 1.78703
-0.209066 -0.510247 1.87961
-0.142913 -0.189774 1.95924
-0.263917 -0.472244 1.85416
-0.150895 -0.537501 1.86612
-0.317772 -0.515203 1.84621
-0.220397 -0.245181 1.89638
-0.208041 -0.314183 1.9214
-0.188118 -0.251358 1.95709
-0.25275 -0.300983 1.86548
-0.261786 -0.407913 1.84823
-0.262645 -0.350946 1.82873
-0.110524 -0.0939016 1.89922
-0.182795 -0.197372 1.91732
