ply
    format ascii 1.0           
    element vertex 38
    property double x           
    property double y           
    property double z           
    end_header
0.0863837 0.0503272 1.14041
-0.00794425 -0.153303 1.01572
0.143427 -0.135855 1.04661
0.0737197 0.104343 1.1829
0.0456138 0.111685 1.25431
0.0947752 -0.0842048 1.05734
-0.0624335 -0.155496 1.05544
0.0698774 -0.194814 1.01568
0.0379773 -0.0354691 1.13141
0.0480855 -0.140787 1.04757
0.116779 -0.00308557 1.1277
0.0809958 0.164998 1.26904
0.175661 -0.0252047 1.15181
0.139699 0.0942896 1.19086
0.0160083 -0.235493 1.00614
-0.0326309 -0.206885 1.03727
0.0479561 -0.101955 1.10823
0.0841314 -0.259213 1.03516
0.134136 -0.234432 1.07172
0.188026 -0.237018 1.11068
0.0233628 0.151477 1.31307
0.15123 -0.103179 1.11171
0.179257 0.0493252 1.23213
0.195417 -0.122863 1.16092
0.125072 -0.279006 1.11103
0.169943 -0.292655 1.17054
0.183638 -0.0859536 1.2137
-0.00671404 -0.12117 1.07353
0.145867 0.0316271 1.17207
0.217188 -0.248242 1.16668
0.101599 -0.0636117 1.12343
0.155665 -0.178866 1.10359
0.103587 -0.179957 1.06644
0.177454 -0.189988 1.1709
0.176194 -0.0210369 1.21538
0.16672 0.00807915 1.2838
0.172748 -0.0614108 1.27347
0.167936 -0.146178 1.21639
