ply
    format ascii 1.0           
    element vertex 45
    property double x           
    property double y           
    property double z           
    end_header
-0.246423 2.05772 15.0284
0.272713 2.46797 14.6641
-1.48659 -3.14712 12.1784
-1.367 -2.08404 11.6802
-1.07041 -1.33308 11.6334
-0.372341 -0.12639 12.4431
-1.1584 -3.00038 11.4283
-1.51905 -1.66377 12.311
-1.41993 -1.00377 12.3369
-1.13014 -0.333881 12.9945
-0.0326148 1.28492 14.4991
0.0368236 -2.43821 11.4813
-1.23194 -3.7902 11.4927
-0.632394 0.30177 12.9949
-0.45131 -3.37903 11.5652
0.314504 0.952029 13.6015
-0.784047 -2.33956 11.3784
1.62177 -3.02412 12.2803
0.0924357 -0.739423 12.2999
-0.797481 -0.731588 12.4821
0.337943 -1.66181 11.7551
0.782389 -1.10766 12.0048
0.657884 0.138043 13.7823
-0.407302 -1.31545 12.2407
0.9427 -2.99601 12.2849
1.45507 -2.38357 12.7564
0.851747 -0.842183 12.7465
0.575885 -3.35554 11.7505
0.51782 -2.25893 12.2155
0.88691 0.782251 13.9722
0.862332 1.94176 14.4949
0.254753 -0.202571 12.9196
1.13831 -3.75353 12.1499
0.954733 -1.73862 12.5651
0.493653 1.6081 13.9144
-0.419886 -1.80938 11.6032
1.01316 0.00166264 14.103
0.529234 0.218721 13.5491
0.714637 -0.521851 14.4695
0.34583 -3.90384 12.0908
1.8302 -3.07472 13.0594
0.802992 -0.876198 12.7083
0.866223 1.61565 15.288
0.966592 0.412016 14.6737
0.562814 -0.661835 13.7564
