ply
    format ascii 1.0           
    element vertex 43
    property double x           
    property double y           
    property double z           
    end_header
0.0118111 -0.0846712 0.490612
0.0290128 -0.0777617 0.489616
0.0168183 -0.10308 0.480773
0.00404038 -0.17302 0.408151
0.00205317 -0.147827 0.422403
0.00325185 -0.13366 0.440218
0.0270897 -0.134901 0.439114
0.0152409 -0.158587 0.413257
0.0175414 -0.122855 0.447231
-0.011225 -0.194861 0.415451
0.00496804 -0.196179 0.405862
-0.0160965 -0.168029 0.434221
0.03164 -0.191222 0.422032
0.0337668 -0.152167 0.441174
0.0477602 -0.165705 0.444176
-0.0020888 -0.212334 0.405162
0.0175958 -0.183582 0.410098
0.0143268 -0.208656 0.416597
0.0135852 -0.14568 0.43369
0.0389518 -0.175688 0.432787
0.0469696 -0.214483 0.457502
0.0426143 -0.198261 0.465213
0.0323048 -0.215268 0.432964
0.0192577 -0.162094 0.434537
0.0350333 -0.100196 0.481864
0.0295338 -0.13992 0.489972
0.0343996 -0.208982 0.448576
0.0261887 -0.173508 0.418756
0.0320677 -0.140556 0.456729
0.0325659 -0.189434 0.442976
0.038759 -0.180111 0.456412
0.0373202 -0.0937088 0.49896
0.0318642 -0.11388 0.471884
0.035616 -0.121385 0.487118
0.0413364 -0.159423 0.458664
0.0313805 -0.132354 0.473124
0.0270417 -0.0791999 0.494288
0.0334884 -0.229072 0.44791
0.0414846 -0.21564 0.47503
0.0235271 -0.202304 0.434688
0.0261761 -0.129668 0.501375
0.0253451 -0.102082 0.513436
0.0235067 -0.151896 0.476025
