ply
    format ascii 1.0           
    element vertex 48
    property double x           
    property double y           
    property double z           
    end_header
-0.0761855 0.160198 1.06514
-0.095757 -0.00790144 1.00847
-0.0928866 0.0682742 1.00833
-0.0890955 0.010985 1.00259
-0.0649853 0.0878551 1.01791
-0.0913224 0.0363156 0.999941
-0.0802554 0.0537531 1.00024
-0.0588382 0.166945 1.0615
-0.0898136 0.0887986 1.02457
-0.104761 0.0139321 1.01536
-0.0586375 0.0225389 1.0142
-0.0747179 0.104705 1.03013
-0.0324303 0.0102252 1.05239
-0.0759291 0.000942972 1.01587
-0.0560041 0.0701945 1.02291
-0.0500066 0.0427839 1.01898
-0.0788743 0.0742325 1.01746
-0.0761517 0.0262916 1.00244
-0.0551774 0.121029 1.04545
-0.0393095 0.0571946 1.02639
-0.0378643 0.0298954 1.05782
-0.0526862 0.10129 1.0509
-0.070126 0.0575936 1.01899
-0.0483402 0.0129066 1.04476
-0.0553747 0.0876399 1.03559
-0.0533955 0.000299268 1.03048
-0.0536548 0.0313474 1.03454
-0.0468074 -0.00800549 1.04904
-0.0469355 0.118616 1.06153
-0.044175 0.0455756 1.04421
-0.0662421 0.0402564 1.00651
-0.049796 0.139216 1.05063
-0.0435664 0.0684727 1.04083
-0.063617 -0.0160563 1.05964
-0.0783843 0.140355 1.066
-0.0660374 -0.00999154 1.04025
-0.045311 0.151261 1.06691
-0.0777221 0.103774 1.02664
-0.0491667 0.0995253 1.0706
-0.0531714 0.147755 1.08663
-0.064049 0.0140529 1.03119
-0.0340848 0.0139668 1.07208
-0.0481667 0.0603403 1.05506
-0.0534483 0.11461 1.08136
-0.0606952 0.0894352 1.07925
-0.0570198 0.0819832 1.06013
-0.059074 0.0588122 1.07118
-0.0566516 0.134271 1.07448
