ply
    format ascii 1.0           
    element vertex 51
    property double x           
    property double y           
    property double z           
    end_header
-0.185378 -0.19061 1.02671
-0.170661 -0.215924 0.997826
-0.174511 -0.178419 1.01217
-0.190715 -0.281916 0.917743
-0.175341 -0.157574 1.01221
-0.167944 -0.250649 0.972407
-0.190428 -0.273327 0.97093
-0.157499 -0.236353 0.936026
-0.23708 -0.292593 0.971608
-0.18614 -0.278292 0.945027
-0.173257 -0.254522 0.999326
-0.161244 -0.25491 0.946822
-0.165248 -0.271391 0.935021
-0.185481 -0.205213 1.00857
-0.158129 -0.252127 0.925609
-0.207639 -0.229562 1.01481
-0.215397 -0.269587 0.988814
-0.178873 -0.234476 0.991339
-0.19474 -0.246495 1.00197
-0.1792 -0.190536 0.995297
-0.218136 -0.278462 0.971112
-0.192265 -0.264301 0.990467
-0.177153 -0.218244 0.962229
-0.191767 -0.223828 1.00139
-0.17797 -0.262239 0.955964
-0.234286 -0.275925 0.983551
-0.206927 -0.210835 1.01231
-0.207013 -0.180795 1.03015
-0.215658 -0.250258 0.996288
-0.224557 -0.234877 1.00583
-0.201331 -0.141984 1.0187
-0.234307 -0.256313 0.985638
-0.192152 -0.171231 1.0224
-0.237951 -0.236772 0.988536
-0.227734 -0.208984 1.00426
-0.182896 -0.141877 1.03217
-0.263471 -0.283626 0.939447
-0.250023 -0.266749 0.974456
-0.248312 -0.247007 0.972449
-0.267538 -0.266223 0.93688
-0.252654 -0.26979 0.9506
-0.202075 -0.139026 1.01778
-0.238702 -0.215824 0.98233
-0.245286 -0.290729 0.94915
-0.215161 -0.1755 1.01389
-0.260417 -0.252541 0.947421
-0.201648 -0.193993 1.01198
-0.238877 -0.276081 0.960697
-0.246607 -0.227865 0.97016
-0.271286 -0.266992 0.92155
-0.249942 -0.237268 0.952407
