ply
    format ascii 1.0           
    element vertex 51
    property double x           
    property double y           
    property double z           
    end_header
-0.0994297 0.0189845 0.708454
-0.121828 -0.0705623 0.661744
-0.103498 -0.00328387 0.648521
-0.0336082 -0.191404 0.562592
-0.10093 -0.172026 0.61386
-0.121967 -0.214639 0.67254
-0.0770031 -0.0642457 0.603762
-0.109638 -0.00693429 0.685109
-0.0756117 -0.246812 0.66485
-0.128423 -0.180502 0.680413
-0.134953 -0.116108 0.614828
-0.128307 -0.14501 0.652212
-0.0958513 -0.21001 0.641079
-0.100296 -0.0432419 0.652154
-0.116063 -0.0998232 0.641259
-0.12134 -0.171031 0.715236
-0.098371 -0.101432 0.607605
-0.109242 -0.17754 0.650912
-0.10369 -0.137462 0.601389
-0.0959164 -0.0740973 0.633272
-0.0676468 -0.144353 0.582844
-0.0591027 -0.176722 0.590126
-0.0371495 -0.156649 0.570012
-0.0699825 -0.0441077 0.627342
-0.0632247 -0.111747 0.59554
-0.0477681 -0.080642 0.596934
-0.0310613 -0.13054 0.589289
-0.0903997 0.0628613 0.697662
-0.0516287 0.0496687 0.703903
-0.0834336 0.0152351 0.669616
-0.0665956 0.0143738 0.641629
-0.0317596 -0.0500417 0.624858
-0.00440158 -0.15511 0.578599
-0.0183904 -0.103121 0.606486
0.0275384 -0.217253 0.590838
0.0420507 -0.197839 0.609054
0.00203661 -0.133725 0.60443
-0.00766616 -0.216472 0.585102
-0.00599393 -0.0852108 0.63689
0.0102545 -0.187304 0.600633
-0.07179 -0.0239943 0.649947
0.0311489 -0.16944 0.617685
-0.0192394 -0.183205 0.5928
0.00624474 -0.114893 0.634002
0.0171839 -0.145799 0.637435
0.0541983 -0.219051 0.628465
-0.0405116 0.00185547 0.658984
-0.0183482 -0.245364 0.612909
-0.065162 0.019101 0.712657
-0.0433992 -0.0175759 0.692397
0.0106028 -0.18872 0.690132
