ply
    format ascii 1.0           
    element vertex 49
    property double x           
    property double y           
    property double z           
    end_header
-0.621335 -0.554003 3.55562
-0.572617 0.292381 3.48745
-0.437981 0.662945 3.43489
0.0294945 -0.43779 3.0791
-0.245021 0.304516 3.23763
-0.179902 -0.156468 3.12266
-0.609944 -0.137135 3.43158
-0.408084 -0.31504 3.26647
-0.580915 0.00945952 3.20276
-0.662199 -0.345348 3.58747
-0.489232 0.828501 3.77451
-0.351303 -0.764914 3.60168
-0.671147 -0.280181 3.80232
-0.396255 -0.11574 3.18599
-0.506108 -0.335818 3.4557
-0.672765 -0.480696 3.77633
-0.235377 0.430518 3.37885
-0.144092 -0.350263 3.18311
-0.429229 -0.53056 3.40876
-0.370348 0.0934048 3.22504
0.00602868 -0.234609 3.10896
-0.0782109 0.208983 3.24618
-0.383913 0.263191 3.37068
-0.414015 0.470625 3.7429
-0.162317 0.0337252 3.22009
-0.221402 1.01241 3.83559
0.0192946 -0.0755329 3.22517
-0.22534 0.763941 3.45169
-0.391896 1.08298 3.85848
-0.0222868 0.398784 3.42345
0.0735478 0.0876915 3.33486
0.172377 -0.221293 3.20893
0.182924 -0.0934191 3.35625
0.22505 -0.404478 3.3574
0.099001 0.201109 3.53093
-0.129938 0.714017 3.60605
0.328555 -0.285392 3.46689
0.400713 -0.456053 3.43217
0.172347 0.0267713 3.5266
0.450007 -0.566328 3.54709
-0.25642 0.550784 3.49127
0.336704 -0.578597 3.3124
0.0691867 -0.386817 3.26944
0.247477 -0.133002 3.54158
-0.168391 0.610371 3.79924
0.124153 -0.591117 3.25227
0.0603705 -0.749573 3.37691
0.2967 -0.660144 3.49422
-0.129125 0.400495 3.73792
