ply
    format ascii 1.0           
    element vertex 52
    property double x           
    property double y           
    property double z           
    end_header
-0.052737 -0.289425 1.70152
-0.135357 -0.316028 1.70802
-0.15033 -0.262812 1.73478
-0.0907829 -0.441617 1.64608
-0.155604 -0.619173 1.62635
-0.165006 -0.412635 1.68929
-0.138125 -0.50721 1.60746
-0.0477664 -0.241449 1.73045
-0.134829 -0.368973 1.69382
-0.133074 -0.476057 1.65468
-0.176184 -0.578454 1.65649
-0.0899792 -0.398358 1.67853
-0.0282089 -0.382354 1.69553
-0.0125637 -0.677219 1.64866
-0.211028 -0.616372 1.66582
-0.0780615 -0.344234 1.69645
-0.102297 -0.27102 1.72302
0.0152889 -0.622115 1.65155
-0.0907241 -0.51569 1.58367
-0.120194 -0.574745 1.63356
-0.097371 -0.626805 1.6307
0.0636185 -0.610021 1.68352
-0.0775841 -0.212573 1.75728
-0.136175 -0.670543 1.64273
-0.0631391 -0.578001 1.62046
-0.089089 -0.487865 1.62664
-0.0452065 -0.477162 1.64925
0.0424616 -0.669788 1.67617
-0.045596 -0.627051 1.65453
0.073954 -0.575598 1.7269
0.0195057 -0.567592 1.69652
-0.225518 -0.581885 1.70078
0.00847648 -0.438211 1.71566
0.015111 -0.489615 1.69127
-0.0387391 -0.432184 1.67518
0.0449307 -0.522953 1.7187
-0.0464608 -0.525244 1.61839
-0.0234108 -0.57587 1.65786
-0.0072304 -0.527158 1.65866
-0.0150764 -0.334607 1.72479
0.0841739 -0.632427 1.73814
-0.00171689 -0.394989 1.74754
0.0587951 -0.680693 1.72763
-0.0494006 -0.248896 1.79334
-0.0413675 -0.295202 1.75662
-0.0110128 -0.336016 1.78346
0.00574499 -0.48965 1.75408
-0.00995687 -0.441672 1.7821
0.0411436 -0.60137 1.77616
-0.012354 -0.388852 1.79727
0.000798775 -0.704093 1.6945
0.0480465 -0.652502 1.77607
