ply
    format ascii 1.0           
    element vertex 55
    property double x           
    property double y           
    property double z           
    end_header
-0.159666 -0.311462 1.06929
-0.200076 -0.26359 1.1079
-0.172949 -0.340201 1.09791
-0.177752 -0.207712 1.07065
-0.28222 -0.398888 1.06835
-0.157003 -0.336605 0.960516
-0.23332 -0.156444 1.17599
-0.171929 -0.36781 0.99933
-0.19108 -0.0996562 1.13402
-0.192243 -0.148306 1.1251
-0.254991 -0.221895 1.14543
-0.166587 -0.32598 1.0018
-0.19425 -0.185491 1.10399
-0.185206 -0.270119 1.0681
-0.158066 -0.298863 0.966411
-0.270233 -0.430111 1.02996
-0.212171 -0.222968 1.11816
-0.216085 -0.368013 1.06395
-0.246719 -0.113799 1.19019
-0.222714 -0.185404 1.1413
-0.242699 -0.0754139 1.18069
-0.197842 -0.39805 0.974894
-0.189693 -0.346759 1.0356
-0.215605 -0.121879 1.15422
-0.202072 -0.38835 0.930963
-0.216028 -0.0623712 1.14688
-0.192298 -0.11482 1.10039
-0.24388 -0.258432 1.12516
-0.192185 -0.23975 1.06562
-0.209287 -0.385615 1.01818
-0.193727 -0.303017 1.0956
-0.248413 -0.388303 1.03712
-0.231428 -0.296354 1.11194
-0.287943 -0.301832 1.11755
-0.323824 -0.390536 1.08525
-0.181769 -0.360877 0.958472
-0.315595 -0.426686 1.05017
-0.30225 -0.348027 1.08065
-0.185132 -0.281216 0.990457
-0.349196 -0.353441 1.09125
-0.272126 -0.182683 1.16085
-0.291991 -0.255771 1.12732
-0.322798 -0.318207 1.10458
-0.25856 -0.358932 1.06866
-0.262089 -0.333037 1.10156
-0.218418 -0.339326 1.0998
-0.367243 -0.387128 1.0666
-0.353624 -0.416321 1.03746
-0.309585 -0.427151 1.00158
-0.271214 -0.135209 1.15571
-0.30039 -0.21496 1.13479
-0.305912 -0.159754 1.14198
-0.280361 -0.0922218 1.1623
-0.321284 -0.226478 1.09755
-0.319824 -0.272598 1.09035
