ply
    format ascii 1.0           
    element vertex 49
    property double x           
    property double y           
    property double z           
    end_header
-0.0901889 0.137381 0.847954
-0.1077 0.295483 0.930769
-0.0533321 0.0584437 0.809
-0.0954023 0.0897686 0.83472
-0.0931435 0.225409 0.883711
-0.0621907 -0.036128 0.747482
-0.0884537 -0.0169864 0.778044
-0.0692124 0.302567 0.905262
-0.110158 0.000596731 0.80748
-0.117571 -0.0904238 0.817116
-0.115836 -0.0415111 0.81024
-0.0488586 0.156674 0.860422
-0.0577161 0.203177 0.863879
-0.0700913 -0.137346 0.843508
-0.0546044 0.107391 0.840962
-0.0831592 -0.0622408 0.795483
-0.0177863 -0.0427656 0.766136
-0.0114158 0.0879537 0.837233
-0.0672272 0.0127165 0.805612
-0.0402115 -0.0059604 0.776082
-0.0195829 -0.0813829 0.788653
-0.0653702 -0.097127 0.812853
-0.00972814 0.0434652 0.827714
-0.00183976 -0.0151917 0.796057
-0.100038 0.173507 0.87209
-0.0230377 0.123043 0.862406
0.0120208 -0.0956237 0.811807
0.0178266 -0.0786573 0.849983
-0.0247116 -0.147652 0.853
-0.0311662 0.256872 0.945583
-0.0601465 0.25474 0.904281
-0.0619892 0.295177 0.951617
-0.0298697 0.162635 0.90267
0.00177639 0.0353198 0.870997
-0.000735219 0.0780679 0.884731
-0.047593 0.204378 0.908928
-0.00554359 -0.0476615 0.817592
-0.0654035 -0.137888 0.840034
-0.00495687 -0.0399378 0.87386
0.00235408 -0.0166521 0.838857
-0.0691702 0.305178 0.906537
0.00434142 -0.115666 0.87239
-0.0200402 0.122067 0.872292
0.0117797 -0.0745364 0.886965
-0.0265959 0.117624 0.920388
-0.0135499 0.00160574 0.871668
-0.0753121 0.196111 0.948162
-0.0572203 0.0931485 0.93471
-0.0202733 0.0430262 0.90391
