ply
    format ascii 1.0           
    element vertex 44
    property double x           
    property double y           
    property double z           
    end_header
-0.509155 0.221277 5.00204
-0.340016 -0.438405 4.65263
-0.66021 -0.432318 4.66549
-0.519523 1.87377 5.59389
-0.186873 0.160092 4.98305
-0.662063 1.81234 5.88772
-0.200928 0.454596 5.03218
-0.493224 1.19415 5.31731
-0.744622 -0.314082 4.92842
-0.563933 -0.0857975 5.03222
-0.711665 0.412622 5.25293
-0.464798 0.557825 5.186
-0.415071 0.890631 5.27987
-0.665845 1.33264 5.5477
-0.702969 0.976687 5.47576
-0.472355 -0.209458 4.76673
-0.146967 1.60177 5.7257
-0.754841 -0.796218 5.24185
-0.0551681 -1.09733 5.19806
-0.180157 -0.234278 4.77212
-0.43703 1.55177 5.56334
-0.254328 -0.685807 4.78949
-0.448963 -0.798135 5.03709
0.00504828 -0.747859 4.84385
-0.286497 -0.110574 5.01118
-0.698731 1.15319 5.73163
0.135328 -0.616133 5.05052
-0.190412 0.963529 5.4828
0.0151536 0.132387 5.20608
0.00342191 0.417858 5.28831
-0.307895 1.23273 5.56996
-0.114225 -0.439713 4.91482
-0.630574 -0.597094 5.00673
-0.341301 -1.06442 5.2372
0.0393825 -0.366125 5.25757
-0.0370096 -0.223473 5.02054
-0.346761 1.83545 5.84717
-0.070693 0.675035 5.56645
0.150614 -0.856329 5.22274
-0.177326 0.687137 5.26869
-0.306436 1.22694 5.55863
0.197938 -0.578337 5.28638
-0.355357 1.17275 5.8818
-0.195339 0.498978 5.74788
