ply
    format ascii 1.0           
    element vertex 50
    property double x           
    property double y           
    property double z           
    end_header
-0.125631 0.657518 2.11288
-0.0875967 0.217064 1.95603
-0.214341 0.549553 2.22876
-0.223788 -0.087518 1.78997
-0.172263 0.450819 2.07109
-0.260207 0.3379 2.10067
-0.0365545 0.388625 2.05909
-0.0737138 -0.567502 1.61654
-0.20966 0.140929 1.99562
-0.301288 -0.379708 1.69371
-0.397463 -0.291745 1.76372
-0.411559 -0.421344 1.78098
-0.132239 -0.177131 1.72965
-0.235206 -0.0395325 1.92861
0.00654228 -0.160479 1.68717
-0.181785 -0.474333 1.68508
-0.382505 -0.242837 1.89699
-0.292369 0.0607536 2.08644
-0.018797 -0.298057 1.65466
-0.210362 0.249873 2.19607
-0.264814 -0.248606 1.76814
-0.303981 -0.562491 1.88812
-0.115461 0.0359035 1.93106
-0.026052 -0.425081 1.63035
-0.158101 -0.330135 1.71613
-0.314154 -0.121834 2.01989
-0.259669 -0.175792 1.89372
0.10644 -0.496252 1.68343
0.0168028 -0.0261211 1.90835
0.0489951 -0.635385 1.66642
0.105568 -0.356804 1.72162
0.00632197 0.109282 1.97991
-0.102726 -0.0994753 1.86139
0.128015 -0.235144 1.65043
0.150626 -0.611238 1.88943
-0.0267858 0.244197 2.089
0.08292 -0.152849 1.95378
-0.0660366 0.576203 2.21285
0.19004 -0.283539 1.8195
-0.00284706 0.443023 2.19085
0.219081 -0.524172 2.11235
0.199627 -0.632548 2.03281
0.186022 -0.440382 1.81833
0.200705 -0.361167 1.93893
0.107327 -0.105311 2.08504
0.119191 -0.236237 2.06618
0.0914249 -0.177805 1.80483
0.159196 -0.516984 1.98826
0.0800849 -0.698413 2.03842
0.168662 -0.576214 1.78942
