ply
    format ascii 1.0           
    element vertex 46
    property double x           
    property double y           
    property double z           
    end_header
0.0161215 -0.0431808 1.06914
0.0424339 -0.124218 1.05327
-0.0205873 -0.00575035 1.10529
0.0326849 0.018804 1.09558
0.0226133 -0.213652 0.976468
0.0502162 -0.249859 0.978643
0.00436199 -0.301658 0.928353
0.044431 -0.0720828 1.09471
-0.0274837 -0.265612 0.929217
0.000262528 -0.138505 1.03598
0.00648755 -0.260886 0.957899
-0.0186556 -0.0710265 1.05634
0.0277026 -0.339327 0.948118
0.0926954 -0.255445 0.997566
0.0833623 -0.297508 0.980847
0.0593625 -0.378631 0.951603
-0.0486457 -0.248211 0.968352
-0.047608 -0.212862 1.01415
0.0781551 -0.337485 0.968632
0.0281504 -0.179694 1.03645
-0.00530414 -0.195227 1.01097
-0.0501189 -0.35423 0.972159
-0.0448026 -0.155852 1.04118
0.0590605 -0.209254 1.05717
-0.0335751 -0.0995265 1.08951
0.0363811 -0.295465 0.96596
-0.0127772 -0.236169 0.990976
0.0500883 -0.163865 1.07768
0.0924676 -0.367977 1.0078
0.123024 -0.287894 1.01226
0.0732874 -0.407166 0.987666
0.0348659 -0.224254 1.01892
-0.0461643 -0.304886 0.930127
0.0930245 -0.323162 1.02188
0.0779845 -0.394621 1.04412
0.0824078 -0.351427 1.05959
0.0558931 -0.253144 1.07713
0.0983737 -0.303105 1.06471
0.0201676 -0.00752237 1.13057
0.075396 -0.32551 1.09166
0.0299655 -0.408483 1.10867
0.0271028 -0.373753 1.13446
0.0295847 -0.0540684 1.13387
0.0268035 -0.178985 1.11026
0.0373034 -0.235641 1.11665
0.0276751 -0.115067 1.09945
