ply
    format ascii 1.0           
    element vertex 57
    property double x           
    property double y           
    property double z           
    end_header
-1.33915 -1.30758 4.9396
-1.50906 -1.53788 5.17932
-1.23035 -1.15014 5.31224
-1.29414 -1.30869 5.20496
-1.25948 -1.37928 4.84015
-1.30879 -1.44131 4.96748
-1.39726 -1.66224 4.99263
-1.38357 -1.7904 5.07305
-1.15211 -1.59149 4.82958
-1.49778 -1.67368 5.13304
-1.1249 -1.05162 5.24202
-1.20564 -1.18531 5.1572
-1.06917 -1.61822 4.73821
-1.30233 -1.80648 4.96532
-1.24477 -1.25308 4.84359
-1.1444 -1.36798 4.7429
-0.993788 -1.83297 4.87452
-1.16126 -1.46481 4.8274
-1.25614 -1.68453 4.9298
-1.25961 -1.56914 4.99875
-1.15271 -1.78206 4.92231
-1.17979 -1.15475 4.88513
-1.11383 -1.25676 4.8282
-1.50256 -1.57108 5.04201
-1.33184 -1.42739 5.30531
-1.38682 -1.50529 5.0721
-1.30166 -1.16836 4.93026
-1.01483 -1.31724 4.73432
-1.0511 -1.41689 4.68185
-1.07285 -0.744184 5.48295
-0.981991 -1.14038 5.18941
-1.11739 -1.46776 4.71054
-1.06321 -0.867558 5.44001
-1.00067 -0.98799 5.26268
-0.991313 -1.51302 4.74036
-0.850842 -1.84014 4.94246
-1.09519 -0.680779 5.5867
-0.972312 -1.63853 4.73574
-1.11364 -0.984637 5.43726
-0.867819 -1.21363 5.20997
-0.903994 -1.1022 5.29997
-0.99397 -0.943124 5.37913
-0.911497 -1.41144 4.78118
-1.07283 -1.19458 5.11531
-0.809795 -1.16277 5.32067
-0.905272 -1.34488 5.16035
-0.778156 -1.63967 5.16155
-0.97376 -0.886844 5.57609
-1.06949 -1.25898 4.97376
-1.26949 -1.39548 4.8711
-0.896902 -1.50865 5.09038
-0.888431 -0.989933 5.43701
-0.873142 -1.61744 4.81242
-0.743403 -1.62869 5.3173
-0.896775 -1.51157 4.88811
-0.852953 -1.70401 4.91772
-0.877507 -1.62901 5.03377
