ply
    format ascii 1.0           
    element vertex 64
    property double x           
    property double y           
    property double z           
    end_header
-0.13417 -0.454745 0.984128
-0.185651 -0.325008 1.08043
-0.155083 -0.430971 1.01894
-0.169335 -0.495822 0.993208
-0.151664 -0.414474 1.04199
-0.158943 -0.4564 1.01238
-0.129574 -0.426653 0.980429
-0.172411 -0.352112 1.0494
-0.154472 -0.473319 0.992044
-0.164994 -0.426914 1.06339
-0.17961 -0.273974 1.07728
-0.150012 -0.378691 1.0077
-0.189718 -0.248283 1.08382
-0.204632 -0.464785 1.02348
-0.157598 -0.390559 1.05043
-0.171698 -0.402279 1.06847
-0.192086 -0.295269 1.09482
-0.180378 -0.478938 1.00888
-0.168619 -0.437282 1.04058
-0.153353 -0.405326 1.01606
-0.1765 -0.297098 1.05684
-0.140004 -0.404372 0.975683
-0.198879 -0.271127 1.09734
-0.164723 -0.355669 1.01132
-0.221093 -0.295581 1.10057
-0.213421 -0.248433 1.09989
-0.189739 -0.437564 1.05719
-0.206982 -0.341928 1.08735
-0.265779 -0.443376 1.02776
-0.21859 -0.362853 1.07062
-0.209219 -0.48426 1.00815
-0.186906 -0.353916 1.06073
-0.146851 -0.43726 0.998304
-0.195063 -0.415616 1.06891
-0.199911 -0.383557 1.06501
-0.182511 -0.444215 1.02071
-0.181354 -0.315733 1.04062
-0.236173 -0.316743 1.08616
-0.267068 -0.407729 1.03011
-0.208978 -0.31615 1.08278
-0.233621 -0.483185 1.00178
-0.25017 -0.424475 1.02085
-0.193095 -0.491042 0.9861
-0.233404 -0.468145 1.02351
-0.239665 -0.400787 1.03334
-0.205579 -0.443757 1.03751
-0.225693 -0.425041 1.03163
-0.220313 -0.399442 1.06088
-0.224324 -0.446364 1.01926
-0.247809 -0.446501 1.01388
-0.238813 -0.359291 1.05261
-0.21007 -0.422307 1.0499
-0.251902 -0.469976 1.00563
-0.280974 -0.445632 1.00894
-0.249148 -0.309351 1.05548
-0.226805 -0.334266 1.06772
-0.267462 -0.455204 0.994804
-0.240822 -0.273297 1.06406
-0.280852 -0.428832 1.01802
-0.229306 -0.276037 1.09158
-0.280606 -0.39845 1.00817
-0.237047 -0.238903 1.08677
-0.242051 -0.334203 1.04498
-0.224354 -0.380659 1.04399
