ply
    format ascii 1.0           
    element vertex 62
    property double x           
    property double y           
    property double z           
    end_header
-0.100362 -0.284173 1.05445
-0.0987882 -0.300335 1.05399
-0.110458 -0.324041 1.05084
-0.0948955 -0.260928 1.08372
-0.0897668 -0.278039 1.0442
-0.0940537 -0.311698 1.04553
-0.0668683 -0.309667 1.04486
-0.0969746 -0.22259 1.11152
-0.0733986 -0.239721 1.08196
-0.0861849 -0.22077 1.09778
-0.0856979 -0.333581 1.03485
-0.0966679 -0.326481 1.0428
-0.0879468 -0.237419 1.08833
-0.080046 -0.320958 1.03936
-0.0990767 -0.272384 1.06387
-0.0882403 -0.267595 1.05445
-0.0884722 -0.292208 1.04773
-0.107744 -0.289303 1.08129
-0.104175 -0.312016 1.05659
-0.0660974 -0.254248 1.07837
-0.116475 -0.316426 1.06355
-0.0754845 -0.284765 1.0447
-0.113304 -0.312014 1.07683
-0.0791929 -0.203296 1.12093
-0.0850308 -0.211742 1.1096
-0.0976689 -0.23939 1.10687
-0.0672644 -0.296341 1.04988
-0.0696016 -0.218207 1.10045
-0.0634398 -0.323255 1.04135
-0.0736098 -0.271928 1.05154
-0.0345123 -0.301371 1.06196
-0.0860597 -0.255608 1.0799
-0.0504299 -0.311302 1.04744
-0.0599645 -0.232064 1.09716
-0.0813878 -0.303917 1.05154
-0.03741 -0.288441 1.07765
-0.0502912 -0.326097 1.04715
-0.0943772 -0.250087 1.09496
-0.0457295 -0.298115 1.07034
-0.0737528 -0.335665 1.04291
-0.0742409 -0.263245 1.06766
-0.0562648 -0.261696 1.08802
-0.0620694 -0.270782 1.0653
-0.0532605 -0.284527 1.07561
-0.0413485 -0.319938 1.05472
-0.0452987 -0.308566 1.06222
-0.0659011 -0.283265 1.05636
-0.0752152 -0.233069 1.09414
-0.0584846 -0.293001 1.06327
-0.0271773 -0.310751 1.06876
-0.0652555 -0.246615 1.09386
-0.0347649 -0.320677 1.06695
-0.0559256 -0.244071 1.11193
-0.0579532 -0.305902 1.05743
-0.064155 -0.228258 1.12459
-0.0290805 -0.301175 1.07423
-0.0332874 -0.296032 1.09088
-0.0588822 -0.257255 1.10319
-0.0628361 -0.27242 1.07937
-0.0685251 -0.216338 1.11388
-0.0871444 -0.292233 1.04653
-0.0682141 -0.206298 1.13264
