ply
    format ascii 1.0           
    element vertex 54
    property double x           
    property double y           
    property double z           
    end_header
-0.435322 -0.739958 4.33408
-0.316588 -0.429344 4.27439
-0.616331 -0.427747 4.57938
-0.597284 0.502938 5.46306
-0.664564 -0.0709661 4.61487
-0.588039 -1.23609 5.14239
0.444199 -0.183762 4.4785
-0.753602 1.44814 5.99307
-0.567717 1.89052 6.29243
-0.793109 -0.30687 4.86861
-0.364284 -0.16705 4.51072
-0.512573 1.47371 5.78571
-0.648254 -0.890821 5.20076
-0.403157 0.775185 5.39833
-0.616328 1.03535 5.82704
-0.274667 1.73739 5.9178
-0.646275 0.154838 4.87681
-0.363946 1.19195 5.68701
-0.12027 -0.824252 4.22078
0.209352 -0.717898 4.24532
-0.620956 0.742467 5.60622
-0.366727 0.123289 4.64461
-0.745037 0.665914 5.93283
-0.694797 -0.632795 4.9906
0.476293 -0.547902 4.37532
0.117779 -1.01479 4.38187
-0.36552 0.244896 4.94846
-0.211728 0.998182 5.52245
-0.270723 0.495226 5.3325
-0.156589 1.42338 5.79058
-0.0641481 0.24231 4.86265
-0.234712 -0.975612 4.46488
0.0192473 -0.120966 4.68795
-0.0492058 0.71199 5.42877
0.459049 -0.915276 4.40661
-0.0335285 -0.525745 4.3329
0.178084 -0.408184 4.51481
0.0471906 0.914402 5.70741
0.12076 1.39064 6.20647
0.66639 -0.107263 4.76601
0.142256 1.11805 6.09723
0.194361 0.621464 5.63194
0.67949 -0.733682 4.64241
0.713668 -0.381272 4.572
-0.0235602 1.60179 6.0092
0.265545 0.358955 5.47139
0.16694 0.243945 5.16471
-0.173935 0.466683 5.07249
-0.0278848 0.443879 5.27295
0.194604 -1.31139 4.55153
0.122486 0.0116176 4.99672
0.539528 -0.370165 5.71287
-0.314494 1.73697 5.94866
0.362993 0.0616055 5.553
