ply
    format ascii 1.0           
    element vertex 55
    property double x           
    property double y           
    property double z           
    end_header
0.00160768 -0.0843234 6.22547
-0.252275 -0.674661 5.853
-0.178994 -1.16782 5.56079
-0.02172 -0.962059 5.65231
-0.856781 -1.6931 5.5465
-0.802749 -1.43257 5.60463
-0.637884 -1.5992 5.4476
-0.54114 -1.16961 6.23834
-0.496964 -0.731352 6.04471
-0.360108 -1.19326 5.99805
-0.397344 -0.912244 5.89677
-0.360146 -2.15711 5.64749
-0.929543 -1.57482 5.8162
-0.335733 -0.563372 6.10125
-0.0899828 -0.191008 6.67267
-0.634312 -1.84934 5.54064
0.181654 -1.64961 5.65601
-0.119975 -0.403071 6.12768
0.221464 -1.37844 5.58366
-0.186456 -0.996307 5.86262
0.0756419 -0.529978 5.98921
-0.388822 -1.67715 5.51194
-0.0458445 -1.39229 5.61924
-0.377011 -1.93636 5.50854
0.455006 -1.55557 5.6612
0.406096 -0.965638 5.86517
-0.00677717 -0.802549 5.86384
0.233636 -0.766413 5.95935
0.588283 -1.9978 6.09756
0.240935 -0.2047 6.30809
0.196501 -1.12162 5.61902
0.307383 -2.08873 5.92015
-0.154237 -1.80425 5.6149
-0.523113 -1.43914 5.65543
0.304432 -0.539584 6.13933
-0.275713 -1.50019 5.67849
0.0883714 -1.8825 5.7274
0.793716 -2.0017 6.25256
0.664024 -1.36851 5.90516
-0.0827495 -1.63244 5.79402
0.431425 -1.30483 5.78442
0.49474 -2.29199 5.96035
0.695141 -1.64106 5.93391
0.161506 -0.991096 5.82471
0.584769 -0.953775 6.06475
-0.140782 -2.04646 5.87471
0.575755 -2.2441 6.2303
0.478012 -1.20173 6.04891
0.844416 -1.92793 6.49837
0.42576 -0.771034 6.16368
0.321971 -0.445862 6.44248
-0.366796 -2.16147 5.65656
0.0390357 0.00254977 6.49979
0.185446 -1.01359 5.8348
0.686356 -1.74628 6.25638
