ply
    format ascii 1.0           
    element vertex 60
    property double x           
    property double y           
    property double z           
    end_header
0.0103866 -1.03508 6.58145
-0.15416 -0.299272 6.89062
-0.343079 -2.39492 6.78774
0.113496 0.574145 7.38694
-0.71304 -0.919065 7.38025
-0.871432 -1.37414 6.45744
-0.942274 -1.74374 6.40919
-0.549102 -0.34157 7.05589
-0.184634 0.507383 7.94078
0.208102 -0.738422 6.73288
-0.605616 -1.63575 6.33912
-0.378352 -0.617335 6.92063
-0.0410143 0.11494 7.25679
-0.386062 -0.994023 7.12898
-1.12673 -1.53733 6.74116
0.529055 -1.3388 6.78138
-0.0869652 -0.750174 6.97138
0.258218 -0.0891001 7.15803
-0.341474 -0.101642 7.18341
0.431869 -1.70407 6.90574
-0.301931 -2.1087 6.56204
-0.653276 -1.97246 6.50839
0.805826 -1.58285 7.00088
-0.297839 -1.74386 6.52387
-0.51047 -1.38404 6.63738
0.155472 -1.34585 6.7468
0.403192 0.411671 7.59701
0.716783 -0.723876 7.16501
0.172619 -0.483608 6.9931
0.501015 -0.973229 6.78606
0.814595 -2.13376 7.6924
0.458535 -0.429622 7.21018
0.481462 -2.27942 7.37505
-0.0237945 -1.91742 6.7632
-0.190481 -1.47103 6.75753
1.02612 -1.2874 7.36537
0.750314 -1.21249 7.12128
0.514315 -0.0875072 7.45221
0.263269 -2.01478 7.00716
0.0274339 -1.64611 6.99764
1.04132 -2.11841 7.97251
0.712659 -2.55841 7.51909
1.019 -1.68592 7.52795
0.741854 -2.45377 7.89344
0.669841 -0.407936 7.54565
-0.123396 -2.21504 7.17836
0.894692 -0.6854 7.48985
1.04019 -1.97762 8.30096
0.760634 -1.02922 7.44817
0.478726 0.0845544 7.82214
-0.855933 -1.3717 6.47187
0.425366 -0.78833 7.05723
0.0953748 -2.604 7.45528
0.897259 -1.76509 7.91592
1.00899 -1.6627 7.46969
0.0763775 0.746923 7.75431
-0.315978 -2.39593 6.78064
0.540271 -0.550902 8.01772
0.242428 0.443165 7.94508
0.102517 0.69821 8.13862
