ply
    format ascii 1.0           
    element vertex 42
    property double x           
    property double y           
    property double z           
    end_header
-0.0550848 -0.144611 0.417923
-0.0859993 -0.0431604 0.475025
-0.0740743 -0.0294656 0.494209
-0.0901099 -0.1031 0.441755
-0.102762 -0.124326 0.428341
-0.0728566 -0.109106 0.426494
-0.0804526 -0.134376 0.413057
-0.0799953 -0.0784759 0.45331
-0.108165 -0.135284 0.414089
-0.0612706 -0.0703191 0.462452
-0.0971643 -0.0580182 0.489901
-0.0444721 -0.12553 0.420684
-0.105466 -0.0887286 0.471983
-0.0938495 -0.150042 0.412039
-0.125951 -0.131887 0.424397
-0.0604593 -0.0983449 0.437603
-0.0656817 -0.0423141 0.47996
-0.0310356 -0.141046 0.430453
-0.0351794 -0.122832 0.440128
-0.0678754 -0.130847 0.428747
-0.0542198 -0.116657 0.435828
-0.0737379 -0.0596784 0.475411
-0.0395677 -0.15994 0.438504
-0.0621471 -0.0914254 0.4552
-0.0736777 -0.156106 0.433456
-0.0610645 -0.0604802 0.497642
-0.0500765 -0.107225 0.452345
-0.0545816 -0.0888083 0.473803
-0.0560278 -0.079767 0.504472
-0.0607296 -0.0411691 0.499759
-0.0531562 -0.10148 0.492877
-0.0526474 -0.160278 0.499512
-0.0592251 -0.0709647 0.482549
-0.0477488 -0.121649 0.468388
-0.0381283 -0.137511 0.456204
-0.0439571 -0.158497 0.459878
-0.0570419 -0.14141 0.492378
-0.0523409 -0.143958 0.472886
-0.0564246 -0.121016 0.486145
-0.0699573 -0.0300915 0.491184
-0.0705695 -0.0321261 0.512237
-0.065833 -0.109635 0.500193
