ply
    format ascii 1.0           
    element vertex 47
    property double x           
    property double y           
    property double z           
    end_header
-1.20934 -0.512327 4.83129
-0.0659142 -0.0699859 4.0308
-0.608039 1.45135 5.18639
-1.0075 -0.541822 4.51024
-0.533445 0.759052 4.80894
-0.665736 0.22682 4.75267
-0.472184 1.97327 5.66599
-0.505173 0.126378 4.37341
-0.846866 -0.258698 4.69555
-0.144781 -0.459005 4.1108
-0.282836 0.41311 4.41814
-0.601921 -0.405364 4.26364
-0.737741 -0.739354 4.35713
-0.21015 0.999207 4.79364
-0.707322 0.551044 5.38324
-0.899437 -0.899997 4.6586
-0.356142 1.837 5.34457
-0.26024 1.5722 5.08589
-0.33964 1.2183 5.07647
0.288834 -0.242681 4.07005
-0.591063 0.399182 5.01462
-0.315819 -0.2234 4.35003
0.343119 -0.57624 4.28272
-0.106187 0.111964 4.35915
-0.224575 -0.695059 4.49608
0.116684 -0.771025 4.62634
0.227536 0.103691 4.23291
0.0469865 0.365647 4.55463
-0.181314 0.620279 4.69333
0.0826822 0.752666 4.91918
0.30084 1.05626 5.39746
-0.0165558 1.7009 5.34935
0.0641675 1.33568 5.33186
0.35592 0.625174 5.19939
0.00710594 1.0962 5.08436
0.439959 -0.0995009 4.48906
0.764241 -0.397017 5.30326
0.507173 -0.472579 4.61096
0.322341 0.191718 4.77451
0.521123 -0.0905084 5.24934
-0.560782 -0.982502 4.88724
0.412256 -0.186451 4.92543
0.315512 0.234773 5.18438
0.327335 -0.674719 4.92613
-0.729971 -0.740623 4.37995
-0.00904886 1.69564 5.33885
0.169057 0.470092 5.55733
