ply
    format ascii 1.0           
    element vertex 40
    property double x           
    property double y           
    property double z           
    end_header
-0.0766539 -0.134896 0.560657
-0.0670463 -0.161253 0.535643
-0.0400444 -0.173624 0.530594
-0.0716469 -0.184214 0.523175
-0.112862 -0.186106 0.532791
-0.0830873 -0.157517 0.548676
-0.0927559 -0.177319 0.536932
-0.0965123 -0.188129 0.523985
-0.0823512 -0.199514 0.521746
-0.056759 -0.150746 0.546195
-0.0479959 -0.191568 0.527479
-0.0603042 -0.126219 0.569413
-0.0671512 -0.101813 0.586096
-0.0725306 -0.117602 0.580649
-0.0267645 -0.186791 0.539359
-0.060707 -0.180208 0.537309
-0.0591967 -0.145114 0.562258
-0.0326946 -0.204445 0.545968
-0.0499509 -0.167305 0.544987
-0.0321027 -0.170734 0.548542
-0.0612086 -0.118044 0.601386
-0.0525749 -0.142454 0.579105
-0.0470899 -0.158268 0.559552
-0.0857353 -0.103952 0.581223
-0.0624605 -0.100253 0.603629
-0.0556991 -0.135194 0.607311
-0.0504708 -0.154208 0.596126
-0.0585925 -0.127078 0.587607
-0.0453927 -0.207181 0.60089
-0.0333691 -0.184727 0.562485
-0.044084 -0.17138 0.573699
-0.0371478 -0.204244 0.565142
-0.0507772 -0.190321 0.594966
-0.0521327 -0.171798 0.589617
-0.0474553 -0.192177 0.577168
-0.0692542 -0.0937365 0.615516
-0.0526408 -0.213508 0.570575
-0.0616675 -0.162937 0.602575
-0.0710208 -0.207658 0.583775
-0.0738824 -0.151372 0.606412
