ply
    format ascii 1.0           
    element vertex 52
    property double x           
    property double y           
    property double z           
    end_header
0.00520727 -0.239322 0.905525
-0.0144957 -0.284755 0.909018
-0.0193615 -0.255322 0.944431
-0.0918288 -0.042416 0.999376
-0.0550995 -0.157798 0.980075
-0.0759021 -0.050081 0.958583
-0.0638353 -0.114532 0.958625
-0.0731198 -0.25229 0.985871
-0.0698411 -0.193016 0.991363
-0.0480801 -0.312752 0.918002
-0.100596 -0.258176 1.02211
-0.0502346 -0.284447 0.957734
-0.0405854 -0.294929 0.871218
-0.0913323 -0.220103 1.00269
-0.0239873 -0.212087 0.927416
-0.0537484 -0.191556 0.950022
-0.177151 -0.330647 0.956739
-0.104084 -0.0795133 0.977886
-0.0764937 -0.322184 0.94906
-0.087298 -0.157481 1.01117
-0.0882476 -0.0128484 0.963661
-0.0482896 -0.150456 0.935201
-0.0541227 -0.232445 0.953051
-0.130754 -0.316339 0.956142
-0.106953 -0.284381 0.976113
-0.142999 -0.335567 0.917854
-0.127637 -0.220403 1.03005
-0.133164 -0.0413575 1.01536
-0.114738 -0.00579083 0.992325
-0.0928139 -0.118472 0.987747
-0.16369 -0.287819 0.976858
-0.122639 -0.188041 1.00853
-0.169923 -0.0874715 1.00227
-0.128268 -0.104122 1.00264
-0.20993 -0.29138 0.95829
-0.131879 -0.143207 0.996816
-0.167318 -0.2349 1.00992
-0.218463 -0.344263 0.884137
-0.217584 -0.33426 0.934105
-0.0836843 -0.315624 0.879415
-0.135389 -0.261307 0.998656
-0.245663 -0.297356 0.929308
-0.182852 -0.152956 0.98726
-0.160791 -0.0152975 0.997096
-0.183334 -0.243063 0.976131
-0.16667 -0.324202 0.879298
-0.129091 -0.144021 0.995115
-0.16927 -0.189853 0.99211
-0.207379 -0.216745 0.93648
-0.223647 -0.255527 0.922856
-0.174763 -0.014785 0.957714
-0.247648 -0.300859 0.884523
