ply
    format ascii 1.0           
    element vertex 55
    property double x           
    property double y           
    property double z           
    end_header
0.0754929 -0.323903 1.26625
0.061711 -0.352344 1.32543
0.0526813 -0.388855 1.27313
-0.017771 -0.0718636 1.46106
-0.00739038 -0.374791 1.46455
0.009966 -0.358305 1.40476
0.025494 -0.225396 1.40196
0.0147499 -0.27681 1.41923
-0.016524 -0.0757073 1.39997
0.0294866 -0.397122 1.35319
0.00163199 -0.162898 1.38439
-0.133878 -0.474485 1.40472
0.0466169 -0.291603 1.3119
-0.0324552 -0.026785 1.41728
-0.00636766 -0.452115 1.34986
-0.00805357 -0.317664 1.43955
0.0152295 -0.241256 1.29211
0.0153556 -0.268169 1.35711
0.0152648 -0.209687 1.34317
-0.000963 -0.231653 1.45856
-0.0428546 -0.122213 1.43323
-0.0645303 -0.0762741 1.50189
-0.0538875 0.0262984 1.42623
0.0182169 -0.325297 1.35592
-0.0428648 -0.322889 1.49265
-0.0222849 -0.175478 1.43482
-0.0354203 -0.405584 1.40395
0.00196024 -0.400785 1.23519
-0.22084 -0.488725 1.32769
-0.107959 -0.473012 1.3373
-0.0739605 -0.449432 1.38452
-0.0493733 -0.0254119 1.4691
-0.109354 -0.416108 1.43092
-0.116334 -0.142159 1.49417
-0.0607689 -0.161612 1.47382
-0.101403 -0.346389 1.48209
-0.059544 -0.219094 1.46571
-0.177977 -0.422942 1.4259
-0.0636343 -0.379589 1.45007
0.0143453 -0.431521 1.29701
-0.196727 -0.480698 1.39363
-0.237788 -0.430911 1.40324
-0.136748 -0.355677 1.44278
-0.0485947 -0.435467 1.26283
-0.137046 -0.232215 1.47085
-0.110446 -0.0381369 1.49152
-0.0618984 -0.214409 1.45903
-0.0746917 -0.450026 1.38466
-0.114227 -0.282835 1.46643
-0.157273 -0.454656 1.29776
-0.188722 -0.319168 1.40861
-0.179148 -0.272428 1.43737
-0.214143 -0.372539 1.39433
-0.262039 -0.430414 1.34564
-0.147617 -0.037863 1.44953
