ply
    format ascii 1.0           
    element vertex 44
    property double x           
    property double y           
    property double z           
    end_header
0.0175008 -0.587377 1.84761
0.0390304 -0.437422 1.98308
0.0822736 -0.515159 1.91883
0.0382274 -0.567457 1.87898
0.0336222 -0.520533 1.92624
-0.00546275 -0.620823 1.8596
0.0343407 -0.484025 1.95999
0.10602 -0.549102 1.92045
0.0809927 -0.422795 1.99144
0.0385373 -0.631869 1.84828
0.0613207 -0.553385 1.91011
0.0652175 -0.664705 1.86618
0.115803 -0.602186 1.90302
0.160053 -0.608021 1.92281
0.0658238 -0.597666 1.85697
0.163389 -0.581401 1.95957
0.0740817 -0.466581 1.99146
0.124414 -0.645608 1.92375
0.093518 -0.62958 1.87346
0.121222 -0.517291 1.94609
0.128688 -0.575729 1.92939
0.0291505 -0.395912 2.0178
0.107202 -0.43147 2.02603
0.10354 -0.674323 1.88741
0.136003 -0.669355 1.97648
0.114318 -0.688363 1.93895
0.0850851 -0.719968 1.94688
0.0776045 -0.58968 1.89564
0.0642705 -0.758511 2.02086
0.107311 -0.486614 2.00312
0.111798 -0.486501 2.04719
0.11578 -0.550991 2.03912
0.128216 -0.717133 1.97658
0.122917 -0.692237 2.01937
0.11351 -0.526868 1.99145
0.112722 -0.739854 2.01602
0.143313 -0.628729 1.95696
0.0995934 -0.716809 2.05491
0.130066 -0.57849 2.01254
0.155131 -0.612597 1.99506
0.0867353 -0.421551 2.06211
0.083542 -0.634227 2.04195
0.0689382 -0.759861 2.01781
0.0640266 -0.443678 2.07729
