ply
    format ascii 1.0           
    element vertex 37
    property double x           
    property double y           
    property double z           
    end_header
-4.92121 -5.43298 12.6291
-4.84582 -6.63372 13.419
-4.94831 -5.81613 11.9091
-4.98442 -5.07353 13.9933
-4.94592 -4.50025 13.9885
-6.06055 -7.32391 13.7627
-4.87411 -4.86222 12.864
-5.10844 -6.0934 12.4849
-5.13879 -5.61703 13.7986
-4.75853 -6.87559 12.8209
-5.28434 -6.17668 11.5514
-4.93432 -6.59817 12.3231
-5.23214 -3.82326 14.0262
-4.98872 -6.27497 12.9621
-5.29728 -7.11739 12.3909
-6.00799 -7.35903 13.0959
-5.15001 -5.3266 12.1774
-5.16918 -5.64444 13.1522
-6.13389 -7.63311 12.4236
-5.15711 -3.43586 13.2721
-6.33258 -6.66219 13.6818
-5.56646 -6.02357 13.873
-4.87817 -4.40104 13.3773
-5.21897 -6.08193 13.4388
-5.614 -5.44118 14.1029
-5.30704 -7.23604 13.0268
-5.45378 -6.70534 13.4106
-5.77986 -3.90045 13.7914
-6.64874 -7.27012 12.8869
-6.68951 -7.12984 13.4618
-5.97863 -6.11395 13.5074
-6.14277 -7.23278 13.6635
-4.74443 -6.86647 12.8138
-5.14085 -6.14677 13.5606
-5.54904 -4.78327 13.838
-6.0841 -5.06977 13.7017
-5.97617 -4.37494 13.7045
