ply
    format ascii 1.0           
    element vertex 54
    property double x           
    property double y           
    property double z           
    end_header
0.0274025 -0.70242 1.74432
-0.0321095 -0.620622 1.72332
-0.00134652 -0.450813 1.83874
-0.0572797 -0.495047 1.84384
-0.0822562 -0.604974 1.77828
0.0274289 -0.664324 1.71379
-0.0778271 -0.618245 1.72855
-0.00790385 -0.434266 1.85945
-0.0284256 -0.451685 1.85267
-0.0260454 -0.524819 1.8104
-0.0108641 -0.483234 1.8195
-0.0259847 -0.544033 1.7832
-0.0179533 -0.644938 1.71192
0.0185423 -0.528916 1.81342
-0.012057 -0.563078 1.76847
-0.0606792 -0.60481 1.7565
-0.0620108 -0.577529 1.76941
-0.0504158 -0.471413 1.85621
0.00131153 -0.612 1.72968
-0.0438481 -0.661754 1.72052
0.0172523 -0.639305 1.72991
0.0137546 -0.509097 1.83664
0.0223701 -0.577024 1.79589
0.0259252 -0.554484 1.81054
0.00549988 -0.582774 1.75695
0.0219236 -0.60829 1.74955
0.028366 -0.593271 1.77494
-0.00357325 -0.529868 1.79995
0.0518244 -0.647389 1.72545
0.014829 -0.445839 1.86264
0.00196263 -0.556608 1.79226
0.0465715 -0.678248 1.73496
0.0456586 -0.620674 1.73652
0.0395062 -0.580235 1.82256
0.0677551 -0.660483 1.7475
0.0624281 -0.628018 1.75989
0.00307149 -0.478948 1.8426
-0.0662234 -0.567792 1.79998
-0.0192396 -0.587238 1.7408
0.0200888 -0.495085 1.85297
0.0307706 -0.53582 1.8439
0.0165302 -0.463776 1.88465
0.0264289 -0.607772 1.80731
0.0180901 -0.524753 1.87342
0.0368727 -0.63681 1.80617
0.0281718 -0.571196 1.85081
0.0453333 -0.698451 1.77335
0.0226347 -0.473219 1.86124
0.00748376 -0.666274 1.82376
0.0139923 -0.501364 1.87528
0.0193412 -0.640061 1.83518
0.046463 -0.675619 1.79395
0.00892771 -0.548367 1.89228
-0.00417301 -0.713207 1.78026
