ply
    format ascii 1.0           
    element vertex 48
    property double x           
    property double y           
    property double z           
    end_header
0.304076 -0.208367 1.26795
0.324943 -0.209767 1.25954
0.289367 -0.253498 1.24886
0.273008 -0.322508 1.187
0.30476 -0.351807 1.19059
0.325454 -0.383341 1.22039
0.307398 -0.253102 1.23406
0.308493 -0.269413 1.22584
0.263754 -0.37744 1.19579
0.289558 -0.302191 1.20963
0.273778 -0.351735 1.1879
0.323087 -0.287771 1.21276
0.288639 -0.341448 1.19266
0.254053 -0.325437 1.18741
0.309614 -0.303258 1.20393
0.33024 -0.236034 1.25789
0.333824 -0.261886 1.24921
0.255089 -0.345385 1.19492
0.3102 -0.33217 1.20777
0.286722 -0.291562 1.22454
0.320093 -0.200003 1.2795
0.304873 -0.294241 1.2227
0.31999 -0.348325 1.20491
0.482128 3.33868 -9.23076
0.296491 -0.325119 1.21241
0.334125 -0.218317 1.27659
0.331079 -0.344646 1.24235
0.338734 -0.295443 1.23103
0.333777 -0.353715 1.2208
0.331675 -0.280395 1.25729
0.309675 -0.388715 1.21988
0.324872 -0.255876 1.2327
0.32265 -0.313037 1.21921
0.279289 -0.327211 1.20661
0.33557 -0.369102 1.23442
0.322159 -0.247844 1.24778
0.327725 -0.323057 1.23292
0.304236 -0.239168 1.24806
0.326091 -0.244902 1.27029
0.325931 -0.321466 1.25892
0.330762 -0.300939 1.26088
0.321543 -0.200296 1.27643
0.327267 -0.261913 1.26689
0.302138 -0.329474 1.25429
0.327046 -0.30429 1.24275
0.322523 -0.214398 1.2921
0.323768 -0.364488 1.25031
0.305797 -0.391369 1.22565
