ply
    format ascii 1.0           
    element vertex 59
    property double x           
    property double y           
    property double z           
    end_header
0.119945 0.267551 1.32819
0.163863 0.23559 1.33545
0.0725679 0.257892 1.36453
0.151509 -0.243661 1.18563
0.205698 -0.0584662 1.19908
0.225696 -0.179612 1.161
0.193081 -0.129002 1.13689
0.123544 -0.196396 1.19289
0.184662 -0.209331 1.1741
0.0774151 -0.191748 1.22777
0.160173 0.079533 1.24573
0.164134 -0.00705618 1.23434
0.239956 -0.11235 1.15876
0.215338 0.0809921 1.24773
0.211523 -0.260776 1.20852
0.231522 0.0227996 1.2218
0.133542 -0.0511413 1.23557
0.180177 0.171566 1.29646
0.163451 0.119619 1.26272
0.101935 0.216063 1.38778
0.135046 -0.142936 1.19301
0.168527 -0.157539 1.16861
0.267782 -0.242292 1.22879
0.267352 -0.00404551 1.24112
0.219892 -0.0261309 1.23515
0.298627 -0.202657 1.27255
0.124812 -0.104571 1.24179
0.334691 -0.194597 1.30887
0.223121 0.158613 1.32644
0.212856 0.114453 1.28866
0.28239 -0.0583854 1.26751
0.295849 -0.103799 1.28788
0.303959 -0.149402 1.27552
0.230366 -0.212413 1.20141
0.258642 0.0854719 1.28461
0.241245 -0.284727 1.25039
0.309941 -0.25288 1.29488
0.246226 -0.0819788 1.2418
0.253684 -0.153782 1.19512
0.266148 -0.184874 1.23309
0.273049 -0.128544 1.24384
0.276185 0.0420957 1.32089
0.0906624 -0.242225 1.20439
0.27795 0.00691343 1.29025
0.253972 0.0437203 1.26458
0.254667 0.115377 1.3311
0.278566 -0.0469675 1.32232
0.239743 -0.106551 1.20369
0.259851 -0.240867 1.28279
0.258609 0.0851334 1.28374
0.237389 0.087024 1.36986
0.327815 -0.232389 1.33377
0.228269 -0.291122 1.29113
0.27783 -0.109983 1.36485
0.249338 -0.00300301 1.338
0.286805 -0.257243 1.34624
0.310701 -0.202194 1.36123
0.247611 -0.0327695 1.37825
0.254939 0.0359727 1.36462
