ply
    format ascii 1.0           
    element vertex 35
    property double x           
    property double y           
    property double z           
    end_header
-0.0175832 -1.04521 9.56429
0.296645 -3.23649 8.8129
0.198546 -0.788343 9.44089
-0.0688176 -1.64627 9.00219
-0.0608842 -2.23429 8.77771
-0.745717 -2.73806 8.88678
-0.276867 -1.62753 9.29175
-0.380513 -2.18545 9.02124
-0.739118 -2.4899 9.17033
0.2733 -1.13828 9.30661
-0.880569 -3.09345 9.16548
-0.224828 -3.15973 8.75689
-0.341371 -2.39138 8.7288
-0.0203832 -1.37664 9.32863
0.0878502 -2.5851 8.71957
-0.631174 -3.13251 8.87905
-0.110239 -1.99723 9.09928
0.497771 -3.08566 9.0235
-0.39704 -2.83986 8.88068
0.32043 -2.29755 8.74963
0.469171 -0.984538 9.62349
0.296491 -1.44899 9.15451
-0.599516 -3.41256 9.21302
0.0288237 -3.09916 8.95449
0.454433 -1.34253 9.5773
0.336659 -2.94683 9.47719
0.502125 -2.31522 9.07574
0.203341 -1.9336 9.44563
0.62982 -3.16273 9.37851
0.351226 -1.68204 9.66989
0.236192 -2.71291 9.07672
0.352638 -3.43595 9.32306
0.686876 -3.15032 9.29933
0.170253 -2.44169 9.6003
0.55936 -3.28379 9.54654
