ply
    format ascii 1.0           
    element vertex 32
    property double x           
    property double y           
    property double z           
    end_header
-0.0556686 0.0181116 0.989636
-0.0769458 -0.0553243 0.938165
-0.0737681 0.0649615 0.999888
-0.13352 -0.208846 0.883947
-0.0583217 -0.135699 0.912447
-0.151363 -0.175788 0.923914
-0.163282 -0.259772 0.921789
-0.00463272 -0.270339 0.950346
-0.113792 -0.055923 0.961888
-0.11673 -0.262301 0.896123
-0.0342825 -0.179161 0.916676
-0.10294 0.0304321 1.01066
-0.0819251 -0.10222 0.948898
-0.0645536 -0.261351 0.907223
-0.0105762 -0.13743 0.929769
-0.0886084 -0.0151572 0.978831
0.00513481 -0.246197 1.00048
-0.093527 -0.218504 0.908687
-0.0419026 -0.0247047 0.971823
-0.0860577 -0.163295 0.893202
-0.0587668 -0.0844777 1.00475
-0.0453546 -0.00103206 1.033
-0.0469548 0.0462045 1.03486
-0.0406583 -0.254381 0.942489
-0.00329358 -0.132992 0.976978
-0.0483818 -0.228286 0.967998
-0.0306744 -0.191057 0.968513
-0.051318 -0.048128 1.03991
-0.136465 -0.211009 0.889216
-0.0417212 -0.219781 1.02346
0.00905634 -0.244947 0.982485
0.00172849 -0.24764 1.03314
