ply
    format ascii 1.0           
    element vertex 51
    property double x           
    property double y           
    property double z           
    end_header
-1.44641 -0.622574 7.21707
-1.56621 -0.862481 6.51497
-1.39751 -0.583031 6.92254
-1.52595 -0.610825 6.75653
-1.40255 -0.438771 7.22627
-1.53552 -0.303367 7.13743
-1.33979 -2.12006 6.5468
-1.66676 -1.75989 5.86707
-1.35562 -0.820647 7.01826
-1.87695 -1.56856 6.58592
-1.58149 -0.833232 6.75925
-1.67219 -1.91302 6.45218
-1.34006 -1.87738 6.75474
-1.9434 -1.36738 6.59279
-1.94337 -1.46726 6.204
-1.87701 -1.42718 6.40052
-1.68424 -1.1245 6.56459
-1.88204 -1.623 6.33901
-1.41647 -1.79343 6.60552
-1.79641 -1.27065 6.66428
-1.7897 -1.67937 6.1344
-1.72183 -1.16602 6.27845
-1.59079 -1.03688 6.37869
-1.78842 -1.33724 6.19997
-1.61929 -1.41567 5.9445
-1.76665 -1.27559 6.4587
-1.74926 -1.87752 6.14359
-1.62888 -1.61794 5.98672
-1.62677 -1.0386 6.811
-1.80446 -1.48696 6.05516
-1.49815 -1.95485 6.02959
-1.57486 -1.31293 6.12716
-1.4203 -1.55791 5.93133
-1.46955 -1.76587 5.92424
-1.52243 -1.23379 6.31228
-1.33488 -1.01963 6.62547
-1.33914 -1.25952 6.40173
-1.35982 -0.771774 6.81309
-1.40811 -0.815044 6.60121
-1.4686 -1.97821 6.04826
-1.28419 -1.4313 6.31985
-1.28714 -1.92006 6.14208
-1.21478 -1.81859 6.58101
-1.55414 -0.309549 7.12547
-1.2067 -1.93464 6.42324
-1.32067 -1.47018 6.09812
-1.3709 -1.70387 6.10418
-1.38744 -0.353954 7.03389
-1.19274 -1.56589 6.42071
-1.32182 -0.579695 7.09872
-1.40533 -0.575387 6.92678
