ply
    format ascii 1.0           
    element vertex 34
    property double x           
    property double y           
    property double z           
    end_header
0.242478 -0.443711 2.50577
0.219493 -0.753905 2.42191
0.211788 -0.787893 2.5596
0.170588 -0.601378 2.52527
0.183564 -0.742801 2.47981
0.251597 -0.510891 2.46918
0.204867 -0.661555 2.38583
0.1558 -0.657457 2.45735
0.15427 -0.613794 2.44048
0.189683 -0.639527 2.42569
0.227468 -0.711479 2.40745
0.187321 -0.684685 2.42354
0.237606 -0.635732 2.40733
0.259119 -0.561002 2.45335
0.245968 -0.593912 2.42422
0.219051 -0.489655 2.50665
0.213757 -0.565417 2.46774
0.193021 -0.52724 2.50874
0.206761 -0.604468 2.4461
0.277407 -0.746594 2.39209
0.17317 -0.59201 2.4724
0.246799 -0.675007 2.38709
0.296133 -0.669321 2.39915
0.281035 -0.636208 2.42812
0.273009 -0.708901 2.41258
0.253231 -0.511589 2.47438
0.31811 -0.700476 2.43025
0.314129 -0.671476 2.47053
0.263005 -0.538407 2.52729
0.267235 -0.605955 2.46059
0.298258 -0.745939 2.43066
0.240005 -0.442168 2.51039
0.272965 -0.782081 2.45227
0.26722 -0.498093 2.50897
