ply
    format ascii 1.0           
    element vertex 31
    property double x           
    property double y           
    property double z           
    end_header
1.67198 -0.506802 3.23659
1.7551 -0.515354 3.16319
1.74941 -0.365592 3.2328
1.70417 -0.437797 3.20685
1.71004 -0.485932 3.19613
1.66913 -0.417406 3.22703
1.70495 -0.351207 3.24662
1.68589 -0.546919 3.23898
1.73213 -0.554147 3.18738
1.70761 -0.527057 3.20514
1.74154 -0.448635 3.19017
1.78032 -0.439706 3.21015
1.79729 -0.489016 3.21466
1.8183 -0.455546 3.23002
1.75371 -0.484684 3.20196
1.81026 -0.573363 3.21889
1.83451 -0.515768 3.28115
1.80353 -0.401753 3.28305
1.80587 -0.530536 3.20991
1.70194 -0.310636 3.25394
1.82975 -0.559661 3.25875
1.77487 -0.400602 3.24705
1.7752 -0.362599 3.27043
1.84134 -0.463218 3.26628
1.77249 -0.324505 3.28977
1.83494 -0.497291 3.23624
1.77 -0.615473 3.23716
1.81566 -0.569833 3.31989
1.76409 -0.367756 3.33865
26.1294 2.19593 -15.8916
1.54215 -0.635653 3.35648
