ply
    format ascii 1.0           
    element vertex 44
    property double x           
    property double y           
    property double z           
    end_header
-0.088445 -0.605531 1.94639
-0.0860806 -0.431612 2.05807
-0.0916413 -0.465986 2.03908
-0.0454799 -0.539672 1.97235
-0.0593215 -0.479883 2.00924
-0.0868193 -0.548914 1.97572
-0.0206609 -0.472167 2.01944
-0.0728869 -0.518603 1.99199
-0.00954149 -0.657705 1.95559
-0.0202626 -0.620324 1.95371
-0.0292327 -0.583827 1.96201
-0.0852449 -0.501877 2.03231
-0.106835 -0.584131 1.99643
-0.0102802 -0.439468 2.04589
0.0106085 -0.50659 2.01212
-0.0590599 -0.634416 1.95071
-0.0322883 -0.507077 1.99943
-0.0869538 -0.644568 1.98067
-0.0672996 -0.582453 1.97997
-0.0519467 -0.452733 2.0345
-0.0255893 -0.6906 1.97886
-0.004213 -0.552651 1.96546
0.0043133 -0.4217 2.07628
0.0157088 -0.475133 2.0398
0.0239807 -0.649959 1.97869
0.0332075 -0.561077 1.98608
-0.0280981 -0.397862 2.07314
0.0377545 -0.609873 1.99419
0.0117772 -0.591567 1.9663
-0.0466426 -0.415871 2.04872
0.0515389 -0.652835 2.00906
0.0257514 -0.517887 2.05868
0.0387545 -0.69041 2.01384
0.0478294 -0.62947 2.03904
0.0378434 -0.58138 2.0288
-0.00544502 -0.702792 2.01244
0.00447322 -0.419263 2.0792
0.0233744 -0.545051 2.02559
-0.00233758 -0.444353 2.13353
0.0459353 -0.673641 2.05615
-0.00759226 -0.487045 2.12156
-0.0125438 -0.452876 2.09342
-0.0451746 -0.402886 2.15265
0.00925419 -0.525485 2.10156
