ply
    format ascii 1.0           
    element vertex 51
    property double x           
    property double y           
    property double z           
    end_header
-0.124653 -0.182244 0.72003
-0.103732 -0.128439 0.738902
-0.101994 -0.21153 0.723755
-0.092992 -0.147229 0.727914
-0.0771878 -0.162325 0.724305
-0.0991051 -0.0738958 0.783657
-0.103944 -0.174249 0.720986
-0.0893596 -0.103647 0.743613
-0.111969 -0.157883 0.735115
-0.0912002 -0.193901 0.719595
-0.0685004 -0.11068 0.749286
-0.105179 -0.047077 0.778714
-0.106278 -0.112424 0.752608
-0.0677015 -0.0938942 0.777891
-0.0653357 -0.148692 0.735669
-0.0713027 -0.13066 0.743022
-0.0871581 -0.0493896 0.798931
-0.058103 -0.190754 0.742918
-0.0809538 -0.0792886 0.790807
-0.0754352 -0.183611 0.731061
-0.121246 -0.200585 0.725253
-0.0775177 -0.0660282 0.805071
-0.0880697 -0.121837 0.749508
-0.0727745 -0.20255 0.75409
-0.0506461 -0.181869 0.758948
-0.0617196 -0.215044 0.768666
-0.0616101 -0.128751 0.760859
-0.0790116 -0.0974945 0.760397
-0.084265 -0.206199 0.737613
-0.0812288 -0.225299 0.766614
-0.0588004 -0.163269 0.754976
-0.100211 -0.0907745 0.75897
-0.0633311 -0.16876 0.738327
-0.068284 -0.148327 0.759963
-0.0702605 -0.153742 0.780363
-0.0658973 -0.205617 0.788234
-0.0676427 -0.11373 0.771959
-0.0835336 -0.0518259 0.819155
-0.0750645 -0.224472 0.787355
-0.0670491 -0.172077 0.773115
-0.0894689 -0.0843109 0.807413
-0.06546 -0.192832 0.770014
-0.0724307 -0.109547 0.792067
-0.0903527 -0.104857 0.808206
-0.0845944 -0.127578 0.791987
-0.0980527 -0.0514809 0.780468
-0.091929 -0.0683169 0.816186
-0.0687981 -0.13347 0.778605
-0.0833544 -0.208932 0.798227
-0.0869906 -0.149929 0.791899
-0.0804052 -0.169674 0.788481
