ply
    format ascii 1.0           
    element vertex 52
    property double x           
    property double y           
    property double z           
    end_header
-0.206378 -0.059347 1.17335
-0.229548 -0.193434 1.08988
-0.205278 -0.329094 1.10463
-0.224897 -0.299359 1.06622
-0.200988 -0.40283 1.03234
-0.218234 -0.36874 1.07092
-0.169468 -0.106172 1.14709
-0.216061 -0.322928 1.02072
-0.218926 -0.258823 1.10604
-0.178696 -0.443829 1.04651
-0.217463 -0.400149 1.11312
-0.202399 -0.238058 1.03341
-0.205968 -0.189376 1.04203
-0.201164 -0.277284 1.0073
-0.145603 -0.355029 0.970036
-0.159546 -0.131043 1.06117
-0.14773 -0.0991012 1.10467
-0.158283 -0.0343731 1.1399
-0.182445 -0.361187 1.00722
-0.190359 -0.432828 1.09694
-0.128067 -0.0574585 1.11118
-0.202373 -0.225996 1.07788
-0.0697777 -0.3866 0.97255
-0.118426 -0.317307 0.964148
-0.177939 -0.314783 0.989805
-0.196114 -0.159856 1.07715
-0.149339 -0.409212 1.01641
-0.164165 -0.21223 1.02092
-0.14528 -0.28737 0.992076
-0.0683749 -0.424059 1.01036
-0.149254 -0.257609 1.02404
-0.0351653 -0.353416 0.997876
-0.112107 -0.0215554 1.13552
-0.101249 -0.255023 1.03347
-0.154782 -0.176762 1.04705
-0.0234486 -0.399795 1.00128
-0.107931 -0.101857 1.12815
-0.100473 -0.296631 1.01162
-0.114632 -0.380068 0.999622
-0.0589067 -0.332732 1.03705
-0.0869549 -0.34151 0.994394
-0.103984 -0.202018 1.08986
-0.116364 -0.155705 1.06606
-0.0899984 -0.144616 1.11833
-0.197659 -0.0613198 1.15116
-0.105749 -0.0640562 1.14782
-0.122789 -0.213474 1.04095
-0.109742 -0.0182843 1.13124
-0.0838677 -0.249305 1.0783
-0.073133 -0.289556 1.05385
-0.016568 -0.36537 1.04008
-0.0350871 -0.352098 0.989645
