ply
    format ascii 1.0           
    element vertex 53
    property double x           
    property double y           
    property double z           
    end_header
-0.722659 0.0327655 -0.219765
-0.723436 0.0261711 -0.222542
-0.722381 0.0316232 -0.22042
-0.721935 0.0295036 -0.221282
1.46064 -1.18344 5.43605
-0.722347 0.0307769 -0.220824
-0.722953 0.0278339 -0.220888
-0.722932 0.0291636 -0.221239
-0.723839 0.0246183 -0.222445
-0.72256 0.0240153 -0.223795
-0.723032 0.0307216 -0.219962
-0.723009 0.0247013 -0.223374
-0.723222 0.0230961 -0.222999
-0.722894 0.027011 -0.222111
-0.722798 0.025807 -0.22335
-0.722431 0.0280819 -0.222072
-0.722936 0.0317982 -0.219455
-0.721066 0.025472 -0.222897
-0.723578 0.0239333 -0.223126
-0.72173 0.0328298 -0.219795
-0.721646 0.0302512 -0.220925
-0.722309 0.0266442 -0.222993
-5.97319 1.74082 -13.2877
-0.721491 0.0233185 -0.223312
-0.721931 0.0246174 -0.223446
-0.721002 0.0271051 -0.221211
-0.720343 0.0239149 -0.222542
-0.720195 0.0229715 -0.222922
-0.721244 0.02881 -0.220783
-0.720967 0.0309566 -0.220052
-0.721251 0.0280893 -0.221444
-0.721452 0.0319054 -0.220187
-0.719765 0.0244905 -0.221601
-0.720656 0.0246127 -0.222063
-0.720974 0.0257956 -0.221956
-0.720951 0.0298183 -0.219983
-0.720297 0.0260241 -0.221141
-0.721784 0.026635 -0.222138
-0.720522 0.0279111 -0.220311
-0.721394 0.0241593 -0.222683
-0.720032 0.0252025 -0.220279
-0.722844 0.0290931 -0.221203
-0.72103 0.0321803 -0.219366
-0.721227 0.0331314 -0.219148
-0.722095 0.0284333 -0.221227
-0.722081 0.0249807 -0.222605
-0.719813 0.0234348 -0.221517
-0.720942 0.0288827 -0.219881
-0.722777 0.0269827 -0.222342
-0.720656 0.0268451 -0.220405
-0.72008 0.022613 -0.221987
-0.723229 0.0262059 -0.222761
-0.719786 0.0239709 -0.220704
