ply
    format ascii 1.0           
    element vertex 54
    property double x           
    property double y           
    property double z           
    end_header
-1.73992 -0.535872 9.6579
-1.86862 -1.091 9.52266
-1.80966 -1.74248 8.8508
-2.05338 -2.64215 8.41437
-2.12461 -2.27152 8.72845
-1.99483 -2.33273 8.45176
-1.47578 -0.501715 9.58661
-1.69949 -1.03761 9.30081
-1.88195 -1.49355 9.16711
-1.89666 -1.48617 9.47275
-1.91805 -1.84609 9.12834
-1.9527 -2.03869 8.81574
-1.82934 -0.809086 9.66307
-2.23839 -2.70254 8.7011
-1.94351 -2.24096 9.23125
-1.69838 -0.822919 9.42205
-2.21 -2.8656 8.47833
-2.09824 -3.09165 8.43589
-1.81757 -1.73558 9.3443
-1.60904 -2.99701 8.24625
-1.83112 -2.10795 8.54209
-1.95145 -2.81069 8.23894
-1.46348 -2.41378 8.41772
-1.74535 -2.64499 8.30464
-1.34802 -2.01515 8.92546
-1.25445 -2.85753 8.42649
-1.23655 -3.10746 8.27863
-1.42944 -0.745479 9.44497
-1.44454 -1.74887 8.94342
-1.41032 -1.57659 9.15959
-1.28629 -1.00292 9.41417
-1.06473 -2.74939 8.72322
-1.62073 -1.36945 9.07722
-1.51698 -1.168 9.1806
-1.41865 -2.37478 8.73813
-1.315 -1.32486 9.35021
-1.2036 -2.34902 8.97357
-1.73929 -2.56447 8.55388
-1.34006 -2.70499 8.65567
-1.63539 -2.13312 8.74016
-1.21553 -1.85016 9.27645
-1.57279 -2.80735 8.49487
-1.07402 -2.59999 9.14557
-1.31689 -0.44261 9.78305
-1.069 -3.03681 8.69605
-1.68209 -1.67627 9.09349
-1.27395 -0.695432 9.67135
-1.23765 -2.13102 9.17893
-1.29387 -1.58969 9.42587
-1.00708 -2.92099 8.94969
-1.39019 -3.53868 8.68467
-1.1866 -3.26499 8.57803
-1.94028 -2.04806 8.78122
-1.26302 -1.29715 9.24532
