ply
    format ascii 1.0           
    element vertex 68
    property double x           
    property double y           
    property double z           
    end_header
-2.41715 -1.62302 15.1162
-2.33527 -0.734026 15.3495
-3.75731 -4.57488 13.8472
-3.52648 -4.917 13.5551
-2.45284 -2.59434 14.5138
-3.16857 -4.40936 13.4701
-2.65921 -4.273 13.2286
-3.42941 -4.28824 13.8354
-1.98254 -3.22108 13.4474
-2.36313 -3.0493 14.2528
-2.70517 -3.70034 13.6229
-2.23515 -2.03897 14.9457
-2.42326 -1.24651 15.4406
-2.07892 -2.465 14.1496
-3.28804 -3.67285 14.1781
-2.64894 -3.16922 14.6374
-1.57708 -1.82028 14.7618
-2.94253 -4.77278 13.3527
-3.02299 -4.06281 13.7229
-2.8925 -3.41736 13.9571
-2.44476 -2.13966 15.3604
-3.74308 -4.99013 14.0756
-2.62205 -4.65696 13.0072
-1.47583 -4.17898 13.4122
-1.76398 -2.84091 13.6785
-2.20848 -3.76785 13.5088
-2.13577 -3.10243 13.8706
-1.93256 -1.06989 15.1812
-2.19134 -0.446661 15.744
-1.70762 -3.66367 13.3778
-1.48175 -1.46176 15.1144
-1.53181 -2.5486 14.2019
-1.1539 -4.59216 13.4451
-1.97994 -1.52505 14.9458
-1.93774 -2.29553 14.5923
-2.69681 -5.12996 13.3241
-2.40658 -3.41938 13.8687
-1.80626 -0.611152 15.439
-3.11412 -5.16199 13.4869
-1.37889 -0.922121 15.4325
-1.52142 -5.03603 13.3483
-2.23441 -4.25209 13.4162
-1.4532 -2.2939 14.5964
-0.883345 -4.21019 13.6559
-0.591023 -3.97486 14.0878
-2.31585 -4.92598 13.0689
-1.89286 -4.12872 13.6594
-1.70922 -4.58549 13.5135
-0.554022 -4.98669 13.9225
-2.11467 -4.61378 13.1617
-1.5009 -3.22521 13.5426
-1.2995 -3.81284 13.7076
-1.08124 -2.45918 14.8557
-0.782936 -3.61136 14.3496
-1.99214 -4.9926 13.4088
-1.08208 -5.01196 13.6976
-1.31421 -2.93011 13.8949
-1.02696 -2.98195 14.7562
-0.334055 -4.73795 14.2884
-0.631569 -4.48076 13.9496
-1.05567 -3.81956 14.0874
-0.288634 -5.17922 14.3761
-1.33114 -1.97236 15.2118
-1.20948 -3.3822 13.8878
-1.6784 -0.425672 15.8686
-1.21231 -3.33251 14.3671
-0.756763 -4.557 14.6388
-1.09416 -4.55034 13.3903
