ply
    format ascii 1.0           
    element vertex 33
    property double x           
    property double y           
    property double z           
    end_header
-0.053709 -0.6661 2.19793
-0.0933822 -0.733547 2.23347
-0.0172569 -0.496361 2.24792
-0.0812512 -0.625267 2.2546
0.0574407 -0.548005 2.22181
0.0281774 -0.41725 2.25863
0.114431 -0.407055 2.28158
0.0231137 -0.625408 2.19014
-0.0124671 -0.7283 2.20183
0.0623131 -0.288527 2.34854
-0.0218641 -0.57114 2.25475
0.144546 -0.668507 2.21598
0.0873762 -0.633617 2.18184
0.17601 -0.744864 2.26076
-0.0302076 -0.10052 2.56968
0.101074 -0.200278 2.43504
0.104513 -0.147227 2.55967
0.056117 -0.693354 2.23251
0.0688455 -0.0774777 2.52697
-0.0372488 -0.262738 2.42768
0.188926 -0.671887 2.28595
0.11187 -0.741544 2.20087
0.149906 -0.318626 2.41311
0.119563 -0.337556 2.33439
0.152345 -0.543477 2.35314
0.0993855 -0.222437 2.57328
0.133774 -0.476719 2.32192
0.133391 -0.396723 2.46145
0.115525 -0.506867 2.26551
0.20264 -0.672184 2.27292
0.115458 -0.14791 2.54837
0.150944 -0.636845 2.36151
0.164219 -0.314786 2.39947
