ply
    format ascii 1.0           
    element vertex 50
    property double x           
    property double y           
    property double z           
    end_header
-0.105254 -0.0452401 0.696532
-0.118794 -0.0893656 0.670205
-0.0916063 -0.183046 0.615804
-0.136374 -0.108972 0.681908
-0.183824 -0.219582 0.677021
-0.142592 -0.176428 0.6361
-0.12069 -0.250503 0.629777
-0.160282 -0.252159 0.635789
-0.101551 -0.146142 0.629946
-0.176095 -0.23374 0.658541
-0.16069 -0.178647 0.655827
-0.155074 -0.200137 0.642087
-0.118571 -0.165297 0.636048
-0.120654 -0.143476 0.650538
-0.105037 -0.20589 0.621816
-0.0703695 -0.205537 0.611509
-0.140812 -0.140897 0.672124
-0.15822 -0.227579 0.639783
-0.141681 -0.160679 0.653203
-0.118097 -0.0691146 0.707661
-0.125479 -0.1925 0.63392
-0.122527 -0.22542 0.629062
-0.0921075 -0.0977424 0.674684
-0.119331 -0.126804 0.672986
-0.0950984 -0.230792 0.621142
-0.0919186 -0.124959 0.67318
-0.174081 -0.256816 0.65578
-0.0823698 -0.162602 0.634805
-0.066532 -0.182824 0.627056
-0.138309 -0.217033 0.642952
-0.0832991 -0.143827 0.648445
-0.0711015 -0.225719 0.632296
-0.0896837 -0.266779 0.699833
-0.0584033 -0.204403 0.640163
-0.0764631 -0.149258 0.674168
-0.0755 -0.166991 0.658642
-0.102183 -0.0905093 0.710883
-0.0617694 -0.196647 0.673553
-0.0799404 -0.136329 0.693289
-0.0706903 -0.172236 0.681823
-0.0730691 -0.160569 0.702862
-0.0627552 -0.20593 0.700999
-0.0847319 -0.242778 0.701393
-0.0691403 -0.221039 0.681875
-0.112474 -0.267712 0.687843
-0.0889225 -0.253962 0.72319
-0.0767808 -0.190935 0.652731
-0.0766898 -0.237719 0.656933
-0.0870313 -0.250681 0.680548
-0.113467 -0.265736 0.66068
