ply
    format ascii 1.0           
    element vertex 43
    property double x           
    property double y           
    property double z           
    end_header
-0.0139834 0.195406 1.08592
0.0339168 -0.129333 0.935526
-0.0446707 0.106784 1.03955
-0.00454506 -0.0840087 0.941887
-0.177257 -0.14408 1.07006
-0.0981012 -0.0661354 0.982527
-0.123784 -0.110668 0.994834
-0.131014 -0.166162 0.995331
-0.0610065 -0.214918 0.976124
-0.0385332 0.156447 1.11116
-0.0300804 -0.127731 0.954847
-0.0201519 -0.0107616 0.967455
-0.051877 -0.0458463 0.980731
-0.138552 -0.216748 0.990073
-0.0533877 -0.000580715 1.00536
-0.165693 -0.176191 1.03214
-0.0900707 0.00961051 1.04976
-0.0937503 -0.0320188 1.01556
-0.0632068 -0.165011 0.973926
-0.0121254 -0.176879 0.955821
-0.131223 -0.0662562 1.02151
0.00528792 0.0906936 1.04748
0.0155885 -0.0404527 0.976425
-0.16375 -0.224637 1.03082
0.0430867 -0.0827544 0.962616
-0.0785585 0.0744159 1.06169
0.00519469 0.0402347 1.04753
0.0604828 -0.122116 0.989301
0.035846 -0.165607 0.975922
0.0147293 -0.00315899 1.00234
0.0315586 -0.00736732 1.05178
0.0130099 -0.235579 1.11225
0.0451369 -0.0506656 1.06646
0.0591766 -0.100139 1.05432
0.0313941 -0.0454776 1.02357
0.0644072 -0.112953 1.10599
-0.0381308 -0.236218 1.09492
0.0288792 0.0202152 1.0866
0.0325944 -0.184682 1.02325
0.0444625 -0.147081 1.07385
0.0439671 -0.0242477 1.10581
0.0199023 -0.184783 1.11658
0.0144028 -0.203622 1.07439
