ply
    format ascii 1.0           
    element vertex 46
    property double x           
    property double y           
    property double z           
    end_header
-0.00392863 1.53995 9.23038
0.442469 -1.58392 7.5141
0.695411 -0.992867 7.59999
-0.521936 -0.902309 7.63471
-0.809351 -1.14919 7.73384
1.04898 -0.923318 7.6201
-0.0340005 1.21019 9.49687
-0.269321 -0.621621 7.589
-0.853175 -0.783717 7.76601
-0.671923 -1.71881 8.19695
-0.263857 -1.43428 7.55713
0.747193 -1.3644 7.53066
0.0266248 -0.935328 7.62001
-0.164226 0.0405303 8.33269
0.378276 1.26604 9.41924
0.173815 -1.34164 7.63106
0.0348902 0.854837 9.05844
-0.243354 0.270535 8.65905
-0.260669 0.877044 9.44111
0.895734 -1.70636 7.71332
-0.345266 0.496869 9.06652
0.100555 -0.510477 7.69714
-0.281114 -0.334889 7.84849
-0.51641 -0.602389 7.94171
0.436014 -0.349265 7.98868
0.297326 0.473239 8.70458
-0.729989 -1.42427 7.97201
-0.00978932 -1.67842 7.76149
0.367299 -0.870992 7.76764
-0.04848 0.527521 8.80895
-0.406571 -1.22509 7.78495
0.0676707 -0.273437 7.98038
0.23765 0.12379 8.39326
0.511589 0.139772 8.63452
0.952797 -1.35031 7.88131
1.26248 -1.0472 7.87695
0.439049 -0.140715 8.32323
0.525594 0.35973 8.93152
0.203237 0.875877 9.50386
0.580534 0.0166806 9.04417
0.559672 -0.475697 8.33383
-0.154019 0.0572291 8.31251
1.15109 -0.99517 8.72869
0.54015 -1.63782 8.60012
0.878054 -1.26822 8.45839
0.630378 -1.76253 8.24651
