ply
    format ascii 1.0           
    element vertex 49
    property double x           
    property double y           
    property double z           
    end_header
-0.134312 -0.438851 1.08052
-0.130127 -0.486853 1.05274
-0.116377 -0.518191 1.04559
-0.0771891 -0.556163 1.01286
-0.132962 -0.451011 1.04294
-0.146246 -0.596974 1.04446
-0.10527 -0.523688 1.02626
-0.0901311 -0.571135 1.0194
-0.151103 -0.61285 1.032
-0.0819454 -0.570287 1.00057
-0.137335 -0.616004 1.01861
-0.100802 -0.548619 1.04246
-0.137817 -0.468579 1.06018
-0.159072 -0.44818 1.0729
-0.0981892 -0.568107 1.03843
-0.104933 -0.573786 0.969156
-0.117606 -0.4992 1.04372
-0.142121 -0.442371 1.05898
-0.106011 -0.596722 1.00817
-0.122952 -0.474581 1.03718
-0.115328 -0.582901 1.03135
-0.117563 -0.56677 1.04769
-0.143497 -0.498048 1.06168
-0.120554 -0.546658 1.04956
-0.16309 -0.600004 1.05484
-0.125836 -0.598836 1.01789
-0.0945004 -0.549153 1.02376
-0.134702 -0.580537 1.03691
-0.138949 -0.555217 1.05349
-0.123826 -0.600419 0.997135
-0.101044 -0.578736 1.00656
-0.165644 -0.618923 1.01585
-0.155236 -0.580859 1.04045
-0.0939052 -0.571805 0.984651
-0.136221 -0.51996 1.05639
-0.142471 -0.596061 1.02874
-0.155252 -0.516167 1.05548
-0.17474 -0.555265 1.03194
-0.180932 -0.59752 1.0465
-0.176002 -0.540012 1.03387
-0.169236 -0.602204 1.02698
-0.156222 -0.454974 1.05009
-0.1532 -0.552043 1.04352
-0.176322 -0.578384 1.04094
-0.146133 -0.535676 1.05168
-0.161734 -0.530262 1.04349
-0.195823 -0.56041 1.01915
-0.168816 -0.508622 1.04158
-0.178741 -0.551402 1.02578
