ply
    format ascii 1.0           
    element vertex 49
    property double x           
    property double y           
    property double z           
    end_header
0.264911 -0.0453398 0.282933
0.277789 -0.0163786 0.301484
0.267324 -0.0517864 0.282928
0.273795 -0.0424731 0.285819
0.267875 -0.0474618 0.28171
0.264711 -0.0488053 0.283517
0.270391 -0.050223 0.281995
0.276307 -0.0454839 0.284955
0.283394 -0.0499204 0.28823
0.273949 -0.0497902 0.283045
0.275858 -0.0271114 0.29475
0.26875 -0.0447112 0.283999
0.26982 -0.054388 0.283827
0.273235 -0.0534941 0.283758
0.278938 -0.0532528 0.286003
0.279768 -0.0370981 0.292888
0.277159 -0.0559425 0.287342
0.271409 -0.0471966 0.283167
0.277753 -0.0428522 0.287275
0.277611 -0.0302997 0.297017
0.276784 -0.050023 0.286214
0.281803 -0.052973 0.287316
0.27869 -0.0224822 0.301135
0.276764 -0.0362158 0.291604
0.278442 -0.0465625 0.287523
0.279817 -0.0497084 0.28789
0.284569 -0.0528816 0.290281
0.278839 -0.0340349 0.29554
0.27068 -0.0542425 0.28258
0.274087 -0.037317 0.289666
0.280547 -0.043443 0.293709
0.277012 -0.0249513 0.304617
0.278848 -0.0416899 0.291021
4.14405 0.52218 -5.88092
0.279852 -0.0400608 0.295656
0.277993 -0.0301164 0.300521
0.862053 0.0547407 -0.839128
0.27932 -0.0449474 0.290306
0.27418 -0.0399817 0.287882
0.274292 -0.0519742 0.285905
0.276996 -0.0298401 0.29741
0.273444 -0.042602 0.286011
0.27983 -0.0365344 0.298522
0.274298 -0.0316627 0.295907
0.28452 -0.0491172 0.291386
0.276683 -0.0391473 0.289842
0.275549 -0.0270143 0.295891
0.279453 -0.022357 0.301808
0.281101 -0.0441374 0.298141
