ply
    format ascii 1.0           
    element vertex 46
    property double x           
    property double y           
    property double z           
    end_header
-0.260275 -0.31478 1.26677
-0.118659 -0.227143 1.1857
-0.222802 -0.159821 1.23313
-0.169273 -0.377202 1.20019
-0.209718 -0.342746 1.23766
-0.251374 -0.370219 1.30841
-0.166676 -0.242111 1.22827
-0.26965 -0.292578 1.33381
-0.206901 -0.222057 1.27083
-0.207482 -0.283831 1.26775
-0.0845505 -0.114995 1.25754
-0.0845264 0.0927096 1.3763
-0.0783401 -0.0524689 1.26863
-0.180234 -0.180326 1.19531
-0.143727 -0.112337 1.28532
-0.154745 -0.140938 1.22723
-0.0462643 0.0380055 1.31305
-0.131177 -0.325634 1.18136
-0.102549 -0.178712 1.22864
-0.0286608 -0.285247 1.21186
-0.124335 -0.0604674 1.31907
-0.0496487 -0.209363 1.21103
-0.147341 -0.303512 1.23991
-0.0275979 -0.134727 1.23878
0.0328348 -0.103572 1.29361
0.00969932 0.00267935 1.37279
-0.0296514 -0.0861842 1.28342
-0.0183363 0.126656 1.40274
0.0179254 -0.165234 1.27487
-0.0789365 -0.326682 1.21713
0.0311072 0.0863551 1.41264
0.0313918 -0.04597 1.41247
0.0309889 -0.214239 1.31952
-0.0461343 -0.0274495 1.33167
0.0112884 -0.301885 1.26297
-0.0121975 -0.372536 1.3649
-0.095051 0.0144099 1.34524
-0.0881709 -0.262989 1.23193
0.0501984 -0.152129 1.33529
-0.0210884 0.0639043 1.36985
-0.0285208 -0.246604 1.25842
-0.0415655 -0.184509 1.27091
0.0215446 0.0242488 1.43467
-0.0881739 0.0940907 1.37686
-0.154588 -0.383851 1.31896
-0.0123296 -0.281191 1.3988
