ply
    format ascii 1.0           
    element vertex 47
    property double x           
    property double y           
    property double z           
    end_header
-0.51348 0.69923 3.88608
-0.876596 -0.815078 3.88139
-0.746339 -0.971453 3.4931
-0.784771 -0.876511 3.69691
-0.766396 -0.440488 3.38901
-0.508263 0.531547 3.6298
-0.440233 -0.555153 3.2366
-0.968558 -0.28159 3.76064
-0.310317 0.869372 3.82103
-0.616277 0.19529 3.56544
-0.774131 -0.732283 4.07629
-0.494077 -0.0477998 3.34775
-0.782111 -0.513895 3.59932
-0.633753 0.146515 3.77368
-0.669572 -0.251369 3.47636
-0.761742 -0.67357 3.77943
-0.729628 -0.778704 3.38014
-0.613584 -0.0224648 3.52612
-0.697754 -0.0492427 3.73646
-0.661884 -0.695367 3.56707
-0.735731 -0.982916 3.94535
-0.551081 -0.320645 3.30795
-0.827012 -0.168861 3.60517
-0.924273 -0.325301 3.57241
-0.246402 0.116352 3.363
-0.438286 0.12258 3.48228
-0.213556 0.472805 3.64743
-0.132515 0.776172 3.72667
-0.520902 -0.733665 3.35381
-0.030541 0.336825 3.6931
-0.276304 -0.105821 3.33713
-0.112557 -0.243324 3.40371
-0.216804 -0.567443 3.27457
-0.41388 0.320941 3.66353
-0.564266 -0.52022 3.42407
-0.0695155 -0.0183818 3.43753
-0.338964 0.648594 3.73175
-0.360342 -0.417281 3.37515
-0.0983574 -0.440767 3.46067
-0.419652 -0.217067 3.44561
-0.0610164 0.57431 3.79687
0.0131624 -0.268687 3.56358
0.00505012 -0.823338 3.54604
0.0188647 -0.472281 3.66057
-0.214467 -0.849407 3.59917
-0.099073 -0.709608 3.39109
-0.0820329 0.143126 3.81386
