ply
    format ascii 1.0           
    element vertex 41
    property double x           
    property double y           
    property double z           
    end_header
-0.49807 -0.878507 2.96446
-0.478717 -0.865305 2.76901
-0.315543 -0.678471 2.90107
-0.513862 -0.937495 2.77389
-0.430304 -0.50667 3.07126
-0.442545 -0.953597 2.73071
-0.428421 -0.55389 3.00019
-0.382983 -0.632144 2.92868
-0.407697 -0.882136 2.74332
-0.39844 -0.819324 2.88356
-0.431285 -0.703448 2.92481
-0.453666 -0.793245 2.93497
-0.360847 -0.503048 3.0057
-0.359381 -0.839983 2.81345
-0.301552 -0.608432 2.93564
-0.370119 -0.750112 2.9087
-0.283525 -0.865316 2.83059
-0.212387 -0.965873 2.84629
-0.288089 -0.54448 3.01972
-0.321244 -0.794499 2.86099
-0.231889 -0.769364 2.97714
-0.305536 -0.988783 2.77591
-0.369675 -0.952212 2.75165
-0.243624 -0.688826 2.95346
-0.199868 -1.04293 2.90872
-0.238734 -0.810018 2.87091
-0.214372 -0.896049 2.88985
-0.308485 -0.469998 3.06078
-0.15722 -0.877936 2.98148
-0.347021 -0.915751 2.81114
-0.399122 -0.440896 3.0488
-0.283583 -0.750692 2.91611
-0.171913 -0.949943 2.94181
-0.205605 -0.833861 2.93724
-0.220246 -0.747077 3.05084
-0.270647 -0.629502 3.00081
-0.325687 -0.975794 2.86499
-0.443286 -1.00725 2.79502
-0.196771 -1.01359 2.98584
-0.303758 -0.556163 3.10199
-0.220765 -0.963584 3.04296
