ply
    format ascii 1.0           
    element vertex 40
    property double x           
    property double y           
    property double z           
    end_header
-0.0692022 -0.276244 0.631974
-0.0777475 -0.18282 0.695499
-0.0796448 -0.229203 0.668109
-0.0815928 -0.201686 0.682692
-0.0708375 -0.19582 0.692415
-0.075633 -0.258224 0.635981
-0.0836535 -0.269323 0.630473
-0.0707425 -0.219146 0.675893
-0.0598284 -0.230698 0.678364
-0.0747688 -0.252048 0.662254
-0.088097 -0.244492 0.665192
-0.0707728 -0.24108 0.671522
-0.0626723 -0.264753 0.639744
-0.0623596 -0.258726 0.656815
-0.0587207 -0.218296 0.686454
-0.0563057 -0.289063 0.653969
-0.0637059 -0.206591 0.701785
-0.0548613 -0.266676 0.66737
-0.0603274 -0.251557 0.669213
-0.050715 -0.288501 0.675896
-0.0684709 -0.192287 0.707197
-0.0509602 -0.258297 0.679898
-0.0607861 -0.250218 0.697113
-0.0612601 -0.279245 0.643684
-0.0528464 -0.27501 0.683592
-0.0559284 -0.235372 0.694192
-0.063218 -0.273188 0.656223
-0.0598884 -0.245191 0.682549
-0.0599014 -0.302851 0.684909
-0.0554577 -0.286405 0.695116
-0.0551471 -0.273532 0.704181
-0.0545872 -0.263695 0.693208
-0.0631054 -0.222841 0.699103
-0.0677113 -0.245783 0.710333
-0.0680194 -0.29671 0.697892
-0.0707276 -0.232648 0.707151
-0.0768228 -0.207015 0.711956
-0.0759852 -0.285193 0.704545
-0.0679865 -0.256937 0.701967
-0.0722689 -0.272353 0.708454
