ply
    format ascii 1.0           
    element vertex 50
    property double x           
    property double y           
    property double z           
    end_header
-0.063916 -0.139318 0.556898
-0.0733145 -0.191884 0.523817
-0.0530848 -0.114635 0.581154
-0.0175673 -0.235893 0.537972
-0.0460652 -0.183294 0.528817
-0.033724 -0.20117 0.523299
-0.0527939 -0.199819 0.523208
-0.0793606 -0.234744 0.539275
-0.0324634 -0.224126 0.530642
-0.0267959 -0.188119 0.534167
-0.0868122 -0.205163 0.527018
-0.0405376 -0.146969 0.587873
-0.0688141 -0.159498 0.546549
-0.0740689 -0.176915 0.531108
-0.0123977 -0.189037 0.545794
-0.0466513 -0.13105 0.580743
-0.0384253 -0.174524 0.543362
-0.0241652 -0.177036 0.554911
-0.0671534 -0.124593 0.577342
-0.0691676 -0.209734 0.521301
-0.0545098 -0.155135 0.556989
-0.0871155 -0.171057 0.540132
-0.0877086 -0.183769 0.529459
-0.0512957 -0.145341 0.571159
-0.0460379 -0.161762 0.571025
-0.0219817 -0.205542 0.543157
-0.0239467 -0.227696 0.564857
-0.0206941 -0.25355 0.545616
-0.0438802 -0.130747 0.598073
-0.0150213 -0.24181 0.55634
-0.0512081 -0.11352 0.596991
-0.0598463 -0.177861 0.541328
-0.0313564 -0.229347 0.547775
-0.0568493 -0.0932263 0.597823
-0.0546488 -0.130963 0.56649
-0.0587334 -0.157878 0.595497
-0.0206548 -0.243904 0.574149
-0.0315399 -0.211278 0.556315
-0.0243305 -0.195166 0.559107
-0.0548512 -0.190594 0.582189
-0.0234257 -0.17646 0.554445
-0.0583197 -0.140425 0.601997
-0.0207596 -0.253736 0.545156
-0.04399 -0.264014 0.553235
-0.0754083 -0.170784 0.583283
-0.0443968 -0.180147 0.573133
-0.0599889 -0.14036 0.555996
-0.0560616 -0.09388 0.59859
-0.0579392 -0.123304 0.608966
-0.0820871 -0.211406 0.57786
