ply
    format ascii 1.0           
    element vertex 44
    property double x           
    property double y           
    property double z           
    end_header
-0.00992554 -0.257204 0.63407
-0.0309674 -0.29411 0.645352
0.0137392 -0.254547 0.649474
0.0223105 -0.274585 0.650042
0.0221825 -0.309148 0.670234
0.00590979 -0.269144 0.642279
0.0271605 -0.262723 0.66243
0.00315334 -0.181748 0.692535
0.0154026 -0.295925 0.657282
-0.00234071 -0.205683 0.666481
0.034767 -0.265602 0.67878
-0.00670287 -0.224787 0.654849
-0.00917553 -0.24205 0.639618
-0.0217746 -0.245594 0.632233
-0.00942486 -0.275207 0.633712
0.0164919 -0.245705 0.665192
-0.0254247 -0.26637 0.631455
0.0245514 -0.250466 0.681231
-0.0227598 -0.232664 0.641957
0.00162496 -0.222755 0.670821
0.00377329 -0.214544 0.703711
0.00550269 -0.198762 0.694783
0.0133932 -0.323383 0.675625
0.00239799 -0.229281 0.686667
0.0237383 -0.279253 0.672513
0.00155809 -0.212419 0.684422
0.0102279 -0.296714 0.690126
-0.00226323 -0.244416 0.654866
0.00116266 -0.197196 0.711171
0.0157045 -0.31327 0.687534
0.00812168 -0.298565 0.673675
-0.00184686 -0.158374 0.705442
0.00323339 -0.312205 0.70072
-0.000470527 -0.17907 0.707179
0.0094219 -0.281182 0.68066
0.00753197 -0.297314 0.690686
0.0047563 -0.198973 0.678848
0.0251007 -0.250566 0.681677
0.0176869 -0.266964 0.685495
0.00440799 -0.1823 0.692521
0.0116858 -0.323769 0.675098
0.000963149 -0.207074 0.666797
-0.0121577 -0.186687 0.715904
-0.0139202 -0.203146 0.709428
