ply
    format ascii 1.0           
    element vertex 55
    property double x           
    property double y           
    property double z           
    end_header
-0.170914 -0.603625 2.69337
-0.162714 -0.544674 2.73773
-0.265289 -0.805204 2.66564
-0.195336 -0.924896 2.52371
-0.204636 -0.872245 2.57866
-0.239026 -0.744563 2.73744
-0.0928024 -0.701696 2.71261
-0.0696203 -0.769149 2.65008
-0.129428 -0.896833 2.55159
-0.166877 -0.688631 2.71303
-0.205136 -0.818156 2.62315
-0.275738 -0.987597 2.56366
-0.300394 -0.935447 2.60859
-0.135872 -0.839609 2.5929
-0.313248 -0.915442 2.71103
-0.0667958 -1.07617 2.64794
-0.200696 -0.777196 2.68086
-0.142003 -0.792388 2.64236
-0.186178 -0.999153 2.53813
-0.263775 -1.05444 2.58189
-0.0665222 -0.868383 2.587
-0.130758 -0.759956 2.70627
-0.106448 -0.598004 2.72827
-0.0252107 -0.850908 2.72115
-0.132808 -0.986406 2.58228
-0.0879667 -0.473894 2.84609
-0.00484185 -1.02969 2.67032
0.0229486 -0.912339 2.73347
-0.010716 -0.951034 2.67083
-0.143954 -0.484805 2.76464
0.0256713 -0.991986 2.73195
-0.084229 -0.962332 2.54975
-0.0536913 -0.991794 2.60228
-0.0949793 -0.535351 2.77431
-0.0900352 -0.403392 2.9311
-0.174264 -0.371315 2.86269
-0.0939803 -0.653617 2.84353
-0.0669839 -0.915504 2.56434
-0.0662393 -0.532155 2.83918
-0.0895541 -0.589574 2.82429
-0.0518223 -0.779484 2.725
0.033445 -0.958231 2.78083
-0.181708 -1.03713 2.60137
-0.0642386 -0.898078 2.67844
-0.0827623 -0.847654 2.64503
-0.0994517 -0.706877 2.78671
-0.14892 -0.48653 2.76991
-0.0740721 -0.927983 2.62118
-0.10487 -0.769018 2.82608
0.00460931 -0.908958 2.81364
-0.00942616 -1.01152 2.81582
-0.152591 -0.83106 2.83963
-0.0964431 -1.07007 2.75428
-0.0944848 -0.394708 2.93469
-0.103924 -0.466124 2.85243
