ply
    format ascii 1.0           
    element vertex 29
    property double x           
    property double y           
    property double z           
    end_header
0.0489372 -0.232716 0.702927
0.0739463 -0.0874189 0.68639
0.00139883 0.0426736 0.737602
-0.00339793 -0.180716 0.66185
-0.0343025 -0.0808665 0.677561
0.0320073 -0.0582901 0.677531
-0.0118844 -0.0442645 0.694204
0.0649349 -0.132322 0.681768
-0.0377679 -0.150586 0.662798
0.0852367 -0.0379705 0.731033
0.0216619 0.12371 0.784456
-0.0265825 -0.00708335 0.741913
0.0371674 -0.161341 0.665631
0.0143999 -0.0152348 0.715553
0.0345461 0.00776449 0.732294
0.111648 -0.0845544 0.712835
0.0146795 -0.127441 0.691711
0.0977511 -0.13124 0.718612
-0.0238345 -0.121283 0.694427
0.116073 -0.0635216 0.753903
0.0667293 -0.176014 0.721001
0.0408798 0.0628327 0.745611
0.0898537 -0.171312 0.794701
0.0132535 0.162412 0.795803
0.0459874 0.0861965 0.783244
0.0277901 0.122814 0.777411
0.0941116 -0.0999065 0.750446
0.0768644 -0.147703 0.755527
-0.00409332 -0.194683 0.783925
