ply
    format ascii 1.0           
    element vertex 29
    property double x           
    property double y           
    property double z           
    end_header
0.0636963 0.166323 1.30878
0.0767957 0.121816 1.29496
0.026395 -0.11962 1.18246
0.149341 -0.121887 1.20201
0.100784 -0.0905638 1.18802
0.0603402 0.0253262 1.2446
0.0664179 -0.234114 1.17141
0.158532 -0.063889 1.24616
0.111275 -0.209555 1.17878
0.0502812 -0.0763769 1.20129
0.141438 -0.174045 1.19742
0.192181 -0.116238 1.23481
0.077184 -0.0397035 1.2267
0.102658 0.0533259 1.25906
0.0830997 -0.170489 1.20272
0.176972 -0.169818 1.24253
0.143714 -0.222531 1.24416
0.0169577 0.146489 1.29627
0.00636698 -0.203843 1.17751
0.159665 -0.214595 1.33148
0.192396 -0.0900135 1.28132
0.161643 -0.0647759 1.25015
0.0557554 0.168489 1.31504
0.13032 -0.289193 1.22161
0.0965114 -0.0180791 1.26515
0.149214 -0.188764 1.28418
0.170707 -0.132484 1.27815
0.070542 -0.266675 1.26474
0.0570734 -0.24501 1.3134
