ply
    format ascii 1.0           
    element vertex 47
    property double x           
    property double y           
    property double z           
    end_header
-0.0619111 -0.831701 1.82587
-0.0312276 -0.804887 1.82886
0.0211025 -0.750868 1.87147
0.00858743 -0.787715 1.84248
-0.139998 -0.814711 1.84209
0.00879047 -0.655459 1.91362
-0.0685234 -0.795976 1.84772
0.0542706 -0.631261 1.96078
-0.0758092 -0.762144 1.88101
-0.00908744 -0.838193 1.84507
-0.101215 -0.82539 1.82996
-0.0304082 -0.77783 1.85825
-0.115632 -0.864355 1.82935
0.0157023 -0.619897 1.94781
-0.135155 -0.782309 1.87866
-0.0262221 -0.713293 1.87907
-0.0106971 -0.68288 1.89693
0.0123886 -0.715003 1.88882
0.0177978 -0.866016 1.85873
-0.107779 -0.800862 1.85654
-0.00526715 -0.604428 1.99108
0.0338377 -0.601725 1.97875
-0.0682787 -0.870428 1.83215
0.0324547 -0.690096 1.9139
-0.056454 -0.734105 1.89671
-0.151195 -0.848323 1.83883
-0.0239753 -0.749943 1.88255
-0.104886 -0.898926 1.85152
0.0398535 -0.731362 1.91612
-0.171919 -0.782218 1.87395
0.0223477 -0.851314 1.89518
0.0338713 -0.666023 1.94713
0.0248484 -0.795493 1.92026
0.0238162 -0.791247 1.87906
0.0166864 -0.577749 1.99605
0.0297033 -0.670335 1.98484
0.0050773 -0.889891 1.891
0.0394799 -0.706927 1.95109
-0.00863694 -0.816062 1.88322
0.020502 -0.751899 1.94819
0.016432 -0.598534 2.01909
-0.011709 -0.880059 1.92463
-0.0128693 -0.818187 1.95154
-0.0141976 -0.777957 1.95761
0.00193345 -0.762028 1.91311
0.00953615 -0.721096 1.96258
0.00309981 -0.689615 1.97949
