ply
    format ascii 1.0           
    element vertex 53
    property double x           
    property double y           
    property double z           
    end_header
0.518143 -0.844733 2.29115
0.511227 -0.839295 2.30369
0.497669 -0.93685 2.26435
0.497599 -0.925751 2.27372
0.498248 -0.957762 2.27465
0.49828 -0.90541 2.27961
0.50516 -0.896153 2.27113
0.53586 -0.970214 2.25189
0.49927 -0.941851 2.27915
0.505604 -0.8796 2.2825
0.507443 -0.91237 2.26961
0.518032 -0.851395 2.31256
0.51431 -0.94501 2.25332
0.505156 -0.97161 2.26552
0.507875 -0.925389 2.26172
0.523392 -0.832518 2.30181
0.505776 -0.894316 2.28576
0.500281 -0.929602 2.28782
0.517956 -0.904306 2.2641
0.503681 -0.8912 2.30008
0.514319 -0.869034 2.28698
0.504037 -0.921821 2.29887
0.504076 -0.955809 2.26037
0.5096 -0.974803 2.28195
0.526963 -0.960544 2.25847
0.51713 -0.875472 2.27676
0.529714 -0.859737 2.30606
0.524686 -0.936514 2.25741
0.530821 -0.912873 2.26484
0.518756 -0.869769 2.3063
0.544082 -0.962004 2.25945
0.517252 -0.891571 2.27672
0.545816 -0.931145 2.27612
0.522674 -0.924887 2.26681
0.537544 -0.896711 2.28218
0.516413 -0.972499 2.26633
0.536866 -0.943998 2.26115
0.526806 -0.877007 2.28069
0.509625 -0.943464 2.26532
0.55117 -0.959922 2.26897
0.524519 -0.831512 2.30261
0.52944 -0.859171 2.30543
0.527464 -0.902668 2.2752
0.541617 -0.917641 2.2737
0.54033 -0.908302 2.28426
0.531698 -0.935233 2.27036
0.561515 -0.973208 2.26473
0.529441 -0.844856 2.30766
0.52858 -0.873006 2.2941
0.543321 -0.944586 2.27622
0.543409 -0.983923 2.2505
0.553038 -0.98473 2.26123
10.7567 9.674 -23.717
