ply
    format ascii 1.0           
    element vertex 50
    property double x           
    property double y           
    property double z           
    end_header
-0.0394339 -0.030299 0.620918
-0.0508472 -0.217394 0.524941
-0.0177813 -0.0418471 0.601515
-0.0639758 -0.258802 0.542634
-0.0640673 -0.181844 0.577033
-0.0556905 -0.156875 0.558321
-0.0564484 -0.196863 0.546215
-0.014317 -0.018291 0.628798
-0.0455026 -0.137022 0.578449
-0.027971 -0.197617 0.531672
-0.0467939 -0.286787 0.531022
-0.040651 -0.25582 0.522448
-0.032929 -0.171725 0.546383
-0.0345764 -0.139696 0.548999
-0.0139155 -0.237478 0.520673
0.0190011 -0.293276 0.536095
-0.0623201 -0.130758 0.600182
-0.0076284 -0.159015 0.547553
-0.0150682 -0.0736707 0.636219
-0.0259797 -0.0888886 0.587934
-0.000133209 -0.271757 0.540561
0.0022643 -0.223911 0.539064
0.0210974 -0.190914 0.584807
0.0279822 -0.278951 0.558107
0.0310825 -0.321136 0.539044
-0.0167455 -0.133364 0.569608
0.0234401 -0.219155 0.591625
0.0118497 -0.149534 0.598333
-0.00679962 -0.20042 0.554488
-0.00120879 -0.10774 0.588043
-0.0409946 -0.107193 0.573734
-0.0301114 -0.296157 0.551795
-0.0329132 -0.232635 0.534455
0.01833 -0.241349 0.556241
-0.0526208 -0.2167 0.526381
0.0112283 -0.178757 0.560408
-0.00128829 -0.158597 0.576691
-0.0191184 -0.26087 0.541502
0.00961301 -0.17366 0.606569
-0.0131563 -0.0453839 0.640867
0.0502605 -0.306428 0.583471
-0.0098633 -0.0998699 0.615327
-0.0197095 -0.131244 0.620782
0.0371566 -0.326009 0.56698
-0.0140468 -0.0180418 0.62873
0.0329156 -0.280732 0.582733
0.016322 -0.244671 0.588002
0.0096877 -0.266304 0.570493
0.0446074 -0.302049 0.554854
-0.0143784 -0.136142 0.597886
