ply
    format ascii 1.0           
    element vertex 50
    property double x           
    property double y           
    property double z           
    end_header
-0.0801876 0.259083 2.24897
-0.166489 0.0730733 2.19952
0.0956442 -0.0607362 2.07992
-0.201851 -0.46412 2.088
-0.182899 -0.126773 2.22491
-0.169295 -0.261235 2.25616
-0.119575 -0.0465604 2.13499
-0.214351 -0.347707 2.07861
-0.0992566 0.297377 2.34525
-0.145002 -0.263577 2.10137
-0.19927 0.288009 2.38426
-0.0788257 0.128671 2.17001
-0.105464 -0.333364 2.01604
-0.225513 -0.339519 2.18822
0.0611138 -0.441512 2.03882
-0.230428 -0.453431 2.19086
-0.13056 -0.220519 1.98123
-0.11444 -0.152592 2.15181
-0.14657 -0.0250913 2.24972
0.0184533 -0.0201083 2.14226
-0.0338611 -0.101911 2.09582
-0.0588322 0.0199058 2.19709
0.0794657 -0.279235 2.07033
0.0327937 -0.183139 2.03699
0.288042 -0.385886 2.2147
-0.00721727 0.218012 2.30311
0.0972248 0.0488937 2.27014
0.0898149 0.165036 2.27896
0.157561 -0.544756 2.22367
0.161547 -0.441805 2.07637
0.0124808 -0.395341 2.10981
-0.0448545 0.390526 2.37039
0.212103 -0.317739 2.20218
0.141255 -0.244707 2.16503
0.00291736 0.101084 2.24157
-0.0644383 -0.426892 2.20749
0.242738 -0.454483 2.14918
-0.0670278 -0.193968 2.06964
0.127845 -0.381449 2.1559
-0.0851177 0.259794 2.24115
0.0881227 -0.148204 2.15967
0.0671993 -0.589398 2.23192
0.0312352 0.345294 2.5091
0.170932 -0.190365 2.25865
0.00190435 0.287854 2.3934
0.0921846 0.224277 2.37742
-0.199558 -0.465687 2.08472
0.15642 -0.539762 2.21243
0.121136 -0.0301419 2.33393
0.107561 -0.0467854 2.18485
