ply
    format ascii 1.0           
    element vertex 49
    property double x           
    property double y           
    property double z           
    end_header
-0.080294 -0.14695 1.06927
0.0437102 -0.152954 1.1112
-0.104551 0.217567 1.21271
-0.0242594 0.194357 1.18171
0.070647 0.0288732 1.14584
-0.0850595 0.0155125 1.13617
-0.059446 0.110645 1.13846
-0.0147566 -0.0900913 1.06506
-0.0322952 0.0498142 1.11897
-0.106915 -0.0839419 1.1077
-0.0104594 -0.0342252 1.04793
-0.0763958 -0.0893533 1.06529
-0.0131787 0.131238 1.14852
-0.093833 -0.0511618 1.15581
-0.0478468 -0.0535457 1.09118
-0.0532233 0.21514 1.22238
-0.0694312 0.0624401 1.16008
-0.0853335 0.153916 1.23082
-0.117218 -0.137859 1.103
-0.039542 -0.00213636 1.12819
0.0263006 0.0540545 1.15464
0.00988222 0.0167954 1.12191
-0.0178362 0.0782067 1.16089
0.0526669 -0.0756811 1.13395
0.0475235 -0.0263924 1.11039
-0.031395 0.257143 1.24805
0.0997816 -0.139798 1.23998
0.0339057 0.138447 1.23445
-0.0492485 -0.136443 1.15225
0.0762067 -0.158908 1.15071
0.00833215 -0.127948 1.13212
0.0323008 0.0826205 1.23028
0.034392 -0.205674 1.20552
0.0747571 -0.101426 1.21907
0.0015436 0.11368 1.19786
0.0457089 -0.126903 1.17882
0.0923038 -0.169739 1.20058
-0.00308321 -0.0249523 1.10192
0.0511362 -0.0371545 1.23552
0.0585388 -0.0624447 1.18841
0.0411576 -0.0125631 1.17712
-0.0106266 0.171698 1.22477
-0.0261256 0.195547 1.18071
-0.00828536 -0.222981 1.18885
0.01524 0.167099 1.27801
-0.0394303 0.232719 1.32669
-0.021451 0.204459 1.26484
-0.0468755 -0.102551 1.11751
0.0506938 0.0349151 1.19473
