ply
    format ascii 1.0           
    element vertex 47
    property double x           
    property double y           
    property double z           
    end_header
-0.0752917 -0.218388 0.570405
-0.0668979 -0.127203 0.605982
-0.0716599 -0.197859 0.571504
-0.0736867 -0.145329 0.609848
-0.0927498 -0.21621 0.582487
-0.0560609 -0.150689 0.599255
-0.0870226 -0.185738 0.602163
-0.0437276 -0.18006 0.57457
-0.0629856 -0.18807 0.588485
-0.0230772 -0.16503 0.620647
-0.0699279 -0.0926305 0.639229
-0.0499352 -0.201041 0.577934
-0.0624801 -0.1703 0.601259
-0.0494555 -0.122188 0.614993
-0.0427623 -0.164963 0.604329
-0.0846255 -0.116731 0.642956
-0.0393139 -0.153769 0.619572
-0.0548128 -0.142128 0.617344
-0.0289923 -0.183129 0.60258
-0.0324821 -0.202367 0.610921
-0.0450072 -0.146111 0.647776
-0.0888964 -0.0899594 0.631022
-0.0428878 -0.125327 0.651748
-0.0360494 -0.229109 0.599476
-0.0794796 -0.161089 0.60057
-0.0328188 -0.232019 0.652462
-0.0327271 -0.241713 0.636544
-0.0479852 -0.216391 0.601261
-0.0635007 -0.0790292 0.651806
-0.0538991 -0.116068 0.664843
-0.047152 -0.179215 0.593961
-0.0451864 -0.180529 0.573994
-0.0377256 -0.216309 0.64296
-0.0564748 -0.110896 0.643868
-0.0508752 -0.13173 0.633539
-0.055506 -0.0989515 0.627091
-0.0431991 -0.221812 0.6241
-0.0304913 -0.235026 0.617298
-0.0371115 -0.199729 0.631564
-0.0436595 -0.191529 0.648243
-0.0385423 -0.179735 0.626506
-0.0640857 -0.100343 0.657406
-0.0678709 -0.252822 0.618881
-0.0746634 -0.0922792 0.67617
-0.0539843 -0.161251 0.655476
-0.0382648 -0.163229 0.63558
-0.0693228 -0.125391 0.666863
