ply
    format ascii 1.0           
    element vertex 45
    property double x           
    property double y           
    property double z           
    end_header
-0.113243 -0.199277 0.961542
-0.108694 -0.431947 0.837551
-0.0770229 -0.195853 0.932417
-0.123672 -0.341563 0.886014
-0.0839938 -0.237006 0.913782
-0.0869872 -0.174334 0.961557
-0.0599238 -0.295564 0.897919
-0.109508 -0.471619 0.848133
-0.0949995 -0.39343 0.830325
-0.0987999 -0.294923 0.908938
-0.0480401 -0.173212 0.950757
-0.137466 -0.458147 0.880425
-0.125181 -0.326954 0.927334
-0.0461475 -0.248422 0.921521
-0.115822 -0.368125 0.854534
-0.0941896 -0.14947 0.981953
-0.0582681 -0.409468 0.840251
-0.0550101 -0.36288 0.887594
-0.145104 -0.487461 0.858954
-0.0173483 -0.380102 0.89029
-0.0885455 -0.349929 0.87371
0.00497708 -0.446696 0.874781
-0.00500999 -0.362082 0.922983
-0.0210064 -0.414678 0.870342
-0.0801745 -0.386269 0.867587
-0.0300008 -0.314416 0.919828
-0.0337249 -0.45095 0.863713
-0.115138 -0.262959 0.945854
-0.0843485 -0.336485 0.906705
-0.0213202 -0.275532 0.940382
-0.0435767 -0.150496 0.998937
-0.0747604 -0.449732 0.856467
0.00378197 -0.42292 0.90347
-0.0454786 -0.357182 0.927934
-0.0393669 -0.206499 0.930373
-0.137068 -0.388541 0.831457
-0.0430892 -0.236218 0.956899
-0.0279344 -0.346632 0.967075
-0.0257752 -0.201762 0.966392
-0.00452539 -0.40105 0.92994
-0.0203482 -0.308287 0.960895
-0.0502353 -0.495141 0.921159
-0.0963061 -0.512647 0.925628
-0.0572468 -0.478032 0.884569
-0.0303572 -0.278303 0.979954
