ply
    format ascii 1.0           
    element vertex 61
    property double x           
    property double y           
    property double z           
    end_header
-0.0763216 -0.168969 0.668503
-0.09536 -0.154738 0.675302
-0.0970798 -0.216104 0.655962
-0.0897938 -0.183474 0.672195
-0.105878 -0.171396 0.672163
-0.0572398 -0.2508 0.616507
-0.0754801 -0.253035 0.625156
-0.100827 -0.235589 0.658123
-0.0784506 -0.206587 0.655767
-0.10223 -0.254728 0.660458
-0.0721368 -0.192142 0.667929
-0.0865108 -0.139413 0.684299
-0.0734339 -0.285256 0.629175
-0.106757 -0.193906 0.677957
-0.0932469 -0.200975 0.666741
-0.0627466 -0.269639 0.622969
-0.0631284 -0.218281 0.661259
-0.0648307 -0.239413 0.628126
-0.0479661 -0.242978 0.636026
-0.0799932 -0.22579 0.654593
-0.0643188 -0.172753 0.683153
-0.0405919 -0.296048 0.644226
-0.0535311 -0.28451 0.633798
-0.079082 -0.30079 0.635828
-0.0441783 -0.264549 0.623169
-0.0380184 -0.257473 0.638487
-0.0600326 -0.191343 0.682863
-0.0518657 -0.24031 0.669002
-0.0642093 -0.209601 0.677521
-0.0602721 -0.300586 0.631658
-0.0757343 -0.156207 0.710839
-0.0530073 -0.230143 0.685237
-0.0792426 -0.162363 0.685506
-0.0377291 -0.274903 0.637106
-0.0797919 -0.137517 0.702644
-0.0458165 -0.25148 0.686732
-0.0620649 -0.221756 0.701403
-0.0341282 -0.267086 0.654644
-0.0396736 -0.289923 0.664012
-0.0472609 -0.25076 0.652976
-0.0560114 -0.241537 0.701769
-0.0633113 -0.201922 0.69879
-0.0630505 -0.314236 0.644953
-0.0651876 -0.313896 0.715174
-0.084726 -0.335045 0.685013
-0.0571392 -0.314752 0.683351
-0.0540947 -0.268505 0.687889
-0.0679598 -0.168533 0.699743
-0.0610977 -0.306523 0.700037
-0.0758501 -0.182659 0.709755
-0.0631212 -0.287898 0.696999
-0.0688749 -0.328124 0.713801
-0.0502761 -0.281164 0.67537
-0.0486534 -0.264083 0.666771
-0.0709163 -0.324589 0.694467
-0.0864898 -0.329092 0.669101
-0.0895722 -0.19765 0.716095
-0.059488 -0.298717 0.673595
-0.0707893 -0.235571 0.713579
-0.0927886 -0.296799 0.721351
-0.063148 -0.259068 0.703344
