ply
    format ascii 1.0           
    element vertex 42
    property double x           
    property double y           
    property double z           
    end_header
-0.0826376 -0.235192 4.74335
-0.432931 -1.07747 4.07035
-0.124609 -0.042971 4.69283
-0.394089 -0.922941 4.43698
-0.210363 -1.26317 4.59382
-0.267061 -0.85569 4.72236
-0.423438 -0.77659 4.2234
-0.335719 -1.0947 4.47667
-0.168097 -1.23036 3.83459
-0.355939 -0.638102 4.36477
-0.320615 -0.7503 4.55121
-0.301313 -1.17713 3.95433
-0.20157 -1.009 3.8244
-0.355788 -0.976949 3.9325
-0.129014 -1.31533 4.40032
-0.0796741 -0.810539 3.99041
-0.176787 -0.40982 4.62709
-0.327064 -0.529435 4.67322
-0.31759 -0.923877 4.13747
-0.223327 -0.771389 4.13534
-0.0903585 -1.47858 4.28593
0.0397531 -0.255805 4.57743
-0.0385629 -0.374158 4.40208
-0.213573 -0.501865 4.39147
-0.222889 -1.33747 4.16193
0.086737 -1.15282 3.98811
-0.220653 -0.586666 4.20714
-0.0338145 -0.537518 4.27581
0.0982277 -0.96202 4.03436
0.374629 -1.2092 4.18503
0.0827408 -1.43962 4.0719
-0.049577 -1.31806 3.99593
0.199463 -1.1183 4.18093
-0.346263 -0.98776 3.97537
-0.132233 -0.0255574 4.67068
-0.104336 -1.08728 3.9536
0.144005 -0.582572 4.71031
-0.402642 -0.781767 4.245
0.0140447 -0.231114 4.49812
0.222135 -1.29189 4.04562
0.272647 -1.11019 4.37656
0.104236 -0.76423 4.11555
