ply
    format ascii 1.0           
    element vertex 50
    property double x           
    property double y           
    property double z           
    end_header
-0.0564275 -0.2568 0.673475
-0.0235306 -0.101963 0.735882
-0.0397586 -0.191989 0.698362
-0.0112956 -0.117187 0.731381
-0.0205993 -0.185878 0.706677
-0.0191516 -0.275459 0.673764
-0.0164552 -0.161484 0.722836
-0.00830521 -0.212427 0.700152
-0.0390231 -0.237377 0.684873
-0.0337694 -0.258533 0.676188
-0.0194652 -0.138124 0.724868
-0.0452745 -0.219531 0.693988
-0.0425427 -0.275626 0.667597
-0.0309898 -0.124973 0.734555
-0.0396912 -0.176422 0.713992
-0.0189909 -0.24743 0.684815
-0.0291469 -0.210894 0.70325
-0.0380582 -0.158394 0.723726
-0.0388409 -0.110205 0.741291
-0.00761651 -0.265485 0.688857
-0.00247216 -0.168887 0.738191
-0.0583236 -0.243465 0.688744
-0.0231656 -0.235143 0.700464
-0.0642392 -0.274989 0.674547
-0.0129114 -0.182106 0.725622
-0.0537364 -0.290726 0.677264
0.00115298 -0.119309 0.749105
-0.00908688 -0.103963 0.747366
-0.00316455 -0.137526 0.739062
-0.00190482 -0.155106 0.753949
-0.0122031 -0.253197 0.705613
-0.00927133 -0.202064 0.718824
-0.00724755 -0.269649 0.718284
-0.0196971 -0.279574 0.701715
-0.000474303 -0.136325 0.762699
-0.010462 -0.223387 0.718321
-0.0180981 -0.259153 0.736532
-0.0160052 -0.206105 0.738968
-0.0232972 -0.24427 0.72086
-0.0241739 -0.19484 0.753864
-0.0200718 -0.280116 0.733107
-0.0359103 -0.284549 0.719329
-0.0223103 -0.104961 0.736176
-0.0245298 -0.226822 0.730392
-0.0096963 -0.114652 0.763587
-0.000163845 -0.136061 0.7641
-0.0126322 -0.185448 0.742747
-0.035996 -0.20963 0.746838
-0.0236966 -0.174421 0.750468
-0.0412685 -0.271252 0.739464
