ply
    format ascii 1.0           
    element vertex 60
    property double x           
    property double y           
    property double z           
    end_header
-0.0342789 -0.121397 1.11316
-0.133006 -0.110626 1.1072
-0.0676566 -0.0121222 1.17608
-0.108163 -0.150091 1.10442
-0.0109174 -0.0528661 1.14675
-0.0514932 -0.0436306 1.16373
-0.123575 -0.0567656 1.16967
0.0126931 -0.0870742 1.13901
-0.0251239 -0.158203 1.10401
0.052205 -0.0581577 1.16402
-0.151682 -0.149272 1.11848
-0.0196428 -0.0149775 1.16479
-0.15114 -0.0579744 1.20262
-0.0876375 -0.115284 1.11349
-0.0131611 0.0812644 1.27655
-0.121021 -0.0892942 1.13881
-0.152156 -0.0898686 1.17481
-0.114905 -0.0382748 1.20823
-0.0461164 0.0662199 1.26153
-0.082281 -0.0937946 1.14859
-0.0608834 -0.15375 1.12211
-0.0379684 -0.0814069 1.15737
0.0426813 -0.127472 1.16695
-0.0354216 0.0181056 1.18325
0.00413709 -0.136878 1.13213
0.0240828 0.220845 1.36209
0.00829917 0.156624 1.31339
-0.0167742 0.236384 1.35542
-0.00240222 0.0327664 1.25221
-0.0814856 -0.0699953 1.17671
0.0203732 -0.0365774 1.17452
0.0417113 0.0565987 1.31642
0.021211 0.114784 1.28026
0.027022 0.018067 1.30302
0.0444692 -0.0878577 1.1703
-0.00297401 -0.0103661 1.19879
-0.0228224 -0.160466 1.10884
0.0435673 -0.0569572 1.14806
0.00640625 0.053154 1.29314
0.00942125 -0.177068 1.21465
0.0638839 -0.057344 1.18645
-0.00970407 -0.179667 1.13454
-0.0163378 0.122496 1.29539
-0.0446247 0.0889792 1.29312
0.0359935 -0.12313 1.15338
0.046419 -0.134918 1.19236
-0.108401 -0.164565 1.14233
0.0265978 0.114342 1.32435
0.0092361 -0.146487 1.1768
0.0246414 -0.0153876 1.24636
0.0512648 -0.0320031 1.27444
-0.008849 -0.181159 1.17213
0.0387036 0.0597767 1.32323
0.0266888 0.220478 1.3605
0.0506376 -0.0995651 1.21595
-0.00642943 0.192363 1.37454
-0.00575684 -0.0104788 1.2082
-0.00604241 -0.205659 1.22306
-0.0358557 0.0125596 1.19289
0.0298219 -0.150191 1.29288
