ply
    format ascii 1.0           
    element vertex 59
    property double x           
    property double y           
    property double z           
    end_header
-0.0982347 -0.21563 0.73333
-0.0751312 -0.284046 0.671648
-0.0900959 -0.122646 0.759565
-0.0891427 -0.0322103 0.792649
-0.114971 -0.0488532 0.783644
-0.0976398 -0.323632 0.646295
-0.102893 -0.302262 0.675575
-0.0243747 -0.233842 0.679106
-0.0680672 -0.193222 0.722458
-0.048625 -0.238606 0.694587
-0.118249 -0.329418 0.665199
-0.0881183 -0.25916 0.701148
-0.119028 -0.136403 0.760717
-0.0811153 -0.214943 0.708526
-0.0324477 -0.241224 0.649324
-0.0995933 -0.0935405 0.775576
-0.0769041 -0.0945829 0.754538
-0.1291 -0.29007 0.701833
-0.0547101 -0.269905 0.651734
-0.109034 -0.252591 0.719889
-0.0336769 -0.20679 0.683459
-0.0659691 -0.149126 0.719458
-0.0908517 -0.150598 0.742819
-0.0661347 -0.258987 0.683223
-0.0847262 -0.297192 0.64797
-0.087281 -0.238702 0.714335
-0.0789315 -0.170886 0.729146
-0.0424099 -0.252923 0.670773
-0.100026 -0.184902 0.731861
-0.0745415 -0.156453 0.656259
-0.149873 -0.271151 0.707123
-0.130907 -0.313303 0.683556
-0.123533 -0.231388 0.729855
-0.126458 -0.107782 0.767196
-0.109874 -0.269822 0.690384
-0.0585899 -0.214994 0.689236
-0.15892 -0.292555 0.691172
-0.128783 -0.254785 0.699922
-0.0720975 -0.235813 0.691943
-0.158341 -0.238652 0.696189
-0.120195 -0.16066 0.738787
-0.156353 -0.308595 0.667772
-0.0688337 -0.202841 0.691995
-0.140002 -0.180819 0.705802
-0.122869 -0.0745827 0.771006
-0.0747067 -0.129147 0.737158
-0.140506 -0.321579 0.646394
-0.170478 -0.266564 0.687883
-0.14048 -0.150763 0.718985
-0.137398 -0.12252 0.738907
-0.119323 -0.17946 0.714737
-0.0893872 -0.0327517 0.79232
-0.143362 -0.20037 0.69378
-0.132502 -0.225107 0.705645
-0.166614 -0.282108 0.66579
-0.132179 -0.0954146 0.744288
-0.141258 -0.172523 0.698278
-0.150136 -0.185698 0.672403
-0.144042 -0.302869 0.621337
