ply
    format ascii 1.0           
    element vertex 57
    property double x           
    property double y           
    property double z           
    end_header
0.110865 0.225559 1.29199
0.133359 0.0724569 1.18553
0.0598315 -0.23153 0.993815
0.0315769 -0.129259 0.990969
0.118345 -0.229339 0.989674
0.0899283 0.0462132 1.1766
0.0578357 -0.172206 0.98991
0.110682 -0.0506048 1.07925
0.22632 -0.224026 1.02995
0.196524 -0.31123 0.983421
0.172079 -0.259844 0.996114
0.0822666 -0.128557 1.00733
0.0112099 -0.182516 1.00097
0.176276 -0.079594 1.07684
0.152674 -0.167721 1.02483
0.135277 0.0146856 1.15499
0.0301289 -0.0975469 1.03507
0.19552 -0.147561 1.04831
0.145298 -0.320779 0.97431
0.124261 -0.103699 1.07137
0.182228 0.0375866 1.19422
0.145651 0.120578 1.2253
0.104391 -0.179825 1.00763
0.111915 -0.2809 0.993216
0.222351 -0.275684 1.01041
0.154163 -0.126982 1.04496
0.213604 -0.117971 1.08774
0.181246 0.0766068 1.23695
0.174679 -0.0209265 1.17569
0.245965 -0.208388 1.07685
0.176833 -0.208782 1.04132
0.252482 -0.258013 1.06687
0.109148 -0.144442 1.03724
0.0463249 -0.263764 1.03021
0.234699 -0.306963 1.05359
0.145236 0.17755 1.3016
0.223238 -0.192102 1.13745
0.154953 -0.0460292 1.12485
0.17494 0.0112013 1.24744
0.19464 -0.342468 1.03159
0.168813 -0.0457569 1.22713
0.158029 0.122624 1.28024
0.155057 -0.0743735 1.16342
0.199722 -0.149607 1.1164
0.246043 -0.240937 1.11658
0.166735 -0.10198 1.20575
0.185232 -0.141597 1.17244
0.221479 -0.284708 1.10464
0.1066 0.226877 1.29495
0.155081 0.054708 1.27752
0.15993 -0.357198 1.07292
0.151464 -0.158518 1.21571
0.201976 -0.320845 1.08014
0.0689836 -0.281883 1.17275
0.154989 -0.322169 1.11363
0.178331 -0.341601 1.02764
0.195764 -0.243022 1.14887
