ply
    format ascii 1.0           
    element vertex 55
    property double x           
    property double y           
    property double z           
    end_header
-0.599191 -1.03449 9.25927
-1.38217 -2.81249 8.41705
-0.558398 -2.69362 7.89427
-1.0162 -2.38758 8.30994
-0.787836 -1.81543 8.6814
-1.1467 -2.75183 8.30647
-0.742061 -2.83362 8.03292
-0.66167 -2.5353 8.06373
-0.986519 -3.23532 8.12325
-1.25641 -2.96498 8.2373
-0.684167 -1.4564 8.85136
-0.65247 -2.0043 8.4198
-0.618455 -1.20852 8.88508
-0.792196 -2.16106 8.32584
-0.938175 -2.61298 8.2462
-0.368815 -1.76744 8.59215
-0.574235 -1.68577 8.71805
-0.999888 -2.97654 8.21682
-0.479454 -1.3457 8.71622
-0.606953 -2.32707 8.22805
-0.3796 -2.01324 8.41761
-0.4108 -2.48761 8.04326
-1.40637 -3.05929 8.44389
-0.335641 -2.79102 7.99724
-0.27103 -3.09668 8.32638
-0.757017 -3.0256 8.216
-1.15588 -3.16741 8.32162
-0.910873 -2.18601 8.5674
-0.563494 -1.93055 8.5997
-0.738838 -2.0563 8.66796
-0.742515 -1.71379 8.88795
-0.354619 -1.59641 8.7429
-1.24152 -2.72943 8.54296
-0.503947 -2.26705 8.45844
-0.257665 -2.63481 8.16504
-0.273906 -2.18267 8.58638
-0.334959 -0.721651 9.17609
-0.514589 -0.766808 9.04158
-0.216865 -1.96661 8.68646
-0.0848263 -3.07027 8.47839
-0.800625 -2.38663 8.38793
-0.3127 -3.30428 8.56043
-0.111635 -2.83934 8.60855
-0.325191 -2.36355 8.7403
-0.373947 -2.55433 8.60474
-0.255295 -2.87816 8.40324
-0.0514239 -3.051 8.77317
-0.397952 -1.30594 8.97643
-0.418627 -2.51024 8.32337
-0.371729 -1.45394 9.18347
-0.346934 -1.75975 9.07706
-0.355363 -1.55624 8.93727
-0.042064 -3.07639 8.75177
-0.294616 -1.99102 9.0037
-0.380173 -2.14966 8.84118
