ply
    format ascii 1.0           
    element vertex 58
    property double x           
    property double y           
    property double z           
    end_header
-0.0605833 -0.212899 0.747754
-0.0199787 0.235365 0.884219
-0.0830842 -0.10833 0.756015
-0.0518937 -0.0665054 0.731609
-0.0114517 -0.100202 0.690643
0.0661163 -0.168493 0.765984
0.0113295 -0.0723113 0.66807
0.0273641 -0.0343375 0.694602
-0.0315903 0.00509295 0.742849
-0.0535506 -0.182276 0.725114
-0.0105318 -0.0527537 0.69661
-0.0969298 -0.148833 0.757613
-0.0666096 -0.0322074 0.747739
0.0155069 0.0453973 0.754916
-0.0228331 -0.136327 0.727584
-0.0407767 0.0639119 0.816024
-0.015273 0.14276 0.820239
0.013201 0.0827552 0.783937
-0.0579334 -0.141017 0.746041
0.0680042 -0.13564 0.726878
-0.00149484 -0.0158872 0.72078
-0.0283564 0.0355796 0.765455
-0.111419 -0.120042 0.78149
-0.0313707 0.121202 0.848435
0.0474738 -0.0812154 0.683719
0.100364 -0.129998 0.747429
0.0487871 0.0580354 0.787304
0.0356679 0.138728 0.878641
0.0380134 -0.123616 0.738451
0.0441229 0.0229424 0.773234
0.0209042 0.111256 0.810463
0.056864 -0.0538658 0.710924
0.00962082 4.6652e-05 0.759824
0.0501248 -0.00784543 0.797209
0.096737 -0.0933347 0.77084
0.0124924 0.156456 0.850933
0.0724094 -0.100286 0.738981
0.0112787 0.25199 0.892318
0.0482031 -0.0384116 0.77354
-0.00512318 0.238631 0.920407
0.112954 -0.127203 0.78748
0.0504259 0.0507202 0.844819
0.0410406 0.0896245 0.858401
0.0356758 0.0804739 0.821763
0.0408294 -0.0920716 0.71983
0.0216761 0.120779 0.840936
0.0439568 -0.0441018 0.815121
-0.00068503 0.195622 0.918048
0.0371254 0.0259554 0.815972
0.0341211 0.0161269 0.855129
0.0907041 -0.102692 0.811372
0.0366625 -0.0106127 0.832692
0.00440496 -0.014756 0.719873
0.084439 -0.145272 0.808158
0.0426735 -0.156579 0.798225
0.0283122 -0.0420638 0.737705
0.0347903 -0.108389 0.841414
-0.0238886 0.00792193 0.740952
