ply
    format ascii 1.0           
    element vertex 56
    property double x           
    property double y           
    property double z           
    end_header
0.00164542 -0.245147 0.621298
0.0409005 -0.27726 0.606765
-0.00474682 -0.308928 0.604445
0.0402705 -0.178084 0.672999
-0.0330992 -0.26921 0.612994
0.0274518 -0.164882 0.681056
-0.0199602 -0.317437 0.606628
0.013316 -0.206326 0.657808
0.0310944 -0.263156 0.615555
0.020075 -0.181538 0.674782
0.00483913 -0.263375 0.61863
0.0197218 -0.23261 0.630983
0.0220329 -0.28371 0.608789
0.045051 -0.210718 0.665967
-0.0121816 -0.26909 0.61295
-0.0216832 -0.283596 0.604799
-0.0401975 -0.286889 0.612592
0.0284478 -0.200672 0.668214
0.0323 -0.248469 0.630008
-0.00413463 -0.289358 0.612223
0.0279373 -0.223368 0.643517
0.0491023 -0.26444 0.623124
0.0462923 -0.229177 0.652168
0.0106908 -0.297437 0.620156
-0.0213965 -0.30027 0.612814
0.0437369 -0.198244 0.677401
0.0109928 -0.199267 0.673385
0.0288169 -0.219325 0.659137
0.0507786 -0.288373 0.620854
0.0381832 -0.311563 0.643464
-0.0279471 -0.265612 0.629718
0.0318357 -0.245372 0.649668
0.0525828 -0.277875 0.635718
0.0483328 -0.22776 0.676287
0.0452891 -0.133339 0.71147
0.0363777 -0.134295 0.697242
0.0447491 -0.24292 0.666372
0.0182572 -0.151553 0.709249
0.0460029 -0.312778 0.660479
0.0330864 -0.255217 0.674256
0.0437022 -0.294817 0.669785
0.0312513 -0.268649 0.66197
0.0404996 -0.295582 0.650627
0.0395126 -0.312408 0.680339
0.0380867 -0.175434 0.693509
0.0307421 -0.186229 0.707582
0.0243607 -0.32663 0.656722
0.0382522 -0.265346 0.641498
0.038688 -0.194605 0.69105
0.0325368 -0.227621 0.695165
0.0467512 -0.313043 0.660147
0.0311523 -0.209298 0.699416
0.0405553 -0.213999 0.684717
0.0297454 -0.298023 0.683891
0.0378897 -0.291918 0.632681
0.0183447 -0.267621 0.676507
