ply
    format ascii 1.0           
    element vertex 60
    property double x           
    property double y           
    property double z           
    end_header
-0.038795 -0.179779 1.08548
-0.0578101 -0.313218 0.976265
-0.10317 -0.348301 0.96656
-0.0347865 -0.294654 0.989475
-0.00411088 -0.355852 0.960699
-0.0636405 -0.400979 0.958728
-0.026662 -0.199077 1.05081
-0.00179552 -0.261559 1.03527
-0.0435827 -0.257739 1.02229
-0.0176298 -0.336501 0.970825
-0.0757787 -0.347272 0.967693
-0.0873625 -0.367528 0.956917
-0.0524164 -0.337831 0.973912
-0.0351527 -0.222349 1.04244
-0.0634012 -0.37375 0.966792
-0.00935695 -0.216413 1.04228
-0.0295409 -0.365914 0.96364
-0.0239698 -0.281031 1.00533
-0.0838962 -0.413027 0.962481
0.000762269 -0.287204 1.01818
-0.0240321 -0.248672 1.03678
-0.0190232 -0.155538 1.07313
-0.111836 -0.37291 0.96752
0.00626038 -0.33687 0.981783
-0.0168333 -0.315543 0.989324
0.00930659 -0.369492 0.980389
-0.00447743 -0.243391 1.05005
-0.043587 -0.383674 0.979059
-0.0859485 -0.389615 0.968471
-0.0458031 -0.247253 1.04128
-0.0956709 -0.341747 0.986897
0.0112515 -0.354225 0.999894
-0.00542698 -0.154186 1.09052
-0.000924621 -0.3052 1.03827
-0.0217913 -0.273916 1.02461
-0.0462243 -0.210924 1.05769
-0.0182511 -0.310252 1.01584
0.00415187 -0.399624 1.0353
-0.02748 -0.420363 1.03497
0.00319929 -0.283852 1.05074
-0.0160038 -0.321876 1.04918
-0.00438084 -0.397668 1.06236
0.000448444 -0.374946 1.04641
-0.00584289 -0.399979 1.01222
-0.040587 -0.316028 0.992032
-0.0136208 -0.212485 1.06998
-0.00364878 -0.377347 1.02078
-0.00559958 -0.152611 1.09148
-0.0173698 -0.340552 1.0342
-0.0247524 -0.419164 1.031
-0.00776134 -0.337358 1.00657
-0.0241806 -0.225972 1.08973
-0.0214949 -0.258011 1.08035
-0.0132454 -0.238212 1.0678
-0.023198 -0.29798 1.05652
-0.0198118 -0.282495 1.07568
-0.0184677 -0.378617 1.06556
-0.00803477 -0.264645 1.06111
-0.00711138 -0.373732 0.996531
-0.0352188 -0.338614 1.05322
