ply
    format ascii 1.0           
    element vertex 49
    property double x           
    property double y           
    property double z           
    end_header
-0.541764 1.27132 5.79542
-0.929627 -0.350395 5.21462
-0.882033 0.242685 5.48632
-0.685949 0.244775 5.27608
-0.533439 -0.2672 5.02365
-0.413542 1.07033 5.59384
-0.868548 0.432858 5.66234
-0.40385 -0.625943 4.82161
-0.53279 1.46725 5.96179
-0.564839 0.857688 5.63168
-0.259492 -0.345038 4.92994
-0.635082 1.03559 5.79
-0.498463 0.215518 5.08549
-0.681083 0.472704 5.46732
-0.715172 0.666575 5.62776
-0.531858 -0.00565601 5.20175
-0.951662 -0.110384 5.36453
-0.303748 1.55269 5.87838
-0.545023 -0.529451 5.04897
-0.288773 0.0406905 5.01948
-0.259735 0.347893 5.15728
-0.00352205 -0.379189 4.86312
-0.060503 -0.142276 4.99392
-0.512108 0.438494 5.26512
-0.471511 0.648107 5.52389
-0.192403 0.703697 5.51445
-0.296729 1.30864 5.81674
0.118295 -0.572057 4.99985
-0.123251 -0.695054 4.95293
0.200066 -0.119855 5.14886
-0.793208 0.00906084 5.49488
-0.0816732 0.125989 5.18032
-0.102186 1.46279 5.95559
-0.309458 0.504053 5.39143
-0.00057619 1.0533 5.89538
0.157578 -0.298135 5.00867
0.264689 -0.431684 5.17748
-0.127175 0.946688 5.67412
-0.101087 0.440344 5.56787
-0.0523535 0.795003 5.86937
-0.0829961 0.620246 5.75683
-0.000502573 1.22833 6.12156
-0.190002 1.18507 5.63733
0.189334 -0.208873 5.40084
0.0764479 -0.694486 5.255
-0.106073 0.245049 5.40145
-0.109228 0.338488 5.74143
-0.171791 0.339784 5.98603
-0.204013 1.58067 6.26858
