ply
    format ascii 1.0           
    element vertex 54
    property double x           
    property double y           
    property double z           
    end_header
-0.0332594 -0.262234 0.785063
-0.0544608 -0.337261 0.745775
-0.0310735 -0.338933 0.757229
-0.0604884 -0.271897 0.787958
0.00645391 -0.353076 0.765396
-0.0692752 -0.289971 0.7797
-0.0251094 -0.22671 0.824287
-0.0502235 -0.349342 0.72487
-0.0419751 -0.229079 0.810553
-0.00973764 -0.336458 0.76333
-0.0444956 -0.370725 0.729059
-0.0682913 -0.311803 0.776699
-0.0484379 -0.319491 0.771739
-0.0355804 -0.210869 0.834742
-0.0336986 -0.349436 0.738804
-0.0280301 -0.300856 0.769376
-0.0166669 -0.294102 0.787239
-0.0280737 -0.324527 0.770999
-0.0624888 -0.239672 0.815595
-0.0430242 -0.249121 0.812087
-0.0171875 -0.274238 0.799702
-0.068943 -0.372478 0.737509
0.00321962 -0.338562 0.780722
-0.0112872 -0.315048 0.781004
-0.0388582 -0.285174 0.790358
-0.0181884 -0.355814 0.756511
-0.00670235 -0.371597 0.76552
-0.0311814 -0.37067 0.748649
-0.0232916 -0.385716 0.769444
-0.0201153 -0.242535 0.84103
0.0140292 -0.354343 0.78779
0.00795016 -0.372104 0.781588
-0.015224 -0.269057 0.822852
-0.0702972 -0.333502 0.779084
-0.00875899 -0.335407 0.812735
-0.0207324 -0.397342 0.790924
-0.0106744 -0.312101 0.802231
-0.0211629 -0.221958 0.847127
-0.0232779 -0.249483 0.821075
-0.0256941 -0.254568 0.803533
-0.051027 -0.383482 0.750585
-0.0149692 -0.294218 0.812431
-0.0544231 -0.350019 0.727931
-0.0157032 -0.341858 0.82586
-0.00683917 -0.334012 0.805793
-0.0178914 -0.317421 0.823838
-0.00251054 -0.363437 0.801564
-0.0217542 -0.371053 0.820507
-0.0252174 -0.291378 0.83241
-0.0120514 -0.387832 0.808784
-0.0292126 -0.395287 0.824097
-0.0347001 -0.310731 0.83683
-0.0412418 -0.407197 0.801798
-0.0360032 -0.250938 0.85062
