ply
    format ascii 1.0           
    element vertex 49
    property double x           
    property double y           
    property double z           
    end_header
0.300428 -0.60429 2.98281
0.231891 -0.245275 2.99908
0.311152 -0.446173 3.10727
0.301149 -0.662652 3.08876
0.413876 -0.853352 2.90117
0.290678 -0.554263 3.10025
0.317184 -0.888469 3.03351
0.39092 -0.960817 2.86403
0.331131 -1.00881 3.02474
0.242414 -0.158662 3.08565
0.303251 -1.02073 2.90984
0.240892 -0.62717 3.18935
0.270247 -0.2795 3.12344
0.194483 -1.06141 2.93306
0.215209 -0.189198 3.2015
0.387764 -0.886833 2.79745
0.24793 -0.788441 3.07824
0.267188 -0.723929 2.98327
0.250712 -0.380983 3.18886
0.15139 -0.750394 3.18997
0.187995 -0.862155 3.14475
0.216821 -0.386304 2.94552
0.289874 -0.992643 2.80814
0.0547126 -0.940851 3.13929
0.213505 -0.497635 3.18307
0.275331 -0.551357 2.90075
0.326802 -0.822728 2.95401
0.11769 -1.03103 3.02713
0.206095 -0.628688 2.88129
0.139973 -0.385382 3.23444
-0.0262339 -1.02295 3.0863
0.21813 -0.963031 3.06791
-0.0514327 -0.926131 3.16393
0.0968851 -0.191465 3.19687
0.107203 -0.616614 3.18437
0.0685709 -0.826142 3.15958
0.00380871 -1.03471 2.97114
0.0587488 -0.434475 3.16104
0.0371927 -0.71292 3.13827
-0.0697689 -0.82749 3.12474
-0.114107 -0.936852 3.08453
0.142864 -0.0764227 3.18856
0.0522818 -0.306077 3.18017
-0.0599823 -0.700226 3.05507
0.254815 -0.365432 3.18037
0.0361527 -0.43529 3.04872
-0.07774 -0.973072 2.98985
0.0186204 -0.528914 2.99555
0.025193 -0.296007 3.05738
