ply
    format ascii 1.0           
    element vertex 39
    property double x           
    property double y           
    property double z           
    end_header
0.284111 -0.0886455 0.523206
0.306475 -0.101556 0.509943
0.307743 -0.0611176 0.535299
0.32232 -0.0535251 0.535783
0.304 -0.035759 0.549997
0.307445 -0.0490495 0.545019
0.284484 -0.10344 0.51984
0.326721 -0.0842512 0.526233
0.31383 -0.0777846 0.530085
0.305833 -0.0885334 0.519697
0.315753 -0.0255941 0.55495
0.297524 -0.111039 0.519706
0.332137 -0.0711326 0.534782
0.318736 -0.0989878 0.521142
0.338185 -0.0994772 0.533569
0.309581 -0.11898 0.525139
0.356943 0.484102 -6.26159
0.298225 -0.0740574 0.424517
0.320787 -0.0410795 0.549527
0.324386 -0.113342 0.528216
0.329496 -0.0285482 0.561128
0.341775 -0.115299 0.537905
0.316418 -0.00625996 0.570969
0.35101 -0.100992 0.541303
0.327624 -0.0125398 0.580536
0.337913 -0.0849459 0.538553
0.333567 -0.0423247 0.567672
0.331772 -0.122129 0.540217
0.323895 0.000803552 0.583828
0.338139 -0.0755512 0.550297
0.331529 -0.0583711 0.549205
0.347113 -0.0935904 0.552905
0.331763 -0.0273982 0.57768
0.335896 -0.0832671 0.567146
0.349179 -0.109925 0.551664
0.337791 -0.118002 0.551531
0.320843 -0.065094 0.575771
0.321389 -0.0347942 0.588947
0.320688 -0.0496932 0.57838
