ply
    format ascii 1.0           
    element vertex 52
    property double x           
    property double y           
    property double z           
    end_header
0.0164737 -0.43983 1.03429
-0.00882808 -0.155458 1.16647
-0.0630832 -0.308096 1.05145
-0.0390677 -0.404804 1.01628
-0.0510699 -0.162753 1.15107
-0.0704289 -0.35913 1.03892
-0.0696152 -0.385521 1.0101
-0.0665288 -0.436661 0.979454
-0.00341653 -0.366961 1.04938
-0.0144625 -0.251496 1.08997
-0.0176373 -0.33491 1.04653
-0.039244 -0.19292 1.11614
-0.0469639 -0.238101 1.09579
-0.0479842 -0.266349 1.08058
-0.0919574 -0.328226 1.04257
-0.0389026 -0.142814 1.17041
-0.0925677 -0.411475 1.00361
-0.0504382 -0.339831 1.05511
-0.0576308 -0.407573 0.990023
-0.0760738 -0.255357 1.10507
-0.0185003 -0.431675 1.02574
-0.0211487 -0.221014 1.10754
-0.00611028 -0.281939 1.10715
-0.0696253 -0.287701 1.07731
-0.0725208 -0.208187 1.14433
0.0180046 -0.429481 1.06872
-0.0574933 -0.222236 1.12052
-0.0141321 -0.420007 1.05748
0.0184095 -0.386972 1.10085
-0.0101425 -0.2032 1.13529
0.000473315 -0.234206 1.15315
-0.0043811 -0.309006 1.13928
-0.0013617 -0.404318 1.08168
0.00576249 -0.357155 1.11646
-0.0479058 -0.392841 1.0461
0.00193297 -0.360919 1.08276
-0.0310297 -0.472343 1.05889
-0.0330754 -0.324434 1.15165
-0.0399321 -0.336114 1.11249
-0.00783537 -0.19469 1.17201
-0.014692 -0.249327 1.12351
0.00108818 -0.425457 1.11077
-0.0278395 -0.341143 1.07884
0.0118166 -0.44649 1.09575
-0.033298 -0.174658 1.18384
-0.0375447 -0.478337 1.09964
-0.0801567 -0.445743 1.00765
-0.021591 -0.280612 1.13471
-0.00158862 -0.396446 1.12871
-0.0103167 -0.454735 1.12296
-0.0452674 -0.249677 1.16184
-0.0496885 -0.164926 1.14941
