ply
    format ascii 1.0           
    element vertex 34
    property double x           
    property double y           
    property double z           
    end_header
-0.381798 1.72277 12.7828
-1.59999 -1.52182 10.8651
-1.49441 -1.21358 10.1718
-0.603115 0.795447 11.7687
-0.633873 0.154452 11.3937
-1.36039 -1.81329 10.3311
-0.74687 -1.33096 10.0372
-0.214366 0.16759 10.8868
-1.19221 -2.25705 10.961
-1.36741 -0.822531 10.5942
-1.01681 -0.168053 11.9803
-0.884582 -0.449993 11.4181
-0.665257 0.615705 12.4056
0.281319 -1.24961 10.0936
-0.274861 1.40863 13.2024
0.530575 -0.689228 10.328
0.380393 1.54955 12.4079
-0.481387 -0.406069 10.8744
0.268215 -0.11679 10.5588
-0.124648 0.594746 11.3768
-0.0200258 -0.866573 10.5827
-0.876729 -2.13667 10.4947
-0.740672 -0.875732 10.5374
0.202251 0.976134 11.7395
0.429354 0.179886 11.1288
0.572464 1.92279 12.9661
-0.241818 1.11151 12.1811
0.0782583 1.95716 12.8159
1.21851 -1.15433 10.5303
1.02861 -0.61459 10.6825
0.862918 1.26212 12.7306
-0.322082 -1.4416 10.4385
-0.0164881 2.37872 13.1443
0.623844 0.669292 12.861
