ply
    format ascii 1.0           
    element vertex 40
    property double x           
    property double y           
    property double z           
    end_header
-0.168097 -0.557746 1.39303
-0.189485 -0.453021 1.54759
-0.18031 -0.60816 1.41338
-0.213132 -0.570991 1.44784
-0.108963 -0.246383 1.66526
-0.126878 -0.381983 1.54386
-0.244737 -0.553032 1.53995
-0.127251 -0.440269 1.51804
-0.169782 -0.521242 1.42955
-0.160549 -0.486201 1.51168
-0.204336 -0.51679 1.53001
-0.108288 -0.583326 1.4173
-0.164459 -0.387975 1.58943
-0.0723509 -0.455311 1.50251
-0.0286175 -0.494822 1.50176
-0.105607 -0.499915 1.49088
-0.0110023 -0.554734 1.49866
-0.0642959 -0.330707 1.63569
-0.10848 -0.360485 1.592
-0.0772828 -0.415711 1.54044
-0.0327439 -0.600401 1.47111
-0.060122 -0.385527 1.58345
-0.120814 -0.539326 1.4536
-0.0702158 -0.552646 1.49259
0.01968 -0.607326 1.55274
-0.034752 -0.466281 1.54943
-0.0957139 -0.286838 1.6447
-0.16038 -0.645678 1.44837
0.0113328 -0.553593 1.55219
-0.0659416 -0.296664 1.68387
-0.134591 -0.299974 1.62481
-0.180176 -0.609141 1.41326
-0.100393 -0.599121 1.47157
-0.0505272 -0.361507 1.68566
-0.0223894 -0.51672 1.57029
-0.0887781 -0.406637 1.68424
-0.0753937 -0.437993 1.59459
-0.0838013 -0.394195 1.62655
-0.0886992 -0.490121 1.6378
-0.053121 -0.537004 1.61971
