ply
    format ascii 1.0           
    element vertex 46
    property double x           
    property double y           
    property double z           
    end_header
-0.235258 -0.342509 1.6433
-0.210354 -0.219937 1.60141
-0.0574247 -0.618508 1.36591
-0.182438 -0.315079 1.58322
-0.243269 -0.544505 1.5343
-0.16689 -0.411876 1.5158
-0.200452 -0.688349 1.43929
-0.15482 -0.701316 1.39261
-0.131233 -0.490539 1.504
-0.241464 -0.384383 1.58278
-0.177493 -0.266031 1.61996
-0.212964 -0.580425 1.49101
-0.210937 -0.468355 1.53565
-0.235124 -0.504987 1.57975
-0.247914 -0.423874 1.62591
-0.273754 -0.625191 1.51039
-0.272626 -0.665779 1.4816
-0.156657 -0.645144 1.42428
-0.248908 -0.449637 1.58307
-0.210246 -0.763629 1.53253
-0.19279 -0.607647 1.44633
-0.189731 -0.365559 1.56042
-0.102029 -0.614866 1.4124
-0.0957352 -0.673735 1.39056
-0.186538 -0.536799 1.51688
-0.106281 -0.741329 1.42008
-0.197274 -0.716924 1.49711
-0.135136 -0.548918 1.49439
-0.227554 -0.244697 1.65144
-0.0892524 -0.579006 1.45855
-0.0788361 -0.558325 1.5043
-0.13844 -0.598399 1.46186
-0.0473386 -0.716757 1.42746
-0.168986 -0.772604 1.53783
-0.130561 -0.464653 1.57799
-0.0941173 -0.519236 1.54186
-0.0196349 -0.662437 1.41368
-0.0440794 -0.609717 1.42168
-0.125034 -0.423725 1.61083
-0.155964 -0.323307 1.63023
-0.0579196 -0.603936 1.53548
-0.00987117 -0.725004 1.59675
-0.0358842 -0.686925 1.63383
-0.178123 -0.370844 1.65523
-0.0660649 -0.700068 1.58703
-0.158934 -0.40878 1.57133
