ply
    format ascii 1.0           
    element vertex 45
    property double x           
    property double y           
    property double z           
    end_header
-0.69494 1.07748 12.2981
-0.172014 2.55156 13.5861
-1.04917 -2.37601 10.7955
-0.934053 1.51055 13.2332
-1.60817 0.124661 11.8027
-0.0515846 3.89472 14.208
-1.78147 -0.516822 11.5592
-1.10831 0.633629 12.9059
-1.44386 -1.90842 11.1946
0.537371 3.31125 13.7863
-1.5363 -0.842412 10.9435
-1.81803 -1.18366 11.3418
-1.6593 -2.29661 11.9196
-1.30954 -2.64275 11.4344
-0.0734678 0.735642 11.919
-0.829189 -1.60891 10.9357
-1.2398 -0.236221 11.1735
-0.83969 -0.847384 10.912
0.216287 2.02311 12.8488
-0.331826 -2.30115 10.8514
0.492778 2.56265 13.372
-0.00958043 1.29993 12.2943
-0.101199 0.0417223 11.6949
0.635647 4.18992 14.3799
-0.426739 1.65309 12.7174
-0.792188 0.358633 12.1563
1.62172 -1.4759 12.1799
-0.115743 -0.570408 11.3766
0.970209 -2.00456 12.2494
-0.197549 -1.17197 11.0816
1.34134 -0.873857 12.3244
0.513452 -0.331058 11.6754
0.562547 0.269261 12.1162
0.899086 0.660986 12.637
0.60378 -1.37239 11.7748
-0.0255984 -1.85172 11.3252
0.89653 3.82072 15.0025
1.08927 -0.107081 12.5167
1.03646 2.2563 13.7664
-0.776256 -0.0849878 11.665
0.16103 -2.47095 11.5609
0.5451 1.5494 13.3302
-0.152283 3.15418 14.0579
0.658811 -0.811084 12.2402
0.971478 0.984652 13.4995
