ply
    format ascii 1.0           
    element vertex 52
    property double x           
    property double y           
    property double z           
    end_header
0.217735 0.00314989 1.01911
0.217538 0.00351392 1.02009
0.217548 0.00328172 1.01957
0.217452 0.00355608 1.02025
0.217509 0.00369832 1.02006
0.217523 0.00359423 1.02017
0.21774 0.00288172 1.01855
0.217554 0.0034328 1.01996
0.217696 0.00332329 1.01938
0.217629 0.00375406 1.01989
0.217442 0.00375281 1.02013
0.217733 0.00258444 1.0178
0.217427 0.00366237 1.02009
0.217448 0.00334613 1.01963
0.217556 0.00306277 1.01895
0.217448 0.003487 1.02016
0.217649 0.00285016 1.01826
0.217549 0.0038003 1.01996
0.21749 0.00324007 1.01941
0.217406 0.00377746 1.01989
0.217399 0.0035631 1.02018
0.217871 0.00220554 1.01715
0.217586 0.00316143 1.01929
0.21794 0.00234352 1.01751
0.217553 0.00339646 1.01963
0.217387 0.00353772 1.01991
0.217417 0.00345475 1.01977
0.217365 0.00360886 1.02004
0.217387 0.00380828 1.01846
0.217426 0.00365898 1.01857
0.217401 0.00341597 1.01942
0.21735 0.00351175 1.0197
0.217467 0.0033245 1.01879
0.21748 0.00346859 1.01987
0.217404 0.00372458 1.01981
0.217398 0.00369129 1.01943
0.217793 0.00270849 1.0168
-2.15626 3.06593 13.5107
0.217547 0.00393828 1.01836
0.217431 0.00347991 1.01879
0.218076 0.00185384 1.01597
0.217932 0.00309175 1.01627
0.217365 0.00374705 1.0201
0.21776 0.00302593 1.01773
0.218446 0.00217958 1.01572
0.217491 0.00389336 1.01935
0.217489 0.00361945 1.01896
0.218612 0.00255516 1.01301
0.21775 0.00438918 1.01696
0.218484 0.00197999 1.01381
0.21742 0.00373838 1.0181
0.21763 0.00339805 1.01761
