ply
    format ascii 1.0           
    element vertex 47
    property double x           
    property double y           
    property double z           
    end_header
-0.18423 -0.290067 2.65792
-0.443716 -0.642614 2.56125
-0.317396 -0.438153 2.59702
-0.390938 -0.558381 2.55856
-0.53434 -0.776591 2.58895
-0.277255 -0.631409 2.44067
-0.316986 -0.369672 2.65618
-0.370346 -0.661363 2.49894
-0.443967 -0.82718 2.52291
-0.271667 -0.299904 2.697
-0.377427 -0.754067 2.48121
-0.502402 -0.860338 2.62345
-0.444719 -0.736184 2.55639
-0.314557 -0.582244 2.51138
-0.399459 -0.484927 2.72218
-0.451902 -0.644947 2.72409
-0.559432 -0.798049 2.67547
-0.202016 -0.893296 2.57706
-0.284525 -0.515284 2.56749
-0.368198 -0.512042 2.62834
-0.112939 -0.827176 2.57328
-0.142147 -0.374165 2.68714
-0.145191 -0.551499 2.55074
-0.396898 -0.574393 2.72697
-0.203337 -0.586526 2.48014
-0.273439 -0.730995 2.48854
-0.197297 -0.48195 2.5906
-0.507536 -0.73287 2.67123
-0.113377 -0.643 2.51057
-0.233171 -0.412419 2.63318
-0.19392 -0.682751 2.46154
-0.0850272 -0.603772 2.59609
-0.311016 -0.799098 2.53729
-0.131849 -0.746513 2.52397
-0.287924 -0.722666 2.48184
-0.23415 -0.837297 2.59783
-0.221241 -0.772774 2.53508
-0.0427032 -0.706377 2.64243
-0.21052 -0.898799 2.56733
-0.144926 -0.493751 2.69531
-0.0455364 -0.791519 2.67272
-0.165877 -0.911041 2.63584
-0.123478 -0.578827 2.73233
-0.165077 -0.957959 2.72477
-0.129182 -0.705391 2.61274
-0.150435 -0.891396 2.80448
-0.192074 -0.332113 2.7492
