ply
    format ascii 1.0           
    element vertex 39
    property double x           
    property double y           
    property double z           
    end_header
-0.170483 -0.217546 1.2353
-0.057106 -0.212748 1.19358
-0.0506494 -0.153666 1.20625
-0.101275 -0.134569 1.22992
-0.109835 -0.256489 1.20828
-0.019282 -0.00800938 1.26914
0.0145294 -0.142035 1.18332
-0.0647236 -0.0836939 1.23591
-0.023303 0.0392228 1.30369
0.00407297 0.0841001 1.33287
-0.107634 -0.194477 1.22535
0.0606836 0.082531 1.32224
-0.0145741 -0.104603 1.21792
-0.0892334 -0.0281251 1.33104
-0.162346 -0.271142 1.26231
-0.0572341 -0.0514729 1.27959
0.076923 0.0311066 1.34953
-0.000605312 -0.061032 1.2576
0.0503135 -0.0419007 1.28271
0.0854261 -0.214922 1.25522
0.0559564 -0.113975 1.21508
0.101944 -0.150973 1.24884
0.0586533 -0.175066 1.20849
0.0267418 0.00638482 1.30358
-0.00135649 -0.195146 1.20763
0.110918 -0.121597 1.30323
0.0385223 -0.316552 1.3282
0.0865283 -0.264485 1.29144
0.0834774 -0.0902542 1.26578
0.00768964 -0.267164 1.2928
-0.0282723 -0.240799 1.24095
0.028506 -0.227106 1.25344
0.120088 -0.236786 1.35884
0.127951 -0.185454 1.33769
0.0679329 -0.0438342 1.3556
0.0195723 -0.308922 1.27952
0.0833722 -0.182218 1.30475
0.0367718 -0.29547 1.4294
0.0805368 -0.100605 1.37905
