ply
    format ascii 1.0           
    element vertex 44
    property double x           
    property double y           
    property double z           
    end_header
-2.81947 -2.48277 12.2243
-2.65417 -2.72028 11.4973
-2.64666 -1.48263 11.819
-2.59412 -1.5272 11.1916
-2.46894 -1.22937 10.5625
-2.61492 -2.13409 11.0684
-1.60364 1.02884 11.9802
-1.41816 1.1729 11.416
-2.50985 -0.868011 11.6487
-2.12748 0.0223146 11.6083
-2.0271 -0.830638 10.4426
-2.62588 -2.08575 11.6889
-1.96128 -1.4229 10.2469
-2.36388 -0.941117 11.0784
-1.92911 0.499116 11.9215
-1.48911 -0.490703 10.5192
-1.35019 -1.7226 10.1751
-2.0498 -0.445495 11.2497
-1.59718 -0.0998286 10.9996
-1.02263 0.719508 11.2791
-0.941129 -2.19327 10.2524
-2.23885 -1.79925 10.7104
-1.61526 0.331931 11.4232
-1.4303 -1.04724 10.1574
-2.00374 -2.31725 11.0026
-1.63705 -2.01345 10.617
-1.33929 -2.44335 10.8958
-0.778514 -2.82329 10.7128
-0.967639 -0.699794 10.4044
-0.459947 -1.26708 10.3193
-0.22507 -1.80868 10.3803
-0.856016 -0.0359165 11.2406
-1.29893 -2.82649 10.6263
-0.286518 -3.09472 11.0011
-0.974244 -1.41279 10.583
-0.732641 -3.57973 11.2753
-0.499838 -0.531803 11.1917
-0.678731 -0.904016 10.7352
-0.241932 -0.739176 11.6624
-0.967011 0.985086 11.8347
-0.219982 -1.28807 11.7558
-0.57492 -2.16416 10.7049
-0.49812 -2.60446 11.2093
-1.13521 -0.505841 11.0139
