ply
    format ascii 1.0           
    element vertex 56
    property double x           
    property double y           
    property double z           
    end_header
-1.33684 -2.22117 9.963
-1.20086 -1.5276 10.42
-1.26862 -2.40172 9.52621
-0.778145 -0.496053 10.7401
-1.12979 -0.900203 10.6355
-1.15981 -2.73206 9.43221
-1.06408 -1.82255 9.87799
-0.97333 -1.06858 10.4091
-1.36851 -2.50031 10.0088
-1.18024 -1.75687 10.1374
-1.00782 -1.32267 10.2498
-0.965069 -2.55886 9.2635
-0.960493 -1.55824 10.1125
-1.24555 -1.95484 10.3651
-1.31349 -2.64 9.69386
-1.05848 -2.14 9.8476
-0.57514 -1.06989 10.3912
-0.88637 -0.361928 10.9745
-0.540575 -2.07661 9.92987
-0.73704 -1.26179 10.1372
-1.04519 -3.01431 9.45835
-0.800631 -1.72699 9.8792
-0.847616 -2.80724 9.33529
-0.665126 -1.50299 10.0295
-1.00534 -2.2989 9.36656
-0.822418 -2.00901 9.99657
-0.229935 -2.49704 9.88042
-0.784217 -2.26219 9.88728
-0.775512 -3.10991 9.53652
-0.370797 -1.92957 10.1533
-0.636379 -0.734697 10.6825
-0.600612 -2.42342 9.73546
-0.286853 -2.79035 9.94508
-0.723946 -2.57583 9.49132
-0.604721 -2.85629 9.52565
-0.451126 -1.61758 10.2112
-0.600446 -1.80742 10.0447
-0.104914 -2.39061 10.1406
-1.29192 -2.93907 9.62875
-0.499175 -1.32943 10.295
-0.303278 -2.18452 10.0662
-1.1695 -0.430406 10.9747
-0.94866 -0.733812 10.4847
-1.14912 -0.927414 10.6562
-0.0421863 -2.67252 10.0787
-0.75074 -0.931359 10.5248
-0.517009 -2.71502 9.7772
-0.888608 -2.35483 9.62796
-0.522195 -2.38175 9.98565
-0.553632 -3.01187 9.76889
-0.474427 -1.29772 10.6354
-0.576371 -1.04513 10.7048
-0.444814 -1.57084 10.5225
-0.702618 -3.25151 10.3561
-0.508402 -1.79734 10.7541
-0.954602 -0.780037 10.4584
