ply
    format ascii 1.0           
    element vertex 36
    property double x           
    property double y           
    property double z           
    end_header
-0.0757646 -0.300863 1.28677
-0.165154 -0.539517 1.19617
-0.054172 -0.358782 1.20942
-0.0713931 -0.467931 1.17892
-0.0545982 -0.42867 1.18855
-0.120766 -0.449754 1.1703
-0.0695651 -0.331011 1.23701
-0.131891 -0.523846 1.1716
-0.0410029 -0.499596 1.17935
-0.0802511 -0.395961 1.20824
-0.117545 -0.563715 1.18378
-0.094924 -0.360665 1.23091
-0.0327737 -0.299282 1.29182
-0.132614 -0.427715 1.22328
-0.136226 -0.481439 1.17276
-0.0994 -0.433902 1.19735
-0.0966469 -0.499108 1.17475
-0.120732 -0.394163 1.23351
-0.0276353 -0.389935 1.23293
-0.0255142 -0.428815 1.22023
-0.0313897 -0.466861 1.20495
-0.0388088 -0.349486 1.25594
-0.0118221 -0.378267 1.26855
-0.0416562 -0.531933 1.21232
-0.0167328 -0.420991 1.27455
-0.0274841 -0.348283 1.29879
-0.0193936 -0.4613 1.24715
-0.0366582 -0.521105 1.2548
-0.0448006 -0.56288 1.24807
-0.0523626 -0.48883 1.27372
-0.0292721 -0.392288 1.30347
-0.0366227 -0.432466 1.30068
-0.115435 -0.574205 1.23813
-0.0188471 -0.419201 1.27358
-0.0589398 -0.322299 1.31827
-0.0630391 -0.52572 1.28336
