ply
    format ascii 1.0           
    element vertex 34
    property double x           
    property double y           
    property double z           
    end_header
0.0312168 -0.24031 0.922661
-0.0119872 -0.214727 0.932376
0.0810839 -0.151461 0.916402
0.0378872 -0.131614 0.906248
0.124888 0.0105081 1.02089
0.103086 -0.0495046 0.944223
0.0772454 -0.0817652 0.942994
0.105946 -0.182277 0.917894
0.0864109 0.0125821 1.01744
0.021113 -0.201063 0.909657
0.0902058 -0.0212169 0.969536
0.0213193 -0.161325 0.910046
0.0652441 -0.0482815 0.962165
0.0400165 -0.0774278 0.968893
0.0979693 -0.115695 0.926441
0.0579494 -0.115724 0.933578
0.0261837 -0.108566 0.957366
0.0562056 -0.178838 0.913282
0.0987008 -0.236656 0.983605
0.123086 -0.0778353 0.967184
0.12341 -0.114539 0.95564
0.116224 -0.151172 0.94172
0.130485 -0.105365 1.01202
0.139412 -0.065806 0.999514
0.103926 -0.210092 0.949571
0.116153 -0.0396254 0.987584
0.110055 -0.198096 0.989206
0.126776 -0.142325 0.98139
0.125499 -0.0340145 1.02751
0.0931802 -0.163691 1.00954
0.124647 -0.0754837 1.03124
0.131827 -0.102772 1.0045
0.0830653 -0.124899 1.03405
0.12012 -0.113567 1.02853
