ply
    format ascii 1.0           
    element vertex 32
    property double x           
    property double y           
    property double z           
    end_header
-0.165395 -0.475686 2.93007
-0.191649 -0.837631 2.72231
-0.213413 -0.584637 2.78211
-0.335424 -0.750479 2.72004
-0.243708 -0.481013 2.92855
-0.215836 -0.711426 2.74339
-0.361768 -0.809715 2.72847
-0.408921 -0.914739 2.77242
-0.260346 -0.653679 2.78558
-0.246007 -0.782298 2.72701
-0.353099 -0.883981 2.72318
-0.325703 -0.953567 2.74212
-0.2382 -0.535225 2.83512
-0.284508 -0.589066 2.82166
-0.32671 -0.652286 2.83687
-0.291385 -0.838271 2.72567
-0.292742 -0.720684 2.76288
-0.350306 -0.713998 2.81738
-0.163313 -0.640129 2.81903
-0.159554 -0.709888 2.7945
-0.179543 -0.567593 2.86353
-0.171805 -0.778894 2.76682
-0.13753 -0.693814 2.88963
-0.130493 -0.619481 2.88193
-0.186529 -0.894405 2.78009
-0.155844 -0.565521 2.94146
-0.171269 -0.874711 2.85591
-0.145234 -0.767387 2.84126
-0.188099 -0.948273 2.84607
-0.209449 -0.817261 2.90148
-0.154545 -0.644406 2.94702
-0.160516 -0.718861 2.93778
