ply
    format ascii 1.0           
    element vertex 35
    property double x           
    property double y           
    property double z           
    end_header
-0.0467827 -0.318124 1.21525
0.0566957 0.000339386 1.26691
-0.0776878 -0.18892 1.21918
0.0626847 -0.210589 1.18954
-0.114237 -0.287217 1.25563
0.0193396 -0.16449 1.20631
-0.0556072 -0.136797 1.21416
0.0469006 -0.104745 1.22349
-0.0739718 -0.253293 1.20846
0.00514373 -0.00897247 1.31362
0.018516 -0.0579567 1.26812
0.0872561 -0.314211 1.2817
0.0451415 0.0381771 1.31974
0.0575401 0.0833449 1.40515
-0.0305997 -0.0611188 1.32065
-0.053477 -0.112941 1.30322
-0.0186511 -0.213207 1.20569
-0.0133203 -0.11464 1.25264
-0.0969262 -0.225869 1.26006
0.0764405 -0.263642 1.23262
0.102339 -0.047961 1.28608
0.0869048 -0.161917 1.23018
0.100244 -0.104772 1.25909
0.0958763 0.00785526 1.33251
0.120009 0.085766 1.39369
0.142213 -0.0331369 1.33189
0.103784 -0.250901 1.29437
0.137545 -0.0959044 1.3322
0.129278 0.0110734 1.39232
0.121435 -0.155966 1.29035
0.0921803 -0.203388 1.33837
0.127606 -0.0554719 1.39001
0.129301 -0.121279 1.37482
0.0893647 -0.149193 1.38844
0.0762848 -0.263995 1.34489
