ply
    format ascii 1.0           
    element vertex 36
    property double x           
    property double y           
    property double z           
    end_header
-0.0846139 -0.476901 1.61292
-0.094096 -0.414414 1.66369
-0.122711 -0.359509 1.74804
-0.101281 -0.471904 1.65762
-0.140144 -0.319976 1.75657
-0.100233 -0.389773 1.7016
-0.127434 -0.312386 1.70577
-0.14009 -0.517206 1.68212
-0.103664 -0.439377 1.70193
-0.198117 -0.566521 1.64804
-0.168347 -0.527995 1.65059
-0.0960793 -0.429848 1.62001
-0.223295 -0.565611 1.68521
-0.184384 -0.538156 1.70156
-0.12046 -0.481106 1.69855
-0.130757 -0.41356 1.73123
-0.130123 -0.497839 1.6304
-0.132389 -0.274442 1.7431
-0.193608 -0.463675 1.73404
-0.279131 -0.537519 1.72871
-0.140654 -0.2676 1.70182
-0.167686 -0.36157 1.76024
-0.179932 -0.424103 1.73917
-0.121838 -0.366323 1.65995
-0.152775 -0.452744 1.71669
-0.170335 -0.49283 1.70455
-0.256627 -0.499179 1.73037
-0.188575 -0.321352 1.77364
-0.236161 -0.532477 1.71106
-0.218647 -0.493005 1.71292
-0.268112 -0.55922 1.69267
-0.172203 -0.283323 1.7591
-0.206379 -0.347682 1.74238
-0.163019 -0.392221 1.72449
-0.196734 -0.380216 1.73618
-0.219121 -0.449477 1.72256
