ply
    format ascii 1.0           
    element vertex 38
    property double x           
    property double y           
    property double z           
    end_header
0.334 -1.3131 5.25298
-0.513632 -0.949248 5.48232
0.57644 -1.16326 5.2179
-0.380244 -0.482065 5.67925
-0.258514 -0.219048 5.71731
-0.0409331 0.0780044 5.79005
-0.289693 -0.738441 5.43644
-0.188741 -0.414382 5.48452
0.0337968 0.246142 6.0116
-0.181151 0.0525356 6.14046
0.0365517 -0.857232 5.24584
0.378107 -0.909492 5.21025
0.0120801 -0.217314 5.59219
0.136273 -1.10143 5.34316
-0.063981 -0.61003 5.32392
0.237686 0.062309 5.85496
0.955924 -0.925508 5.38012
-0.475567 -0.759782 5.74995
0.788862 -0.742341 5.49945
0.235719 -0.705319 5.37378
0.307086 -0.294025 5.63621
0.348619 0.256036 6.05948
0.413166 -0.491928 5.48714
0.675686 -0.934324 5.33684
0.130955 -0.469196 5.49508
0.831781 -1.16005 5.33563
0.521157 -0.743462 5.47908
-0.184002 -1.02492 5.43599
0.387193 -0.0235901 6.07131
0.481004 -0.361063 5.93138
0.353385 -0.16952 5.89922
0.520995 -0.53602 5.64904
0.93238 -1.10642 5.5975
0.454981 -0.368674 5.83943
0.472805 -0.362809 6.10401
0.401043 -1.40615 5.55605
0.52256 -0.615219 5.9521
0.302751 0.135302 6.31027
