ply
    format ascii 1.0           
    element vertex 44
    property double x           
    property double y           
    property double z           
    end_header
-0.183995 -0.360949 1.02067
-0.169621 -0.396246 1.00374
-0.222553 -0.304237 1.04016
-0.21784 -0.32612 1.04213
-0.19704 -0.345902 1.0328
-0.203746 -0.37005 1.03027
-0.232843 -0.428484 0.973517
-0.213443 -0.389679 1.0224
-0.190948 -0.389168 1.01411
-0.171789 -0.371864 1.00447
-0.24381 -0.412053 0.998895
-0.209825 -0.283063 1.03907
-0.23825 -0.322085 1.03084
-0.220867 -0.353133 1.03224
-0.218787 -0.407129 1.00865
-0.234881 -0.390789 1.00637
-0.194183 -0.401516 0.991476
-0.197816 -0.280657 1.02226
-0.286873 -0.401438 0.975106
-0.21898 -0.411255 0.985557
-0.255178 -0.423181 0.978295
-0.249987 -0.37183 1.00947
-0.242417 -0.353138 1.01734
-0.228079 -0.371437 1.01794
-0.245775 -0.299354 1.02912
-0.275151 -0.384082 0.984418
-0.273736 -0.416388 0.967494
-0.264817 -0.404223 0.984046
-0.254328 -0.384362 0.991692
-0.230551 -0.284124 1.0314
-0.244267 -0.312004 1.01021
-0.242637 -0.329897 1.01134
-0.252627 -0.36196 0.995789
-0.218736 -0.264667 1.03186
-0.280218 -0.397088 0.953641
-0.227688 -0.33937 1.01887
-0.273761 -0.416856 0.965051
-0.243645 -0.327198 0.985608
-0.259973 -0.363928 0.974256
-0.248552 -0.343308 0.998693
-0.256245 -0.353525 0.954456
-0.263693 -0.376534 0.955186
-0.247574 -0.348726 0.975907
-0.234825 -0.290158 1.01141
