ply
    format ascii 1.0           
    element vertex 58
    property double x           
    property double y           
    property double z           
    end_header
-0.0376766 0.0944335 1.27321
-0.0811673 -0.240122 1.14155
-0.0097478 -0.171255 1.127
-0.0550455 -0.193968 1.13899
0.067895 -0.242524 1.12655
0.119886 -0.229939 1.17049
-0.055937 -0.106059 1.20045
-0.0040751 0.18437 1.28879
-0.0411127 -0.26834 1.12956
-0.01951 -0.224669 1.13417
-0.00686847 -0.0227314 1.21124
0.0151097 0.08118 1.25217
-0.0347226 0.147102 1.28259
0.0131998 -0.267563 1.13103
-0.00338906 -0.0971137 1.19693
-0.0204362 -0.31686 1.1333
-0.0392999 -0.0620739 1.22579
-0.107764 -0.279803 1.15641
0.0507209 -0.112613 1.19708
0.0273038 -0.210376 1.13648
-0.0218081 -0.139307 1.17225
-0.0627806 0.0432822 1.28826
-0.0471815 -0.0133377 1.25434
-0.0732214 -0.306136 1.14274
-0.0164537 0.0298295 1.24135
0.0771497 -0.0553483 1.23749
0.0299256 -0.161439 1.15853
0.0596301 0.0704875 1.28138
0.0872196 -0.281421 1.15968
0.0417038 0.0294625 1.25715
0.0205397 0.224095 1.30516
0.0798975 -0.0107492 1.26172
0.0379199 -0.309612 1.15047
0.0114493 0.127477 1.28257
0.0374258 -0.0140023 1.23074
0.0696324 -0.176126 1.1893
0.0801095 0.0261348 1.30439
0.114619 -0.282151 1.20647
0.0599948 -0.320505 1.1995
0.0365184 0.161927 1.31777
0.0226066 -0.0584955 1.22261
0.0886081 -0.104863 1.23248
0.0971799 -0.137496 1.19941
0.111776 -0.146483 1.24459
0.0798235 -0.316061 1.25198
0.0751749 -0.113341 1.32484
0.0928132 -0.260845 1.27123
0.0661146 -0.0554378 1.34422
0.0794852 -0.0680636 1.28995
0.0358753 0.109742 1.3337
0.0440278 0.0712912 1.37447
0.0219583 0.161685 1.37306
0.098388 -0.231857 1.22554
0.0487327 0.00382156 1.36475
0.00418823 0.248506 1.3539
0.0973298 -0.187718 1.25708
0.00266831 0.2071 1.39087
0.0661755 -0.0182282 1.30171
