ply
    format ascii 1.0           
    element vertex 57
    property double x           
    property double y           
    property double z           
    end_header
-3.00509 -3.00141 14.4532
-2.76742 -2.4774 15.1647
-2.77832 -5.15529 13.7285
-2.80194 -4.67096 12.9071
-2.69826 -0.859639 15.2432
-3.06518 -3.15885 12.9341
-2.91024 -2.11445 14.3784
-2.52917 0.0726485 15.1772
-2.8311 -1.96637 12.9321
-2.50026 -0.539641 14.4764
-3.2069 -4.1096 14.2423
-2.70554 -2.69679 13.6967
-2.84393 -4.85354 14.579
-1.74368 1.44944 15.7592
-1.94709 0.778844 16.3815
-2.65673 -3.83877 13.303
-2.43121 -4.03912 12.0056
-2.35827 -1.68155 15.3727
-2.40084 -1.3571 14.4681
-2.46695 -1.74965 13.6766
-3.0982 -2.50252 12.4321
-0.913244 -2.5443 11.2011
-1.4386 -4.26528 11.4628
-2.61429 -3.22912 12.1763
-1.10436 1.63359 15.1889
-1.17049 -3.326 11.0171
-2.20695 -0.788431 13.7048
-2.06471 0.224381 14.4212
-2.05061 -5.27349 13.1461
-1.94323 -2.64874 12.1334
-0.726771 -4.06195 10.9511
-1.64134 -3.4251 11.7591
-0.330744 -2.8757 10.6972
-1.21926 0.925995 14.719
-2.30504 -1.93591 12.383
-1.42673 -0.836944 13.4448
-1.05498 -1.28034 12.8153
-1.8058 0.640885 15.4932
-0.276952 -2.23219 11.7106
-1.49414 -0.180516 13.9351
-0.950408 -2.75571 11.9665
-1.70956 -1.57652 13.3065
-0.190802 -3.49928 11.027
-1.26015 -2.1356 12.6407
0.320494 -2.43899 11.2435
0.402739 -3.14009 10.9379
-0.764028 -0.634238 13.8771
-0.590774 0.488049 14.9918
-0.389142 1.18729 15.405
-0.488793 -1.72286 12.4376
-1.37936 1.97759 16.5038
0.0228871 -1.22641 14.2124
-0.622978 -0.1564 14.4432
-0.701485 1.90897 16.9672
-0.0882883 -1.82335 13.3004
0.774952 -2.87811 12.881
-0.200179 1.4641 16.5384
