ply
    format ascii 1.0           
    element vertex 56
    property double x           
    property double y           
    property double z           
    end_header
-0.0792274 -0.248249 0.722996
-0.0678949 -0.282928 0.703707
-0.0863782 -0.304891 0.707225
-0.0599756 -0.298297 0.694706
-0.0521947 -0.300049 0.680669
-0.0775637 -0.274 0.713488
-0.0859939 -0.21206 0.728423
-0.0659458 -0.265663 0.70381
-0.101812 -0.211327 0.735334
-0.0614597 -0.313915 0.678383
-0.0896477 -0.23781 0.731383
-0.0985205 -0.305102 0.717315
-0.0973369 -0.322401 0.690613
-0.0762287 -0.320014 0.685865
-0.0941975 -0.253123 0.72609
-0.0795781 -0.303742 0.691958
-0.0993567 -0.291634 0.719724
-0.0817262 -0.227215 0.725014
-0.0735639 -0.253442 0.708495
-0.0834806 -0.287592 0.705401
-0.094588 -0.276532 0.713474
-0.136071 -0.306806 0.688309
-0.0880437 -0.261617 0.715202
-0.11221 -0.325318 0.674944
-0.100368 -0.312945 0.70242
-0.105132 -0.26422 0.721306
-0.117285 -0.211983 0.729749
-0.105894 -0.243319 0.729641
-0.129254 -0.319437 0.683294
-0.127549 -0.324795 0.668196
-0.113821 -0.314334 0.687013
-0.116265 -0.226325 0.724476
-0.100047 -0.195531 0.732923
-0.14547 -0.312406 0.676564
-0.112831 -0.303083 0.699767
-0.112028 -0.294015 0.712641
-0.123967 -0.272996 0.701121
-0.116155 -0.262772 0.710365
-0.130312 -0.27866 0.688028
-0.137472 -0.291933 0.680959
-0.122989 -0.298839 0.683998
-0.0974536 -0.223818 0.727405
-0.114359 -0.249995 0.717743
-0.147271 -0.295559 0.670201
-0.108527 -0.274849 0.706208
-0.0746254 -0.31794 0.668945
-0.136397 -0.314148 0.66659
-0.11685 -0.286409 0.695094
-0.115567 -0.237087 0.703816
-0.117075 -0.209684 0.713542
-0.117563 -0.250296 0.701784
-0.145992 -0.306634 0.661802
-0.114046 -0.24637 0.681875
-0.100629 -0.195571 0.733959
-0.0979141 -0.290599 0.71798
-0.132379 -0.279278 0.689106
