ply
    format ascii 1.0           
    element vertex 58
    property double x           
    property double y           
    property double z           
    end_header
-0.265383 -0.606449 2.06257
-0.308302 -0.312538 2.39013
-0.278251 -0.338979 2.2234
-0.313369 -0.404971 2.21779
-0.349965 -0.526902 2.2175
-0.258946 -0.238791 2.45793
-0.382382 -0.707646 2.17672
-0.253135 -0.394748 2.18344
-0.325445 -0.403347 2.29326
-0.365111 -0.651614 2.13635
-0.29043 -0.282214 2.3258
-0.34028 -0.572012 2.15754
-0.30935 -0.507926 2.15736
-0.276141 -0.566855 2.1268
-0.28653 -0.725479 2.07559
-0.306546 -0.336863 2.28273
-0.341134 -0.747192 2.12601
-0.200993 -0.700604 2.04241
-0.278284 -0.658187 2.11032
-0.224042 -0.565723 2.02772
-0.268057 -0.45923 2.18825
-0.223004 -0.519352 2.06848
-0.231399 -0.243715 2.2956
-0.237558 -0.502227 2.13874
-0.201222 -0.433116 2.15171
-0.200844 -0.63381 2.04257
-0.0348144 -0.634651 2.08244
-0.207442 -0.347308 2.20126
-0.160347 -0.252247 2.29833
-0.0583295 -0.69138 2.056
-0.276691 -0.778025 2.12367
-0.127614 -0.67738 2.07156
-0.0497413 -0.755636 2.07854
-0.121849 -0.747383 2.06832
-0.0993741 -0.508103 2.16384
0.0174926 -0.681057 2.08983
-0.0210374 -0.615065 2.14605
-0.159362 -0.309341 2.26565
-0.144698 -0.604397 2.0717
-0.241359 -0.308346 2.27618
-0.160532 -0.398861 2.20638
-0.23453 -0.210379 2.36476
-0.14389 -0.456577 2.17989
-0.321205 -0.471036 2.24007
-0.162169 -0.537696 2.07038
-0.0593705 -0.562263 2.18148
-0.171198 -0.509349 2.15546
-0.085889 -0.635543 2.12595
0.0312581 -0.65394 2.16047
-0.27586 -0.775686 2.13036
-0.0118679 -0.724375 2.11603
-0.124499 -0.571464 2.14188
-0.236047 -0.207589 2.3483
-0.138897 -0.405717 2.28251
0.0374484 -0.710163 2.14277
-0.128765 -0.447827 2.24321
-0.140875 -0.297479 2.34566
-0.115417 -0.502725 2.29805
