ply
    format ascii 1.0           
    element vertex 57
    property double x           
    property double y           
    property double z           
    end_header
-0.184808 -0.316893 0.906715
-0.181784 -0.335126 0.8764
-0.183089 -0.229114 0.940045
-0.190008 -0.249423 0.935127
-0.19581 -0.299962 0.928005
-0.174418 -0.241302 0.923425
-0.167073 -0.285765 0.893652
-0.184371 -0.193542 0.93364
-0.174717 -0.274543 0.910048
-0.184434 -0.293865 0.903611
-0.160452 -0.304726 0.877626
-0.204963 -0.340556 0.892251
-0.187161 -0.25989 0.918933
-0.20458 -0.265056 0.934244
-0.194551 -0.280182 0.919376
-0.173555 -0.223809 0.91096
-0.185076 -0.314742 0.885323
-0.178298 -0.213405 0.927845
-0.159988 -0.30529 0.855174
-0.254194 -0.323952 0.908787
-0.166863 -0.262931 0.893032
-0.247309 -0.340073 0.898838
-0.169064 -0.325969 0.859309
-0.175294 -0.247587 0.903561
-0.198957 -0.195021 0.951295
-0.180185 -0.186477 0.918632
-0.194185 -0.317862 0.924677
-0.203456 -0.237294 0.945247
-0.220266 -0.197922 0.952361
-0.230497 -0.345885 0.880619
-0.236908 -0.278679 0.919368
-0.203307 -0.328281 0.907218
-0.22756 -0.331583 0.895826
-0.196356 -0.211764 0.939269
-0.215309 -0.279486 0.917616
-0.250215 -0.287101 0.906557
-0.220162 -0.216708 0.945005
-0.252422 -0.347202 0.880296
-0.220869 -0.317162 0.911631
-0.199616 -0.174482 0.948754
-0.26124 -0.30555 0.901729
-0.223386 -0.264459 0.926763
-0.214247 -0.304814 0.926511
-0.271036 -0.332792 0.898965
-0.218582 -0.247063 0.934869
-0.241374 -0.312241 0.897244
-0.278347 -0.311368 0.893067
-0.159317 -0.306639 0.859809
-0.264683 -0.334068 0.882354
-0.229993 -0.296063 0.908684
-0.239857 -0.248884 0.898143
-0.231138 -0.248625 0.917882
-0.225438 -0.212037 0.925239
-0.229025 -0.231423 0.91998
-0.228091 -0.194761 0.93262
-0.279787 -0.325172 0.881792
-0.19925 -0.174293 0.949904
