ply
    format ascii 1.0           
    element vertex 56
    property double x           
    property double y           
    property double z           
    end_header
-0.211637 -0.59206 3.46617
-0.258457 -1.14267 3.16008
-0.226785 -0.950549 3.24915
-0.222162 -0.667861 3.40843
-0.204493 -1.07238 3.16163
-0.146107 -0.734128 3.40821
-0.257924 -0.754378 3.44385
-0.194637 -1.23091 3.01487
-0.277789 -1.06426 3.22255
-0.298643 -1.24146 3.17366
-0.262444 -1.2958 3.10915
-0.132369 -0.948423 3.27036
-0.107908 -0.853329 3.36289
-0.093805 -1.11572 3.02276
-0.354232 -1.31952 3.25173
-0.191351 -0.819011 3.36388
-0.177616 -1.14681 3.05387
-0.289825 -0.921084 3.3354
-0.065526 -1.07011 3.20983
-0.0427169 -1.1964 2.99372
-0.131445 -0.639292 3.44126
-0.149492 -1.05481 3.23081
-0.134295 -1.41136 3.08111
-0.177757 -1.32341 3.0528
-0.215994 -1.20764 3.09932
0.00826695 -1.11306 3.237
-0.121756 -1.19283 3.00034
-0.109877 -1.28183 2.98716
-0.0253741 -1.04355 3.28321
-0.199895 -0.914011 3.32218
-0.135775 -0.590848 3.51403
0.0628278 -1.43643 3.25804
-0.0109566 -1.19226 3.08906
0.0632625 -1.2093 3.2989
0.0984998 -1.34635 3.2588
-0.0786625 -1.34535 3.05628
-0.0224283 -1.27322 3.04177
0.0204438 -1.33472 3.20564
-0.0989739 -0.94471 3.35233
-0.050698 -1.01424 3.39917
-0.0669617 -1.38603 3.15055
0.00249538 -1.22603 3.20167
-0.0964023 -0.888899 3.44534
-0.0295723 -1.29783 3.13023
0.0501578 -1.25991 3.38065
0.0211959 -1.28947 3.28915
-0.0827258 -1.13372 3.1079
-0.160699 -0.825344 3.44587
-0.216087 -0.68957 3.57067
-0.00918807 -1.11956 3.32716
-0.125367 -0.968552 3.44073
-0.130434 -1.43237 3.27111
0.0661287 -1.37327 3.33875
-0.0348154 -1.19992 3.27146
-0.188537 -0.751871 3.48483
-0.195134 -0.613632 3.60349
