ply
    format ascii 1.0           
    element vertex 56
    property double x           
    property double y           
    property double z           
    end_header
-0.702455 -1.86674 7.27142
-0.670885 -1.12122 7.61433
-0.632755 -2.61201 6.73995
-0.468275 -1.86744 7.33221
-1.01551 -2.56583 7.33137
-0.36735 -2.33181 6.73991
-0.609479 -1.51766 7.53456
-0.796261 -2.35833 7.07876
-0.908779 -2.60918 7.14798
-0.639778 -0.921781 7.74163
-0.582417 -2.40213 6.82471
-0.490078 -1.3015 7.64162
-0.651626 -2.18862 7.07531
-0.839212 -2.14996 7.21605
-1.12672 -2.65574 7.49746
-0.246969 -2.54261 6.68984
-0.775035 -1.33085 7.71866
-0.820625 -2.74297 6.9698
-0.812554 -1.9818 7.44422
-0.424493 -2.74838 6.68085
-0.606306 -2.83015 6.8442
-0.694084 -2.54746 6.9698
-0.408669 -1.61655 7.5542
-0.447139 -1.05917 7.70967
-0.866598 -1.76856 7.47067
-1.0654 -2.77249 7.33533
-0.443945 -2.52343 6.70059
-0.510152 -3.04938 6.93913
-0.520008 -2.13503 7.24234
-0.214518 -2.11676 7.38875
-0.64218 -1.76501 7.45277
-0.312283 -2.18862 7.20695
-0.713087 -2.93838 7.03089
-0.458098 -0.923309 7.88973
-0.138668 -2.30125 7.2939
-0.572348 -2.3754 7.08827
-0.746269 -1.6883 7.6457
-0.0402812 -3.09419 7.39178
0.0563361 -2.88099 7.38865
-0.0222588 -2.53561 7.47447
-0.182666 -2.51931 6.93851
-0.278057 -2.01776 7.66478
-0.649542 -0.923908 7.75645
-0.216911 -2.72501 6.82797
-0.396027 -1.84764 7.5437
-0.12538 -2.85183 7.2446
-0.365046 -2.89796 6.87349
-0.308495 -3.15764 7.45927
-0.108034 -2.72466 7.42785
-0.166719 -2.5875 7.22437
-0.344643 -2.98006 7.11181
-0.361992 -2.35871 6.97009
-0.384211 -2.36313 7.22827
-0.389039 -1.69013 7.76157
-0.241713 -2.76825 7.04444
-0.558589 -1.52648 7.76143
