ply
    format ascii 1.0           
    element vertex 56
    property double x           
    property double y           
    property double z           
    end_header
-1.14228 -0.322846 5.04815
-0.720421 0.834778 5.54078
-1.17097 -0.818884 4.85412
-1.14375 -0.123802 4.39203
-0.792333 1.30567 5.77154
-1.28442 -0.567737 4.53608
-0.593726 1.15241 5.57148
-1.11002 -0.0713288 5.25215
-0.981622 0.350444 5.28408
-1.20208 -0.296235 4.63257
-1.04463 -0.332391 4.18435
-1.08192 -0.0406993 4.94835
-1.04147 -0.967047 5.37302
-1.10436 -0.82776 4.54272
-0.951281 -0.696778 5.446
-0.539399 0.785385 5.33285
-0.729397 1.02509 5.8996
-0.942519 0.413286 5.63173
-1.14638 -0.647977 4.2677
-0.888552 -1.0554 4.46529
-0.74163 0.435471 5.11999
-0.543225 1.46636 5.65734
-0.689629 1.56745 5.91358
-0.991718 -1.03149 4.74908
-1.2016 -0.377653 4.36033
-0.88359 -0.801296 4.31179
-0.439253 0.236915 4.85011
-0.0742151 -0.906826 4.38427
-0.0600283 -0.59312 4.33795
-0.438689 0.03459 4.63404
-0.680176 0.0894067 4.75557
-0.121731 -0.197383 4.6014
-0.344534 -0.645416 4.42063
-0.850091 -0.541611 4.20303
-0.462367 -0.32599 4.52778
-0.483746 0.505675 5.25058
-0.410162 1.64395 5.88553
-0.611436 -0.907909 4.48588
-0.771707 -0.275598 4.31714
0.0801525 -0.346111 4.77068
-0.902237 -0.146908 4.53677
-0.650244 -0.609299 4.41059
-0.175655 -1.16136 4.69903
-0.439863 0.239087 4.8666
-0.250853 0.0202616 4.89619
-0.294463 0.70652 5.50653
-0.389658 1.30765 6.18066
-0.238542 0.34803 5.19254
0.0899171 -0.677316 4.5458
-0.292739 1.56918 6.15252
-0.15345 -0.481991 4.60044
-0.644333 -0.175331 4.7354
-0.49207 1.08759 5.84317
0.0316561 -0.92425 4.62143
-0.0565507 -0.156055 5.01097
-0.405719 -1.0736 4.82067
