ply
    format ascii 1.0           
    element vertex 60
    property double x           
    property double y           
    property double z           
    end_header
-0.471905 -0.889585 3.11093
-0.485358 -0.729046 3.27688
-0.483811 -0.652918 3.23221
-0.499074 -0.658977 3.2789
-0.441522 -0.773123 3.19543
-0.476109 -1.17407 2.99343
-0.454135 -1.11324 2.90727
-0.519785 -1.17088 3.18871
-0.446292 -1.04203 2.93379
-0.485547 -1.04965 3.03961
-0.492686 -1.13839 3.06282
-0.508048 -1.13525 3.13505
-0.500496 -0.987199 3.09202
-0.410399 -0.69619 3.22206
-0.510038 -1.20472 3.13086
-0.350117 -1.0582 2.84896
-0.485175 -0.92932 3.1581
-0.395629 -1.00306 2.88778
-0.475555 -0.590813 3.27348
-0.387711 -1.13875 2.86071
-0.395505 -0.870227 3.10141
-0.451114 -1.09913 2.98656
-0.454228 -0.984233 3.03187
-0.408267 -0.617325 3.2469
-0.418373 -1.18165 2.92765
-0.509423 -0.880847 3.20665
-0.409424 -1.06704 2.8752
-0.375353 -0.790582 3.17212
-0.459664 -0.837496 3.23471
-0.362393 -1.24474 2.9395
-0.442459 -0.85274 3.16295
-0.340628 -0.955763 3.03123
-0.401641 -0.95859 3.07029
-0.296093 -0.927831 3.08093
-0.419792 -1.22886 2.99626
-0.270928 -0.979318 3.03483
-0.402841 -0.577277 3.31071
-0.156632 -1.14815 3.01971
-0.169626 -1.22427 3.02891
-0.372474 -0.785999 3.17282
-0.196204 -1.04438 3.06493
-0.475567 -0.59221 3.29486
-0.229643 -1.15333 2.99855
-0.311558 -1.11478 2.88094
-0.33786 -1.18084 2.90729
-0.29322 -0.906262 3.18361
-0.353699 -0.859836 3.16198
-0.234269 -1.26621 3.07891
-0.213859 -1.11364 3.06243
-0.29735 -1.20932 2.97655
-0.263508 -1.07077 3.00407
-0.304522 -1.04878 2.91608
-0.339473 -0.81256 3.23978
-0.367448 -1.01424 2.95699
-0.404354 -0.772957 3.26467
-0.176588 -1.08463 3.13111
-0.29558 -1.13643 2.95617
-0.259502 -0.984499 3.1087
-0.346888 -0.879807 3.23809
-0.312152 -1.25717 3.0946
