ply
    format ascii 1.0           
    element vertex 61
    property double x           
    property double y           
    property double z           
    end_header
-0.180927 -0.487288 1.14898
-0.159328 -0.193679 1.34436
-0.173218 -0.445575 1.23265
-0.149477 -0.151568 1.36677
-0.165363 -0.341803 1.26735
-0.175339 -0.406144 1.26577
-0.160709 -0.414588 1.12446
-0.155188 -0.498055 1.29402
-0.164849 -0.500662 1.24853
-0.1754 -0.441652 1.16345
-0.164818 -0.401952 1.21822
-0.119293 -0.214037 1.31709
-0.146854 -0.23888 1.3668
-0.151393 -0.499226 1.10628
-0.142435 -0.520581 1.33013
-0.136102 -0.264525 1.31013
-0.149197 -0.52626 1.15275
-0.150726 -0.368216 1.30372
-0.150812 -0.541256 1.29233
-0.137094 -0.446828 1.09251
-0.162316 -0.475818 1.19468
-0.0982455 -0.376654 1.1942
-0.132113 -0.544511 1.24756
-0.165193 -0.456995 1.12055
-0.137874 -0.315662 1.29168
-0.100461 -0.268888 1.2816
-0.109264 -0.560589 1.14558
-0.118479 -0.164054 1.33143
-0.123533 -0.324634 1.24549
-0.125378 -0.380984 1.23026
-0.13082 -0.552776 1.19194
-0.063614 -0.353024 1.21199
-0.0549639 -0.384264 1.17933
-0.104862 -0.13613 1.36492
-0.166357 -0.332615 1.32434
0.00116087 -0.418443 1.18198
-0.0247134 -0.493819 1.15202
-0.0962315 -0.435202 1.12229
-0.0854225 -0.312313 1.26936
-0.102619 -0.478559 1.10204
-0.0412051 -0.335322 1.26853
0.024095 -0.483476 1.14687
-0.000751157 -0.562833 1.19969
-0.00274156 -0.464852 1.18722
-0.0499087 -0.442679 1.16075
-0.065866 -0.534171 1.15317
-0.106939 -0.521055 1.12202
-0.0636236 -0.279611 1.31184
-0.073692 -0.487404 1.14003
-0.126928 -0.416369 1.15733
0.0310898 -0.440786 1.21527
-0.03061 -0.385791 1.2187
-0.0980492 -0.258175 1.33104
-0.10098 -0.193224 1.40498
-0.0893558 -0.149801 1.40691
0.0423509 -0.495983 1.1867
0.000288795 -0.413562 1.24437
-0.108674 -0.225709 1.36384
0.02252 -0.537899 1.15687
-0.094595 -0.448713 1.17088
0.0319612 -0.535524 1.19915
