ply
    format ascii 1.0           
    element vertex 44
    property double x           
    property double y           
    property double z           
    end_header
-0.760782 -0.747653 4.69691
-0.819776 -1.32065 4.30008
-0.707576 -1.26636 4.23705
-0.539734 -0.945369 4.58075
-0.71828 -1.10488 4.3712
-0.52496 -1.12863 4.45836
-0.737903 -1.39203 4.1973
-0.67641 -0.82035 4.60291
-0.609609 -0.7233 4.65866
-0.771869 -0.982869 4.51837
-0.600059 -1.41312 4.16775
-0.800932 -1.55603 4.25685
-0.672422 -0.95965 4.58075
-0.746128 -1.22918 4.35863
-0.814432 -1.16973 4.46099
-0.594047 -1.05468 4.53097
-0.620105 -1.18947 4.34348
-0.556246 -0.858752 4.66884
-0.666598 -1.50592 4.25092
-0.474157 -1.06785 4.59594
-0.875213 -1.27885 4.55077
-0.585911 -1.31295 4.25251
-0.847836 -1.06749 4.54175
-0.406881 -1.46946 4.55792
-0.595615 -0.654324 4.87154
-0.52597 -1.23999 4.40672
-0.439777 -1.55436 4.46647
-0.488762 -1.45769 4.40581
-0.717623 -1.63463 4.31502
-0.612558 -1.68743 4.48458
-0.493057 -1.65798 4.5181
-0.546399 -0.773015 4.77512
-0.484133 -1.33062 4.49779
-0.554106 -1.5279 4.32194
-0.474425 -1.19951 4.64155
-0.790072 -0.91204 4.57902
-0.542139 -1.39484 4.32707
-0.696527 -1.07011 4.47714
-0.438285 -1.62613 4.62729
-0.551318 -0.998385 4.73691
-0.512099 -1.30682 4.61462
-0.434747 -1.5068 4.67845
-0.562692 -0.895357 4.76294
-0.589771 -1.10889 4.80027
