ply
    format ascii 1.0           
    element vertex 44
    property double x           
    property double y           
    property double z           
    end_header
-0.789529 0.122984 6.873
-1.07448 -1.63697 6.37015
-1.16959 -1.13251 6.49379
-1.11173 -0.984722 6.2472
-0.976603 -1.25595 5.97667
-0.553062 -0.0865618 6.61633
-0.901065 -0.13815 7.03653
-1.02439 -0.599626 6.50732
-1.15518 -1.27488 6.20701
-0.660754 0.386053 6.8889
-0.83203 0.269973 7.14499
-0.960551 -0.304891 6.84929
-0.993223 -0.753405 6.80285
-0.801551 -1.45576 6.92865
-1.01592 -0.529619 6.94705
-1.01846 -0.889295 6.50563
-0.602756 -0.512735 6.37298
-0.898462 -0.998363 7.03735
-0.89037 -1.01119 6.09997
-0.640477 -0.362368 6.59419
-0.734372 -0.184284 6.81953
-0.873491 -0.740315 6.31186
-0.901867 -1.45956 6.1896
-0.492143 0.1291 6.79975
-0.615019 -0.769582 6.27737
-0.809716 -1.73678 6.34655
-0.23038 -1.36058 6.18733
-0.620867 -1.41453 6.13665
-0.35975 -0.303503 6.52504
-0.0946802 -1.1309 6.29959
-0.164977 -1.59199 6.34388
-0.364368 0.363046 6.97147
-0.438858 -1.20219 6.17202
-0.374605 -1.73384 6.46462
-0.215566 -0.564775 6.58493
-0.365769 0.63862 7.22506
-0.672409 -1.13214 6.14886
0.0554614 -1.45254 6.41938
-0.377539 -0.910114 6.36142
-0.293314 -0.128195 6.86272
0.068599 -1.17431 6.50799
-0.263762 -0.829426 6.59431
-0.343031 0.0806207 6.96322
-0.199412 -0.371679 7.01146
