ply
    format ascii 1.0           
    element vertex 58
    property double x           
    property double y           
    property double z           
    end_header
-0.0114703 -0.0418599 0.891645
0.130401 -0.151253 0.97459
0.0457535 0.0809339 0.930287
0.0462252 0.2469 0.990819
0.0930561 -0.0170541 0.902886
0.0428628 -0.143056 0.903691
-0.05823 -0.0598518 0.904953
0.117485 0.345864 1.04875
0.0940829 0.236386 0.979
-0.0360709 -0.112621 0.898791
0.0352024 0.0309206 0.919101
0.00877644 -0.0891194 0.895856
0.0551632 0.128424 0.961494
0.0422551 -0.0480583 0.911061
0.077407 0.290402 1.00779
-0.00793351 -0.152063 0.907518
0.0777115 0.374892 1.05598
0.0313585 0.196733 0.982335
0.00178466 0.0542517 0.951063
0.133505 -0.0961238 0.985359
-0.0374669 -0.186907 0.918194
0.0858344 -0.0836487 0.962516
0.0613508 0.338369 1.02283
0.0936262 0.0902777 0.95307
0.00614599 -0.00924358 0.923921
-0.0640735 -0.147292 0.92385
0.0603539 -0.188466 0.925991
0.0806099 0.173013 0.980208
-0.0474419 -0.0105519 0.929012
0.155144 -0.0663474 1.02882
0.133066 -0.184417 1.02063
0.0108333 0.0994984 0.961186
0.012488 0.147567 0.991568
0.0832324 0.0195555 0.930777
0.0428617 -0.104051 0.933288
0.100418 0.2055 1.01995
0.0729893 -0.143401 0.948825
0.105487 0.145233 1.03659
0.127575 0.0751987 1.00154
0.116825 -0.044995 0.988742
0.138145 -0.129139 1.03015
0.11137 0.0456801 0.965713
0.0138542 -0.195381 0.911062
0.0153072 -0.217862 0.953851
0.11736 -0.015297 0.9457
0.127061 0.0327941 1.02598
0.126748 -0.0181612 1.03694
0.0459649 -0.211878 1.04947
0.130257 -0.118684 1.10455
0.148659 -0.1589 1.07409
0.109904 -0.19569 1.06637
0.100217 0.00460683 0.98663
0.130804 -0.0557508 1.07415
0.0819462 0.239251 1.05636
0.0887205 0.109587 0.999447
0.112486 0.349365 1.04997
0.0810158 0.183038 1.06319
0.0999065 -0.150683 1.1338
