ply
    format ascii 1.0           
    element vertex 52
    property double x           
    property double y           
    property double z           
    end_header
-0.0154198 -0.388784 2.27579
-0.0770387 -0.589568 2.12576
-0.0532687 -0.536897 2.15461
-0.163087 -0.811243 2.04554
-0.120171 -0.756976 2.04216
-0.0249351 -0.80078 1.99905
-0.0254482 -0.486449 2.19411
-0.0885485 -0.81331 2.0239
-0.133339 -0.841847 1.99723
-0.177428 -0.866094 2.02357
-0.138396 -0.655441 2.14132
-0.0885105 -0.660409 2.09997
-0.0341329 -0.624574 2.09972
-0.154932 -0.737774 2.12181
-0.0603495 -0.730311 2.04958
0.0334016 -0.776637 1.99658
-0.0363603 -0.679022 2.07527
-0.0460237 -0.439514 2.24974
0.0856342 -0.810862 1.98519
0.0245026 -0.846 1.997
0.0202431 -0.457449 2.23188
0.00756054 -0.708342 2.04292
-0.0990283 -0.719587 2.10194
0.0882835 -0.75391 2.02197
0.0101968 -0.548728 2.17281
0.0247384 -0.618334 2.13163
-0.0879887 -0.878722 2.01035
-0.157927 -0.912628 2.0464
-0.00467066 -0.763428 2.05116
0.0316443 -0.685886 2.0955
-0.0290495 -0.856648 2.02212
0.132923 -0.804646 2.02892
-0.133221 -0.69796 2.14324
0.0853553 -0.864506 2.02165
0.0304126 -0.407732 2.31216
0.0352405 -0.514457 2.23209
0.117327 -0.756168 2.07341
0.0425983 -0.908618 2.04688
0.0460946 -0.613686 2.18821
0.0550759 -0.742022 2.07481
0.0412792 -0.540966 2.28125
0.0402282 -0.569987 2.22833
0.0268275 -0.718004 2.18418
0.0240149 -0.666057 2.21718
0.0205733 -0.846111 2.20225
0.0463015 -0.481833 2.2841
0.0475681 -0.885826 2.10484
0.0310104 -0.778729 2.18964
0.0489814 -0.736386 2.13628
0.131991 -0.810439 2.08254
0.00731178 -0.74305 2.23228
0.0865431 -0.843257 2.0783
