ply
    format ascii 1.0           
    element vertex 51
    property double x           
    property double y           
    property double z           
    end_header
0.132171 -0.419334 1.16507
0.109637 -0.182506 1.18544
0.171231 -0.435562 1.04642
0.115244 -0.411698 1.20829
0.132593 -0.350271 1.15153
0.0863913 -0.139582 1.20585
0.156671 -0.362014 1.10966
0.131011 -0.255524 1.10171
0.141337 -0.410465 1.11596
0.093576 -0.443417 1.23142
0.13303 -0.281943 1.14368
0.103244 -0.454942 1.18024
0.123561 -0.225385 1.16125
0.0560929 -0.0434795 1.21706
0.170024 -0.432933 1.08872
0.0715089 -0.0822274 1.1907
0.115638 -0.265674 1.18605
0.113208 -0.347536 1.20062
0.118457 -0.31015 1.17487
0.133781 -0.458195 1.0971
0.12669 -0.315284 1.06729
0.160676 -0.392274 1.06496
0.0712332 -0.193311 1.21265
0.0746517 -0.257788 1.21247
0.0843078 -0.394723 1.23968
0.119912 -0.318708 1.11417
0.0550625 -0.480904 1.15769
0.137305 -0.461274 1.03275
0.0535299 -0.112887 1.23034
0.0131853 -0.0495801 1.22899
0.0775617 -0.31607 1.20629
0.103059 -0.380025 1.17366
0.0522514 -0.430067 1.24723
0.0615176 -0.465233 1.20289
0.0351452 -0.15189 1.22163
0.0429729 -0.381382 1.2412
0.0342777 -0.236089 1.2092
0.067549 -0.360904 1.20619
-0.00183848 -0.152326 1.20416
0.0230234 -0.192413 1.20929
0.00766016 -0.238604 1.14071
0.0543238 -0.480998 1.15953
0.0236981 -0.445222 1.15323
-0.01236 -0.374226 1.10954
0.0343581 -0.430312 1.19148
0.0359579 -0.335784 1.19249
0.0210261 -0.303142 1.17257
0.0031421 -0.344221 1.15549
-0.00521833 -0.296646 1.13374
0.0203034 -0.415342 1.23177
-0.0145135 -0.335801 1.11077
