ply
    format ascii 1.0           
    element vertex 46
    property double x           
    property double y           
    property double z           
    end_header
-0.0888364 -0.262783 2.47445
-0.191223 -0.766978 2.17584
-0.148097 -0.605389 2.2562
-0.0445503 -0.684006 2.21665
-0.0480168 -0.396691 2.39706
-0.129993 -0.551776 2.29666
-0.160648 -0.714579 2.22078
-0.0634259 -0.464012 2.3712
-0.10284 -0.498716 2.32509
-0.0345751 -0.346584 2.4529
-0.0863988 -0.645247 2.25333
-0.0459033 -0.894656 2.3208
-0.0299782 -0.502625 2.32673
-0.132688 -0.812062 2.189
-0.0362672 -0.816708 2.25435
-0.0605162 -0.558165 2.30778
-0.141795 -0.682273 2.26634
-0.0535808 -0.622642 2.30991
0.0100203 -0.580633 2.3947
-0.116832 -0.737692 2.17601
-0.135578 -0.454605 2.35782
-0.197696 -0.646976 2.29003
-0.0139833 -0.744309 2.24818
-0.00832073 -0.448673 2.41461
-0.0907145 -0.727956 2.23733
-0.0157231 -0.676408 2.2791
-0.109952 -0.426761 2.39924
-0.075719 -0.783431 2.20537
-0.00925883 -0.633494 2.35767
0.0124666 -0.819909 2.3101
0.0238169 -0.784999 2.37119
-0.106351 -0.328638 2.47924
0.00145725 -0.701488 2.3604
-0.0115424 -0.511268 2.39166
-0.0518302 -0.288221 2.52432
0.00209978 -0.866446 2.36346
-0.0175089 -0.754949 2.31636
-0.112399 -0.425607 2.39189
-0.0241635 -0.63839 2.42776
-0.0675524 -0.37443 2.50755
-0.0444419 -0.491277 2.46965
-0.0899346 -0.26702 2.47485
-0.0223685 -0.822659 2.40499
-0.0621374 -0.696667 2.42497
-0.0781963 -0.445027 2.51481
-0.0383295 -0.422152 2.46352
