ply
    format ascii 1.0           
    element vertex 49
    property double x           
    property double y           
    property double z           
    end_header
-0.0294726 -0.292471 0.904728
-0.0929172 -0.323316 0.877615
-0.0740135 -0.253961 0.916488
-0.065577 -0.230991 0.93437
-0.0302548 -0.165802 0.982565
-0.0530844 -0.20875 0.947624
-0.0482003 -0.273429 0.918267
-0.0569788 -0.133144 1.01376
-0.071053 -0.344869 0.887531
-0.0255257 -0.144016 1.0079
-0.0226285 -0.21348 0.953356
-0.060282 -0.313266 0.882841
-0.0366029 -0.23639 0.943127
-0.0810201 -0.301626 0.899542
-0.0364808 -0.2648 0.944579
-0.0379719 -0.194802 0.9707
-0.0687711 -0.188201 0.960925
-0.0167433 -0.189858 0.993009
-0.0973005 -0.269624 0.926055
-0.0212003 -0.319504 0.920399
-0.0335479 -0.349705 0.921473
-0.0581195 -0.155888 0.999577
-0.0466193 -0.334216 0.898028
-0.0751047 -0.288014 0.921829
-0.0131989 -0.248074 0.985208
-0.083415 -0.214702 0.953911
-0.0574777 -0.176214 0.976501
-0.0439917 -0.381926 0.949134
-0.0536807 -0.310123 0.912218
-0.021113 -0.270883 0.967854
-0.0160019 -0.352408 0.948488
-0.0479652 -0.104962 1.01561
-0.0142017 -0.337246 0.975927
-0.0355502 -0.117985 1.03791
-0.0209517 -0.289698 0.933377
-0.01954 -0.300702 0.969934
-0.0190534 -0.217498 0.982794
-0.026012 -0.37176 0.970956
-0.0260557 -0.323418 0.949141
-0.0483808 -0.105561 1.01505
-0.0319376 -0.271806 0.997442
-0.0441603 -0.154412 1.02961
-0.036842 -0.206817 1.01463
-0.0317845 -0.176662 1.01208
-0.0437499 -0.253708 1.01085
-0.0501683 -0.295861 0.994091
-0.0402649 -0.352163 0.98765
-0.0529866 -0.184746 1.03233
-0.0592034 -0.227408 1.0094
