ply
    format ascii 1.0           
    element vertex 47
    property double x           
    property double y           
    property double z           
    end_header
0.123128 -0.204107 1.56764
0.12591 -0.11121 1.488
0.118537 -0.274611 1.42597
0.116248 -0.0130255 1.60745
0.0845042 0.17155 1.62989
0.106906 0.106887 1.60845
0.102094 0.257926 1.59226
0.10219 -0.214137 1.46128
0.118183 -1.2561e-05 1.54499
0.116921 -0.0513162 1.51327
0.098729 0.0452758 1.58578
0.107354 -0.150457 1.53678
0.105681 -0.0595166 1.57427
0.131408 -0.257648 1.49612
0.070952 0.210988 1.57261
0.0788818 0.150953 1.5618
0.0542291 0.255494 1.62577
0.0758603 -0.111299 1.57229
0.0308121 -0.0470273 1.63725
0.0713859 0.0678487 1.63785
0.092278 0.0934785 1.55132
0.0873843 -0.308746 1.4735
0.110028 0.0555001 1.52134
0.0367415 -0.292144 1.56183
0.0847939 -0.169374 1.48457
0.0785631 -0.122405 1.43995
0.0887325 -0.223947 1.52239
0.0876301 -0.283877 1.52846
-0.0452392 -0.323022 1.55315
0.0736019 -0.240591 1.58818
-0.0068512 -0.273606 1.60752
0.0350865 -0.10308 1.61309
0.0772866 -0.171546 1.59685
-0.0358607 -0.219705 1.62966
0.00480947 -0.156503 1.61631
0.0610783 0.00894191 1.62606
0.0572349 -0.056806 1.584
-0.0676623 -0.285091 1.5998
0.0152291 -0.216447 1.58809
-0.016094 -0.0782348 1.61231
0.0292333 0.18505 1.59845
0.0440103 0.11881 1.61557
0.0106015 0.0659783 1.60696
-0.00395396 0.12538 1.59178
-0.0449974 -0.114657 1.56122
-0.029001 -0.0324198 1.60666
-0.0837587 -0.225968 1.57664
