ply
    format ascii 1.0           
    element vertex 47
    property double x           
    property double y           
    property double z           
    end_header
-0.0206668 -0.0928159 0.871981
0.00625229 -0.243505 0.768231
0.00755539 -0.178869 0.813375
-0.0110951 -0.229686 0.781573
-0.0194051 -0.176635 0.81021
-0.0338673 -0.214646 0.780631
-0.0021519 -0.1408 0.841192
-0.0193275 -0.261902 0.749725
-0.0467701 -0.272194 0.745417
-0.0262973 -0.116737 0.869122
-0.0285029 -0.195646 0.797545
-0.0379411 -0.254001 0.765932
-0.00714231 -0.164833 0.829862
-0.00345176 -0.198505 0.804262
-0.0262592 -0.289352 0.752049
0.00695192 -0.292708 0.778911
0.00125258 -0.123402 0.863256
-0.0259198 -0.13488 0.854964
0.000338301 -0.321553 0.800522
-0.0012677 -0.222558 0.803517
0.018389 -0.209073 0.837786
0.0154815 -0.266306 0.779337
-0.0538668 -0.230723 0.789731
-0.0246273 -0.151057 0.836258
-0.0441754 -0.183613 0.815451
-0.0337422 -0.161414 0.82247
-0.00855549 -0.103867 0.889698
-0.0330732 -0.243061 0.782956
-0.00532253 -0.279466 0.759559
0.0117716 -0.160738 0.847835
0.0126736 -0.227781 0.822327
-0.0524273 -0.294744 0.770709
0.0223388 -0.294796 0.801099
0.014257 -0.242194 0.79211
-0.0120688 -0.259212 0.772484
0.0240129 -0.283248 0.824734
0.0168423 -0.252911 0.821847
0.0111647 -0.183481 0.837657
0.0155109 -0.312665 0.819147
0.0111247 -0.271702 0.803688
-0.00515227 -0.27937 0.76055
0.00431551 -0.231021 0.846539
-0.00463139 -0.17717 0.865596
-0.0135772 -0.134208 0.881949
-0.00711087 -0.217476 0.859641
-0.00235045 -0.151187 0.865426
-0.00806979 -0.102287 0.890829
