ply
    format ascii 1.0           
    element vertex 46
    property double x           
    property double y           
    property double z           
    end_header
0.156474 -1.59941 3.32163
0.161243 -1.58281 3.41286
0.15711 -1.59211 3.34606
0.159112 -1.5949 3.34971
0.156337 -1.59791 3.33072
0.157021 -1.59559 3.3344
1.39195 0.808405 -58.7639
0.158687 -1.59046 3.36343
0.159239 -1.6022 3.31551
0.157665 -1.59774 3.34137
0.160145 -1.60387 3.31563
0.158622 -1.60444 3.31596
0.158305 -1.60077 3.32637
0.157809 -1.60286 3.3163
0.160314 -1.60216 3.31209
0.157128 -1.58342 3.38914
0.155612 -1.60118 3.32412
0.163319 -1.60737 3.41151
0.156779 -1.60482 3.31901
0.154184 -1.59994 3.32417
0.15555 -1.60861 3.32957
0.158604 -1.61045 3.33661
0.159508 -1.597 3.38607
0.16118 -1.60202 3.3176
0.155935 -1.60327 3.32171
0.157393 -1.60218 3.32308
0.153847 -1.59567 3.34244
-0.414156 -2.19589 6.49852
0.153259 -1.60382 3.33193
0.160127 -1.60254 3.32704
0.150065 -1.60339 3.34184
0.151299 -1.61218 3.34966
0.154488 -1.59831 3.32712
0.143378 -1.61881 3.40221
0.154599 -1.59277 3.35312
0.154374 -1.58828 3.37145
0.148229 -1.59627 3.37597
0.118834 -1.65979 3.54512
0.154245 -1.60638 3.33268
0.15225 -1.6003 3.33259
-2.54383 -5.51671 18.7668
0.159268 -1.60826 3.32965
0.141086 -1.64434 3.4792
0.00637165 -2.58978 7.2314
0.148045 -1.56771 3.49767
-0.590345 -3.03832 9.07393
