ply
    format ascii 1.0           
    element vertex 47
    property double x           
    property double y           
    property double z           
    end_header
-0.286867 -0.188655 3.70433
-0.33891 -0.304066 3.60567
-0.267337 -0.478281 3.5348
-0.250462 -0.752264 3.41532
-0.210888 -0.615943 3.50355
-0.402418 -0.295053 3.65008
-0.313361 -0.579553 3.53701
-0.0686346 -0.862647 3.49978
-0.359836 -0.139536 3.76448
-0.11863 -0.623409 3.53167
-0.180606 -0.427338 3.58208
-0.308381 -0.829401 3.44038
-0.148777 -0.92614 3.51279
-0.283642 -0.67556 3.47097
-0.361626 -0.743165 3.49718
-0.309938 -0.403278 3.58663
-0.388991 -0.229753 3.71231
-0.445434 -0.157738 3.82066
-0.338331 -0.487708 3.61215
-0.0838195 -0.708356 3.54083
-0.263002 -0.892282 3.52268
-0.265751 -0.973285 3.60543
-0.198705 -0.835061 3.46872
-0.0152835 -0.792017 3.54282
-0.206875 -0.274215 3.66216
-0.124345 -0.783394 3.50104
-0.230423 -0.362106 3.62943
-0.10815 -0.472482 3.66467
-0.200029 -0.735656 3.49343
-0.0892318 -0.573986 3.67146
-0.140061 -0.378123 3.6755
-0.180045 -0.526752 3.5421
-0.0809505 -0.668367 3.6311
-0.264472 -0.179804 3.81137
-0.0479609 -0.764839 3.64639
-0.21441 -0.257785 3.77148
-0.153464 -0.921846 3.51781
-0.374536 -0.234833 3.70533
-0.302758 -0.580112 3.53318
-0.298822 -0.825288 3.43482
-0.299436 -0.307116 3.59221
-0.350817 -0.732495 3.48158
-0.354803 -0.65856 3.54198
-0.374901 -0.587868 3.59555
-0.368159 -0.398209 3.64821
-0.381733 -0.505835 3.66036
-0.198409 -0.28166 3.6569
