ply
    format ascii 1.0           
    element vertex 58
    property double x           
    property double y           
    property double z           
    end_header
0.0158212 -0.109936 1.03979
0.112005 -0.175618 1.05609
-0.0223994 0.0198681 1.11305
0.12586 -0.228718 1.03881
-0.00572173 -0.218333 1.02921
-0.0374444 -0.255443 1.00812
0.0751513 -0.24656 1.02995
-0.124237 0.0981338 1.11239
0.039221 -0.162853 1.02482
-0.0388811 -0.111359 1.04256
-0.0863657 -0.116187 1.02362
-0.00971266 -0.0633534 1.07161
-0.101302 -0.0213617 1.06637
-0.122154 0.0285341 1.08508
0.0275441 -0.276971 1.01801
-0.063086 -0.0630141 1.05165
-0.111813 -0.0869668 1.05131
-0.0915538 -0.26715 1.01433
-0.0978454 -0.212025 1.06297
-0.01441 -0.160607 1.03306
0.0683863 -0.204336 1.06637
-0.0685073 -0.162402 1.03638
-0.0206011 -0.377424 1.12456
-0.0530558 -0.305795 1.05204
-0.134929 -0.06332 1.09001
-0.0374279 -0.345606 1.08966
-0.128905 -0.283288 1.05289
-0.126263 -0.15167 1.11501
-0.129841 -0.101948 1.12358
-0.102896 -0.143043 1.06904
-0.0437811 -0.34367 1.16865
-0.142936 -0.0525535 1.14462
-0.0389975 -0.275272 1.20238
-0.0393501 -0.299125 1.15056
-0.0868495 -0.221671 1.03879
-0.0495786 -0.293764 1.09795
-0.143666 -0.0151773 1.10543
0.0771152 -0.244514 1.02291
-0.120776 0.030178 1.08269
-0.038141 -0.25482 1.00369
0.12823 -0.225758 1.03831
0.0684012 -0.202744 1.06782
-0.00566679 -0.219016 1.02572
-0.0390521 -0.110189 1.03924
-0.0620324 -0.0630603 1.04868
-0.00787892 -0.0600699 1.0695
-0.0208285 0.0280964 1.11327
-0.0438144 -0.0188357 1.07755
0.0143836 -0.0166771 1.1082
-0.0726376 0.0212309 1.09718
0.131423 -0.137349 1.09033
-0.11174 0.0761416 1.15451
0.0457927 -0.0837256 1.08296
0.0656887 -0.137085 1.0723
0.107753 -0.128986 1.13978
0.113118 -0.294473 1.15284
0.155218 -0.164921 1.13079
0.154513 -0.219786 1.10267
