ply
    format ascii 1.0           
    element vertex 59
    property double x           
    property double y           
    property double z           
    end_header
-0.0910629 -0.496715 2.63878
-0.346153 -0.143685 2.48106
-0.0488783 -0.37664 2.40632
-0.069439 -0.574016 2.62425
-0.00251311 -0.510796 2.41498
-0.0313832 -0.569732 2.55991
-0.0503131 -0.447375 2.44685
-0.0300566 -0.552415 2.49021
-0.142736 -0.446434 2.50287
-0.00151692 -0.656777 2.52906
-0.231887 -0.25033 2.46871
-0.178708 -0.303554 2.44851
-0.17781 -0.374649 2.4928
-0.0667326 -0.511189 2.53578
-0.179309 -0.279308 2.37543
0.00106079 -0.583721 2.43154
-0.2336 -0.225377 2.39347
-0.0222904 -0.591691 2.36468
-0.0372175 -0.460892 2.36865
-0.0429148 -0.711328 2.54981
-0.0480257 -0.634574 2.57681
-0.0819809 -0.401411 2.3327
-0.0379153 -0.650408 2.43112
-0.03872 -0.528584 2.34101
-0.107255 -0.586565 2.3165
-0.149081 -0.523459 2.29011
-0.18052 -0.438085 2.28373
-0.0945425 -0.48577 2.31926
-0.12683 -0.354452 2.39037
-0.0871304 -0.647256 2.36786
-0.223002 -0.341497 2.35297
-0.308889 -0.214852 2.37025
-0.146838 -0.67248 2.33785
-0.200131 -0.719806 2.32112
-0.292413 -0.293645 2.36548
-0.210554 -0.646255 2.3398
-0.257424 -0.683188 2.30976
-0.165116 -0.393075 2.34096
-0.222862 -0.571745 2.31475
-0.302249 -0.471429 2.28932
-0.307094 -0.727717 2.31765
-0.325916 -0.410623 2.32457
-0.18538 -0.791237 2.34299
-0.284631 -0.518331 2.34265
-0.388673 -0.707635 2.3674
-0.268973 -0.398765 2.36833
-0.209391 -0.503787 2.31991
-0.334389 -0.341393 2.39627
-0.386678 -0.225782 2.39177
-0.424286 -0.195145 2.43492
-0.323904 -0.668447 2.35672
-0.340906 -0.590989 2.373
-0.404161 -0.666663 2.41878
-0.247169 -0.437323 2.32158
-0.253972 -0.764805 2.35197
-0.277099 -0.605357 2.34447
-0.277264 -0.183054 2.44622
-0.357648 -0.152452 2.49312
0.00266884 -0.506423 2.41869
