ply
    format ascii 1.0           
    element vertex 49
    property double x           
    property double y           
    property double z           
    end_header
-0.0457269 -0.577506 2.86034
-0.172588 -0.588315 3.05714
-0.0749133 -0.265754 2.7344
-0.0255337 0.138091 2.7229
0.424268 -0.805374 3.10205
0.0134207 -0.716732 2.95325
0.130221 -0.239902 2.68607
0.0350516 -0.439131 2.76982
0.168656 -0.563857 2.81899
-0.0101494 0.334946 2.74061
0.201196 -0.707595 2.93223
0.15787 -0.780108 3.09914
0.490802 -0.580887 3.0322
0.6462 -0.311509 3.06505
0.218903 -0.358515 2.81696
0.300762 -0.685679 3.10545
0.416126 -0.419607 2.99339
0.164607 0.327839 2.83126
0.329514 -0.57607 2.9682
0.147915 0.126014 2.81361
0.618548 -0.503963 3.12943
0.509686 -0.665311 3.17278
0.0749058 0.508862 2.77446
0.247701 0.0099836 2.95278
0.482752 -0.2993 3.10794
0.277204 -0.181098 3.01176
0.337304 -0.0732826 3.17506
0.440628 -0.837548 3.2742
0.389449 0.0511269 3.31267
0.156418 0.563455 2.94003
0.160211 -0.181979 2.8745
-0.139485 -0.414214 2.86417
0.0346902 -0.0839737 2.77026
0.120271 0.738098 2.87725
0.0284522 0.895616 2.95233
-0.0473044 0.64537 2.84672
-0.131001 0.462165 2.8342
-0.127409 -0.113011 2.84621
-0.279768 -0.2028 2.92347
-0.136782 0.0803295 2.87157
-0.390908 -0.536389 3.60763
-0.381826 -0.0659944 3.18286
-0.300321 0.103234 3.13968
-0.256308 -0.0752879 3.03511
-0.173325 -0.595934 3.05564
-0.15785 0.285816 2.92347
-0.267367 -0.702381 3.43726
-0.254659 -0.413377 3.0135
-0.313738 -0.350421 3.79688
