ply
    format ascii 1.0           
    element vertex 55
    property double x           
    property double y           
    property double z           
    end_header
0.392792 -0.103336 0.536751
0.394783 -0.113116 0.53397
0.397301 -0.117977 0.533518
0.395403 -0.111677 0.535043
0.395505 -0.118064 0.531125
0.396282 -0.117079 0.532368
0.393169 -0.104505 0.538419
0.397026 -0.114157 0.536319
0.394645 -0.116496 0.53105
0.395759 -0.11527 0.533906
0.396046 -0.112892 0.536267
0.392487 -0.104663 0.535513
0.394004 -0.106331 0.535345
0.395298 -0.110117 0.536215
0.397188 -0.115105 0.535069
0.391593 -0.107661 0.53424
0.397391 -0.116741 0.53565
0.394415 -0.108814 0.535339
0.394391 -0.114655 0.533105
0.394402 -0.110349 0.534533
0.39581 -0.113986 0.535096
0.393518 -0.105304 0.536714
0.391114 -0.109361 0.534428
0.392262 -0.10623 0.534899
0.391874 -0.111001 0.53434
0.39347 -0.115476 0.532189
0.392873 -0.109473 0.534612
0.393718 -0.118068 0.530989
0.39294 -0.107868 0.535322
0.39448 -0.119489 0.531784
0.392759 -0.114298 0.532717
0.393538 -0.111843 0.534262
0.393134 -0.113203 0.533676
0.390855 -0.105191 0.535354
0.394535 -0.116307 0.532787
0.393283 -0.116763 0.531409
0.397703 -0.118919 0.537162
0.396045 -0.118911 0.532668
0.396273 -0.119815 0.534321
0.397197 -0.117165 0.53774
0.396055 -0.116944 0.534065
0.397393 -0.118643 0.535253
0.395635 -0.112236 0.537854
0.396852 -0.115451 0.537425
0.393678 -0.106601 0.53774
0.394166 -0.107642 0.53665
0.396343 -0.113853 0.537661
0.397619 -0.117994 0.538567
0.394199 -0.108402 0.538109
0.394636 -0.110301 0.538262
0.3959 -0.118986 0.532713
0.394327 -0.119587 0.531899
6.18801 0.410065 -4.07418
0.329302 -0.110941 0.579417
0.336554 -0.10883 0.576987
