ply
    format ascii 1.0           
    element vertex 54
    property double x           
    property double y           
    property double z           
    end_header
-0.118324 -0.432734 0.973669
-0.0971903 -0.403404 0.995557
-0.0943969 -0.551026 0.977055
-0.0795742 -0.484717 1.00541
-0.095947 -0.283208 0.990198
-0.111183 -0.483119 0.978448
-0.111433 -0.370303 0.977757
-0.1343 -0.546977 0.922683
-0.141952 -0.509531 0.914654
-0.100589 -0.33706 0.994457
-0.152989 -0.299819 0.964787
-0.110932 -0.527495 0.948217
-0.135096 -0.464434 0.956519
-0.158018 -0.477713 0.934478
-0.17087 -0.537379 0.918225
-0.164055 -0.570093 0.941899
-0.137022 -0.344227 0.976509
-0.167529 -0.371532 0.974401
-0.130324 -0.272337 0.975994
-0.167114 -0.448482 0.943753
-0.171587 -0.332385 0.968682
-0.125746 -0.308922 0.988667
-0.137527 -0.398936 0.976533
-0.152404 -0.241367 0.981817
-0.153409 -0.42631 0.965016
-0.17389 -0.507766 0.927285
-0.19551 -0.473235 0.951174
-0.185567 -0.541916 0.957636
-0.178254 -0.407891 0.981351
-0.167399 -0.271629 0.982449
-0.101372 -0.209733 1.01348
-0.117127 -0.238562 0.988192
-0.18492 -0.443358 0.980629
-0.0834494 -0.518356 1.02105
-0.100524 -0.453496 1.00161
-0.0948409 -0.548004 0.977808
-0.0884974 -0.367915 1.01784
-0.0873814 -0.429634 1.02473
-0.0988926 -0.255059 1.01608
-0.075808 -0.46118 1.03056
-0.096812 -0.232062 1.05059
-0.100886 -0.309678 1.01946
-0.0883372 -0.559732 1.05614
-0.128355 -0.562964 0.960324
-0.113184 -0.518368 0.987029
-0.0832058 -0.519865 1.06514
-0.095031 -0.557192 1.01717
-0.122983 -0.577322 0.996911
-0.0998345 -0.411311 1.05625
-0.0852162 -0.483804 1.05386
-0.092977 -0.447419 1.05879
-0.112078 -0.363383 1.05785
-0.161373 -0.568283 0.94026
-0.142423 -0.509051 0.916696
