ply
    format ascii 1.0           
    element vertex 64
    property double x           
    property double y           
    property double z           
    end_header
-0.183518 -0.0933334 1.65582
-0.211331 -0.0175174 1.70131
-0.212398 -0.182181 1.63274
-0.358123 -0.313657 1.67322
-0.239325 -0.138554 1.67091
-0.275339 -0.306117 1.62066
-0.240761 -0.281637 1.61245
-0.27362 -0.220294 1.64769
-0.345646 -0.395712 1.66782
-0.249715 -0.185215 1.66094
-0.327262 -0.43463 1.66014
-0.244959 -0.0843982 1.70923
-0.335421 -0.349169 1.65011
-0.280336 -0.2702 1.64329
-0.295972 -0.240816 1.68064
-0.272872 -0.162052 1.69239
-0.283972 -0.203453 1.69004
-0.215595 -0.103875 1.68371
-0.306406 -0.276604 1.67713
-0.340818 -0.286977 1.69481
-0.204115 -0.0253772 1.74293
-0.313449 -0.259968 1.71654
-0.357376 -0.355878 1.68767
-0.291219 -0.228222 1.72559
-0.23788 -0.127082 1.71757
-0.255953 -0.159129 1.73311
-0.367244 -0.308364 1.71321
-0.355789 -0.3406 1.72743
-0.262475 -0.196673 1.73031
-0.217168 -0.110294 1.74703
-0.347172 -0.407767 1.73746
-0.316547 -0.385892 1.64119
-0.295928 -0.33957 1.63532
-0.178459 -0.0599796 1.68907
-0.320851 -0.307974 1.65541
-0.273734 -0.408246 1.62626
-0.234649 -0.413397 1.6084
-0.228709 -0.3721 1.615
-0.189872 -0.393584 1.60864
-0.272464 -0.374965 1.64421
-0.235114 -0.250359 1.63886
-0.221815 -0.321437 1.61485
-0.196147 -0.147323 1.65373
-0.186766 -0.350956 1.62087
-0.255178 -0.340962 1.63346
-0.216255 -0.217008 1.65703
-0.201998 -0.28351 1.62487
-0.177132 -0.0154929 1.71299
-0.187397 -0.252624 1.65445
-0.299267 -0.455977 1.67845
-0.212295 -0.070078 1.72637
-0.180416 -0.424374 1.62658
-0.158959 -0.15363 1.66431
-0.313069 -0.26206 1.71679
-0.367279 -0.308607 1.7128
-0.3501 -0.405576 1.73521
-0.237044 -0.129542 1.71702
-0.360962 -0.338181 1.72485
-0.205723 -0.0232522 1.7438
-0.291566 -0.229129 1.72504
-0.3386 -0.298831 1.73124
-0.26703 -0.197612 1.72953
-0.256664 -0.161111 1.73188
-0.307915 -0.281932 1.74655
