ply
    format ascii 1.0           
    element vertex 55
    property double x           
    property double y           
    property double z           
    end_header
-0.158705 1.04422 2.79487
-0.269886 -0.14939 2.32829
-0.345914 -0.0404382 2.39803
-0.207561 0.850068 2.65268
-0.365391 0.0944553 2.37237
-0.17976 -0.258135 2.30315
-0.257376 0.0150964 2.30614
0.00478167 0.895867 2.53224
-0.00607901 -0.117329 2.25468
-0.0875559 0.208881 2.27647
-0.234472 0.359106 2.46934
-0.228262 0.476412 2.52205
-0.161425 0.455104 2.39642
-0.226218 0.605505 2.55379
-0.00346437 0.625772 2.40771
-0.141979 0.300655 2.36162
-0.16577 -0.082124 2.27802
0.129011 -0.0961125 2.22956
0.001836 0.313612 2.29214
-0.134536 0.714459 2.52054
-0.244436 0.150948 2.3522
-0.135345 0.0787825 2.29359
-0.118945 0.571989 2.47141
0.10807 0.0354143 2.27358
-0.342465 0.175828 2.46219
0.0910949 0.206729 2.29681
0.252425 0.00519649 2.26691
-0.235712 0.241169 2.44115
0.219873 0.133023 2.31948
-0.00738268 0.111517 2.31962
-0.046203 -0.0317447 2.31992
-0.151508 1.07005 2.66236
0.113369 0.580779 2.50371
0.113805 0.32898 2.34961
0.00289525 0.726287 2.48198
-0.0697081 1.09513 2.72563
0.00463222 0.505379 2.47208
0.124342 0.738008 2.57266
-0.0208428 0.394397 2.3843
0.0652053 -0.213368 2.34983
0.055666 0.848267 2.60266
-0.0190832 0.982396 2.64458
-0.296547 0.265715 2.55595
-0.0972667 0.83007 2.59467
-0.423152 0.0815818 2.48316
-0.314172 -0.231071 2.53411
-0.214724 0.485069 2.65113
-0.262726 0.373431 2.60988
-0.149041 0.719674 2.67108
-0.265546 0.172406 2.6602
-0.203713 0.603545 2.68409
-0.349693 0.121257 2.5674
-0.204751 0.386893 2.73631
-0.265016 -0.270416 2.63741
-0.0615345 0.907887 2.84234
