ply
    format ascii 1.0           
    element vertex 61
    property double x           
    property double y           
    property double z           
    end_header
0.355143 -0.450134 2.34518
0.316709 -0.516343 2.33588
0.323809 -0.518959 2.33031
0.350383 -0.448723 2.35401
0.313433 -0.538982 2.34542
0.350699 -0.477816 2.34064
0.345527 -0.497709 2.33444
0.34143 -0.482752 2.34127
0.346052 -0.464193 2.34563
0.320938 -0.528144 2.33458
0.364101 -0.467907 2.34371
0.331461 -0.496875 2.34632
0.338492 -0.492261 2.34022
0.336526 -0.501119 2.33797
0.343585 -0.509352 2.3341
0.32777 -0.504713 2.34275
0.324836 -0.538143 2.33359
0.328425 -0.547922 2.3359
0.359742 -0.488937 2.33818
0.325078 -0.512028 2.33635
0.332944 -0.494015 2.35671
0.333628 -0.517985 2.33194
0.34516 -0.467721 2.35653
0.330418 -0.527856 2.33049
0.336913 -0.489334 2.34973
0.31959 -0.530281 2.34431
0.315779 -0.523131 2.3413
0.346859 -0.518675 2.33172
0.330983 -0.55336 2.34448
0.334345 -0.536769 2.3328
0.354017 -0.5445 2.33918
0.340365 -0.526327 2.33237
0.324223 -0.538341 2.3457
0.360575 -0.480055 2.34305
0.344197 -0.542749 2.33696
0.357736 -0.521745 2.33895
0.354944 -0.513114 2.33364
0.349228 -0.489102 2.33919
0.33406 -0.510135 2.33764
0.355103 -0.534164 2.34016
0.361381 -0.459394 2.34876
0.363533 -0.539218 2.34476
0.353507 -0.504569 2.33838
0.363275 -0.528589 2.34601
0.354348 -0.468905 2.34547
0.348423 -0.525775 2.33804
0.342513 -0.534247 2.33923
0.363422 -0.491689 2.35086
0.360121 -0.448479 2.3514
0.361122 -0.48075 2.34178
0.360928 -0.512444 2.34227
0.35527 -0.496027 2.34448
0.367472 -0.52721 2.35854
0.366498 -0.480129 2.35224
0.361892 -0.545268 2.35445
0.34182 -0.548813 2.3529
0.352318 -0.550737 2.35565
0.364785 -0.470872 2.3493
0.262199 -0.512389 2.44311
12.3098 -4.75601 -19.5836
0.384815 -0.527575 2.25192
