ply
    format ascii 1.0           
    element vertex 62
    property double x           
    property double y           
    property double z           
    end_header
0.385749 -0.28594 2.09156
0.123719 0.721743 1.98852
0.178606 0.865773 2.09635
0.217715 0.0764851 1.84821
0.110808 0.523266 2.00261
0.127323 0.301846 2.05011
0.119018 1.09504 2.07305
0.0121602 0.426355 1.97913
0.0362617 0.809172 2.02151
0.0339168 1.0001 2.03068
0.0616027 0.200232 1.96667
0.00849637 0.676235 2.00581
0.145695 -0.0574291 1.78239
-0.14939 0.335071 2.01926
0.14911 -0.326821 1.94937
0.178986 -0.14959 1.87201
-0.0775894 0.204163 1.99093
-0.132405 0.067682 1.93284
-0.238642 -0.00423915 1.96279
-0.00331303 0.312357 2.02288
0.034888 -0.194686 1.87634
-0.0919783 -0.0608935 1.95924
-0.0100018 0.0650497 1.94883
-0.113062 -0.194086 1.98368
-0.393966 -0.259373 2.25151
0.0354491 -0.0456775 1.8706
-0.323742 -0.142203 2.18094
-0.107243 -0.327248 2.04299
-0.190529 0.132382 2.0272
-0.164977 0.519917 2.14069
0.100859 0.0439332 1.81917
-0.0339056 0.546186 2.02474
0.00840148 0.951457 2.1415
-0.431369 -0.117066 2.25607
-0.217338 -0.0761407 2.08256
0.0010326 -0.265335 1.99607
-0.184751 -0.228798 2.10747
-0.272805 -0.319325 2.17338
-0.1784 -0.402255 2.28804
-0.193063 0.249594 2.13387
-0.310788 -0.374772 2.30913
-0.193727 0.384454 2.15504
-0.277512 0.0444622 2.09036
-0.276487 0.101333 2.23487
-0.0690964 0.740125 2.07249
-0.0840776 0.721312 2.20776
-0.159726 0.338569 2.29341
-0.363293 -0.278684 2.39112
-0.433606 -0.18974 2.35214
0.152793 -0.329387 1.94995
0.0588796 0.202651 1.96427
-0.00301443 0.30783 2.01908
-0.0095577 0.0597539 1.94086
0.384639 -0.283849 2.08716
0.107554 0.52491 2.0023
0.0325012 0.829699 2.02827
-0.077423 0.203674 1.99534
0.218178 0.071749 1.84365
0.249589 -0.239643 1.97395
0.208001 0.72339 2.07475
0.164278 0.468095 2.10173
0.125062 1.09568 2.09112
