ply
    format ascii 1.0           
    element vertex 51
    property double x           
    property double y           
    property double z           
    end_header
-0.472452 -0.303497 2.66652
-0.415686 -0.822128 2.47796
-0.427827 -0.349587 2.62633
-0.578984 -0.792849 2.50168
-0.561431 -0.629667 2.53648
-0.597949 -0.573573 2.5661
-0.523951 -0.661902 2.47862
-0.665364 -0.698869 2.56868
-0.592667 -0.873044 2.5451
-0.483521 -0.391727 2.60906
-0.557532 -0.719191 2.49144
-0.436472 -0.466432 2.5988
-0.51339 -0.862944 2.50045
-0.642376 -0.788557 2.5438
-0.594927 -0.530114 2.61745
-0.654684 -0.848321 2.57443
-0.502344 -0.457118 2.60535
-0.659751 -0.66001 2.63295
-0.673982 -0.765269 2.59423
-0.520194 -0.488515 2.67408
-0.614556 -0.630304 2.60186
-0.593289 -0.680592 2.56461
-0.493696 -0.419842 2.68002
-0.612974 -0.587918 2.65832
-0.640021 -0.913534 2.59319
-0.48863 -0.344755 2.72002
-0.523405 -0.571681 2.56644
-0.412343 -0.761907 2.51709
-0.484704 -0.631118 2.52753
-0.444375 -0.889311 2.50466
-0.46682 -0.820198 2.51036
-0.509637 -0.762724 2.52333
-0.469329 -0.708815 2.52305
-0.409294 -0.534745 2.61513
-0.476283 -0.524292 2.59812
-0.448711 -0.59645 2.61196
-0.357638 -0.815656 2.52382
-0.531466 -0.820523 2.53423
-0.446808 -0.658544 2.55636
-0.384315 -0.485375 2.65011
-0.3752 -0.373413 2.68294
-0.532202 -0.55245 2.63543
-0.522699 -0.491964 2.67423
-0.429967 -0.904521 2.52147
-0.675783 -0.765182 2.59157
-0.611605 -0.632289 2.60425
-0.560063 -0.629706 2.53671
-0.590601 -0.682991 2.56362
-0.617922 -0.734663 2.52221
-0.501245 -0.457097 2.6043
-0.495158 -0.423281 2.67988
