ply
    format ascii 1.0           
    element vertex 49
    property double x           
    property double y           
    property double z           
    end_header
-0.0682396 -0.669238 2.08769
-0.0997607 -0.629844 2.01893
-0.184893 -0.399916 2.13418
-0.3763 -0.122471 2.12342
-0.0560601 -0.751629 2.08711
-0.137655 -0.428642 2.01589
-0.124827 -0.547444 2.03685
-0.0837191 -0.666447 2.16672
-0.122277 -0.476566 2.08088
-0.154482 -0.514449 1.95682
-0.108664 -0.601724 2.11059
-0.23732 -0.261326 1.96829
-0.148746 -0.603187 1.93768
-0.190945 -0.372447 2.03934
-0.241831 -0.313558 2.04774
-0.351044 -0.210925 2.09957
-0.251887 -0.360308 1.96993
-0.398562 -0.0823143 2.03194
-0.379953 -0.18916 1.99253
-0.283635 -0.420405 1.91101
-0.291208 -0.214125 2.02611
-0.180502 -0.544001 1.86855
-0.216169 -0.440948 1.97262
-0.129034 -0.709714 2.03975
-0.237546 -0.501604 1.92006
-0.327045 -0.2564 1.9548
-0.187367 -0.684644 1.94093
-0.339838 -0.767724 1.89093
-0.277979 -0.683577 1.9273
-0.36482 -0.416832 1.94114
-0.257168 -0.766234 1.94847
-0.352741 -0.679828 1.88189
-0.36313 -0.595622 1.91616
-0.213928 -0.226588 2.06189
-0.43255 -0.646743 1.90192
-0.275551 -0.600974 1.88293
-0.336731 -0.339146 1.96848
-0.341058 -0.0806112 2.024
-0.429116 -0.727905 1.89522
-0.369754 -0.52322 1.96836
-0.323177 -0.853548 1.99809
-0.291414 -0.552181 1.94404
-0.398708 -0.272195 2.03083
-0.385809 -0.801975 1.95789
-0.467506 -0.10787 2.08182
-0.0610022 -0.752705 2.09593
-0.234116 -0.714845 2.00801
-0.359342 -0.128832 2.10744
-0.376178 -0.192448 1.99109
