ply
    format ascii 1.0           
    element vertex 61
    property double x           
    property double y           
    property double z           
    end_header
0.486413 -3.66651 10.4221
-0.543277 -2.10194 11.4235
0.672845 -3.74174 10.119
0.65548 -3.41263 10.2662
-0.154724 -3.66416 11.1955
0.436181 -3.97532 10.2774
-0.212046 -2.52912 11.1216
0.0611097 -3.75701 10.7795
-0.0595249 -3.15808 11.0114
0.0266582 -2.68851 10.7976
-0.562918 -2.45211 11.2398
-0.206527 -4.20043 10.3651
-0.373708 -3.09402 11.1551
-0.0589599 -3.98415 10.5521
-0.506956 -2.7732 11.151
0.1857 -3.81377 10.4438
-0.935044 -2.37516 11.2484
-0.379591 -4.092 10.6116
-0.283542 -3.81801 10.7501
-0.259234 -3.37374 11.1239
-0.816226 -2.66197 11.1286
-0.895616 -2.9404 10.9848
-1.15179 -2.04876 11.2363
-0.870067 -2.04387 11.3188
-0.490766 -3.63079 11.1323
-1.14056 -1.72212 11.1028
-0.718468 -4.07169 10.4607
-0.872902 -1.62491 11.3185
-0.606318 -3.87802 10.6513
-0.370674 -4.25011 10.1503
-0.879951 -3.84794 10.4925
-0.582308 -3.31738 11.0221
-0.500859 -4.109 10.3394
-0.774555 -3.59081 10.5276
-1.14264 -2.22068 10.9479
-0.566868 -3.59628 10.7891
-0.691729 -3.09449 10.8748
-0.705206 -3.31905 10.5783
-0.656032 -1.75752 11.4483
-0.994633 -2.51811 10.8609
-0.983722 -2.79719 10.6862
-0.137288 -2.85188 11.0484
-0.297127 -2.1532 11.1285
0.227585 -2.93614 10.7325
0.208751 -3.52714 10.5959
0.374038 -2.93643 10.4284
0.0580365 -2.62553 10.8001
0.366482 -3.26888 10.416
0.060106 -3.48667 10.9847
0.225115 -3.26665 10.7726
0.649828 -3.59725 9.80631
-0.105328 -2.32351 10.806
0.665514 -3.30255 9.86964
0.585145 -3.07683 10.1551
-0.692073 -1.64112 11.1022
-0.51541 -1.90602 11.1249
-0.356228 -1.9518 10.8328
-0.171643 -2.46286 10.4491
-0.58402 -1.85091 10.7976
-0.326157 -2.2106 10.5659
-0.488639 -2.82583 11.1162
