ply
    format ascii 1.0           
    element vertex 61
    property double x           
    property double y           
    property double z           
    end_header
0.789836 -1.06505 3.61295
7.94786 -9.32803 -33.5507
0.783177 -1.06116 3.63042
0.785775 -1.04313 3.63949
0.785294 -1.0341 3.63916
0.786789 -1.01904 3.63917
0.782594 -1.06856 3.63169
4.0277 -1.11292 -15.4062
0.786518 -1.05076 3.64031
0.785529 -1.0124 3.63948
0.784295 -1.0602 3.64966
0.780901 -1.00364 3.63976
0.781258 -1.03524 3.6346
0.782247 -1.02919 3.63469
0.782987 -1.01659 3.6341
0.781662 -1.00908 3.63567
0.780676 -1.07261 3.63756
0.784383 -1.05495 3.63805
0.782595 -1.02268 3.63646
0.78154 -1.04045 3.63735
0.776218 -1.00726 3.63393
0.776766 -1.04285 3.636
0.778157 -1.06573 3.63005
0.780826 -1.0479 3.63828
0.77806 -1.0596 3.62986
0.783043 -1.05835 3.62538
0.775929 -1.03748 3.63552
0.777096 -1.02028 3.63501
0.770913 -1.00989 3.63846
0.775088 -1.04716 3.63775
0.778879 -1.05338 3.63802
0.777646 -1.0139 3.63634
0.77676 -1.03167 3.63526
0.774863 -1.06977 3.63675
0.774196 -1.05173 3.63878
0.777337 -1.02605 3.63682
0.770308 -1.05548 3.63893
0.772287 -1.01609 3.63675
0.76541 -1.06368 3.63901
0.762876 -1.05903 3.64266
0.770681 -1.06085 3.63783
0.769538 -1.04916 3.6397
0.773636 -1.06571 3.63336
0.77601 -1.07369 3.63989
0.766804 -1.04351 3.64314
0.764951 -1.0528 3.63856
0.770939 -1.04201 3.63929
0.772909 -1.02312 3.63955
0.774809 -1.00082 3.63645
0.772725 -1.02993 3.63855
0.775199 -1.05713 3.63673
0.769046 -1.06522 3.63973
0.771089 -1.03598 3.63921
0.788135 -1.05697 3.64272
0.780669 -1.05807 3.63465
0.78561 -1.0602 3.63961
0.784308 -1.02759 3.64
0.787717 -1.02543 3.64441
0.787044 -1.04209 3.64598
0.786973 -1.03161 3.64502
0.788952 -1.0505 3.64595
