ply
    format ascii 1.0           
    element vertex 66
    property double x           
    property double y           
    property double z           
    end_header
-0.451901 -1.27822 6.66705
-0.835711 -0.147355 7.24071
-0.618981 -0.080414 7.39536
-0.569422 -1.17578 6.52014
-0.383507 -0.709544 7.36117
-0.217676 -1.48962 7.0047
-0.726327 -0.954296 6.51318
-0.2978 -1.41431 6.76057
-0.545663 -0.813445 6.90166
-0.637627 -1.47052 6.40096
-0.525453 -1.6278 6.45381
-0.381219 -1.58903 6.67152
-0.46463 -1.44971 6.53073
-0.724023 0.0875976 7.50493
-0.55353 -0.370684 7.24443
-0.513559 -0.604908 7.22062
-0.729124 -1.26971 6.3948
-0.252643 -0.942444 6.98378
-0.376343 -1.04256 6.86614
-0.962304 0.298123 7.71543
-0.66476 -0.491696 7.11529
-0.14202 -1.07995 7.10223
-0.369507 -1.24544 6.86314
-0.137756 -1.29191 7.07822
-0.693899 -0.985494 6.72827
-0.190155 -1.84 7.19706
-0.896479 -0.511758 7.10443
-0.343849 -1.92011 6.97639
-0.46543 -1.75424 6.60175
-0.650283 -0.708745 7.07499
-0.86381 -1.11235 6.47081
-0.634299 -0.0582467 7.75033
-0.780934 -0.803897 6.88056
-0.562053 -1.155 6.81989
-0.495814 -0.840995 7.21015
-0.873377 -1.48515 6.4641
-0.796964 -0.401365 7.28524
-0.88405 -0.721387 7.04399
-1.27077 -1.05608 6.76997
-0.977117 -1.29116 6.49645
-1.06573 -0.972422 6.78826
-1.06955 -0.847616 7.01554
-1.09371 -0.739128 7.22436
-0.734989 -1.67458 6.46665
-1.25909 -0.93819 6.93881
-0.921045 -0.963834 6.87715
-0.923747 -1.81638 6.6192
-1.11811 -1.20462 6.70828
-0.138416 -1.08719 7.11149
-0.38709 -0.716893 7.36951
-1.36822 -1.64087 7.26032
-0.449703 -1.28367 6.66649
-0.162059 -1.83498 7.18979
-0.311024 -1.91011 6.96309
-0.957296 0.294899 7.70524
-0.217278 -1.49622 7.01592
-0.372219 -1.58436 6.6723
-0.665111 -1.81746 6.62316
-0.569863 -0.188537 7.59603
-0.459874 -1.75679 6.59631
-0.272499 -1.70341 7.06286
-0.370022 -1.24585 6.86419
-0.440202 -0.488147 7.40378
-0.494537 -0.839081 7.20633
-0.136604 -1.64593 7.23028
-0.302625 -1.41718 6.77735
