ply
    format ascii 1.0           
    element vertex 64
    property double x           
    property double y           
    property double z           
    end_header
-0.457225 0.764289 3.44537
-0.447895 -0.654523 3.07256
-0.421345 0.144957 3.40845
-0.579976 -0.371411 3.20881
-0.385523 0.705985 3.28078
-0.15884 -0.819781 3.01164
-0.0363565 -0.499291 2.92167
-0.470039 -0.785791 3.20862
-0.324402 -0.86854 3.10262
-0.53878 -0.191626 3.25781
-0.391608 0.50996 3.44186
-0.349547 0.254074 3.27454
-0.443718 -0.459362 3.11837
-0.442808 -0.274328 3.10175
-0.303899 0.534317 3.28164
-0.0102798 -0.707975 2.96475
-0.26529 0.844041 3.21412
-0.243245 0.390217 3.22477
-0.213574 -0.397467 3.09244
-0.157907 0.219335 3.21491
-0.151656 -0.929138 3.1627
-0.195917 0.670672 3.22023
-0.282406 -0.693437 3.05097
0.0199303 -0.879735 3.0719
-0.24947 -0.167318 3.09631
-0.144558 -0.589073 3.05584
0.14142 -0.580554 2.94385
0.0362933 0.764896 3.34027
-0.0916479 0.817265 3.24945
0.0449695 0.0475548 3.25387
0.0154693 0.22263 3.25887
-0.0672554 0.390116 3.25624
0.167519 -0.734513 3.075
0.135704 -0.386179 2.96419
-0.275915 -0.00286468 3.14454
-0.0512601 -1.03211 3.27906
-0.120912 0.540216 3.29256
0.0479378 0.580128 3.33351
-0.15153 0.0416868 3.20968
-0.386998 -0.136599 3.19954
-0.065245 -0.0817671 3.18364
-0.174074 0.988061 3.30638
-0.106297 -0.250171 3.14972
0.303093 -0.256598 3.47102
-0.0250134 -0.359693 3.06572
0.0281531 -0.186168 3.30227
-0.337285 1.051 3.41605
-0.580815 -0.372292 3.21608
-0.279137 0.103808 3.28026
-0.381827 0.710467 3.28134
-0.535049 -0.560116 3.27586
-0.419221 0.145388 3.41129
-0.389057 0.513028 3.4463
-0.381508 -0.00967148 3.29185
-0.38963 0.549527 3.61137
-0.576137 -0.408499 3.40923
-0.316086 1.07451 3.60991
-0.332824 0.878119 3.37824
-0.445656 0.766092 3.45683
-0.392144 0.326688 3.44201
-0.351046 -0.792454 3.72357
-0.431615 -0.351231 3.63795
-0.504386 -0.21508 3.43949
-0.436296 -0.17336 3.63237
