ply
    format ascii 1.0           
    element vertex 43
    property double x           
    property double y           
    property double z           
    end_header
0.111681 -0.326916 2.05379
0.107459 -0.236529 1.94612
0.0951875 -0.101839 1.9645
0.052946 0.190345 2.12954
-0.0457706 0.485739 2.09977
-0.0515399 -0.294365 1.97052
-0.0421633 0.267185 2.05927
-0.0936756 -0.334184 2.12791
-0.0118528 -0.171307 1.90645
-0.0789348 0.0345779 1.98744
0.0231838 -0.353168 2.18215
-0.171635 0.46449 2.14308
-0.215012 -0.248284 2.00933
0.0378891 0.549672 2.18262
-0.164126 -0.06347 1.99682
-0.274592 -0.349809 2.07203
0.0331707 0.0238184 2.04592
-0.341734 -0.369891 2.18533
-0.301264 -0.151699 2.12962
-0.363313 -0.262835 2.10661
-0.162008 0.191973 2.08582
-0.106767 -0.188501 2.02893
-0.0739888 0.599037 2.15684
-0.4406 -0.212769 2.20053
-0.0816017 0.368101 2.13534
-0.222851 0.0127513 2.1047
-0.027603 -0.0778544 1.99883
-0.178048 0.280263 2.26866
-0.0413146 0.123979 2.06793
0.0562085 0.427914 2.21906
-0.117003 0.678823 2.24611
0.130273 0.332729 2.27322
0.0351942 0.320982 2.15519
0.111784 -0.324202 2.04772
0.137816 0.165591 2.25274
0.115004 -0.0226442 2.14596
0.00272223 0.644422 2.26879
0.248113 -0.167824 2.3898
0.152161 -0.142288 2.07892
0.166489 -0.254915 2.16016
0.179536 -0.0686574 2.3305
0.119622 0.0417903 2.271
0.145117 -0.131589 2.21701
