ply
    format ascii 1.0           
    element vertex 41
    property double x           
    property double y           
    property double z           
    end_header
-0.172823 -0.388002 1.54144
0.512864 0.182731 -0.382648
-0.250438 -0.37502 1.5729
-0.189569 -0.0407801 1.69556
-0.158341 -0.325061 1.53315
-0.232823 -0.287142 1.58751
0.522049 0.194695 -0.411055
-0.247383 -0.0604576 1.71371
-0.181684 -0.137753 1.64727
-0.0978483 -0.355022 1.53138
-0.23553 -0.177541 1.64934
-0.194655 -0.23994 1.59182
-0.202668 -0.101456 1.68933
-0.740907 -0.11861 3.20689
-0.165623 -0.293272 1.58328
-0.176429 -0.203744 1.62789
-0.096203 -0.408749 1.56381
-0.131831 -0.178137 1.65557
-0.107741 -0.295258 1.55634
-0.13907 -0.247127 1.6046
-0.147297 -0.018407 1.73046
-0.0829868 -0.200689 1.7009
-0.091017 -0.129283 1.73686
-0.142098 -0.1208 1.68727
-0.132306 -0.0802261 1.73132
-0.012754 -0.366216 1.73338
-0.0613097 -0.387992 1.62674
-0.0919664 -0.275053 1.64219
-0.0508221 -0.322749 1.72855
-0.0737161 -0.324615 1.60008
-0.160343 0.0133746 1.78361
-0.268617 -0.430475 1.59664
-0.283118 -0.347298 1.64519
-0.311536 -0.395168 1.62177
-0.204975 0.00619585 1.73395
-0.25672 -0.271762 1.65001
-0.0883451 -0.263236 1.70326
-0.223186 0.0270755 1.78739
-0.339859 -0.387755 1.67778
-0.198985 -0.345666 1.58432
-0.240158 -0.240286 1.68378
