ply
    format ascii 1.0           
    element vertex 49
    property double x           
    property double y           
    property double z           
    end_header
-0.714566 0.633024 3.19006
-0.741996 0.243086 3.15002
-0.586655 0.861791 3.15472
-0.504964 1.87666 3.78595
-0.673342 1.58198 3.75319
-0.50714 0.526482 2.83937
-0.498077 1.69748 3.58993
-0.75202 -0.00698061 3.26121
-0.487438 0.245387 2.91158
-0.495015 1.30061 3.379
-0.667367 1.09466 3.48038
-0.249644 0.443715 2.74799
-0.279717 0.690809 2.86719
-0.46283 1.03154 3.29133
-0.456654 0.659983 3.0667
-0.279135 1.8287 3.67307
-0.513329 1.45027 3.58363
-0.193544 1.58755 3.63143
-0.27673 1.40352 3.48508
-0.32831 0.87122 3.1421
-0.108997 0.224177 2.86944
0.00986735 1.41707 3.59401
-0.0647822 0.780596 3.18996
0.0331386 1.11656 3.44204
-0.23953 1.16905 3.35768
0.448245 0.45547 3.3956
-0.0456886 0.577129 2.97629
0.0779728 0.329963 3.02355
0.244038 0.636619 3.42765
-0.390627 0.0807055 3.1765
-0.126672 0.0873822 3.14391
-0.266245 1.84688 3.72449
-0.738525 0.240529 3.15775
-0.668955 1.5843 3.76827
-0.701763 0.634139 3.20116
-0.448443 0.666149 3.05885
-0.663211 1.0902 3.49376
-0.776339 0.339895 3.51382
-0.739648 -0.130725 3.5072
-0.512466 1.44988 3.5994
-0.533718 0.399554 3.13054
-0.670198 0.549519 3.70461
-0.936056 0.117722 3.7145
-0.888755 0.101896 3.45742
-0.696892 0.705014 3.49438
-0.574484 0.958083 3.91307
-0.525777 1.44018 3.97292
-0.602918 0.47372 3.38049
-0.659187 1.13228 3.69724
