ply
    format ascii 1.0           
    element vertex 60
    property double x           
    property double y           
    property double z           
    end_header
0.150035 -0.295077 1.57501
0.121771 -0.194974 1.54666
-0.0343841 -0.107487 1.49768
0.0951848 0.352395 1.48496
-0.0522591 -0.249647 1.66377
0.0601254 -0.251609 1.61335
-0.0282411 0.115411 1.52902
0.168618 0.242909 1.4867
0.004874 -0.172234 1.59153
0.0247484 -0.0340119 1.46195
0.285713 -0.342628 1.69414
0.0809255 0.218882 1.51756
0.122518 -0.0747724 1.47668
-0.105675 -0.156901 1.66686
0.0252044 0.361938 1.55487
-0.144632 -0.0863569 1.72297
-0.064191 0.0373987 1.58256
0.107839 -0.300074 1.68317
-0.0611009 -0.0892635 1.59722
-0.141491 -0.155297 1.79485
-0.0251612 -0.0220337 1.55027
-0.114104 0.00282774 1.75189
0.052699 0.273594 1.58591
-0.0770715 -0.0490359 1.67394
-0.167284 -0.0514662 1.81732
-0.0620694 0.0432627 1.68417
0.0189093 0.343016 1.64516
-0.069917 0.121537 1.62124
-0.0328945 0.205985 1.65256
0.0982906 0.504438 1.62242
0.164543 0.497933 1.54099
0.00586478 0.191735 1.57192
0.192509 0.101876 1.50803
0.0471319 0.0358959 1.51217
0.0723438 0.123454 1.52903
0.230956 -0.214957 1.55355
0.172035 0.404365 1.49944
0.146637 0.0163932 1.49957
0.0537543 -0.126165 1.52173
0.293112 -0.150518 1.61719
0.257221 -0.0575207 1.59518
0.23421 0.213047 1.55119
0.25659 0.297899 1.57812
0.225707 0.386121 1.55317
0.121176 -0.0767256 1.47496
0.255931 -0.318635 1.59738
-0.104197 -0.156214 1.66755
-0.0221948 -0.019562 1.55208
-0.108662 0.00591202 1.75854
0.162773 0.497621 1.54145
0.0537275 0.275644 1.58607
-0.166122 -0.0497239 1.81786
0.104821 -0.299588 1.68048
-0.0851521 -0.223105 1.75183
-0.0675981 0.0377487 1.57853
-0.074862 -0.047848 1.67292
-0.138259 -0.153879 1.79543
-0.0667561 0.12469 1.62396
0.0192217 0.344924 1.64279
-0.0595581 -0.0878243 1.59641
