ply
    format ascii 1.0           
    element vertex 60
    property double x           
    property double y           
    property double z           
    end_header
-0.239035 -0.423753 1.04616
-0.150471 -0.614828 1.10197
-0.16329 -0.56665 1.08827
-0.200354 -0.521756 1.01776
-0.21696 -0.306892 1.09784
-0.15159 -0.502848 1.07317
-0.183411 -0.357156 1.12051
-0.131471 -0.624088 1.15078
-0.135763 -0.572582 1.13607
-0.178081 -0.482961 1.03454
-0.195919 -0.600509 1.08039
-0.184006 -0.531163 1.06108
-0.274829 -0.56424 1.03821
-0.214078 -0.56172 1.05605
-0.215963 -0.37406 1.08913
-0.263167 -0.312737 1.08982
-0.315731 -0.53992 1.0444
-0.246322 -0.525823 1.03723
-0.28192 -0.617451 1.11938
-0.21464 -0.632493 1.11724
-0.258631 -0.465967 1.04377
-0.332559 -0.580531 1.06241
-0.292415 -0.605333 1.06578
-0.246869 -0.606946 1.04933
-0.327687 -0.502478 1.0713
-0.283755 -0.517097 1.0599
-0.294265 -0.475582 1.07187
-0.295466 -0.333548 1.11615
-0.358791 -0.536301 1.07052
-0.226289 -0.488546 1.04095
-0.284456 -0.431239 1.05724
-0.360165 -0.568572 1.10061
-0.255989 -0.357275 1.1055
-0.311966 -0.437439 1.09708
-0.282547 -0.257641 1.15438
-0.296499 -0.398576 1.08697
-0.313998 -0.347965 1.15864
-0.200617 -0.457886 1.06562
-0.33258 -0.47646 1.11355
-0.254921 -0.394348 1.07888
-0.291025 -0.292274 1.13049
-0.287577 -0.606287 1.07019
-0.25281 -0.278283 1.11907
-0.179387 -0.35952 1.12015
-0.215907 -0.374786 1.09439
-0.204525 -0.285143 1.13673
-0.162817 -0.465446 1.09809
-0.156737 -0.564303 1.08487
-0.124221 -0.572389 1.12658
-0.115286 -0.620441 1.13684
-0.233855 -0.247806 1.15184
-0.17857 -0.532419 1.05781
-0.191764 -0.345414 1.18284
-0.15589 -0.426589 1.11959
-0.108274 -0.587466 1.1736
-0.152555 -0.509484 1.16104
-0.136569 -0.55081 1.17189
-0.242428 -0.601094 1.04712
-0.176728 -0.380819 1.15882
-0.204517 -0.301986 1.17227
