ply
    format ascii 1.0           
    element vertex 64
    property double x           
    property double y           
    property double z           
    end_header
-2.60158 3.95643 12.4769
-2.88189 -2.66635 13.1567
-4.09583 -0.581563 11.8413
-3.08089 -1.80612 13.0672
-4.07955 0.314932 11.9346
-1.43929 -0.507675 9.77816
-3.918 -0.363021 10.9025
-1.18973 -1.89879 11.0332
-2.51648 -2.46667 14.1936
-2.78499 -1.56859 14.1253
-2.93507 1.92775 10.6808
-2.83553 -1.51672 12.3401
-2.94915 1.08688 10.797
-3.3893 2.13044 12.7977
-2.35857 -2.8773 12.4172
-2.18568 3.18796 11.3241
-2.53975 -0.894105 14.7113
-3.32641 1.99442 12.0717
-1.56835 5.38329 12.5705
-2.91351 -1.09222 13.4344
-3.67336 -1.25888 11.1731
-2.4121 -0.636988 13.9022
-3.09036 2.77114 12.36
-3.22295 1.38899 11.5457
-1.86318 0.137122 10.0314
-2.8429 -2.16804 12.2124
-1.22405 0.465184 9.59111
-3.73938 0.495695 11.2154
-2.31927 3.999 13.2534
-3.08981 1.21989 12.4128
-2.40826 0.468448 10.4798
-1.82062 4.81568 13.14
-2.20547 1.56287 10.4554
-2.79465 2.17612 11.5016
-1.90533 4.57912 12.3823
-1.69349 0.892832 10.1467
-2.20985 2.42726 10.8309
-2.26848 -1.22012 11.0552
-3.08234 -0.399373 10.5466
-0.20083 -2.31595 10.8829
-2.26254 -0.486974 10.4826
-0.67737 -1.0762 10.0188
-1.47262 -0.957527 10.5667
-0.692605 5.1498 12.3721
-1.47019 1.94146 10.534
-2.2424 -1.9762 11.8751
-0.473569 -0.116276 9.95458
0.677164 -0.819724 10.6177
-0.745753 2.27524 10.8074
-2.84881 -1.52276 12.2276
-0.034935 -1.49505 10.385
0.840328 0.277836 10.8643
-0.65839 0.718108 9.96794
-0.127795 -0.593367 10.5889
0.0780261 0.182546 10.7037
-0.118711 -2.34962 11.0704
-3.77101 0.480073 11.2045
-1.02948 4.06771 12.2719
0.0111971 1.71099 11.7391
-0.548657 4.51037 12.981
1.16238 -0.37129 11.3417
-0.536015 1.63443 11.1697
-0.109424 0.852861 11.4136
-1.05369 3.23874 11.7819
