ply
    format ascii 1.0           
    element vertex 53
    property double x           
    property double y           
    property double z           
    end_header
0.354852 -0.269712 1.32499
0.357672 -0.269684 1.32206
0.357599 -0.269694 1.32176
0.35746 -0.26988 1.32221
0.357669 -0.269617 1.32156
0.355527 -0.269452 1.32405
0.354611 -0.27142 1.32497
0.356636 -0.270242 1.32274
0.357162 -0.269936 1.32201
0.357282 -0.269883 1.32219
0.357614 -0.269503 1.32193
0.357577 -0.269531 1.32182
0.357519 -0.269661 1.32196
0.357581 -0.269717 1.32201
0.352675 -0.272339 1.32619
0.357399 -0.269461 1.32213
0.357777 -0.269372 1.32166
0.355879 -0.269517 1.32362
0.356089 -0.269531 1.32324
0.357072 -0.269444 1.32244
0.351731 -0.272571 1.32671
0.357492 -0.26958 1.32174
0.356264 -0.269663 1.32295
0.357491 -0.269661 1.32214
0.356697 -0.269642 1.3225
0.357097 -0.269822 1.32195
0.357064 -0.269632 1.32221
0.357024 -0.269728 1.32204
0.354425 -0.27113 1.32431
0.352413 -0.272789 1.32761
0.356151 -0.269749 1.32291
0.356934 -0.269591 1.32244
0.35619 -0.269607 1.32332
0.356921 -0.269588 1.32276
0.357175 -0.26964 1.32249
0.355489 -0.269747 1.32422
0.352935 -0.272088 1.32614
0.355909 -0.269798 1.32381
0.356893 -0.269987 1.32296
0.356711 -0.269776 1.3231
0.354594 -0.27112 1.32579
0.354711 -0.27134 1.32559
0.356622 -0.270397 1.32319
0.357035 -0.270066 1.32283
0.356151 -0.270471 1.32322
7.78711 3.32539 -5.23229
0.345601 -0.276009 1.33267
0.356659 -0.269663 1.32255
0.357084 -0.269633 1.3222
0.356907 -0.269785 1.32216
0.356994 -0.269576 1.32238
0.357025 -0.26986 1.32203
0.356137 -0.269758 1.32292
