ply
    format ascii 1.0           
    element vertex 53
    property double x           
    property double y           
    property double z           
    end_header
-0.524213 0.967758 4.2507
-0.275129 -0.0230005 4.30124
-0.482234 1.39251 4.752
-0.839395 0.231075 4.21816
-0.722758 0.106878 4.519
-0.850215 0.460743 4.17036
-0.570045 -0.0202508 4.43728
-0.214387 0.347931 4.03637
-0.344714 1.21367 4.48319
-0.566363 0.76915 4.25035
-0.802417 0.648552 4.28276
-0.301717 0.513068 4.09608
-0.118611 0.572542 4.03926
-0.640158 0.427275 4.1377
-0.504979 0.185417 4.26901
-0.445666 0.369141 4.16109
-0.280943 0.223413 4.20028
-0.0688653 0.172196 4.12707
-0.356359 0.855394 4.22668
-0.440627 0.604248 4.18458
-0.242464 0.679262 4.16152
0.0110261 1.59983 4.85525
-0.348763 1.04799 4.33726
0.0146021 0.392521 4.1421
-0.180395 0.911198 4.29069
0.0471093 0.0359515 4.23239
-0.294688 1.51612 4.77973
0.217525 0.157962 4.35428
-0.0140987 0.956435 4.4008
0.284269 0.410106 4.45014
0.00376099 0.600596 4.17604
0.112173 0.424471 4.3746
0.306357 0.237834 4.57046
-0.0443144 -0.198058 4.36567
-0.626038 1.12861 4.66501
-0.689792 0.968992 4.56019
-0.816513 -0.187284 4.68811
-0.662695 -0.243558 4.52577
-0.914366 0.599995 4.43836
-0.203691 1.69274 4.86698
-0.949732 0.393314 4.37212
-0.664746 0.831161 4.42065
-0.746562 0.981447 4.72699
-0.673572 0.766728 4.63138
-0.778012 0.0343803 4.96949
-0.846844 0.232106 4.21808
-0.818555 0.0234921 4.68482
-0.761601 0.171781 4.80935
-0.770339 -0.185151 4.95894
-0.676552 0.253456 4.94522
-0.746779 0.174466 5.1342
-0.723144 -0.0473369 4.48596
-0.718486 0.105845 4.52902
