ply
    format ascii 1.0           
    element vertex 55
    property double x           
    property double y           
    property double z           
    end_header
-0.306849 0.0130352 1.5977
-0.225076 -0.360806 1.43464
-0.241789 -0.209958 1.48209
-0.308385 -0.117787 1.54872
-0.261346 -0.14975 1.50393
-0.306909 -0.164408 1.53593
-0.250108 -0.303115 1.48253
-0.192189 -0.225566 1.47745
-0.270921 -0.390649 1.44635
-0.122988 -0.465158 1.48791
-0.285451 -0.250156 1.52702
-0.292924 -0.0639158 1.54845
-0.372206 0.0205002 1.67097
-0.232896 -0.462686 1.48717
-0.282181 -0.455959 1.53048
-0.276167 -0.512918 1.61429
-0.230966 -0.25967 1.49946
-0.213709 -0.42964 1.45138
-0.0858172 -0.409021 1.50516
-0.302688 -0.447025 1.58556
-0.0389575 -0.383615 1.51848
-0.175649 -0.498877 1.50609
-0.0969488 -0.354458 1.50252
-0.139839 -0.407925 1.48668
-0.243506 -0.49836 1.51443
-0.264912 -0.415883 1.48887
-0.14622 -0.34755 1.49013
-0.148486 -0.2735 1.49761
-0.236568 -0.0499181 1.56416
-0.120958 -0.505153 1.52752
-0.356932 0.0333538 1.61446
-0.178863 -0.449156 1.48379
-0.193599 -0.0858401 1.55752
-0.180102 -0.38957 1.45891
-0.183798 -0.307737 1.49953
-0.0499952 -0.450118 1.52362
-0.159486 -0.199256 1.51278
-0.109338 -0.306902 1.50995
-0.158557 -0.156238 1.54201
-0.203281 -0.343441 1.47369
-0.073688 -0.35764 1.53091
-0.204322 -0.123319 1.51101
-0.127779 -0.247191 1.54572
-0.208834 -0.174784 1.50452
-0.251621 -0.106034 1.54329
-0.307847 -0.165512 1.53323
-0.229246 -0.258604 1.50184
-0.281183 -0.250358 1.53404
-0.309803 -0.113264 1.55156
-0.231307 -0.462989 1.48972
-0.282482 -0.500418 1.56982
-0.241625 -0.497553 1.52827
-0.287049 -0.300057 1.56943
-0.276936 -0.453921 1.54564
-0.372211 0.0174982 1.66974
