ply
    format ascii 1.0           
    element vertex 35
    property double x           
    property double y           
    property double z           
    end_header
-0.280579 0.136057 0.325482
-0.27973 0.139752 0.32666
-0.279515 0.13258 0.324611
-0.277527 0.132949 0.324191
-0.277277 0.130521 0.326991
-0.280819 0.126341 0.326615
-0.275167 0.128811 0.326549
-0.280699 0.14175 0.327368
-0.278735 0.126892 0.325685
0.0818012 1.62814 -9.28037
-0.282064 0.128416 0.326339
-0.280132 0.13399 0.326374
-0.280715 0.131147 0.324804
-0.149463 0.341096 -1.33684
-0.282918 0.135557 0.34185
-0.282857 0.140557 0.347572
-0.281371 0.132224 0.327894
-0.359299 -0.199925 1.88319
-0.281832 0.13789 0.346509
-0.276471 0.129946 0.31106
-0.278777 0.141254 0.328213
-0.279144 0.137935 0.325928
-0.278294 0.135207 0.328095
-0.275367 0.130032 0.327674
-0.276451 0.13349 0.325971
-0.27797 0.13923 0.328056
-0.278404 0.130772 0.324489
-0.277378 0.137253 0.328585
-0.275963 0.127628 0.32558
-0.280118 0.128439 0.326243
-0.278428 0.13328 0.326198
-0.281588 0.133669 0.328067
-0.280641 0.137622 0.327392
-0.281188 0.13232 0.326255
-0.282338 0.1299 0.327664
