ply
    format ascii 1.0           
    element vertex 44
    property double x           
    property double y           
    property double z           
    end_header
-0.227376 -0.086781 1.43732
-0.158897 -0.15807 1.42449
-0.0554152 -0.300349 1.40804
-0.00653994 -0.380997 1.4012
-0.0209607 -0.406396 1.48675
-0.004605 -0.370659 1.45111
-0.112131 -0.222926 1.42863
-0.0856092 -0.268532 1.42926
-0.0260155 -0.367776 1.36264
-0.15054 -0.210166 1.45194
-0.0371549 -0.340895 1.39659
-0.012913 -0.455418 1.46637
0.0116013 -0.452598 1.4367
-0.0173637 -0.415343 1.43787
-0.0398441 -0.340365 1.44651
-0.0538012 -0.490653 1.45604
-0.168689 -0.254315 1.45981
-0.0343655 -0.419062 1.3937
-0.0650691 -0.381035 1.49585
-0.122149 -0.317933 1.47285
-0.0936755 -0.479055 1.48334
-0.225185 -0.0701596 1.39565
-0.0480263 -0.463329 1.39981
-0.0998409 -0.331994 1.33264
-0.157132 -0.208538 1.40526
-0.262225 -0.0976625 1.41138
-0.114829 -0.280389 1.39252
-0.0899884 -0.318392 1.38354
-0.256885 -0.141608 1.39485
-0.168928 -0.251333 1.38701
-0.0708842 -0.353155 1.36183
-0.118736 -0.462553 1.39118
-0.125222 -0.307827 1.3581
-0.112224 -0.378489 1.34544
-0.233129 -0.196964 1.4258
-0.206061 -0.4443 1.42208
-0.0640472 -0.398941 1.36345
-0.174405 -0.505341 1.43643
-0.206178 -0.145246 1.43585
-0.179598 -0.326212 1.37791
-0.148861 -0.350615 1.35574
-0.0117922 -0.380078 1.40574
-0.149854 -0.21301 1.456
-0.0451626 -0.34299 1.4531
