ply
    format ascii 1.0           
    element vertex 60
    property double x           
    property double y           
    property double z           
    end_header
0.384527 -0.188483 -1.08158
-0.712027 -0.581842 3.99862
-0.52538 -0.968845 3.85573
-0.594845 -1.28374 3.70519
-0.659151 -0.403941 4.01113
-0.812635 -1.338 3.68939
-0.503036 -1.08239 3.78223
-0.638001 -1.07816 3.76105
-0.692175 -1.19162 3.71292
-0.584283 -0.501715 4.00772
-0.480045 -1.38004 3.6614
-0.685533 -0.669174 3.93967
-0.402958 -1.1621 3.76809
-0.575008 -0.720464 3.96274
-0.730364 -0.453842 4.01926
-0.160339 -1.26368 3.90407
-0.62341 -1.43991 3.64054
-0.652085 -0.795323 3.89175
-0.388742 -1.05036 3.83895
-0.71341 -0.893634 3.85572
-0.466603 -1.26356 3.73464
-0.235448 -1.3648 3.77984
-0.264748 -1.2685 3.85388
-0.787975 -0.826157 3.88373
-0.755716 -1.04707 3.80254
-0.488224 -1.51955 3.6574
-0.385919 -1.45053 3.70934
-0.291198 -1.4814 3.71406
-0.801638 -1.15928 3.77526
-0.635382 -0.975715 3.82609
-0.754057 -1.44305 3.67424
-0.282071 -1.0682 3.85499
-0.930454 -1.21387 3.79383
-0.374763 -1.29914 3.82822
-0.540745 -0.853784 3.94687
-0.693591 -1.34698 3.70279
-0.553997 -0.639385 3.9882
-0.581212 -0.900695 3.86645
-0.360999 -0.989726 3.92514
-0.86671 -1.27727 3.71385
-0.789986 -0.983872 3.85426
-0.828874 -1.0942 3.765
-0.471291 -0.934421 4.01468
-0.56061 -1.1871 3.79729
-0.355941 -1.38073 3.76105
-0.265783 -1.18901 3.87119
-0.38701 -1.54679 3.7111
-0.785893 -1.23699 3.73618
-0.590458 -0.20625 4.06915
-0.680097 -0.292113 4.0577
-1.03078 -1.21581 3.74279
-0.965454 -1.33686 3.70561
-1.07758 -1.29604 3.69993
-0.875331 -1.41126 3.64757
-1.07188 -1.39324 3.75933
-0.865959 -1.06648 3.90862
-0.563431 -0.292983 4.10587
-0.356306 -1.16195 3.88808
-0.653071 -1.5431 3.73442
-0.772346 -1.55378 3.78787
