ply
    format ascii 1.0           
    element vertex 41
    property double x           
    property double y           
    property double z           
    end_header
-0.10875 0.397931 2.56098
-0.182399 -0.374655 2.03524
-0.154568 0.218391 2.44871
-0.0828968 -0.466447 2.16045
-0.129122 -0.400157 2.11585
-0.129576 -0.0689466 2.24617
-0.132318 0.0213774 2.29857
-0.174728 -0.305167 2.1311
-0.172341 0.155243 2.38155
-0.293477 -0.487355 2.07055
-0.062351 -0.151537 2.19489
-0.22008 -0.204995 2.13425
-0.262315 -0.295841 2.10655
-0.191909 0.434476 2.56774
-0.199396 0.010854 2.23301
-0.435325 -0.438875 2.0834
-0.119805 -0.178278 2.13236
-0.2419 -0.122084 2.1783
-0.345394 -0.32429 2.07296
-0.253038 0.301283 2.54531
-0.275243 -0.386938 2.07411
-0.377552 -0.502717 2.11473
-0.427779 -0.346145 2.11531
-0.264235 0.123687 2.33855
-0.311964 -0.153197 2.22471
-0.08556 -0.310689 2.16392
-0.15026 0.304868 2.48649
-0.0806123 -0.467403 2.16192
-0.294628 -0.490421 2.07392
-0.230474 -0.0720173 2.23364
-0.118196 -0.17661 2.13346
-0.154435 0.221888 2.44793
-0.127662 -0.401861 2.11482
-0.07682 0.0342092 2.3862
-0.128449 0.0897898 2.35847
-0.0345085 -0.212463 2.18007
-0.195825 0.437622 2.57454
-0.0678665 -0.360838 2.27056
-0.0759264 -0.556737 2.15772
-0.0607502 -0.152883 2.19542
-0.11488 0.415347 2.67524
