ply
    format ascii 1.0           
    element vertex 48
    property double x           
    property double y           
    property double z           
    end_header
-0.307544 0.179941 2.7072
-0.0175793 -0.271779 2.2991
-0.407831 0.323034 2.71858
-0.262938 0.0440622 2.50247
-0.185399 0.0208094 2.52698
-0.422384 0.240178 2.86798
0.05491 -0.400458 2.29692
-0.0689891 -0.363397 2.18043
-0.229009 -0.0116617 2.44393
-0.0167248 -0.164295 2.31629
-0.145529 -0.0508714 2.45647
0.0637665 -0.409603 2.39599
-0.00952384 -0.364221 2.25083
-0.429987 0.320922 2.83384
-0.0105874 -0.228874 2.37035
0.0970655 -0.479701 2.29566
0.00865265 -0.314417 2.4064
-0.0797531 -0.115998 2.42291
-0.177486 -0.0877478 2.38905
-0.0625639 -0.125401 2.32863
0.0196228 -0.345766 2.33152
-0.335044 0.0820696 2.52731
0.0626938 -0.490225 2.38789
-0.175916 -0.336664 2.2472
-0.0959951 -0.305235 2.27287
-0.39447 0.010149 2.48264
-0.355794 0.142974 2.5966
-0.247796 0.0411049 2.57435
-0.108812 -0.505327 2.21023
-0.112627 -0.169133 2.27695
-0.503807 0.309057 2.73461
-0.185392 -0.241047 2.27388
-0.246987 -0.182853 2.32105
-0.263426 -0.137973 2.37258
-0.278785 -0.049686 2.3805
-0.14278 -0.41931 2.21625
-0.482208 0.155285 2.69487
-0.174192 -0.557895 2.25543
-0.233327 -0.398823 2.21778
-0.361538 -0.0979647 2.49621
-0.519893 0.248516 2.80383
-0.293347 -0.249251 2.36584
-0.288655 -0.45764 2.25626
-0.249526 -0.534365 2.22294
-0.532266 0.247348 2.87341
-0.46956 0.320663 2.8776
-0.00898748 -0.371454 2.26607
-0.0741106 -0.129571 2.34763
