ply
    format ascii 1.0           
    element vertex 57
    property double x           
    property double y           
    property double z           
    end_header
0.370377 -0.859192 0.959466
-0.208514 -0.608423 2.3094
-0.178853 -0.702385 2.39623
0.344659 -0.811013 0.978907
-0.163379 -0.780948 2.39493
-0.265293 -0.689589 2.28305
-0.250105 -0.376041 2.34081
-0.260016 -0.301084 2.37055
-0.233659 -0.442067 2.38392
-0.296377 -0.532313 2.25353
0.0882735 -0.709772 1.5708
-0.292374 -0.274326 2.29799
-0.247982 -0.124367 2.35914
-0.276311 -0.0625985 2.32308
-0.238074 -0.775498 2.33287
-0.338209 -0.0937495 2.29554
-0.316071 -0.404616 2.27269
-0.306746 -0.746559 2.2656
-0.276241 -0.206549 2.3057
-0.326258 -0.605417 2.24096
-0.370422 0.0113726 2.30876
-0.343537 -0.687093 2.2663
-0.369619 -0.790778 2.33032
-0.369234 -0.302617 2.30075
-0.330281 -0.16511 2.29787
-0.296188 0.0177218 2.3174
-0.333497 0.0715403 2.32376
-0.354915 -0.485586 2.28286
-0.395011 -0.736177 2.28643
-0.389662 -0.559352 2.2688
-0.427405 -0.669875 2.29248
-0.40203 -0.155558 2.30668
-0.405467 -0.0598488 2.31436
-0.38568 -0.39479 2.31447
-0.402789 0.0695373 2.31549
-0.426477 -0.480429 2.3491
-0.320046 -0.351944 2.33249
-0.426437 -0.716164 2.31344
-0.347154 -0.235773 2.32762
-0.274796 -0.208423 2.31095
-0.249773 -0.126822 2.37375
-0.261196 -0.310029 2.37329
-0.164047 -0.787671 2.40501
-0.179214 -0.711227 2.40854
-0.334791 0.0806379 2.32346
-0.251497 -0.377937 2.3429
-0.236485 -0.561353 2.38344
-0.284562 -0.509188 2.3318
-0.21703 -0.517048 2.46301
-0.268568 -0.0144976 2.39172
-0.292607 -0.637794 2.32267
-0.182593 -0.648851 2.49566
-0.288379 0.0695931 2.38228
-0.246514 -0.357919 2.46645
-0.253877 -0.222423 2.38509
-0.251126 -0.701233 2.36801
-0.186356 -0.71822 2.51424
