ply
    format ascii 1.0           
    element vertex 50
    property double x           
    property double y           
    property double z           
    end_header
0.029805 0.0249644 2.20915
-0.124577 -0.307196 2.21983
-0.0104053 -0.128866 2.19181
-0.106703 -0.628413 2.12556
-0.100891 -0.501966 2.10679
-0.207308 -0.673587 2.24137
-0.0967756 0.511023 2.27985
-0.124271 -0.0721919 2.23535
-0.0218302 0.317728 2.21744
-0.162591 -0.752843 2.2862
-0.155906 -0.579626 2.1647
-0.118751 0.00788654 2.23137
-0.107952 0.452404 2.36357
-0.115407 -0.14459 2.26039
-0.116571 -0.223418 2.23183
-0.110464 0.079425 2.26859
-0.12474 0.316359 2.30832
-0.031064 0.471379 2.24163
-0.0531829 -0.684859 2.13913
-0.106259 0.50924 2.27847
0.00947205 0.218028 2.22984
0.0689552 -0.656804 2.07008
0.0477075 -0.581424 2.07814
0.18613 -0.564389 2.0513
-0.0512863 -0.019786 2.20947
-0.110582 -0.713249 2.23143
-0.0424164 0.062836 2.24061
-0.0464213 -0.767698 2.20452
-0.00941262 -0.482536 2.12991
-0.054082 -0.558122 2.14524
0.0252455 -0.388521 2.13272
0.00939913 -0.292187 2.14979
0.110223 -0.563977 2.03436
0.134205 -0.48621 2.06379
0.0596579 -0.224306 2.20906
-0.00318566 0.13641 2.24811
0.0771414 -0.330395 2.17537
-0.00318533 0.552932 2.2517
-0.0764579 0.206695 2.22652
-0.055057 0.585902 2.31594
-0.11913 -0.403032 2.23557
-0.00107213 -0.629825 2.1222
-0.0464603 -0.355454 2.18487
-0.116903 -0.219804 2.23329
-0.0691609 -0.438685 2.16788
-0.121372 -0.478425 2.19719
-0.105187 0.229671 2.31294
-0.12706 0.15589 2.29718
-0.113852 0.323545 2.32631
-0.155029 -0.668354 2.42773
