ply
    format ascii 1.0           
    element vertex 57
    property double x           
    property double y           
    property double z           
    end_header
-2.99226 -1.27184 5.02343
-2.918 -0.962264 5.06736
-2.68624 -0.717316 4.96419
-2.94897 -1.04689 5.06883
-2.85638 -0.718096 5.03965
-2.9981 -1.17892 5.06044
-2.82821 -0.81048 5.01396
-2.90456 -0.869327 5.04296
-2.56886 -0.556126 5.04342
-3.03249 -1.0845 5.13216
-2.77161 -0.680216 5.02562
-2.82724 -0.947303 5.03795
-2.91925 -1.13082 5.05751
-2.73359 -0.788098 4.99958
-3.06346 -1.24674 5.08512
-2.7535 -0.872359 5.04084
-2.86269 -1.06587 5.05646
-2.89135 -0.7894 5.07836
-2.92834 -1.21739 5.02828
-2.51597 -0.652905 5.03483
-2.96021 -0.815964 5.09881
-2.69677 -0.649486 5.01348
-2.5896 -0.717587 5.00625
-2.91052 -1.30309 5.05935
-2.64693 -0.794245 5.03456
-2.3881 -0.558476 5.11281
-2.47651 -0.578191 5.07553
-2.81634 -1.16261 5.13225
-2.77747 -0.997983 5.13308
-2.6098 -0.63636 5.05686
-2.43527 -0.655702 5.09491
-2.50067 -0.727071 5.09838
-2.75891 -0.941355 5.09444
-2.69454 -0.850354 5.08043
-2.80823 -1.07531 5.10778
-2.86107 -1.28001 5.10662
-2.5782 -0.76148 5.09137
-2.88602 -1.2042 5.09397
-2.75538 -1.06942 5.18355
-2.6787 -0.594442 5.10771
-2.96683 -0.911397 5.11683
-3.03239 -1.0339 5.19768
-2.98798 -1.00295 5.1246
-2.88771 -0.717788 5.12208
-3.03115 -1.17353 5.13494
-3.00234 -0.925408 5.19631
-2.92933 -0.76452 5.1773
-3.03562 -1.12151 5.20833
-2.93373 -0.845376 5.16604
-2.93963 -0.863302 5.23333
-2.94304 -1.03282 5.28149
-2.85029 -0.753621 5.24468
-28.6677 -0.586974 7.38296
-2.12929 -1.26207 5.19862
-57.6156 0.620924 10.4966
-2.8994 -1.17366 5.30953
-3.539 -1.09988 5.27718
