ply
    format ascii 1.0           
    element vertex 64
    property double x           
    property double y           
    property double z           
    end_header
-0.280868 -0.33362 3.18622
-0.415055 -0.044755 3.09116
-0.380269 -0.569849 3.30552
0.0513394 -0.390864 3.12688
-0.459479 -0.193058 3.18145
-0.336411 0.375192 3.10399
-0.336978 1.02191 3.11118
-0.439729 0.102776 3.12845
-0.242493 -0.526589 3.24889
0.0931255 -0.477521 3.25892
-0.242272 0.220561 3.09544
0.153048 -0.0893029 3.19093
-0.283499 -0.152478 3.11927
-0.565658 -0.101073 3.29135
-0.223231 0.629967 3.11324
-0.417211 0.841589 3.21485
-0.341439 0.651533 3.11555
-0.367129 0.250312 3.15994
0.274909 -0.560937 3.477
-0.0604816 -0.272827 3.17961
-0.114432 0.52295 3.11151
-0.241205 -0.646414 3.3471
-0.145736 0.881042 3.13239
-0.261663 0.00398483 3.07397
0.0439963 0.0109615 3.1914
-0.216145 1.09395 3.14626
-0.0175706 0.258634 3.1023
0.0943059 -0.227556 3.19573
-0.182268 -0.212855 3.22061
-0.0177626 -0.131903 3.18787
-0.129884 0.127575 3.06806
-0.258328 0.747427 3.10083
-0.117264 -0.484533 3.31594
-0.135524 0.309195 3.06909
-0.145519 -0.105837 3.12413
0.429541 -0.308598 3.50337
-0.0829511 0.0170923 3.16171
-0.033251 0.409819 3.11642
-0.0617466 0.947995 3.22377
0.368527 -0.469836 3.49181
0.294185 -0.359278 3.45292
-0.156362 0.756887 3.18819
0.00460045 0.128426 3.13488
0.13913 0.0779906 3.26767
0.453723 -0.16315 3.625
0.222225 -0.0466368 3.37651
0.134733 0.187078 3.36909
0.331234 -0.181501 3.52433
0.255387 -0.191123 3.25136
0.0647192 0.205841 3.23761
-0.458341 -0.187689 3.17917
0.196144 -0.299076 3.33115
0.161069 -0.355062 3.20782
-0.115428 -0.488735 3.3205
-0.174043 -0.34359 3.28226
0.140805 -0.513446 3.47207
-0.539905 -0.246008 3.33254
-0.0999408 1.0498 3.18975
-0.0539828 -0.276203 3.18485
-0.386198 -0.271162 3.2767
-0.114312 0.530391 3.11349
-0.438641 0.109471 3.13373
-0.439843 -0.336358 3.41296
-0.564947 -0.103158 3.28086
