ply
    format ascii 1.0           
    element vertex 56
    property double x           
    property double y           
    property double z           
    end_header
-0.281382 0.71016 1.40567
-0.28138 0.710169 1.40568
-0.281383 0.710163 1.40567
-0.281383 0.710166 1.40568
-0.281387 0.710183 1.40566
-0.281385 0.710172 1.40567
-0.281389 0.71019 1.40565
-0.281384 0.710168 1.40568
-0.281384 0.710179 1.40567
-0.281384 0.710164 1.40568
-0.281382 0.710163 1.40567
-0.281382 0.710158 1.40567
-0.281383 0.710161 1.40567
-0.281383 0.710171 1.40568
-0.281381 0.710161 1.40567
-0.281384 0.710174 1.40567
-0.281382 0.710173 1.40567
-0.281384 0.710167 1.40568
-0.281385 0.710178 1.40567
-0.281386 0.710181 1.40566
-0.281384 0.710166 1.40567
-0.281385 0.710188 1.40566
-0.281381 0.710168 1.40567
0.130528 -5.92738 11.1063
-0.281379 0.710172 1.40567
-0.281385 0.710169 1.40567
-0.281382 0.710165 1.40567
0.20452 -14.3537 22.4082
-0.281383 0.71016 1.40567
-0.281381 0.710166 1.40567
-0.281382 0.71017 1.40568
-0.281384 0.710165 1.40567
-0.281382 0.710166 1.40567
-0.281384 0.710172 1.40567
-0.281388 0.710186 1.40566
-0.281383 0.71017 1.40568
-0.281386 0.710176 1.40566
-0.281381 0.710167 1.40567
0.111694 -7.64358 14.2741
-0.28138 0.710172 1.40567
-0.281385 0.710177 1.40566
-0.281382 0.710165 1.40568
-0.281388 0.710189 1.40565
-0.281386 0.710178 1.40566
-0.281386 0.71018 1.40566
-0.281384 0.710167 1.40567
-0.281385 0.710175 1.40566
-0.28138 0.710166 1.40566
-0.281382 0.710167 1.40567
-0.281378 0.710182 1.40566
-0.28138 0.710173 1.40567
-0.28138 0.710161 1.40567
-0.281379 0.710173 1.40567
-0.281382 0.710168 1.40568
-0.28138 0.710159 1.40567
-0.281379 0.710168 1.40566
