ply
    format ascii 1.0           
    element vertex 64
    property double x           
    property double y           
    property double z           
    end_header
-0.26679 -0.692925 2.14164
-0.408417 -0.271957 2.16461
-0.405413 -0.742163 2.05574
-0.306071 -0.650489 2.114
-0.303224 -0.594266 2.119
-0.263467 -0.651081 2.226
-0.388854 -0.386382 2.16054
-0.222108 -0.778554 2.22159
-0.176969 -0.834406 2.2929
-0.298306 -0.555655 2.17083
-0.294711 -0.613076 2.17893
-0.439735 -0.22997 2.14247
-0.144554 -0.789036 2.33466
-0.183505 -0.780704 2.27507
-0.259874 -0.78806 2.17036
-0.365616 -0.370556 2.22261
-0.245958 -0.840917 2.19507
-0.418965 -0.228191 2.19928
-0.274239 -0.584867 2.22909
-0.380563 -0.502472 2.144
-0.358311 -0.738289 2.10444
-0.225068 -0.881987 2.25277
-0.160085 -0.851744 2.36402
-0.274097 -0.706689 2.19522
-0.145054 -0.805373 2.39632
-0.173895 -0.836942 2.31031
-0.444167 -0.310402 2.15224
-0.343313 -0.783057 2.12127
-0.303691 -0.760385 2.13097
-0.393047 -0.779514 2.09947
-0.437918 -0.43787 2.16428
-0.355834 -0.615057 2.09998
-0.381103 -0.463097 2.18312
-0.492466 -0.335404 2.17764
-0.475085 -0.773708 2.10624
-0.496104 -0.276799 2.15592
-0.460422 -0.73858 2.05844
-0.414093 -0.548292 2.14761
-0.319104 -0.70931 2.13182
-0.412187 -0.673024 2.14004
-0.431631 -0.493786 2.14886
-0.489504 -0.393515 2.18238
-0.448423 -0.181725 2.18131
-0.395899 -0.623935 2.13758
-0.439686 -0.823481 2.12988
-0.489523 -0.216621 2.16129
-0.359475 -0.547754 2.16489
-0.360865 -0.664646 2.12216
-0.461737 -0.529169 2.18895
-0.405986 -0.712887 2.10245
-0.196837 -0.743447 2.30861
-0.264187 -0.65731 2.21475
-0.248701 -0.728584 2.23087
-0.41386 -0.344943 2.19821
-0.156753 -0.790976 2.31258
-0.459162 -0.707475 2.0975
-0.272065 -0.593487 2.21807
-0.33364 -0.500336 2.18599
-0.173925 -0.761143 2.35649
-0.197441 -0.826796 2.23379
-0.392484 -0.292904 2.21527
-0.228148 -0.868965 2.22738
-0.36483 -0.377191 2.22113
-0.29028 -0.617014 2.16953
