ply
    format ascii 1.0           
    element vertex 51
    property double x           
    property double y           
    property double z           
    end_header
-0.189759 -0.327373 2.50036
-0.185552 -0.90275 2.55421
-0.0638378 -0.756611 2.39272
-0.267561 -0.129459 2.53374
-0.117787 -0.839095 2.4727
-0.148975 -0.68961 2.39487
-0.206155 -0.556233 2.41399
-0.1391 -0.510604 2.45831
-0.125614 -0.590897 2.4254
-0.0376348 -0.792822 2.48721
-0.0617437 -0.658407 2.4094
-0.0281246 -0.798261 2.58584
-0.00288202 -0.632267 2.57911
-0.164174 -0.418499 2.52228
0.000599182 -0.706287 2.63996
0.0274067 -0.628702 2.67828
-0.0860318 -0.567785 2.51201
-0.0460468 -0.54981 2.58469
-0.00647097 -0.703739 2.47168
-0.103641 -0.420006 2.59532
-0.0491889 -0.483044 2.64087
-0.159188 -0.348201 2.5887
-0.0335709 -0.811444 2.68353
-0.0876221 -0.489962 2.53794
-0.0741332 -0.648143 2.51472
-0.0135701 -0.840521 2.77002
-0.00751025 -0.762098 2.82996
-0.109712 -0.900684 2.6413
-0.252586 -0.446417 2.54103
-0.299278 -0.915977 2.60375
-0.308634 -0.667788 2.50164
-0.258756 -0.528988 2.49015
-0.241438 -0.619224 2.46815
-0.168949 -0.762294 2.45659
-0.288148 -0.323516 2.49779
-0.312232 -0.83047 2.58542
-0.203937 -0.82237 2.51751
-0.240166 -0.716642 2.48865
-0.178215 -0.900659 2.54896
-0.319353 -0.739771 2.55925
-0.313175 -0.503018 2.56576
-0.354492 -0.656265 2.57348
-0.309374 -0.591106 2.53301
-0.355865 -0.837524 2.6565
-0.321825 -0.383852 2.56546
-0.376091 -0.768103 2.7025
-0.283366 -0.206246 2.58969
-0.324063 -0.912221 2.68027
-0.247726 -0.781605 2.57512
-0.0390242 -0.790261 2.48309
-0.19182 -0.324604 2.50066
