ply
    format ascii 1.0           
    element vertex 46
    property double x           
    property double y           
    property double z           
    end_header
-0.236832 0.131819 1.53784
-0.144171 -0.0570716 1.45506
-0.183511 -0.377773 1.2879
-0.209897 0.0351466 1.46405
-0.147622 0.0237962 1.45934
-0.128922 -0.252794 1.30502
-0.0699311 -0.275092 1.32799
-0.230927 -0.0234269 1.46333
-0.195867 -0.0730467 1.42164
-0.112684 -0.156425 1.37309
-0.219551 -0.424843 1.29539
-0.072925 -0.223355 1.36497
-0.1248 -0.385693 1.31831
-0.0720009 -0.42182 1.33362
-0.130756 -0.213399 1.35109
-0.0990804 -0.329287 1.31263
-0.194214 -0.198048 1.35342
-0.218625 -0.272003 1.33632
-0.160464 -0.307355 1.32113
-0.233561 -0.160918 1.38458
-0.173409 -0.14331 1.38139
-0.214106 0.0703065 1.54531
-0.254104 -0.0915848 1.4423
-0.185819 -0.354204 1.34797
-0.232092 -0.253636 1.39433
-0.168626 -0.257357 1.36507
-0.222547 -0.313955 1.39694
-0.232233 -0.385712 1.33768
-0.195691 -0.0744564 1.42163
-0.144291 -0.0559575 1.45518
-0.0521268 -0.358196 1.36275
-0.0885788 -0.187228 1.42948
-0.0421696 -0.276044 1.38869
-0.0346679 -0.348185 1.42345
-0.145671 -0.084121 1.51467
-0.0412177 -0.40727 1.44486
-0.150106 -0.0135359 1.51332
-0.133516 -0.146126 1.50927
-0.0718653 -0.418224 1.39371
-0.132154 -0.13782 1.43137
-0.105505 -0.233747 1.4656
-0.0887034 -0.283425 1.48989
-0.167931 0.0534144 1.51203
-0.0679336 -0.302651 1.43564
-0.192019 0.0184468 1.5581
-0.0456193 -0.469784 1.44399
