ply
    format ascii 1.0           
    element vertex 20
    property double x           
    property double y           
    property double z           
    end_header
-0.174073 -0.243775 1.77151
-0.0457867 -0.0519229 1.51679
-0.0457871 -0.0519232 1.51679
-0.0457871 -0.0519231 1.51679
-0.0458116 -0.0519555 1.51684
-0.0457866 -0.0519228 1.51679
-0.045787 -0.0519231 1.51679
-0.0458101 -0.0519566 1.51684
-0.113468 -0.159352 1.66096
-0.0426167 -0.0485319 1.51133
-0.0457727 -0.0519129 1.51677
-0.0457723 -0.0519101 1.51677
-0.119603 -0.154155 1.65617
-0.101474 -0.113852 1.61054
-0.0596576 -0.0655937 1.54038
-0.0457679 -0.0519082 1.51676
-0.0457785 -0.0519167 1.51678
4.41061 3.75905 -6.86535
-0.0457872 -0.0519233 1.51679
-0.0425289 -0.047966 1.50914
