ply
    format ascii 1.0           
    element vertex 62
    property double x           
    property double y           
    property double z           
    end_header
-0.42929 -0.438414 5.29637
-0.620103 -1.76673 4.85224
-0.121725 -1.76291 4.82633
-0.730233 -1.9883 4.92016
-0.260608 -1.98338 4.89409
-0.768195 -1.62445 4.78323
-0.421239 -1.42769 4.90563
-0.881288 -1.74828 4.87391
-0.297786 -1.80157 4.83774
-0.585626 -1.55874 4.80789
-0.44859 -1.71333 4.8971
-0.638659 -0.333988 5.16167
-0.614716 -2.07688 5.04248
-0.182185 -2.10091 5.02679
-1.03969 -1.66644 4.91502
-0.480238 -0.923514 5.09921
-1.00308 -1.83667 4.96946
-0.515068 -1.13601 5.01661
-0.539644 -1.9511 4.92203
-0.361457 -1.10141 5.11051
-0.780924 -1.44938 4.83914
-0.606877 -0.684367 5.19898
-0.800108 -1.87424 5.02054
-0.713258 -1.17809 5.00406
-0.604254 -1.38515 4.88409
-0.408208 -1.28499 5.01703
-0.650053 -0.874177 5.14579
-0.750568 -1.02777 5.08896
-0.889617 -1.55074 4.93867
-0.632034 -0.478575 5.33533
-0.740299 -0.638305 5.37206
-0.373723 -1.87082 4.96389
-0.787829 -0.865937 5.27025
-0.260563 -1.68082 4.965
-0.847281 -1.32388 5.08577
-0.897598 -1.32896 5.24718
-0.933764 -1.47248 5.13234
-0.805962 -1.18772 5.17832
-0.163936 -1.52852 5.26661
-0.0991028 -1.65712 5.06031
-0.404816 -2.07188 4.90851
-0.342267 -0.95093 5.22336
-0.406552 -1.58806 5.03022
-0.479049 -0.613243 5.38386
-0.581651 -1.06927 5.14578
-0.804861 -1.84771 4.96314
-0.254191 -1.97671 4.87849
0.00551608 -1.77404 4.95878
-0.334135 -1.44041 5.0821
-0.0278859 -1.61416 5.35414
-0.302853 -1.27159 5.15497
-0.218477 -1.22201 5.42004
-0.460439 -0.807778 5.44748
-0.167718 -2.09442 5.02739
-0.21001 -1.38305 5.34801
-0.526814 -0.838471 5.30943
-0.297784 -1.11796 5.27452
-0.138229 -1.9103 5.01387
-0.154386 -1.5325 5.43548
-0.72485 -1.03669 5.08503
-0.437736 -1.00376 5.54659
-0.216161 -1.38106 5.50299
