ply
    format ascii 1.0           
    element vertex 68
    property double x           
    property double y           
    property double z           
    end_header
-0.136678 -0.281717 5.50768
-0.449995 -1.27102 4.97679
-0.360566 -1.7915 4.57675
-0.353973 -1.56649 4.85559
-0.671601 -1.7536 4.83267
-0.476356 -0.873273 5.32528
-0.524163 -1.84097 4.57532
-0.917451 -1.97885 4.94108
-0.703508 -1.5946 4.91991
-0.103337 -0.56866 5.36671
-0.352048 -0.971923 5.23276
-0.223784 -1.23916 5.03232
-0.526836 -1.51268 4.92014
-0.334591 -0.752152 5.33894
-0.139583 -0.766797 5.301
-1.03447 -2.05065 5.05636
-0.683809 -2.07743 4.70231
-0.585664 -1.27518 5.09312
-0.825761 -1.7362 4.91407
0.0299218 -0.731389 5.42414
-0.128307 -1.61241 4.93253
-0.158182 -0.968385 5.27117
-0.377423 -1.12974 5.07529
-0.304799 -1.41253 4.96377
-0.971403 -1.89507 5.08539
-1.10833 -1.95908 5.19653
-0.570877 -2.00896 4.59881
-0.648817 -1.43376 5.02908
-0.918794 -2.15981 4.91129
-0.717636 -1.95014 4.83276
-0.288242 -0.481017 5.5473
-0.405993 -1.96541 4.49226
-0.520575 -1.67116 4.8597
-0.860175 -1.63273 5.05669
-0.445595 -1.74467 4.71837
-0.641132 -2.22934 4.75904
-0.259746 -1.8071 4.69214
-0.102472 -1.27361 5.20882
-0.152067 -1.49392 5.04148
-0.766079 -1.49874 5.09269
-0.102845 -1.86526 5.00064
-0.240241 -1.7342 4.89537
-0.155766 -1.91849 4.82569
-0.112226 -1.43166 5.17582
-0.153214 -2.06638 4.8779
-0.69051 -1.37229 5.19775
-0.149743 -1.1504 5.35058
-0.231009 -1.94328 4.62881
-1.01506 -1.8159 5.23296
-0.449425 -2.21752 4.72922
-0.30309 -0.660271 5.46264
-1.11648 -1.89277 5.37413
-0.801132 -2.27204 4.95475
-0.766237 -2.07581 4.91039
-0.590704 -1.88444 4.73074
-0.468482 -1.0907 5.32865
-0.813947 -1.87318 5.02268
-0.867376 -1.77372 5.1353
-1.01537 -2.16924 5.18767
-0.931906 -2.25511 5.04886
-1.04868 -2.06779 5.3433
-0.407188 -0.991886 5.45979
-0.418388 -0.800447 5.47404
-0.681918 -1.51896 5.27404
-0.383856 -1.17332 5.40648
-0.764969 -1.64213 5.18074
-0.321434 -0.65154 5.46523
-0.474028 -1.28803 5.34357
