ply
    format ascii 1.0           
    element vertex 61
    property double x           
    property double y           
    property double z           
    end_header
-0.339027 -0.87071 3.96293
-0.172371 1.00047 4.20237
-0.850418 -0.78983 4.61385
-0.134022 -0.615514 3.69695
-0.183343 -0.822648 3.803
-0.630808 -0.148908 4.17333
-0.27172 0.357685 4.08101
-0.688725 -0.65652 4.20178
0.226702 1.85995 4.17881
-1.01568 -0.343804 4.68107
-0.980575 -0.518752 4.49148
-0.864279 -0.703722 4.37177
-0.559463 -0.354383 4.0593
-0.281651 -1.04305 4.11802
-0.781188 -0.478222 4.33899
-0.408426 -0.647291 4.07001
-0.000288445 0.829848 4.12618
-0.676778 -0.912156 4.25391
-0.840475 -0.307802 4.48566
-0.0816511 0.310914 3.94292
0.0445145 -0.790324 3.6483
-0.407388 -0.147762 4.01017
-0.240349 -0.599663 3.91031
-0.525206 0.0558617 4.15735
0.287529 1.4417 4.1267
0.0369137 1.3732 4.28597
-0.724594 -0.955396 4.47903
-0.342047 -0.39118 3.97186
-0.0158369 0.5489 4.00157
-0.65591 -0.298768 4.34359
-0.170539 -0.0275277 3.9838
0.00768046 1.17276 4.15621
0.0674677 -0.103892 3.93679
-0.349039 0.120325 4.05047
-0.573693 -0.479394 4.25148
-0.478569 -0.780627 4.24858
-0.0205701 -1.03231 4.08139
-0.151909 -0.247967 3.97561
0.115836 0.148089 4.00282
-0.51979 -1.01915 4.39531
0.0816255 -0.527 3.67685
0.202594 0.407896 3.9883
0.245004 0.884067 4.17662
0.050769 1.64593 4.3267
0.357903 -0.094419 4.0689
0.236119 -0.675901 3.77204
0.471597 1.283 4.23259
0.25903 1.16459 4.14777
0.21563 -0.286161 4.09648
0.314763 0.114447 4.18423
0.409162 -0.38768 4.32891
0.202455 -0.480541 3.87074
0.350611 0.479239 4.21221
0.0481925 1.64639 4.33093
0.344979 0.261115 4.32301
0.340874 -0.56088 4.16973
0.284685 1.44239 4.11877
-0.511441 0.058388 4.17325
-0.399033 -0.650643 4.07573
-0.04269 -0.413302 3.85373
-0.346649 0.122278 4.03898
