ply
    format ascii 1.0           
    element vertex 47
    property double x           
    property double y           
    property double z           
    end_header
0.891749 0.622735 4.08705
0.980586 -0.42389 4.13079
0.636239 -0.826058 3.96067
0.583207 0.617294 3.7156
1.05138 -0.0860419 4.02823
0.763167 -1.1727 4.17078
0.736351 -0.394629 3.87236
1.01127 0.51682 4.41272
1.04131 -0.516603 4.48099
0.260596 -0.995575 3.88677
0.203114 -1.47806 4.15421
0.478793 -1.36655 4.32726
0.708279 1.2781 3.8632
-0.087001 -0.748067 3.80981
0.00985755 -1.67605 4.37089
0.423032 0.0692221 3.76821
0.330485 -0.635443 3.94395
0.710877 -0.0393265 3.93133
0.409577 -0.254176 3.90111
0.352127 1.02511 3.82587
0.425111 -1.02345 4.19642
0.0384538 -0.478423 3.82528
0.0719781 -0.184861 3.9866
-0.221044 -1.41332 4.439
0.301196 0.601042 3.95009
0.105504 -1.22087 4.32006
-0.336755 -0.563483 3.9078
-0.236662 -1.05743 4.40142
0.159523 0.132531 3.96794
-0.00958217 -0.957181 4.11541
-0.480297 -1.36594 4.79678
-0.511299 -1.21 4.51249
-0.586589 -0.936182 4.69056
0.983595 1.12993 4.03334
0.705735 0.900504 3.90629
0.704583 1.27017 3.87469
0.5906 0.358183 3.99026
0.982497 -0.431079 4.13379
0.993152 -1.09549 4.43444
0.425443 -1.04975 4.19274
0.75322 -1.17732 4.1838
0.948647 0.910878 4.30651
0.760142 -0.843604 4.27603
1.14333 -0.182578 4.35698
0.907285 -0.736637 4.67147
1.05113 -0.521809 4.473
0.0126556 -1.67294 4.3635
