ply
    format ascii 1.0           
    element vertex 46
    property double x           
    property double y           
    property double z           
    end_header
-0.233858 -0.0239854 4.55977
-0.920864 -1.14611 4.31219
-0.783622 -1.43002 4.10786
-0.411247 -0.416412 4.4293
-0.615803 -0.690588 4.49681
-0.840888 -1.00928 4.2542
-0.758348 -0.981144 4.09629
-0.334652 -0.553014 4.34578
-0.252331 -0.218146 4.46305
-0.536498 -0.443477 4.53036
-0.622107 -0.559328 4.58464
-0.764932 -0.87269 4.3445
-0.753301 -1.14934 4.17731
-0.527194 -1.3289 4.12893
-0.668124 -0.861095 4.2011
-0.239935 -0.37779 4.38234
-0.487079 -0.725399 4.38971
-0.603706 -1.0326 4.1776
-0.614231 -1.45847 4.04802
-0.436022 -1.46387 4.07737
-0.607779 -1.196 4.23949
-0.695888 -1.58458 4.11935
-0.223282 -0.676278 4.49974
-0.576433 -1.68974 4.32006
-0.446795 -0.896554 4.34291
-0.170311 -0.496639 4.49168
-0.337935 -1.00253 4.4536
-0.111805 -0.315821 4.48148
-0.486763 -0.579726 4.47074
-0.562141 -1.54752 4.21654
-0.38679 -1.52902 4.23945
-0.321553 -1.23038 4.70594
-0.836834 -1.33575 4.26274
-0.547481 -1.0671 4.35614
-0.457477 -1.25346 4.41734
-0.386859 -1.27878 4.56418
-0.396055 -0.847033 4.5237
-0.417443 -0.257608 4.50862
-0.632204 -0.543248 4.60402
-0.763775 -0.871008 4.34395
-0.878473 -0.978514 4.43211
-0.848711 -1.00344 4.24579
-0.713517 -0.74109 4.62712
-0.839483 -0.924129 4.67406
-0.918788 -1.1282 4.46837
-0.737199 -0.865313 4.78897
