ply
    format ascii 1.0           
    element vertex 33
    property double x           
    property double y           
    property double z           
    end_header
0.0793926 -0.544122 1.36658
-0.0849235 -0.230037 1.46757
-0.0110341 -0.345846 1.36293
-0.0398732 -0.468681 1.29889
0.0447465 -0.369417 1.38819
0.0588833 -0.422813 1.37036
0.0761148 -0.363013 1.43628
0.046229 -0.458051 1.33486
0.0548458 -0.352935 1.48864
-0.0713753 -0.394246 1.32521
0.0150109 -0.492363 1.30545
-0.146694 -0.181364 1.5102
0.0790037 -0.423779 1.42959
-0.113051 -0.267198 1.43212
-0.184871 -0.14792 1.53269
-0.215568 -0.179247 1.49614
0.0167252 -0.32759 1.45364
-0.0554694 -0.303707 1.45429
-0.0653244 -0.3231 1.40641
-0.0697713 -0.351212 1.3607
-0.185781 -0.233063 1.49086
-0.165395 -0.260615 1.45274
-0.0273162 -0.53973 1.32152
-0.00271262 -0.438977 1.35863
-0.0460429 -0.4366 1.33313
-0.118627 -0.328409 1.40727
0.0678164 -0.485781 1.40924
-0.10613 -0.218715 1.51734
-0.101173 -0.284759 1.49529
-0.11087 -0.341528 1.50779
-0.0547521 -0.355274 1.4856
0.0378308 -0.470481 1.45865
0.0714532 -0.547281 1.3691
