ply
    format ascii 1.0           
    element vertex 49
    property double x           
    property double y           
    property double z           
    end_header
-0.126249 0.914876 2.63749
-0.575933 0.0224899 2.28198
-0.442203 0.0528904 2.28184
-0.355008 0.671208 2.42614
-0.518591 -0.0908831 2.33089
-0.402158 0.358157 2.1999
-0.5427 0.241782 2.28428
-0.4955 0.334501 2.25472
-0.288217 0.114305 2.24864
-0.455099 0.175598 2.28029
-0.30657 0.398335 2.23865
-0.432809 0.255223 2.21734
-0.668636 0.209136 2.52476
-0.431844 0.4966 2.39186
-0.216073 0.535265 2.35054
-0.215235 0.260075 2.24597
-0.422764 -0.0466178 2.29617
-0.140751 0.0315192 2.30341
-0.344716 0.209389 2.26237
-0.0636711 0.181773 2.30252
-0.264376 0.614495 2.39892
-0.322073 0.532281 2.37737
-0.167215 0.176758 2.28111
-0.380245 0.126547 2.29192
-0.345157 0.0432254 2.31971
-0.292517 0.30048 2.27266
-0.0164693 0.259494 2.39491
-0.206261 0.755082 2.53155
-0.196677 0.340833 2.32851
-0.137394 0.413549 2.41112
0.0160097 0.158731 2.36182
-0.0558945 0.0852704 2.35808
-0.139337 0.519785 2.46171
-0.24439 0.436251 2.33213
-0.262505 0.702044 2.45481
-0.17105 0.362406 2.50211
-0.119308 0.24416 2.37059
-0.208431 0.625834 2.48845
-0.225504 0.934486 2.64391
-0.576529 0.0234769 2.28796
-0.227541 -0.0618176 2.46469
-0.231502 0.628002 2.62994
-0.293119 -0.0674958 2.33292
0.00908226 0.163117 2.37004
-0.0563294 0.0905027 2.34239
-0.29557 0.297525 2.28234
-0.360147 0.44057 2.32795
-0.439981 0.0498915 2.28081
-0.21352 0.266774 2.24244
