ply
    format ascii 1.0           
    element vertex 64
    property double x           
    property double y           
    property double z           
    end_header
-0.253641 -0.466656 2.39449
-0.269317 -0.253705 2.60085
-0.104075 -0.597005 2.47906
-0.184402 -0.460792 2.53462
-0.0699155 -0.612395 2.53704
-0.143497 -0.693968 2.45864
-0.163883 -0.603283 2.44349
-0.197484 -0.501618 2.46797
-0.319014 -0.689092 2.38321
-0.303366 -0.747018 2.39268
-0.336844 -0.306217 2.50341
-0.226943 -0.380418 2.48424
-0.202305 -0.396361 2.56825
-0.268488 -0.587679 2.39401
-0.235338 -0.443944 2.46555
-0.188297 -0.547404 2.41272
-0.30112 -0.493047 2.34814
-0.223857 -0.643691 2.39506
-0.272676 -0.336939 2.50651
-0.398213 -0.711834 2.36118
-0.287317 -0.284278 2.54178
-0.0994563 -0.553024 2.54783
-0.316687 -0.559306 2.35078
-0.105034 -0.660146 2.50584
-0.151255 -0.561426 2.51052
-0.265841 -0.691034 2.42304
-0.243774 -0.528876 2.41532
-0.335024 -0.614425 2.38383
-0.305786 -0.444408 2.43591
-0.364483 -0.463827 2.40937
-0.297857 -0.390819 2.4767
-0.364094 -0.779612 2.39637
-0.309524 -0.148855 2.66613
-0.288642 -0.642681 2.40471
-0.250221 -0.159758 2.68968
-0.384199 -0.668679 2.40269
-0.36678 -0.514691 2.36196
-0.364307 -0.414434 2.46546
-0.39396 -0.577525 2.37753
-0.350496 -0.369959 2.5167
-0.441311 -0.670294 2.43686
-0.505825 -0.613864 2.50186
-0.458415 -0.729605 2.45236
-0.464247 -0.576372 2.53665
-0.535051 -0.653643 2.53434
-0.239475 -0.747484 2.43712
-0.287055 -0.206651 2.71255
-0.445114 -0.62621 2.49418
-0.40392 -0.517907 2.41339
-0.368304 -0.32101 2.56149
-0.308335 -0.149384 2.67043
-0.402693 -0.479509 2.51538
-0.396497 -0.415589 2.52685
-0.381809 -0.375065 2.57844
-0.524768 -0.599044 2.56413
-0.404784 -0.545113 2.55242
-0.482043 -0.582645 2.60168
-0.489306 -0.672888 2.48149
-0.409669 -0.462225 2.5839
-0.355915 -0.259196 2.65819
-0.323323 -0.294402 2.59909
-0.315825 -0.559513 2.34621
-0.158792 -0.606304 2.4424
-0.362301 -0.778258 2.39285
