ply
    format ascii 1.0           
    element vertex 43
    property double x           
    property double y           
    property double z           
    end_header
-3.77177 -0.372004 11.383
-2.13098 1.35398 10.4331
-1.89263 2.53669 11.3137
-1.79352 3.6132 11.8955
-2.16885 2.93526 12.4051
-1.67033 4.64142 11.7853
-3.38901 0.510796 11.4738
-2.98421 -0.314514 10.5044
-2.70575 -1.1513 9.94422
-1.94146 1.79908 11.924
-3.25642 -1.19144 10.8822
-1.5234 1.30356 9.48478
-2.31488 -0.220842 9.88474
-1.31657 5.41078 12.3716
-1.29176 3.21524 11.1778
-1.64192 -0.597282 9.31528
-1.79795 0.536651 9.88134
-0.951501 4.12841 11.6083
-0.930327 -1.30563 9.30858
-1.82466 5.53561 13.0697
0.242438 1.36944 9.18337
-0.945557 0.605102 9.59673
-1.51566 1.9715 10.1332
-0.699744 2.3346 9.81764
1.12597 0.926965 9.31589
-0.0708094 0.548395 9.46995
0.146999 -0.809049 9.39861
-0.712751 -0.299125 9.40113
0.753421 0.18658 9.7611
-2.73662 0.425327 10.8733
0.292859 -1.62297 9.96623
-0.583618 1.40515 9.68295
-0.686296 -1.77695 10.1127
-0.842659 -1.30735 9.31614
-0.440574 3.09115 11.0876
1.05542 1.6833 9.96435
0.930378 -0.737431 10.1785
0.104187 1.91783 9.89442
0.00110943 2.48139 10.5332
-0.927386 4.10812 11.5687
-1.92134 2.56151 11.2612
-1.78012 3.61147 11.9176
-0.673131 4.622 12.3406
