ply
    format ascii 1.0           
    element vertex 45
    property double x           
    property double y           
    property double z           
    end_header
0.0318246 -0.55455 1.62771
0.111645 -0.449649 1.67131
0.0551277 -0.39937 1.64818
0.0876251 -0.491784 1.67897
-0.01267 -0.533361 1.61934
0.13885 -0.468591 1.71415
-0.0307535 -0.580144 1.61889
0.00804145 -0.494525 1.62842
0.0635451 -0.536229 1.66166
0.0338027 -0.457116 1.61624
-0.0463676 -0.277472 1.66046
-0.0522458 -0.233893 1.69095
-0.041962 -0.386003 1.65695
-0.0555427 -0.328808 1.6705
0.0948973 -0.557213 1.69925
-0.058407 -0.535135 1.61891
-0.104531 -0.489198 1.63096
-0.0117307 -0.301669 1.68559
-0.0121768 -0.350471 1.66534
0.0634598 -0.447421 1.65545
0.0500864 -0.489773 1.64934
-0.0607133 -0.494112 1.62952
-0.116727 -0.534354 1.62529
0.0598174 -0.586675 1.66713
-0.0218834 -0.450753 1.62639
0.0139621 -0.419047 1.63191
-0.0881054 -0.362442 1.68042
-0.0826427 -0.576038 1.63367
0.0832517 -0.416862 1.68478
0.0129392 -0.391611 1.67073
-0.0957657 -0.228839 1.69378
-0.0644185 -0.421118 1.68272
-0.0497288 -0.461581 1.66413
-0.0200645 -0.426233 1.66672
0.0558784 -0.383958 1.69829
-0.0525495 -0.235224 1.68715
0.0235264 -0.353508 1.69318
0.114147 -0.425352 1.7272
0.0974144 -0.547666 1.75511
0.0776317 -0.594362 1.73595
-0.00268582 -0.333969 1.72638
0.105599 -0.50446 1.72827
-0.0396333 -0.387149 1.65757
-0.0493199 -0.235411 1.68331
-0.0454443 -0.276515 1.66041
