ply
    format ascii 1.0           
    element vertex 43
    property double x           
    property double y           
    property double z           
    end_header
0.187916 -0.00800165 2.06701
0.00653468 -0.605604 2.04046
0.211266 0.12963 2.12109
-0.0249352 -0.353277 2.12969
0.190314 -0.445289 2.00016
0.092462 -0.211956 2.05061
-0.205267 -0.561769 2.11183
-0.0998769 -0.594742 2.06928
0.137065 -0.104596 2.05668
-0.287604 -0.445965 2.18557
0.0827644 -0.518043 2.00706
-0.123889 -0.711644 2.11542
0.262444 -0.639629 2.10415
0.090281 -0.410395 2.05653
-0.0140801 -0.486325 2.06997
0.00759587 -0.711408 2.10742
0.16895 -0.585056 2.05835
0.229727 -0.31072 2.0309
-0.223817 -0.66409 2.14414
0.32858 0.117193 2.12997
0.277321 0.215511 2.16488
0.135698 0.0485196 2.13661
0.202971 -0.195146 2.0515
0.118253 -0.308238 2.09127
0.26211 -0.0960528 2.08104
-0.111488 -0.499221 2.12254
0.304344 -0.204213 2.11349
-0.180198 -0.42912 2.16505
0.260099 -0.41162 2.08334
0.279839 0.006056 2.13841
0.297071 -0.558944 2.17845
0.293452 -0.379037 2.19556
0.317616 -0.102427 2.1832
0.190491 -0.484826 2.14228
0.262411 -0.671932 2.21928
0.298306 0.0358694 2.24719
0.00809396 -0.711754 2.10219
0.280869 -0.229831 2.23425
0.237141 -0.415639 2.31709
0.00829091 -0.60585 2.04067
0.0946739 -0.214546 2.04759
0.134793 -0.105405 2.058
-0.0959499 -0.59919 2.05726
