ply
    format ascii 1.0           
    element vertex 60
    property double x           
    property double y           
    property double z           
    end_header
0.465121 -0.354245 2.7347
-0.130214 -0.319275 2.71218
-0.0878785 -0.108604 2.56088
0.00227125 -0.420856 2.80471
-0.283802 -0.339604 2.76786
-0.109521 0.207655 2.56028
-0.168812 -0.604509 2.91936
-0.10871 0.525285 2.60827
0.0432382 0.125242 2.62818
-0.195322 -0.197313 2.63027
0.229288 -0.246937 2.74475
-0.284477 -0.49958 2.94456
-0.257307 0.0364623 2.65846
-0.113825 0.894063 2.70082
-0.181903 0.667705 2.62119
-0.159304 -0.436308 2.83814
-0.231802 0.273454 2.63958
-0.109578 0.0861749 2.6535
-0.3594 0.0208963 2.76397
-0.110476 0.34976 2.59183
-0.331791 0.294165 2.75408
-0.242207 0.568597 2.71983
-0.320697 0.439238 2.76393
-0.335259 -0.237063 2.86464
-0.384052 -0.377803 2.9084
-0.321915 -0.0634431 2.85125
-0.25419 -0.102259 2.73608
-0.213253 -0.539849 3.12956
-0.303075 0.149361 2.75669
-0.216241 0.424502 2.66678
-0.316058 0.232463 2.90665
0.260144 -0.396338 2.80834
-0.220788 0.80482 2.88176
-0.0402893 -0.207349 2.64573
0.121759 -0.341919 2.8288
0.212281 -0.511102 2.70606
-0.216218 0.757819 2.73654
-0.284446 -0.339224 2.76754
0.157784 0.0186653 2.68639
0.383049 -0.495499 2.75996
0.0175071 0.816186 2.75439
0.0994377 0.486331 2.77707
-0.0512067 0.708532 2.67287
0.00959827 -0.0426435 2.64088
0.38176 -0.246701 2.82052
0.105121 -0.137507 2.70881
0.0171952 0.560014 2.68593
0.56087 -0.392906 2.81993
0.217404 -0.102327 2.81291
0.0213516 0.275615 2.6516
-0.0155403 0.951229 2.86263
0.505114 -0.296858 2.90708
0.0961752 0.339477 2.77135
0.0405128 0.664954 2.78349
0.0711934 0.776249 2.87749
0.104076 0.176475 2.76349
0.118363 0.585597 2.87282
0.000674819 -0.251476 2.82229
0.284901 -0.658775 2.94284
0.264176 -0.39438 2.79608
