ply
    format ascii 1.0           
    element vertex 60
    property double x           
    property double y           
    property double z           
    end_header
-0.473997 -0.152544 2.17351
-0.382001 0.723517 2.04596
-0.492334 -0.294553 2.52927
-0.402979 -0.422305 2.51638
-0.487937 0.0952919 2.19898
-0.471398 0.370976 2.28719
-0.44732 0.329525 2.14023
-0.114697 -0.497625 2.04803
-0.402562 0.240251 2.01485
-0.483914 -0.27058 2.35423
-0.524633 0.090181 2.34247
-0.39188 0.642667 2.17068
-0.417278 -0.0852949 2.04344
-0.342311 0.567497 2.01507
-0.438214 0.526137 2.27687
-0.22859 -0.450672 2.65092
-0.330445 -0.548709 2.44912
-0.184672 0.573423 2.00156
-0.388367 -0.283682 2.21709
-0.0628522 -0.258096 2.03748
-0.442899 0.0115518 2.41241
-0.348294 -0.377688 2.35857
-0.365499 0.122061 2.10504
-0.246507 0.137827 1.99569
-0.341217 -0.185364 2.10248
-0.131284 0.0129335 1.98818
-0.242409 -0.392523 2.22989
-0.174676 -0.139884 2.05853
0.101485 -0.280195 2.0065
-0.221693 -0.220302 2.19096
0.10924 -0.405218 1.90071
-0.37206 0.385653 2.02181
-0.281553 -0.0276681 2.04178
0.236813 -0.460309 1.9345
-0.0198621 -0.115431 2.06672
-0.0769135 0.49648 2.03943
-0.240244 0.741002 2.0061
-0.253287 0.943607 2.05078
-0.129246 0.842462 2.02117
-0.236243 0.292429 2.00155
-0.0299714 -0.413892 2.07457
0.0414154 -0.535171 1.98518
-0.132638 -0.525539 2.03685
-0.0993888 0.350116 2.05243
-0.0132356 0.800336 2.10721
-0.0329868 0.0499646 2.10047
0.147918 -0.583426 2.04816
-0.113405 0.185053 2.06523
0.0479043 -0.669682 2.20826
-0.103483 0.689931 2.05192
0.243952 -0.348554 2.01537
0.00342199 0.600677 2.10399
-0.363243 -0.417275 2.37271
-0.236307 0.435842 2.07707
-0.117171 -0.336906 2.17109
-0.337796 -0.555244 2.45096
-0.244895 -0.395597 2.22804
-0.328832 0.82493 2.14876
-0.415809 0.482751 2.12772
-0.489905 -0.275075 2.3557
