ply
    format ascii 1.0           
    element vertex 67
    property double x           
    property double y           
    property double z           
    end_header
-0.871519 -0.612008 7.51087
-0.603456 -0.208347 7.78698
-0.803178 -1.49605 6.98818
-1.42615 -1.61601 6.98983
-1.58702 -1.74882 7.07093
-0.897965 -1.07639 7.38308
-0.865109 -0.821038 7.39214
-1.10279 -1.20441 7.37208
-1.0184 -1.4148 7.14085
-0.822948 -1.2654 7.15011
-1.43892 -1.48587 7.16218
-1.63739 -1.64493 7.28108
-1.31112 -2.08202 6.84839
-0.77426 -2.29179 6.85509
-1.42507 -1.83133 6.91703
-1.22531 -1.69599 6.87082
-0.49188 -0.397922 7.65191
-0.572297 -2.16967 6.86231
-1.07626 -1.97079 6.81611
-1.22957 -2.37163 7.01581
-1.40875 -2.22389 7.09646
-1.10063 -2.21172 6.84788
-0.667898 -2.62244 7.06594
-0.596668 -1.16198 7.24541
-0.371173 -2.25173 6.85023
-0.3667 -2.43766 6.84489
-0.643301 -0.551019 7.54433
-0.6438 -0.940236 7.3532
-1.22258 -1.54457 7.08282
-0.601272 -1.3877 7.09871
-0.608694 -1.9734 6.99609
-0.909432 -1.88608 6.94148
-0.478089 -0.738564 7.56762
-0.753577 -1.73014 7.01619
-1.0322 -1.69834 7.01058
-0.601093 -2.43364 6.92932
-0.549678 -1.62785 7.12002
-0.861696 -2.58122 7.13581
-0.418935 -1.35777 7.25904
-0.902768 -2.11971 6.95237
-0.36184 -0.963914 7.60907
-0.419493 -1.98387 7.17136
-0.701467 -0.803129 7.52793
-0.391691 -1.81242 7.31234
-0.402097 -1.1437 7.41113
-0.976427 -2.33042 6.95835
-0.393444 -2.14142 7.04415
-0.39147 -1.58904 7.36058
-1.21213 -1.8968 6.9736
-1.02675 -0.64047 7.69494
-0.818537 -0.29152 7.89129
-1.02127 -0.907362 7.55602
-0.230156 -2.14337 7.1919
-1.14369 -1.12571 7.59366
-1.40638 -2.21941 7.06528
-0.800473 -0.533363 7.7274
-1.12231 -1.3677 7.54241
-1.41341 -2.00416 7.0673
-0.894256 -0.525403 7.94952
-1.48289 -1.52433 7.37373
-0.503492 -0.409422 7.64426
-1.4096 -2.09732 7.2806
-0.925506 -0.758974 7.99344
-1.52949 -1.87689 7.25415
-1.0284 -1.54352 7.71271
-0.925494 -0.851884 7.7795
-1.29128 -1.47829 7.31898
