ply
    format ascii 1.0           
    element vertex 63
    property double x           
    property double y           
    property double z           
    end_header
-3.28082 -1.66191 12.0382
-1.26654 3.91628 14.1576
-1.88902 3.63181 14.9755
-1.77035 -2.78603 11.0558
-2.05634 -3.5966 12.0727
-2.48317 -1.81071 11.4032
-1.70103 1.16392 13.5004
-1.91906 1.42255 14.5618
-3.62725 -1.32315 12.9867
-2.86235 -0.390702 12.4938
-1.59983 2.50319 14.3742
-1.3291 5.34235 15.943
-2.90527 -2.20686 12.8821
-2.6839 -0.890104 11.742
-1.22853 3.20745 16.4627
-0.491429 5.90145 15.5047
-2.29744 -2.59955 12.0059
-1.15021 -4.05383 11.8169
-0.943016 1.94461 13.5571
-1.75791 -0.97236 11.174
-1.03485 3.04771 13.6523
-0.15825 0.28929 11.7653
-1.49728 4.24338 16.1405
-0.453221 1.2394 12.5213
-2.24886 -3.06706 13.0258
-0.86501 -2.02355 10.9378
-1.14399 0.380331 12.4221
0.00707425 2.78739 13.4532
-1.64966 0.390944 14.2985
0.618368 0.990181 12.2668
-3.07944 -0.626177 13.4506
0.213379 1.86107 12.8862
0.173739 5.22849 14.8625
-1.90749 -0.380374 12.1581
0.746107 -3.13636 11.0961
2.6211 -3.30801 10.9362
2.42713 -2.49502 11.0404
1.53046 -2.4114 11.2454
-0.732041 -3.11289 11.0628
0.30411 -0.717077 11.9511
1.08192 -0.0277442 12.3918
1.68009 -3.63223 11.4095
1.16526 -1.59026 11.7777
0.413631 1.92322 12.9683
-0.345848 4.44531 14.4919
1.58689 -4.61179 11.9901
0.541078 3.84597 14.4856
-0.218961 -1.52678 11.5141
3.03561 -1.94859 12.6779
2.0171 -0.690594 13.28
-0.934528 -0.83247 11.86
1.26215 3.02301 14.6186
2.01568 -1.40276 12.4213
1.37171 1.28547 12.8838
0.698183 -4.74281 12.3932
-0.371604 3.31708 14.2164
1.81162 0.237927 13.6998
-0.0396855 -3.72852 11.739
1.2305 2.19729 13.6994
0.0339354 -2.51025 11.3753
2.28351 -2.06889 12.0388
-3.63136 -1.33673 13.1076
-1.89905 3.60034 14.6283
