ply
    format ascii 1.0           
    element vertex 44
    property double x           
    property double y           
    property double z           
    end_header
-0.318228 -1.5028 2.06299
-0.304986 -1.44235 2.03259
-0.393399 -1.94678 2.088
-0.376601 -1.85714 2.08239
-0.428018 -1.94831 2.15573
-0.426406 -1.88336 2.20904
-0.343501 -1.74444 2.04829
-0.381796 -1.67187 2.12436
-0.306521 -1.44628 2.10364
-0.378427 -1.75749 2.16741
-0.393271 -1.82074 2.14247
-0.347689 -1.65886 2.07227
-0.403348 -1.89218 2.12665
-0.310139 -1.5736 2.06715
-0.308609 -1.38899 2.06459
3.7259 -3.14551 10.048
-0.349692 -1.91007 2.06044
-0.271642 -1.50087 2.02575
-24.2868 -12.0894 -34.2968
-0.248545 -1.4424 2.01454
-0.257294 -1.59361 2.03853
-0.344549 -1.61661 2.1359
-0.29083 -1.76583 2.07158
-0.299399 -1.70241 2.05647
-0.34232 -1.80893 2.10302
-0.268529 -1.39228 2.03323
-0.290916 -1.63678 2.06415
-0.312401 -1.86131 2.08181
-0.220674 -1.5411 2.0393
-0.264609 -1.90006 2.07895
-0.314125 -1.938 2.10878
-0.277976 -1.82054 2.11292
-0.199465 -1.4781 2.03257
-0.223751 -1.85694 2.1069
-0.240702 -1.6975 2.08542
-0.206657 -1.6535 2.10204
-0.221993 -1.91724 2.1156
-0.240025 -1.63487 2.07247
-0.216427 -1.40929 2.05692
-0.260864 -1.75997 2.12
-0.225032 -1.59695 2.09507
-0.254651 -1.98139 2.19846
-0.240282 -1.76469 2.17732
-0.224511 -1.69474 2.15017
