ply
    format ascii 1.0           
    element vertex 51
    property double x           
    property double y           
    property double z           
    end_header
-0.677684 -1.40642 3.53323
-0.552661 -0.803491 3.40484
-0.65208 -0.67146 3.50261
-0.656245 -0.556685 3.45902
-0.624038 -0.788068 3.48748
-0.596853 -0.648355 3.41052
-0.683356 -0.980918 3.60655
-0.667802 -0.936525 3.51138
-0.671756 -1.26221 3.5186
-0.662486 -1.07127 3.45613
-0.490219 -1.31206 3.43763
-0.68524 -1.32612 3.5964
-0.63247 -1.3416 3.46234
-0.577364 -0.54077 3.38311
-0.585624 -0.886334 3.46062
-0.558666 -1.09776 3.45455
-0.591107 -0.993963 3.45085
-0.614208 -1.18098 3.52948
-0.483037 -0.601012 3.38331
-0.500826 -0.710093 3.39378
-0.571347 -1.25649 3.46998
-0.547656 -1.38311 3.50485
-0.400934 -1.33588 3.48193
-0.484174 -0.979514 3.47002
-0.426287 -0.904534 3.49284
-0.507657 -1.18908 3.50601
-0.419413 -1.23782 3.47065
-0.499067 -0.87768 3.444
-0.485479 -1.0891 3.52351
-0.50553 -0.48959 3.45169
-0.427041 -1.10161 3.60202
-0.470256 -0.813534 3.4954
-0.611457 -0.464288 3.43365
-0.423049 -0.985418 3.56346
-0.562762 -0.427075 3.53054
-0.674739 -1.21132 3.61367
-0.408647 -1.44339 3.59963
-0.416316 -1.18798 3.55846
-0.655751 -0.474384 3.51608
-0.684364 -1.32655 3.59261
-0.683855 -1.40893 3.52179
-0.635311 -0.875425 3.59993
-0.635939 -1.05304 3.55544
-0.705734 -1.41672 3.63619
-0.693995 -1.31358 3.69753
-0.686803 -0.97255 3.60965
-0.65233 -1.11289 3.64376
-0.619657 -0.767441 3.58782
-0.66285 -1.3937 3.72691
-0.642943 -0.578644 3.54278
-0.650926 -1.2222 3.69361
