ply
    format ascii 1.0           
    element vertex 64
    property double x           
    property double y           
    property double z           
    end_header
0.0810736 1.52594 3.11831
0.012468 1.41034 3.23598
0.04966 0.321912 2.49302
0.0986744 0.313863 2.63354
0.169244 0.855265 2.97711
-0.104221 0.686611 2.83101
-0.227426 -0.247957 2.52068
-0.0264104 1.05529 2.8679
0.17452 0.465885 2.82396
0.0593543 0.00110868 2.56081
-0.0285835 1.23676 2.99345
0.0821667 1.08082 3.00098
0.0157136 0.513883 2.78148
0.11514 0.677352 2.94892
-0.212068 -0.0670426 2.45833
-0.100195 0.28482 2.40082
-0.339162 -0.187716 2.43458
0.216178 -0.00626419 2.97801
-0.0762237 1.57105 3.18994
0.0083025 -0.175984 2.73736
-0.0248399 -0.299755 2.84742
-0.0672348 0.0155089 2.46207
0.0955428 0.162011 2.64661
-0.00510857 0.800292 2.95517
0.140563 0.385599 3.01427
0.0991411 0.106722 2.85437
0.162518 0.756038 3.12541
-0.0313369 0.171355 2.5048
0.104737 -0.0269741 2.72236
-0.202159 0.140777 2.45179
-0.123552 0.89573 2.94478
-0.144284 -0.22552 2.65051
-0.0961391 -0.072087 2.60672
-0.329968 0.564036 2.69974
-0.64993 -0.192456 2.59874
-0.759033 -0.0392225 2.64917
-0.292229 0.271245 2.51843
-0.631098 0.224574 2.84185
-0.395445 -0.0328766 2.46527
-0.312123 0.43463 2.59068
-0.584143 -0.0324165 2.58167
-0.266116 0.813091 2.95485
-0.176442 0.493329 2.67129
-0.507727 0.082506 2.68242
-0.665016 0.0726834 2.73289
-0.132089 1.07694 3.01315
-0.408356 0.304432 2.65738
-0.339754 0.163368 2.62906
-0.774461 -0.193271 2.74134
-0.220072 0.945419 3.078
-0.289832 0.659064 2.86607
-0.462447 0.43083 2.72085
-0.446689 -0.182033 2.56935
-0.464626 0.201033 2.77991
-0.140916 0.366994 2.54217
-0.533098 0.324584 2.95887
-0.401925 0.517936 2.8502
-0.754544 -0.0335296 2.8378
-0.664841 0.22683 3.01746
-0.362668 0.694038 3.02657
-0.342532 0.633896 3.15388
-0.0904238 1.19079 3.16424
-0.666341 0.0717467 2.95787
-0.283452 -0.249258 3.19716
