ply
    format ascii 1.0           
    element vertex 57
    property double x           
    property double y           
    property double z           
    end_header
-0.194272 -0.650332 1.30702
-0.323603 -0.531702 1.29834
-0.227696 -0.512131 1.30633
-0.266776 -0.335975 1.36725
-0.178848 -0.612762 1.30887
-0.31477 -0.214609 1.41056
-0.151544 -0.577148 1.33768
-0.187538 -0.569377 1.30815
-0.168539 -0.53891 1.33194
-0.259588 -0.386311 1.37058
-0.312138 -0.326013 1.35827
-0.216627 -0.476009 1.32198
-0.273147 -0.601335 1.30882
-0.232444 -0.667406 1.3194
-0.25825 -0.541914 1.30512
-0.311516 -0.27523 1.37194
-0.256935 -0.459034 1.31338
-0.301556 -0.375945 1.3532
-0.225379 -0.612696 1.30871
-0.271778 -0.295372 1.39139
-0.354731 -0.187432 1.39969
-0.31386 -0.448788 1.32377
-0.364631 -0.5464 1.30462
-0.294558 -0.563104 1.3095
-0.317099 -0.60789 1.32757
-0.333898 -0.571192 1.3101
-0.338221 -0.358483 1.36483
-0.310245 -0.41455 1.34126
-0.227426 -0.560583 1.32392
-0.366462 -0.510122 1.32752
-0.264081 -0.637934 1.31984
-0.362371 -0.582506 1.33384
-0.343925 -0.401026 1.35878
-0.265845 -0.505799 1.30863
-0.290431 -0.485079 1.3296
-0.338202 -0.450261 1.36518
-0.295741 -0.527055 1.32296
-0.348781 -0.30199 1.37557
-0.273475 -0.426299 1.34191
-0.32786 -0.50823 1.33675
-0.314503 -0.209241 1.41232
-0.151322 -0.615901 1.34443
-0.238851 -0.437169 1.42008
-0.207225 -0.531254 1.34326
-0.220843 -0.471587 1.40033
-0.173054 -0.651228 1.34591
-0.292871 -0.253226 1.41141
-0.261277 -0.431809 1.38149
-0.178859 -0.511387 1.37636
-0.152074 -0.549073 1.3713
-0.258383 -0.335924 1.41635
-0.244334 -0.389576 1.41433
-0.254963 -0.463305 1.35985
-0.215891 -0.490241 1.36181
-0.179938 -0.54591 1.40754
-0.154799 -0.584004 1.37866
-0.229547 -0.468739 1.44219
