ply
    format ascii 1.0           
    element vertex 48
    property double x           
    property double y           
    property double z           
    end_header
-0.135143 1.00297 3.40588
-0.25028 -0.539873 2.6689
-0.00435568 1.08804 3.36301
0.13736 -0.756789 2.81972
-0.13317 0.0537584 2.92889
-0.217571 -0.78957 3.02286
-0.276905 -0.65353 2.82346
-0.31705 -1.00403 3.11605
-0.18768 0.534164 3.18797
-0.156611 -0.346131 2.71269
-0.108717 0.245063 3.0216
-0.370934 -0.484975 3.04785
0.305187 -0.699485 2.83249
-0.0709583 -0.556603 2.6626
-0.320697 -0.149168 3.00297
-0.421066 -0.319483 3.12826
-0.229221 -0.247506 2.86765
0.0322508 -0.0213404 2.9551
0.230642 -0.870457 3.0032
-0.245134 0.173622 3.27023
0.03793 -0.703174 2.92414
0.155326 -0.585874 2.83899
0.00474692 -0.411244 2.73083
-0.0221474 0.632992 3.24568
0.0544666 0.14813 2.98012
0.313175 -0.519274 2.90814
0.122761 -0.128394 3.06655
-0.280709 0.00467591 3.06981
-0.114181 -0.144372 2.98642
-0.0419346 0.390551 3.07513
0.0907677 -0.286056 2.99123
0.139228 0.578511 3.31117
0.0320218 0.86796 3.52404
0.438523 -0.650936 2.97095
-0.0478582 -0.329269 2.87338
0.152681 0.351697 3.25607
0.187873 0.173827 3.21167
0.0322422 0.456879 3.17863
0.0681361 0.275289 3.11745
0.107933 0.0325171 3.12863
0.165121 -0.273249 3.17389
-0.0110655 -0.583005 2.8181
0.383325 -0.526033 3.09236
0.154234 -0.109319 3.24267
-0.0118534 1.06011 3.52978
-0.275227 0.00310148 3.05382
-0.0693743 -0.558807 2.65715
0.234531 -0.858563 3.00482
