ply
    format ascii 1.0           
    element vertex 59
    property double x           
    property double y           
    property double z           
    end_header
-0.174211 1.04707 2.76296
-0.287126 0.968012 2.83143
-0.445031 -0.185272 2.70276
-0.222927 -0.626449 2.43341
0.169698 -0.716298 2.5717
-0.120982 -0.0593794 2.59249
-0.396071 -0.616723 2.46143
-0.336993 0.493128 2.72952
-0.261893 0.198338 2.6204
-0.287948 -0.00161015 2.57256
-0.179322 0.604635 2.74394
-0.385006 -0.965774 2.93615
-0.0133828 0.568852 2.78668
0.176728 -0.528851 2.60212
-0.313189 -0.420433 2.45432
-0.203997 0.350598 2.64329
-0.364679 -0.299462 2.58731
-0.151325 -0.470717 2.46067
-0.402954 -0.694 2.61506
0.0122812 -0.777171 2.58979
-0.3208 -0.778642 2.79823
-0.493411 -0.780286 3.11879
-0.250704 -0.177759 2.6607
-0.466505 -0.489473 2.81659
-0.52028 -0.326763 2.84967
-0.422738 -0.485818 2.58118
-0.484279 -0.618173 3.01929
-0.410311 -0.0280677 2.72911
-0.391331 -0.766 2.96242
-0.09166 -0.70171 2.66961
-0.355983 0.170179 2.89182
-0.104903 0.107462 2.58083
-0.298017 0.449087 2.89261
-0.505239 -0.622532 3.19437
-0.277264 0.270888 2.7671
-0.30931 0.632968 2.86341
-0.0465526 -0.30155 2.6741
-0.37751 -1.00302 2.9942
0.0197773 -0.61181 2.57528
0.315545 -0.633813 2.66626
-0.0830358 0.2489 2.67728
-0.0114781 -0.140404 2.70178
-0.119196 0.431841 2.70986
0.0107682 0.347261 2.77364
-0.187613 -0.369813 2.59074
0.047679 0.176131 2.76646
0.1324 -0.851186 2.7551
0.0508063 -0.254882 2.82015
-0.103496 0.873386 2.94698
0.262487 -0.503393 2.76765
-0.0347624 0.0253837 2.74427
-0.145706 -0.620393 2.57701
0.0439479 0.05663 2.90937
0.0351461 -0.0908907 2.85252
-0.298466 -0.794343 2.82452
-0.39088 -0.700781 2.62466
-0.330668 0.494162 2.72423
-0.160432 1.05494 2.92777
0.315267 -0.642999 2.66287
