ply
    format ascii 1.0           
    element vertex 35
    property double x           
    property double y           
    property double z           
    end_header
-0.287697 -3.85918 17.1717
1.70371 -3.68551 17.4964
2.19948 -2.51553 17.3843
1.79783 3.4422 18.603
-1.60511 -4.40396 18.0343
1.54236 1.78823 18.106
-1.72997 -3.55893 17.0986
1.74653 -1.29916 17.1707
0.952185 5.55884 18.9379
-0.317099 -2.6088 17.63
-0.7625 -4.81489 18.7915
-1.53451 -2.4581 17.5068
0.790213 -0.462773 17.3246
0.249844 4.08703 18.9466
-0.113601 1.49539 18.0689
0.189586 -1.46532 17.8164
1.98098 -0.217627 17.8751
0.923112 0.743086 17.7756
1.08596 -2.52634 17.9443
-0.14239 0.0266433 18.0832
-0.734064 -0.987233 18.6478
-1.05 0.0857988 19.3169
-2.13928 -3.39367 18.5747
-1.97386 -2.11686 20.4574
3.52454 -3.06829 18.4337
1.08117 4.4137 18.6159
0.600013 2.40228 18.5814
2.10266 4.65443 19.2379
3.15374 -1.99587 18.0735
2.64522 3.30911 19.5439
0.460253 -3.63473 18.4233
2.63006 -1.09517 18.7216
-1.2951 -1.53569 19.7245
-1.91768 -2.1139 20.4966
-2.00245 -3.44377 18.8796
