ply
    format ascii 1.0           
    element vertex 38
    property double x           
    property double y           
    property double z           
    end_header
-0.373841 0.867606 5.11149
-0.184394 1.22087 5.13678
-0.57745 0.311727 4.82483
-0.618641 -0.0345809 4.74982
-0.493121 -0.0983046 4.47211
-1.10455 -0.828422 4.52204
-1.06368 -0.870561 4.86142
-0.699496 -0.30875 4.8726
-0.201536 -0.570322 4.23577
-0.789623 -0.89506 4.37718
-0.0726852 0.745865 4.86036
-1.00266 -1.0783 4.6577
-0.733214 -0.623725 4.52598
-1.00997 -0.593495 4.63501
-0.311683 -0.278048 4.30797
-0.323384 -0.854307 4.24285
-0.68621 -0.0965395 5.10571
-0.585158 -0.364402 4.58356
-0.402683 0.157081 4.61331
-0.410652 -0.611539 4.45271
-0.840944 -0.693606 5.2964
-0.833674 -1.18975 4.97006
-0.745298 -1.21469 4.71861
-0.214371 0.383221 4.68386
-0.171818 0.978699 5.02623
-0.167913 -0.0605766 4.48742
0.0824981 1.00065 5.02955
0.168934 -0.746674 4.30101
-0.35482 0.50059 4.91897
0.211299 0.666521 4.97565
-0.525177 -0.896947 4.5518
0.0768004 -0.488171 4.32059
0.0126349 -0.296471 4.51908
-0.153194 0.129277 4.82623
0.150961 0.412479 5.15655
-0.0816477 0.384852 4.90585
-0.016144 0.15118 5.20299
-0.370728 0.873014 5.1082
