ply
    format ascii 1.0           
    element vertex 50
    property double x           
    property double y           
    property double z           
    end_header
-0.171781 -0.445893 1.35015
-0.181946 -0.0311048 1.56751
-0.251878 -0.354846 1.3328
-0.207466 -0.353742 1.34023
-0.225368 -0.230392 1.42452
-0.237467 -0.314676 1.34709
-0.175092 -0.295938 1.3965
-0.221978 -0.051016 1.54761
-0.178483 -0.168237 1.46967
-0.179589 -0.250721 1.4107
-0.169327 -0.334102 1.37725
-0.216544 -0.136766 1.51064
-0.182654 -0.213961 1.43433
-0.273084 -0.292518 1.38388
-0.170296 -0.133813 1.50545
-0.24795 -0.421576 1.35319
-0.205573 -0.402381 1.34405
-0.215577 -0.451746 1.3356
-0.223847 -0.100527 1.53934
-0.278575 -0.332921 1.36398
-0.256646 -0.203937 1.47989
-0.215934 -0.193066 1.45218
-0.228881 -0.275687 1.41392
-0.27476 -0.377384 1.35389
-0.260997 -0.259654 1.45759
-0.242128 -0.465678 1.37148
-0.271424 -0.444512 1.39754
-0.14149 -0.280826 1.43549
-0.0761099 -0.391042 1.46307
-0.169312 -0.374036 1.36255
-0.218036 -0.30519 1.38693
-0.0976588 -0.3531 1.46677
-0.176293 -0.0855635 1.53009
-0.131193 -0.255985 1.474
-0.136123 -0.318967 1.40794
-0.114834 -0.304009 1.46976
-0.160162 -0.416265 1.38114
-0.131032 -0.385734 1.41891
-0.143761 -0.154881 1.54219
-0.178548 -0.0585013 1.61559
-0.116935 -0.424126 1.45855
-0.166126 -0.200808 1.51148
-0.155277 -0.456361 1.41071
-0.135298 -0.348712 1.44241
-0.161844 -0.202575 1.56237
-0.0881252 -0.371291 1.50175
-0.228 -0.275814 1.41443
-0.278243 -0.333708 1.36682
-0.256135 -0.204437 1.47657
-0.273671 -0.378164 1.35612
