ply
    format ascii 1.0           
    element vertex 46
    property double x           
    property double y           
    property double z           
    end_header
0.949101 1.77242 6.83992
0.943444 0.19089 6.01558
0.530542 -0.349699 6.08703
1.0822 1.46279 7.06393
1.24783 0.0238489 6.22723
1.4825 0.240953 6.51252
1.43493 -0.194401 6.56176
0.21782 -0.688824 6.18799
1.17219 0.426554 6.23509
0.540737 1.07453 6.49714
1.07166 -0.338574 6.53326
0.883126 -0.170476 6.19055
1.30236 0.638869 6.57233
0.564975 1.73209 6.8877
0.724492 -0.484593 6.41373
1.02979 0.933472 6.63881
0.515548 0.0561939 6.11989
0.821832 1.2433 6.73609
0.695873 0.422371 6.21497
0.724229 0.74899 6.44945
0.131062 0.143797 6.2408
0.945337 -0.606823 6.83429
0.453134 1.39925 6.69885
0.322791 0.517247 6.29716
-0.241057 -0.474568 6.31035
0.159475 -0.264601 6.23124
0.0570837 0.91993 6.8623
0.31576 0.756184 6.56339
-0.255662 -0.245957 6.65948
-0.120452 0.203797 6.86549
-0.163438 -0.826275 6.56589
0.152122 1.15871 7.10548
1.49279 0.472445 6.86214
1.43317 -0.199545 6.59231
1.09863 0.967101 7.1535
1.63255 0.0811704 7.13522
1.59838 -0.259959 7.32264
1.46289 -0.515999 6.85564
0.757125 -0.80579 6.61948
1.10231 -0.88047 6.73943
1.0799 0.581662 7.52755
0.90793 -0.186258 6.16864
1.19248 -0.878226 7.06684
0.718815 -0.496984 6.42893
0.861275 -1.30709 7.2467
1.33091 0.0228238 6.91894
