ply
    format ascii 1.0           
    element vertex 43
    property double x           
    property double y           
    property double z           
    end_header
-0.159804 -0.187749 1.14822
-0.204122 -0.321655 1.09428
-0.113218 -0.374514 1.09494
-0.172715 -0.331912 1.08085
-0.134238 -0.213926 1.14769
-0.136282 -0.4086 1.114
-0.0899234 -0.324414 1.10349
-0.142942 -0.310675 1.08059
-0.15118 -0.279903 1.10033
-0.17983 -0.298889 1.09038
-0.213166 -0.371031 1.12325
-0.168358 -0.236266 1.14771
-0.197284 -0.253516 1.1543
-0.162321 -0.259175 1.12578
-0.136109 -0.348493 1.08548
-0.12343 -0.256292 1.14777
-0.119248 -0.292954 1.1016
-0.190433 -0.227451 1.1732
-0.216796 -0.400858 1.1476
-0.187986 -0.278211 1.13649
-0.110949 -0.442751 1.15087
-0.0766969 -0.353234 1.11124
-0.179028 -0.379584 1.12482
-0.141528 -0.386509 1.12611
-0.108702 -0.406378 1.1211
-0.139074 -0.201751 1.18145
-0.11995 -0.331963 1.11417
-0.102077 -0.284687 1.15211
-0.191136 -0.352745 1.10498
-0.216153 -0.302648 1.15558
-0.175302 -0.197883 1.17738
-0.203505 -0.305491 1.12411
-0.224635 -0.335333 1.16333
-0.215305 -0.33763 1.12895
-0.217108 -0.369366 1.1607
-0.198552 -0.281992 1.17145
-0.122574 -0.25634 1.14774
-0.0889065 -0.32382 1.10199
-0.0751411 -0.352608 1.11016
-0.136461 -0.406622 1.11191
-0.0846382 -0.419313 1.14718
-0.110014 -0.441455 1.15021
-0.101477 -0.368484 1.11944
