ply
    format ascii 1.0           
    element vertex 40
    property double x           
    property double y           
    property double z           
    end_header
0.746892 0.309966 2.36677
0.74689 0.30997 2.36675
0.746871 0.310007 2.36674
0.746881 0.309969 2.36673
0.746884 0.309977 2.36674
0.746881 0.309959 2.36673
0.746874 0.309963 2.36673
0.746866 0.309966 2.36672
0.746872 0.309972 2.36673
0.746872 0.309955 2.36674
0.746876 0.31 2.36674
0.746863 0.309951 2.36674
0.746872 0.309986 2.36673
0.746866 0.309958 2.36673
0.746877 0.309979 2.36673
0.746868 0.309994 2.36674
0.746859 0.309989 2.36674
0.746862 0.310006 2.36674
0.746872 0.309951 2.36676
0.746859 0.309997 2.36674
0.746856 0.309963 2.36673
0.746857 0.309953 2.36673
0.74685 0.309945 2.36674
0.746863 0.309981 2.36673
0.746853 0.309975 2.36673
0.746848 0.309966 2.36673
0.746862 0.309973 2.36673
0.746849 0.309957 2.36674
0.746839 0.309952 2.36674
0.746854 0.309982 2.36674
0.746849 0.309987 2.36675
0.746882 0.309952 2.36674
0.746883 0.309976 2.36674
0.746888 0.30996 2.36675
0.746873 0.309943 2.36675
0.746888 0.309967 2.36675
0.746876 0.309989 2.36675
0.746874 0.309981 2.36674
0.746864 0.310007 2.36676
12.9179 7.2914 -17.3725
