ply
    format ascii 1.0           
    element vertex 43
    property double x           
    property double y           
    property double z           
    end_header
0.09348 -0.299711 1.35076
-0.026791 -0.510522 1.39851
0.0980014 -0.626559 1.36746
0.125319 -0.350785 1.34686
0.0573325 -0.582773 1.35426
0.00643411 -0.4883 1.36207
0.00507634 -0.545149 1.36599
0.0484908 -0.525026 1.33056
0.094971 -0.295928 1.40611
0.0627283 -0.418355 1.36784
0.0379202 -0.383093 1.42662
-0.0207162 -0.567346 1.47313
-0.00628634 -0.601114 1.52737
0.0748379 -0.370329 1.38594
-0.00347947 -0.558513 1.42264
0.0334377 -0.432123 1.41265
0.0553969 -0.46629 1.3407
-0.000887713 -0.491601 1.50976
0.00597633 -0.55778 1.57865
-0.00104892 -0.471913 1.42545
-0.0166294 -0.513445 1.46145
0.00890571 -0.449038 1.4734
0.0661047 -0.336934 1.42983
0.0441482 -0.415764 1.46708
0.00066241 -0.545863 1.52072
0.080078 -0.390018 1.49985
0.0980973 -0.497003 1.32541
0.135788 -0.42 1.36413
0.161938 -0.60335 1.34367
0.0738646 -0.661083 1.42468
0.138403 -0.556419 1.32416
0.164666 -0.467758 1.36951
0.0948142 -0.627262 1.36452
0.104631 -0.457907 1.37586
0.147293 -0.312939 1.3817
0.10295 -0.553309 1.36124
0.170431 -0.684724 1.43179
0.136858 -0.506065 1.35946
0.216232 -0.639825 1.43912
0.118953 -0.665344 1.4095
0.027931 -0.59769 1.44863
-0.00760858 -0.60381 1.52337
0.0471594 -0.586608 1.40474
