ply
    format ascii 1.0           
    element vertex 31
    property double x           
    property double y           
    property double z           
    end_header
1.20578 2.59506 10.0796
1.16395 0.527122 8.89385
1.06813 -0.0788651 8.62089
1.34758 0.0442431 9.26398
0.85889 -0.61067 8.27215
0.702233 1.59156 8.81009
1.1583 1.14226 9.08946
0.65683 0.494001 8.47658
-0.537624 -1.06026 8.33706
1.47835 1.32937 9.61398
0.953531 -1.10732 8.765
-0.363236 0.130459 8.30047
0.393806 -0.140556 8.34531
0.0142785 -0.640007 8.33218
1.0373 1.77001 9.5023
0.308444 0.99745 8.8827
0.554389 2.56495 10.1241
0.523965 2.04556 9.30959
-0.276808 -1.68391 8.50306
-0.588709 -0.386648 8.38859
0.018021 0.412679 8.66558
0.131703 1.54939 9.2446
-0.229937 1.01951 9.36019
-0.999371 -1.35221 8.78327
-0.668444 -1.78131 9.07121
-0.217218 1.5279 9.85576
-0.821625 -0.730011 8.83311
-0.442406 0.469267 9.20282
1.01256 -1.58885 9.33292
1.0567 1.76418 9.48968
1.49026 1.32979 9.61292
