ply
    format ascii 1.0           
    element vertex 44
    property double x           
    property double y           
    property double z           
    end_header
-0.798086 -0.35596 5.71872
-1.00676 -0.167863 5.87985
-0.950543 -0.60056 5.63922
-0.742341 -0.989532 5.30729
-0.907336 -0.0120945 5.89083
-0.939612 -0.438321 5.68926
-1.07186 -0.726868 5.69753
-0.925166 -1.00215 5.33877
-0.928031 -1.23667 5.47825
-0.826067 -0.180841 5.84274
-0.966065 -0.761055 5.55789
-0.94665 -0.340874 5.82695
-1.05803 -0.558095 5.77267
-0.996145 -0.900976 5.44526
-0.882127 0.123 6.08255
-0.670825 -0.0860658 5.89135
-0.772598 -0.524667 5.65603
-0.988638 -1.06538 5.49216
-1.12917 -0.859748 5.78088
-0.806662 -1.14535 5.38
-1.03424 -0.918493 5.63248
-1.05389 -1.09226 5.64699
-1.03338 -0.467379 5.93474
-1.06665 -1.01564 5.80083
-0.980991 -0.299136 5.99886
-1.06141 -0.672108 5.89105
-4.08146 -0.263075 2.62267
-5.20303 0.0904334 1.49983
-0.695725 -0.893028 5.4458
-0.796289 -0.679962 5.56399
-0.675259 -0.798563 5.5755
-0.650287 -0.435266 5.73719
-0.657793 -0.255342 5.79011
-0.764713 0.0705075 5.93856
-0.67252 -1.23141 5.42769
-0.83471 -0.876122 5.53716
-0.789052 -1.37051 5.49408
-0.608634 -0.602574 5.73704
-0.639237 -1.34436 5.53131
-0.542183 -0.910943 5.61387
-0.525266 -1.24083 5.63693
-0.644697 -1.06705 5.4405
-0.998215 -0.906435 5.44933
-0.600061 -0.240048 5.96197
