ply
    format ascii 1.0           
    element vertex 59
    property double x           
    property double y           
    property double z           
    end_header
-0.194871 -0.226749 2.16376
-0.155634 -0.305658 2.07937
-0.136155 -0.372328 2.03123
-0.128726 -0.481549 1.91543
0.038288 -0.511411 1.96334
-0.0388708 -0.419967 2.04216
-0.122472 -0.267481 2.13666
0.029427 -0.561721 1.93622
-0.0311837 -0.560267 1.94843
-0.1403 -0.445667 1.95942
-0.216522 -0.310332 2.09298
-0.159945 -0.524854 1.94362
-0.0996339 -0.535244 1.92285
-0.154035 -0.624214 1.94247
-0.058493 -0.50393 1.95734
-0.133328 -0.220565 2.16676
-0.0153352 -0.619736 1.94174
-0.0826871 -0.450067 1.95596
-0.192906 -0.27838 2.14064
0.0915157 -0.542727 1.96827
-0.0880002 -0.590253 1.92103
0.0480675 -0.615618 1.95121
-0.0832211 -0.384545 2.05533
-0.0976402 -0.432164 2.03113
0.00499388 -0.456537 2.05079
0.0456509 -0.495875 2.02424
0.0970469 -0.519484 2.0332
-0.107302 -0.339066 2.08042
-0.0469264 -0.474801 2.0164
0.0739258 -0.585544 1.98777
-0.111279 -0.306038 2.18016
-0.0761875 -0.379265 2.1161
-0.115761 -0.260505 2.21223
-0.0911428 -0.346695 2.14911
0.10713 -0.571179 2.02167
-0.0579977 -0.427136 2.16039
-0.128836 -0.321242 2.12613
-0.153652 -0.435761 2.01332
0.00158782 -0.458951 2.09298
-0.198826 -0.208908 2.26821
-0.142383 -0.667362 1.98449
-0.158367 -0.523514 1.94214
-0.190711 -0.280126 2.14156
-0.234747 -0.574475 1.99588
-0.185153 -0.35029 2.05899
-0.186066 -0.406431 2.05976
-0.245567 -0.623773 2.01936
-0.234408 -0.368835 2.08562
-0.238333 -0.26769 2.18161
-0.213116 -0.450962 2.02761
-0.228697 -0.509397 2.0224
-0.20119 -0.648253 1.9779
-0.161317 -0.570486 1.97858
-0.246276 -0.472899 2.07011
-0.174831 -0.493982 1.99826
-0.137054 -0.445663 1.95694
-0.228181 -0.240351 2.22718
-0.239819 -0.313582 2.14703
-0.229584 -0.423113 2.1006
