ply
    format ascii 1.0           
    element vertex 50
    property double x           
    property double y           
    property double z           
    end_header
0.765156 -1.86592 10.7953
1.42706 -3.38778 11.2071
0.837409 -3.09883 11.3003
0.115296 -3.29352 11.171
2.16282 -3.29927 11.388
0.684559 -0.599487 11.0752
0.794007 -2.43222 11.0891
1.74934 -2.85598 11.1476
0.832911 0.32158 11.1562
1.52689 1.42977 11.5348
1.42699 -3.87818 11.6005
1.40161 0.816322 11.5171
0.110848 -2.15789 10.5532
0.221655 -2.72825 10.9181
0.772019 -3.72874 11.5599
1.20339 -0.789225 11.3768
1.48651 -1.36334 11.417
2.43404 -2.82308 11.8306
1.78989 -1.82743 11.7155
1.17296 -0.15981 11.3841
1.15496 -1.95463 11.4566
-0.672922 -3.25274 11.5646
-1.21709 -2.27881 11.7486
0.897129 1.63726 11.5545
0.320445 -0.0651228 11.2016
2.00796 -2.46623 11.63
-0.299297 -2.31815 11.0082
-0.602432 -3.50284 12.3123
0.225234 0.607187 11.3182
0.824804 -1.28655 11.3763
0.678799 1.014 11.5931
-0.214437 0.0832334 11.5131
1.88379 -3.51137 11.7948
0.084335 -0.583603 11.4932
-0.414005 -1.04099 11.4208
-0.807369 -1.52509 11.6601
-0.441456 -2.56475 11.5876
-1.16688 -3.15032 12.0706
1.3819 -2.61097 11.6636
0.29104 1.52544 11.9011
-0.256478 -1.72328 11.3447
0.223017 -1.19687 11.2535
0.233571 -1.62318 10.722
0.0379753 0.933217 11.81
-0.766193 -0.908517 11.9242
2.44795 -2.8196 11.8072
0.982492 2.24781 11.9026
1.16085 -1.94877 11.4939
-1.17623 -3.15957 12.0951
0.623771 1.98145 12.2403
