ply
    format ascii 1.0           
    element vertex 50
    property double x           
    property double y           
    property double z           
    end_header
0.230815 -0.760737 3.42251
-0.660351 -1.06244 3.46497
-0.559621 0.430365 3.48588
-0.701795 -0.225075 3.4545
-0.559505 -0.675992 3.27262
-0.699874 0.20235 3.53642
-0.309298 0.0166478 3.38721
-0.874113 -1.0681 3.62702
-0.930992 -0.740587 3.54016
-0.386189 0.847559 3.63362
-0.13861 0.81538 3.6462
-0.480669 0.189606 3.4321
-0.821848 -0.433769 3.53498
-0.399263 -0.375973 3.19559
0.137045 -0.977149 3.39568
-0.449129 -0.232578 3.40495
-0.548613 -0.0260077 3.51102
-0.338823 -0.796265 3.25214
-0.352305 -1.02046 3.33813
-0.85979 -0.210775 3.63034
-0.313841 0.365725 3.43502
-0.402667 -0.580455 3.12931
-1.01097 -0.87593 3.7366
-0.145132 0.580611 3.62573
-0.428741 0.604746 3.62494
-0.0941371 -1.1556 3.49408
0.0209155 -0.22885 3.53731
-0.113323 -0.0328134 3.51975
0.398518 -0.907619 3.48653
-0.0994571 -0.908778 3.41379
-0.150718 -0.659258 3.33555
-0.162452 0.203823 3.525
0.279273 -0.612653 3.60995
0.153448 -1.17231 3.53361
-0.190175 -0.440848 3.23694
-0.219449 -0.236446 3.49032
0.153642 -0.392527 3.63157
0.0533706 -0.703253 3.55585
0.457647 -0.729174 3.68112
0.291055 -1.01157 3.6405
-0.0601156 -0.467574 3.5138
-0.0585588 0.078541 3.71339
-0.599468 0.773304 3.74585
-0.621509 -0.805904 3.48268
0.457724 -0.94481 3.73445
-0.629376 -1.17708 3.69388
-0.860462 -1.06914 3.63329
-0.736501 0.0296691 3.69937
0.0536215 -0.700987 3.56174
-0.582335 -0.461853 3.45687
