ply
    format ascii 1.0           
    element vertex 44
    property double x           
    property double y           
    property double z           
    end_header
-0.540919 -0.22495 2.88926
-0.49759 -0.485374 2.97002
-0.418993 -0.208642 2.72775
-0.214083 0.760667 3.61329
-0.201068 0.66926 3.41708
-0.499648 -0.0257416 2.93547
-0.546042 -0.152159 3.08889
-0.407182 0.214473 3.13329
-0.315651 0.479056 3.49005
-0.0529661 0.53059 3.21977
-0.0952454 0.841465 3.44523
-0.392412 0.0769192 3.31599
-0.348178 0.37689 3.3685
-0.491741 -0.338417 3.04465
-0.322672 -0.570307 2.93994
-0.373204 -0.362555 2.85087
-0.344056 -0.0450147 2.81326
-0.315511 0.123869 2.97721
-0.129326 0.351443 3.18545
-0.11759 0.259034 3.02573
-0.186758 0.462462 3.3441
0.0927588 -0.330876 2.84685
-0.140984 0.0947718 2.93699
0.00861247 0.662986 3.35389
0.10873 0.811203 3.48171
-0.179348 -0.33917 2.80737
0.0649308 0.378792 3.14135
0.026214 -0.013894 2.96952
0.126688 -0.497171 2.91834
0.198055 -0.180235 2.91534
-0.0454109 -0.206526 2.83676
-0.196047 -0.14112 2.82399
0.14937 0.194979 3.14702
0.291831 -0.416524 2.97874
0.130685 0.97823 3.68191
-0.0130488 -0.591705 3.00468
0.315379 -0.232621 3.05523
0.120234 0.0131887 3.13817
0.172186 0.730993 3.69381
0.190504 0.296028 3.46938
0.102871 0.612628 3.49767
0.120354 0.461168 3.38713
0.188215 0.133697 3.32347
0.156962 0.464333 3.59412
