ply
    format ascii 1.0           
    element vertex 45
    property double x           
    property double y           
    property double z           
    end_header
-0.162961 0.20714 4.04672
-0.209051 -0.879526 4.21799
-0.745953 -0.552868 3.90765
-0.154667 -0.643515 3.93881
-0.050615 0.0116194 4.09485
-0.412766 -0.162289 3.97872
-0.656153 -0.353437 3.93871
-0.279869 0.394332 4.1114
-0.402745 0.598479 4.30916
-0.66274 0.0222124 4.20466
-0.292709 0.794427 4.25955
-3.53331e-07 1.01587 4.41179
-0.379567 0.0414724 4.00615
-0.792369 -0.294033 4.0934
-0.596441 -0.11922 4.05274
-0.03165 -0.460014 3.95174
-0.192823 0.576666 4.19626
-0.485902 -0.451187 3.95054
-0.315103 -0.511199 3.92637
-0.220276 -0.268952 4.0
-0.0620232 0.774908 4.26047
-0.458622 -0.669276 3.96884
-0.75029 -0.775311 4.27198
-0.559126 -0.872211 4.22598
-0.084286 -0.797489 4.05769
-0.65783 -0.673702 4.05931
0.102587 -0.687923 4.0625
0.132404 -0.472227 4.07348
-0.0796747 -0.183992 4.13021
0.0658187 0.75421 4.47752
0.0643029 0.222513 4.38317
-0.0454773 0.563567 4.31053
-0.0447771 0.374071 4.25059
-0.352859 0.187021 4.15883
-0.385266 0.356529 4.29978
-0.504008 0.125059 4.26777
-0.54218 0.279706 4.39174
-0.203045 0.90525 4.44628
-0.829307 -0.51543 4.11502
-0.49947 0.432607 4.47067
-0.740261 -0.772201 4.27259
-0.376978 0.756532 4.49402
-0.666736 -0.194644 4.2418
-0.783974 -0.371115 4.30378
-0.553883 0.143859 4.51813
