ply
    format ascii 1.0           
    element vertex 49
    property double x           
    property double y           
    property double z           
    end_header
-0.0490371 -0.448809 4.54966
-0.5197 -2.12885 4.88795
0.993454 -1.66859 5.53566
0.418473 0.113703 5.07653
0.219157 3.11187 5.01483
0.648182 -1.44473 5.20767
0.736608 -0.842231 5.04787
0.225873 1.20937 5.15907
-0.00116739 2.92351 5.47435
0.768224 -0.67476 5.53129
0.0425807 1.76215 4.9979
0.056252 2.13439 5.36178
0.293163 -1.71599 4.85202
0.137763 1.62191 5.49453
-0.245888 2.02782 4.66837
0.262965 0.489823 4.84047
0.584288 -1.97608 5.24813
-0.486521 -0.518908 4.34685
-0.304228 1.40464 4.82592
0.350751 -1.16862 4.84537
0.517409 -0.363572 5.22391
-0.0353336 0.150082 4.67177
-0.817946 -0.812689 4.70793
0.202098 -0.673409 4.92299
-0.781467 -1.72947 4.72211
0.673519 -2.0329 5.72086
-0.654151 -1.31103 4.91913
-0.280758 0.577263 4.64948
-0.783953 0.453394 4.68872
-0.31541 -1.67498 4.95909
-0.18104 -1.0706 4.89343
-0.0268158 -0.240816 4.98276
-0.42287 -0.12363 4.57892
-1.36695 -0.775893 4.80435
-0.960306 -2.22018 5.0188
-1.14415 -1.22377 4.79784
-0.252981 2.56338 4.93259
0.978273 -1.24253 5.83776
-0.342637 3.0298 5.11923
-0.894051 -0.0404972 4.70433
-0.0796194 0.819071 4.99657
-0.0802883 3.36764 5.23292
-1.17486 -1.8148 5.06198
-1.35284 -2.13508 5.36738
-0.579767 0.951124 4.83636
-1.46167 -1.43582 5.01174
0.0677137 -2.21606 6.0273
-0.703924 1.64786 5.09994
-1.06333 -0.42041 4.92399
