ply
    format ascii 1.0           
    element vertex 55
    property double x           
    property double y           
    property double z           
    end_header
0.127025 1.08016 4.90571
-0.0021184 1.47553 4.8628
0.0523481 0.0542223 4.20164
0.710334 -0.668896 5.02387
0.211221 0.645191 4.57116
-0.19836 1.69871 4.67022
-0.24555 2.01605 4.92849
-0.222607 -1.15387 4.14731
0.537418 -0.713311 4.54069
-0.230716 0.0299786 4.01933
0.578413 -0.275536 4.53771
0.743607 -0.914395 4.76609
-0.220334 1.24919 4.66506
0.204367 -0.162352 4.45582
0.503855 -1.09114 4.49949
-0.0518565 1.68351 5.18937
0.562881 -0.242428 4.8978
0.323299 -0.843995 4.2356
0.317668 0.353867 4.68673
-0.106562 -0.848505 4.26794
-0.152736 0.722561 4.39846
-0.337163 2.30301 5.10852
0.0244518 1.30679 5.19241
0.0300312 0.443088 4.38124
0.336819 -0.476128 4.33444
-0.0360027 -0.433812 4.34698
-0.412934 -0.865201 4.08185
0.400607 0.0208423 4.70258
-0.687576 -0.542892 4.18149
-0.226609 0.251495 4.25076
-0.352934 -0.61563 4.27855
-0.475305 -0.239156 4.21048
-0.0590845 0.829077 4.71275
-0.350204 -1.38797 4.39209
-0.506764 0.616459 4.41072
0.517519 -1.19606 4.83355
-0.533003 -1.24945 4.18327
0.0643478 2.38871 5.07114
-0.560826 0.27997 4.31102
-0.854745 -0.246796 4.23163
-0.396117 0.933466 4.61074
0.102806 -1.37024 4.91468
-0.173575 2.55217 5.26805
-0.698392 -0.987324 4.25161
-1.08407 -0.432309 4.43432
-0.680874 -0.0299595 4.40966
-0.525378 1.3512 4.83121
-0.140253 2.19377 5.40959
-0.448477 1.70932 4.89693
-0.912759 -0.748449 4.27967
-0.340672 -1.37466 4.28078
0.761293 -0.920721 4.79364
-0.836381 -1.27251 4.4332
0.107299 -1.36933 4.89099
-0.977598 -0.0943905 4.60237
