ply
    format ascii 1.0           
    element vertex 54
    property double x           
    property double y           
    property double z           
    end_header
-0.57948 -0.0789777 0.961215
-0.581768 -0.111238 0.937358
-0.612328 -0.236198 0.888856
-0.591333 -0.145601 0.910415
-0.598532 -0.0803868 0.961869
-0.591421 -0.0969063 0.942807
-0.584663 -0.19948 0.855885
-0.602262 -0.176551 0.88783
-0.594644 -0.126069 0.92616
-0.613412 -0.130225 0.933076
-0.610062 -0.155105 0.912406
-0.583459 -0.181259 0.866793
-0.605298 -0.111422 0.939682
-0.589467 -0.164985 0.897236
-0.566598 -0.19123 0.858508
-0.576842 -0.140469 0.920541
-0.597354 -0.193244 0.866902
-0.566715 -0.176973 0.874181
-0.572441 -0.214027 0.862615
-0.572967 -0.0993398 0.949325
-0.572683 -0.229509 0.873297
-0.575823 -0.127258 0.933751
-0.570882 -0.157356 0.928934
-0.571076 -0.172272 0.918546
-0.572218 -0.175672 0.901669
-0.568961 -0.117025 0.947744
-0.563666 -0.220835 0.888119
-0.557359 -0.209642 0.9207
-0.609227 -0.171493 0.904434
-0.581805 -0.179835 0.886241
-0.59265 -0.215548 0.867154
-0.627497 -0.231764 0.895401
-0.613681 -0.190074 0.90021
-0.5979 -0.195286 0.869384
-0.605032 -0.0992289 0.957952
-0.617734 -0.1488 0.92876
-0.615849 -0.217727 0.894815
-0.62545 -0.20443 0.907605
-0.611008 -0.236854 0.88872
-0.600792 -0.145188 0.927354
-0.607406 -0.208394 0.879409
-0.616971 -0.252298 0.906718
-0.61881 -0.171362 0.919419
-0.627956 -0.224363 0.913089
-0.629786 -0.24214 0.907707
-0.622611 -0.173746 0.93699
-0.598425 -0.193349 0.887885
-0.613871 -0.188987 0.920032
-0.621638 -0.198605 0.932559
-0.796416 -0.177488 0.663853
-1.8863 0.0731407 -0.446778
-0.388124 -0.229471 1.05181
-0.573733 -0.110588 0.944396
-9.38576 1.44625 -7.77879
