ply
    format ascii 1.0           
    element vertex 45
    property double x           
    property double y           
    property double z           
    end_header
0.159723 0.777182 5.14101
-0.0212527 0.417364 4.89068
-0.101062 -0.110389 4.72903
0.230709 0.38131 5.05272
0.0279022 -1.57861 4.02371
0.303789 -1.4756 4.09982
0.0868952 0.158552 4.88893
-0.0491272 -0.859539 4.47016
0.0768726 -1.26833 4.10646
-0.0604089 -0.505309 4.56785
-0.248618 -1.05738 4.33477
-0.845564 -1.80475 4.53699
-0.134168 0.798353 5.09633
-0.18398 -1.42791 4.15661
-0.37516 -0.589141 4.58178
0.138273 -1.78431 4.21336
-0.250736 0.202462 4.82626
0.134448 -0.381521 4.77173
0.050713 -1.98772 4.43908
0.260762 0.0901342 5.06076
0.154364 -0.610878 4.97268
-0.595752 -1.94882 4.53615
-0.409277 -0.0979645 4.78534
-0.176328 -1.76105 4.21503
0.13953 -0.118816 4.92632
-0.500785 -1.17943 4.5306
-0.268506 0.512804 5.0992
-0.61834 -1.62359 4.53462
-0.403625 -1.56389 4.31631
-0.390777 -0.889714 4.51737
-0.53027 -0.403341 4.75737
0.300932 -1.20452 4.26715
-0.809174 -2.11883 4.86796
-0.900205 -1.62211 4.79297
-0.322048 -1.82215 4.45183
-0.766612 -1.33151 4.62428
-0.975521 -1.91811 4.76154
-0.572985 -0.788384 4.74262
0.150193 -0.107145 4.90834
-0.569886 -1.08061 4.82942
-0.239458 -1.31986 4.42672
-0.711648 -0.727397 5.00814
-0.756322 -1.1616 5.03209
0.155885 0.780815 5.13938
-0.576065 -2.05809 4.7449
