ply
    format ascii 1.0           
    element vertex 45
    property double x           
    property double y           
    property double z           
    end_header
0.236783 1.83302 6.31223
0.108101 -2.03382 6.89024
0.138287 -1.21512 6.47058
0.530909 -1.87346 6.99824
0.331904 0.487906 6.25493
0.271571 0.870593 6.4851
0.306738 0.537673 6.76676
0.365239 -0.702003 6.63261
0.502319 -0.298177 6.55761
0.49667 -1.06339 6.83893
0.742788 -1.47617 7.08995
0.130657 -1.69886 6.54829
0.307051 0.0812521 6.38828
0.343975 -2.20381 7.4328
0.0115054 -0.113276 6.12062
0.695519 -1.92216 7.38284
0.398761 -0.754067 7.26109
0.208823 1.32159 6.5737
-0.622469 -1.86281 6.50461
-0.135645 1.8087 6.12436
0.482722 -0.446551 6.9867
-0.276688 -2.01351 6.6894
0.195781 1.20584 6.14214
0.31586 -1.48562 6.90143
0.00831371 0.735742 6.10765
-0.17874 -1.47748 6.29648
-0.59625 -2.19531 6.87954
-0.0276724 -0.787269 6.53244
-0.0725781 0.291227 6.25614
-0.713001 -0.829662 6.50067
-0.337675 -1.09659 6.45834
-0.134076 -0.442262 6.31015
-0.559711 -0.410533 6.43359
-0.293553 0.612595 6.3332
-0.379799 -0.0347928 6.30476
-0.993398 -1.97182 6.83265
-0.762303 -1.54697 6.76591
-0.52321 0.35591 6.38854
-0.201809 1.04298 6.37851
-0.8219 -1.23333 7.17605
-0.14387 1.49787 6.39433
-0.564601 -1.20418 6.79034
0.0925032 -0.394342 6.55675
-0.329899 -1.60863 6.62596
-0.831766 -0.875799 6.9827
