ply
    format ascii 1.0           
    element vertex 52
    property double x           
    property double y           
    property double z           
    end_header
-0.524122 0.334402 4.27971
-0.387373 -0.329381 3.99088
-0.431444 -0.122973 4.04079
-0.327314 -0.0128224 3.97326
-0.600368 -0.293439 4.17463
-0.291333 -0.202972 3.96559
-0.492694 0.0159891 4.04512
-0.285824 0.211059 4.15145
-0.0986932 0.049871 3.98367
-0.0996036 -0.0817141 3.88922
0.13741 0.161234 4.07519
-0.153698 -0.226087 3.88453
-0.490532 0.473715 4.32053
-0.413806 0.607416 4.41176
-0.549171 0.518183 4.45852
-0.21044 0.0902317 4.11506
-0.34303 0.423686 4.27999
-0.00697724 0.14713 4.07534
-0.456057 -0.284138 4.10044
-0.128115 0.246334 4.12711
-0.384834 0.175841 4.26308
-0.216933 0.310028 4.23937
-0.474774 0.070926 4.31489
-0.554275 -0.211878 4.28681
-0.44087 0.0471494 4.18863
-0.547897 0.665377 4.5296
-0.466545 0.693267 4.68806
-0.360615 0.103214 4.07253
-0.387037 0.603404 4.56954
-0.0919162 0.324929 4.30401
0.0217051 -0.101346 4.00506
-0.0112933 0.248871 4.22616
-0.223921 0.401023 4.36654
-0.305605 0.495973 4.46626
0.239644 -0.216161 4.19316
0.222777 0.0735724 4.15915
-0.519748 0.329823 4.28102
0.257451 -0.0607648 4.23792
-0.288884 -0.21011 3.96687
-0.653567 0.589788 4.64659
-0.422995 -0.132399 4.04718
-0.591074 -0.307142 4.18709
-0.383615 -0.341324 3.99233
-0.374626 -0.446838 4.10872
-0.456453 -0.299913 4.11036
-0.525452 -0.420735 4.22422
-0.50721 0.216877 4.38749
-0.519012 -0.180379 4.166
-0.39484 0.174398 4.26425
-0.571575 0.352853 4.50806
-0.540254 0.509945 4.47664
-0.481066 0.0676507 4.3182
