ply
    format ascii 1.0           
    element vertex 47
    property double x           
    property double y           
    property double z           
    end_header
-0.770694 -1.19872 4.77712
-0.721171 -0.782891 4.0482
-0.850686 -0.940627 4.67233
-0.786942 -1.10533 4.58593
-0.763929 -0.954786 4.35325
-0.738524 -0.60268 4.15199
-0.842661 -0.274453 4.26205
-0.484388 -0.540112 3.91084
-0.574695 -0.785716 3.91333
-0.882712 -0.498498 4.45351
-0.638749 -0.608745 3.99171
-0.619489 0.00635838 4.42267
-0.667551 -0.222775 4.16638
-0.803068 -0.578246 4.32566
-0.718296 -0.387071 4.20719
-0.401179 -0.559742 3.76247
-0.719578 -0.76627 4.28379
-0.718135 -0.961552 4.14058
-0.737838 -0.870131 4.52854
-0.40491 0.211349 4.34167
-0.812234 -0.311639 4.43412
-0.640136 -1.07976 4.42768
-0.744411 -0.138871 4.32255
-0.463351 -1.16421 4.39167
-0.62743 -0.142464 4.62288
-0.588181 -0.490137 4.11968
-0.482115 0.0554488 4.28134
-0.570083 -0.111972 4.26412
-0.288062 0.0268552 4.29623
-0.464562 -0.351827 4.14214
-0.453807 -0.94483 4.01371
-0.408578 -0.123839 4.29769
-0.405175 -0.731118 3.83145
-0.12271 0.253955 4.45678
-0.146191 -0.436447 4.2712
-0.306991 -0.295573 4.30325
-0.272942 -0.49311 3.84143
-0.257819 0.191464 4.40399
-0.0281141 -0.591276 4.21233
-0.20138 -0.620175 3.9431
-0.186794 -0.920493 4.11713
-0.275782 -0.817911 3.95406
-0.221412 -0.132937 4.38347
-0.131138 -0.0572624 4.54386
-0.401419 -0.565735 3.78263
-0.203925 -0.529247 4.13859
-0.128512 0.129656 4.58641
