ply
    format ascii 1.0           
    element vertex 63
    property double x           
    property double y           
    property double z           
    end_header
0.0294892 -0.227231 1.71348
-0.174646 -0.364481 1.70301
0.0722871 0.0619059 1.85157
0.0358362 -0.0445893 1.80077
0.0316174 0.0686375 1.9002
-0.153512 -0.385194 1.65004
0.00467978 -0.101872 1.81735
0.00900871 -0.177044 1.82587
0.0137411 -0.445203 1.57986
-0.118127 -0.4262 1.62839
0.0321599 -0.139706 1.77677
-0.100232 -0.365654 1.62328
0.0597432 -0.178419 1.73806
0.0818685 -0.274021 1.64206
-0.0638568 -0.411875 1.59745
0.022188 0.0180002 1.86251
0.0250729 -0.309166 1.65459
-0.041754 -0.463216 1.5966
0.00775811 -0.280971 1.74628
0.0632187 -0.416783 1.56883
0.070404 0.00720698 1.81919
-0.022415 -0.289141 1.81558
-0.0849499 -0.473156 1.63859
-0.0399689 -0.361555 1.61751
0.0943985 -0.327332 1.61908
0.22557 -0.470323 1.59005
-0.128463 -0.335689 1.67322
0.0753143 -0.0937108 1.78156
0.00228203 -0.500564 1.5988
0.0549368 -0.375068 1.61412
0.0906569 -0.252053 1.7006
0.154453 -0.492392 1.59113
-0.0272219 -0.515323 1.65098
0.156656 -0.110171 1.80029
0.12674 -0.185587 1.74166
-0.067483 -0.330968 1.66022
0.0636161 -0.48397 1.59696
0.126414 -0.393588 1.61747
0.153138 -0.0393908 1.86074
0.139351 -0.275944 1.66105
0.179031 -0.432109 1.60197
0.116889 -0.441685 1.57953
-0.00186838 -0.411019 1.61267
0.166293 -0.547164 1.60887
0.154638 -0.341108 1.65351
0.00429948 -0.362443 1.6417
0.100606 -0.0526483 1.82245
0.110617 -0.513409 1.62464
-0.111292 -0.322224 1.72465
0.149662 -0.245614 1.72913
0.192507 -0.407818 1.65974
0.109825 0.0112117 1.86802
0.224002 -0.535815 1.59889
0.239403 -0.456307 1.65752
0.156931 -0.181731 1.80243
0.18698 -0.292363 1.76636
-0.00087655 -0.499031 1.60418
0.0816516 0.0689098 1.9311
0.118765 0.00921569 1.93553
0.239881 -0.531428 1.65856
0.147073 -0.305678 1.7125
0.172784 -0.361718 1.78558
0.178964 -0.363877 1.71554
