ply
    format ascii 1.0           
    element vertex 49
    property double x           
    property double y           
    property double z           
    end_header
-0.775213 -0.793078 3.43102
-0.782681 -1.24164 3.3689
-0.758731 -0.950944 3.3075
-0.795424 -0.925673 3.46912
-0.760445 -0.718155 3.46138
-0.802413 -1.16773 3.31742
-0.89905 -1.09785 3.35321
-0.808967 -1.02861 3.32176
-0.752429 -1.31004 3.42434
-0.853968 -1.08406 3.27637
-3.07348 -0.40052 0.883486
-0.729537 -0.644699 3.48681
-0.716941 -0.665014 3.41547
-0.779489 -0.826517 3.34712
-1.04602 -0.97967 3.2111
-0.724801 -0.742126 3.37127
-0.769424 -0.852844 3.48451
-0.686047 -0.970145 3.27351
-0.683096 -1.20983 3.30779
-0.688361 -1.15485 3.23234
-0.76613 -0.873303 3.29527
-0.61663 -0.914348 3.27365
-0.614559 -0.998148 3.24016
-0.508553 -1.05742 3.25419
-0.518356 -1.13335 3.21973
-0.703537 -1.0589 3.26489
-0.601804 -1.13403 3.22562
-0.576574 -0.723676 3.39939
-0.576455 -1.07805 3.28078
-0.693336 -0.890618 3.30177
-0.702121 -0.816129 3.33272
-0.777158 -1.09442 3.25157
-0.548733 -0.800229 3.37035
-0.65523 -0.704794 3.40167
-0.64196 -0.768761 3.35924
-0.614103 -0.841633 3.32952
-0.656623 -0.622722 3.49303
-0.546581 -0.901884 3.31872
-0.449958 -1.01697 3.28599
-0.549407 -0.983453 3.2954
-0.516126 -1.24021 3.36943
-0.45404 -1.14989 3.29519
-0.51318 -0.928466 3.39697
-0.681522 -0.570932 3.44783
-0.417165 -1.07401 3.32861
-0.719975 -0.665064 3.39995
-0.549353 -0.864245 3.45041
-0.537078 -1.30472 3.33621
-0.556397 -0.758237 3.46491
