ply
    format ascii 1.0           
    element vertex 50
    property double x           
    property double y           
    property double z           
    end_header
0.179547 -0.549903 2.40759
-0.386486 0.155235 2.81097
-0.0874959 0.164756 2.55665
-0.420643 -0.260156 2.77283
-0.407221 -0.124991 2.5516
-0.267273 0.514639 2.74638
-0.232413 -0.43345 2.61122
-0.0211513 -0.282765 2.46267
-0.458809 -0.456074 2.92926
-0.298935 0.68519 3.07094
-0.181962 0.887762 3.31648
-0.148866 -0.855728 2.94535
-0.457919 -0.579435 3.11687
-0.0608116 0.615592 2.75361
-0.261404 0.304563 2.77686
-0.461678 -0.38496 3.12566
-0.418274 -0.656103 2.90328
-0.20337 -0.0402227 2.5575
-0.228648 -0.243139 2.52459
-0.315342 -0.447997 2.79846
0.15414 -0.353217 2.43289
-0.241816 -0.63568 2.7554
-0.270344 0.336268 2.98566
-0.214985 0.125439 2.68419
0.0181184 -0.465927 2.52341
-0.29822 -0.0857746 3.02117
0.0750969 0.0750072 2.55907
-0.0393997 0.863497 3.11367
-0.0696777 0.289604 2.68919
-0.00425208 -0.0946094 2.54387
0.155266 -0.611167 2.94519
0.172089 -0.197025 2.5375
-0.203972 0.934664 3.12651
0.141684 0.265341 2.71627
-0.177307 0.626665 2.88212
0.321796 -0.336166 2.51922
0.339086 -0.206696 2.65683
0.232246 -0.0365545 2.63091
0.044249 0.57178 2.89249
0.386567 -0.504816 2.65013
0.486857 -0.38868 2.75348
0.5563 -0.551391 2.72305
0.336623 -0.0864385 2.82016
0.489857 -0.672873 2.61493
-0.0893214 0.405535 2.79726
0.610236 -0.652679 2.83543
0.265761 0.0811871 2.81674
0.231335 -0.49454 2.58428
0.0152175 0.476586 3.07392
0.304189 -0.68528 2.55159
