ply
    format ascii 1.0           
    element vertex 68
    property double x           
    property double y           
    property double z           
    end_header
-0.958129 -0.486488 5.07991
-1.26355 -1.37394 5.04075
-1.20605 -1.44645 4.93493
-1.08496 -1.12127 4.83463
-0.952397 -0.550737 5.31746
-1.19386 -1.28971 4.94672
-1.08417 -0.930087 4.9943
-1.20795 -1.26047 4.66658
-1.07716 -0.688048 5.03091
-1.1963 -1.47211 4.60261
-1.24361 -1.38979 4.71445
-1.03251 -1.80485 4.77199
-0.977526 -0.819843 5.02156
-1.1093 -1.57891 4.55293
-1.16467 -1.6175 4.69936
-0.986395 -1.66161 5.22445
-1.06713 -1.71577 4.61816
-0.988794 -0.880913 4.88608
-0.978471 -1.08657 4.72688
-1.05753 -1.06947 4.9639
-1.12082 -1.18002 5.03739
-1.20132 -1.27871 5.1032
-0.915324 -0.768715 4.88038
-1.14469 -1.34196 4.83222
-1.00103 -1.65362 4.50795
-0.877383 -1.201 4.61583
-1.0926 -1.37071 4.57372
-0.792964 -1.10004 4.60043
-0.959429 -1.01465 4.84785
-0.983412 -1.51714 4.51285
-0.622966 -1.27839 4.56585
-0.858955 -0.905618 4.8407
-0.644004 -1.43129 4.57737
-0.94699 -1.30801 4.6864
-0.95013 -1.38805 4.56229
-0.457457 -1.60175 4.60919
-0.605932 -1.71732 4.6012
-0.768245 -0.794651 4.86934
-0.659312 -1.14882 4.58748
-0.85048 -1.56568 4.5212
-0.831679 -1.32781 4.60478
-0.597834 -1.55867 4.61992
-0.930368 -0.584009 4.98139
-0.872157 -1.69486 4.52969
-0.811358 -1.43156 4.5285
-0.476295 -1.47309 4.61597
-0.797114 -0.607946 5.02406
-1.08605 -1.24484 4.72828
-0.771054 -0.520463 5.13811
-0.717192 -0.9222 4.8314
-0.735358 -1.53165 4.59928
-0.311634 -1.52331 4.81607
-0.429354 -1.30272 4.87863
-0.401701 -1.41195 4.74561
-0.695756 -0.751843 5.0279
-0.312309 -1.38725 4.85003
-0.642734 -1.05986 4.86298
-0.997935 -0.371468 5.27695
-0.72983 -1.64319 4.66253
-0.786313 -1.73156 4.61111
-0.559476 -1.169 4.93167
-0.88751 -1.69387 4.53608
-0.415593 -1.5448 4.73739
-0.404658 -1.66266 4.77727
-0.503976 -1.69743 4.67252
-0.622437 -1.16425 4.76031
-0.706278 -0.946485 5.10454
-0.763435 -0.67974 5.13295
