ply
    format ascii 1.0           
    element vertex 55
    property double x           
    property double y           
    property double z           
    end_header
-0.898709 -1.56679 4.94902
-0.425997 -1.2623 4.77315
-0.736766 -1.33382 4.87311
-0.523124 -1.65097 4.82307
-0.403197 -0.973881 4.89195
-0.431807 -0.511371 5.22817
-0.262088 -1.43553 4.85543
-0.978035 -1.64468 5.03573
-0.338701 -1.63472 4.92624
-0.443061 -1.11488 4.87768
-0.781036 -1.62991 4.8293
-0.0925287 -1.35916 4.84877
-0.650045 -1.24311 4.84602
-0.557851 -1.02856 4.95577
-0.328024 -1.1594 4.79899
-0.889703 -1.71323 4.89959
-0.610564 -1.8608 4.8238
-0.187192 -1.70782 4.94392
-0.358167 -0.660033 5.08382
-0.551051 -0.907656 5.11176
-0.39649 -0.800639 5.02467
-0.654445 -1.62855 4.897
-0.53029 -1.28677 4.83025
-0.277825 -1.294 4.82624
-0.451466 -0.38356 5.52714
-0.138873 -1.53075 4.84259
-0.224412 -0.560597 5.31613
-0.286129 -0.866595 5.0255
-0.679889 -1.44936 4.97289
-0.250348 -0.76731 5.10065
-0.751521 -1.59113 4.99601
-0.241622 -0.969432 4.97953
0.00332063 -1.51139 4.97278
-0.232608 -0.640556 5.15521
-0.301296 -1.06226 4.89384
-0.187806 -1.09895 4.99487
-0.7673 -1.7648 4.7992
-0.612293 -1.81973 5.0215
-0.0846693 -1.78524 5.10284
-0.177608 -0.749453 5.22646
-0.212561 -1.82636 5.04488
-0.354313 -0.418696 5.29191
-0.176595 -1.22847 5.05227
-0.21538 -0.882807 5.21385
-0.167735 -1.0143 5.2352
-0.271461 -1.19616 4.93535
-0.105981 -1.70092 5.30967
-0.508794 -1.41556 4.79606
-0.0700013 -1.37626 5.00424
-0.167196 -1.11567 5.13837
-0.086376 -1.64172 5.09153
-0.229827 -0.973573 5.10853
-0.0686822 -1.57612 5.21791
-0.151968 -1.57377 4.97631
-0.205657 -1.2643 5.18361
