ply
    format ascii 1.0           
    element vertex 64
    property double x           
    property double y           
    property double z           
    end_header
-0.246139 -1.22121 2.60942
-0.195321 -1.09646 2.61323
-0.350167 -1.08362 2.628
-0.185459 -0.956817 2.59505
-0.108392 -0.585873 2.72518
-0.413495 -1.13209 2.6711
-0.119497 -0.690794 2.64663
-0.077065 -0.801951 2.58968
-0.119806 -0.414111 2.84338
-0.322003 -0.908089 2.65229
-0.415676 -1.04605 2.69817
-0.34026 -1.16311 2.6081
-0.0834175 -0.502524 2.75789
-0.461783 -1.08866 2.75091
-0.270965 -0.853345 2.63314
0.068662 -0.921219 2.60653
-0.0787659 -1.08577 2.66332
-0.210074 -0.723542 2.68834
-0.165136 -0.656845 2.70473
-0.14433 -0.774249 2.6405
-0.034869 -0.967017 2.61895
-0.209557 -0.645422 2.76802
-0.136267 -0.863261 2.5777
0.0139006 -1.12869 2.6687
-0.225117 -0.810502 2.68339
-0.271858 -1.0801 2.65838
-0.199127 -0.880532 2.62046
0.0404058 -1.02294 2.60499
-0.0448711 -0.882011 2.60415
-0.0733661 -0.358329 2.88208
-0.286329 -0.97631 2.70434
0.0075076 -0.435844 2.88622
-0.0521537 -0.74398 2.63945
-0.0437369 -0.627409 2.72287
-0.0217655 -0.568409 2.76712
-0.0178713 -0.687983 2.69162
-0.131845 -0.328933 2.99685
-0.327622 -1.05689 2.71824
-0.00470156 -0.488615 2.79544
0.0159248 -0.763903 2.69866
0.0824735 -1.17332 2.74949
0.0103363 -0.89851 2.66467
-0.113951 -0.928337 2.65518
0.0318196 -0.555234 2.83556
-0.0551667 -0.319735 2.98421
0.0385251 -0.7135 2.83906
0.130572 -1.01053 2.67495
-0.0380817 -0.397061 2.94606
0.0235489 -0.84134 2.73409
-0.21139 -1.00979 2.64083
-0.0365447 -0.82237 2.66618
0.00091276 -1.20461 2.72865
0.00871535 -0.636259 2.82979
0.0899594 -0.929308 2.69683
0.0306202 -0.77408 2.78582
0.0823051 -1.12367 2.87799
-0.00737283 -0.691446 2.769
0.0760664 -1.08928 2.75418
0.0348004 -1.04903 2.68683
0.0944048 -1.05038 2.82885
0.0156785 -0.895091 2.8669
0.0271038 -0.967425 2.83605
0.011307 -0.86202 2.81305
-0.0328651 -1.26161 2.80144
