ply
    format ascii 1.0           
    element vertex 40
    property double x           
    property double y           
    property double z           
    end_header
-0.420651 -0.756954 3.97967
-0.582727 -1.47254 3.72717
-0.561908 -1.34449 3.71763
-0.400369 -1.4184 3.61076
-0.489896 -1.09854 3.81278
-0.460391 -1.20457 3.75333
-0.536982 -0.750707 3.96239
-0.424534 -0.973006 3.85486
-0.239388 -1.01968 3.82075
-0.298272 -0.925605 3.87442
-0.515611 -0.938407 3.93553
-0.196223 -1.31149 3.626
-0.652476 -1.55639 3.79104
-0.335429 -1.21287 3.77938
-0.313543 -1.30614 3.67834
-0.281763 -1.40197 3.56851
-0.424906 -1.33997 3.7147
-0.187075 -1.49961 3.64172
-0.33642 -1.10739 3.83385
-0.344344 -0.852562 3.99193
-0.540818 -0.872874 4.02535
-0.214257 -1.14324 3.79248
-0.564273 -1.26352 3.81135
-0.0270545 -1.52222 3.80601
-0.328007 -1.5437 3.64627
-0.223098 -1.25582 3.74065
-0.244025 -1.70456 3.75545
-0.143544 -1.2428 3.83094
-0.0934756 -1.44601 3.90885
-0.155985 -1.13125 3.90383
-0.159568 -1.39117 3.72935
-0.135882 -1.58551 3.76066
-0.243916 -1.05015 3.94707
-0.220799 -1.30466 4.01355
-0.180871 -1.65958 3.89671
-0.172596 -1.4424 3.82136
-0.178438 -1.34092 3.89171
-0.0738186 -1.58458 3.92442
-0.297516 -1.04768 4.0663
-0.239107 -1.1652 4.02047
