ply
    format ascii 1.0           
    element vertex 69
    property double x           
    property double y           
    property double z           
    end_header
-1.67279 -3.78118 17.3273
-1.78401 -3.46088 17.6468
-1.62474 -3.21062 17.4
-1.79249 -4.62462 17.1146
-2.43774 -6.2531 16.6639
-1.44095 -5.52028 16.1532
-1.82348 -6.42344 16.2721
-1.74365 -5.50325 16.3895
-1.8961 -4.11958 17.2617
-1.8279 -5.45592 16.7246
-1.57214 -4.7189 16.8015
-1.50976 -6.24929 15.9111
-1.34625 -3.42966 17.2426
-2.32858 -5.98527 16.7827
-1.65376 -5.16852 16.5222
-1.12983 -6.18324 15.7846
-1.68833 -6.08667 16.2041
-1.72465 -5.07163 16.9324
-1.03242 -4.70126 16.3569
-1.34781 -4.86306 16.5191
-1.58122 -4.01399 17.0751
-2.28691 -6.55688 16.8453
-0.745955 -5.5267 15.9142
-1.33385 -5.13604 16.2492
-1.84959 -6.03694 16.5658
-2.09252 -6.25587 16.5075
-1.42254 -4.37527 16.9281
-0.932356 -5.03795 16.1903
-1.11339 -5.70442 15.9772
-1.74913 -5.26986 17.157
-1.27737 -6.78174 16.5257
-1.61035 -5.80281 16.4328
-0.755876 -5.90071 15.7379
-1.34628 -5.99318 16.0856
-1.16785 -4.62507 16.7097
-1.23117 -4.06898 16.9649
-0.658671 -6.3398 15.7439
-0.568163 -5.21961 16.1025
-1.50412 -2.57819 17.6537
-1.02402 -6.61715 16.2037
-2.00023 -5.88282 16.8192
-1.01707 -5.40062 16.2123
-0.36654 -6.05479 15.7919
0.096364 -5.729 16.0048
-1.14801 -3.82872 17.2689
0.387284 -5.39617 16.4037
-0.568553 -4.85392 16.2523
0.00950239 -6.15137 15.8897
-0.447485 -4.66585 16.5569
-0.191352 -4.86389 16.3299
-1.70391 -2.92844 17.7729
0.0443776 -5.27369 16.5284
0.0072591 -5.45759 16.262
-0.239627 -5.90152 16.0967
-0.358232 -5.58203 16.1171
-1.02063 -4.47206 16.9793
-0.704321 -4.64047 17.0082
-1.27211 -2.8321 17.8966
-0.267951 -6.69781 16.1231
-1.28803 -6.79796 16.5242
-0.258873 -6.39591 15.9115
0.621722 -5.63628 16.5987
-0.304431 -5.18745 16.4342
0.237332 -6.08861 16.2212
0.484527 -5.98199 16.5547
0.314863 -5.30986 16.8141
-1.18294 -3.61153 17.4853
0.26168 -5.72402 16.3264
-1.14691 -4.25702 17.2656
