ply
    format ascii 1.0           
    element vertex 48
    property double x           
    property double y           
    property double z           
    end_header
-0.344072 -0.978787 2.3974
-0.424224 -0.892636 2.53704
-0.405445 -0.780905 2.54192
-0.398623 -0.945178 2.45968
-0.409814 -1.06212 2.43895
-0.354148 -1.11971 2.38758
-0.369712 -0.685388 2.70668
-0.319885 -0.850587 2.4709
-0.46437 -1.12499 2.47749
-0.322477 -0.77515 2.50373
-0.331291 -0.584284 2.74826
-0.349273 -1.20441 2.40773
-0.298444 -0.908719 2.4183
-0.29176 -1.05562 2.39395
-0.434189 -0.606059 2.73529
-0.199829 -1.05653 2.38336
-0.417581 -1.01447 2.51628
-0.266691 -0.622703 2.72589
-0.270013 -0.709155 2.6014
-0.412328 -1.19248 2.47445
-0.341712 -0.740415 2.57236
-0.293181 -0.675829 2.68146
-0.363776 -0.841637 2.53353
-0.267553 -1.15515 2.4131
-0.106834 -1.14909 2.45044
-0.257435 -0.980079 2.40156
-0.248761 -0.82593 2.50395
-0.149404 -1.00781 2.42485
-0.195639 -1.12091 2.44024
-0.152595 -1.21899 2.47804
-0.2097 -0.95023 2.44927
-0.261171 -0.579928 2.7876
-0.244873 -0.907216 2.50218
-0.0802724 -1.11458 2.53012
-0.41074 -0.75046 2.61869
-0.186508 -0.927727 2.56364
-0.25697 -0.779185 2.5656
-0.0813511 -1.20394 2.53222
-0.222707 -0.768303 2.63864
-0.220923 -0.849129 2.5855
-0.173748 -0.99218 2.51972
-0.265237 -0.704563 2.74372
-0.146906 -1.06894 2.48561
-0.237302 -0.776542 2.73158
-0.268898 -0.651297 2.78324
-0.158131 -1.07418 2.57968
-0.185969 -1.00159 2.60522
-0.242443 -0.850159 2.65726
