ply
    format ascii 1.0           
    element vertex 69
    property double x           
    property double y           
    property double z           
    end_header
-2.45793 -6.2254 14.4809
-2.47477 -5.18935 14.6323
-2.07604 -3.9422 15.3124
-2.85725 -5.43377 14.7882
-3.04313 -5.74615 15.1622
-2.68538 -6.21428 14.7653
-2.57199 -4.41486 15.319
-2.24631 -4.79606 14.6724
-3.3305 -5.89489 15.4064
-2.3457 -4.49233 14.9287
-1.23538 -5.96162 14.8349
-1.85169 -4.34043 15.1892
-2.84901 -5.02964 14.837
-2.0636 -6.16392 14.5618
-2.07684 -5.64521 14.6519
-2.88213 -6.466 15.0507
-3.03294 -6.09364 15.1502
-2.56874 -3.67035 15.9383
-1.81696 -3.48508 15.7579
-2.21205 -4.25635 15.2344
-1.54824 -5.66789 14.9245
-1.98998 -5.17496 14.7452
-2.38936 -2.99955 16.061
-1.32467 -6.32363 15.0313
-2.608 -4.72949 15.0971
-2.42443 -5.9136 14.7297
-2.51321 -6.66625 14.9024
-2.19596 -6.5394 14.6123
-1.87186 -4.78315 14.8568
-3.04662 -5.63227 15.551
-1.54725 -4.60722 15.1436
-1.58832 -3.79514 15.7346
-2.73995 -5.77785 14.8992
-2.43294 -5.55529 14.8066
-1.6835 -3.0226 16.2218
-1.20782 -6.85449 15.5574
-1.67108 -2.80666 16.5023
-1.37824 -4.41345 15.3832
-1.66904 -5.171 14.9425
-2.09766 -3.34385 15.6624
-2.10304 -2.97924 16.1453
-2.44919 -3.3454 16.1011
-1.09932 -5.44005 15.468
-2.018 -3.68198 15.6137
-1.32903 -5.13073 15.4444
-1.24916 -5.7124 15.2394
-1.8882 -6.2448 14.8961
-1.34189 -4.42525 15.5086
-1.83578 -2.52736 16.4008
-1.87674 -5.49422 14.9627
-0.92762 -6.46125 16.1388
-1.47131 -5.39675 15.1979
-1.58219 -4.98533 15.2554
-0.946687 -5.81861 15.5627
-1.33929 -4.76073 15.4518
-1.57056 -4.18891 15.3897
-2.07454 -2.54694 16.1225
-1.95264 -5.85247 14.9446
-1.42597 -4.10344 15.7466
-1.15055 -6.41669 15.7776
-1.07874 -6.74587 15.8767
-1.0378 -6.26979 16.5193
-1.08994 -6.04701 15.1581
-1.76911 -6.87514 15.4584
-1.28953 -6.39516 15.4068
-1.31844 -6.32581 15.021
-1.13282 -6.12552 16.1455
-1.28097 -5.14958 15.7975
-1.54858 -6.65542 15.4497
