ply
    format ascii 1.0           
    element vertex 41
    property double x           
    property double y           
    property double z           
    end_header
-0.418982 -0.378888 1.17275
-0.384911 -0.380633 1.13998
-0.362064 -0.0273681 1.28943
-0.371956 -0.257626 1.17491
-0.334468 -0.303391 1.14792
-0.396947 -0.305033 1.16856
-0.362719 -0.335524 1.16072
-0.376148 -0.133767 1.24354
-0.313947 -0.240456 1.19044
-0.402714 -0.287788 1.20571
-0.415657 -0.40681 1.14386
-0.353064 -0.222561 1.19451
-5.24781 5.02169 -12.6042
-0.324317 -0.357692 1.15759
-0.394058 -0.226991 1.19583
-0.31671 -0.11375 1.23985
-0.359785 -0.172346 1.21672
-0.332547 -0.276416 1.1787
-0.399257 -0.175284 1.22759
-0.383835 -0.363311 1.17767
-0.318868 -0.422039 1.17838
-0.29696 -0.290601 1.19041
-0.29906 -0.324842 1.16735
-0.323375 -0.167395 1.23974
-0.347511 -0.392056 1.16427
-0.327982 -0.0920515 1.26248
-0.325728 -0.221459 1.22678
-0.29561 -0.380092 1.19264
-0.28466 -0.372607 1.23385
-0.303276 -0.44768 1.24952
-0.282307 -0.326554 1.20962
-0.361173 -0.0262603 1.28167
-0.321316 -0.137401 1.27375
-0.302016 -0.259898 1.22748
-0.294865 -0.40899 1.24826
-0.327422 -0.224807 1.27852
-0.359825 -0.0987172 1.24523
-0.314418 -0.322131 1.27282
-0.32556 -0.18232 1.27673
-0.321502 -0.41791 1.21893
-0.327025 -0.353008 1.28375
