ply
    format ascii 1.0           
    element vertex 51
    property double x           
    property double y           
    property double z           
    end_header
-0.636049 -0.844024 2.37621
-0.608431 -0.310904 2.54564
-0.724359 -0.772244 2.56131
-0.657532 -0.69973 2.40817
-0.737999 -0.620751 2.43393
-0.695246 -0.850064 2.52525
-0.61272 -0.784085 2.3456
-0.592912 -0.371289 2.59792
-0.679569 -0.816074 2.43088
-0.695799 -0.684648 2.46909
-0.603934 -0.402089 2.52821
-0.598302 -0.468107 2.4256
-0.727393 -0.797288 2.48615
-0.571169 -0.362715 2.46589
-0.653613 -0.550279 2.46096
-0.684063 -0.751292 2.46209
-0.592009 -0.541444 2.41507
-0.632458 -0.489063 2.49675
-0.620367 -0.673275 2.34405
-0.541381 -0.639333 2.35204
-0.502112 -0.716566 2.34472
-0.616712 -0.760176 2.417
-0.528956 -0.549591 2.37685
-0.537821 -0.261359 2.55406
-0.532593 -0.497004 2.42542
-0.667797 -0.58465 2.40198
-0.603526 -0.614039 2.38593
-0.455615 -0.503585 2.41849
-0.69515 -0.634093 2.37536
-0.485532 -0.393105 2.51353
-0.54611 -0.77242 2.36831
-0.441036 -0.444536 2.55334
-0.426106 -0.626264 2.44847
-0.471027 -0.294467 2.55303
-0.550755 -0.438288 2.48952
-0.462698 -0.576594 2.40476
-0.533845 -0.330686 2.51956
-0.566806 -0.706622 2.38957
-0.443794 -0.727346 2.39415
-0.416793 -0.555284 2.46612
-0.463291 -0.36774 2.58284
-0.500332 -0.676858 2.40158
-0.497358 -0.815567 2.49257
-0.61275 -0.313191 2.54505
-0.522533 -0.610251 2.41291
-0.433877 -0.687915 2.46534
-0.604454 -0.473486 2.43316
-0.426681 -0.779196 2.44025
-0.476977 -0.510757 2.57872
-0.425372 -0.816852 2.50687
-0.421407 -0.642875 2.51879
