ply
    format ascii 1.0           
    element vertex 44
    property double x           
    property double y           
    property double z           
    end_header
-0.824338 -4.64442 9.57918
-1.70764 -4.07439 10.1909
-1.4459 -4.82324 10.0057
-1.62506 -4.2944 9.88966
-1.20746 -4.27771 9.59901
-1.70246 -4.49433 9.98496
-1.39665 -4.32382 9.73995
-1.33767 -4.09799 9.76305
-1.06288 -4.55365 9.62303
-1.24966 -3.26901 10.4641
-1.75245 -4.23881 10.054
-0.87295 -4.04827 9.70411
-1.45555 -3.61769 10.244
-1.55053 -4.49293 9.79619
-1.10223 -4.09165 9.67893
-0.965586 -3.92845 9.89138
-1.51733 -3.87402 10.1284
-1.61773 -4.10565 9.9854
-0.992833 -3.61749 10.3978
-1.12801 -3.82417 10.2395
-1.19636 -3.96278 9.86904
-1.14568 -3.45034 10.3951
-1.32161 -3.7789 10.1666
-1.22296 -3.65265 10.3347
-0.94059 -4.27864 9.71362
-0.731212 -4.56284 9.91625
-0.752511 -4.85666 9.6429
-0.665298 -4.70467 9.75501
-1.25431 -3.04296 10.7014
-1.00394 -3.43089 10.5535
-1.10975 -3.8127 10.2299
-0.58663 -4.74731 9.98132
-0.921985 -5.08898 9.88123
-1.11412 -3.2551 10.6104
-0.91844 -4.38167 9.90244
-1.22638 -3.6512 10.3091
-1.03171 -4.03262 10.2195
-0.886935 -4.15154 9.90574
-0.756109 -4.87612 9.65022
-0.81675 -4.87436 9.88404
-1.09159 -4.20452 10.404
-1.13827 -3.80867 10.6211
-1.03649 -4.5031 10.1577
-1.06705 -3.58657 10.6631
