ply
    format ascii 1.0           
    element vertex 56
    property double x           
    property double y           
    property double z           
    end_header
-0.0829892 -0.380707 2.99622
-0.00259137 -0.732273 2.83078
-0.189679 -0.837003 2.78588
-0.0820256 -0.716383 2.83236
-0.0538792 -0.501706 2.89002
-0.0851286 -0.62616 2.81143
-0.126935 -0.910147 2.68761
-0.0747998 -0.564405 2.85532
-0.126393 -0.853381 2.73804
-0.204835 -1.03276 2.67453
0.0200154 -0.803834 2.76335
-0.160769 -0.776727 2.86173
-0.119105 -0.967027 2.63038
-0.052495 -0.87733 2.70352
-0.0461685 -0.937277 2.6561
-0.242154 -0.95612 2.83279
-0.0148616 -0.622347 2.84505
0.0187704 -1.1352 2.76273
-0.229591 -0.977044 2.723
-0.0576532 -0.826749 2.75556
-0.111123 -1.04773 2.64713
-0.193399 -1.1054 2.69512
-0.120093 -0.810579 2.80013
0.00143906 -0.556704 2.89234
-0.0438497 -0.795334 2.82771
0.000639478 -1.00952 2.65782
0.0211373 -0.909581 2.69634
0.0678934 -0.892048 2.83992
-0.0520368 -1.03509 2.69572
0.0870848 -1.08678 2.78522
0.00935536 -0.490121 2.97284
0.119499 -0.958703 2.85175
0.0807906 -0.999624 2.78638
0.000761872 -0.680326 2.96835
0.121745 -1.04583 2.85051
0.0333817 -1.04224 2.71348
-0.0425467 -0.373875 3.05484
0.0347996 -0.552136 2.95862
0.00775767 -0.612733 2.94604
0.0415511 -0.814533 2.84289
0.0203582 -0.95751 2.6714
-0.105207 -1.08946 2.71415
0.129924 -1.01048 2.90388
0.023718 -0.941285 2.79626
-0.00561711 -0.737179 2.9088
0.00458413 -0.886752 2.75829
-0.052579 -0.505207 2.88656
0.0128593 -0.412254 3.0591
0.0109294 -0.972548 2.73393
-0.0145242 -0.803068 2.95306
0.104162 -0.954246 2.93668
0.088611 -1.06541 2.941
-0.0115335 -1.12725 2.87807
-0.00270473 -0.855399 2.8936
0.0358184 -1.08437 2.85788
-0.0544644 -0.869686 2.96547
