ply
    format ascii 1.0           
    element vertex 43
    property double x           
    property double y           
    property double z           
    end_header
-1.68998 -2.43224 6.31703
-1.76628 -2.63331 6.86167
-1.65138 -1.47245 7.03602
-1.62033 -2.65858 6.27351
-1.62032 -2.71068 6.53486
-1.65678 -3.03366 6.51563
-1.5455 -2.11721 6.40428
-1.56241 -1.67471 7.25061
-1.69026 -2.20661 6.76905
-1.60607 -1.87232 7.18955
-1.69548 -1.74352 6.82557
-1.64451 -2.20126 6.99755
-1.70445 -2.95391 6.73872
-1.77003 -2.40246 6.83289
-1.65624 -2.86076 6.35939
-1.58121 -2.02233 6.70451
-1.79536 -2.38811 6.58691
-1.55032 -2.30227 6.16387
-1.71796 -1.94665 6.95632
-1.54713 -1.58646 6.85604
-1.34835 -2.79591 6.19513
-1.63548 -2.75296 6.7439
-1.43165 -2.52214 6.14859
-1.65947 -1.3041 7.17028
-1.47692 -1.84509 6.85369
-1.60342 -2.27895 6.53957
-1.01281 -2.64042 6.14769
-1.39213 -2.13116 6.21606
-1.33825 -3.0955 6.2051
-1.30186 -2.00026 6.87454
-1.23294 -2.60564 6.25463
-1.64651 -1.30214 7.17729
-1.33295 -2.33819 6.24959
-1.23499 -3.03739 6.45036
-1.36262 -2.12507 6.67638
-1.21737 -3.26581 6.43787
-1.21828 -2.30431 6.6457
-1.43937 -1.64498 7.0261
-1.21733 -2.42064 6.42031
-1.2028 -2.20696 6.85187
-1.01222 -2.73663 6.60723
-1.34489 -2.23756 6.46708
-1.47893 -1.44849 7.14374
