ply
    format ascii 1.0           
    element vertex 58
    property double x           
    property double y           
    property double z           
    end_header
-0.538503 -1.0914 3.07247
-0.420013 -0.732331 3.26073
-0.477223 -0.942585 3.12646
-0.482426 -1.00765 3.04805
-0.477224 -0.876438 3.20601
-0.719086 -1.21583 3.25132
-0.556103 -0.957509 3.27114
-0.639308 -1.21511 3.17051
-0.681752 -1.30433 3.2138
-0.553018 -1.02099 3.18473
-0.473023 -0.748683 3.3362
-0.787301 -1.18413 3.33821
-0.531043 -0.87208 3.30194
-0.385041 -0.857478 3.23031
-0.466747 -1.2659 3.10329
-0.551265 -1.38437 3.12307
-0.45673 -0.818395 3.28207
-0.666787 -1.08327 3.31604
-1.53033 0.453204 -1.17391
-0.72545 -1.12422 3.26039
-0.426272 -1.08505 3.04971
-0.327824 -1.22319 3.12882
-0.555605 -1.22717 3.12876
-0.289076 -0.856848 3.24681
-0.47027 -1.15717 3.09838
-0.345596 -0.788328 3.27621
-0.462883 -1.351 3.12428
-0.393535 -0.995705 3.04803
-0.641083 -1.15495 3.25517
-0.331842 -0.685705 3.4142
-0.305527 -0.942391 3.21575
-0.400972 -0.928894 3.17331
-0.370113 -1.37258 3.2007
-0.395081 -1.28043 3.16284
-0.293504 -0.553692 3.51594
-0.328786 -0.968336 3.11671
-0.254272 -1.09432 3.14817
-0.586468 -1.28237 3.07347
-0.222676 -1.30723 3.21726
-0.149177 -1.17824 3.2437
-0.351528 -0.713888 3.31602
-0.165426 -1.264 3.28283
-0.417018 -1.20794 3.13392
-0.374653 -1.13495 3.1203
-0.232091 -1.1764 3.19255
-0.330503 -1.05782 3.14867
-0.749863 -1.1003 3.32924
-0.354314 -0.610444 3.54442
-0.266798 -1.0292 3.22509
-0.246983 -0.973413 3.31809
-0.454064 -0.674819 3.48009
-0.327978 -0.675503 3.39794
-0.115175 -1.20671 3.33169
-0.218005 -1.12015 3.28864
-0.145988 -1.11873 3.34398
-0.26097 -0.881378 3.36052
-0.318501 -0.784026 3.3591
-0.369318 -0.530152 3.48074
