ply
    format ascii 1.0           
    element vertex 47
    property double x           
    property double y           
    property double z           
    end_header
-0.179963 -0.109367 1.46809
-0.147397 -0.12748 1.39894
-0.463045 0.321145 -0.998735
-0.201675 -0.458727 1.58007
-0.209578 -0.354888 1.34443
-0.208542 -0.432591 1.32795
-0.139048 -0.0788325 1.45468
-0.162904 -0.428608 1.28272
-0.183014 -0.603747 1.30726
-0.179179 -0.5427 1.28015
-0.170911 -0.380011 1.31258
-0.17758 -0.319495 1.31401
-0.136154 -0.501186 1.25685
-0.0665721 -0.600223 1.27924
-0.201633 -0.340311 1.59011
-0.128736 -0.349997 1.29672
-0.128238 -0.184753 1.47835
-0.158787 -0.219027 1.38245
-0.101359 -0.563168 1.29572
-0.104739 -0.47122 1.28337
-0.0631833 -0.403779 1.36631
-0.046457 -0.570314 1.31722
-0.0377514 -0.649266 1.27898
-0.142615 -0.30269 1.34524
-0.0463991 -0.454648 1.3759
-0.0759637 -0.324313 1.3853
-0.119161 -0.428099 1.31755
-0.112482 -0.249874 1.37006
-0.189726 -0.259045 1.36754
-0.140432 -0.6157 1.34103
-0.0649445 -0.498945 1.30829
-0.213362 -0.472624 1.29866
-0.0905246 -0.38328 1.31685
-0.107071 -0.346497 1.35311
-0.13407 -0.546317 1.3094
-0.0633803 -0.367338 1.39693
-0.113958 -0.129223 1.46559
0.0286142 -0.607794 1.33437
-0.108743 -0.232858 1.41876
-0.111404 -0.291917 1.43249
0.00213917 -0.648551 1.31229
-0.129827 -0.0802256 1.44284
-0.00589273 -0.56258 1.33924
-0.0410643 -0.498753 1.35797
-0.06182 -0.544576 1.33705
-0.00216871 -0.605593 1.2894
-0.121543 -0.304403 1.39673
