ply
    format ascii 1.0           
    element vertex 47
    property double x           
    property double y           
    property double z           
    end_header
-0.311643 -0.459214 1.33517
-0.291282 -0.23056 1.3959
-0.31291 -0.408829 1.33268
-0.290687 -0.275232 1.41264
-0.330617 -0.457953 1.38314
-0.26786 -0.283586 1.36739
-0.307677 -0.378338 1.41498
-0.262748 -0.354609 1.30092
-0.277903 -0.377733 1.35486
-0.167881 -0.298718 1.36489
-0.269246 -0.141237 1.46681
-0.260317 -0.405948 1.31583
-0.268324 -0.332112 1.37989
-0.247529 -0.209314 1.39015
-0.228236 -0.310728 1.35918
-0.281431 -0.203285 1.49399
-0.206447 -0.278859 1.38504
-0.245296 -0.258101 1.40189
-0.194965 -0.348671 1.33667
-0.181395 -0.393486 1.35782
-0.183469 -0.255682 1.44918
-0.318583 -0.144687 1.47636
-0.183968 -0.204556 1.45449
-0.190881 -0.46125 1.3395
-0.306881 -0.317316 1.40182
-0.11221 -0.453076 1.44078
-0.128704 -0.480141 1.40877
-0.21791 -0.435465 1.35951
-0.246356 -0.103163 1.48333
-0.192386 -0.183655 1.49576
-0.243871 -0.348953 1.3443
-0.266142 -0.356462 1.30176
-0.142053 -0.420303 1.42872
-0.227989 -0.177889 1.45749
-0.220895 -0.227674 1.42897
-0.254287 -0.153561 1.42285
-0.175371 -0.440447 1.39848
-0.153314 -0.468397 1.3674
-0.164059 -0.383738 1.40536
-0.158447 -0.362615 1.44768
-0.18321 -0.33826 1.39748
-0.229788 -0.152439 1.49502
-0.215715 -0.525209 1.42132
-0.229193 -0.132721 1.547
-0.183447 -0.293165 1.47659
-0.178424 -0.296687 1.41543
-0.215353 -0.211432 1.52071
