ply
    format ascii 1.0           
    element vertex 59
    property double x           
    property double y           
    property double z           
    end_header
-0.960793 -1.93605 3.72973
-1.0741 -1.13065 3.7625
-0.989088 -0.913593 3.87109
-0.959079 -1.50833 3.45252
-1.08042 -1.61696 3.59655
-1.08209 -1.21782 3.70602
-1.12175 -1.72324 3.57199
-1.01147 -1.02923 3.78628
-0.636523 -1.76177 3.4114
-1.09698 -1.40518 3.62045
-1.05364 -1.31886 3.66236
-0.912961 -0.814875 3.89574
-0.955128 -0.847477 4.01732
-1.09914 -1.42152 3.73109
-1.01202 -1.35845 3.55218
-0.99381 -0.946362 3.99201
-0.958853 -1.87743 3.50231
-1.0604 -1.50679 3.66981
-0.890476 -1.20993 3.5562
-0.898346 -1.0204 3.70406
-1.04329 -1.81988 3.55688
-1.03428 -1.64977 3.49125
-0.955732 -0.925172 3.75594
-0.870039 -1.42623 3.44093
-0.995934 -1.19451 3.62241
-0.911277 -1.62272 3.46389
-1.01176 -1.48634 3.56368
-0.438767 -1.68405 3.51698
-0.940882 -1.74465 3.51018
-0.987822 -1.10473 3.69573
-0.894638 -1.12624 3.6274
-0.773751 -1.29817 3.58169
-0.631654 -1.60213 3.53654
-0.838441 -1.52694 3.46556
-0.60957 -1.72549 3.5267
-0.899489 -1.32995 3.5731
-0.508211 -1.78603 3.46546
-0.811772 -1.72954 3.49825
-0.68435 -1.39951 3.58778
-0.720343 -1.6903 3.55496
-0.72299 -1.51003 3.53668
-0.517905 -1.63619 3.59876
-0.858394 -0.922756 3.81018
-0.949512 -1.88002 3.49577
-0.80277 -1.41456 3.52801
-0.804655 -1.03043 3.7707
-0.788464 -1.20229 3.63988
-0.648966 -1.52965 3.63325
-0.848324 -0.849225 4.01559
-0.374 -1.75456 3.56897
-0.808997 -0.886979 3.90263
-0.438125 -1.6808 3.50626
-0.746983 -1.21219 3.75772
-0.804035 -1.60675 3.55121
-0.73005 -1.3102 3.68285
-0.47732 -1.86579 3.53856
-0.847111 -1.14352 3.72616
-0.784578 -0.973756 3.97481
-0.797485 -1.00282 3.87636
