ply
    format ascii 1.0           
    element vertex 46
    property double x           
    property double y           
    property double z           
    end_header
-0.269801 0.057659 2.33394
-0.151718 -0.424796 2.09959
-0.279613 -0.752247 1.99499
-0.304447 -0.372539 2.15861
-0.208859 0.00750844 2.28194
-0.303774 -0.504345 2.13926
-0.19771 -0.204249 2.23324
-0.232693 -0.0986382 2.25887
-0.217911 -0.320929 2.16332
-0.184175 -0.597967 2.04011
-0.344844 -0.683569 2.0527
-0.23112 -0.446937 2.15245
-0.175154 -0.721045 1.98011
-0.27859 -0.0516513 2.32045
-0.276274 -0.575721 2.08032
-0.248168 -0.664779 2.02256
-0.287833 -0.217919 2.27848
-0.110582 -0.661616 2.02663
-0.102025 -0.218486 2.27028
-0.29301 -0.301577 2.23193
-0.308733 -0.091701 2.4226
-0.309838 0.000474905 2.39048
-0.340968 -0.62694 2.12879
-0.121998 0.0116735 2.3291
-0.279161 -0.146188 2.33956
-0.289336 -0.830068 2.04988
-0.353816 -0.772691 2.06383
-0.308732 -0.877677 2.1488
-0.184689 -0.545108 2.11902
-0.0845709 -0.154332 2.34016
-0.153676 -0.292263 2.2305
-0.138735 -0.0771199 2.28971
-0.129481 -0.376585 2.18509
-0.113887 -0.476602 2.17744
-0.110072 -0.611004 2.11039
-0.0459069 -0.674926 2.14561
-0.184897 0.0731626 2.35105
-0.0831115 -0.0673392 2.38758
-0.118 -0.736297 2.0952
-0.136928 -0.582838 2.20216
-0.118246 -0.312284 2.29076
-0.0653169 -0.643794 2.24387
-0.113301 -0.403285 2.27814
-0.0597974 -0.735194 2.22968
-0.146225 -0.777849 2.19724
-0.126342 -0.50738 2.23668
