ply
    format ascii 1.0           
    element vertex 62
    property double x           
    property double y           
    property double z           
    end_header
0.111092 0.075211 8.52644
0.417473 -0.00557604 8.44251
-1.08638 -2.30867 6.92502
0.0254413 -0.703737 8.0704
-0.894333 -1.96076 7.37392
0.269296 -0.696613 7.8533
0.236283 -0.439775 8.11762
-0.528039 -1.60861 7.2753
-1.00321 -2.00132 7.68241
-0.387791 -2.32505 6.71276
-0.432422 -1.813 7.14356
-0.435932 -1.2977 7.89455
-0.902508 -2.56798 6.82159
-0.215624 -1.58303 7.08355
-1.14943 -2.34791 7.24135
-0.177641 -1.84577 6.92763
-0.756414 -2.31411 6.84831
0.213605 -1.837 6.78595
-0.0166674 -2.07307 6.80031
0.0549482 -0.577722 8.35823
-1.03903 -2.21885 7.50274
-1.15624 -2.59307 7.04041
-0.272447 -1.40266 7.31335
-0.936318 -2.17211 7.13371
-0.466181 -1.51377 7.53259
-0.221665 -1.09648 7.84974
-0.255327 -1.31145 7.63028
-0.756971 -1.84178 7.624
-0.320986 -2.06014 7.07671
0.100337 -1.72757 7.04151
-0.65097 -2.16606 7.08256
-0.59274 -2.0138 7.31102
-0.0635452 -2.41945 6.72947
0.220521 -2.31032 6.81893
0.0387306 -0.977027 7.89299
-0.299415 -2.59453 6.62977
-0.321287 -1.17412 8.1305
0.0869314 -1.2983 7.64303
-0.425265 -2.28024 6.96096
0.527005 -1.14563 8.05036
0.22416 -1.1819 7.91795
0.404111 -1.42836 7.93312
0.287776 -2.07723 6.9315
-0.00135201 -1.55992 7.32076
0.297527 -1.60855 7.52673
0.446093 -1.84534 7.00228
0.210036 -2.31918 6.79623
-0.139485 -2.74647 6.77796
0.532586 -1.7461 7.66332
0.161962 -2.75962 7.27003
0.234989 -0.265202 8.58952
0.371247 -2.42018 7.03757
0.404167 -0.747022 8.14175
-0.252983 -1.32332 7.62665
0.00314264 -0.210686 8.4339
0.441308 -2.33648 7.8343
0.439186 -2.62017 7.7861
-0.0526614 -2.77022 7.02944
0.32117 -2.34448 7.56467
0.502158 -1.91652 7.23062
0.0570281 -2.99091 7.37053
0.2633 -1.69212 7.28923
