ply
    format ascii 1.0           
    element vertex 50
    property double x           
    property double y           
    property double z           
    end_header
-0.239203 -0.132821 3.03566
-0.507539 -0.751276 2.7922
-0.319171 -0.122291 3.1007
-0.458187 -1.07295 2.55274
-0.307343 -0.706564 2.68161
-0.14999 -0.998271 2.5614
-0.385841 -0.518828 2.84089
-0.456935 -0.913378 2.65709
-0.297715 -0.442414 2.81346
-0.437433 -0.663547 2.77558
-0.239975 -0.791659 2.65936
-0.221541 -0.522256 2.83727
-0.311811 -0.352842 2.88011
-0.36554 -0.196663 3.06259
-0.367969 -0.283301 2.94357
-0.352558 -0.944097 2.6168
-0.442319 -0.973909 2.57609
-0.372578 -0.747539 2.75293
-0.505459 -1.0121 2.65794
-0.26032 -1.00624 2.59678
-0.383897 -0.428931 2.88844
-0.251343 -0.284034 2.94029
-0.0798326 -0.820492 2.75265
-0.433737 -0.827379 2.74236
-0.0964096 -0.957317 2.65216
-0.387555 -0.381228 2.95956
-0.174759 -0.760169 2.73791
-0.427547 -0.602433 2.85638
-0.205936 -0.957164 2.67526
-0.112098 -0.736893 2.82434
-0.170807 -0.364031 2.96622
-0.14029 -0.594701 2.91378
-0.335402 -0.91043 2.71748
-0.146584 -0.894075 2.7265
-0.180865 -0.665633 2.99354
-0.203886 -1.1376 2.70099
-0.193555 -0.249311 3.03858
-0.0748609 -0.951634 2.79845
-0.0520378 -1.00809 2.7295
-0.276688 -0.726776 2.78618
-0.147251 -1.15163 2.81893
-0.255258 -0.717135 2.89951
-0.437359 -1.1086 2.65043
-0.242065 -0.428065 2.90489
-0.075144 -0.860154 2.85854
-0.252079 -0.20655 3.1174
-0.0540242 -1.04881 2.83889
-0.12502 -0.802325 2.90237
-0.225409 -0.525717 2.94432
-0.252551 -0.308606 3.09845
