ply
    format ascii 1.0           
    element vertex 41
    property double x           
    property double y           
    property double z           
    end_header
-0.323315 -0.567834 2.37638
-0.34216 -0.734874 2.31986
-0.286836 -0.613275 2.34376
-0.308938 -0.65144 2.31755
-0.251343 -0.974967 2.24795
-0.339716 -0.844292 2.25557
-0.347537 -0.793037 2.30675
-0.340188 -0.685697 2.34148
-0.303166 -0.811831 2.26033
-0.289802 -0.870566 2.2525
-0.236714 -0.873009 2.23039
-0.311112 -0.761551 2.28063
-0.36712 -0.719402 2.36348
-0.263085 -0.736259 2.29403
-0.201963 -0.908993 2.22572
-0.304791 -0.920102 2.24767
-0.295411 -0.704686 2.31989
-0.380285 -0.920116 2.35753
-0.252386 -0.831633 2.26005
-0.261442 -0.782723 2.28054
-0.386304 -0.956561 2.32135
-0.342178 -0.89191 2.27126
-0.352352 -0.93975 2.28293
-0.370719 -0.869432 2.35507
-0.310525 -0.96715 2.26407
-0.362571 -0.77495 2.35876
-0.256475 -0.920688 2.23855
-0.20067 -0.95831 2.25978
-0.221184 -0.816525 2.30286
-0.163682 -0.917403 2.26581
-0.268934 -0.664878 2.35057
-0.186617 -0.887901 2.30365
-0.230026 -0.769755 2.32526
-0.273874 -0.597149 2.38775
-0.248027 -0.644188 2.39573
-0.243508 -0.719025 2.33402
-0.321878 -0.570658 2.38446
-0.245381 -0.697675 2.38894
-0.216701 -0.855088 2.33474
-0.235148 -0.748851 2.37508
-0.240153 -0.800105 2.38502
