ply
    format ascii 1.0           
    element vertex 50
    property double x           
    property double y           
    property double z           
    end_header
-0.0082272 -0.792011 3.34905
-0.210701 -1.2775 3.1858
-0.2337 -1.3781 3.15274
-0.0753709 -1.00974 3.26596
0.0471988 -0.701921 3.40988
-0.0542114 -0.884848 3.3065
-0.0336557 -1.12929 3.1641
-0.137952 -1.17958 3.16966
0.019719 -1.24926 3.06941
-0.0834929 -1.27695 3.12729
0.120301 -1.20203 3.04642
-0.178768 -1.15094 3.31789
0.0218782 -0.62183 3.50946
-0.166937 -1.329 3.09326
0.111969 -1.32273 3.04387
-0.150468 -1.00489 3.34936
0.0816695 -1.0855 3.1348
0.0804619 -0.531809 3.54513
-0.08719 -1.11516 3.27469
0.0105435 -1.03668 3.20361
0.0164764 -0.942335 3.24824
-0.0706292 -0.861223 3.40958
0.212584 -1.25758 3.01007
-0.0804211 -1.3929 3.10457
0.2205 -1.15808 3.07475
0.109341 -0.807064 3.36278
-0.145765 -1.24411 3.33591
0.128575 -0.927293 3.28529
0.0643047 -1.17818 3.15132
0.167488 -1.43176 3.12206
-0.188968 -1.45793 3.1842
0.134832 -1.04499 3.22238
-0.137297 -1.07722 3.35408
-0.0572631 -0.965397 3.35445
0.13591 -0.648175 3.46057
0.170308 -0.753189 3.47712
0.306138 -1.24288 3.07347
0.177212 -1.13855 3.17548
0.172011 -0.563731 3.59327
0.229885 -1.35315 3.06986
0.0290583 -1.34298 3.09802
0.0679979 -1.18513 3.15783
0.28554 -1.16251 3.15904
0.176125 -0.841405 3.4533
0.181847 -0.917836 3.37764
0.199215 -0.689502 3.54389
0.185997 -1.12678 3.28576
0.167107 -0.743713 3.45703
0.194994 -0.790855 3.53856
0.152687 -1.01159 3.43909
