ply
    format ascii 1.0           
    element vertex 51
    property double x           
    property double y           
    property double z           
    end_header
-1.94525 -1.61388 8.00234
-1.99726 -2.6206 7.58138
-1.8717 -2.26487 7.85123
-1.98714 -2.8081 7.36366
-1.97052 -2.60511 7.24031
-1.75434 -2.08754 8.02324
-1.89553 -2.21901 7.60331
-1.82748 -2.01598 7.78886
-1.84867 -1.82911 7.97225
-1.94143 -2.43457 7.41876
-1.72391 -1.24455 8.16379
-1.87117 -1.96651 7.54955
-1.91705 -2.43014 7.71388
-1.88138 -1.59192 7.77084
-1.81425 -1.45318 8.10227
-1.58473 -3.12739 7.52847
-1.55206 -2.96482 7.17487
-1.52251 -2.92974 7.88764
-1.86405 -1.81058 7.72978
-1.70379 -1.319 7.92303
-1.59806 -2.23758 7.22717
-1.48364 -2.78719 7.0082
-1.78182 -2.2655 7.36544
-1.76116 -2.77485 7.21014
-1.70379 -2.04036 7.39208
-1.34705 -2.59281 7.00603
-1.67146 -1.8113 7.47774
-1.48652 -2.42239 7.16074
-1.59583 -2.61995 7.14606
-1.62038 -1.4775 7.68507
-1.45471 -1.68123 7.58092
-1.39476 -1.87963 7.4678
-1.30368 -2.10287 7.41436
-1.74553 -2.54823 7.31022
-1.67838 -1.69325 7.67279
-1.2231 -2.91055 7.12413
-1.33851 -2.32142 7.32003
-1.4906 -1.3065 8.06629
-1.22454 -2.53336 7.24394
-1.18727 -2.70131 7.07057
-1.36378 -1.60455 7.98144
-1.45257 -1.43565 7.85323
-1.17726 -2.40807 7.62283
-1.32182 -1.82933 7.81995
-1.56525 -2.99592 7.17632
-1.11205 -2.7326 7.25593
-1.16232 -2.65394 7.62373
-1.23453 -2.24499 7.7301
-1.5471 -2.19342 7.51
-1.28668 -2.93957 7.16225
-1.28544 -3.06765 7.56131
