ply
    format ascii 1.0           
    element vertex 57
    property double x           
    property double y           
    property double z           
    end_header
-0.419772 -1.46995 4.42893
0.0601588 -0.535059 4.17111
-0.23131 -0.782341 4.20235
-0.00249257 0.0122747 4.494
-0.0792742 -0.445266 4.29534
-0.0462665 -0.730628 4.16463
-0.182611 0.104715 4.54014
-0.539223 -1.12019 4.46813
-0.744016 -1.10335 4.80183
-0.241264 -0.534224 4.21825
-0.496193 -0.531838 4.42492
-0.435386 -0.36206 4.50411
-0.428359 -1.2629 4.38574
-0.133054 -0.277466 4.40241
-0.151746 -0.980959 4.21527
-0.255608 -1.17968 4.32917
-0.213019 -0.118091 4.53105
0.0316345 -0.161256 4.38018
0.0881877 -1.06899 4.18227
-0.187192 0.424565 4.92803
0.260743 -0.512701 4.26615
-0.666426 -1.2005 4.54741
0.0657905 -0.884541 4.14259
-0.368692 -1.07019 4.45275
0.0992613 -0.387695 4.34281
-0.144662 0.247501 4.67588
-0.0727761 -1.16564 4.30695
0.161038 -0.72375 4.18386
0.277709 -0.879451 4.23479
-0.30601 0.130605 4.68564
-0.534145 -0.818104 4.67761
0.380145 -1.26883 4.48266
0.263876 -1.07017 4.27408
-0.407458 -0.680458 4.53563
0.0251973 0.137241 4.64633
0.148114 -1.2167 4.33957
0.504924 -0.820053 4.81272
0.132642 -0.236843 4.53995
-0.0312256 0.306114 4.86138
0.107642 -0.0608004 4.64531
0.275337 -0.694781 4.36344
0.435455 -1.0299 4.5757
0.353278 -0.859236 4.57834
0.37207 -1.18399 4.65677
0.332259 -0.979089 4.43062
0.46551 -1.03114 4.76413
0.171645 -0.432364 4.63559
0.22469 -0.634996 4.60993
0.325011 -0.810503 4.75655
0.254735 -1.14819 4.47421
0.28787 -1.37809 4.61606
0.100658 -1.06811 4.17606
0.104499 -0.0684352 4.6544
0.171622 -0.56142 4.44171
0.117387 -0.625448 4.8271
-0.0343942 0.298888 4.85398
0.318938 -1.13726 4.7939
