ply
    format ascii 1.0           
    element vertex 54
    property double x           
    property double y           
    property double z           
    end_header
-0.262483 0.827069 9.19652
-1.02121 -0.233027 9.38686
-0.853865 0.579721 9.39609
-0.910117 -1.96042 8.90297
0.446349 -1.79849 8.76114
-0.527141 -0.450774 8.8879
-1.04243 -1.62026 9.14412
-0.489583 -0.0615371 9.11806
-1.34852 -1.62858 9.4964
-0.905062 -1.06635 8.68476
-1.27949 -1.95503 9.29951
-0.589988 -1.11078 8.42795
-0.405297 0.388138 9.20334
-0.964408 1.01902 9.61645
-0.193401 1.26023 9.40547
-0.815492 0.14506 9.33031
-0.603988 0.971115 9.45784
-0.00324887 0.108954 9.12664
-0.682272 -2.36018 9.01883
-0.261578 -1.5625 8.67723
-0.668555 -1.56023 8.89161
-0.803793 -0.751162 9.0222
-0.402992 1.48166 9.63237
-0.446576 -1.9845 8.84048
-0.521261 -0.836597 8.7147
0.86902 -1.63192 8.88898
-0.768158 1.41926 9.90249
-0.0834253 -0.311471 9.01157
-0.142302 -0.695484 8.83414
-0.00947563 -1.89519 8.89593
0.404963 -0.713799 9.03343
-0.173371 -1.10706 8.59325
0.357543 -0.285634 9.23231
0.752232 -2.13718 8.89911
0.516398 -1.32168 9.08777
0.0909489 0.515942 9.32634
0.724074 -0.93055 9.17108
0.122113 -1.4683 8.88733
0.27531 -2.28734 8.79696
0.2071 -1.05715 8.82641
1.16686 -1.73338 9.25729
1.00849 -2.1488 9.23456
1.00833 -1.30647 9.19366
0.508312 -2.44896 9.20301
-0.205288 1.24173 9.40334
0.324805 0.0835697 9.47429
-0.0799923 0.856181 9.64076
0.260478 0.564725 9.76879
0.414263 -0.262224 9.73687
-0.13873 1.25339 9.94181
0.514012 -0.671231 9.50718
0.96888 -1.45496 9.57636
0.276576 0.140208 9.88871
1.08041 -1.9052 9.60308
