ply
    format ascii 1.0           
    element vertex 63
    property double x           
    property double y           
    property double z           
    end_header
-0.748242 -0.841238 3.2355
-0.754843 -1.04293 3.10365
-0.700754 -1.20235 3.04565
-0.723808 -0.704206 3.30042
-0.798225 -1.10645 3.11572
-0.671427 -0.834424 3.09722
-0.655741 -1.02526 3.01702
-0.714787 -0.890546 3.13203
-0.740725 -0.785852 3.28998
-0.677146 -0.70048 3.22781
-0.721567 -0.931571 3.09777
-0.74878 -1.1709 3.0999
-0.648053 -0.530835 3.31885
-0.665946 -0.622292 3.2498
-0.710744 -0.619635 3.31728
-0.714872 -1.12443 3.06209
-0.709236 -0.519367 3.37543
-0.556849 -0.882691 3.03518
-0.67853 -0.985496 3.08077
-0.708073 -0.768812 3.21177
-0.702553 -1.00432 3.17058
-0.761353 -1.15923 3.1802
-0.590457 -1.04866 2.96306
-0.569013 -1.13515 2.98776
-0.509874 -1.20045 2.98947
-0.639079 -0.911703 3.08074
-0.70285 -0.826749 3.16606
-0.595163 -0.959417 3.03815
-0.629971 -1.08576 3.01008
-0.655616 -1.14888 3.02387
-0.689423 -1.06675 3.07531
-0.594524 -0.689445 3.20424
-0.602653 -1.20744 3.01582
-0.600847 -0.980249 2.98172
-0.61276 -0.486965 3.38048
-0.536168 -0.954606 2.97977
-0.469005 -1.12617 2.99883
-0.619458 -0.781985 3.12822
-0.731279 -0.911978 3.2557
-0.597468 -0.839821 3.08244
-0.589779 -0.612828 3.2856
-0.34982 -1.1738 3.07438
-0.523446 -1.05578 2.98598
-0.394689 -1.01947 3.11264
-0.428215 -1.19342 3.01906
-0.401153 -1.11717 3.05067
-0.491784 -0.993533 3.02807
-0.459266 -1.05841 3.02481
-0.544024 -0.812821 3.13282
-0.370805 -1.24355 3.05346
-0.306189 -1.24648 3.10107
-0.562945 -0.763021 3.19248
-0.441173 -0.948461 3.15403
-0.431113 -1.27285 3.02428
-0.384149 -0.996054 3.18945
-0.614562 -0.481464 3.37182
-0.50538 -0.927917 3.04504
-0.47168 -0.969744 3.09722
-0.491036 -0.87294 3.0789
-0.520389 -0.794524 3.2506
-0.441227 -1.07677 3.10321
-0.487971 -0.900514 3.17318
-0.418469 -1.31108 3.09824
