ply
    format ascii 1.0           
    element vertex 60
    property double x           
    property double y           
    property double z           
    end_header
-1.28413 -1.57178 5.69338
-1.23334 -1.65626 5.57593
-1.23615 -0.950441 5.83895
-1.22611 -1.71445 5.40918
-1.1658 -0.890729 5.71006
-1.36732 -1.43907 5.60024
-1.12958 -1.02376 5.66092
-1.25006 -1.39593 5.42105
-1.05304 -0.900208 5.64602
-1.15822 -1.0999 5.5467
-1.11886 -0.769036 5.69238
-1.32855 -1.51171 5.47042
-0.998275 -1.0832 5.39603
-1.23611 -1.60466 5.40668
-0.97751 -1.41471 5.32441
-1.16853 -0.493129 5.89366
-1.26192 -0.715231 5.86792
-1.23414 -1.14693 5.67808
-0.864676 -1.11134 5.35404
-1.06028 -1.19543 5.42586
-1.36299 -1.30645 5.53289
-0.597267 -1.52634 5.33036
-0.813875 -1.23564 5.32569
-1.13185 -1.52676 5.34416
-0.97584 -0.773692 5.65499
-1.19491 -1.08628 5.79408
-1.11299 -1.39252 5.38455
-0.99576 -1.55263 5.32206
-1.14503 -0.590048 5.7974
-1.12864 -1.66561 5.34631
-0.80788 -1.38595 5.33576
-0.984001 -1.02578 5.60156
-0.722904 -1.66427 5.34998
-0.997996 -1.68082 5.32992
-1.10327 -1.30734 5.50302
-0.999853 -1.31443 5.40358
-0.972175 -0.500371 5.91406
-0.738631 -1.50393 5.36251
-0.913 -0.894218 5.60371
-1.23756 -1.27097 5.57256
-1.00575 -0.59198 5.81074
-0.876723 -1.49729 5.37462
-0.633204 -1.39963 5.33469
-0.570523 -1.22149 5.58235
-0.434521 -1.42091 5.49408
-0.549598 -1.32891 5.45317
-0.813704 -1.01698 5.61659
-0.843645 -1.6066 5.42343
-0.883771 -0.720589 5.79358
-0.70687 -1.11302 5.6717
-0.891949 -1.70162 5.38974
-1.19218 -0.383517 6.09651
-0.452391 -1.29043 5.54653
-0.543714 -1.45875 5.44149
-0.745314 -1.02033 5.74119
-0.796779 -1.11945 5.51081
-0.512014 -1.57409 5.4871
-0.849506 -0.90862 5.85276
-0.945659 -0.656252 5.90968
-1.02176 -1.69532 5.3824
