ply
    format ascii 1.0           
    element vertex 63
    property double x           
    property double y           
    property double z           
    end_header
-0.184439 -0.600946 2.36611
-0.0450647 -0.378054 2.3406
-0.105604 -0.638232 2.28692
-0.0481874 -0.545842 2.22005
-0.0518357 -0.497218 2.23884
-0.0757952 -0.327724 2.42444
-0.0356385 -0.318659 2.38745
-0.157978 -0.635191 2.33475
-0.0357224 -0.413821 2.30669
-0.0573279 -0.622079 2.28467
-0.109522 -0.687205 2.28088
-0.0558118 -0.463347 2.31748
-0.00631612 -0.451886 2.29596
0.0359138 -0.367691 2.3733
0.010312 -0.534908 2.21237
-0.0593223 -0.70702 2.28892
0.0545962 -0.419984 2.2967
-0.120274 -0.603382 2.31852
-0.159231 -0.686132 2.33588
0.141842 -0.537491 2.34725
-0.00081626 -0.490004 2.24223
-0.022137 -0.659438 2.29859
0.122669 -0.58912 2.32331
0.0453941 -0.674568 2.34085
0.0417391 -0.469495 2.2883
0.00911971 -0.416069 2.33264
0.0025278 -0.351322 2.42382
0.11589 -0.637897 2.36119
0.068974 -0.515503 2.29945
-0.0128643 -0.257606 2.46511
0.0733418 -0.615492 2.32923
0.103259 -0.544893 2.31553
0.0638844 -0.572289 2.29175
-0.0538298 -0.660979 2.27203
0.101698 -0.50517 2.3401
-0.0127101 -0.295931 2.43229
-0.0065404 -0.590324 2.21841
0.0278063 -0.615492 2.29246
0.0161991 -0.289492 2.5039
-0.0778167 -0.407416 2.32589
0.0458611 -0.552022 2.2507
0.0837782 -0.671813 2.3618
0.06847 -0.720196 2.38611
0.0798064 -0.457054 2.32859
0.109007 -0.673658 2.39393
0.0642143 -0.400628 2.42064
0.0613999 -0.408314 2.34912
0.0887229 -0.450727 2.37573
-0.105869 -0.684597 2.27735
0.088916 -0.445597 2.4267
0.0010633 -0.33866 2.48674
0.132128 -0.586519 2.38673
0.102684 -0.592102 2.48162
0.0493052 -0.422728 2.30055
0.0951894 -0.621605 2.40845
0.0330218 -0.494749 2.47666
0.0383563 -0.369318 2.37167
0.103684 -0.6544 2.45253
-0.00982613 -0.300555 2.43047
0.0969411 -0.58175 2.43548
0.0690609 -0.635914 2.49756
0.0749615 -0.543556 2.44006
0.00297927 -0.343742 2.46701
