ply
    format ascii 1.0           
    element vertex 52
    property double x           
    property double y           
    property double z           
    end_header
-0.170468 -0.290532 1.3131
-0.179121 -0.240122 1.19562
-0.14317 -0.0308857 1.35882
-0.142531 -0.263043 1.14072
-0.156605 -0.336834 1.13634
-0.139051 -0.127267 1.28731
-0.127648 -0.0421587 1.29363
-0.13967 -0.184021 1.2198
-0.106281 -0.112243 1.22977
-0.0988957 0.198402 1.39767
-0.20906 -0.341984 1.19129
-0.153749 -0.21829 1.3159
-0.132291 0.0650529 1.37043
-0.0204754 -0.282486 1.15201
-0.0375726 0.203012 1.3902
-0.19647 -0.387366 1.14725
-0.170394 -0.443078 1.14898
-0.130612 -0.380737 1.10211
-0.0647855 -0.0162103 1.28103
-0.106833 -0.207079 1.16434
-0.0571304 -0.425426 1.1208
-0.00423512 -0.172596 1.26725
-0.0841097 -0.339457 1.12148
0.0237925 -0.386572 1.16775
0.0284928 -0.448636 1.1383
-0.0863607 0.0675919 1.32534
-0.0245194 -0.10983 1.26379
-0.0263965 0.140512 1.36175
0.00269003 0.080234 1.367
-0.0198971 -0.0612069 1.31037
-0.0877406 0.12301 1.35181
-0.0435108 0.0337675 1.30593
-0.0542282 0.243612 1.45324
0.026866 -0.249232 1.28881
-0.00378078 0.00582568 1.34715
-0.0670226 -0.207261 1.21654
-0.0873633 -0.312701 1.17487
-0.00245649 -0.343624 1.22029
-0.0168373 -0.262685 1.22443
0.0198097 -0.120677 1.35006
0.053615 -0.303534 1.33759
-0.0500301 -0.371615 1.17259
0.0626446 -0.419036 1.23668
0.0635452 -0.351235 1.23825
-0.00605674 0.223246 1.4376
0.00165687 0.16133 1.42088
0.0141699 -0.191198 1.33225
-0.00216157 -0.0544526 1.38084
-0.0231556 -0.547448 1.24362
0.0690765 -0.384775 1.29809
0.038028 -0.481201 1.20837
-0.0985172 -0.112135 1.22288
