ply
    format ascii 1.0           
    element vertex 54
    property double x           
    property double y           
    property double z           
    end_header
-0.661351 -0.320891 3.48422
-0.700518 -0.491366 3.45176
-0.673518 -0.702275 3.26228
-0.743709 -0.982701 3.14333
-0.769263 -0.863934 3.22983
-0.725186 -0.888394 3.14969
-0.579822 -0.312873 3.46679
-0.644976 -0.480143 3.38669
-0.700004 -0.620336 3.3518
-0.709985 -0.612023 3.44381
-0.711899 -0.727823 3.34627
-0.71762 -0.792245 3.25486
-0.689835 -0.403293 3.48947
-0.805275 -0.994725 3.22789
-0.723418 -0.84536 3.3845
-0.645829 -0.41269 3.41921
-0.7934 -1.04863 3.16418
-0.759807 -1.11835 3.15778
-0.684885 -0.690406 3.4112
-0.607608 -1.0951 3.10748
-0.67614 -0.819059 3.17561
-0.710413 -1.0376 3.09541
-0.563857 -0.915482 3.15064
-0.648345 -0.9868 3.1158
-0.536205 -0.785067 3.29863
-0.502744 -1.05054 3.16581
-0.49581 -1.12926 3.12628
-0.564352 -0.389726 3.42956
-0.564543 -0.703674 3.2971
-0.557282 -0.647312 3.35978
-0.521605 -0.468859 3.42788
-0.450109 -1.01257 3.25696
-0.6186 -0.58542 3.32696
-0.588078 -0.522693 3.3562
-0.555905 -0.897503 3.24768
-0.530658 -0.567588 3.4143
-0.494865 -0.885799 3.32236
-0.650657 -0.957504 3.18977
-0.532138 -0.999476 3.23062
-0.620512 -0.823467 3.23961
-0.501632 -0.728589 3.40405
-0.600251 -1.03285 3.17971
-0.459881 -0.958904 3.38169
-0.534932 -0.291638 3.528
-0.452257 -1.10018 3.25429
-0.638936 -0.677869 3.33675
-0.521073 -0.370622 3.49991
-0.507882 -0.815551 3.37962
-0.526866 -0.646419 3.44274
-0.437534 -1.06028 3.32989
-0.551786 -1.25135 3.2548
-0.486829 -1.17124 3.22087
-0.713324 -0.795805 3.24484
-0.512847 -0.561455 3.38292
