ply
    format ascii 1.0           
    element vertex 52
    property double x           
    property double y           
    property double z           
    end_header
-0.518856 -0.194626 3.65413
-0.306397 -0.939775 2.97977
-0.516708 -1.08142 2.86695
-0.530243 -1.18951 2.87702
-0.527119 -0.490068 3.43215
-0.404802 -0.992433 2.92311
-0.515932 -0.604192 3.33417
-0.334376 -1.05834 2.90424
-0.425569 -0.716643 3.19254
-0.472766 -0.988185 3.0235
-0.537496 -1.04393 3.07021
-0.362357 -1.21919 2.89286
-0.574957 -1.26508 2.98952
-0.315334 -1.14855 2.92053
-0.592969 -1.11829 3.08778
-0.0918673 -1.1362 3.14297
-0.32867 -0.693731 3.32062
-0.356716 -0.864361 3.14951
-0.320941 -0.582122 3.44128
-0.429517 -0.583616 3.28145
-0.426142 -0.512828 3.32807
-0.426204 -0.781739 3.1401
-0.186423 -1.08569 3.03266
-0.450581 -0.654157 3.25234
-0.440266 -0.110746 3.66284
-0.466101 -1.04712 2.9337
-0.266894 -1.11943 2.98494
-0.529905 -0.9003 3.1107
-0.460846 -0.473492 3.40458
-0.406168 -0.929114 3.02211
-0.377546 -0.731804 3.26831
-0.449302 -1.16745 2.91625
-0.164874 -1.1641 2.99065
-0.388951 -0.486186 3.52774
-0.368981 -0.568227 3.35625
-0.257954 -0.911848 3.16032
-0.277302 -0.981288 3.07538
-0.116298 -1.04006 3.14785
-0.317148 -1.03611 2.99746
-0.0875156 -1.15265 3.14152
-0.32472 -0.676826 3.31595
-0.099264 -1.09225 3.06243
-0.189803 -1.24227 2.94393
-0.355739 -0.177105 3.65036
-0.3412 -0.297213 3.57253
-0.347967 -0.406099 3.54869
-0.291641 -0.823613 3.21893
-0.295249 -0.802488 3.31693
-0.222185 -1.3323 2.96417
-0.264074 -0.91441 3.25692
-0.420053 -0.375557 3.48139
-0.125692 -1.23473 3.10812
