ply
    format ascii 1.0           
    element vertex 46
    property double x           
    property double y           
    property double z           
    end_header
-2.09737 -4.20853 11.1852
-2.00072 -4.08236 10.9799
-2.22185 -4.42465 11.2218
-2.18779 -4.41271 11.1127
-2.17437 -4.52607 11.1157
-1.90322 -3.71022 11.3217
-1.9519 -3.7413 11.2053
-2.22197 -4.36809 11.3606
-2.116 -4.2868 10.9819
-2.16306 -4.32533 11.2899
-2.13139 -4.29864 11.0928
-2.00497 -3.99687 11.0504
-1.86546 -3.72357 11.1366
-2.14185 -4.38766 11.017
-2.04413 -3.93964 11.1355
-2.00523 -3.84578 11.1405
-2.02125 -4.33863 10.9362
-2.07552 -4.20614 11.0429
-2.07679 -4.03637 11.1172
-2.04297 -4.19995 10.9353
-2.21358 -4.52077 11.2159
-2.07509 -4.59612 11.1042
-2.15566 -4.35254 11.1888
-1.93045 -4.37565 10.8836
-2.03184 -4.12454 11.0899
-1.94475 -3.9056 11.0664
-1.99592 -3.82319 11.2279
-2.0981 -4.48734 11.017
-1.89443 -3.99794 11.0253
-1.85601 -4.32066 10.9383
-1.89195 -3.83493 11.1355
-2.05114 -4.12258 11.2067
-1.87774 -3.6682 11.2278
-1.94429 -4.17493 10.954
-1.84836 -4.17267 11.0157
-1.83949 -3.9281 11.0989
-2.04891 -4.19588 10.9314
-1.95442 -4.27158 11.0099
-1.80956 -3.8376 11.201
-1.82837 -4.05856 11.0991
-1.81199 -4.41797 11.0385
-1.80833 -4.25786 11.1259
-1.83491 -4.16004 11.1755
-1.86103 -4.44371 10.955
-1.92316 -4.11405 11.0744
-1.83861 -3.9911 11.1604
