ply
    format ascii 1.0           
    element vertex 49
    property double x           
    property double y           
    property double z           
    end_header
-0.493272 -0.225506 2.90913
-0.608616 -0.702009 2.8041
-0.572927 -0.496017 2.83344
-0.630797 -0.930227 2.65381
-0.441308 -0.132223 2.99018
-0.609693 -0.856445 2.74216
-0.563644 -0.736398 2.70028
-0.590028 -0.6156 2.73285
-0.441167 -0.295715 3.06098
-0.26678 -1.23544 2.43464
-0.584747 -1.1046 2.71438
-0.513802 -0.203211 3.02803
-0.577935 -0.798307 2.84892
-0.565533 -0.831724 2.63161
-0.541979 -1.19226 2.62484
-0.520654 -0.971213 2.53964
-0.499324 -0.661366 2.6515
-0.380348 -0.336295 2.97311
-0.334538 -1.1449 2.47178
-0.556495 -0.599159 2.94281
-0.573077 -1.07125 2.60071
-0.39737 -1.08041 2.54367
-0.438362 -0.898385 2.56555
-0.3925 -0.716266 2.62526
-0.205274 -1.14463 2.46326
-0.536021 -0.984072 2.64996
-0.267695 -1.07537 2.52271
-0.244895 -0.851936 2.67498
-0.490163 -0.572824 2.75698
-0.323667 -0.598225 2.76269
-0.442181 -1.19866 2.62264
-0.422655 -0.45849 2.79158
-0.444105 -0.819308 2.64902
-0.331284 -0.946584 2.56724
-0.408629 -0.65208 2.72852
-0.289269 -0.696654 2.78732
-0.172377 -1.24163 2.50517
-0.295168 -0.749842 2.68068
-0.379214 -0.229085 3.00493
-0.110894 -1.1502 2.53424
-0.356605 -0.898166 2.65201
-0.371319 -0.338359 2.98175
-0.186549 -1.07246 2.5955
-0.294914 -1.04415 2.61421
-0.25202 -0.956748 2.66477
-0.526212 -0.435237 2.77241
-0.386137 -0.439675 2.89594
-0.437926 -0.13351 2.98729
-0.215277 -0.987418 2.77047
