ply
    format ascii 1.0           
    element vertex 57
    property double x           
    property double y           
    property double z           
    end_header
-0.355082 -0.323788 1.30952
-0.381737 -0.455475 1.293
-0.307408 -0.121898 1.41859
-0.309838 -0.312865 1.29275
-0.345531 -0.245833 1.34482
-0.342476 -0.208484 1.36946
-0.175477 -0.506421 1.28724
-0.360626 -0.413482 1.30629
-0.313514 -0.170176 1.38524
-0.326565 -0.131052 1.46811
-0.331982 -0.433229 1.26971
-0.336566 -0.290698 1.33207
-0.28091 -0.133339 1.37809
-0.252652 -0.260093 1.30781
-0.353736 -0.365681 1.3311
-0.320222 -0.364163 1.29632
-0.287799 -0.380582 1.26192
-0.273298 -0.0857307 1.43648
-0.300851 -0.244122 1.32162
-0.305788 -0.0935783 1.4828
-0.24548 -0.352957 1.26602
-0.259331 -0.177014 1.36379
-0.301548 -0.204289 1.34884
-0.105447 -0.48244 1.34956
-0.278407 -0.430073 1.27272
-0.256722 -0.223122 1.33477
-0.304678 -0.477526 1.28926
-0.250592 -0.478532 1.29782
-0.173766 -0.488022 1.33284
-0.215539 -0.302476 1.33195
-0.317865 -0.533378 1.28648
-0.17602 -0.437616 1.33596
-0.26693 -0.308185 1.31488
-0.243708 -0.396154 1.28167
-0.133541 -0.522323 1.32388
-0.188723 -0.349619 1.34697
-0.35537 -0.500175 1.29584
-0.220117 -0.467631 1.33353
-0.142223 -0.456839 1.37447
-0.205492 -0.394054 1.32305
-0.231247 -0.185516 1.40261
-0.222302 -0.260668 1.35424
-0.229095 -0.350122 1.31006
-0.248428 -0.136106 1.40901
-0.283176 -0.133234 1.37884
-0.19137 -0.404725 1.37308
-0.265251 -0.100027 1.49345
-0.238858 -0.121742 1.45304
-0.0931697 -0.516306 1.38285
-0.243815 -0.427182 1.31887
-0.220811 -0.263334 1.40644
-0.244761 -0.156663 1.48689
-0.140492 -0.556807 1.36125
-0.231547 -0.212296 1.46776
-0.189894 -0.58522 1.34066
-0.236646 -0.171036 1.44426
-0.218805 -0.224606 1.42567
