ply
    format ascii 1.0           
    element vertex 45
    property double x           
    property double y           
    property double z           
    end_header
0.20697 -0.374473 3.75854
0.348635 0.0594662 3.91564
0.192903 -0.984769 3.48024
0.244988 -0.256521 3.88672
0.222958 -0.700754 3.61502
0.105883 -0.875955 3.58521
0.350212 -0.926422 3.42938
0.27649 -0.126046 3.97662
0.200263 -0.592449 3.72696
0.422759 -0.457079 3.63044
0.089026 -1.0256 3.60705
0.251088 -0.845517 3.5219
0.32158 -0.491586 3.73871
0.340865 -0.293154 3.7485
0.391729 -0.107369 3.86518
0.392354 0.219347 3.95173
0.266396 0.222716 4.14964
0.352998 -0.728213 3.53171
0.459882 -0.834166 3.48756
0.134262 -0.787919 3.71463
0.494036 0.0880281 3.93421
0.540778 -0.132764 3.88418
0.372455 -0.64726 3.65923
0.530966 0.221922 4.00941
0.584942 -0.0317732 3.99593
0.450959 -0.244938 3.83842
0.58949 -0.857493 3.65467
0.495388 -0.535811 3.73103
0.188693 -1.11606 3.55574
0.470161 -0.9518 3.59025
0.598001 0.0996678 4.07788
0.481226 -0.383488 3.74961
0.581534 -0.803833 3.82577
0.481124 -0.753027 3.61969
0.604201 -0.94299 3.77267
0.522304 -0.353194 4.03504
0.476271 -0.706727 3.76359
0.507228 0.241179 4.12763
0.527296 -0.424278 3.89551
0.498661 0.236788 4.01524
0.479816 -0.584324 3.84621
0.433413 -0.658229 3.9657
0.449055 -0.476564 4.01931
0.443527 -0.997464 3.77116
0.485924 -0.202806 4.04143
