ply
    format ascii 1.0           
    element vertex 54
    property double x           
    property double y           
    property double z           
    end_header
-3.37503 3.23393 24.9758
-5.26302 -3.81002 22.5212
-3.97263 1.64685 23.5765
-5.03193 -4.08007 21.0564
-3.83066 -1.46289 23.925
-4.82374 -2.61314 22.395
-3.92152 0.629466 24.5477
-5.45069 -3.30757 21.6968
-4.11678 -0.483689 24.4173
-2.45123 4.52884 25.5017
-3.83207 -1.4045 22.8292
-3.28217 -1.61475 19.7476
-4.077 -0.165742 22.3401
-2.62663 3.88987 24.5207
-3.22528 2.37815 25.6762
-3.70794 -1.28452 20.7758
-3.65092 -1.12606 21.8483
-3.75646 -2.41548 20.6341
-3.28458 0.646282 22.2384
-4.82725 -2.72021 21.1215
-3.33645 0.569905 23.4522
-4.7076 -4.60756 22.1404
-2.99754 1.66186 22.8716
-3.06577 -2.70098 19.9439
-3.25167 -0.218076 21.4706
-4.12491 -2.00904 21.4926
-4.01473 -3.47114 20.7477
-2.7562 -3.67219 20.377
-2.26798 -2.17902 19.5213
-1.74151 -0.609901 21.0348
-2.17673 -1.22022 19.6736
-3.77649 -4.46986 21.2912
-1.59736 -3.79654 20.3349
-0.83902 -2.94412 20.2713
-2.45091 2.9044 23.9242
-1.57293 3.58216 24.186
-1.59057 4.50003 24.7829
-2.00639 2.24545 23.1269
-2.08737 1.02962 22.4497
-2.2877 0.204593 21.808
-3.2186 2.34464 23.7395
-2.8135 -0.910508 20.3614
-0.721106 -0.82094 21.7042
-1.47538 -1.78031 20.3251
-1.13398 2.95095 24.9096
-0.620733 -2.29608 21.2472
-1.25504 1.19692 23.3601
-0.123584 -3.44929 21.0758
-0.998815 -4.53092 20.9897
-4.65742 -4.65276 22.245
-1.16949 0.0448522 22.1524
-1.6032 2.31401 24.1438
-2.10138 -2.73141 20.3491
-0.870427 0.21946 23.5023
