ply
    format ascii 1.0           
    element vertex 56
    property double x           
    property double y           
    property double z           
    end_header
-1.07165 -1.2289 4.2242
-1.19554 -1.38813 4.5224
-1.17001 -1.4584 4.23743
-1.15181 -0.708184 5.02853
-1.16944 -1.60111 4.70467
-1.02373 -0.769145 4.95851
-1.07845 -0.907388 4.90294
-0.984546 -1.31872 4.1183
-1.20223 -1.72315 4.63568
-1.14273 -1.24616 4.5192
-1.15844 -1.09512 4.70927
-1.17707 -1.61045 4.38429
-1.1472 -1.33466 4.3189
-1.05249 -1.48067 4.11887
-1.18001 -1.57618 4.54662
-0.968952 -1.70643 4.22303
-1.12727 -0.608073 5.12432
-1.19282 -1.68831 4.76393
-1.08474 -1.59347 4.24526
-1.14416 -0.856498 5.07063
-1.14279 -1.70626 4.50152
-1.01478 -1.05078 4.68097
-1.15304 -0.745395 5.14781
-1.14589 -1.46823 4.39523
-0.956952 -0.919637 4.83533
-1.01404 -0.633942 5.0333
-1.13194 -0.640124 5.22951
-1.068 -1.71087 4.3478
-0.935119 -1.57362 4.17097
-1.20018 -1.09854 4.87454
-1.09639 -1.35184 4.17859
-0.823664 -1.13641 4.59543
-0.578374 -1.65882 4.32843
-0.550586 -1.52197 4.36236
-0.782072 -1.21295 4.47552
-0.919972 -1.18342 4.49729
-1.0271 -1.20598 4.58821
-0.629375 -1.34443 4.50357
-0.894082 -1.43571 4.14266
-0.700932 -1.53435 4.33613
-0.774412 -1.37884 4.39296
-0.920208 -1.0457 4.78664
-0.840696 -1.65164 4.29498
-0.876972 -1.31638 4.236
-0.98231 -1.26761 4.32939
-0.840471 -1.49656 4.27369
-0.797931 -1.12951 4.79469
-0.575844 -1.44693 4.61599
-0.692735 -1.81204 4.46066
-0.996332 -0.586269 5.15909
-0.878701 -0.987469 4.9369
-0.742563 -1.25313 4.61828
-0.576553 -1.68628 4.36383
-1.04392 -0.780868 5.2562
-0.527589 -1.59244 4.48205
-0.987306 -0.657755 5.27042
