ply
    format ascii 1.0           
    element vertex 60
    property double x           
    property double y           
    property double z           
    end_header
-0.271888 -2.85765 8.15569
-0.660166 -2.56424 8.57533
-0.664361 -1.11785 9.68873
-0.872336 -1.38712 9.6891
0.271934 -2.84472 8.33267
-0.599462 -1.62321 9.51641
-0.481457 -1.40455 9.75574
-0.760689 -2.29659 8.77225
0.101026 -2.54212 8.40217
-0.659203 -3.06022 8.28773
-1.11949 -2.88022 8.72346
0.0225336 -3.07307 8.14888
-1.18766 -3.12326 8.56433
-0.240003 -2.61413 8.37831
-0.592085 -1.97641 9.02549
-0.866902 -2.8899 8.49524
-0.325449 -3.19114 8.22919
-0.442116 -2.35195 8.70585
-0.898369 -3.21729 8.46393
-0.270203 -3.52269 8.30849
-0.846602 -2.12286 9.11534
-0.341645 -2.05736 9.23131
-0.887978 -1.14116 9.84919
-0.682866 -0.92193 9.92538
-0.490057 -2.83006 8.4276
-0.880239 -0.934021 10.0613
-0.373825 -1.81405 9.5841
-1.33626 -3.00083 8.7662
-0.893792 -1.8611 9.19887
0.00963822 -2.76366 8.23607
-0.875018 -2.5892 8.76161
-0.579927 -3.3723 8.33981
-0.446036 -1.12727 9.94859
-0.0718443 -2.46285 9.34011
-0.0143367 -3.33822 8.35535
-0.547784 -1.00116 10.1605
-0.113752 -2.49045 9.06264
0.200175 -3.5477 9.23609
-0.60698 -1.91782 9.31538
-0.384487 -2.37948 9.00956
0.0696169 -2.6952 9.20414
0.0426782 -3.42831 8.96798
0.0523814 -3.08645 9.41452
0.216968 -3.13783 8.44631
0.245793 -2.89619 8.66151
-0.376152 -1.79063 9.61311
-0.383785 -2.10127 9.52388
-0.159108 -3.51523 8.63301
0.0466778 -3.05206 9.00893
0.0268865 -2.64354 8.66191
0.00974591 -3.82302 9.11269
-0.472997 -1.96009 9.81855
-0.338003 -2.37928 9.67191
0.039165 -3.24405 8.67983
-0.141327 -3.27333 9.59858
-0.423296 -3.88936 9.02218
-0.54307 -1.0102 10.1728
-0.061569 -3.30767 9.25088
-0.115379 -2.74142 9.43536
-0.571351 -3.65127 8.86237
