ply
    format ascii 1.0           
    element vertex 50
    property double x           
    property double y           
    property double z           
    end_header
-0.154292 -1.12872 3.41692
-0.390227 -0.734618 3.78685
-0.427905 -0.820703 3.73653
-0.33637 -1.13788 3.4668
-0.249643 -1.2035 3.43756
-0.57809 -1.27433 3.51231
-0.43491 -1.16989 3.50783
-0.330078 -0.514525 4.00943
-0.395019 -1.03598 3.5732
-0.357983 -0.864507 3.67219
-0.241035 -1.08185 3.44737
-0.491842 -1.08452 3.5578
-0.343556 -0.657164 3.85483
-0.427536 -1.27791 3.47699
-0.511468 -1.21924 3.46625
-0.514896 -0.937961 3.7452
-0.440038 -0.92801 3.65716
-0.53369 -1.078 3.70533
-0.287405 -0.984677 3.55115
-0.268681 -0.608534 3.91594
-0.554981 -1.1895 3.56911
-0.255175 -0.851404 3.71668
-0.357123 -0.949259 3.6179
-0.15115 -1.04125 3.49327
-0.284775 -0.748035 3.80565
-0.245536 -0.546732 4.0534
-0.0746759 -1.12296 3.48996
-0.202634 -1.30757 3.50503
-0.534143 -1.35512 3.53815
-0.141548 -1.2218 3.46488
-0.331161 -1.23594 3.49111
-0.375468 -0.599191 3.96782
-0.241766 -0.952044 3.64149
-0.240269 -0.699423 3.90436
-0.22127 -0.660303 3.9996
-0.0997941 -1.0547 3.58061
-0.214966 -0.851839 3.80929
-0.221353 -0.753391 3.9764
-0.227974 -0.789526 3.8853
-0.0995014 -1.04373 3.57948
-0.178604 -1.27841 3.59593
-0.0785152 -1.14273 3.5834
-0.149094 -1.20117 3.5725
-0.240905 -1.02021 3.78188
-0.238908 -0.952021 3.8507
-0.244871 -1.24154 3.7874
-0.224844 -1.13004 3.77408
-0.243399 -0.540785 4.05439
-0.262464 -1.07897 3.85812
-0.344261 -0.864201 3.66218
