ply
    format ascii 1.0           
    element vertex 47
    property double x           
    property double y           
    property double z           
    end_header
-1.00725 -2.50918 5.98282
-0.723112 -1.14257 6.23596
-0.887388 -1.74648 6.17943
-0.623337 -0.944559 6.32724
-0.951525 -2.33547 5.81552
-0.825794 -2.06694 5.73154
-0.948095 -1.94928 6.1209
-0.672139 -1.83969 5.94525
-0.843836 -2.55114 5.82443
-0.850075 -1.54628 6.18889
-0.751224 -1.46536 6.00094
-0.826523 -1.98282 5.93109
-0.430365 -1.57776 5.94554
-0.906667 -2.299 6.02475
-0.725591 -1.36649 6.18746
-0.767094 -1.66498 6.00569
-0.675899 -0.963442 6.55857
-0.878019 -2.09669 6.26678
-0.633128 -2.1697 5.65837
-0.554744 -2.38979 5.66614
-0.858158 -1.44573 6.36191
-0.562559 -1.22496 6.12686
-0.768924 -2.38522 5.71727
-0.808527 -2.1472 6.07135
-0.638489 -1.96111 5.75471
-0.302462 -2.55837 5.72957
-0.220644 -2.13609 5.71394
-0.723167 -2.30978 6.32288
-0.776974 -2.22982 5.85077
-0.348418 -2.29552 5.62701
-0.481827 -1.7772 5.89935
-0.82413 -1.6699 6.41138
-0.53095 -0.75171 6.53467
-0.378496 -1.94661 5.81995
-0.547089 -1.4176 6.04722
-0.734856 -0.767719 6.5715
-0.164829 -2.39252 5.69297
-0.449618 -2.15171 5.76598
-0.313498 -1.75627 6.04103
-0.415123 -1.34735 6.28727
-0.485982 -1.02277 6.49686
-0.508386 -1.15438 6.30677
-0.400546 -1.23056 6.48368
-0.145816 -2.27683 5.87095
-0.292999 -1.96479 6.08506
-0.294842 -1.65307 6.1814
-0.416037 -1.55046 6.35574
