ply
    format ascii 1.0           
    element vertex 45
    property double x           
    property double y           
    property double z           
    end_header
0.455244 -6.35093 16.5285
0.813714 2.34867 19.4318
0.541327 -2.82319 15.9235
0.078315 -0.443564 19.4018
0.302175 -1.12247 17.9625
2.17408 -3.14595 15.3191
1.17829 -3.96314 15.1258
0.474629 -1.95534 17.001
1.45892 -1.11493 17.3056
0.672358 1.00949 19.3917
2.03024 1.99221 19.1144
0.00846597 1.87644 20.3631
-0.0130492 3.82382 21.9154
1.76701 0.862636 18.661
1.75711 -2.21106 16.2393
1.12769 -0.124984 18.497
1.26635 3.85912 21.6835
-0.24383 0.59369 20.564
-0.223003 -1.98115 18.5488
0.928675 2.97845 20.535
2.26154 -0.0496975 17.8672
1.18127 -5.18979 16.0239
2.19103 3.10086 20.9233
2.50811 -6.02023 16.1626
2.35048 -4.52444 15.7814
3.64954 -2.33415 17.6818
2.64706 -1.84722 17.1569
3.79225 -3.56696 17.6199
3.76318 -5.44805 16.5083
3.28135 -4.25251 16.6581
3.25666 0.116135 18.8896
4.40909 -4.84839 17.4975
3.08333 1.80971 20.3035
3.72126 -0.905972 19.8536
3.12771 -0.97588 18.002
3.53938 0.333936 20.2938
2.46577 -3.35731 16.5717
3.59723 -2.21307 19.7258
4.09311 -5.72987 18.1959
3.79505 -3.5123 17.6238
2.85154 1.80986 21.5584
3.70027 -6.50173 17.3978
3.54735 -3.28917 18.8836
2.25623 2.7827 22.2298
3.59462 -4.63181 18.8326
