ply
    format ascii 1.0           
    element vertex 54
    property double x           
    property double y           
    property double z           
    end_header
-0.442438 -1.29724 5.50367
-0.629934 -0.515272 6.22102
-0.453704 -0.977014 5.70231
-0.640157 -0.747865 5.86904
-0.659976 -1.69461 5.5327
-0.952329 -1.29592 5.76164
-0.681362 -0.934938 5.84869
-0.552414 -1.46974 5.49919
-0.454211 -1.61049 5.46308
-0.722116 -1.50769 5.53937
-0.914195 -2.11538 5.72673
-0.615546 -1.07925 5.73369
-1.00882 -1.80797 5.76321
-0.47799 -0.828996 5.81268
-0.720032 -1.28872 5.56257
-1.11682 -1.88071 5.85667
-0.443912 -1.77756 5.48919
-0.917345 -1.93488 5.69777
-0.357937 -1.47579 5.50599
-0.25386 -1.2956 5.58769
-0.567374 -1.22259 5.62596
-0.761547 -1.86839 5.63362
-0.854093 -1.76954 5.74779
-0.886262 -1.15521 5.83285
-0.601134 -0.633341 6.00433
-0.593545 -1.86511 5.60022
-0.284019 -1.80079 5.57242
-0.400938 -1.92022 5.62303
-0.260816 -1.62665 5.54565
-0.395111 -1.18202 5.66361
-0.44643 -0.732645 5.94768
-0.195885 -2.00171 5.7527
-0.35778 -1.06973 5.8366
-0.491438 -0.609305 6.15345
-0.069888 -1.64253 6.07456
-0.25237 -1.47269 5.66747
-0.137735 -1.80518 5.84809
-0.378099 -0.923144 5.94432
-0.195624 -1.64562 5.85265
-0.20689 -1.94244 5.91097
-0.218425 -1.73749 5.71595
-0.111116 -1.82282 6.01432
-0.413133 -1.44288 6.08151
-0.331775 -1.25065 5.91845
-0.221897 -1.61555 6.01507
-0.305297 -1.88863 5.74811
-0.485956 -0.777527 6.11077
-0.440043 -1.42183 6.24388
-0.342204 -1.43664 5.90285
-0.479243 -0.610758 6.13363
-0.345641 -1.35643 5.74637
-0.260361 -1.9088 6.03423
-0.440173 -1.28325 6.03199
-0.444433 -1.54019 6.33449
