ply
    format ascii 1.0           
    element vertex 60
    property double x           
    property double y           
    property double z           
    end_header
-2.51768 -2.31986 15.7552
-3.24865 -5.24695 14.9552
-3.62136 -4.65774 13.9392
-3.38837 -5.10089 13.7273
-3.67884 -5.69733 14.0448
-3.09799 -4.05333 14.6881
-3.65604 -4.99883 14.0314
-2.79996 -3.76032 14.5238
-3.01343 -5.88861 13.5254
-2.64364 -3.10697 15.5795
-3.18721 -5.4726 13.5412
-3.21472 -4.30158 14.4174
-3.5241 -5.68624 14.5305
-3.72215 -5.89078 14.3988
-3.3469 -4.63093 14.7157
-2.59811 -3.19033 15.1781
-2.60814 -2.73513 15.1515
-3.28823 -4.65318 13.6889
-2.91845 -3.80567 14.9522
-2.44807 -3.87169 14.2442
-2.4481 -2.82519 15.8703
-2.83919 -4.08174 14.3046
-3.28701 -4.47018 14.0259
-2.92735 -6.19415 13.8044
-1.80479 -2.85063 15.1321
-2.96785 -5.01604 13.5957
-1.87829 -3.59246 14.5958
-2.48847 -4.33864 14.0733
-3.46954 -5.33666 14.0809
-2.3085 -2.18362 15.4025
-3.02155 -4.10524 15.2564
-2.29974 -4.65363 13.8441
-2.72624 -3.39636 14.6934
-3.26417 -5.6697 14.028
-2.23416 -2.92966 15.1013
-2.34353 -3.60806 14.5758
-2.32788 -3.19547 14.7896
-2.7776 -5.40542 13.5808
-1.97891 -2.60344 15.4623
-2.91332 -4.42177 14.15
-2.35561 -5.68691 13.7017
-1.93618 -5.38976 14.0015
-2.11784 -4.21613 14.3851
-2.88989 -4.6482 13.8191
-1.93503 -5.78023 13.8148
-2.56762 -4.96466 13.7577
-1.98428 -4.47214 14.0709
-1.58519 -5.65363 14.1409
-1.86245 -4.89502 14.1417
-2.24203 -5.04619 14.0017
-1.89173 -3.33187 14.9088
-2.29674 -2.18442 15.3995
-2.07297 -3.93867 14.6678
-1.77618 -4.56584 14.4092
-1.65359 -6.01791 14.2714
-2.42183 -2.69079 15.4235
-1.64196 -5.25866 14.3342
-1.69457 -3.46649 15.2284
-2.07734 -2.23445 15.6213
-2.91537 -6.18337 13.7937
