ply
    format ascii 1.0           
    element vertex 65
    property double x           
    property double y           
    property double z           
    end_header
-2.3687 -3.74495 10.057
-2.03221 -2.23328 10.9563
-2.31015 -3.93982 10.1693
-2.17335 -3.21719 10.3293
-2.28312 -3.57124 10.5217
-2.35632 -4.17818 10.2618
-2.29273 -4.40411 10.2129
-2.1605 -3.21495 10.6328
-2.18744 -3.91413 9.91335
-2.29982 -4.41128 10.4553
-1.92879 -4.34254 9.92972
-1.93467 -2.23329 10.6663
-2.13774 -3.05295 10.4764
-1.85554 -2.06946 10.8636
-2.03751 -2.85233 10.407
-2.15202 -3.46633 10.2706
-1.87803 -2.53543 10.4421
-2.1552 -3.54432 10.0284
-2.26369 -4.13821 10.0622
-1.84411 -2.9707 10.2983
-2.0742 -4.52898 10.1196
-2.16633 -4.32934 10.0194
-1.97017 -3.37528 10.0684
-1.48119 -4.15431 9.91045
-1.85514 -3.91902 9.88969
-1.64522 -3.58885 9.97005
-2.04194 -4.08816 9.97091
-1.63494 -3.0688 10.1562
-1.72874 -2.3805 10.6127
-2.01115 -3.7305 9.86176
-1.4793 -4.37152 9.98243
-1.41318 -3.9445 9.99096
-1.49965 -2.8977 10.3201
-2.24404 -3.69128 9.87725
-1.78667 -4.14475 9.96084
-2.12402 -2.75059 10.5708
-1.75904 -3.298 10.0678
-1.98036 -3.13423 10.157
-1.65542 -2.16558 10.708
-1.54496 -3.38396 10.0249
-2.10774 -2.53924 10.6426
-1.53902 -4.13581 9.8888
-1.21291 -4.03571 10.0349
-1.69119 -2.74288 10.3599
-1.54054 -3.81686 10.1353
-1.27815 -4.2399 9.96048
-1.87669 -3.606 9.9998
-1.93115 -2.68498 10.3204
-1.42531 -3.57839 10.0967
-1.57363 -2.61111 10.5376
-1.74146 -3.78784 10.0049
-1.30294 -3.89247 10.2666
-1.50827 -2.41742 10.7437
-1.40006 -3.12118 10.3044
-1.43115 -2.75085 10.6856
-2.11968 -3.01275 10.3818
-1.58405 -3.29048 10.2562
-2.22961 -4.35165 10.0709
-1.97557 -2.23676 10.7448
-1.17 -4.27714 10.1429
-1.56655 -2.11742 10.8851
-1.49242 -2.02586 11.1312
-1.40102 -3.42817 10.2807
-1.42828 -2.27161 11.0138
-1.43404 -2.51845 10.8747
