ply
    format ascii 1.0           
    element vertex 60
    property double x           
    property double y           
    property double z           
    end_header
-2.66417 -2.79663 10.5466
-2.56861 -2.98044 10.2997
-2.60329 -1.47765 10.7822
-2.57424 -3.11771 9.95277
-2.48011 -1.35984 10.4965
-2.86634 -2.53479 10.3473
-2.39842 -1.64002 10.4021
-2.64928 -2.45266 9.95295
-2.25173 -1.37654 10.3485
-2.46701 -1.81309 10.1746
-2.39483 -1.10304 10.4422
-2.79604 -2.69654 10.0781
-2.15492 -1.77975 9.83579
-2.60316 -2.88958 9.94069
-2.09127 -2.47866 9.71447
-2.49609 -0.509909 10.8437
-2.67461 -0.98497 10.824
-2.60342 -1.90471 10.4642
-1.87894 -1.83157 9.73188
-2.27024 -2.01678 9.91742
-2.87807 -2.2638 10.1941
-1.28576 -2.67954 9.68375
-1.76539 -2.09016 9.67721
-2.40092 -2.7241 9.78807
-2.10066 -1.10447 10.3444
-2.51094 -1.76291 10.6954
-2.36815 -2.43764 9.85712
-2.11722 -2.76897 9.72513
-2.45137 -0.720309 10.6484
-2.38134 -3.01407 9.80517
-1.73785 -2.40308 9.71155
-2.10216 -1.63786 10.2577
-1.5331 -2.97671 9.75547
-2.10919 -3.03653 9.75394
-2.33937 -2.24676 10.0952
-2.13621 -2.26285 9.87355
-2.08232 -0.506471 10.8593
-1.57879 -2.64136 9.76875
-1.96543 -1.35644 10.2398
-2.61374 -2.17505 10.256
-2.15831 -0.711276 10.6568
-1.8663 -2.63787 9.8129
-1.37176 -2.41704 9.68589
-1.22304 -2.01433 10.1776
-0.932849 -2.42887 9.9928
-1.18725 -2.25023 9.91495
-1.74505 -1.60359 10.2642
-1.7806 -2.85887 9.92045
-1.89413 -0.971768 10.6159
-1.50558 -1.79001 10.3734
-1.87753 -3.06512 9.86594
-2.52773 -0.262311 11.2606
-0.974862 -2.15224 10.0927
-1.1648 -2.52254 9.90203
-1.58482 -1.5924 10.5153
-1.71486 -1.82712 10.0505
-1.08187 -2.75658 10.0038
-1.79739 -1.35631 10.7525
-2.0134 -0.830776 10.8612
-2.15034 -3.06359 9.86828
