ply
    format ascii 1.0           
    element vertex 38
    property double x           
    property double y           
    property double z           
    end_header
-0.757147 -1.67052 13.1117
-0.779594 0.322598 14.6788
-0.688154 1.45147 15.0662
-1.04403 -1.84383 13.6084
-0.760531 -0.535385 13.9318
-0.549027 0.0502132 13.5846
-0.626457 -0.219001 14.5685
-0.847101 1.23372 14.5259
-0.329918 -2.01835 13.0719
-0.648362 0.114865 14.1626
-0.136851 2.216 14.5907
-0.452265 -0.466074 13.4155
-0.121125 -2.3835 14.2195
-0.812796 -1.31624 13.5216
-0.659801 0.747649 14.2833
-0.531159 -1.19825 13.0709
-0.679922 0.78756 14.9196
-0.321354 0.522865 13.9019
-0.624023 1.92836 14.8047
0.0990179 -0.337526 13.3716
-0.135735 -1.48207 13.0763
-0.186859 1.04361 14.1867
-0.33112 1.45298 14.5292
0.0334195 -1.95643 12.7322
0.0487523 0.167978 13.5777
0.690105 -2.51232 13.1148
0.406831 -1.61893 12.807
-0.0377265 -1.0243 13.1149
-0.845565 2.44514 15.0359
0.211183 0.649361 14.1405
0.801472 -1.98085 12.9269
0.460294 -1.1829 13.2811
0.790262 -1.45526 12.9809
0.43783 0.307464 14.4256
0.0941013 1.39792 14.9186
0.254366 -0.784484 13.4253
0.0960863 2.17024 15.2189
0.406032 -0.213948 13.6378
