ply
    format ascii 1.0           
    element vertex 48
    property double x           
    property double y           
    property double z           
    end_header
-1.83262 -2.09071 10.9688
-1.8492 -2.72587 10.8187
-1.7825 -1.65554 11.055
-1.55498 -2.1445 10.8158
-1.80873 -1.93169 11.3299
-1.96514 -3.17388 10.3829
-1.63179 -4.10329 9.83641
-1.54459 -3.23297 9.98447
-2.20308 -3.91673 10.5013
-1.65055 -2.50413 10.6827
-1.79109 -3.32167 10.1819
-1.30317 -3.34097 9.80157
-1.92308 -3.29522 10.9165
-2.25746 -3.66018 10.4582
-1.82201 -3.94489 10.0784
-2.00121 -3.51885 10.3612
-1.56422 -3.80115 9.84559
-2.095 -3.80193 10.2104
-1.78129 -3.64807 10.173
-1.68291 -2.89484 10.5974
-1.8694 -4.17132 10.5587
-1.41312 -2.98211 10.4305
-1.94496 -2.36315 11.0681
-1.58277 -3.51753 9.87066
-1.42992 -2.71605 10.6058
-1.23647 -3.9079 9.8437
-1.92037 -2.91434 10.9749
-1.66269 -3.169 10.4303
-1.25489 -3.60978 9.94218
-1.41099 -2.05594 11.0857
-1.00936 -3.79026 10.1031
-1.55887 -1.82006 11.1562
-1.46353 -2.47172 10.8724
-1.01374 -4.06948 10.0195
-1.31597 -4.21548 9.83808
-1.03703 -3.44519 10.1048
-1.22054 -3.22687 10.4739
-0.781002 -4.22541 10.5417
-0.703334 -3.99226 10.6753
-1.09566 -3.14256 10.7383
-1.29566 -2.83544 10.8628
-0.924944 -3.63073 10.3536
-1.06267 -3.43004 10.6835
-1.28975 -3.25701 10.1648
-0.928099 -3.98374 10.465
-1.66068 -2.52607 10.6371
-1.01458 -4.19062 10.3075
-1.52798 -2.3708 11.2061
