ply
    format ascii 1.0           
    element vertex 63
    property double x           
    property double y           
    property double z           
    end_header
1.39304 -9.50593 25.5448
-0.912231 -7.12754 26.4535
-1.03903 -9.10297 25.6395
-2.79866 -12.7938 26.2511
-1.45731 -10.257 25.7939
-1.65256 -13.3778 26.1843
-0.428735 -8.33303 25.6963
-2.97177 -11.9073 26.5654
0.115589 -11.5716 26.4071
0.333921 -10.1782 25.8673
-3.49842 -12.5314 27.1677
-2.39842 -9.16703 26.5581
1.207 -11.9606 26.2657
0.0613263 -9.2151 25.7525
-3.5964 -11.5343 27.427
-0.507257 -4.96619 27.7028
-0.807041 -4.02105 28.7851
-2.0277 -11.7625 26.7597
-1.27497 -11.8344 26.0513
-2.84543 -9.84575 26.8622
-1.09425 -8.09416 26.3771
-0.760065 -5.93383 27.4004
-1.75492 -7.62742 27.127
1.21739 -10.7131 25.529
-1.81362 -8.63564 27.0606
-1.60582 -9.38485 26.2475
-0.296726 -3.31894 29.0865
0.0166294 -6.32012 27.1758
0.719742 -4.15657 29.018
-0.132787 -7.64819 26.2598
-2.21459 -10.584 27.3554
0.434345 -4.71661 27.9786
0.290029 -5.62769 27.6625
0.320842 -6.96504 26.7583
2.35715 -10.4606 26.1439
0.0720395 -2.89603 30.273
2.26778 -12.3782 26.9727
0.805192 -7.79769 26.7406
0.840489 -9.33115 26.324
1.00395 -5.41852 28.3254
1.32111 -7.21809 28.289
0.225769 -8.5328 26.4599
0.842865 -6.36108 28.2848
1.32976 -12.8474 26.9023
1.19262 -7.90914 27.6795
1.85472 -9.57131 26.4568
1.09394 -8.67147 27.0823
2.4007 -11.8547 28.4421
0.61271 -6.99319 27.5958
2.06222 -11.4277 27.0679
2.36487 -10.986 27.8772
-1.38691 -10.2043 25.9041
1.30158 -10.1915 28.3025
1.17429 -13.5527 27.7491
1.23575 -9.37936 28.6253
0.805094 -4.06223 28.9239
1.05232 -8.96364 28.0056
0.892672 -5.54522 29.2543
2.08171 -12.7439 27.819
0.87187 -8.24352 28.6449
0.190285 -4.63933 29.9276
0.464613 -6.46098 29.2411
0.234664 -3.68415 29.7949
