ply
    format ascii 1.0           
    element vertex 44
    property double x           
    property double y           
    property double z           
    end_header
-1.39659 -1.05159 6.242
-1.09356 -1.11701 5.92769
0.121846 -0.687195 5.63438
-0.581981 1.10461 6.8327
-0.0275872 -1.1218 5.69754
-0.564211 -1.0008 5.74533
-0.847352 0.102257 7.00628
-0.420353 -0.418318 5.91028
-0.779303 -1.36738 5.81493
-0.15237 -0.112071 6.02397
-0.490477 0.302854 6.4137
-0.68556 -0.279756 6.29064
-0.932994 -0.80473 6.17043
-0.161056 1.20031 6.82076
-0.687383 0.831636 7.16266
-0.907547 -0.51865 6.56138
-1.05825 -1.52938 6.0905
-0.0993306 0.545325 6.48137
-0.296837 1.51269 7.09416
-0.283847 0.810444 6.7717
-0.648254 -0.0962569 6.61288
0.455092 -1.31369 5.99569
-0.53874 -0.684199 6.22974
0.488169 -0.928497 5.75651
-0.0888916 0.102054 6.37172
-0.879696 -0.336761 6.88495
0.422938 -0.522267 5.93826
0.0191919 -0.473163 5.99681
0.0944322 -1.50862 6.33346
-0.253876 -0.833091 5.91819
-0.493816 1.67701 7.41583
-0.23882 -1.37554 6.10396
0.164208 0.228384 6.69975
0.164928 -0.203097 6.27
0.0631036 1.3147 7.17225
0.384986 0.0467636 7.06057
0.324095 0.54042 7.28767
0.0831324 0.627518 6.87203
0.111796 0.894168 7.17503
-0.79687 -1.69214 6.49345
0.570635 -0.778873 6.25983
0.694312 -1.16029 7.23935
0.390344 -0.431877 6.58514
0.472309 -0.78686 7.14167
