ply
    format ascii 1.0           
    element vertex 41
    property double x           
    property double y           
    property double z           
    end_header
0.118209 -0.68124 4.40789
0.214614 0.0196779 4.62096
0.438776 -0.409457 4.43547
-0.0323359 -0.885026 4.39339
0.0507653 0.0375051 4.58827
0.464778 -0.869062 4.22714
0.162248 -0.88571 4.39288
0.188343 -0.322154 4.49858
-0.06653 -1.0685 4.44384
0.0954824 -0.509068 4.46385
0.367122 -0.261191 4.49594
0.178835 -1.02046 4.26456
0.336049 -1.00457 4.17935
0.311755 -0.848331 4.31328
0.304971 -0.520913 4.50701
-0.159536 -1.16692 4.53468
0.279354 -1.18395 4.32625
0.717132 -1.10702 4.49909
0.317266 -0.109741 4.65772
0.29533 -0.688586 4.44002
-0.0185208 -0.744198 4.50727
0.465667 -0.5871 4.41997
0.0419255 -0.116984 4.71893
0.470917 -1.123 4.29185
0.404861 -1.39103 4.50931
0.441992 -0.762108 4.37833
0.0490057 -0.269771 4.68825
0.55929 -0.541851 4.56705
0.563692 -0.717751 4.48978
0.647544 -0.978038 4.63065
0.563143 -1.21196 4.46643
0.521118 -0.949632 4.38674
0.436514 -0.417235 4.62551
0.525897 -0.837038 4.60153
0.539888 -1.27943 4.67086
0.539947 -1.00001 4.51683
0.498147 -0.753602 4.76503
0.678356 -1.16335 4.68045
0.295318 -0.209884 4.82236
0.385402 -0.368704 4.80148
0.410078 -1.38819 4.50225
