ply
    format ascii 1.0           
    element vertex 37
    property double x           
    property double y           
    property double z           
    end_header
0.0114462 -0.365083 1.1492
0.0964198 -0.321248 1.17843
0.0137417 -0.257995 1.12774
0.0642952 -0.213666 1.20302
0.0620752 -0.0137372 1.32495
0.0413709 -0.314547 1.14684
0.103671 -0.380516 1.25061
0.107018 -0.0253559 1.32592
0.0499733 -0.255911 1.14362
0.107442 -0.221728 1.20974
0.0914677 -0.147934 1.24767
0.0830004 -0.113666 1.2651
0.117675 -0.13301 1.31488
0.0691389 -0.0770279 1.29207
0.0647213 -0.296179 1.17104
0.00451179 -0.297738 1.14231
0.114142 -0.313876 1.21707
0.12448 -0.192633 1.2404
0.0394157 -0.106827 1.27795
0.12013 -0.324549 1.25848
0.0953477 -0.279454 1.21656
0.0845551 -0.19857 1.23877
0.102948 -0.11126 1.29521
0.099788 -0.0355904 1.36886
0.0513745 -0.262983 1.17885
0.110039 -0.238829 1.2446
0.0982358 -0.299521 1.29857
0.136763 -0.208758 1.28493
0.109388 -0.0787047 1.32689
0.100991 -0.167043 1.32539
0.107147 -0.352196 1.28438
0.104954 -0.25576 1.27616
0.0797313 -0.249022 1.32549
0.0980152 -0.210861 1.3329
0.0976974 -0.0929538 1.34622
0.115986 -0.0432347 1.3662
0.0911492 2.18954e-05 1.3574
