ply
    format ascii 1.0           
    element vertex 39
    property double x           
    property double y           
    property double z           
    end_header
-2.51438 -7.84737 22.665
-1.538 -5.17918 20.3952
-3.11415 -5.9186 21.8783
1.70054 -6.12511 20.7264
-1.88217 6.15177 25.1275
-2.67161 -1.75799 22.3772
-4.78355 -4.63925 22.923
-4.00757 -4.00223 21.9411
-2.08627 2.34615 24.8227
-2.02795 2.47158 23.0839
-1.92614 -1.49227 21.0489
-2.45162 -4.79166 21.4754
-2.03819 1.19026 22.4031
-1.31263 -0.0157945 20.8904
-0.983476 -3.41675 21.112
-3.82812 -5.82159 23.1503
-0.265426 -4.28761 20.3756
-0.443266 4.54029 23.1639
1.23041 -4.02348 20.5553
0.452543 0.181684 21.2825
1.9078 -2.96549 21.8885
-0.583899 -1.56177 21.2023
1.12505 -7.09766 22.1809
-2.76146 -3.77933 22.3703
0.0980492 6.26973 24.1036
0.0903461 2.71964 22.3127
-1.96334 3.58999 23.8752
2.34072 -4.72217 21.2654
1.86067 -1.20942 23.0826
0.615805 -1.77409 21.6204
1.6289 0.317385 22.9862
0.388672 0.179027 21.1543
0.742475 1.63205 23.0341
-1.51403 6.22415 23.9968
0.133665 4.2047 24.1182
0.602471 2.97977 23.711
-2.13016 1.17194 22.6114
0.571843 -0.340028 22.4082
0.188973 6.65873 25.6617
