ply
    format ascii 1.0           
    element vertex 53
    property double x           
    property double y           
    property double z           
    end_header
-1.73705 -1.54095 6.69369
-1.70421 -1.72778 6.45291
-1.75702 -1.28413 6.67885
-1.74283 -1.69049 6.61972
-1.66662 -1.1837 6.55957
-1.73919 -1.53911 6.53586
-1.80841 -2.38777 6.63354
-1.77068 -2.08757 6.44866
-1.81828 -2.2308 6.48079
-1.75238 -2.45654 6.49434
-1.71345 -1.92095 6.46417
-1.68096 -1.33085 6.54501
-1.73927 -2.32187 6.37033
-1.80932 -2.5253 6.61254
-1.62897 -1.43778 6.45723
-1.63587 -0.972816 6.83241
-1.60514 -2.3107 6.29871
-1.68136 -2.10419 6.3181
-1.49583 -1.86052 6.30739
-1.59686 -2.52371 6.41841
-1.3335 -2.32565 6.19212
-1.47076 -2.3808 6.27487
-1.58424 -1.97228 6.38054
-1.60922 -1.59653 6.44707
-1.47621 -1.49472 6.40858
-1.5445 -2.16835 6.28952
-1.2857 -2.05601 6.27337
-1.24283 -2.2135 6.25346
-1.53467 -1.27769 6.4994
-1.53238 -1.73252 6.38432
-1.44767 -2.04137 6.30122
-1.25377 -1.95107 6.3901
-1.40114 -1.63823 6.43465
-1.4878 -0.943274 6.87353
-1.09357 -2.40107 6.34279
-1.37391 -1.78921 6.4072
-1.39424 -1.26518 6.60684
-1.27947 -1.72385 6.52501
-1.40436 -2.18914 6.35924
-1.34514 -1.51559 6.5142
-1.35272 -1.43355 6.65969
-1.45032 -1.40016 6.53437
-1.5129 -1.14284 6.5771
-1.26421 -2.43132 6.32762
-1.1725 -2.04779 6.48766
-1.27566 -1.87514 6.54419
-1.40479 -1.07783 6.8414
-1.05083 -2.33951 6.49138
-1.10731 -2.23397 6.34827
-1.46541 -1.08591 6.70771
-1.35107 -1.64029 6.61125
-1.38355 -1.22083 6.76573
-1.13214 -2.20447 6.50219
