ply
    format ascii 1.0           
    element vertex 56
    property double x           
    property double y           
    property double z           
    end_header
-0.711004 -0.736657 2.69766
-0.666222 -0.44459 2.80817
-0.70496 -0.672037 2.66593
-0.67154 -0.525999 2.68727
-0.689539 -0.749594 2.62717
-0.714932 -0.568306 2.73077
-0.696131 -0.830659 2.62614
-0.722241 -0.898474 2.61335
-0.74504 -0.95846 2.622
-0.708018 -0.675532 2.73181
-0.748797 -1.0272 2.6813
-0.677225 -0.587284 2.67853
-0.690875 -0.635782 2.77915
-0.720112 -1.05451 2.62375
-0.654884 -0.629805 2.63995
-0.651908 -1.08352 2.59479
-0.749202 -1.08683 2.66853
-0.679482 -0.904353 2.56209
-0.709363 -0.995985 2.57436
-0.649231 -0.991081 2.54941
-0.614606 -0.75326 2.60614
-0.530843 -1.00018 2.51516
-0.640026 -0.851915 2.59472
-0.647576 -0.697501 2.63368
-0.59288 -1.02245 2.54313
-0.621826 -0.932583 2.55308
-0.598096 -0.804835 2.57151
-0.589635 -0.655244 2.62338
-0.49371 -0.956351 2.54895
-0.614909 -0.566301 2.66469
-0.689905 -1.09732 2.63371
-0.500725 -0.848192 2.61139
-0.51115 -0.890137 2.55967
-0.579839 -0.881452 2.56488
-0.604838 -0.437491 2.83143
-0.560017 -0.716823 2.63238
-0.436916 -1.03797 2.5853
-0.549805 -0.779261 2.61871
-0.564577 -0.944809 2.58372
-0.559824 -0.566181 2.71516
-0.514089 -0.756495 2.67332
-0.538681 -0.66869 2.67149
-0.443131 -0.970134 2.59577
-0.581629 -0.619736 2.67843
-0.470614 -0.891628 2.65009
-0.571027 -0.838719 2.61421
-0.608978 -0.512161 2.70333
-0.507236 -1.05005 2.57527
-0.549829 -0.639371 2.73828
-0.424046 -1.01564 2.65097
-0.518628 -0.821972 2.68294
-0.571806 -0.494396 2.8182
-0.596426 -0.493385 2.76621
-0.486798 -0.924264 2.58607
-0.551749 -0.723182 2.71117
-0.560528 -0.551023 2.78304
