ply
    format ascii 1.0           
    element vertex 32
    property double x           
    property double y           
    property double z           
    end_header
-0.123905 -0.450448 1.83584
-0.0333939 -0.457059 1.69499
-0.0249413 -0.233398 1.7979
-0.0946309 -0.344868 1.77883
-0.0870042 -0.416349 1.76093
-0.139131 -0.316269 1.82095
-0.0846641 -0.215391 1.83586
-0.100507 -0.509305 1.83383
-0.0524186 -0.517892 1.74252
-0.0835954 -0.478285 1.77596
-0.0474973 -0.357913 1.73855
0.0163164 -0.342773 1.75627
0.0460612 -0.415129 1.75538
0.0807552 -0.364575 1.77333
-0.0216559 -0.411937 1.75426
0.0727866 -0.540258 1.75625
0.128449 -0.45234 1.83702
0.0757114 -0.284452 1.85245
0.060238 -0.476815 1.74579
-0.088581 -0.157413 1.85862
0.11622 -0.517913 1.80558
0.0202198 -0.284177 1.80978
0.0274016 -0.227393 1.84287
0.127117 -0.375344 1.82022
0.0280706 -0.171456 1.87812
0.106571 -0.427498 1.78104
0.0365897 -0.596825 1.77617
0.138448 -0.523267 1.86809
0.0667948 -0.23235 1.90442
0.0611583 -0.304292 1.94738
0.0214142 -0.534831 1.74774
0.119171 -0.404758 1.87939
