ply
    format ascii 1.0           
    element vertex 43
    property double x           
    property double y           
    property double z           
    end_header
-0.0795786 -0.43243 4.89171
-0.0276721 -0.890294 4.51614
-0.0620648 -0.231668 5.00743
0.076178 -0.474658 4.69722
0.00748236 -1.2059 4.35666
-0.106164 -0.871133 4.73358
0.172691 -0.793985 4.47247
-0.0071595 -0.0240344 5.32342
-0.0821977 -1.26817 4.56951
-0.0305254 -0.629912 4.83098
0.031706 -0.706322 4.60634
0.371267 -1.20977 4.37681
0.401291 -0.823334 4.42752
0.463657 -1.40712 4.36808
0.0668613 -1.4189 4.54
0.21637 0.0161192 5.0769
0.122017 -0.105771 4.93394
0.186471 -1.31986 4.35677
0.279705 -0.393297 4.754
0.465181 -0.546305 4.68753
0.237794 -0.606209 4.63389
0.32433 -0.203278 4.89975
0.083636 -1.03772 4.49122
0.117532 -0.316904 4.86694
0.411741 -0.0691901 5.06842
0.650429 -1.31867 4.47538
0.621902 -0.830702 4.51896
0.416488 -1.60593 4.49322
0.294492 -1.01719 4.39901
0.270573 -1.4574 4.50239
0.702319 -1.08866 4.54629
0.518921 -1.01895 4.42468
0.817862 -1.30061 4.61746
0.608473 -0.591321 4.90454
0.407596 -0.0682606 5.06373
0.492267 -0.363636 4.83019
0.712038 -0.92703 4.72744
0.447607 -0.180642 5.34032
-0.0275472 -1.21685 4.40587
0.78788 -1.51465 4.64421
0.224407 0.0177064 5.0413
0.864251 -1.40464 4.8429
0.826049 -1.16901 4.76001
