ply
    format ascii 1.0           
    element vertex 51
    property double x           
    property double y           
    property double z           
    end_header
-0.650638 -0.611558 2.32002
-0.618363 -0.387667 2.31784
-0.575812 -0.687115 2.23111
-0.61958 -0.449703 2.25209
-0.593615 -0.48817 2.18387
-0.523792 -0.160223 2.411
-0.628 -0.560801 2.2587
-0.61018 -0.282279 2.29489
-0.610114 -0.502114 2.31882
-0.593948 -0.616895 2.20098
-0.555509 -0.280563 2.23026
-0.577407 -0.0764409 2.44157
-0.594038 -0.324653 2.35897
-0.478405 -0.200705 2.28454
-0.554847 -0.419771 2.17216
-0.55829 -0.357871 2.21587
-0.483809 -0.0509258 2.41263
-0.475535 -0.553982 2.13098
-0.469716 -0.154617 2.35877
-0.5459 -0.555936 2.17423
-0.608921 -0.668346 2.3045
-0.432439 -0.0944514 2.37917
-0.56929 -0.34032 2.28753
-0.445901 -0.60297 2.18903
-0.422231 -0.503566 2.13792
-0.369317 -0.624503 2.16714
-0.488432 -0.328177 2.21352
-0.547498 -0.237795 2.29162
-0.511842 -0.639698 2.19828
-0.391485 -0.682656 2.22121
-0.466569 -0.450055 2.17126
-0.58831 -0.237954 2.36389
-0.521612 -0.485917 2.15601
-0.479236 -0.404397 2.2207
-0.408862 -0.41096 2.25589
-0.320765 -0.582106 2.21844
-0.476359 -0.274214 2.26134
-0.409627 -0.0412148 2.43111
-0.315685 -0.658452 2.23437
-0.40849 -0.476786 2.22123
-0.421155 -0.169484 2.40978
-0.394044 -0.549868 2.19684
-0.421174 -0.250426 2.31192
-0.39747 -0.24171 2.39988
-0.418432 -0.326525 2.33956
-0.557166 -0.0829839 2.41782
-0.412945 -0.109956 2.44279
-0.434641 -0.339757 2.26217
-0.307998 -0.605248 2.28962
-0.397748 -0.407304 2.33201
-0.378645 -0.471743 2.29133
