ply
    format ascii 1.0           
    element vertex 51
    property double x           
    property double y           
    property double z           
    end_header
-0.562344 -0.463327 2.3632
-0.555922 -0.519591 2.2919
-0.520955 -0.553089 2.2256
-0.553947 -0.357617 2.34881
-0.562269 -0.631237 2.2895
-0.591161 -0.685872 2.34492
-0.552583 -0.577231 2.35513
-0.492194 -0.350221 2.29089
-0.520442 -0.683385 2.2322
-0.480941 -0.245975 2.48368
-0.491763 -0.425572 2.27103
-0.503791 -0.755915 2.25807
-0.543217 -0.165277 2.50763
-0.483171 -0.482956 2.22195
-0.423454 -0.274456 2.35758
-0.393759 -0.614379 2.1784
-0.470941 -0.619422 2.21424
-0.513821 -0.4126 2.33921
-0.343062 -0.562195 2.19475
-0.546696 -0.740667 2.32645
-0.288907 -0.684098 2.21765
-0.422774 -0.394881 2.27651
-0.436454 -0.704246 2.23324
-0.389143 -0.175561 2.46384
-0.316013 -0.745753 2.26236
-0.445695 -0.547372 2.20364
-0.44569 -0.137567 2.49627
-0.246749 -0.643402 2.27583
-0.412527 -0.470298 2.27934
-0.49157 -0.312171 2.35849
-0.423178 -0.233413 2.43456
-0.392606 -0.511484 2.22684
-0.368991 -0.66542 2.23251
-0.344379 -0.477622 2.31889
-0.416507 -0.344045 2.32782
-0.393512 -0.734374 2.29196
-0.339894 -0.541079 2.28199
-0.379872 -0.251792 2.49073
-0.319764 -0.612511 2.25144
-0.535214 -0.170461 2.50972
-0.372554 -0.125223 2.51978
-0.352879 -0.32264 2.47687
-0.367666 -0.32293 2.38562
-0.302483 -0.608825 2.33961
-0.374432 -0.195798 2.52328
-0.32697 -0.543859 2.36468
-0.37585 -0.410535 2.33152
-0.368082 -0.399948 2.40704
-0.237914 -0.723373 2.27916
-0.236874 -0.67381 2.34508
-0.343246 -0.481163 2.39687
