ply
    format ascii 1.0           
    element vertex 49
    property double x           
    property double y           
    property double z           
    end_header
-0.459029 -0.648206 1.94261
-0.460318 -0.5699 1.9451
-0.459603 -0.530696 1.99611
-0.470606 -0.689366 1.98538
-0.433453 -0.682968 1.89905
-0.402209 -0.373855 2.07374
-0.441616 -0.590919 1.89389
-0.46156 -0.455374 1.98548
-0.424807 -0.446308 1.93815
-0.422603 -0.499676 1.92333
-0.448788 -0.610161 1.98729
-0.415938 -0.733299 1.91475
-0.418126 -0.540163 1.8888
-0.382192 -0.294232 2.0791
-0.355249 -0.627198 1.84782
-0.36722 -0.361251 2.03526
-0.436838 -0.726556 1.96935
-0.274187 -0.671733 1.86411
-0.430342 -0.491986 1.97514
-0.404119 -0.635104 1.88077
-0.320298 -0.588436 1.85348
-0.344491 -0.317974 2.05116
-0.419881 -0.419528 1.98349
-0.329332 -0.663104 1.88359
-0.373447 -0.38913 1.97951
-0.444098 -0.321041 2.10102
-0.373226 -0.694254 1.89141
-0.375251 -0.474216 1.92148
-0.28381 -0.717499 1.90083
-0.353768 -0.555655 1.88219
-0.393343 -0.581412 1.866
-0.240098 -0.640727 1.90099
-0.367747 -0.438251 1.95763
-0.364728 -0.527875 1.92396
-0.311817 -0.528794 1.94256
-0.328534 -0.281992 2.08799
-0.3091 -0.572414 1.91342
-0.231443 -0.696952 1.90834
-0.330113 -0.370494 2.06867
-0.295988 -0.622811 1.89241
-0.311248 -0.417883 2.05793
-0.332016 -0.420531 1.99614
-0.292674 -0.574518 1.97193
-0.323075 -0.475382 2.01064
-0.335113 -0.481491 1.95372
-0.328919 -0.331365 2.09654
-0.225866 -0.661364 1.94902
-0.307723 -0.530758 2.00381
-0.346921 -0.456786 2.08379
