ply
    format ascii 1.0           
    element vertex 49
    property double x           
    property double y           
    property double z           
    end_header
-2.27614 -1.88591 13.3464
-2.38842 -2.31847 12.8274
-2.36421 -3.12158 12.8266
-2.28737 -2.57188 12.3326
-2.19992 -3.50807 12.3798
-1.56618 -0.162682 13.9856
-2.43127 -3.52995 13.2648
-2.04834 -1.62126 12.5557
-2.19378 -2.70565 13.2317
-2.32198 -1.13215 13.2255
-1.99025 -4.00868 12.5051
-1.53305 -2.945 11.7414
-1.28227 -0.0783885 13.5568
-2.06976 -2.0498 12.2249
-1.94789 -3.0142 12.1468
-1.93433 -0.764383 13.1165
-2.11686 -3.92874 13.0677
-1.992 -1.48919 13.0991
-0.710993 -3.35329 11.739
-1.18675 -2.53915 11.722
-1.2126 -3.2827 12.0444
-1.60507 -1.35515 12.4425
-0.751003 -3.79834 12.0806
-1.08451 0.369009 13.6434
-1.62115 -3.60633 12.2019
-1.27623 -0.204196 13.2317
-1.36394 0.633227 14.0072
-1.84004 -2.49066 12.0233
-2.05723 -0.808536 13.6801
-1.46242 -2.20246 12.0555
-2.04951 -1.07767 12.6876
-0.852782 0.765684 13.9083
-1.90706 0.369604 14.4178
-1.49629 -1.89468 12.4632
-0.312238 -3.00892 12.027
-0.934916 -1.86678 12.5438
-1.46382 -0.965391 12.7636
-0.204932 -3.56198 12.0561
-0.964844 -2.32479 12.2866
-1.47975 -0.449271 12.9343
-0.945164 -1.30987 13.1996
-0.872382 -0.151904 13.7624
-0.867993 -2.84768 12.041
-0.697844 -0.656069 13.541
-0.549185 -2.76102 12.575
-0.733584 -3.82974 12.1498
-1.03501 -0.749474 13.0364
-0.799236 0.271247 13.8905
-1.139 -1.39487 12.645
