ply
    format ascii 1.0           
    element vertex 63
    property double x           
    property double y           
    property double z           
    end_header
-0.10528 0.29087 1.18715
-0.0765087 0.375512 1.21454
-0.153188 -0.191306 1.02087
-0.0517807 -0.0749235 1.0293
-0.145973 -0.146774 1.00441
-0.147169 0.136244 1.16311
-0.0956799 -0.104101 1.01733
-0.0671995 -0.13324 1.01392
-0.129243 0.182352 1.16416
-0.115052 0.345701 1.22545
-0.0942095 0.0491507 1.09365
-0.150862 -0.10618 1.0802
-0.044728 0.233956 1.19916
-0.130615 0.117735 1.13463
-0.0411412 0.279751 1.20467
-0.0469519 0.349497 1.22657
-0.0869526 0.156852 1.12963
-0.125106 -0.124503 1.03373
-0.117573 0.0843775 1.1469
-0.081955 -0.202442 1.02818
-0.0978964 0.184341 1.14829
-0.0465594 0.0788455 1.13817
-0.095806 0.0133371 1.07802
-0.199555 -0.161068 1.07817
-0.0642065 -0.0201291 1.09389
-0.0599953 -0.168975 1.03046
-0.114546 -0.177333 1.02967
0.0439557 -0.140702 1.1126
-0.172973 -0.210903 1.07396
-0.0906452 0.118236 1.11379
-0.151116 0.102414 1.16856
-0.10251 0.0828884 1.11233
-0.000795401 -0.129257 1.0636
-0.123073 -0.0879044 1.05679
-0.125932 -0.00686855 1.09328
-0.0109791 -0.203044 1.05094
-0.143242 -0.0404136 1.08019
-0.0366876 -0.148575 1.05079
-0.0387629 0.382135 1.25013
-0.104463 0.377531 1.23714
-0.0937626 -0.0649437 1.05245
-0.106525 0.245766 1.16798
0.00723759 -0.166024 1.0544
-0.0668412 0.234544 1.16883
-0.0429899 0.22965 1.20458
-0.0706733 0.278547 1.17622
-0.0700566 0.0509427 1.12404
-0.0379648 0.141118 1.17783
-0.0606863 0.133179 1.14197
-0.0428588 0.34449 1.25874
-0.0357048 -0.0808545 1.07154
-0.0235967 -0.040641 1.09778
-0.0664348 -0.0519161 1.06461
0.0344875 -0.0958019 1.10164
-0.0570268 -0.111825 1.04788
-0.0692264 0.112492 1.19571
0.0355891 -0.127921 1.07528
-0.0439468 0.072908 1.20056
-0.0245972 -0.237883 1.06957
-0.0211188 -0.0282608 1.13774
-0.0194393 -0.2125 1.12212
-0.0439238 0.230583 1.20443
-0.0340097 0.0259605 1.15199
