ply
    format ascii 1.0           
    element vertex 38
    property double x           
    property double y           
    property double z           
    end_header
-1.27199 -2.65926 8.56866
-0.265063 -2.15952 7.74728
-0.7687 -1.14852 8.17759
0.191446 -2.05917 7.74704
-0.425801 -1.43834 7.95752
-0.702323 -1.57304 8.13822
0.590697 -2.27703 7.62166
0.0378684 -2.48803 7.65719
0.458775 -2.69361 7.70221
0.855239 -1.65878 8.13529
-1.27664 -2.21101 8.34337
-0.988904 -0.261477 9.00113
0.0314269 -1.21341 8.3323
-1.09297 1.27867 9.90649
-0.965254 0.520342 9.50082
0.74583 -1.94775 7.81963
1.13847 -1.95398 7.86652
-0.421574 -0.531923 8.56455
0.158076 -1.72197 8.09681
1.26182 -2.41892 8.07686
-0.718805 1.18678 10.0109
-1.78661 -2.16414 8.78884
0.00229069 -0.810579 8.62872
-0.507041 0.633275 9.61419
1.24161 -1.78062 8.27416
-0.353916 -0.950998 8.36887
0.746353 -2.70463 8.02433
0.321275 -1.1752 8.70796
0.934395 -2.32825 7.79791
1.46965 -2.08153 8.16263
-0.161531 -0.187178 9.34456
-1.0097 -2.15233 8.27195
-0.579922 -1.52093 8.01899
1.21566 -2.46556 8.05319
-0.725688 -0.802467 8.27477
-0.379162 0.146499 9.59743
1.12304 -1.69655 8.33631
-0.00512706 -0.775099 8.57372
