ply
    format ascii 1.0           
    element vertex 44
    property double x           
    property double y           
    property double z           
    end_header
-2.24124 -2.89543 7.83907
-2.55551 -3.71971 7.71733
-2.44647 -3.45623 7.77354
-2.25919 -2.23687 8.15221
-2.61749 -3.34142 7.93505
-2.66502 -3.90017 7.79084
-2.38298 -3.25267 7.66526
-2.53355 -3.05423 7.91919
-2.49818 -2.41979 8.31621
-2.62118 -3.75959 7.96378
-2.25414 -3.52521 7.64283
-2.61033 -2.92572 8.09442
-2.45262 -2.60047 8.13625
-2.10519 -3.86061 7.69023
-2.23267 -2.52971 8.14803
-2.32181 -3.10531 7.81474
-2.47045 -3.62744 7.89344
-2.11413 -3.13652 7.764
-2.30645 -3.74309 7.72858
-2.15035 -3.32067 7.6413
-2.40396 -3.25779 7.91893
-2.44388 -2.21178 8.28598
-2.42893 -2.85895 7.98404
-2.21896 -2.82175 8.07435
-2.59399 -2.66975 8.31035
-2.01056 -3.61755 7.74195
-1.9588 -3.30938 7.80143
-1.81452 -3.98809 7.99489
-1.85541 -3.55872 7.90305
-2.06986 -2.98973 7.99214
-2.00383 -3.83279 7.88268
-2.07865 -2.83194 8.30779
-1.82548 -3.76825 7.99344
-1.93448 -3.32353 8.18994
-2.15788 -2.36921 8.3202
-2.12775 -2.60974 8.32839
-2.65589 -3.89401 7.80688
-2.33808 -2.06729 8.53208
-1.92993 -3.50352 8.26309
-2.43719 -1.85421 8.52727
-2.05791 -3.14379 8.1404
-2.22342 -2.1374 8.31579
-1.88048 -3.68805 8.16485
-1.96343 -3.3984 7.99127
