ply
    format ascii 1.0           
    element vertex 49
    property double x           
    property double y           
    property double z           
    end_header
-1.73476 -0.807208 12.5005
-1.75849 -1.72436 12.1177
-1.86718 -2.14879 11.6719
-2.52212 -2.9307 11.169
-1.96368 -1.44847 12.6889
-1.01534 -3.14734 10.9338
-2.15116 -2.44438 11.6906
-2.19869 -3.04768 11.0263
-0.949283 -3.50975 10.8903
-2.46523 -3.27046 11.1455
-1.24397 -3.69223 10.8609
-1.98007 -2.5043 11.1846
-1.67686 -1.43217 12.344
-1.35653 -1.07769 12.6616
-1.9521 -2.77713 10.9534
-2.31403 -3.78851 11.5901
-1.95645 -1.95747 11.9408
-1.74947 -1.15584 12.7241
-1.9034 -3.53277 10.9406
-2.04305 -1.77372 12.3599
-1.66152 -3.08494 10.9761
-1.59055 -2.68487 11.0459
-1.43004 -1.7664 12.0037
-1.63119 -2.4347 11.3085
-0.663337 -3.08427 10.9391
-1.51425 -3.47533 10.9888
-2.20945 -2.74584 11.3006
-1.33157 -3.03046 11.1164
-1.27347 -2.52584 11.3173
-1.68612 -3.76711 11.1471
-2.08235 -3.33434 11.1422
-0.807701 -3.83216 11.0872
-0.984487 -3.03697 11.2516
-2.38507 -3.53076 11.3766
-1.47164 -2.07279 11.7144
-1.19116 -3.33837 11.0615
-1.20034 -2.08765 11.9306
-0.869104 -2.90279 11.8196
-0.457079 -3.21101 11.1985
-0.91193 -2.70371 12.0052
-0.755597 -3.49837 11.2245
-1.52987 -1.45522 12.7655
-1.13839 -2.6577 11.5708
-0.664436 -3.05315 11.4548
-1.27217 -2.34188 11.6425
-1.11445 -2.42722 11.9188
-0.605994 -3.18545 12.051
-1.12594 -2.22016 12.2706
-0.87012 -2.95077 11.9598
