ply
    format ascii 1.0           
    element vertex 67
    property double x           
    property double y           
    property double z           
    end_header
-0.498939 -3.73827 7.74483
-0.41364 -1.95268 8.34684
-0.602785 -1.62689 8.70689
-0.415068 -3.08505 7.39774
-0.581883 -1.10207 8.84266
-0.556174 -2.2576 8.29117
-0.600272 -3.30993 7.44928
-0.612581 -0.912198 9.06549
-0.751383 -3.02534 7.5589
-0.280158 -0.717623 9.07757
-0.395243 -1.5384 8.50888
-0.432069 -2.37318 8.08391
-0.513716 -1.36945 8.66659
-0.172704 -2.29522 8.0583
-0.499773 -2.85897 7.57625
-0.316761 -2.12228 8.19077
-0.321149 -0.958998 8.95369
0.076748 -1.7904 8.33876
-0.0583306 -2.06124 8.10504
0.0732342 -2.44493 8.00998
-0.147526 -2.66314 7.80368
-0.0672743 -1.40529 8.57342
-0.726113 -2.89943 8.19448
-0.133446 -1.88962 8.23928
-0.765481 -3.29674 7.67305
-0.480993 -1.79893 8.46743
-0.0125491 -2.99001 7.73698
-0.17441 -1.56028 8.42268
-0.0399437 -3.28342 7.61676
0.1108 -3.19252 7.87537
-0.265128 -2.87164 7.71864
0.367686 -3.6585 7.94634
0.0935596 -2.24476 8.17614
0.129416 -3.51594 7.75462
0.062204 -1.62241 8.52097
0.238612 -2.71509 8.16725
0.0676402 -2.81072 7.90091
0.156065 -2.06334 8.29516
0.326894 -3.18361 8.13643
-0.251967 -2.53662 8.01301
0.325386 -3.36986 7.91978
0.398368 -2.98574 8.27932
-0.433904 -2.62539 7.85013
-0.275225 -3.09179 7.62727
-0.302054 -3.35421 7.49473
0.265212 -2.306 8.37923
0.197376 -2.9728 8.08554
0.247858 -2.49263 8.2782
-0.204489 -3.54388 7.75397
0.50112 -3.60465 8.40543
0.243427 -1.91372 8.49446
0.290527 -2.14824 8.52526
0.458703 -3.46312 8.15342
0.281762 -2.37443 8.66383
0.372188 -3.33778 8.42886
-0.321911 -0.966848 8.92933
-0.0443902 -1.41441 8.84568
-0.265951 -1.25356 8.88597
-0.321132 -0.946957 9.258
0.354653 -3.74229 8.17815
0.368661 -2.98601 8.33097
-0.252395 -1.20122 9.14228
-0.345058 -1.56159 8.48943
-0.430624 -1.10019 9.51189
0.251358 -1.76424 8.66634
0.140298 -2.74527 8.43116
0.187556 -2.20442 8.87488
