ply
    format ascii 1.0           
    element vertex 46
    property double x           
    property double y           
    property double z           
    end_header
-0.241167 -1.20362 3.37005
-0.37062 -1.09561 3.53518
-0.119865 -0.809083 3.44059
-0.305159 -0.936492 3.40339
-0.356281 -1.12476 3.45959
-0.138889 -0.725717 3.5452
-0.127875 -0.887567 3.42821
-0.191732 -1.147 3.34466
-0.0749958 -0.697283 3.49265
-0.170648 -1.02833 3.34599
-0.235109 -1.04303 3.40011
-0.0409296 -0.590293 3.59728
-0.29376 -1.16011 3.41514
-0.205457 -0.881513 3.4647
-0.350547 -1.18475 3.50443
-0.0597379 -1.10418 3.38416
-0.211819 -1.11679 3.41716
-0.290299 -1.09098 3.45297
-0.214384 -0.916822 3.39009
-0.0527089 -0.917533 3.41172
-0.0817282 -1.01087 3.37908
-0.126916 -0.627628 3.56344
-0.150203 -0.965942 3.39515
-0.180914 -0.819749 3.51963
0.0226392 -0.881997 3.47958
-0.0579219 -0.854867 3.46241
0.0192677 -0.642673 3.6204
-0.24558 -0.969211 3.36096
-0.126761 -1.14888 3.39239
0.011336 -0.811684 3.62644
-0.010285 -0.747614 3.57316
-0.0806912 -0.78254 3.52164
-0.0454024 -0.668077 3.56307
-0.000790402 -0.958914 3.4625
0.0113434 -1.01896 3.52135
-0.0553637 -1.21354 3.57843
0.0364821 -0.94241 3.53995
-0.135709 -1.07574 3.40432
-0.0187072 -1.12656 3.45564
-0.14589 -1.1553 3.40425
-0.0005226 -0.719865 3.65099
-0.0799865 -0.978859 3.45054
-0.0722304 -1.06004 3.44901
-0.0182418 -1.08088 3.53453
-0.00872217 -1.03372 3.59489
-0.236169 -0.960432 3.35573
