ply
    format ascii 1.0           
    element vertex 48
    property double x           
    property double y           
    property double z           
    end_header
-0.281953 -0.718791 3.19376
-0.593709 -0.502847 3.33817
-0.453769 -1.16934 3.22674
0.00247691 -0.449996 3.35885
-0.144647 -0.194765 3.45199
-0.186798 0.00527156 3.71802
-0.560027 -0.696001 3.43802
-0.575652 -1.06037 3.34207
-0.726399 -0.975308 3.43557
-0.756888 -0.904903 3.62612
-0.153777 0.245118 3.7752
-0.562836 -0.883828 3.43502
-0.465173 -0.568667 3.22322
-0.0145389 -0.904534 3.26926
-0.433634 -0.761596 3.31812
-0.53028 -1.22576 3.45898
-0.714234 -1.14551 3.54235
-0.383343 -0.45255 3.32216
-0.169714 -0.38507 3.42011
-0.228414 -0.573979 3.32509
-0.0377618 0.0747112 3.59134
-0.352992 -0.369139 3.49518
-0.0710983 -0.672021 3.27235
-0.292154 -0.213803 3.59041
-0.379023 -0.944931 3.34881
-0.332314 -1.01687 3.17683
0.0526656 0.336412 3.86625
0.128275 -0.0428115 3.76534
0.00238746 -0.303382 3.49238
0.188186 -0.364175 3.5267
0.198989 0.20754 3.89445
-0.174746 -1.02829 3.28394
0.167284 -0.700775 3.60175
0.135125 -0.549642 3.47153
0.179138 -0.195916 3.90173
0.104581 -0.962605 3.4235
-0.0463056 -0.125601 3.64939
-0.196333 -0.834555 3.32964
0.229662 -0.514589 3.66035
0.0366419 0.147384 3.76926
-0.0140714 -0.789732 3.42001
-0.0486562 -0.601838 3.45333
-0.206858 0.00474695 3.72052
0.0985971 -0.863635 3.62313
0.0826404 -1.10754 3.55306
0.161895 0.0201039 3.96134
0.0286811 -1.21402 3.70635
-0.137704 -1.18609 3.5969
