ply
    format ascii 1.0           
    element vertex 43
    property double x           
    property double y           
    property double z           
    end_header
-0.279945 -0.351582 2.51016
-0.359466 -0.690571 2.27017
-0.393964 -0.743403 2.26786
-0.395583 -0.690702 2.41875
-0.370607 -0.826425 2.33108
-0.348962 -0.630492 2.4056
-0.39812 -0.74884 2.43512
-0.312492 -0.442488 2.4723
-0.225197 -0.552034 2.39522
-0.302108 -0.712887 2.25795
-0.302749 -0.657259 2.36802
-0.321463 -0.562781 2.4103
-0.315589 -0.403517 2.52622
-0.211922 -0.505368 2.43023
-0.310203 -0.362518 2.57043
-0.277076 -0.510684 2.41621
-0.275912 -0.605734 2.40048
-0.231956 -0.805318 2.29354
-0.16362 -0.793777 2.36024
-0.182748 -0.626087 2.44301
-0.203263 -0.446205 2.49726
-0.236647 -0.646181 2.36217
-0.210698 -0.707298 2.34028
-0.266516 -0.681008 2.32175
-0.173725 -0.666442 2.37522
-0.255047 -0.406243 2.47902
-0.281416 -0.773504 2.27254
-0.340608 -0.77043 2.25366
-0.164443 -0.738103 2.39753
-0.174943 -0.566486 2.4444
-0.209473 -0.495344 2.42153
-0.214539 -0.381579 2.52667
-0.262449 -0.74382 2.31901
-0.125581 -0.726286 2.48243
-0.13707 -0.783117 2.44494
-0.173626 -0.632142 2.46871
-0.209067 -0.615089 2.4146
-0.25099 -0.341088 2.56055
-0.154447 -0.688103 2.43612
-0.192692 -0.515814 2.48074
-0.168869 -0.613227 2.53247
-0.167277 -0.860987 2.42101
-0.164079 -0.833341 2.48295
