ply
    format ascii 1.0           
    element vertex 38
    property double x           
    property double y           
    property double z           
    end_header
-0.0916194 -0.118947 0.67052
-0.124192 -0.106704 0.680803
-0.0714848 0.0358596 0.757401
-0.0951612 0.0763799 0.780712
-0.0951001 0.00494424 0.752664
-0.0360882 0.0439851 0.766135
-0.0737716 -0.0874092 0.677987
-0.0374258 -0.135989 0.705869
-0.0684098 -0.0197036 0.752634
-0.06427 0.0975254 0.790455
-0.0419632 0.0112325 0.752214
-0.107738 -0.0347194 0.751927
-0.0572306 -0.0658822 0.712413
-0.00405665 -0.123024 0.741623
-0.0296466 -0.0781046 0.729329
-0.0432459 -0.0433917 0.735825
0.00153679 -0.154191 0.772328
-0.0620446 -0.12001 0.687624
-0.00948289 -0.052112 0.747989
-0.00539016 -0.0884714 0.759327
-0.0151 0.00796906 0.780765
-0.0563481 -0.100136 0.714993
0.0151163 -0.0779587 0.804834
-0.0355298 0.0776489 0.804931
-0.0828382 0.130103 0.803936
-0.0974464 -0.0743509 0.673486
-0.0460457 0.113565 0.81937
0.0102375 -0.111542 0.785949
-0.0954979 0.0778194 0.782072
-0.00168862 -0.0598049 0.781008
-0.0291079 0.0380044 0.798572
-0.029262 -0.0217589 0.762897
-0.0150856 -0.027137 0.794979
-0.015335 -0.0135644 0.828411
-0.101894 -0.140716 0.700708
-0.00860657 -0.137699 0.808686
-0.0502691 0.0779836 0.838649
-0.0183564 -0.111623 0.829039
