ply
    format ascii 1.0           
    element vertex 45
    property double x           
    property double y           
    property double z           
    end_header
-0.688526 -3.2266 7.18254
-0.0381483 -1.74202 7.90332
-0.270273 -2.99583 7.09058
-0.534856 -2.78692 7.52407
0.0546077 -2.57656 7.33059
-0.258839 -2.81785 7.2962
-0.120325 -1.6841 8.24982
-0.931308 -3.21589 7.32613
-0.422662 -2.5795 7.61227
-0.43673 -3.21797 7.09891
-0.284548 -2.3962 7.46032
-0.883448 -3.00176 7.57538
-0.194884 -2.17646 7.57067
-0.41826 -3.48367 7.1337
-0.496312 -2.99467 7.27016
-0.0194697 -2.83121 7.13657
-0.962223 -3.45169 7.30483
0.242606 -1.76606 7.93348
-0.0139885 -1.47906 8.2398
-0.0843617 -1.97787 7.67206
-1.12547 -3.05364 7.60686
-0.0199448 -2.3568 7.47454
-0.210712 -1.93514 7.88246
-0.0571037 -3.18406 7.14751
-0.727064 -3.50548 7.17591
0.170434 -3.33357 7.18851
0.101926 -1.60299 8.0941
-0.298418 -2.11915 8.03147
-0.217294 -2.6314 7.45156
-0.720977 -3.07484 7.38079
0.109088 -2.17103 7.62556
0.22124 -2.42908 7.6036
0.23435 -3.23818 7.42958
0.136756 -2.02061 7.85325
-0.277827 -3.22517 7.2946
0.239353 -2.28283 7.84524
0.139076 -2.83865 7.35107
0.218793 -2.87279 7.61448
-0.0362397 -3.05274 7.41319
0.162334 -2.06251 8.10692
0.162468 -2.60588 7.83186
0.109329 -3.47506 7.65
0.0529298 -3.0822 7.86088
0.0061286 -2.82736 7.92621
0.169924 -3.5225 7.40129
