ply
    format ascii 1.0           
    element vertex 50
    property double x           
    property double y           
    property double z           
    end_header
-1.7457 0.530233 4.83133
-1.43358 -1.8346 3.68357
-1.58566 0.470986 4.47695
-1.24144 -2.33874 3.92134
-1.44635 -1.3994 4.36674
-1.60468 -1.10799 4.13215
-1.4724 -1.58943 3.96902
-1.51631 0.807075 4.77622
-1.49156 -0.793745 4.30889
-1.27371 -1.48267 3.6362
-0.993423 -2.59287 3.66538
-1.14592 -2.22562 3.56102
-1.37279 -1.18541 3.85027
-1.54214 -0.824207 3.91686
-0.990243 -1.88658 3.39561
-0.283804 -2.32863 3.31701
-1.56288 -0.766197 4.65481
-1.18441 -0.912175 3.72099
-1.18936 0.186686 4.81378
-1.49794 -0.130661 4.33651
-0.558766 -2.17098 3.50063
-0.795534 -1.61718 3.51136
-0.517503 -1.06262 3.92825
-0.142643 -2.07986 3.51677
-0.00152546 -2.57989 3.25202
-1.28023 -0.624828 4.04068
-0.306273 -1.35971 3.96428
-0.747028 -0.612705 4.16875
-0.918132 -1.36646 3.75604
-1.15498 -0.221315 4.17126
-1.63181 -0.440434 4.25563
-0.659308 -2.5776 3.78419
-1.12181 -1.90083 3.66628
-0.445993 -1.70356 3.58753
-1.4462 -1.8328 3.71071
-0.820532 -1.01887 3.73076
-0.954507 -0.821678 4.00283
-0.796917 -2.14016 3.63539
-0.594126 -0.883232 4.25172
-1.29223 0.526889 4.87778
0.368338 -2.2343 3.63651
-1.12227 -0.124288 4.52998
-1.02214 -0.520401 4.62203
0.246515 -2.55323 3.51779
-1.5155 0.811174 4.77375
0.0586423 -2.02987 3.75583
-0.263133 -1.69248 3.94549
-0.316591 -2.00434 3.77463
0.123018 -2.26588 3.36044
-1.07754 -0.592089 4.33426
