ply
    format ascii 1.0           
    element vertex 49
    property double x           
    property double y           
    property double z           
    end_header
-0.905782 -2.62876 11.5949
-0.893139 -0.850951 12.1589
-0.724283 0.505227 11.6935
-1.09287 -2.0478 11.5617
-0.739475 1.19299 12.042
0.0846672 -0.346744 10.9334
-1.0064 -1.37756 10.9267
-0.936866 -1.97314 12.101
-1.01892 0.167107 12.0152
-0.826474 -0.428701 11.6161
-0.720439 -1.91534 11.0549
-0.816014 -1.55452 11.5143
-0.786492 -0.296197 12.1726
-0.660967 1.40463 12.5359
-0.84202 -2.549 12.1402
-0.177456 -1.02922 10.8578
-0.670924 -0.949499 11.6924
-0.188622 -0.175858 11.3839
-0.442718 -0.65355 11.2757
-0.479615 -0.0196437 11.7955
0.198942 -1.46563 10.9419
1.54721 -1.77278 11.2235
0.363678 0.291796 11.8268
-1.01498 1.29311 12.9525
0.240164 0.874018 11.8821
0.201318 -2.31458 10.8421
0.742901 -2.21545 10.8225
-0.5163 -1.51494 12.4295
-0.211621 1.07873 12.1975
0.0658684 -2.08346 11.2624
-0.561552 -1.1531 11.2197
0.391166 1.20028 12.3277
-0.419017 1.94435 12.5717
-0.177588 0.462758 11.8835
0.63889 -1.20329 11.2704
1.10891 -1.50109 11.3241
1.27485 -2.18434 11.006
0.677973 -1.9007 11.2702
-0.079796 -2.27619 11.8794
0.906857 -0.863277 11.6487
0.286826 -0.763041 11.3367
-0.0593845 1.46116 12.5467
1.07683 -2.669 11.4927
0.72778 -2.97016 11.7093
0.255214 1.83008 13.0869
0.7398 -2.21692 10.8225
0.670776 -0.0680054 12.1131
-0.460916 -2.00931 11.7121
0.339964 -0.223507 11.4085
