ply
    format ascii 1.0           
    element vertex 36
    property double x           
    property double y           
    property double z           
    end_header
-0.339829 1.27526 8.81503
-0.962953 -1.03467 7.56257
-1.42665 -1.0732 7.94214
-1.23493 -0.184494 8.88662
-0.326334 -1.25817 7.22001
-1.21351 -2.30551 7.70842
-1.18467 -1.50998 7.75971
-0.914856 0.818684 8.83885
-1.14108 -0.0593758 8.35568
-0.949494 -1.86792 7.43045
-0.645937 -0.287744 7.82912
-0.644961 0.244086 8.22699
-0.466002 -1.87188 7.15578
-1.23829 -0.563048 8.55339
-1.3412 -2.66419 8.04342
-1.04665 -0.639912 7.95909
-0.602392 -1.42119 7.56778
-0.155761 -0.502354 7.77835
-0.477979 0.586678 8.63224
-0.563502 -0.753728 7.74467
-0.0583401 -1.0116 7.7524
-0.231903 -0.0860559 8.06804
-0.00144344 -1.83808 7.38591
0.0678989 -1.35672 7.42783
-0.892088 1.34109 9.15611
0.265763 -0.695264 7.99458
-1.42658 -2.16922 8.18123
0.010769 -2.13899 7.78876
-0.189139 0.881721 9.15954
0.142241 -0.00195907 8.61409
0.0845929 -0.36109 8.349
0.20684 -1.22781 8.11594
0.278042 -1.96329 8.35506
0.263854 -1.46459 8.55722
-0.284828 0.177392 8.84494
-0.0247848 -1.60381 7.83447
