ply
    format ascii 1.0           
    element vertex 61
    property double x           
    property double y           
    property double z           
    end_header
-0.559072 -0.714653 4.27683
-0.660121 -0.629499 4.41263
-0.663191 -1.10718 4.28941
-0.596371 -0.839353 4.35979
-0.709238 -0.771668 4.44008
-0.563547 -1.34262 3.85347
-0.624702 -1.37815 3.99215
-0.64334 -1.25666 4.31518
-0.571366 -1.00972 4.2012
-0.609621 -1.40009 4.33081
-0.500262 -0.882758 4.24719
-0.590741 -0.494927 4.42779
-0.541955 -1.61333 3.9978
-0.650641 -0.936813 4.47295
-0.614137 -0.979726 4.33925
-0.534527 -1.48628 3.91352
-0.437629 -1.07118 4.15723
-0.570748 -1.25867 3.96225
-0.429712 -1.25513 3.92736
-0.555006 -1.15666 4.19657
-0.413851 -0.714167 4.30551
-0.262689 -1.63553 3.92686
-0.405775 -1.57586 3.92989
-0.518162 -1.73228 4.06054
-0.434063 -1.42174 3.8268
-0.337025 -1.34763 3.89041
-0.360473 -0.847569 4.27829
-0.300136 -1.21397 4.14348
-0.380687 -0.994541 4.2617
-0.429178 -1.70752 3.94531
-0.375286 -0.583982 4.52986
-0.246064 -1.1263 4.24848
-0.505952 -0.655549 4.39401
-0.313872 -1.47888 3.8762
-0.467765 -0.456377 4.5054
-0.162952 -1.27473 4.21722
-0.235375 -1.06321 4.39064
-0.222332 -1.40105 3.96555
-0.173318 -1.57234 4.04207
-0.332671 -1.29869 4.02302
-0.16672 -1.20251 4.35852
-0.286899 -0.918541 4.38626
-0.360255 -1.80292 4.03437
-0.0399783 -1.74656 4.46354
-0.262419 -1.95699 4.37201
-0.142931 -1.76735 4.23483
-0.1781 -1.413 4.25943
-0.36303 -0.674279 4.42307
-0.0999413 -1.6978 4.35555
-0.338569 -0.783128 4.51699
-0.156045 -1.56363 4.35205
-0.0449994 -1.85944 4.46934
-0.195005 -1.51254 4.16308
-0.253864 -1.38928 4.10848
-0.154272 -1.8515 4.36477
-0.357733 -1.92778 4.28715
-0.363969 -0.909677 4.61683
-0.228632 -1.65847 4.19215
-0.205986 -1.16916 4.50156
-0.198253 -1.65254 4.63755
-0.172449 -1.34262 4.39761
