ply
    format ascii 1.0           
    element vertex 37
    property double x           
    property double y           
    property double z           
    end_header
-0.131273 -0.0236883 0.912083
-0.0787696 -0.0362188 0.826934
-0.0708598 0.091819 0.931189
-0.132122 -0.111112 0.906622
-0.0782988 -0.102421 0.805735
-0.112965 -0.0511129 0.857411
-0.0258027 0.0434271 0.898908
-0.108009 -0.0130177 0.88186
-0.104858 -0.082555 0.826498
-0.0407999 -0.0946789 0.804706
-0.0810235 -0.00121471 0.849029
-0.0787117 0.0533575 0.903623
-0.005525 -0.112506 0.813579
-0.0936671 -0.134424 0.902763
-0.0163152 -0.152589 0.820149
-0.000157599 -0.0666503 0.850369
-0.113892 0.0378522 0.888487
-0.0496861 -0.131959 0.810689
-0.0360482 -0.00469177 0.851561
-0.0603035 -0.0702013 0.832697
-0.0354974 -0.159666 0.834713
-0.0379354 -0.0456492 0.84508
-0.0562826 0.0223102 0.874824
-0.0315707 0.0749124 0.924109
-0.0194007 0.00279988 0.890567
0.00175108 -0.100154 0.890642
-0.00785828 -0.14068 0.88734
-0.0172188 -0.171888 0.923844
-0.0084526 -0.148467 0.963144
-0.000928106 -0.0552992 0.899225
-0.047298 -0.1935 0.904683
-0.054843 -0.136443 0.817357
-0.0637036 -0.0764628 0.832699
-0.0186205 -0.124668 0.928799
-0.0395914 -0.169515 0.868313
-0.0229908 -0.124228 0.850567
-0.0525576 0.0109087 0.96674
