ply
    format ascii 1.0           
    element vertex 43
    property double x           
    property double y           
    property double z           
    end_header
-0.819193 -1.34534 6.49749
-1.0051 -1.46772 6.50503
-0.935851 -0.75311 6.85074
-0.767691 -1.08236 6.64488
-0.802045 -0.614616 6.74073
-0.849724 -0.852391 6.70199
-0.678243 -1.57233 6.3525
-0.941997 -1.91394 6.33739
-0.996659 -1.7574 6.46674
-0.884439 -2.10926 6.21055
-0.95288 -2.30528 6.16235
-1.08928 -2.15953 6.29889
-0.728518 -2.23153 6.10204
-0.969791 -1.30526 6.66196
-0.928608 -0.508424 6.86333
-0.745769 -1.9565 6.23136
-0.953252 -1.11783 6.75435
-0.838493 -1.62364 6.47999
-0.740562 -0.464845 6.88379
-0.637968 -0.792017 6.74641
-0.581056 -2.09373 6.19105
-0.550662 -1.10451 6.70461
-1.06738 -2.029 6.45434
-1.09967 -2.359 6.33732
-0.73551 -1.83889 6.40154
-0.95317 -2.47694 6.2795
-1.00007 -0.629382 6.98776
-0.602259 -0.592483 6.83306
-0.500097 -0.957049 6.84866
-0.667022 -1.27372 6.6303
-0.615466 -1.46001 6.5318
-0.566478 -1.97639 6.36922
-0.57445 -1.67832 6.51375
-0.418046 -2.11548 6.44166
-0.499265 -0.762612 6.95519
-0.579117 -2.25565 6.3491
-0.576114 -1.31259 6.76463
-0.609553 -1.91861 6.57355
-0.443289 -2.04384 6.66125
-0.561472 -1.51641 6.73493
-0.421666 -2.24293 6.62026
-0.584094 -1.41865 6.92512
-0.620947 -2.34394 6.58353
