ply
    format ascii 1.0           
    element vertex 44
    property double x           
    property double y           
    property double z           
    end_header
-0.866123 -0.512501 10.0854
-1.19854 -2.23248 9.69256
-1.09204 -1.56983 9.80181
-1.01503 -1.28658 9.96629
-1.15147 -1.99034 9.9851
-1.06154 -0.827176 10.0062
-1.086 -1.62625 9.46345
-0.884439 0.18482 9.93938
-1.15074 -2.09328 9.3461
-0.786814 -0.19172 10.1225
-0.879846 0.544689 9.90397
-0.998753 -0.991326 9.46053
-1.14821 -1.904 9.63539
-0.982584 -1.82593 9.21454
-0.976236 -0.618618 9.75261
-0.829131 -0.164445 9.79674
-0.91618 -1.0447 9.76888
-0.982056 -2.47673 9.79214
-0.885647 -1.37514 9.58206
-0.610701 -0.147398 9.54543
-0.633279 0.637103 9.717
-0.70915 0.821047 9.92795
-0.710174 0.312221 9.69412
-0.425318 0.13225 9.59517
-0.722446 -0.43817 9.66024
-0.770161 -1.58277 9.32674
-0.76183 -0.754786 9.50182
-0.527142 -1.74032 9.17816
-0.349048 0.449593 9.67368
-0.712726 -2.0238 9.32723
-0.689313 -1.07541 9.43362
-0.546855 -1.42092 9.52307
-0.275908 -1.55269 9.36922
-0.233687 -0.537119 9.76066
-0.251831 -1.86427 9.28246
-0.434782 0.715826 9.85909
-0.464449 -1.12086 9.62039
-0.268114 -1.24902 9.91943
-0.434707 -0.743598 9.61841
-0.248166 -0.839726 9.88464
-0.463488 -0.40598 9.62678
-0.385638 -2.05587 9.49223
-0.2544 -2.37197 9.58338
-0.353222 -0.252142 9.79146
