ply
    format ascii 1.0           
    element vertex 60
    property double x           
    property double y           
    property double z           
    end_header
-1.04596 -2.7354 7.19273
-0.348164 -1.34834 7.36817
-0.687555 -3.07818 6.89344
-0.772873 -2.32503 7.06268
-0.582865 -1.7937 7.36942
-0.781012 -3.22429 7.00436
-0.386285 -2.55715 6.64147
-0.465682 -1.2397 7.53165
-0.59481 -2.10427 7.0533
-0.518061 -2.69795 6.78432
-0.689736 -2.51959 7.00177
-0.473231 -2.42583 6.80461
-0.50487 -1.46319 7.51146
-0.421075 -1.079 7.87502
-0.854773 -2.6591 7.0654
-0.941153 -2.85865 7.01294
-0.474799 -1.95045 7.1204
-0.71354 -2.85028 6.97818
-0.224326 -1.70946 7.2426
-0.23082 -1.93194 7.08615
-1.04121 -2.95341 7.21734
-0.399917 -1.65888 7.38127
-0.425678 -2.23283 6.94411
-0.210029 -1.55268 7.38812
-0.256058 -2.35867 6.75696
-0.52166 -1.38667 7.72873
-0.0408099 -2.89022 6.98951
-0.8213 -3.03202 7.08193
-0.166081 -2.622 6.70582
-0.382734 -1.87562 7.27216
-0.526961 -1.70154 7.54627
-0.102463 -2.0697 7.22793
-0.916224 -2.64775 7.29361
-0.0936145 -2.47609 6.8484
-0.399325 -0.834387 7.66268
-0.228929 -0.767572 7.75258
-0.317677 -2.17335 7.14653
-0.0605269 -1.87061 7.30775
0.141605 -2.84789 7.10419
0.111069 -2.64171 7.22417
-0.109025 -2.23582 7.36698
-0.495554 -2.87367 6.9565
-0.0256084 -3.08158 7.20258
-0.0381904 -2.69153 7.05762
-0.149466 -2.41053 7.25066
0.20754 -2.84135 7.34925
-0.246688 -1.29814 7.58186
-0.975648 -2.89466 7.09528
-0.198268 -1.55275 7.36004
-0.185908 -1.42331 7.76969
-0.230926 -2.38195 7.00694
-0.151853 -1.69775 7.67563
-0.190715 -1.51593 7.54571
-0.587543 -1.8054 7.38639
-0.0840163 -1.89709 7.59838
-0.158592 -2.0433 7.45785
-0.195584 -2.69058 6.90944
-0.140616 -1.73407 7.46231
0.0981541 -2.70306 7.44588
-0.171035 -2.42184 7.4702
