ply
    format ascii 1.0           
    element vertex 39
    property double x           
    property double y           
    property double z           
    end_header
-2.81002 -0.302116 19.9774
-2.91719 -0.610718 21.0871
-4.10389 -2.85096 20.0097
-2.81633 1.36607 21.3278
-3.94198 -3.87253 19.5517
-3.29937 -3.16491 18.0983
-3.0692 -4.04783 18.8447
-3.12692 -2.2499 18.8501
-2.1739 0.598244 19.5016
-2.65939 0.548938 20.6494
-1.36874 -0.323905 18.6696
-2.3812 -1.30553 19.19
-2.03824 -4.25481 18.388
-2.17837 2.38664 21.2137
-1.79239 -1.4044 18.2234
-2.56404 -1.47161 20.3244
0.220654 -3.07812 17.5922
-1.22587 -3.43825 17.9294
-0.517695 -2.09137 17.7727
-1.8592 1.44942 20.4444
-3.28548 -2.32477 19.8046
-1.06109 2.55223 20.8344
-2.16105 -2.62666 18.1032
0.550557 -1.88832 17.6811
-0.548346 3.66566 22.4273
-1.71939 3.7761 22.4147
-0.325623 1.65706 21.0161
-0.587506 -1.12748 18.3818
-0.246973 -0.49318 19.3304
1.11237 -2.51429 18.1427
-1.08834 -2.18104 18.3682
0.755637 -1.44762 18.6345
-0.166342 2.72284 21.8558
-0.901425 0.550859 19.8095
-0.12445 -3.94887 18.3647
0.697967 -1.06956 20.0267
-0.104535 0.835098 21.7293
-0.964213 4.45814 23.2547
0.694145 -3.4455 18.6827
