ply
    format ascii 1.0           
    element vertex 38
    property double x           
    property double y           
    property double z           
    end_header
-0.609811 -0.980173 3.08206
-0.640959 -0.991854 3.43718
-0.585663 -0.750811 3.41417
-0.508475 -0.564881 3.36142
-0.64432 -1.02591 3.2296
-0.539347 -0.810073 3.31947
-0.496344 -0.692675 3.3072
-0.45168 -0.248716 3.601
-0.603216 -0.899532 3.15963
-0.591209 -0.898471 3.38987
-0.50483 -0.38169 3.53878
-0.541759 -0.593388 3.4817
-0.444391 -0.809301 3.22709
-0.571762 -1.15462 3.27977
-0.396605 -0.694633 3.22678
-0.461349 -0.99523 3.07867
-0.291638 -0.755406 3.18684
-0.343073 -0.408027 3.49328
-0.599634 -0.904943 3.49025
-0.227941 -0.867696 3.16367
-0.499664 -1.14762 3.1827
-0.344726 -0.899593 3.20494
-0.397569 -0.608783 3.309
-0.447963 -0.505496 3.44441
-0.347576 -0.530516 3.38531
-0.266698 -0.98008 3.1217
-0.480448 -0.904553 3.16192
-0.58698 -1.09129 3.13013
-0.0979436 -0.950975 3.23935
-0.279341 -0.689437 3.29169
-0.41836 -0.331131 3.5467
-0.139951 -0.843582 3.24396
-0.256955 -0.457545 3.57656
-0.391743 -1.01423 3.1735
-0.210235 -0.784202 3.30819
-0.325054 -0.327385 3.58672
-0.301644 -0.572594 3.59472
-0.33458 -0.645331 3.40562
