ply
    format ascii 1.0           
    element vertex 40
    property double x           
    property double y           
    property double z           
    end_header
-0.207719 -0.11853 2.85576
-0.257117 -0.360574 2.66415
-0.253789 -0.459121 2.62478
-0.344535 -0.670313 2.44019
-0.17115 -0.470228 2.5712
-0.341698 -0.756234 2.47752
-0.389775 -0.698786 2.54128
-0.33995 -0.608218 2.49809
-0.254452 -0.216973 2.79764
-0.299078 -0.544386 2.62553
-0.336505 -0.495157 2.6942
-0.0528527 -0.6182 2.53994
-0.233566 -0.695171 2.45288
-0.218725 -0.553635 2.56719
-0.129198 -0.25207 2.78172
-0.354878 -0.603898 2.6655
-0.0888954 -0.700423 2.50414
-0.352659 -0.801722 2.58124
-0.172306 -0.402068 2.63322
-0.294601 -0.380765 2.75246
-0.40723 -0.669193 2.68704
-0.0937171 -0.524629 2.55311
-0.212937 -0.316301 2.73157
-0.149881 -0.630058 2.55563
-0.248195 -0.625309 2.51579
-0.133887 -0.346155 2.69597
0.0310327 -0.693217 2.61296
-0.0878335 -0.474702 2.63128
-0.286924 -0.806601 2.52664
-0.184983 -0.184693 2.81157
-0.120889 -0.192715 2.863
-0.0779401 -0.295449 2.85444
0.00599272 -0.60743 2.61424
-0.0453681 -0.552265 2.64545
-0.19991 -0.718198 2.5368
-0.127638 -0.382179 2.86644
-0.134275 -0.438228 2.71527
-0.205773 -0.120826 2.84626
-0.14015 -0.365247 2.76813
-0.18401 -0.453389 2.83945
