ply
    format ascii 1.0           
    element vertex 49
    property double x           
    property double y           
    property double z           
    end_header
-0.266835 -0.231083 6.66068
-0.615899 -0.640636 6.59683
-0.497099 -0.271169 6.71242
-0.481454 -0.831069 6.37931
-0.146154 -1.08401 6.43057
-0.529077 -1.46409 6.12162
0.283429 -2.08643 6.24791
-0.734488 -2.32352 6.05395
-0.850577 -1.74036 6.27387
-0.271993 -0.651175 6.62467
-0.623926 -1.74237 5.91053
-0.660457 -2.00409 5.9721
-0.535284 -1.90531 5.78643
-0.802364 -1.4429 6.40946
-0.579841 -1.06857 6.2998
-0.137069 -1.43787 6.44869
-0.327222 -2.11662 5.92294
-0.367454 -1.22243 6.28415
-0.807705 -1.94691 6.15229
-0.694251 -0.960403 6.47404
-0.748459 -1.23956 6.52541
-0.61936 -1.31182 6.31779
-0.0945326 -2.23984 5.92971
-0.320515 -0.448449 6.7726
-0.373288 -1.6682 6.07932
-0.232701 -1.82563 6.02588
-0.550664 -0.508214 6.76242
-0.275412 -0.84875 6.50259
0.0521723 -1.99104 6.2217
-0.134585 -2.02089 6.05383
-0.659449 -1.58726 6.2845
-0.541536 -2.19244 6.04609
-0.13844 -2.42917 6.11632
0.0694355 -2.21424 6.13188
-0.348384 -1.52446 6.26237
-0.188251 -1.662 6.36852
-0.0214592 -1.84669 6.40086
-0.372502 -2.39681 6.21829
-0.155357 -1.85663 6.23704
-0.109959 -1.75693 6.55021
-0.67387 -2.39714 6.17469
-0.540494 -1.90247 5.79614
-0.203314 -1.56867 6.61816
-0.262397 -0.237565 6.65756
-0.0140858 -2.42469 6.34321
0.151547 -2.27219 6.4427
0.126123 -2.04016 6.43759
-0.35646 -1.12834 6.76511
-0.395325 -1.29201 6.67089
