ply
    format ascii 1.0           
    element vertex 32
    property double x           
    property double y           
    property double z           
    end_header
-0.122141 -0.527636 1.25068
-0.104265 -0.418232 1.28037
-0.119064 -0.391146 1.30968
-0.10524 -0.488029 1.25966
-0.0925489 -0.558953 1.25017
-0.181549 -0.583097 1.24661
-0.123693 -0.361239 1.35955
-0.0815311 -0.358955 1.3639
-0.186883 -0.541836 1.24909
-0.148389 -0.493389 1.27028
-0.171464 -0.509496 1.24493
-0.129885 -0.456012 1.2807
-0.146868 -0.558359 1.2473
-0.21729 -0.603317 1.28216
-0.16834 -0.453843 1.30948
-0.142643 -0.419349 1.30088
-0.0759982 -0.488144 1.29047
-0.088358 -0.409878 1.32697
-0.0777112 -0.449329 1.30306
-0.182081 -0.488578 1.3016
-0.0826794 -0.526427 1.27559
1.73192 7.01391 -18.5276
-0.0618198 -0.438187 1.33978
-0.0739627 -0.408464 1.36973
-0.0654166 -0.519998 1.31525
-0.0796097 -0.578324 1.32173
-0.166711 -0.622468 1.25871
-0.0627306 -0.480664 1.34426
-0.0902752 -0.590533 1.28281
-0.089891 -0.620977 1.3176
-0.0981926 -0.548592 1.34527
-0.077077 -0.452902 1.37552
