ply
    format ascii 1.0           
    element vertex 34
    property double x           
    property double y           
    property double z           
    end_header
-3.09431 -5.7235 21.7271
-3.48065 -5.46586 23.1362
-3.34261 -2.82717 21.1635
-4.20765 -2.77984 22.2761
-1.28054 2.28334 22.7466
-3.09277 0.223175 21.8258
-3.17659 -0.920222 22.1787
-2.82294 -3.38769 20.3051
-1.79672 1.92223 23.6752
-3.81464 -4.81306 22.1474
-2.76837 0.918564 22.6993
-4.07896 -3.74239 22.4832
-3.0388 -0.093369 22.998
-2.93006 -1.124 23.4612
-3.14958 -1.65935 21.172
-3.39175 -2.06322 22.253
-3.16134 -2.13945 23.3976
-3.49938 -3.83459 21.5103
-0.810058 -4.73848 20.843
-2.08323 -0.261062 21.3762
-2.12474 -1.27629 20.9143
-2.30903 -2.37581 20.6097
-0.644719 -0.794931 21.5177
-1.15021 0.326513 21.4754
-1.82568 -4.06627 20.5144
-1.89231 0.74981 22.125
-0.811277 -3.56669 20.9571
-1.22444 -1.91394 20.9166
-0.791509 1.11266 22.4375
-0.701915 -2.76339 21.9196
-0.414589 0.000342772 22.1549
-0.844055 -0.73253 21.4134
-0.442099 -1.7589 22.8033
-0.268203 -1.07814 21.9116
