ply
    format ascii 1.0           
    element vertex 36
    property double x           
    property double y           
    property double z           
    end_header
-0.0488713 0.267324 3.48609
-0.0921487 0.532099 3.76851
-0.141179 0.127989 3.50199
-0.119628 -0.159828 3.41121
-0.0573197 -0.00624546 3.4306
-0.30738 -0.0966516 3.39754
-0.346449 -0.380259 3.4254
-0.00712685 -0.276038 3.40966
-0.359837 -0.21928 3.42006
-0.189603 0.266069 3.58906
-0.460253 -0.44171 3.53953
0.066055 0.536002 3.76128
-0.212767 -0.280053 3.42121
-0.212408 -0.0189735 3.478
-0.276865 0.141469 3.62446
-0.0933273 0.384405 3.58465
-0.328754 0.00718018 3.59387
-0.283295 -0.530315 3.48025
-0.420277 -0.293774 3.53039
0.0131402 -0.38026 3.54051
0.0576985 0.163498 3.57012
0.0374482 -0.139321 3.48945
0.0632271 0.0132148 3.53202
0.0233841 -0.479257 3.68399
0.0272575 0.320946 3.64671
0.129184 0.0703943 3.71412
0.102605 -0.0914447 3.63771
0.0931699 0.353866 3.79399
0.0584086 -0.319202 3.69126
0.13931 0.224729 3.68381
0.0213198 -0.18901 3.76027
0.0979757 0.190945 3.82333
0.083158 0.0381659 3.82816
0.126889 0.074729 3.71539
-0.0469695 -0.0182873 3.86915
0.015976 0.286776 3.88426
