ply
    format ascii 1.0           
    element vertex 42
    property double x           
    property double y           
    property double z           
    end_header
0.231204 0.100409 1.76901
0.269977 -0.250993 1.62449
0.158503 -0.264748 1.61404
0.208904 -0.125903 1.66662
0.218596 0.00961428 1.72401
0.26952 -0.0232817 1.70307
0.06873 -0.402109 1.61791
0.261694 -0.17868 1.64977
0.146457 -0.397318 1.59164
0.192892 -0.2032 1.64524
0.221331 -0.281941 1.58383
0.196578 -0.450836 1.60428
0.235219 -0.393749 1.59237
0.287402 0.0243506 1.7577
0.36388 -0.420804 1.65392
0.206909 -0.0572644 1.70184
0.29392 -0.411172 1.62019
0.187504 -0.342867 1.59543
0.264697 -0.334274 1.61896
0.0699083 -0.35181 1.67041
0.339071 -0.35694 1.64094
0.26765 -0.490837 1.63127
0.263338 -0.0999696 1.7105
0.309202 -0.296168 1.66804
0.103765 -0.283948 1.65504
0.307462 -0.15617 1.70605
0.13286 -0.452888 1.64761
0.306179 -0.221205 1.68633
0.142712 -0.163126 1.69114
0.321112 -0.480616 1.68344
0.367953 -0.44331 1.72865
0.317806 -0.275972 1.74026
0.28586 -0.049757 1.76674
0.281485 -0.0918693 1.81992
0.311826 -0.32746 1.76019
0.190056 -0.452612 1.60691
0.280723 -0.0192566 1.83229
0.305576 -0.132675 1.76351
0.306818 0.0187551 1.74806
0.287946 -0.353478 1.71037
0.281833 0.0446011 1.80637
0.270287 -0.0906914 1.82729
