ply
    format ascii 1.0           
    element vertex 54
    property double x           
    property double y           
    property double z           
    end_header
-0.420802 -0.366066 2.78543
-0.469049 -0.875776 2.56065
-0.496244 -0.645953 2.64102
-0.461416 -0.803323 2.5952
-0.444342 -0.751608 2.54604
-0.466011 -0.467418 2.70965
-0.502928 -0.536203 2.70529
-0.529374 -0.713389 2.64296
-0.482897 -0.406518 2.81614
-0.509769 -0.431223 2.87152
-0.555238 -0.796346 2.61971
-0.540841 -0.663784 2.70375
-0.462328 -0.708214 2.60883
-0.376419 -0.849833 2.53106
-0.528415 -0.897268 2.61072
-0.399293 -0.708596 2.51062
-0.438692 -0.527404 2.66773
-0.381006 -0.568471 2.63805
-0.571947 -0.855461 2.66622
-0.40039 -0.66021 2.5527
-0.492297 -0.469151 2.78546
-0.275701 -0.647735 2.66194
-0.226665 -0.841995 2.55119
-0.419364 -0.64053 2.62761
-0.513895 -0.603315 2.72624
-0.203175 -0.78155 2.57833
-0.376521 -0.779773 2.52994
-0.218631 -0.910308 2.5767
-0.300441 -0.82676 2.56512
-0.349126 -0.530974 2.68869
-0.390263 -0.476762 2.68928
-0.343952 -0.436151 2.75926
-0.29447 -0.901122 2.56247
-0.235392 -0.705244 2.68183
-0.191886 -0.760623 2.64625
-0.147351 -0.831612 2.58833
-0.318494 -0.749568 2.56439
-0.323791 -0.591165 2.67446
-0.336044 -0.679987 2.55922
-0.347505 -0.374592 2.79462
-0.453478 -0.593293 2.67024
-0.138334 -0.802217 2.6642
-0.259192 -0.782182 2.62419
-0.350714 -0.648013 2.64668
-0.430452 -0.435345 2.76923
-0.179885 -0.874832 2.6164
-0.338434 -0.528714 2.69486
-0.302503 -0.713627 2.63727
-0.131703 -0.862238 2.6498
-0.324072 -0.538141 2.77944
-0.309402 -0.581699 2.73861
-0.335109 -0.421888 2.84854
-0.301403 -0.637997 2.79908
-0.340941 -0.479426 2.81814
