ply
    format ascii 1.0           
    element vertex 56
    property double x           
    property double y           
    property double z           
    end_header
-3.07554 -2.62461 15.5583
-3.30413 -4.14937 14.9432
-2.41557 -4.53779 14.3009
-3.52062 -4.84968 14.6652
-3.83229 -5.35461 14.9297
-2.97261 -3.58416 15.0173
-3.05391 -1.50384 16.5516
-3.50159 -3.70985 15.4496
-2.42503 -1.21484 16.4898
-3.37148 -5.74688 14.6259
-2.72641 -2.06083 15.7193
-1.92227 -4.18882 14.1066
-1.87867 -5.45836 14.2699
-2.736 -5.61983 14.3373
-2.44556 -2.60011 15.4217
-2.70995 -5.00234 14.6904
-1.98015 -3.76576 14.4549
-3.12099 -2.01335 16.1566
-3.27995 -3.22442 15.7438
-2.65287 -4.16013 14.8523
-2.2813 -3.58773 15.0449
-0.456719 -4.9872 15.0343
-2.64222 -3.17537 15.4104
-1.28726 -5.96073 14.6781
-1.81129 -4.84143 14.2674
-1.94087 -2.99222 15.2771
-1.81428 -1.34678 16.7083
-2.04694 -2.19645 15.6963
-0.644245 -5.49066 14.742
-0.69136 -6.09876 14.9616
-1.28646 -5.30166 14.7064
-1.76067 -1.88091 16.406
-2.60778 -0.88978 17.0196
-0.0588397 -5.45782 15.2267
-1.38967 -4.62426 14.7092
-1.47015 -3.99848 14.6441
-1.15653 -3.76921 15.6491
-1.52669 -3.25108 15.6709
-0.880382 -4.29404 15.8559
-0.512376 -4.82601 15.6817
-1.03439 -4.96284 15.3071
-2.5193 -1.79525 16.2918
-1.67853 -2.7027 15.8544
-0.111008 -5.2141 15.9103
-1.74933 -3.71692 15.3682
-2.83321 -6.09307 14.8297
-0.416207 -5.84224 15.3773
-1.35173 -4.32504 15.3577
-1.73593 -2.79505 16.6122
-1.85614 -1.78678 17.1961
-1.56738 -3.18938 16.2784
-0.093954 -5.76153 15.7861
-1.75599 -3.71373 16.8918
-2.58307 -0.856874 16.9937
-2.04708 -3.79822 14.5239
-0.793112 -4.26911 15.8218
