ply
    format ascii 1.0           
    element vertex 60
    property double x           
    property double y           
    property double z           
    end_header
-0.97689 -1.65844 5.35783
-0.980282 -1.3495 5.67502
-1.0202 -1.20783 5.59185
-1.02636 -1.22117 5.68549
-0.920855 -1.42422 5.50366
-0.946864 -2.20406 5.13721
-0.962154 -2.08752 4.96773
-0.944506 -2.19989 5.52041
-0.958444 -1.94904 5.0146
-0.982982 -1.96916 5.22884
-0.958697 -2.13763 5.27419
-0.95698 -2.13213 5.41562
-1.00738 -1.85265 5.33377
-0.876002 -1.26784 5.54078
-0.94091 -2.26424 5.40788
-0.812764 -1.95531 4.81471
-0.968825 -1.73477 5.45106
-0.896957 -1.86272 4.9074
-1.00656 -1.08557 5.66598
-0.851969 -2.11824 4.85191
-0.846377 -1.59919 5.30732
-0.927026 -2.05528 5.11446
-0.948913 -1.83651 5.20164
-0.885862 -1.11674 5.5871
-0.866439 -2.20468 4.98951
-1.00763 -1.64773 5.55268
-0.907936 -1.98852 4.88912
-0.803516 -1.43847 5.43154
-0.917452 -1.54905 5.58405
-0.73881 -2.30616 4.98671
-0.911835 -1.57682 5.44256
-0.748968 -1.74821 5.15173
-0.843629 -1.76982 5.25091
-0.654381 -1.67898 5.22553
-0.824983 -2.2903 5.1176
-0.611872 -1.77129 5.12807
-0.860955 -1.03568 5.70422
-0.355752 -2.05637 5.04852
-0.352148 -2.20359 5.07042
-0.799498 -1.42886 5.43151
-0.441337 -1.86971 5.15115
-0.996938 -1.08695 5.70591
-0.497557 -2.08961 5.04054
-0.710599 -2.0486 4.85703
-0.727252 -2.17987 4.91677
-0.611798 -1.63132 5.41601
-0.746728 -1.56328 5.40233
-0.436695 -2.29955 5.1911
-0.453446 -2.00608 5.15331
-0.614231 -2.21728 5.02808
-0.583078 -1.94361 5.06642
-0.703042 -1.91972 4.9203
-0.701872 -1.46507 5.54182
-0.812006 -1.87121 5.02417
-0.822858 -1.40853 5.61671
-0.364439 -1.93589 5.26563
-0.642275 -2.08023 4.99017
-0.557614 -1.77327 5.26083
-0.69541 -1.59447 5.54108
-0.576083 -2.30524 5.25403
