ply
    format ascii 1.0           
    element vertex 44
    property double x           
    property double y           
    property double z           
    end_header
-1.09203 -1.81434 7.51565
-1.20394 -2.68867 6.90199
-1.08854 -2.57214 6.76379
-0.774984 -2.04359 7.22222
-1.08552 -2.33432 6.98198
-0.760434 -2.31315 7.01696
-1.11549 -2.76987 6.70628
-0.99544 -1.89691 7.33145
-0.900572 -1.73152 7.39231
-1.12661 -2.16905 7.23482
-0.926168 -2.75962 6.59692
-1.13119 -3.03668 6.80476
-0.961012 -2.10508 7.28224
-1.09636 -2.52966 6.96315
-1.16222 -2.46232 7.15066
-0.845668 -2.22377 7.16296
-0.934259 -2.43166 6.88684
-0.78111 -1.91952 7.36781
-0.955722 -2.92066 6.73918
-0.639302 -2.20845 7.20075
-1.17578 -2.64629 7.29813
-0.893784 -2.60586 6.72488
-1.20043 -2.31971 7.29507
-0.447841 -2.79222 7.07076
-0.798623 -1.62674 7.70399
-0.755079 -2.48032 6.93003
-0.514564 -2.92856 6.94338
-0.640855 -2.79685 6.88798
-0.962011 -3.1308 6.84255
-0.715919 -3.18124 7.03562
-0.537094 -3.10141 7.03228
-0.740579 -1.78911 7.52761
-0.626252 -2.60556 7.0338
-0.754588 -2.92095 6.7883
-0.580861 -2.40746 7.25327
-1.14377 -2.06883 7.33943
-0.772511 -2.71709 6.80458
-1.01373 -2.27706 7.13027
-0.415637 -3.03863 7.1697
-0.702291 -2.1293 7.44982
-0.617397 -2.57996 7.21987
-0.419852 -2.8587 7.2556
-0.735233 -1.97802 7.5042
-0.696059 -2.30823 7.54824
