ply
    format ascii 1.0           
    element vertex 48
    property double x           
    property double y           
    property double z           
    end_header
-2.38305 -1.19018 10.5696
-0.928345 0.726644 11.7553
-2.14315 -0.353319 11.2874
-2.03102 -1.8353 9.91935
-2.53098 -1.87303 10.3988
-1.9545 0.603296 12.5745
-2.59946 -1.58851 11.1063
-2.44662 -2.79177 10.7364
-1.513 1.23435 12.3407
-1.1443 1.82965 12.4762
-1.64376 1.54888 13.0119
-2.20148 -0.789203 11.9308
-2.03935 0.240181 12.1313
-2.14088 -2.45451 11.9433
-1.91216 0.277769 13.0661
-1.19289 0.100128 11.6318
-1.08531 -0.226138 11.0759
-2.17561 -1.04957 11.232
-1.80548 -1.28419 10.2713
-2.52366 -2.2091 10.8897
-1.45958 0.507641 12.1276
-2.19784 -2.0555 12.3974
-1.9516 -2.36831 10.3761
-1.76597 -0.677902 10.8286
-0.768457 1.19442 12.2559
-0.497575 0.185418 11.5504
-1.1458 -0.809566 10.796
-2.08524 -0.33366 12.624
-1.84051 -3.10408 10.7158
-0.321744 -2.29996 10.5576
-0.804622 -1.86278 10.5238
-0.260892 -2.8948 10.871
-1.25871 -2.31894 10.314
0.0148689 -1.79514 10.8827
-0.607383 -1.19922 10.9771
-0.808882 -3.20892 11.072
-1.31198 -1.63012 10.3897
-0.228994 -0.471243 11.6193
-0.464307 1.70278 12.7037
-0.474 2.28956 13.3799
0.287285 -2.6126 11.1161
0.353294 -1.96935 11.3751
-0.400149 0.480855 12.3724
-0.347727 -1.09481 11.5982
-0.477965 1.00488 12.6607
-0.230748 -0.102018 12.7532
-0.351534 1.42104 13.3455
-0.755506 -0.550438 11.4243
