ply
    format ascii 1.0           
    element vertex 51
    property double x           
    property double y           
    property double z           
    end_header
0.260285 -0.925012 9.56323
-0.400011 1.36338 10.2016
0.0139581 2.66003 10.5907
-1.02291 -1.14725 10.0273
-0.516042 -0.92329 9.8652
-0.186404 2.15933 10.5752
-1.18685 -0.2463 10.3913
-0.80893 0.118998 9.77755
0.287106 1.37446 10.1704
-0.122921 -1.28957 9.69317
0.461259 -0.426255 9.73879
-0.824371 -0.39265 9.95234
-1.63169 -0.500341 10.5594
-0.0948338 1.75586 10.1875
-0.52382 1.80759 10.8368
0.33694 2.14072 10.3512
-0.336437 -0.296344 9.65724
0.140106 0.534026 10.0126
0.674116 0.377591 9.9633
-0.267599 0.212291 9.84095
1.37844 -0.308161 9.99448
0.897068 -0.143841 9.96094
-1.57567 -0.879061 10.905
-0.533577 -1.77532 10.794
-0.621137 0.604895 10.7166
-0.21809 0.716099 10.3809
0.230478 -0.0028903 9.98641
0.485914 0.834306 10.2405
0.519287 1.76465 10.6919
1.20684 -1.38014 10.8012
0.892641 0.791788 10.4845
0.915874 -1.0683 10.4542
1.05356 0.365241 10.3132
1.53628 -0.584063 10.3696
0.615785 1.26507 10.5269
0.59462 -1.90399 11.1984
0.322698 2.84126 11.1166
-1.1654 -0.745497 10.3029
1.18841 -0.101381 10.4508
1.47216 -0.911248 10.7943
0.630075 -1.00256 9.99307
0.381278 2.3321 10.8921
1.18792 -1.38431 10.8026
0.289519 2.12652 11.357
1.43553 -0.54613 11.1044
0.42732 1.60347 11.1271
-0.0143713 2.64608 10.6178
0.96567 0.411348 10.8222
1.21697 -0.796816 10.2224
0.0780803 -1.83352 11.1362
1.36184 -1.16601 11.1478
