ply
    format ascii 1.0           
    element vertex 47
    property double x           
    property double y           
    property double z           
    end_header
-0.400721 -0.342431 3.0173
-0.441616 -0.718432 2.85524
-0.380069 -0.579126 2.84478
-0.342826 -0.649357 2.82482
-0.432118 -0.434315 2.91459
-0.452622 -0.580493 2.87085
-0.568391 -0.54802 2.93958
-0.460476 -0.502594 2.90822
-0.311463 -0.55444 2.85821
-0.602433 -0.73019 2.99976
-0.511319 -0.452131 2.90182
-0.360404 -0.495152 2.95181
-0.344913 -0.369787 3.07585
-0.395124 -0.542161 2.90525
-0.514756 -0.579009 2.91405
-0.494553 -0.406195 2.9522
-0.420588 -0.646306 2.8365
-0.506078 -0.723575 2.91459
-0.478449 -0.365925 3.02323
-0.266977 -0.635893 2.8542
-0.563386 -0.789239 2.97984
-0.328943 -0.721196 2.88501
-0.53567 -0.704078 2.99039
-0.476514 -0.65073 2.91037
-0.418358 -0.817245 2.98677
-0.597233 -0.838191 3.04663
-0.544856 -0.476809 2.95926
-0.478985 -0.783957 2.97756
-0.390428 -0.286626 3.06726
-0.49941 -0.36546 3.09109
-0.425161 -0.403108 2.97975
-0.444533 -0.33061 3.07645
-0.432684 -0.293686 3.12503
-0.378501 -0.253218 3.15059
-0.373012 -0.419608 3.02535
-0.336265 -0.362495 3.06608
-0.338582 -0.489399 3.04023
-0.337455 -0.643908 2.82153
-0.304011 -0.546566 2.85129
-0.322168 -0.293988 3.1731
-0.257616 -0.622007 2.8358
-0.239351 -0.549881 2.82457
-0.353875 -0.310031 3.12029
-0.236382 -0.621869 3.0665
-0.261246 -0.734152 2.97086
-0.205072 -0.529523 2.87382
-0.329142 -0.727151 2.87665
