ply
    format ascii 1.0           
    element vertex 48
    property double x           
    property double y           
    property double z           
    end_header
-0.846819 -4.32482 16.562
-2.19002 -3.56933 10.3329
-2.86565 -1.87807 11.7863
-1.6312 -4.15177 15.3161
-3.46281 0.444972 12.0548
-2.78866 -3.28666 11.515
-2.83536 -1.34298 12.9177
-1.71066 -2.45119 8.48992
-1.96724 -2.97194 15.6312
-2.36776 -4.21839 12.383
-1.39879 -3.3489 9.2631
-1.58611 2.64513 10.4228
-1.02692 -4.32217 10.8728
-3.05114 -0.59335 13.6581
-2.39844 -2.70633 12.7649
-2.58245 -2.26142 10.6062
-2.17839 -3.7354 13.6905
-1.90933 -1.99278 9.56276
-0.864166 -4.33417 14.0235
-2.74361 0.589047 10.8789
-2.79399 -0.395009 11.6032
-1.10914 3.79476 10.2685
-3.0809 0.426005 12.8955
-0.488298 -4.37559 15.5298
-1.42079 -0.20615 10.3918
-0.288156 2.55639 10.1143
-2.06929 -1.195 10.9072
-0.326672 -3.7526 9.63848
0.886197 -3.91767 10.6374
-2.91751 1.49592 11.7954
0.864642 4.35576 10.0132
-0.867546 1.5489 10.6379
-0.0178497 3.79789 10.2325
-2.0041 1.54917 10.9088
-0.0755638 4.94809 10.4193
-0.0614485 0.488908 10.6574
1.74604 -1.54427 10.2004
0.48206 1.74057 10.7645
-0.810119 -1.83481 8.42845
1.03144 -0.424132 10.4025
1.40165 2.5945 11.1693
0.48176 -1.39399 9.79599
-0.192854 -3.69443 9.67105
1.36224 3.94346 11.2576
0.726865 3.0036 10.4748
0.742324 -2.66646 10.0945
-0.00068774 -2.35415 9.15153
1.58453 -2.40087 11.4209
