ply
    format ascii 1.0           
    element vertex 46
    property double x           
    property double y           
    property double z           
    end_header
-0.0652466 -0.350763 1.39958
-0.0693029 -0.132548 1.483
-0.136456 -0.378764 1.42321
-0.0997134 -0.198986 1.43182
-0.152656 -0.202665 1.42544
-0.0821514 -0.301321 1.40427
-0.198495 -0.252179 1.4601
-0.0567695 -0.0934371 1.50751
-0.127701 -0.291545 1.42131
-0.220676 -0.392311 1.49943
-0.0348256 -0.293004 1.4118
-0.11514 -0.339551 1.40483
-0.239543 -0.350703 1.50687
0.00465608 -0.305909 1.39915
-0.124626 -0.238071 1.43497
-0.16693 -0.278319 1.44761
-0.121604 -0.135846 1.49031
-0.0604856 -0.238751 1.46
-0.177582 -0.367341 1.45747
-0.136403 -0.169779 1.45148
-0.0651263 -0.38749 1.44002
-0.0878183 -0.269377 1.43732
-0.194643 -0.340632 1.49786
-0.151803 -0.32759 1.45019
-0.0966722 -0.111886 1.51382
-0.131679 -0.422151 1.50848
-0.247408 -0.40793 1.54181
-0.174707 -0.207473 1.46548
-0.168374 -0.281588 1.44631
-0.0908389 -0.171376 1.466
-0.0352331 -0.146011 1.51894
-0.064671 -0.1809 1.49981
-0.0197022 -0.0910422 1.57928
-0.0148774 -0.343686 1.40861
-0.0472228 -0.0618169 1.55878
0.0216141 -0.290819 1.42814
-0.0397306 -0.103482 1.54674
-0.0547496 -0.227753 1.51937
-0.014174 -0.367838 1.45461
0.00996958 -0.321191 1.46299
0.000833225 -0.313944 1.54575
-0.0282284 -0.268748 1.5419
-0.0422262 -0.18621 1.54726
-0.00950627 -0.342579 1.50112
-0.0273457 -0.140778 1.56166
-0.0513733 -0.168534 1.59692
