ply
    format ascii 1.0           
    element vertex 37
    property double x           
    property double y           
    property double z           
    end_header
-0.189568 -0.0304473 1.2071
-0.175981 -0.225394 1.18256
-0.20937 -0.0893337 1.1874
-0.19967 -0.290332 1.17294
-0.138845 -0.293167 1.19069
-0.137034 -0.226822 1.17896
-0.158815 -0.142225 1.18024
-0.197254 -0.165505 1.18151
-0.115232 -0.326221 1.19179
-0.162221 -0.186763 1.1779
-0.209137 -0.00308539 1.23127
-0.237558 -0.0776047 1.21527
-0.210612 -0.203999 1.20198
-0.207546 -0.250999 1.18812
-0.120409 -0.259031 1.18781
-0.191268 -0.325875 1.23408
-0.231708 -0.270914 1.21588
-0.170778 -0.316655 1.19608
-0.143635 -0.346112 1.21647
-0.211397 -0.157409 1.21938
-0.224106 -0.114276 1.23236
-0.216428 -0.315123 1.20029
-0.0918816 -0.293378 1.19102
-0.161515 -0.0722022 1.19463
-0.119233 -0.152997 1.20259
-0.0919546 -0.336896 1.22399
-0.171208 -0.273146 1.1928
-0.173203 -0.109121 1.1971
-0.107505 -0.192447 1.21326
-0.157981 -0.141321 1.18101
-0.132179 -0.113128 1.19921
-0.208508 -0.128695 1.19788
-0.210958 -0.00194983 1.23013
-0.237566 -0.0775912 1.21535
-0.236303 -0.00158686 1.25989
-0.231549 -0.271755 1.21609
-0.212459 -0.157651 1.2201
