ply
    format ascii 1.0           
    element vertex 62
    property double x           
    property double y           
    property double z           
    end_header
-0.0883597 -0.830949 5.04327
-0.603386 -0.683169 5.15225
0.233254 -1.26472 5.1943
0.0998988 -1.1145 5.15519
-0.0276258 -1.10601 5.44644
0.00906903 -1.08862 5.24772
0.0773909 -1.20283 5.39178
0.12304 -1.15598 5.27818
0.10143 -1.01454 5.0252
-0.480682 -0.772711 5.18929
-0.0258812 -0.952655 5.1003
-0.353447 -0.819628 5.13846
-0.283279 -0.941526 5.20587
-3.91496e-05 -0.946757 4.94747
-0.506638 -0.713846 5.05266
-0.376134 -0.757899 5.00229
-0.165538 -1.02983 5.20648
-0.226576 -0.842989 5.0125
0.168721 -1.12779 5.03305
-0.127817 -0.879256 4.89821
0.125802 -1.15471 4.90119
0.216795 -1.38301 5.22159
-0.729876 -0.708283 5.09838
0.0486198 -1.05223 4.87621
0.145626 -1.27756 5.29014
0.128907 -1.23445 5.13347
-0.399931 -0.886052 4.93741
0.160999 -1.26362 5.01296
-0.078224 -1.01616 4.84343
-0.142641 -1.11037 4.77633
-0.0219083 -1.19245 4.81238
-0.898368 -0.71407 5.21405
-0.517208 -1.05921 4.85816
-0.634271 -0.749824 5.00262
-0.54927 -0.856692 4.96417
-0.0708933 -1.47447 4.78332
-0.199495 -1.45642 4.76928
-0.436476 -1.13166 4.77827
0.0662922 -1.28519 4.88942
-0.263274 -0.986417 4.78057
-0.263874 -0.923035 4.90315
-0.146329 -1.36801 4.83638
-0.0193406 -1.3663 4.83048
0.0093906 -1.60014 4.81712
-0.227246 -1.24671 4.80469
-0.246686 -1.56995 4.77165
-0.127346 -1.60912 4.83705
-0.255389 -1.12381 4.82774
-0.392907 -1.61013 4.865
-0.356505 -1.20181 4.84623
-0.286299 -1.35232 4.84762
-0.505136 -0.71852 5.05346
-0.583056 -0.977918 5.00814
-0.496363 -1.31277 4.98073
-0.368856 -1.04603 4.84731
-0.40618 -1.39084 4.91338
-0.762527 -0.715274 5.23613
-0.747345 -0.820343 5.01776
-0.315394 -1.48552 4.84433
-0.0813974 -0.835847 5.04247
-0.226082 -0.847928 5.01277
-0.604224 -0.696447 5.14985
