ply
    format ascii 1.0           
    element vertex 41
    property double x           
    property double y           
    property double z           
    end_header
-0.230356 -0.501021 1.45212
-0.275816 -0.481711 1.47175
-0.214584 -0.369929 1.45335
-0.236279 -0.339236 1.46112
-0.197137 -0.457886 1.43146
-0.244394 -0.46568 1.46138
-0.241416 -0.301765 1.4737
-0.227951 -0.431016 1.44327
-0.245686 -0.391502 1.48746
-0.22829 -0.248606 1.49795
-0.251298 -0.525249 1.47163
-0.203794 -0.300744 1.45813
-0.173287 -0.372719 1.44917
-0.269115 -0.451159 1.48798
-0.176307 -0.503644 1.46479
-0.21343 -0.403208 1.46538
-0.24814 -0.252576 1.52687
-0.206661 -0.528856 1.46776
-0.164579 -0.312409 1.47333
-0.193674 -0.337946 1.45871
-0.14284 -0.420139 1.46658
-0.181483 -0.424571 1.45293
-0.139559 -0.493105 1.46774
-0.218067 -0.275017 1.48022
-0.186032 -0.276626 1.47974
-0.157446 -0.353899 1.48003
-0.134567 -0.45509 1.48585
-0.107059 -0.482275 1.4877
-0.141319 -0.38893 1.48778
-0.167621 -0.466393 1.46205
-0.211376 -0.235041 1.53446
-0.136743 -0.361422 1.51578
-0.147836 -0.323877 1.50686
-0.165188 -0.520484 1.50594
-0.169258 -0.289558 1.50819
-0.122641 -0.50801 1.51292
-0.133836 -0.395903 1.52483
-0.249784 -0.526277 1.47295
-0.274369 -0.482275 1.47072
-0.242522 -0.465791 1.46343
-0.239078 -0.301681 1.477
