ply
    format ascii 1.0           
    element vertex 38
    property double x           
    property double y           
    property double z           
    end_header
-0.433308 0.60951 3.71888
-0.411865 0.061855 3.72966
-0.391026 -0.335888 3.87041
-0.330736 0.420665 3.66967
-0.0756875 -0.351136 3.8022
-0.453565 -0.460594 4.05096
-0.274514 -0.118616 3.6283
-0.280403 0.816606 3.58187
-0.4404 -0.112029 3.9141
-0.128219 0.387193 3.55534
0.334636 -0.215628 3.71004
-0.221924 0.599106 3.6064
-0.221301 -0.486586 3.9226
0.0813812 0.126263 3.62185
-0.148702 0.0944897 3.66094
-0.0437214 -0.140261 3.71851
-0.0413518 0.755282 3.57615
0.181508 -0.0523926 3.73759
0.12579 -0.294274 3.70651
-0.146148 0.97114 3.61479
0.0255281 0.523748 3.63941
0.135629 0.33448 3.6822
0.325922 -0.329601 3.90415
0.126998 0.725702 3.70616
0.221129 0.526152 3.78718
0.207009 0.164137 3.80162
-0.144008 1.29705 3.88295
0.0939828 -0.40299 3.98396
-0.305625 0.993304 3.68537
-0.318841 1.16863 3.77668
-0.430488 0.842442 3.74867
-0.443102 -0.114266 3.91299
-0.591597 -0.19179 4.05456
-0.282483 0.244727 3.7709
-0.518015 0.00725158 4.07885
-0.514197 -0.308405 4.20158
-0.376009 0.986895 3.9175
-0.589203 -0.115995 4.26592
