ply
    format ascii 1.0           
    element vertex 52
    property double x           
    property double y           
    property double z           
    end_header
-1.2456 5.18179 11.2349
-0.789368 7.12469 10.9613
-2.07061 -3.69268 8.76153
-1.66944 -1.15184 8.56568
-2.94863 -3.96756 10.074
-3.79164 -3.02651 10.7088
-1.63121 4.20865 12.123
-2.8471 -0.184605 10.5027
-2.42173 -4.99889 9.19782
-0.932908 -1.94826 7.72847
-2.68869 -2.62329 9.96658
-1.98343 -2.46649 8.68634
-4.11975 -2.03722 11.6828
-1.1179 2.81054 10.38
-0.232254 4.56079 10.548
-2.50204 -1.21191 9.65655
-1.33741 1.15085 10.6396
-3.17859 -1.67319 10.8301
-1.16274 -5.5923 8.94813
-0.736354 -4.29335 8.50872
-0.42988 0.463776 9.81234
-0.598248 -2.92864 8.51919
-0.183949 1.83422 10.1596
0.528854 -2.11188 8.72217
0.252493 6.60961 11.5996
0.100153 3.29101 10.9599
2.08169 -5.00934 10.908
0.577674 -3.57897 9.11789
0.381344 -4.90376 9.1592
1.23989 -5.58788 11.8113
1.3569 -2.63055 9.63518
0.712912 5.29818 11.1697
2.59885 -3.86312 11.1061
0.750237 1.58861 11.1297
1.29343 0.0196526 10.8922
1.43536 -3.98332 10.5262
0.405099 -0.607557 10.0219
-0.387838 -1.11871 9.10471
1.35734 -1.23794 10.7593
-1.65974 4.26767 12.1822
-1.4973 -0.279553 10.353
-2.44928 -1.16036 9.67597
-2.89718 -3.9384 10.0627
-2.61389 -2.56606 9.96813
-2.15113 0.462382 11.4433
-1.88753 -2.46626 8.69704
-3.36221 -1.32053 12.3622
-1.17755 -5.58587 8.92
-1.81345 2.26354 11.4115
-4.03025 -3.14483 12.0618
-0.683455 6.41323 12.5037
-0.660766 3.54751 12.6881
