ply
    format ascii 1.0           
    element vertex 60
    property double x           
    property double y           
    property double z           
    end_header
-0.932172 -1.55888 14.849
-2.5579 2.65673 14.7568
-4.03753 -1.23597 16.4893
-1.94591 -0.553789 14.9146
-3.02184 -1.55193 16.1272
-1.30735 5.32958 13.9201
-0.158023 -1.38404 13.9463
-0.265591 4.90171 13.6962
-2.7043 0.234897 14.7064
-1.21772 -0.730809 14.0702
-1.33257 3.19539 13.9064
-0.826601 -2.19414 15.7352
-2.7805 -2.5236 16.5832
1.81355 -2.23901 15.4952
0.570675 -2.71493 16.021
-1.44151 0.284584 13.7483
-2.16278 -3.05063 17.3177
-1.92426 -1.98004 15.9665
-2.38726 -0.627081 15.8944
-0.291451 1.17834 13.4801
-2.1475 1.06391 14.1218
0.983204 -0.349538 13.637
0.801873 1.49207 13.5045
-3.54445 -1.97597 17.2148
-0.128334 -0.214901 13.8364
-0.721151 2.20044 13.8419
2.86199 -2.08932 15.2584
-3.29856 -0.308099 16.4199
-0.22261 3.32862 13.7087
-1.68515 2.03542 14.3453
1.02635 -1.61928 16.1837
-0.997474 1.1745 14.2273
1.42367 -3.50093 15.9434
0.421371 2.40956 13.7786
3.26769 -2.24165 16.3003
3.60846 -1.36871 15.6334
-0.52998 6.15174 14.2967
1.36856 -1.29363 14.1699
2.33847 -1.10204 15.1351
0.600023 0.61813 14.1536
0.557964 4.25054 14.2751
-4.25793 -0.220311 17.0293
2.35139 -2.86677 16.3415
0.466259 6.43568 14.9111
1.09577 4.15077 15.2047
0.386283 5.41008 14.4314
0.323053 -3.2973 17.3775
-1.67417 4.06658 14.5631
-2.23173 3.59057 15.3789
-2.70722 1.96843 15.6761
-4.14922 -1.29893 18.1283
-2.43607 -0.629693 15.841
-2.74324 2.93853 15.9773
-2.16472 1.1018 16.3196
-2.00579 1.46457 15.2047
-2.08331 1.77114 17.3928
-1.13534 4.76177 14.9249
-0.54211 5.82929 15.3961
-2.21258 -3.05372 17.2579
-1.62525 3.50344 17.1759
