ply
    format ascii 1.0           
    element vertex 49
    property double x           
    property double y           
    property double z           
    end_header
-0.225914 -0.00808616 1.54374
-0.319381 -0.203091 1.36962
-0.33939 -0.183953 1.44813
-0.254657 -0.078297 1.49433
-0.371311 -0.251546 1.43758
-0.27828 -0.231574 1.34454
-0.216102 -0.118894 1.481
-0.262989 -0.284209 1.35923
-0.13384 -0.293758 1.4591
-0.304344 -0.147029 1.44181
-0.262137 -0.0271424 1.5764
-0.265384 -0.188315 1.37462
-0.332214 -0.257973 1.37831
-0.14686 -0.0975139 1.5322
-0.266835 -0.130003 1.4722
-0.225938 -0.227719 1.38987
-0.173869 -0.000239863 1.56247
-0.256532 -0.160537 1.43232
-0.17243 -0.0513942 1.54366
-0.29429 -0.111106 1.52291
-0.166055 -0.149858 1.49092
-0.243377 -0.0583428 1.54413
-0.204519 -0.0768129 1.5129
-0.212899 0.0225265 1.5871
-0.217249 -0.283803 1.39342
-0.211681 -0.195718 1.43478
-0.159646 -0.253339 1.47485
-0.201365 -0.253808 1.43842
-0.183225 -0.204231 1.48879
-0.147285 -0.0853762 1.5929
-0.159959 0.0129535 1.62199
-0.163951 -0.183537 1.53199
-0.200995 0.0284343 1.6462
-0.26611 -0.317648 1.41599
-0.330336 -0.259086 1.37858
-0.261528 -0.0269973 1.57996
-0.369524 -0.252706 1.43235
-0.383368 -0.29975 1.4474
-0.295726 -0.111148 1.51579
-0.31346 -0.302244 1.42804
-0.293068 -0.188509 1.41628
-0.360798 -0.241386 1.5054
-0.391981 -0.278709 1.54475
-0.24323 -0.0580812 1.54218
-0.322423 -0.231679 1.427
-0.397987 -0.276127 1.49081
-0.326551 -0.180206 1.5073
-0.199573 0.0277561 1.63423
-0.234834 -0.0702655 1.61415
