ply
    format ascii 1.0           
    element vertex 63
    property double x           
    property double y           
    property double z           
    end_header
-0.383395 -0.651876 4.9524
-0.64227 -1.48183 4.42984
-0.172978 -1.64119 4.28134
-0.242164 -1.00204 4.77464
-0.480284 -1.6574 4.35384
-0.417306 -0.815938 4.86476
-0.0525424 -1.52961 4.3257
-0.379526 -1.55267 4.32439
-0.165887 -1.10773 4.73155
-0.0969286 -1.41642 4.40143
-0.311405 -1.4222 4.38437
-0.209942 -1.35704 4.4576
-0.219213 -0.913199 4.87659
-0.466518 -1.46134 4.40581
-0.271706 -0.603237 5.02053
-0.284267 -1.2516 4.524
-0.381007 -1.18951 4.60249
-0.108635 -1.79889 4.39873
0.0405314 -1.5914 4.4248
-0.315146 -0.777801 4.93951
-0.379498 -1.32085 4.45425
-0.210635 -1.53544 4.3731
-0.432331 -1.02612 4.82489
-0.446124 -1.12415 4.70394
-0.0676004 -1.23823 4.76916
-0.061819 -1.68111 4.36993
0.00698049 -1.44621 4.48388
-0.117697 -1.02147 4.87307
-0.18937 -1.23342 4.68021
-0.300012 -1.15453 4.69971
-0.156739 -1.30455 4.57562
-0.00414291 -1.7718 4.50362
-0.208214 -0.828638 4.95258
-0.200876 -0.676135 5.12221
-0.123232 -0.97229 5.01772
-0.48145 -0.929281 4.90429
-0.393241 -0.576237 5.06759
-0.553533 -1.41105 4.57728
-0.482262 -1.66069 4.35338
-0.38789 -0.65242 4.95348
-0.577536 -1.29756 4.65853
-0.576786 -1.26178 4.80897
-0.467584 -0.700728 5.04791
-0.450405 -1.30942 4.57572
-0.573308 -1.73248 4.44813
-0.352037 -1.03998 4.73773
-0.635738 -1.43886 4.70785
-0.513953 -0.820604 5.11484
-0.204663 -0.723575 5.00261
-0.0899081 -1.41107 4.3904
-0.23391 -0.997611 4.76571
-0.270706 -0.606715 5.0199
-0.313526 -0.779086 4.93997
-0.152167 -1.30603 4.57169
-0.0608041 -1.24031 4.76486
-0.183721 -1.23076 4.67253
-0.113551 -1.02707 4.87022
-0.199441 -0.830849 4.94926
0.0154751 -1.44593 4.47858
-0.192921 -0.680759 5.12214
0.0528957 -1.58555 4.41224
-0.114236 -0.98587 5.00445
-0.0833731 -1.22094 4.91472
