ply
    format ascii 1.0           
    element vertex 48
    property double x           
    property double y           
    property double z           
    end_header
-0.28336 -0.394974 1.20158
-0.231393 -0.321451 1.17478
-0.1926 -0.150414 1.23838
-0.231737 -0.496862 1.21332
-0.221012 -0.102121 1.25598
-0.215516 -0.204444 1.20147
-0.177009 -0.397615 1.14982
-0.234618 -0.247639 1.2177
-0.215418 -0.277852 1.17174
-0.212815 -0.422808 1.15063
-0.199556 -0.372733 1.17226
-0.239005 -0.415303 1.18016
-0.239126 -0.213062 1.2351
-0.253694 -0.44737 1.1943
-0.302324 -0.414598 1.22962
-0.248776 -0.332035 1.2137
-0.235975 -0.180777 1.26287
-0.271886 -0.445962 1.2328
-0.243136 -0.306238 1.24102
-0.236177 -0.113385 1.29936
-0.220919 -0.298272 1.21118
-0.207713 -0.183894 1.23384
-0.241034 -0.221345 1.28105
-0.176659 -0.103057 1.26723
-0.186108 -0.322917 1.17313
-0.244859 -0.386794 1.21378
-0.174898 -0.20134 1.21283
-0.133727 -0.390005 1.15716
-0.151648 -0.330904 1.188
-0.163652 -0.271996 1.17505
-0.114196 -0.362522 1.19353
-0.151964 -0.233666 1.2289
-0.171402 -0.163272 1.26389
-0.0996969 -0.411856 1.17595
-0.115097 -0.44884 1.1574
-0.210296 -0.077394 1.28932
-0.117995 -0.315366 1.23154
-0.206471 -0.185333 1.23313
-0.157868 -0.196216 1.25306
-0.252989 -0.447317 1.19502
-0.238064 -0.212156 1.2368
-0.271697 -0.446478 1.23313
-0.300246 -0.415139 1.23233
-0.210704 -0.160483 1.28748
-0.247092 -0.332584 1.21634
-0.234715 -0.18021 1.26484
-0.243357 -0.36019 1.25332
-0.240587 -0.305869 1.24371
