ply
    format ascii 1.0           
    element vertex 59
    property double x           
    property double y           
    property double z           
    end_header
0.49359 -0.0720566 1.78082
0.295486 0.105223 1.64208
0.214558 0.463042 1.79134
0.289422 -0.0192136 1.68127
0.183261 0.286453 1.75515
0.209713 0.11454 1.58159
0.431147 0.00737458 1.78679
0.136141 0.550399 1.84319
0.35305 -0.0621907 1.77539
0.137652 0.0299774 1.59489
0.232897 0.0359253 1.62543
0.419515 -0.132785 1.79952
0.0939658 0.340315 1.74841
0.121176 0.468915 1.79101
0.0224991 -0.129991 1.76458
0.127273 0.214656 1.7248
0.176505 -0.1485 1.77286
-0.00842197 0.280906 1.79674
0.177889 -0.0455442 1.68498
0.263066 -0.105157 1.73738
0.311419 -0.183729 1.82627
-0.0186889 -0.200738 1.84003
0.0979037 -0.205566 1.81851
0.12644 0.127084 1.62404
0.0279796 0.189814 1.77702
0.057897 -0.027787 1.74757
0.215338 -0.195729 1.85584
-0.119148 0.13489 1.86205
-0.0876418 0.0315646 1.84543
0.049527 0.133852 1.69667
0.0180735 0.0492519 1.75028
-0.0999664 -0.0515873 1.92177
-0.156695 0.0592091 1.91813
-0.0245563 0.108041 1.82271
-0.0138609 -0.0826531 1.85508
0.0596486 0.445773 1.86171
-0.040929 0.19924 1.85438
-0.147834 -0.0754805 2.00636
-0.177943 0.0166451 2.05994
0.110079 0.0441889 1.69577
-0.0426384 -0.228495 1.9606
-0.194673 -0.0563561 2.12233
-0.129226 -0.129596 2.08749
0.181353 0.285659 1.75705
0.420715 -0.132922 1.80158
0.10555 -0.0931639 1.81165
0.354341 -0.0608035 1.77698
0.430749 0.00788686 1.79075
0.164514 0.378674 1.80493
0.489126 -0.122029 1.87055
0.230945 0.3209 1.83453
0.330453 0.0357473 1.74468
0.516926 0.00991455 1.84784
0.210392 0.434417 1.92589
0.296519 0.252022 1.83985
0.394161 -0.171178 1.87751
0.295118 -0.228901 1.92269
0.126095 0.126139 1.61885
0.296241 0.108155 1.64645
