ply
    format ascii 1.0           
    element vertex 55
    property double x           
    property double y           
    property double z           
    end_header
-0.820289 -1.08804 10.8575
0.226828 0.404944 9.85046
0.819191 -1.17253 11.4632
1.43237 -0.811745 11.3695
-0.120729 2.4574 10.9503
0.697378 -0.271096 10.5354
-0.136753 -0.123672 9.90923
1.82733 -0.419516 11.2774
0.372127 -0.010176 10.1689
0.554287 -0.781107 10.8838
0.073823 -0.51851 10.4835
-0.70354 1.66744 10.6579
-0.174117 1.41301 10.7948
-0.369568 -1.4609 11.2505
0.278057 -1.3201 11.5604
-1.06775 -1.50454 11.3036
0.0671564 -1.08036 11.0287
-0.660485 2.42467 10.8729
-0.398011 -0.816045 11.1999
-0.664627 -0.482881 10.7724
-1.60938 -0.212739 11.2056
-1.86062 0.356181 11.2452
-0.288925 0.432062 10.0397
-0.948261 -0.056722 10.6948
-1.25813 -1.66014 11.9467
-1.28241 1.26412 10.91
-0.994782 0.748883 10.8386
-1.45821 0.783483 11.2463
-1.67977 -0.682857 11.596
-2.07285 -0.0861056 11.5764
-0.656018 2.91753 11.1692
-0.377789 -0.0378451 10.4754
-1.27974 0.262867 11.092
-1.53732 -1.2088 11.5717
-2.26669 -0.319862 12.3487
-1.99492 -0.837436 12.0995
-1.04416 2.27895 11.2705
-0.9862 1.70463 11.1545
-1.11592 -0.822519 11.3316
-2.36277 -0.741352 12.7235
-0.412874 0.952379 10.5787
-0.756748 0.450915 10.4223
0.338153 0.855714 10.7752
0.681828 0.429397 10.2756
1.41361 -0.00717825 11.2495
1.86237 0.0676239 11.6112
0.700005 -0.284424 10.5395
0.450642 1.31948 11.3509
1.0286 -0.445588 11.1446
0.860633 0.0899661 10.8486
0.259948 -1.29319 11.4691
-0.381292 1.94437 11.057
0.035518 1.615 11.2738
0.570806 0.811181 11.2594
-1.59481 -0.211953 11.2622
