ply
    format ascii 1.0           
    element vertex 36
    property double x           
    property double y           
    property double z           
    end_header
-0.186266 -0.340762 1.33431
-0.107273 -0.44577 1.32086
-0.264181 -0.535697 1.36
-0.14453 -0.235796 1.35905
-0.170109 -0.444772 1.32419
-0.165832 -0.173539 1.36851
-0.0561461 -0.555429 1.39227
-0.132398 -0.293415 1.34666
-0.132387 -0.358741 1.41434
-0.0854748 -0.591827 1.37087
-0.114589 -0.191406 1.40071
-0.135793 -0.499483 1.32544
-0.171741 -0.594597 1.36028
-0.104897 -0.501883 1.38541
-0.108536 -0.249908 1.41035
-0.112652 -0.303992 1.44017
-0.0316944 -0.546406 1.44415
-0.0755454 -0.428022 1.36915
-0.235235 -0.593807 1.37463
-0.182397 -0.393926 1.36351
-0.205605 -0.544122 1.36639
-0.213185 -0.478488 1.3283
-0.129538 -0.570066 1.3826
-0.220216 -0.433591 1.35649
-0.184023 -0.283697 1.37166
-0.229866 -0.38345 1.39296
-0.191915 -0.213998 1.39757
-0.265582 -0.484571 1.38834
-0.136265 -0.420507 1.36466
-0.113858 -0.191299 1.40128
-0.0550552 -0.554325 1.3913
-0.131462 -0.359346 1.4101
-0.106626 -0.251739 1.40805
-0.0755824 -0.517461 1.4343
-0.103084 -0.498928 1.381
-0.111825 -0.300439 1.43475
