ply
    format ascii 1.0           
    element vertex 31
    property double x           
    property double y           
    property double z           
    end_header
-0.944095 2.77885 8.6332
-2.32766 0.481455 7.66852
-1.51841 1.33082 7.52616
-0.0177122 -0.591641 7.24831
-0.316296 4.38818 10.0019
-1.21391 -0.310271 7.13223
-0.940558 1.6463 7.75732
-0.174445 3.72753 9.50626
-2.08522 -0.362809 7.38091
-0.689672 3.78028 10.204
-0.127882 3.17313 8.95618
-0.136268 1.61182 7.61727
-1.56175 0.252048 7.60462
-0.615476 0.97687 7.40162
-0.71465 3.11911 9.4609
-0.962856 1.99133 8.58731
0.254823 0.0103944 8.39564
-0.160998 0.546299 8.0478
0.197863 2.47078 10.0146
0.318142 3.97782 10.2005
0.346775 1.47673 8.24812
-0.570432 -0.267568 7.46193
0.307103 3.24597 9.89108
0.796415 -0.528482 8.36711
0.426932 -0.339909 7.75393
0.340034 3.96859 10.1775
-1.5417 1.57775 8.31668
-2.26588 0.851311 8.41016
-1.31389 2.62467 9.25235
-0.398898 1.67169 8.33041
-2.55625 -0.465787 8.0599
