ply
    format ascii 1.0           
    element vertex 40
    property double x           
    property double y           
    property double z           
    end_header
0.296099 -0.395817 0.631756
0.323317 0.0783153 0.765114
0.313514 -0.284854 0.651276
0.237655 0.0939599 0.72228
0.278185 0.0727928 0.738676
0.301088 -0.111795 0.716814
0.305008 -0.164739 0.702563
0.31023 0.027441 0.731367
0.326193 -0.241042 0.670255
0.349877 0.137254 0.709327
0.268536 -0.0683344 0.747115
0.34548 -0.0184631 0.730152
0.356937 0.0344284 0.722173
0.338328 -0.407837 0.612564
0.347899 -0.142873 0.714741
0.419554 0.123362 0.674323
0.30393 -0.0398156 0.758438
0.35878 -0.0647464 0.714199
0.397775 0.0611152 0.713918
0.35096 -0.333423 0.592829
0.3559 0.085743 0.723444
0.376849 0.144587 0.666984
0.423415 0.0717625 0.672171
0.372572 -0.210508 0.663784
0.376547 -0.0512893 0.672654
0.261645 0.0170689 0.737625
0.316676 -0.334062 0.644898
0.236133 0.0940234 0.722159
0.349227 0.138306 0.707176
0.303196 -0.0409226 0.758659
0.314159 -0.286451 0.65201
0.277445 0.0737034 0.739412
0.263158 -0.19045 0.677841
0.301019 -0.208712 0.684061
0.249667 -0.0382375 0.753847
0.339176 -0.410165 0.608817
0.223625 0.0223318 0.688037
0.221381 0.13821 0.715177
0.267552 -0.067862 0.747052
0.277644 -0.423061 0.580395
