ply
    format ascii 1.0           
    element vertex 53
    property double x           
    property double y           
    property double z           
    end_header
0.189484 -0.169482 1.51313
0.156988 -0.0893529 1.573
0.280813 -0.408989 1.47965
0.299331 -0.369056 1.50334
0.183716 -0.231657 1.45987
0.199471 -0.375079 1.44071
0.218881 -0.326415 1.44622
0.156027 -0.132727 1.54878
0.229006 -0.414986 1.4655
0.193916 -0.283866 1.45888
0.156539 -0.198784 1.48792
0.153727 -0.422893 1.46631
0.19817 -0.45892 1.46137
0.127439 -0.236518 1.46519
0.154266 -0.350137 1.45546
0.120781 -0.305466 1.48262
0.117029 -0.455727 1.48897
0.0610335 -0.0897747 1.53425
0.147407 -0.489056 1.51058
0.170816 -0.319992 1.49451
0.10656 -0.139295 1.55224
0.131158 -0.380873 1.50175
0.153873 -0.270796 1.48553
0.107357 -0.260513 1.50998
0.105451 -0.201999 1.5018
0.0717139 -0.102199 1.61414
0.298897 -0.367831 1.50191
0.31613 -0.439385 1.55205
0.239013 -0.466159 1.49972
0.270374 -0.433792 1.52387
0.224596 -0.256055 1.48752
0.194369 -0.503299 1.49441
0.247216 -0.364716 1.461
0.190684 -0.167418 1.5114
0.261976 -0.335853 1.49115
0.0665415 -0.0947064 1.52884
0.315992 -0.402712 1.59309
0.158706 -0.19985 1.48622
0.293232 -0.391109 1.54585
0.229253 -0.255286 1.53642
0.229159 -0.303536 1.5036
0.161259 -0.0861072 1.56707
0.158546 -0.130782 1.5448
0.314781 -0.449907 1.60847
0.213264 -0.215078 1.50719
0.25043 -0.299224 1.5524
0.146815 -0.0436944 1.5961
0.121149 -0.0592235 1.55334
0.211156 -0.193487 1.556
0.272052 -0.343592 1.54186
0.156841 -0.134261 1.59663
0.141348 -0.0921589 1.60863
0.180271 -0.181124 1.60632
