ply
    format ascii 1.0           
    element vertex 42
    property double x           
    property double y           
    property double z           
    end_header
0.151837 0.678794 3.14339
0.196426 0.831997 3.17314
0.123178 -0.450242 3.10624
-0.00314915 -0.00600884 3.04245
0.0406246 0.335132 3.04772
0.0300255 0.159073 3.08089
-0.0969384 -0.390847 3.07453
0.0280308 0.801963 3.13457
0.0329383 -0.300705 3.0915
0.0493257 0.519939 3.1402
-0.142067 0.108313 2.99386
0.204222 -0.665691 3.29846
-0.166063 -0.06657 3.04151
-0.161859 -0.238393 3.02338
-0.00649708 -0.559748 3.12941
0.00244279 -0.139049 3.12211
-0.273292 -0.364332 3.09609
-0.321691 -0.608947 3.25728
-0.180992 -0.51292 3.17155
-0.138231 -0.662585 3.31951
-0.312808 -0.722831 3.41009
-0.128913 0.268842 3.06923
-0.0874808 0.57826 3.23411
-0.393411 -0.43112 3.29284
-0.288322 0.178166 3.09359
-0.341134 -0.207529 3.17537
-0.0867144 0.903733 3.2537
-0.496718 -0.463354 3.44926
0.131184 -0.729639 3.46232
-0.341646 -0.00843501 3.23619
-0.20912 0.770375 3.18513
-0.208892 0.0521453 3.15063
-0.41157 -0.600418 3.50136
-0.358898 -0.242474 3.37086
-0.269205 0.173103 3.28869
-0.00581071 0.772984 3.13664
0.196239 -0.663278 3.3068
0.0214167 -0.597754 3.28629
0.0316202 -0.292543 3.09758
0.159018 -0.496379 3.25945
0.0234327 0.300911 3.04071
0.112111 -0.737705 3.43013
