ply
    format ascii 1.0           
    element vertex 58
    property double x           
    property double y           
    property double z           
    end_header
-0.632125 1.57213 8.33792
-0.0513834 -1.58414 7.95003
-0.777964 -1.98011 8.24956
-0.772859 -1.55589 8.08232
-0.594643 -0.508107 8.13982
-0.637474 -2.29029 8.12599
-0.133207 -2.45768 8.17202
-0.392189 0.150826 8.11771
-0.917111 -1.30928 8.40366
-0.98129 -1.88539 8.66273
-0.69095 0.0248541 8.3895
-0.304432 1.6046 8.15366
-0.710639 -0.93668 8.32542
0.398703 -2.51494 8.14924
-0.592307 -1.18356 8.00611
-0.565006 1.05163 8.2148
-0.390725 -2.00039 8.05433
0.347969 -2.1004 8.18287
-0.217798 1.20165 8.11878
-0.0860632 -0.381503 8.16636
-0.406983 1.88612 8.29671
-0.0373371 -0.00819128 8.2725
0.019213 0.898625 8.21071
0.648845 -1.71814 8.3976
0.0998813 -0.70299 8.26272
-0.284215 0.485723 8.08881
0.405129 -1.0556 8.49611
0.0748625 -1.30695 8.31703
0.242547 -1.76344 8.39659
-0.287226 -1.03209 8.2214
0.318925 -0.219446 8.54096
-0.0774487 -2.03287 8.30497
0.692151 -1.2259 8.82276
0.698556 -2.09123 8.60615
0.0229971 1.4149 8.27672
-0.377318 -1.72673 8.31172
-0.0791465 1.83573 8.30441
0.354415 -0.653386 8.59619
0.163611 0.199893 8.58399
-0.619174 1.59514 8.34213
-0.684525 0.0234277 8.38682
-0.590047 -1.17136 8.03187
-0.918584 -2.24042 8.50312
-0.515637 0.711247 8.21686
-0.713641 -2.52605 8.58147
-0.990098 -1.8902 8.64378
-0.909939 -1.31139 8.40036
-0.702046 -0.922048 8.33375
-0.703639 0.78124 8.53537
-0.655997 -0.44621 8.55979
-0.615488 -1.29415 9.12167
-0.581388 -0.878424 8.94574
-0.645304 0.259368 8.75058
-0.471647 -0.116252 8.73895
-0.767153 -2.16392 8.85154
-0.460455 0.643826 8.77906
-0.735331 1.21971 8.51011
-0.503036 -2.45785 8.97773
