ply
    format ascii 1.0           
    element vertex 39
    property double x           
    property double y           
    property double z           
    end_header
0.576753 0.964606 5.10379
0.482397 0.261533 4.90771
0.713892 0.60412 5.04724
0.55673 -0.523258 4.90958
0.47185 -0.303482 4.89323
0.72988 -0.694491 5.01851
0.310124 -0.165535 4.95678
0.485953 -0.738076 4.97882
0.140541 0.00151806 5.06836
0.237612 0.215144 4.95661
0.179579 -0.681047 5.14546
0.0438815 -0.501098 5.15046
0.024072 -0.656856 5.36737
0.200928 -0.400652 4.98795
0.379572 0.992071 5.22243
0.151982 -0.20024 5.13749
0.257073 0.7953 5.37365
0.361211 0.0984561 5.06089
0.404595 0.650275 5.04821
0.578913 1.38015 5.25748
0.209734 0.539988 5.21066
0.404282 1.34918 5.50738
0.337406 0.431753 4.98183
0.41991 0.823744 5.12639
0.0522315 -0.338079 5.31095
0.777775 -0.480311 4.99803
0.621471 0.109807 5.03057
0.528966 1.17345 5.22052
0.744769 1.20965 5.32228
0.805219 -0.330658 5.17278
0.719905 0.607686 5.05688
0.546578 0.491462 4.95799
0.741712 -0.0506259 5.13924
0.508325 -0.0460084 4.94434
0.763435 0.159131 5.22772
0.782175 0.462598 5.21974
0.628461 -0.325811 4.99503
0.350682 -0.453238 4.88231
0.0470766 -0.504966 5.1793
