ply
    format ascii 1.0           
    element vertex 43
    property double x           
    property double y           
    property double z           
    end_header
-0.523551 1.85984 5.02398
-0.552967 2.38405 5.29596
-0.608354 0.733375 4.37929
-0.662793 0.448986 4.60338
-0.524454 0.991983 4.48139
-0.739078 0.215749 4.82409
-0.619711 1.18873 4.64982
-0.476311 1.60106 5.00031
-0.314258 1.38825 4.89914
-0.121393 0.941134 4.7764
-0.424752 0.561428 4.52722
-0.558649 1.38397 4.77182
0.0923982 0.888962 4.96698
-0.32641 0.80597 4.51285
0.0476849 0.211157 5.10485
-0.381059 1.18487 4.7793
-0.0598003 0.697592 4.93057
-0.25895 0.47594 4.73053
-0.352014 1.99866 5.33506
-0.0636395 1.3263 5.07502
-0.125533 0.359478 4.97049
0.191592 0.3954 5.30824
-0.234347 1.54008 5.06299
-0.175013 1.17768 4.90989
-0.806141 1.29223 4.75584
-0.750508 1.88686 5.17248
-0.770362 0.930428 4.56201
-0.980606 0.127484 5.14641
-0.984843 0.402434 5.16706
-0.836368 1.08987 4.90342
-0.737485 0.215477 4.83402
-0.771021 0.685663 4.68893
-0.662933 0.450128 4.59943
-0.988923 0.688476 5.18043
-0.764245 1.69512 5.35757
-0.958268 0.310584 5.44193
-0.976548 0.934579 5.06917
-0.894946 0.472348 5.64089
-0.986422 0.911706 5.30722
-0.916028 0.0642618 5.38861
-0.821515 0.813376 4.94832
-0.556812 2.37167 5.28564
-0.467448 1.62046 5.04335
