ply
    format ascii 1.0           
    element vertex 51
    property double x           
    property double y           
    property double z           
    end_header
-0.468218 1.42732 3.19036
-0.614139 1.06215 3.19281
-0.644846 0.294541 2.92348
-0.662431 0.579478 3.00229
-0.570908 -0.0345108 3.02885
-0.618956 -0.160281 3.23357
-0.5349 0.128003 2.83333
-0.422349 0.827928 3.12415
-0.453843 1.01746 3.09093
-0.528405 0.478263 2.94074
-0.447381 1.30118 3.33609
-0.469153 0.319789 2.85461
-0.486522 0.639359 2.99354
-0.397155 0.0286541 2.9542
-0.0503199 -0.121347 3.41632
-0.31041 0.658268 3.07095
-0.175288 0.335243 3.06284
-0.248437 0.794318 3.16989
-0.318682 0.969103 3.21636
-0.208801 0.517525 3.11065
-0.126141 0.650753 3.20193
-0.365869 0.501645 3.03282
-0.0160164 0.326578 3.19368
-0.272893 -0.000917468 3.10025
-0.32625 0.198261 2.90667
-0.0613259 0.0680583 3.3694
-0.328804 1.16229 3.2793
-0.131601 0.182157 3.18075
-0.173241 -0.0408589 3.315
0.0617998 0.0369908 3.52723
-0.78405 -0.166617 3.47547
-0.690427 0.462023 3.13557
-0.615271 1.06255 3.19223
-0.643835 0.143793 3.05692
-0.789035 0.228206 3.39765
-0.794398 0.382418 3.27287
-0.788635 0.0260131 3.4407
-0.702658 0.260723 3.19249
-0.666116 0.0153298 3.20234
-0.653985 0.646411 3.18262
-0.622105 0.955432 3.35654
-0.646328 0.712154 3.38298
-0.784709 0.410579 3.45795
-0.716557 0.53147 3.33179
-0.786514 0.0139721 3.62924
-0.726562 0.155841 3.75162
-0.567711 0.810162 3.23542
-0.758658 -0.16745 3.63869
-0.452119 1.29986 3.3328
-0.707254 0.167246 3.58349
-0.616137 -0.255138 3.54992
