ply
    format ascii 1.0           
    element vertex 52
    property double x           
    property double y           
    property double z           
    end_header
2.25721 0.407374 11.3653
1.49244 5.27249 14.3869
2.98042 -2.20847 10.2365
1.32863 -0.10466 10.827
3.48442 -3.01118 10.6659
1.16388 -1.20944 10.7265
3.66061 -1.03323 10.2105
2.72101 1.7483 12.8306
1.64023 4.4691 14.9965
3.66735 -2.04575 10.9256
2.27478 3.69465 15.1164
1.61517 3.56375 14.0776
2.15678 2.56111 13.149
4.32616 -1.26852 10.7249
0.374675 -0.449634 10.7375
1.89398 1.63206 12.4363
0.560059 -2.46674 10.7805
2.92148 2.36292 13.5249
2.25755 -2.78737 10.3302
0.403291 0.332453 11.3193
-0.187142 -1.18619 11.0357
3.533 0.232246 12.6121
-0.795541 -1.81494 11.4493
1.60795 -2.21998 10.7524
1.32589 0.586046 11.4819
0.879919 1.43013 12.4291
1.34071 2.70878 13.5712
1.25844 -3.02996 11.1746
2.07518 -0.967833 10.9075
2.78233 -1.25505 10.3343
-0.107564 -3.14067 12.6986
-0.966977 -0.884044 11.5041
-0.432836 -2.44931 12.0793
0.232712 -1.96337 11.3992
-0.107864 -0.357367 11.6942
0.230975 0.588963 12.6885
2.59535 4.67503 14.732
0.785484 2.00514 13.1811
-0.24006 -0.236169 12.8076
1.62956 4.4435 15.0169
1.49905 5.24167 14.4072
1.11166 3.61427 15.1898
3.07614 -0.880854 11.0812
2.41959 0.986026 12.1384
3.49867 -3.01348 10.6502
2.15999 2.55347 13.1597
1.26841 -3.03871 11.1808
3.67481 -2.03596 10.9081
4.34263 -1.26415 10.7242
2.28884 3.68211 15.0917
2.8318 0.149213 12.0884
2.91778 2.33503 13.521
