ply
    format ascii 1.0           
    element vertex 54
    property double x           
    property double y           
    property double z           
    end_header
-0.660078 0.266527 2.89228
-0.761343 -0.308482 2.40435
-0.64318 -0.143311 2.57985
-0.818052 -0.480856 2.35032
-0.813367 -0.402467 2.36493
-0.5721 -0.389077 2.40545
-0.948402 -0.37145 2.37803
-0.576838 -0.447124 2.37895
-0.889404 -0.420372 2.35689
-0.720839 -0.25924 2.45792
-0.753905 -0.0544964 2.6938
-0.738967 0.0435417 2.70047
-0.679887 -0.0159936 2.70783
-0.720255 -0.127505 2.56602
-0.675421 -0.470748 2.37503
-0.87077 -0.357342 2.39375
-0.792945 -0.155481 2.55284
-1.00587 -0.337402 2.42997
-0.810469 -0.257184 2.44085
-0.729322 0.202249 2.84476
-0.645629 -0.395588 2.42204
-0.924034 -0.317115 2.43128
-0.694544 -0.536211 2.39804
-0.875556 -0.514951 2.38308
-0.78677 -0.207342 2.49242
-0.936981 -0.468153 2.39603
-0.770614 -0.013851 2.76236
-0.990152 -0.420331 2.43985
-0.629422 0.134288 2.83946
-0.769856 -0.137583 2.6965
-0.824462 -0.221377 2.58206
-0.766357 0.0709073 2.7636
-0.7233 0.125392 2.81241
-0.644106 -0.0871664 2.63835
-0.513679 -0.451204 2.40952
-0.717666 -0.412336 2.41023
-0.688801 -0.331593 2.43278
-0.650361 -0.307855 2.49535
-0.63107 0.0567504 2.80817
-0.724452 -0.191974 2.51837
-0.661678 -0.240936 2.52152
-0.691587 0.0860676 2.75307
-0.605978 -0.215867 2.61409
-0.597475 -0.282075 2.55932
-0.590197 -0.354109 2.47894
-0.804675 -0.533085 2.39496
-0.625488 -0.552 2.4506
-0.665234 0.280525 2.90276
-0.520323 -0.383877 2.46147
-0.590997 -0.148863 2.66719
-0.635963 -0.0300065 2.77545
-0.563462 -0.31829 2.6505
-0.61382 0.0572995 2.89498
-0.627681 0.142443 2.85292
