ply
    format ascii 1.0           
    element vertex 42
    property double x           
    property double y           
    property double z           
    end_header
-0.574375 -0.139139 4.90267
-0.857612 0.244251 4.83128
-0.970435 -0.378717 5.29817
-0.736121 -0.23805 5.18147
-0.365512 -0.143442 4.67429
-0.739317 -0.555501 5.16561
-0.559383 -0.781535 5.04461
-0.406103 -0.591864 4.84394
0.088719 -0.345847 4.83239
-0.660441 0.0923853 4.68232
-0.199793 0.492875 4.75796
-0.0348746 1.27236 4.69445
0.0702644 0.36647 4.67229
-0.189206 0.792509 4.68184
-0.280018 0.158153 4.75313
-0.461238 -0.379935 5.0576
-0.0222375 -0.016541 4.70291
-0.541135 0.321757 4.71164
-0.38814 0.829641 4.93342
0.0739816 0.662418 4.76314
-0.189092 -0.220204 4.90874
0.313749 0.297547 4.85629
-0.141243 -0.52273 4.97278
0.374049 0.606165 4.81031
0.2792 1.22495 4.97859
0.373097 1.66924 4.98886
0.322021 -0.327096 5.0543
0.407121 0.176252 5.14093
-0.00107324 1.01605 4.88469
0.489765 0.480314 5.08428
0.112944 1.49034 4.87694
0.416417 1.08837 5.24439
0.12524 1.82703 4.89988
-0.198142 1.62294 4.87055
0.364546 1.44546 5.208
0.215667 0.888411 5.42559
0.0992112 -0.0797424 4.99391
0.0186861 0.214395 4.95867
0.325621 -0.444231 5.35433
0.306373 -0.0413282 5.31551
-0.48314 0.565304 4.89388
-0.534569 0.320776 4.70961
