ply
    format ascii 1.0           
    element vertex 48
    property double x           
    property double y           
    property double z           
    end_header
-0.0605902 -0.626944 2.28195
-0.145299 -0.672156 2.17069
-0.0567385 -0.756944 2.23323
-0.380502 -0.171479 2.49384
-0.268621 -0.750776 2.10891
-0.282852 -0.335244 2.37139
-0.189566 -0.39249 2.48824
-0.0654012 -0.528315 2.34258
-0.284202 -0.581759 2.19153
-0.16727 -0.5808 2.23796
-0.246722 -0.489628 2.24224
-0.374194 -0.734113 2.10092
-0.393708 -0.360047 2.3258
-0.471231 -0.670413 2.12564
-0.400303 -0.265859 2.37843
-0.212104 -0.424401 2.3798
-0.166204 -0.49591 2.30921
-0.308727 -0.431424 2.3151
-0.342499 -0.67576 2.17565
-0.324471 -0.271727 2.45225
-0.433364 -0.0938463 2.57357
-0.364687 -0.196397 2.61439
-0.0427371 -0.726126 2.34618
-0.0895344 -0.676924 2.44382
-0.0902648 -0.566696 2.45531
-0.233181 -0.50408 2.46524
-0.272633 -0.337992 2.51985
-0.447788 -0.274927 2.67521
-0.371333 -0.30347 2.55088
-0.254443 -0.555634 2.55834
-0.500348 -0.0577305 2.65482
-0.394317 -0.58518 2.19422
-0.49709 -0.159937 2.50543
-0.374623 -0.736975 2.10019
-0.431188 -0.0894013 2.56939
-0.457006 -0.669552 2.11544
-0.554215 -0.0951047 2.57924
-0.47084 -0.775972 2.09958
-0.41753 -0.839545 2.1718
-0.554532 -0.25646 2.51285
-0.357567 -0.508655 2.25029
-0.509365 -0.445584 2.386
-0.41964 -0.476364 2.33707
-0.487319 -0.335686 2.38809
-0.549152 -0.787786 2.1837
-0.433426 -0.57924 2.29724
-0.551659 -0.197409 2.61008
-0.49039 -0.57269 2.3891
