ply
    format ascii 1.0           
    element vertex 44
    property double x           
    property double y           
    property double z           
    end_header
-0.444328 -1.8909 6.62357
-0.709855 -1.63861 6.39116
-1.15715 -1.36343 6.39331
-1.54406 -0.0448606 7.24132
-1.90461 0.00266172 7.2442
-0.788817 -1.34759 6.56467
-1.04471 -1.05614 6.53262
-1.31934 -1.6574 6.33044
-1.66693 -1.6414 6.10879
-1.53423 -0.652051 6.72876
-1.40097 -1.85523 6.1112
-1.57029 -0.340277 6.85944
-1.18935 -0.559925 6.89514
-1.50307 -1.37553 6.36059
-0.517255 -1.15176 6.88739
-1.26195 -0.883651 6.74779
-1.07561 -1.89367 6.16625
-1.38967 -1.12426 6.54043
-1.71535 0.226781 7.46015
-1.69719 -1.98482 6.08188
-2.07134 -0.312205 7.26318
-2.10064 0.204835 7.4438
-1.6061 -1.02238 6.77134
-1.83147 -0.576889 6.90125
-1.89831 -0.934478 6.93257
-1.93806 -1.69072 6.28967
-1.95463 -2.01531 6.31501
-1.62845 -1.3499 6.6847
-1.82253 -1.3336 6.99026
-2.09013 -0.12494 7.60281
-1.74962 -0.373153 7.16057
-1.32119 -1.64526 6.3262
-0.514205 -1.15916 6.91365
-0.97321 -0.8436 6.96424
-0.447525 -1.86891 6.61791
-0.477814 -1.47187 6.74689
-1.08247 -1.81434 6.50825
-1.34698 -0.355763 7.12406
-0.905891 -0.707716 7.28527
-0.803974 -1.07242 6.76724
-1.17106 -0.516729 7.33996
-1.50501 -0.0636669 7.62007
-0.605696 -1.23182 7.26362
-2.11406 0.221622 7.44609
