ply
    format ascii 1.0           
    element vertex 43
    property double x           
    property double y           
    property double z           
    end_header
-0.339147 -0.449326 2.32421
0.0112593 -0.0869979 2.1573
-0.19265 -0.270952 2.14812
-0.28387 -0.0355764 2.56842
-0.0845633 -0.434058 2.11941
0.0511924 -0.4631 2.03822
-0.249224 -0.165268 2.28698
-0.123333 -0.14411 2.1919
-0.239621 0.13921 2.64817
-0.162855 0.0486807 2.55135
-0.0264783 0.285701 2.68446
0.0855065 0.186898 2.64177
-0.000363151 -0.0150201 2.29345
-0.146832 -0.063804 2.32415
0.0305036 0.425411 2.83305
-0.00809597 -0.24542 2.16682
-0.0133356 0.0423916 2.55346
0.196323 -0.480271 2.09769
0.102581 0.318671 2.75334
0.185426 -0.402329 2.2233
0.129715 -0.602072 2.04955
0.301775 -0.498021 2.21133
0.0708524 -0.153197 2.2721
0.0580495 -0.31148 2.27656
0.112634 -0.766829 2.21159
0.0582599 -0.0904064 2.50392
-0.0816297 0.136389 2.64578
0.0863882 -0.207197 2.6191
0.102829 0.195547 2.84472
-0.00575881 -0.313987 2.56808
0.12026 0.336076 2.90038
0.157528 -0.608406 2.20048
-0.0327334 0.538883 2.93487
-0.189156 -0.270174 2.1445
-0.241129 0.144966 2.63881
0.189842 -0.398438 2.22233
-0.0738381 0.146042 2.63503
-0.0804518 -0.434726 2.12131
-0.164937 0.0558201 2.54712
-0.157728 0.244576 2.66721
-0.143331 -0.0597427 2.32373
-0.120576 -0.14209 2.18868
-0.248009 -0.166872 2.28235
