ply
    format ascii 1.0           
    element vertex 33
    property double x           
    property double y           
    property double z           
    end_header
-1.54906 -6.99261 23.637
-2.26595 -5.30384 22.7672
-2.54964 -6.19725 21.6457
-1.37184 -8.34637 22.2077
-1.6662 -7.40432 22.3994
-4.70181 -4.31003 22.3415
-2.96125 -5.33835 22.3385
-2.23861 -7.60678 21.4423
-5.77419 -3.60384 22.8217
-2.17463 -6.92246 21.6627
-2.06652 -5.72977 22.1174
-6.24035 -3.10323 23.0141
-3.4511 -6.2446 21.4193
-4.961 -5.08571 22.175
-4.09406 -7.21814 21.4513
-3.97421 -5.19069 22.4006
-4.13111 -5.82207 21.9996
-1.76619 -6.49685 22.3305
-4.89706 -3.86939 22.9154
-4.55078 -4.78583 22.9568
-3.31262 -5.91335 22.0909
-2.27341 -6.12394 22.8329
-1.91908 -6.85399 22.933
-2.59491 -8.28841 21.4349
-6.61617 -3.83054 22.9428
-4.19554 -6.44006 21.5689
-4.8143 -5.94908 22.1691
-3.38247 -8.1649 21.3331
-3.55992 -7.58533 21.6548
-5.99702 -4.44605 23.0402
-2.91061 -7.28477 21.7657
-5.65156 -3.59887 22.8541
-5.67649 -4.9924 22.6122
