ply
    format ascii 1.0           
    element vertex 31
    property double x           
    property double y           
    property double z           
    end_header
-0.667906 -0.0586969 14.7861
-2.0429 -0.141605 16.6902
-0.992677 3.10802 17.6445
-1.91376 -3.38247 16.6151
-1.76045 -2.61703 15.7458
-0.341056 -1.22562 14.8459
-2.2503 -1.18185 18.1019
-1.47003 -0.494773 15.4912
-1.37936 -1.66412 15.3833
-1.36858 2.22621 18.3406
-0.426414 5.51867 19.2711
0.214465 0.644419 15.0481
-0.629656 4.57226 18.6406
-0.194432 -2.52373 15.2718
-0.613164 0.912153 15.7823
1.67533 -1.94443 15.2498
-0.196342 3.85565 17.8853
-0.0471275 2.53232 17.9618
-0.676948 1.61201 17.2211
0.250395 -0.364983 15.2758
0.5531 -1.59905 15.44
0.604283 1.61437 18.2523
0.935449 0.510079 18.1669
0.257555 0.968452 17.2855
0.776274 -0.0317595 17.3393
1.42309 -1.59117 16.4296
-0.651949 1.61573 17.2259
-0.174131 3.83736 17.8487
-0.589363 0.930019 15.7823
-0.585853 4.60036 18.5613
-2.04997 -0.141555 16.6654
