ply
    format ascii 1.0           
    element vertex 48
    property double x           
    property double y           
    property double z           
    end_header
-0.334758 -0.0658333 1.81676
-0.391578 0.0396428 1.91241
-0.254143 -0.201892 1.69728
-0.233273 -0.298053 1.7601
-0.277472 -0.280314 1.78251
-0.332086 -0.187935 1.76554
-0.280113 -0.223765 1.73885
-0.30493 -0.143237 1.76396
-0.363167 -0.00931709 1.89255
-0.360037 -0.106099 1.8442
-0.310812 -0.24018 1.77997
-0.266313 -0.105757 1.77472
-0.345685 -0.132862 1.79791
-0.395436 -0.000497304 1.95125
-0.368932 -0.0539079 1.85968
-0.325701 -0.0197297 1.85167
-0.372384 -0.102459 1.89494
-0.389428 -0.0558202 1.91015
-0.239062 -0.157857 1.71842
-0.264807 -0.178551 1.77232
-0.323482 0.022272 1.90824
-0.279856 -0.0623973 1.82606
-0.175904 -0.17043 1.73415
-0.205132 -0.117246 1.79899
-0.394289 0.0546964 1.96516
-0.350483 0.0791906 2.00316
-0.390771 0.0680215 2.01164
-0.290013 -0.114635 1.82138
-0.2009 -0.193597 1.7
-0.232064 -0.0957189 1.83662
-0.276119 -0.281149 1.7827
-0.353722 -0.146772 1.8753
-0.31088 -0.241462 1.78033
-0.251126 -0.319604 1.87358
-0.314545 -0.200723 1.81555
-0.226281 -0.334513 1.80377
-0.291017 -0.207628 1.87894
-0.290258 -0.249798 1.82975
-0.265432 -0.304417 1.82495
-0.251428 -0.264253 1.91171
-0.321365 -0.158491 1.84228
-0.218037 -0.345664 1.85335
-0.263567 -0.272321 1.86498
-0.186044 -0.322952 1.77377
-0.365254 -0.0427257 1.95464
-0.311816 -0.162182 1.894
-0.365427 0.0333294 2.00254
-0.319354 -0.0502168 1.96188
