ply
    format ascii 1.0           
    element vertex 46
    property double x           
    property double y           
    property double z           
    end_header
-0.202031 1.23976 4.63419
0.048835 -1.02615 4.50878
-0.0574875 1.52762 4.646
-0.3903 0.266195 4.77196
-0.282732 0.103617 4.57762
-0.207647 0.820433 4.7229
-0.356818 -0.255339 4.75287
-0.423901 -0.426913 4.94449
-0.202211 0.380756 4.6698
-0.158991 -0.448992 4.56202
-0.0884905 -0.0218952 4.4826
-0.171017 -0.998262 5.02502
-0.120905 -0.210326 4.64217
0.179828 -0.833548 4.44259
-0.0876732 0.65376 4.5549
0.269869 -1.02875 4.34679
0.119254 0.351415 4.50771
0.518103 -0.971935 4.35336
0.0630457 -0.545204 4.49077
0.0758521 0.805185 4.66663
-0.0411615 0.208319 4.60093
0.313846 -0.471102 4.57129
0.113414 1.35724 4.66986
0.168696 -1.23666 4.44329
-0.0217764 -0.830046 4.64156
0.412639 -0.76212 4.47713
0.157732 -0.0386947 4.47253
0.295134 -0.243111 4.49975
0.0780551 -0.354123 4.63738
0.148853 1.1217 4.72887
0.260896 0.177673 4.60255
0.515273 -0.427234 4.73798
0.418806 -1.18702 4.46009
-0.302721 -0.618973 4.66994
-0.30276 -0.764193 4.91128
0.285965 -1.27916 4.6579
-0.329164 0.00943486 4.78726
-0.318538 0.61 4.80751
-0.419653 -0.432301 4.94363
-0.393805 0.271186 4.76077
-0.0913988 0.649388 4.5448
-0.341791 0.165293 4.96902
-0.146637 1.40976 4.82603
-0.341566 -0.206174 5.00631
-0.212412 0.0171115 5.09948
-0.23699 -0.724814 5.13359
