ply
    format ascii 1.0           
    element vertex 63
    property double x           
    property double y           
    property double z           
    end_header
-18.8977 -10.6362 33.1586
-4.02427 25.6884 42.7495
-7.22341 24.1962 48.6107
-10.2448 -18.2888 25.9335
-11.134 -23.1063 32.9316
-14.4266 -11.8685 28.4485
-7.45142 7.85988 39.9626
-7.84559 9.90218 46.8001
-20.2112 -8.11074 39.3698
-15.7912 -2.36496 35.2079
-5.96988 16.736 44.9321
-2.73377 35.4503 53.6185
-15.7439 -13.8604 38.3532
-15.3668 -5.83881 30.4545
-1.66012 21.9479 57.5778
2.18928 38.8183 49.867
-12.7057 -16.7251 32.3772
-5.62878 -26.1901 30.635
-2.56998 12.8256 39.3439
-10.0173 -6.63081 26.0272
-3.04092 19.9316 39.6408
0.713579 1.5408 27.8482
-3.64289 28.4912 55.416
-0.437065 7.91173 32.5754
-11.4613 -19.3683 38.9628
-4.59066 -13.5116 24.0778
-4.93269 2.42436 32.8909
3.38319 18.1191 37.5076
-6.4018 3.18262 45.2484
6.12408 6.14898 30.0594
-16.2874 -3.52451 41.5569
4.1472 11.973 34.0514
5.80142 34.2355 45.4196
-10.0409 -2.48511 32.1931
5.75998 -20.7017 23.9858
17.511 -21.9931 21.2993
16.3937 -16.7349 21.8506
10.8934 -16.0628 23.9496
-3.65405 -20.4556 25.1335
3.79942 -4.87451 28.9552
9.16097 -0.361727 30.7845
11.9694 -23.8369 25.2846
9.08663 -10.5908 27.3697
5.49539 12.385 34.3644
2.14208 29.1271 43.8287
11.8957 -29.9027 29.3994
7.75389 25.2213 43.1814
0.0558654 -10.1755 26.9562
21.7883 -12.7085 31.4736
15.9081 -4.36628 35.7854
-4.15069 -5.55552 29.5646
12.4374 19.9437 43.6502
15.0867 -9.22732 30.5961
11.4853 8.20088 33.1685
6.62531 -30.5371 32.823
1.69872 21.8057 42.507
15.0132 1.74285 38.307
1.35564 -24.2139 28.9985
11.3655 14.3362 38.1452
1.51143 -16.542 26.1919
16.4178 -13.6471 28.1605
-20.1233 -8.15555 40.1476
-7.60938 23.8744 46.4307
