ply
    format ascii 1.0           
    element vertex 50
    property double x           
    property double y           
    property double z           
    end_header
-3.57431 -1.01672 12.7792
-5.69381 -0.259294 14.185
-4.42897 -1.77021 14.3306
-5.62533 -0.41106 15.9816
-4.22276 6.12163 17.8204
-2.35462 1.88798 13.489
-4.05136 4.84532 16.7396
-4.1492 3.32223 16.4362
-4.20906 2.77965 17.9869
-3.89769 7.31901 19.0811
-3.07697 4.84178 15.5183
-4.23887 0.973227 14.0146
1.1635 -1.05731 12.9077
-2.62279 3.5292 14.268
-2.33951 10.2419 20.5041
-3.58961 2.38078 15.0165
-2.68139 7.35743 17.7505
-0.851551 2.79808 13.612
-2.65973 8.53623 19.2358
-3.96544 4.44911 18.4016
-2.82764 5.97371 16.7624
-4.07197 5.63747 19.6931
-4.4378 0.922369 15.9061
-2.51759 0.0705658 13.6907
-1.39333 5.37353 15.8995
0.245323 5.3385 16.2828
-1.04231 4.04254 14.8315
-1.88988 11.7132 22.1576
-1.1215 9.00461 19.9929
0.99882 0.138332 14.2822
-1.14009 7.87036 18.7014
-1.81048 -1.55746 13.4688
2.94512 -0.109571 15.0044
-0.987525 6.96209 17.3103
-0.643927 10.4966 21.9206
-3.23176 10.726 21.923
0.262996 9.08599 21.1525
-1.02506 0.97963 14.1492
-0.336823 -0.36992 15.0779
0.0128751 7.62606 20.3503
4.06402 -1.48121 15.0629
-0.152851 2.1971 14.7955
0.66356 1.8882 16.3527
1.56731 0.54944 15.8478
0.284348 3.79486 15.8443
2.54143 -1.63216 14.0928
0.0178998 6.19726 19.3229
-1.20439 7.7838 18.825
4.13162 -1.19795 16.5957
3.02646 -0.0559177 16.8672
