ply
    format ascii 1.0           
    element vertex 51
    property double x           
    property double y           
    property double z           
    end_header
-0.340238 -1.15722 2.09995
-0.232278 -0.623934 2.04905
-0.340223 -0.518047 2.11954
-0.339645 -0.416019 2.08822
-0.309201 -0.617436 2.10581
-0.27659 -0.490974 2.05378
-0.375131 -0.793327 2.18421
-0.345279 -0.74858 2.10929
-0.337804 -1.03124 2.09668
-0.325071 -0.861739 2.05622
-0.166687 -1.06499 2.06092
-0.361824 -1.09176 2.15625
-0.29073 -1.09557 2.05243
-0.258846 -0.395606 2.04034
-0.267825 -0.699958 2.08519
-0.235912 -0.882075 2.07367
-0.266545 -0.792716 2.06993
-0.294247 -0.960159 2.12156
-0.176798 -0.445515 2.05558
-0.189781 -0.541085 2.05496
-0.243667 -1.02084 2.07549
-0.225593 -1.1321 2.10259
-0.0987739 -1.08621 2.11442
-0.180288 -0.778798 2.10777
-0.13851 -0.713861 2.14246
-0.199243 -0.963131 2.12206
-0.115916 -1.00102 2.10672
-0.191693 -0.689331 2.0885
-0.187599 -0.877081 2.14668
-0.2132 -0.353791 2.11511
-0.152818 -0.891372 2.22371
-0.17963 -0.636259 2.14107
-0.300314 -0.333321 2.08061
-0.14636 -0.788233 2.19831
-0.279188 -0.305922 2.17402
-0.360574 -0.993135 2.17921
-0.123972 -1.18684 2.20645
-0.132101 -0.963229 2.18424
-0.353319 -0.348257 2.14106
-0.360335 -1.09188 2.15319
-0.343156 -1.15883 2.08892
-0.337154 -0.700362 2.1938
-0.322443 -0.851471 2.1463
-0.383445 -1.17321 2.18088
-0.389209 -1.08739 2.24067
-0.378962 -0.786346 2.18661
-0.351105 -0.909194 2.21443
-0.32562 -0.605691 2.19256
-0.365513 -1.15787 2.26716
-0.343722 -0.439917 2.16037
-0.355435 -1.00694 2.2508
