ply
    format ascii 1.0           
    element vertex 55
    property double x           
    property double y           
    property double z           
    end_header
-0.104778 -0.0903066 1.21776
-0.0549385 -0.121797 1.21592
-0.0814377 -0.116459 1.20648
-0.0244977 -0.160874 1.18843
-0.0402373 -0.153869 1.18162
-0.0361813 -0.16383 1.18747
-0.113595 -0.0964675 1.22421
-0.0252172 -0.171137 1.19021
-0.0336944 -0.179572 1.19206
-0.0565718 -0.157499 1.19514
-0.0660607 -0.123934 1.2147
-0.075849 -0.126843 1.21353
-0.0471697 -0.196373 1.20907
-0.0469951 -0.162989 1.19189
-0.064356 -0.152508 1.20206
-0.0762892 -0.137358 1.21653
-0.0232427 -0.182063 1.19092
-0.0569897 -0.178445 1.21801
-0.0349605 -0.196388 1.20624
-0.042375 -0.189824 1.20307
-0.0622904 -0.163767 1.20653
-0.0865009 -0.119434 1.21685
-0.0390712 -0.200497 1.217
-0.0533181 -0.166119 1.20269
-0.0281524 -0.185923 1.20191
-0.0448585 -0.179038 1.20721
-0.0428346 -0.16767 1.20163
-0.0501826 -0.171246 1.21234
-0.081921 -0.128838 1.22321
-0.0592119 -0.167815 1.22447
-0.0633772 -0.134479 1.20794
-0.0498223 -0.186537 1.21254
-0.0919888 -0.108762 1.21323
-0.0682264 -0.145367 1.21194
-0.0466241 -0.151442 1.19132
-0.0545623 -0.147129 1.1999
-0.0454402 -0.141769 1.19647
-0.0486804 -0.135058 1.20385
-0.0626237 -0.111997 1.21384
-0.0368553 -0.143694 1.18621
-0.105849 -0.0896827 1.21856
-0.0546211 -0.121919 1.2145
-0.0408403 -0.127897 1.20716
-0.0163201 -0.177084 1.19631
-0.0192643 -0.153096 1.19389
-0.0315639 -0.152624 1.18858
-0.0148011 -0.170345 1.20303
-0.100191 -0.0972135 1.22856
-0.0789842 -0.108026 1.2153
-0.0231402 -0.135377 1.2191
-0.0125668 -0.159507 1.20741
-0.0267762 -0.144752 1.1986
-0.00691922 -0.164424 1.21638
-0.0748448 -0.136907 1.2158
-0.0337548 -0.193622 1.20375
