ply
    format ascii 1.0           
    element vertex 59
    property double x           
    property double y           
    property double z           
    end_header
1.04958 1.21516 2.92917
1.28042 0.806658 2.88856
1.2795 0.691638 2.4714
1.35547 0.426493 2.66222
1.40242 0.429257 2.94026
1.39404 0.19293 2.69891
1.27797 0.440285 2.53962
0.807848 1.58383 3.0075
0.832364 1.48792 3.09355
1.06819 1.12592 3.0458
1.34301 0.580012 2.77817
1.40036 0.345578 2.78224
1.30823 0.686506 2.60397
1.23026 0.760802 2.77185
1.31805 0.558171 2.65163
1.20988 0.896532 2.74841
1.44167 0.20937 2.82127
1.29777 0.578584 2.52853
1.02846 1.14651 2.81249
0.98521 1.33855 3.00594
1.09759 1.0662 2.89366
1.34919 0.629551 2.89927
1.32239 0.299755 2.65411
1.30947 0.688091 2.8045
1.06405 1.03953 2.74169
1.42626 0.298444 2.91137
1.19659 0.786792 2.52247
1.17258 0.90289 2.90351
1.29248 0.709803 2.98349
1.22453 0.570735 2.44306
1.33064 0.477435 3.03913
1.08298 0.896084 2.70116
1.14897 0.979348 2.81113
0.910109 1.20506 2.82524
0.982652 1.23066 3.09771
1.08292 0.981137 3.00642
1.32275 0.484633 2.84779
1.34804 0.350697 3.04461
1.19843 0.736199 2.63873
1.25588 0.653236 2.70204
0.884039 1.35729 3.10165
1.18346 0.54001 3.06923
1.33633 0.233682 2.98632
1.33333 0.147447 2.87742
1.23482 0.408797 3.08914
0.938183 1.0838 3.09353
0.968105 0.929492 3.06001
1.07024 0.849397 2.95012
0.864572 1.19599 3.09281
0.982672 0.786001 3.02457
1.22714 0.300558 3.02832
1.19357 0.123475 2.85166
1.23537 0.211419 2.93723
1.10346 0.415061 3.03419
0.916793 0.658516 2.98983
1.0682 0.678835 3.02324
1.10282 0.223591 2.87887
1.09724 1.06489 2.89985
1.18077 0.648272 2.96687
