ply
    format ascii 1.0           
    element vertex 55
    property double x           
    property double y           
    property double z           
    end_header
-1.31988 -0.768778 7.88473
-1.06163 -0.772562 7.94421
-0.695137 -1.77407 7.85443
-0.423066 -2.04517 7.93383
-0.96522 -1.03652 8.01715
-0.843203 -2.29515 7.98581
-1.36777 -0.471207 7.9121
-1.18051 -1.97256 7.85009
-0.665116 -1.54292 7.88463
-0.344034 -1.83009 8.01549
-0.193109 -2.23302 8.19578
-0.381326 -2.49323 8.05036
-1.44762 -0.069032 8.05023
-1.21211 -1.03822 7.9306
-1.70076 0.0147253 7.96704
-0.902117 -1.49738 7.82497
-0.334118 -2.27143 8.00267
-1.21093 -1.48459 7.86873
-0.824174 -1.96432 7.89113
-0.21984 -2.01994 8.10786
-1.27535 -0.296285 8.06828
-1.01093 -1.29584 7.92832
-1.37451 -2.08445 7.89237
-0.991867 -2.10601 7.94121
-0.561442 -2.60276 8.12637
-0.578138 -2.31639 8.00122
-1.12338 -0.527413 8.0154
-0.409606 -1.63786 8.18089
-1.22269 -1.27337 7.92006
-0.877771 -1.00666 8.24211
-1.40751 -1.21532 8.00449
-0.261501 -2.4518 8.24697
-1.05416 -2.34399 8.07141
-1.53645 -0.652474 7.97166
-1.41416 -1.86502 7.95883
-0.627404 -2.00912 8.00311
-0.896123 -1.76215 7.83887
-1.03831 -1.6519 7.93737
-0.925804 -1.27733 8.13106
-0.743173 -2.4482 8.14895
-0.557164 -1.81418 8.05976
-1.21193 -1.8145 7.99932
-1.42514 -0.970988 7.98994
-0.667479 -1.43199 8.25874
-1.02926 -1.89295 7.94867
-0.78789 -1.24327 8.30921
-1.18571 -2.18381 7.94846
-0.245745 -1.82596 8.21935
-1.00703 -0.721948 8.18616
-0.282782 -2.45793 8.26536
-0.21749 -2.01494 8.09654
-0.644996 -1.57602 8.10128
-0.24337 -2.02945 8.32626
-0.767242 -2.45602 8.13465
-0.501559 -2.52528 8.33773
