ply
    format ascii 1.0           
    element vertex 51
    property double x           
    property double y           
    property double z           
    end_header
-0.60661 -0.729994 2.95542
-0.236336 -1.11707 2.88541
-0.417976 -1.14401 2.66295
-0.314352 -1.15234 2.79792
-0.376747 -1.09698 2.74285
-0.595186 -0.813978 2.8783
-0.422883 -0.921603 2.83072
-0.365354 -1.22524 2.75727
-0.531788 -0.864565 2.81481
-0.24757 -1.02471 2.92128
-0.297632 -1.04612 2.84876
-0.765815 -0.663867 2.98377
-0.390554 -1.00068 2.77748
-0.483815 -0.87093 2.90576
-0.709254 -0.673471 3.05867
-0.792472 -0.627915 3.06603
-0.359735 -0.977352 2.87135
-0.577501 -0.947341 2.78784
-0.476551 -1.08254 2.70778
-0.444792 -1.21601 2.7073
-0.676196 -0.754414 2.89435
-0.69632 -0.839104 2.85072
-0.535426 -1.2243 2.68712
-0.48648 -1.00967 2.77973
-0.593428 -1.1532 2.69589
-0.630107 -0.891827 2.82972
-0.83721 -0.731933 2.99235
-0.571625 -1.0402 2.81584
-0.696083 -0.735188 2.98507
-0.767302 -0.755441 2.93198
-0.550895 -1.10433 2.75716
-0.652176 -0.989875 2.83442
-0.618446 -1.12859 2.82248
-0.814069 -0.822452 2.98676
-0.695932 -0.93709 2.89905
-0.606702 -1.21925 2.72913
-0.630936 -1.06822 2.88725
-0.75571 -0.917338 2.96581
-0.700731 -1.01821 2.89023
-0.731993 -0.826232 2.91958
-0.830714 -0.711234 3.07239
-0.29087 -1.04829 2.85385
-0.795879 -0.626483 3.07206
-0.412918 -0.946269 2.94662
-0.481945 -0.875863 2.90912
-0.227256 -1.12529 2.89365
-0.708274 -0.677487 3.06434
-0.355273 -0.97914 2.87529
-0.628534 -0.744653 3.06845
-0.311647 -1.01403 2.98272
-0.311632 -1.16144 2.80822
