ply
    format ascii 1.0           
    element vertex 52
    property double x           
    property double y           
    property double z           
    end_header
-0.253532 1.38513 4.34654
0.122495 2.2769 5.00217
0.241482 1.63273 4.6652
-0.321141 1.83514 4.82515
-0.245881 1.64675 4.58331
-0.00679229 1.85475 4.70821
-0.247413 0.405155 3.71623
-0.623506 0.733974 4.3014
-0.296639 -0.265742 3.48674
-0.0291578 2.32123 5.28129
0.172453 -0.0492232 3.51807
-0.197887 2.10803 5.18571
-0.399402 0.634933 3.89511
-0.744206 0.00185012 3.88144
0.281489 0.365896 3.77286
-0.792307 -0.176037 3.64616
-0.797979 0.445031 4.39609
-0.427516 1.15738 4.46223
-0.00866688 1.17114 4.31029
-0.501491 -0.083318 3.66592
-0.0517853 -0.16879 3.2874
0.289645 0.996645 4.38381
-0.413973 1.40351 4.62905
-0.0996558 -0.100702 3.69194
-0.659539 0.217184 4.13334
-0.417702 0.113389 3.92518
-0.884091 -0.315516 3.94706
0.121362 0.108708 3.77765
-0.513444 0.887251 4.57132
-0.354038 1.53685 4.86756
-0.476266 0.467604 4.14732
-0.459548 1.17643 4.83244
-0.774358 -0.102946 4.1486
-0.879094 -0.469285 3.58969
-0.102001 1.85516 5.31502
0.0160173 0.512896 3.86981
0.284803 0.603578 4.01604
0.166965 -0.0423438 3.50257
0.000301587 -0.600807 3.67557
-0.706992 -0.611413 3.82725
0.250078 1.9621 4.91537
0.109686 0.114744 3.76428
0.449616 0.245684 3.99898
0.269907 -0.634837 3.94076
0.384603 -0.0275255 3.84599
0.376956 -0.198236 3.63204
0.521283 -0.286674 3.92268
-0.221662 1.655 4.57757
-0.00456296 1.43727 4.54296
0.185806 1.42725 4.86773
0.314981 0.782895 4.59212
-0.707517 0.0143151 3.84583
