ply
    format ascii 1.0           
    element vertex 50
    property double x           
    property double y           
    property double z           
    end_header
0.0489527 0.640789 2.22526
0.10699 1.04407 2.20649
0.0147299 -0.780663 2.32517
0.267645 0.506988 2.30116
-0.142078 -1.12923 2.54941
-0.411939 -1.44109 2.73074
0.438408 -0.729128 2.36657
0.12382 0.0140728 2.30915
0.389824 -1.12652 2.4033
-0.0921829 0.143653 2.2376
-0.328194 -0.317555 2.55647
-0.214775 0.0461375 2.43567
0.32497 -0.901489 2.48949
0.306733 -1.41226 2.80676
0.373778 -0.0305935 2.43362
-0.139306 1.01406 2.42206
-0.129279 -0.558941 2.33818
0.233886 0.842983 2.31474
0.206914 -0.613291 2.36286
0.232786 -1.33145 2.34027
-0.343878 -0.991831 2.66303
0.405149 -0.0469846 2.69486
0.41345 -0.461586 2.40884
0.566766 -1.13848 2.56284
0.523872 -1.27144 2.97681
0.0878342 0.307878 2.34008
0.564504 -0.927705 2.58553
0.580132 -0.668337 2.56268
0.68901 -1.0424 2.77295
0.470188 -0.47327 2.66432
0.226536 0.1507 2.4773
-0.107963 0.436381 2.26924
-0.364009 -1.22513 2.59718
-0.204448 0.659235 2.3187
0.20091 -0.293884 2.66711
0.171061 -1.08807 2.54477
0.111366 1.06515 2.20685
-0.0177433 1.22022 2.37184
0.0388923 -1.31309 2.51986
-0.40442 -1.44656 2.70969
-0.134977 1.0174 2.40669
-0.444815 -0.460158 2.75979
-0.30849 -0.723219 2.69942
-0.101953 -0.867066 2.61132
-0.439003 -1.16757 2.84783
-0.228659 0.291772 2.42075
-0.187956 -0.549591 2.58007
-0.216685 0.0416921 2.43107
-0.274551 -0.0737391 2.62701
0.399417 -0.0442623 2.70429
