ply
    format ascii 1.0           
    element vertex 51
    property double x           
    property double y           
    property double z           
    end_header
0.0726215 5.38703 11.2694
-0.9738 1.36811 12.0141
-0.994564 3.7776 11.8598
-0.762355 -0.940803 11.2792
0.76052 3.19525 11.2465
0.191019 1.30039 11.1994
-0.681844 1.82044 11.2053
-0.239612 -1.76635 11.0147
-1.49487 -4.51355 12.5358
-1.44122 -3.60216 12.1985
-1.28934 -0.110074 12.3962
0.00919411 -3.90151 11.4876
-0.646037 -3.22269 11.8489
-1.30059 -2.73672 12.5314
1.25808 1.08198 11.3985
1.39615 -1.56541 10.7911
0.586512 -3.88837 10.6235
-0.128034 3.73665 11.2167
-0.659221 5.13943 12.2637
0.55065 -3.05502 11.5935
1.07109 -2.2988 11.3105
-0.399605 -2.24044 12.1547
0.533699 -1.14009 11.0441
-0.696552 2.94498 11.4505
1.35257 -0.545142 11.0959
1.23018 -3.12071 10.786
1.2418 -4.36731 12.2474
0.109523 2.39683 11.4316
0.658146 4.48089 11.4264
2.02906 -3.23188 11.0898
2.22398 -3.90316 12.6937
2.04011 -2.40745 11.4599
-0.765174 -4.43462 13.2236
2.10579 -1.41864 11.4329
1.60137 0.916699 12.3585
2.69237 -2.923 11.9721
0.770047 -0.0337328 12.2326
0.729227 1.74743 11.7829
0.497783 5.27897 12.1659
0.0242867 -3.8945 11.4721
0.0312388 -0.668012 11.8083
-1.26732 -2.74612 12.4892
-0.984035 3.76719 11.8642
-0.747275 -4.47807 13.2325
-1.58292 -0.760357 13.1702
-0.372725 -2.2393 12.1859
2.23216 -3.92347 12.693
-1.02368 0.834681 12.7723
1.64298 0.932478 12.4003
0.787006 2.9116 12.0428
-0.651354 5.14398 12.3069
