ply
    format ascii 1.0           
    element vertex 35
    property double x           
    property double y           
    property double z           
    end_header
-0.157702 -1.28043 6.82572
0.480797 -1.19859 6.92006
0.635775 -0.833503 6.81695
0.482026 1.11793 6.85452
-0.580237 -1.40762 7.12876
0.407087 0.565448 6.7936
-0.622025 -1.19567 6.7838
0.485989 -0.463519 6.67819
0.201756 1.80267 6.8362
-0.172671 -0.858852 6.89765
-0.30925 -1.48992 7.39271
-0.564109 -0.823349 6.84881
0.175349 -0.194209 6.67719
-0.0182581 1.33538 6.92406
-0.123676 0.46407 6.79739
-0.0145773 -0.48471 6.8904
0.556015 -0.0798834 6.83793
0.212698 0.213533 6.74954
0.277199 -0.808812 6.99346
-0.127347 0.000804738 6.88747
-0.314475 -0.288996 7.12436
-0.421157 0.0876703 7.27293
-0.756574 -1.05915 7.24013
-0.711411 -0.545482 7.7607
1.0618 -0.941643 7.1819
0.248086 1.42268 6.8013
0.101253 0.783303 6.90715
0.574274 1.53909 6.98476
0.939191 -0.625336 7.0053
0.753184 1.13412 7.16031
0.07964 -1.13359 7.20879
0.766466 -0.305179 7.15707
-0.494379 -0.401818 7.49595
-0.69344 -0.542034 7.77296
-0.71293 -1.05667 7.33951
