ply
    format ascii 1.0           
    element vertex 48
    property double x           
    property double y           
    property double z           
    end_header
-0.556029 0.31979 2.80387
-0.104448 -0.191917 2.63928
-0.389688 0.0697659 2.71278
-0.491988 0.187059 2.78322
-0.204214 -0.294801 2.53072
-0.246818 -0.228207 2.57164
-0.332073 -0.0447314 2.71477
-0.437331 -0.00770912 2.65951
-0.191086 -0.193261 2.6286
-0.317102 -0.12306 2.68769
-0.441532 -0.204578 2.52442
-0.541736 0.245026 2.84151
-0.374663 -0.149977 2.58752
-0.152475 -0.265784 2.59879
-0.459515 0.124175 2.74072
-0.387445 -0.105185 2.65429
-0.117256 -0.273631 2.70706
-0.306748 -0.179502 2.56427
-0.227666 -0.15539 2.69258
-0.148965 -0.345647 2.67153
-0.534714 0.15465 2.85556
-0.459154 0.0133501 2.83408
-0.185301 -0.364035 2.59133
-0.615567 0.273815 2.82075
-0.43259 -0.0367093 2.79638
-0.35164 -0.102432 2.78717
-0.146433 -0.196362 2.7032
-0.271462 -0.140584 2.75006
-0.391634 -0.242612 2.48435
-0.287277 -0.394944 2.84709
-0.529416 0.100334 2.69866
-0.29507 -0.284551 2.52712
-0.452659 -0.105831 2.60114
-0.596868 0.139901 2.77183
-0.411871 -0.290643 2.53979
-0.52513 0.0141665 2.67026
-0.55219 0.321706 2.8014
-0.345056 -0.346586 2.57167
-0.500622 -0.0711688 2.66794
-0.463457 0.124409 2.73313
-0.506284 -0.249706 2.65814
-0.383359 -0.417304 2.57429
-0.532939 -0.149069 2.71331
-0.460885 -0.305726 2.61295
-0.573442 0.0268978 2.72682
-0.468353 -0.16795 2.65945
-0.545531 -0.0757226 2.74861
-0.596862 0.189899 2.82092
