ply
    format ascii 1.0           
    element vertex 42
    property double x           
    property double y           
    property double z           
    end_header
-0.459261 -0.828307 2.42719
-0.349226 -0.316951 2.59052
-0.330817 -0.5029 2.52196
-0.309148 -0.556125 2.45332
-0.31974 -0.440229 2.5501
-0.268821 -0.66086 2.42488
-0.415596 -0.728417 2.46312
-0.370356 -0.631146 2.47102
-0.462186 -0.87127 2.37293
-0.318231 -0.849143 2.30514
-0.381532 -1.0117 2.43524
-0.322847 -0.91641 2.25552
-0.242833 -0.884928 2.25344
-0.245547 -0.810943 2.28834
-0.373354 -0.906783 2.32583
-0.400235 -0.527227 2.5462
-0.380825 -0.771606 2.40124
-0.191682 -0.8133 2.22937
-0.307036 -0.380464 2.60776
-0.360504 -0.802426 2.34061
-0.339823 -0.721331 2.44163
-0.274136 -0.736613 2.40625
-0.257874 -0.973583 2.28303
-0.287754 -0.794361 2.35471
-0.221709 -0.770675 2.35276
-0.202719 -0.749818 2.41247
-0.17598 -0.946862 2.29502
-0.116964 -0.891203 2.31511
-0.217842 -0.700699 2.46025
-0.261717 -0.639101 2.52977
-0.247455 -0.58162 2.54231
-0.367777 -0.357055 2.65053
-0.284422 -0.453114 2.58863
-0.41039 -0.611531 2.53969
-0.371636 -0.906081 2.32503
-0.321165 -0.439341 2.55223
-0.333274 -0.502385 2.51601
-0.388187 -0.685009 2.53314
-0.379629 -0.478193 2.63532
-0.359833 -0.950979 2.39523
-0.373163 -0.744508 2.58923
-0.345875 -0.425155 2.65476
