ply
    format ascii 1.0           
    element vertex 53
    property double x           
    property double y           
    property double z           
    end_header
-1.21057 -1.187 7.00202
-1.23674 -1.93726 6.62755
-1.4654 -2.84988 6.27218
-0.997236 -1.55188 6.71068
-1.29145 -2.14936 6.54733
-1.51259 -2.7428 6.47701
-1.07866 -1.75716 6.59257
-1.16643 -1.61917 6.8546
-1.02696 -1.01988 6.98719
-1.16989 -1.42559 6.98497
-1.50117 -2.53338 6.52173
-1.42634 -2.6331 6.29294
-1.02572 -1.30723 6.82553
-1.12519 -2.01288 6.46314
-1.18213 -3.26497 6.18588
-1.30753 -3.13558 6.34592
-1.12158 -2.20405 6.37353
-1.0539 -2.61549 6.21651
-1.07606 -2.42572 6.31059
-1.26643 -2.36688 6.52352
-1.272 -2.78835 6.18343
-0.977081 -3.1737 6.12348
-0.368135 -2.70264 6.29735
-1.18867 -3.0124 6.19011
-1.4615 -2.95974 6.4311
-1.25858 -2.52564 6.38587
-1.03436 -2.82318 6.17164
-0.861277 -2.48045 6.24526
-0.716007 -2.77831 6.27572
-0.862345 -2.27786 6.36243
-0.891281 -2.99323 6.20944
-0.502787 -2.54357 6.35945
-0.76817 -1.58379 6.77472
-0.632619 -2.32552 6.42494
-0.499782 -2.9104 6.37606
-0.754223 -2.11264 6.48738
-0.876087 -1.85736 6.71274
-0.732496 -3.15075 6.31889
-0.721117 -2.58781 6.38259
-0.85326 -1.10667 7.15809
-0.343442 -2.58931 6.48254
-0.723343 -1.81408 6.90916
-1.00384 -2.00088 6.58596
-0.684701 -1.98653 6.72488
-0.600042 -2.2137 6.60804
-0.902834 -2.75998 6.33659
-0.3264 -3.12584 6.51204
-0.489205 -3.13519 6.37509
-0.528731 -2.5117 6.61282
-0.859263 -1.43271 6.97866
-0.263691 -3.09775 6.76273
-1.26311 -2.37854 6.52331
-1.28032 -3.14555 6.35337
