ply
    format ascii 1.0           
    element vertex 43
    property double x           
    property double y           
    property double z           
    end_header
0.0829847 -0.353218 3.75512
0.0466475 -0.970662 3.58268
0.286236 -1.16336 3.91075
0.150237 -0.457512 3.85057
0.259871 -1.07203 3.78346
0.13913 -0.874737 3.62692
0.170689 -1.01751 3.64952
0.268782 -0.921315 3.7203
-0.0520608 -0.375961 3.79988
0.109623 -0.673023 3.74087
-0.0735869 -0.636045 3.71127
-0.0872379 -1.15102 3.67792
-0.183714 -1.25768 3.76861
0.0384258 -0.558646 3.76508
0.0387411 -1.0891 3.67763
-0.00673576 -0.750832 3.7093
0.205535 -0.778978 3.72135
-0.218501 -0.975 3.72412
-0.3312 -1.17447 3.82065
-0.0302087 -0.8766 3.65084
-0.096197 -1.00925 3.6572
-0.156105 -0.84303 3.70291
-0.0973233 -0.507877 3.76407
-0.142928 -0.73667 3.77083
-0.203948 -1.11389 3.75822
-0.217869 -0.671646 3.87358
0.292125 -0.820053 3.82638
0.166266 -0.631612 3.91737
0.367098 -1.05436 4.03945
0.158565 -1.29649 3.9097
0.364535 -0.9414 3.94794
0.206868 -0.735029 4.01139
0.29179 -1.16523 3.90097
0.146117 -0.750143 3.86547
0.0525121 -0.372258 3.91591
0.250435 -0.976798 3.88854
0.220343 -1.30162 4.1609
0.241527 -0.839617 3.95107
0.19882 -1.16857 4.26048
0.226949 -1.27123 4.01
0.0250313 -1.1822 3.79026
-0.17295 -1.26271 3.76338
0.134734 -1.11749 3.79901
