ply
    format ascii 1.0           
    element vertex 61
    property double x           
    property double y           
    property double z           
    end_header
-0.273546 -0.122396 1.44582
-0.334218 -0.263603 1.40792
-0.157259 -0.239636 1.35453
-0.212391 -0.173501 1.41058
-0.325939 -0.315209 1.38663
-0.227254 0.157022 1.56068
-0.250875 -0.0668439 1.44452
-0.227627 -0.33819 1.36196
-0.226117 -0.250361 1.38969
-0.230043 -0.393499 1.38587
-0.203526 0.112896 1.52922
-0.204306 -0.0145491 1.45274
-0.300298 -0.152926 1.48232
-0.15904 -0.175239 1.38987
-0.259997 -0.0185463 1.47192
-0.284965 -0.352333 1.3764
-0.170395 -0.127849 1.41118
-0.273528 0.0820275 1.54373
-0.26335 0.0203147 1.54036
-0.216421 0.0381915 1.47777
-0.115611 -0.200852 1.36371
-0.282125 -0.211518 1.47478
-0.244451 0.162257 1.64965
-0.2724 -0.0871357 1.49723
-0.314804 -0.34697 1.43341
-0.278692 -0.391882 1.41595
-0.337313 -0.286521 1.46328
-0.241801 -0.170718 1.45645
-0.273073 -0.038614 1.52374
-0.287466 -0.381611 1.47411
-0.293001 -0.233976 1.52972
-0.258895 -0.0755402 1.57172
-0.216237 0.188218 1.60621
-0.221503 -0.121262 1.43269
-0.135878 -0.29403 1.36618
-0.264926 -0.295159 1.37735
-0.191521 -0.0697943 1.432
-0.236556 -0.221363 1.43711
-0.191072 -0.297257 1.38253
-0.111089 -0.201517 1.36626
-0.0957241 -0.254635 1.34756
-0.279108 -0.25569 1.42115
-0.178001 -0.353375 1.38076
-0.185087 -0.226458 1.40556
-0.089752 -0.329373 1.4322
-0.153844 0.0103564 1.49081
-0.14894 -0.0467487 1.46882
-0.172537 0.0579959 1.51349
-0.12791 -0.151948 1.43531
-0.100925 -0.375057 1.46774
-0.108934 -0.0790665 1.49885
-0.216502 0.190579 1.60877
-0.28354 -0.213284 1.47362
-0.263223 0.0196828 1.54114
-0.241569 -0.171175 1.46041
-0.228704 0.0645225 1.52448
-0.271262 -0.0383834 1.52626
-0.291411 -0.238241 1.53088
-0.253186 0.111392 1.58607
-0.244926 0.162556 1.65354
-0.271041 -0.0883288 1.49609
