ply
    format ascii 1.0           
    element vertex 35
    property double x           
    property double y           
    property double z           
    end_header
0.376596 1.057 5.90261
0.361172 0.313301 5.43525
0.552764 0.437015 5.66688
0.257058 -0.592733 5.06276
0.481163 0.680625 5.94851
0.105036 -0.0519687 5.17452
0.384557 0.00337118 5.34145
0.34918 -0.311571 5.22934
0.0831675 0.508353 5.32956
0.532035 -0.228176 5.51255
0.512441 -0.703733 5.59166
0.374987 -0.829949 5.29622
-0.395177 -0.297948 5.17808
0.476372 -1.05178 5.56447
0.300002 0.62874 5.63945
0.582224 0.118716 5.68158
0.0032995 -0.386569 5.1365
-0.15681 -0.659395 5.16302
-0.402465 -0.903771 5.20737
-0.0672347 0.183305 5.3993
0.00809542 0.728265 5.58582
0.0576269 1.00648 5.98611
-0.467869 -0.567571 5.2285
-0.188962 -0.126279 5.32673
-0.574694 -1.07002 5.4756
-0.151767 0.455531 5.60703
-0.22681 -1.19373 5.25686
-0.297245 0.176255 5.66709
-0.378764 -0.122864 5.61233
-0.524867 -0.738819 5.45766
-0.278389 0.438146 5.92447
-0.355888 -1.26515 5.60715
-0.474452 -0.395588 5.51542
0.0389694 0.683518 6.11026
0.401345 -0.0045243 5.35955
