ply
    format ascii 1.0           
    element vertex 37
    property double x           
    property double y           
    property double z           
    end_header
-2.35339 -6.07485 19.3888
-3.24649 -3.63433 20.0481
-3.02731 -5.66692 19.4113
-2.91768 -4.88812 19.6185
-2.65775 -4.08744 20.4425
-3.17137 -2.49638 21.6133
-3.84323 -6.91717 19.2922
-3.97651 -5.54541 19.2676
-2.42674 -4.76236 20.1817
-3.3292 -6.31893 19.35
-2.34767 -5.46613 19.8738
-3.53933 -4.43747 20.0193
-3.39002 -7.5472 19.4782
-2.15083 -7.18719 20.5849
-2.30925 -4.57269 21.1179
-3.90341 -2.72196 21.5116
-2.20987 -6.64464 19.9706
-3.67032 -3.23175 20.5816
-3.0329 -3.44055 20.8941
-3.93856 -3.85975 20.3725
-2.44205 -3.839 21.1081
-4.09836 -6.18816 19.3163
-4.22547 -4.57144 20.4095
-3.6617 -5.16315 19.7399
-4.30539 -7.35022 19.6657
-4.42658 -4.02229 20.928
-4.29835 -5.23201 20.2373
-2.1799 -5.32335 20.6522
-2.8678 -3.37388 21.7081
-2.17185 -6.45404 20.7408
-3.52547 -3.08326 22.1185
-2.57389 -5.97364 21.1173
-2.76988 -4.17508 21.7478
-2.63012 -4.95212 21.6534
-3.93321 -2.75075 21.5494
-2.96849 -5.66547 19.3998
-3.98844 -5.5767 19.3076
