ply
    format ascii 1.0           
    element vertex 65
    property double x           
    property double y           
    property double z           
    end_header
-0.586278 -0.263877 3.17568
-0.754369 -0.446275 3.56317
-0.462952 1.08786 4.01386
-0.781963 -0.0325155 3.48757
-0.791859 -0.364468 3.75182
-0.449153 1.04369 3.76236
-0.735503 -0.616462 3.69168
-0.655038 -0.405477 3.36993
-0.67399 -0.62896 3.46734
-0.736273 -0.25197 3.51179
-0.289345 0.539188 3.45249
-0.559487 0.59451 3.72144
-0.417602 1.46661 3.95425
-0.340332 0.20707 3.2595
-0.649692 -0.163533 3.35736
-0.793776 -0.15527 3.66832
-0.449069 0.276523 3.43615
-0.33942 1.65112 3.91545
-0.768886 -0.536791 3.84639
-0.440883 0.852218 4.09138
-0.520396 0.793921 3.80005
-0.345452 -0.156001 3.08677
-0.658082 0.107341 3.63207
-0.422292 0.670377 3.58829
-0.551352 0.301086 3.64813
-0.508664 -0.551573 3.28977
-0.555869 0.420182 3.84231
-0.406268 -0.400711 3.15261
-0.601109 0.0462753 3.40496
-0.343027 0.864683 3.64762
-0.25064 1.06563 3.6449
-0.397635 0.0248865 3.32245
-0.232361 0.732048 3.50322
-0.448018 0.472014 3.60575
-0.244159 0.347538 3.38612
-0.183642 -0.36162 3.14797
-0.285326 -0.56468 3.31457
-0.0966021 0.897749 3.60716
-0.361931 1.25342 3.87116
-0.213294 1.42246 3.86788
-0.138937 0.197705 3.28962
-0.0517084 -0.506683 3.34901
-0.0872699 0.51606 3.52052
-0.099402 0.0251267 3.3846
0.0732503 1.10398 3.87334
0.0772888 0.784603 3.81562
0.00366631 -0.266871 3.34739
0.0842236 0.579195 3.68267
-0.168597 -0.158724 3.26741
0.0688106 0.335175 3.5898
-0.100294 0.708398 3.63529
0.0517379 0.929896 3.75744
-0.206938 1.75643 4.08255
-0.12365 1.21464 3.84472
-0.242813 1.05858 3.6516
-0.220442 1.41997 3.83693
-0.414214 1.46927 3.96993
-0.0406735 1.44292 4.02541
-0.154601 1.59505 3.98149
-0.420816 1.05641 3.77949
-0.567841 0.306476 3.62761
-0.401294 0.677327 3.61235
-0.659759 0.104895 3.63446
-0.761537 -0.44285 3.5589
-0.421465 1.68176 4.12792
