ply
    format ascii 1.0           
    element vertex 52
    property double x           
    property double y           
    property double z           
    end_header
-0.221163 -0.311455 3.60966
0.0307303 -0.777171 3.57262
-0.159026 0.116483 3.71786
-0.224656 -0.65586 3.57645
0.462896 -0.568258 3.77134
-0.36581 0.344532 3.82719
0.018254 -0.515124 3.51635
0.121112 -0.401737 3.46466
-0.0499524 -0.0762369 3.6687
0.308158 -0.579896 3.7162
0.2323 -0.427922 3.66308
0.182217 -0.535174 3.55165
-0.227995 0.378558 3.91015
0.453255 -0.422246 3.81334
-0.125993 -0.852887 3.6296
-0.158593 0.241399 3.87659
-0.347533 -0.0799239 3.66155
0.563951 -0.483297 3.91324
-0.200269 -0.0210519 3.653
-0.320427 0.091229 3.6749
-0.24982 -0.475609 3.61725
0.354469 -0.735014 3.7552
0.166868 -0.173505 3.84577
0.486885 -0.700017 3.85219
0.176765 -0.290585 3.6032
0.0408781 -0.0877222 3.80142
-0.048638 0.0381458 3.8006
0.213953 -0.683044 3.60106
0.25904 -0.257251 3.92874
-0.485171 0.220137 3.83317
0.0500765 -0.286021 3.52082
-0.198789 -0.172327 3.68713
-0.0332781 -0.636228 3.63244
0.294314 -0.442976 3.86462
-0.34466 -0.225652 3.71687
-0.351117 -0.370185 3.68724
-0.0951327 -0.428561 3.61811
-0.44519 0.0843697 3.7656
-0.0651401 -0.255161 3.63677
-0.577533 0.144768 3.98919
-0.278588 -0.803989 3.70832
-0.324515 0.189825 3.80449
0.394547 -0.361503 3.94554
0.0409809 -0.230484 3.75374
-0.46406 0.435864 3.90618
0.259011 -0.268723 3.9495
-0.0598722 0.0288973 3.80867
0.50349 -0.411175 4.04699
0.184533 -0.328294 3.79949
-0.00266564 -0.0514965 3.93631
-0.233754 0.292849 4.05291
-0.192219 0.155911 4.01853
