ply
    format ascii 1.0           
    element vertex 48
    property double x           
    property double y           
    property double z           
    end_header
-0.568221 1.69021 4.95352
-0.853701 1.91778 5.07237
-0.535631 2.07514 4.93515
0.409507 -0.73477 4.65114
-0.948507 0.641845 5.0003
-0.878418 -0.968437 4.50543
-0.143638 0.0614581 4.59029
-0.7673 -0.64086 4.27215
-0.9392 -0.317517 4.35123
-0.703316 1.30663 5.06981
-0.957447 0.0575268 4.89463
-0.630833 0.692285 4.82315
0.404395 -1.06167 4.84194
-0.457498 0.157848 4.6588
-0.446287 1.19085 4.87109
0.0584448 -0.784283 4.73532
-1.11037 -0.747116 4.70723
-0.581967 -1.29191 4.93982
-0.309889 -0.79669 4.67563
0.26893 -0.178742 4.70583
-0.754034 2.28633 5.14388
-0.781584 1.66469 5.31809
-1.02873 -0.207728 5.12259
-0.199515 0.388706 4.69178
-0.943755 0.884064 5.36061
-0.667654 0.237867 4.8706
-0.712678 0.901273 5.11754
-0.345373 0.849348 4.92272
-0.427042 2.37828 5.10847
-0.0249426 0.682506 4.96701
0.231653 -1.16829 5.25166
-0.465013 -0.47488 4.41792
-0.179405 1.19973 5.04465
0.226938 -0.486864 4.8508
-0.118451 -0.398796 4.66071
-0.520145 -0.85068 4.40493
-0.686958 -0.225522 4.59266
0.041758 0.18003 4.81062
-0.257686 -1.08275 4.90871
-0.410198 2.07003 5.31728
0.48461 -0.224481 4.96555
-0.331055 2.42105 5.37085
-0.557874 -1.08811 4.66669
0.549681 -0.695689 4.94154
-0.844602 1.92903 5.08142
-0.799061 1.6664 5.27775
-1.10164 -0.754256 4.73151
-0.871484 -1.01717 4.88207
