ply
    format ascii 1.0           
    element vertex 42
    property double x           
    property double y           
    property double z           
    end_header
-0.548239 -0.106298 5.36983
-0.529446 -0.953448 4.73815
-0.518219 -0.758247 4.84752
-0.660927 -0.322882 5.32407
-0.384691 -1.29907 4.59462
-0.750267 -0.930152 4.78847
-0.307924 -0.617163 4.9838
-0.191793 -0.83532 4.97552
-0.845392 -1.31873 4.47153
-0.091059 -1.25959 4.69172
-0.206308 -1.43642 4.5941
-0.322872 -1.0763 4.75972
-0.766919 -1.12496 4.5816
-0.464554 -0.449741 5.09009
-0.301584 -0.136152 5.39341
-0.865974 -0.848363 4.98451
-0.297695 0.029173 5.62388
-0.406388 -0.302514 5.24654
-0.576446 -1.23276 4.5893
-0.534768 -1.46312 4.55572
-0.956144 -1.12445 4.73721
-0.695918 -1.74012 4.7011
-0.904349 -1.66408 4.75102
-0.544836 -0.666757 5.03982
-0.772294 -1.5089 4.61266
-0.812359 -0.672142 5.25349
-0.153983 -1.63506 4.6901
-0.630668 -0.556681 5.21743
-0.986047 -1.3574 4.67436
-0.696768 -0.237633 5.53161
-0.784547 -0.550727 5.40452
-0.330041 -1.74963 4.76785
0.0274624 -1.53735 4.75471
-0.253635 -0.544815 5.27523
-0.21895 -1.05097 4.94164
0.0433563 -1.32668 4.86078
-0.163043 -0.746228 5.35972
-0.388128 -0.877683 4.98373
-0.230342 -0.257237 5.59595
-0.143049 -0.915681 5.14743
-0.776286 -1.4952 4.62764
-0.889743 -1.6459 4.70043
