ply
    format ascii 1.0           
    element vertex 44
    property double x           
    property double y           
    property double z           
    end_header
-0.447399 -0.443154 5.13684
-0.30299 -0.864168 5.39298
-0.263285 2.22778 5.88533
-1.24129 -0.732685 5.01576
-0.695192 -0.750523 5.07041
-0.755818 -0.0642977 5.11916
-1.69377 -0.481995 4.78819
-0.441995 0.414364 5.34771
-1.05879 0.15931 5.00716
-0.367704 1.79272 5.5955
-0.971517 0.519761 5.07396
-0.943717 -1.1266 5.57367
-1.50519 -0.13746 4.85564
-0.94393 -0.490813 4.99614
-0.577965 0.778148 5.21622
-0.654202 -1.0272 5.3264
-1.2311 -0.341086 4.93419
-0.768015 1.14209 5.28092
-0.611922 1.45544 5.44796
-1.55221 -1.05582 5.43174
-0.207916 -0.484623 5.41581
-0.767891 1.87395 5.52246
-0.409101 1.0799 5.62811
-1.4001 0.279981 5.06738
-1.01383 1.54791 5.57208
-1.54652 0.561189 5.30949
-0.294071 0.795355 5.89274
-1.60888 -0.694134 5.07076
-0.549133 0.0759427 5.42685
-1.79423 0.00619637 5.07206
-1.36217 1.01286 5.66819
-0.394992 1.41963 5.70831
-0.962074 0.793049 5.3318
-1.87471 -0.837655 5.43595
-1.0415 1.11516 5.53905
-1.27825 0.719724 5.46661
-1.91453 -0.379627 5.11012
-1.01898 1.84445 5.86609
-1.6138 0.179902 5.36801
-0.66451 2.07066 5.83502
-1.27721 1.27367 5.81936
-1.60871 -0.705337 5.13501
-1.89489 -0.114725 5.45477
-1.47611 0.77135 5.87319
