ply
    format ascii 1.0           
    element vertex 48
    property double x           
    property double y           
    property double z           
    end_header
-0.592774 -1.07295 3.41978
-0.571063 -0.870489 3.51989
-0.734373 -1.0108 3.42556
-0.409695 -0.941416 3.53182
-0.613844 -0.254015 3.95258
-0.780204 -1.15847 3.35425
-0.422576 -0.605534 3.6811
-0.425557 -0.126857 4.13872
-0.541086 -0.498355 3.76177
-0.725247 -0.869619 3.56879
-0.310558 -1.19574 3.40884
-0.502642 -0.384198 3.86896
-0.2343 -1.05959 3.47798
-0.322576 -0.752742 3.67849
-0.681317 -0.416314 3.93066
-0.449291 -1.10949 3.42056
-0.431919 -0.253416 3.96912
-0.569971 -0.728221 3.59314
-0.120086 -1.25267 3.52715
-0.547131 -1.23809 3.39963
-0.8076 -0.813685 3.70467
-0.249981 -1.33903 3.46124
-0.710077 -1.281 3.45377
-0.783263 -1.40275 3.56476
-0.630462 -1.44634 3.51897
-0.325323 -0.911334 3.6711
-0.583294 -0.664151 3.7358
-0.121409 -1.09656 3.59909
-0.374151 -0.54176 3.8825
-0.400005 -0.421292 3.97246
-0.286532 -0.680418 3.94357
-0.460275 -0.801275 3.67492
-0.358051 -0.33029 4.1379
-0.278867 -0.80929 3.83062
-0.334556 -0.549319 4.05391
-0.391941 -0.689353 3.80679
-0.136925 -1.2189 3.71519
-0.256142 -1.33324 3.4738
-0.361585 -1.42756 3.55349
-0.645912 -0.578285 3.86087
-0.860355 -1.01976 3.54267
-0.76351 -0.668786 3.90331
-0.705018 -0.742582 3.78288
-0.698796 -0.34647 4.09583
-0.866582 -1.19112 3.50726
-0.857148 -1.13056 3.68581
-0.775587 -0.798381 3.95306
-0.787378 -0.972301 3.68783
