ply
    format ascii 1.0           
    element vertex 57
    property double x           
    property double y           
    property double z           
    end_header
0.1988 -3.79995 15.0736
1.39501 -6.02847 15.6557
-0.238939 -5.87707 14.0415
-0.264682 -0.253673 18.2971
-0.283242 -1.76432 17.2641
1.02156 -6.1046 14.9454
0.00322804 -2.52439 17.0826
0.774771 -5.45957 14.5886
-0.791191 -4.29101 14.6963
1.06131 -5.48299 15.3174
0.503604 -3.67107 16.259
1.10626 -4.70079 15.651
0.733226 -4.87769 15.0324
-0.824388 -0.824134 17.6805
-0.585651 -2.00222 16.6326
-0.274138 -3.69122 14.6145
-0.0716333 -5.43984 14.5148
0.315413 -3.03709 16.2282
-0.593886 -1.15695 17.0128
0.413881 -4.38316 15.4183
-0.32574 -2.73586 15.8287
-1.19071 -4.78827 14.4081
-0.610885 -5.30908 14.0851
-1.06004 -0.474894 18.1272
-0.981317 -2.91275 15.6137
0.058746 -3.24072 15.6493
0.0221234 -4.76747 14.9474
0.674476 -4.28328 16.0826
-0.836374 -6.0481 13.9662
-0.571818 -5.00581 14.6215
-1.58079 -4.30558 14.6823
-0.376763 -3.45161 15.1993
0.142939 -6.78726 15.3371
-1.05978 -3.42696 15.2498
-0.613511 -6.44967 14.3238
-1.67066 -5.22643 14.4496
-1.1747 -1.37464 17.2987
-1.23565 -1.94251 16.9017
-0.892826 -2.51749 16.2726
-1.21287 -5.60825 14.2239
-0.820477 -0.164858 18.6547
-2.05495 -4.75693 14.9013
-1.20097 -3.97865 14.9942
-1.43562 -6.20192 14.2633
-1.94931 -4.26613 15.4062
1.19058 -5.81337 16.275
-0.404766 -0.20075 18.4604
0.952295 -6.5442 15.4534
0.0505133 -3.90231 15.6849
-0.30961 -2.35837 17.6743
0.947442 -4.91535 16.2929
-0.472655 -1.67352 17.9392
0.940616 -6.44226 16.5263
-0.816185 -0.900084 18.6557
-0.222625 -2.79602 16.4619
-0.830497 -2.54769 16.2051
0.129434 -3.49795 16.7175
