ply
    format ascii 1.0           
    element vertex 52
    property double x           
    property double y           
    property double z           
    end_header
-0.0217797 0.1262 0.93911
0.0165676 0.0308384 0.846057
0.00302427 0.0625227 0.867939
0.0158338 0.0898967 0.860141
-0.0172487 0.0182634 0.885392
0.028763 0.0585062 0.846881
-0.0128249 0.0840077 0.878162
0.0215496 0.121612 0.903977
0.055561 0.110258 0.860714
0.0568146 0.0920963 0.836266
0.0976782 0.135223 0.878374
0.0518641 0.0646699 0.828162
-0.0191595 0.149936 0.953782
-0.0068103 0.171925 0.976142
-0.02674 0.147955 0.982153
0.0382442 0.105598 0.888815
0.00804344 0.149682 0.94047
0.0719228 0.126479 0.8807
0.00617565 0.0300433 0.869643
0.048173 0.135915 0.898308
0.00852834 0.105281 0.923882
0.0335747 0.137343 0.923886
-0.00243906 0.080262 0.928887
-0.00796227 0.028675 0.909086
0.000328782 0.084187 0.904346
-0.0292484 0.17009 1.00335
-0.0100989 0.170193 1.03136
0.00906205 0.103588 0.88528
0.00350799 0.164102 1.00334
0.0579624 0.141996 0.933528
0.0834538 0.0878382 0.853065
0.0726595 0.136238 0.913514
0.0334065 0.146334 0.951936
0.0185927 0.154212 0.976961
0.133423 0.0672883 0.875037
0.11909 0.119165 0.886303
-0.0207738 0.125491 0.93899
0.132737 0.0929699 0.891687
0.0294927 0.0572813 0.846646
-0.041879 0.146098 1.02199
0.00509635 0.0608772 0.868354
-0.0146542 0.0155857 0.886612
0.0177075 0.0288151 0.845544
0.0269409 0.00458781 0.859837
0.00698857 0.0267235 0.870496
0.00249279 -0.00344206 0.885139
-0.010965 0.100634 0.951015
-0.00668839 0.042057 0.888721
0.0068036 0.104527 0.924221
-0.02336 0.115364 0.981766
-0.0242043 0.145928 0.9847
-0.00333043 0.0792265 0.929422
