ply
    format ascii 1.0           
    element vertex 40
    property double x           
    property double y           
    property double z           
    end_header
-1.01797 1.44606 3.52161
-0.94737 0.574758 3.00105
-1.13171 -0.00540818 4.07612
-1.15828 0.56633 3.2744
-0.667769 1.85659 3.73843
-0.695783 0.96121 2.78497
-1.09835 1.18268 3.54945
-1.04034 0.856758 3.1711
-0.352899 1.82356 3.68572
-1.1309 0.252355 3.40524
-0.687216 0.674449 2.86119
-0.723752 0.299166 3.07871
-0.0410138 2.12202 3.99199
-0.457039 1.06875 2.87699
-0.546191 1.59581 3.64572
-1.26643 1.355 3.70236
-0.517422 2.06174 3.90815
-0.828552 1.61319 3.65773
-0.258447 0.331847 3.15094
-0.437975 0.508856 2.96054
-0.239192 1.57456 3.69509
-0.894618 0.0377521 3.71079
-0.314054 0.842591 2.96401
-0.261875 2.21947 4.14884
-0.270133 2.0361 3.90374
-0.127596 1.84325 3.80392
0.0284452 0.856758 3.31947
-0.037229 1.66678 3.90079
-0.208847 0.660967 3.15629
-0.13146 1.10796 3.43694
-0.693445 1.26197 3.37668
-0.108061 0.575983 3.4315
-0.375174 1.33311 3.54974
-0.00824904 1.92844 4.07069
-0.238963 0.963317 3.25
-0.89663 1.02034 3.36994
-1.25473 1.34726 3.69017
-0.854792 1.76356 3.91797
-1.09254 1.55247 3.79341
-1.12311 0.564495 3.21194
