ply
    format ascii 1.0           
    element vertex 47
    property double x           
    property double y           
    property double z           
    end_header
-0.437803 -0.397918 4.06199
-0.468421 -0.509408 3.96644
-0.382085 -0.665778 3.90759
-0.334342 -0.919357 3.79944
-0.31607 -0.789384 3.88411
-0.531809 -0.506172 4.00232
-0.416844 -0.763766 3.90632
-0.164119 -1.00768 3.89414
-0.514513 -0.358121 4.11149
-0.232329 -0.788979 3.91817
-0.309771 -0.61146 3.95866
-0.384008 -0.99586 3.81828
-0.234457 -1.07324 3.89981
-0.375983 -0.85068 3.84796
-0.445115 -0.919916 3.86612
-0.431999 -0.599434 3.95176
-0.529886 -0.444385 4.06099
-0.597219 -0.382017 4.15658
-0.453748 -0.68036 3.97359
-0.194038 -0.865295 3.93014
-0.343917 -1.05089 3.8991
-0.347049 -1.12665 3.97633
-0.28428 -0.992377 3.85402
-0.123968 -0.937699 3.93831
-0.353198 -0.471108 4.03005
-0.22222 -0.938354 3.89011
-0.365213 -0.554785 3.99811
-0.246015 -0.647803 4.04194
-0.295564 -0.899964 3.87632
-0.220934 -0.740805 4.05047
-0.284073 -0.562519 4.04875
-0.297893 -0.703921 3.92209
-0.202268 -0.827962 4.01417
-0.426867 -0.388036 4.16346
-0.165265 -0.915163 4.03176
-0.370814 -0.456572 4.13105
-0.239571 -1.06963 3.90406
-0.51548 -0.447946 4.05575
-0.406642 -0.763432 3.90366
-0.375003 -0.991257 3.81391
-0.43043 -0.509065 3.95728
-0.434617 -0.909095 3.85245
-0.449373 -0.840661 3.9079
-0.478225 -0.776527 3.95562
-0.491632 -0.599471 4.00409
-0.496642 -0.700788 4.01488
-0.344305 -0.477353 4.02592
