ply
    format ascii 1.0           
    element vertex 50
    property double x           
    property double y           
    property double z           
    end_header
-0.228082 -0.0990877 1.56376
-0.144542 0.338374 1.44242
-0.139176 -0.0782531 1.44116
-0.107657 0.442854 1.41921
-0.213771 -0.0844787 1.6442
-0.101172 0.058185 1.35261
-0.172667 0.0391851 1.48037
-0.0909163 -0.217389 1.61281
-0.0766303 -0.161636 1.36781
-0.152916 0.254477 1.44115
-0.150432 -0.162356 1.57456
-0.152745 0.22854 1.5267
-0.118318 0.117324 1.59788
-0.102988 -0.0302034 1.35035
-0.12701 -0.17833 1.43725
-0.193051 -0.11637 1.48762
-0.186353 0.168315 1.48631
-0.0725845 -0.206611 1.49609
-0.198387 0.105264 1.45919
-0.146461 0.304449 1.51328
-0.13785 0.00737522 1.41316
-0.184175 -0.0294279 1.54443
-0.0334802 0.282384 1.35542
-0.120772 0.382749 1.49336
-0.0225936 -0.164939 1.30505
-0.141656 0.0919992 1.41565
-0.0260986 -0.1965 1.67758
-0.0107302 -0.0820844 1.29936
-0.0335264 -0.0899772 1.3739
-0.142456 0.17134 1.41996
-0.0954122 0.225721 1.38678
-0.0783536 0.148313 1.36713
-0.0148066 0.201361 1.34202
-0.0897737 0.302056 1.40699
-0.0234743 0.0894391 1.33423
0.0461277 -0.0316626 1.2808
-0.0479124 0.418616 1.45271
-0.0248476 0.00292092 1.34046
0.106114 -0.0694829 1.29319
0.105625 -0.213805 1.43835
0.0772769 -0.151021 1.31921
0.0525509 0.0906904 1.36024
-0.104883 0.44242 1.42317
0.046759 0.168663 1.40083
0.0333692 0.27787 1.40009
0.0842045 0.00666878 1.32404
0.0818512 -0.288377 1.43662
-0.0185029 0.339598 1.42628
-0.173032 0.0384214 1.47888
-0.229684 -0.0939263 1.55715
