ply
    format ascii 1.0           
    element vertex 58
    property double x           
    property double y           
    property double z           
    end_header
0.743094 -2.0353 6.15961
1.00707 -1.81868 6.4712
0.151714 -2.03047 6.03087
0.407509 -1.16084 6.40511
0.0905951 -1.57271 5.98633
0.524514 -2.13045 6.06222
0.0784314 -2.24907 6.04253
0.879217 -1.84139 6.23721
0.119162 -0.717462 6.41425
0.254332 -1.54914 6.17047
0.0569692 -0.871284 6.26376
0.312387 -0.857967 6.47644
-0.346802 -2.25969 6.07804
0.26481 -1.78497 6.13146
0.222585 -1.30278 6.06435
-0.124559 -1.43129 6.01699
0.544105 -1.54111 6.42362
0.156654 -0.633881 6.64177
0.187084 -1.0401 6.35786
0.508562 -1.92057 6.19014
0.814728 -1.67636 6.52023
-0.234785 -0.478227 6.62749
0.255819 -1.24647 6.28602
0.0608085 -1.15293 6.16466
-0.253488 -2.07739 6.13901
-0.144048 -1.66997 6.07223
0.0237 -1.83676 6.08279
0.649238 -1.74334 6.32916
-0.121325 -2.31676 6.12034
-0.194428 -1.88175 6.14638
-0.207283 -0.768057 6.36843
-0.250583 -1.27257 6.27619
0.320257 -2.06329 6.17478
-0.0724366 -0.621068 6.51162
-0.338497 -1.69395 6.20407
-0.0365975 -2.0466 6.17287
-0.411368 -2.15375 6.27595
0.414948 -1.70848 6.35281
-0.408738 -0.489686 6.78028
0.0461089 -1.39384 6.16447
-0.154554 -1.03625 6.23837
-0.292447 -1.00319 6.42005
-0.307552 -1.97866 6.34082
0.960457 -2.04279 6.38758
0.835698 -2.25664 6.34698
0.343662 -1.42308 6.40728
-0.217147 -0.494227 6.60065
0.115179 -0.732544 6.41936
0.161811 -0.631611 6.6481
0.258497 -1.24871 6.27509
0.368274 -1.07452 6.63624
0.433656 -1.31321 6.6064
-0.198918 -0.54983 6.90611
0.240444 -0.867905 6.70576
0.0635595 -0.779546 6.8632
0.182167 -1.0977 6.81797
1.05706 -1.8053 6.47891
0.852247 -1.89393 6.65521
