ply
    format ascii 1.0           
    element vertex 64
    property double x           
    property double y           
    property double z           
    end_header
-0.324834 -0.0957868 2.19884
-0.472805 0.122886 2.16581
-0.240611 -0.322242 2.06483
-0.334185 -0.612776 1.57712
-0.360578 -0.192592 2.01512
-0.181761 -0.629155 1.81423
-0.162066 -0.579335 1.92595
-0.277798 -0.395904 1.87015
-0.300271 -0.848735 1.56328
-0.322307 -0.314844 1.95816
-0.268975 -0.966916 1.59174
-0.482341 -0.0461517 2.03149
-0.259296 -0.720551 1.61977
-0.254584 -0.530662 1.82155
-0.368601 -0.447419 1.79507
-0.418413 -0.243235 1.90686
-0.403146 -0.352034 1.85101
-0.403759 -0.112452 2.10241
-0.351198 -0.54064 1.74444
-0.401046 -0.553169 1.64157
-0.5899 0.0873164 2.18131
-0.46794 -0.498656 1.73449
-0.366284 -0.734653 1.55403
-0.499795 -0.425 1.81583
-0.496578 -0.171729 2.02592
-0.534863 -0.254179 1.95603
-0.4502 -0.601446 1.55457
-0.483377 -0.701679 1.5675
-0.518952 -0.354802 1.91534
-0.583656 -0.143599 2.09403
-0.497015 -0.897094 1.55165
-0.224899 -0.8326 1.65091
-0.217298 -0.71385 1.73644
-0.42707 -0.0128155 2.23285
-0.28282 -0.615048 1.68523
-0.175392 -0.917309 1.75787
-0.121433 -0.950984 1.86461
-0.149101 -0.840358 1.90588
-0.124484 -0.922174 2.00217
-0.233989 -0.82888 1.78122
-0.244243 -0.501 1.96039
-0.15943 -0.702571 1.95544
-0.307604 -0.238981 2.1312
-0.168672 -0.807392 2.03626
-0.209891 -0.741555 1.85006
-0.302714 -0.422879 2.03319
-0.195504 -0.610386 2.03367
-0.505187 0.105626 2.26303
-0.286282 -0.539177 2.09302
-0.315482 -1.0474 1.65759
-0.533089 -0.0292877 2.13172
-0.168678 -1.018 2.01033
-0.334878 -0.281102 2.23186
-0.468194 -0.504791 1.7343
-0.448968 -0.60201 1.55433
-0.491188 -0.88872 1.54473
-0.494442 -0.17899 2.02679
-0.476733 -0.691255 1.55441
-0.592941 0.0940313 2.17804
-0.498057 -0.427207 1.8143
-0.502639 -0.595793 1.64065
-0.516702 -0.354545 1.90198
-0.53094 -0.259029 1.95284
-0.54879 -0.570122 1.73687
