ply
    format ascii 1.0           
    element vertex 35
    property double x           
    property double y           
    property double z           
    end_header
-0.0993777 -0.110626 2.62247
-0.231587 0.0721643 2.62512
-0.178957 -0.224164 2.67719
-0.223724 0.37227 2.80293
-0.281239 -0.123608 2.72082
0.015494 -0.048762 2.55294
-0.291724 0.146065 2.75356
-0.179304 0.627575 2.85081
0.151224 -0.00488302 2.53636
-0.119079 0.388517 2.69178
0.00524429 0.218758 2.62396
-0.0762024 0.0357686 2.62806
-0.153548 0.497079 2.79132
-0.135478 0.190378 2.67283
-0.0355915 0.597203 2.7824
-0.183177 -0.0293309 2.69525
0.0789571 0.085626 2.63668
-0.0783665 0.71116 2.88731
-0.00250819 0.443568 2.746
0.062521 0.319007 2.70253
0.169719 -0.127356 2.62047
0.0900568 0.545391 2.82966
0.168501 0.269026 2.78136
0.144049 0.402299 2.7894
-0.300807 -0.24999 2.80204
-0.268268 0.469785 2.90026
-0.194294 0.240578 2.79365
-0.297125 -0.0047713 2.80763
-0.251161 0.59669 2.97325
-0.369482 -0.0927945 2.89704
-0.300175 0.015108 2.95725
-0.148821 0.780488 3.06001
-0.338896 -0.104472 3.02955
-0.233366 0.256569 2.95074
0.00278832 0.449118 2.74217
