ply
    format ascii 1.0           
    element vertex 41
    property double x           
    property double y           
    property double z           
    end_header
-0.0668666 -0.238684 1.73107
-0.0989087 -0.427241 1.84212
0.0121668 -0.0069115 1.75545
-0.01459 -0.361067 1.82745
0.0864266 -0.336317 1.82609
-0.0174868 -0.147048 1.77887
0.178234 -0.308916 1.86973
0.0882381 -0.135764 1.80846
0.0481226 0.158784 1.80218
0.0134784 -0.256373 1.81322
-0.162258 -0.350549 1.79804
-0.056854 0.193879 1.76907
-0.0967155 0.00632246 1.77076
0.105879 -0.220574 1.87397
-0.0355643 0.0904837 1.7738
-0.148634 0.0939279 1.78539
-0.0837861 -0.284399 1.8205
-0.149939 0.201586 1.81978
-0.281724 -0.289107 1.84868
-0.190709 -0.249442 1.82177
-0.143473 -0.159206 1.76065
-0.222732 -0.415697 1.85429
-0.105787 0.344402 1.86002
-0.250533 -0.202029 1.8908
-0.177964 -0.0351585 1.87098
-0.318397 -0.266215 1.94127
0.0998956 -0.0443344 1.8529
-0.277934 -0.352285 1.91165
-0.0943381 -0.0823732 1.81053
0.0874447 -0.334305 1.82558
0.178952 -0.303405 1.86802
0.015556 -0.261028 1.81104
-0.0489754 0.391459 1.93717
-0.00317214 0.261254 1.81192
-0.090212 0.268006 1.82324
0.10716 -0.227635 1.85926
0.0637096 0.0495764 1.82805
0.094784 0.132726 1.88669
0.0279443 -0.397222 1.92099
0.122976 0.0334512 1.9197
0.13124 -0.368501 1.9514
