ply
    format ascii 1.0           
    element vertex 38
    property double x           
    property double y           
    property double z           
    end_header
-0.637459 0.709741 2.23091
-0.674506 0.359366 2.02493
-0.705012 0.0532202 1.95974
-0.577184 0.598732 2.1261
-0.470473 0.034957 1.90993
-0.773103 -0.0875683 2.02606
-0.584896 0.269818 1.89019
-0.49743 0.875512 2.22409
-0.722471 0.182445 2.07454
-0.42485 0.59925 2.04012
-0.150279 0.110037 1.90332
-0.476498 0.72305 2.15505
-0.597366 -0.0802537 1.93403
-0.299163 0.386645 1.9806
-0.473783 0.377143 1.99349
-0.422121 0.195994 1.93866
-0.326962 0.812745 2.1962
-0.248998 0.218891 1.98452
-0.311337 0.0851418 1.87089
-0.385702 0.945022 2.30479
-0.303363 0.635649 2.14629
-0.242761 0.488174 2.09973
-0.17848 -0.0351776 1.98231
-0.213151 0.725553 2.26697
-0.167438 0.558693 2.24071
-0.213172 0.327407 2.10925
-0.368123 1.04632 2.60172
-0.360725 -0.0862614 2.0049
-0.504967 0.949458 2.35852
-0.50311 1.02589 2.48465
-0.614841 0.844224 2.34033
-0.72461 0.181761 2.07299
-0.84929 0.0950996 2.13305
-0.564132 0.444006 2.12195
-0.777502 0.202589 2.22567
-0.811698 -0.0432095 2.18096
-0.57045 0.863983 2.50357
-0.852186 0.0611636 2.29672
