ply
    format ascii 1.0           
    element vertex 51
    property double x           
    property double y           
    property double z           
    end_header
-0.107981 -0.191222 0.698496
-0.0974024 -0.219523 0.686319
-0.0349027 -0.145958 0.739827
-0.0784128 -0.202495 0.686291
-0.0471353 -0.105641 0.767712
-0.0502931 -0.18067 0.697769
-0.0494028 -0.218996 0.700772
-0.0692614 -0.164284 0.709178
-0.058596 -0.138077 0.738204
-0.0706157 -0.120502 0.750599
-0.0855589 -0.186201 0.704073
-0.0737627 -0.104959 0.771981
-0.125359 -0.197076 0.715162
-0.0451988 -0.128134 0.756631
-0.0440741 -0.173516 0.722902
-0.066265 -0.0891781 0.807823
-0.106026 -0.181117 0.719615
-0.0828068 -0.129874 0.77343
-0.057485 -0.0988652 0.788381
-0.0838948 -0.174159 0.726363
-0.113774 -0.212943 0.702132
-0.0626761 -0.161235 0.735341
-0.0987801 -0.182007 0.747672
-0.0855345 -0.0985237 0.821656
-0.0817107 -0.108082 0.796322
-0.0849237 -0.153806 0.785815
-0.0866616 -0.154683 0.744773
-0.0665008 -0.0889778 0.805744
-0.0576312 -0.0981312 0.787176
-0.0781216 -0.202935 0.687202
-0.0380675 -0.102976 0.790805
-0.032029 -0.145216 0.740873
-0.0257361 -0.12295 0.776568
-0.0499649 -0.179764 0.697191
-0.0686713 -0.227471 0.688598
-0.0411488 -0.172503 0.72166
-0.0476007 -0.218539 0.699541
-0.0375807 -0.200079 0.712741
-0.020194 -0.182023 0.735626
-0.0216297 -0.173863 0.758797
-0.0234097 -0.220092 0.708518
-0.00669085 -0.227798 0.726814
-0.0266412 -0.149234 0.766131
-0.0260732 -0.145336 0.792736
-0.0224617 -0.169718 0.7843
-0.0345634 -0.123446 0.802426
-0.0230573 -0.208463 0.734119
-0.0608175 -0.0967192 0.830407
-0.0257008 -0.191907 0.776539
-0.0260076 -0.197616 0.755355
-0.0229852 -0.231377 0.748291
