ply
    format ascii 1.0           
    element vertex 41
    property double x           
    property double y           
    property double z           
    end_header
-5.26694 -2.76493 20.8335
-4.99752 -3.45083 20.1612
-5.56149 -6.76501 19.5994
-5.11845 -5.49525 18.93
-4.56895 -1.71962 20.5128
-5.05667 -1.91127 21.3942
-5.51711 -4.94549 19.8151
-6.15976 -6.47031 20.823
-5.6716 -7.53598 20.1956
-5.5703 -5.95859 20.2507
-5.08715 -4.19842 21.2226
-4.21137 -3.41944 19.4272
-4.29739 -0.768078 21.9725
-4.2836 -6.77993 18.9657
-4.41868 -4.76191 19.3102
-4.88334 -7.49705 19.389
-4.41243 -2.65607 20.1505
-3.54813 -2.03665 20.1337
-3.4294 -4.64869 18.9952
-3.0109 -3.97271 19.5785
-2.51055 -7.05707 19.0218
-4.08612 -5.82903 19.0047
-2.52414 -6.25997 18.4669
-3.49123 -6.45795 18.5112
-3.0516 -5.61436 19.0412
-3.36882 -3.09269 19.8954
-2.73727 -2.49645 20.4776
-3.39996 -0.569972 22.5439
-2.42074 -3.48279 20.2334
-2.7552 -4.93204 19.663
-2.30678 -4.39849 20.1829
-3.8232 -1.21199 20.8472
-3.05953 -1.67953 21.0033
-2.58761 -2.21621 21.7324
-3.48526 -1.18305 21.7973
-4.46074 -1.25182 21.3744
-4.32487 -0.72844 22.0607
-2.25906 -6.21189 19.5058
-5.09657 -1.88527 21.3747
-6.13283 -6.49077 20.8365
-5.60472 -5.9548 20.2319
