ply
    format ascii 1.0           
    element vertex 44
    property double x           
    property double y           
    property double z           
    end_header
-0.637654 -0.158947 4.65561
-0.313754 0.574041 4.58979
-0.434347 0.548517 4.89933
-0.553633 -0.495761 4.62528
-0.00677 1.52609 5.16455
-0.604135 0.258925 4.78967
-0.603391 0.0310171 4.85755
0.0130726 1.05023 4.74079
0.0798266 1.30198 4.75367
-0.344375 0.769356 4.76026
-0.583703 0.0844829 4.55865
-0.205198 -0.282531 4.41052
-0.151507 0.356786 4.51995
0.0241075 0.215793 4.34232
-0.518877 -0.755754 4.71847
-0.405975 0.366404 4.70433
-0.294569 -0.604907 4.57854
-0.114802 0.000541458 4.37342
0.0426801 -0.562465 4.46206
-0.478426 -0.261275 4.50136
0.262333 1.02886 4.76501
0.306198 -0.652915 4.53532
0.430266 -0.385935 4.42383
0.418728 -0.127815 4.56077
0.218284 -0.375278 4.52303
0.0875507 1.64971 4.95011
-0.0430067 0.595875 4.62125
0.27626 1.47133 4.84154
-0.376816 -0.0632321 4.44455
0.138313 0.360179 4.51124
0.11512 0.796842 4.74495
0.623643 -0.324513 4.61793
0.199509 0.0670264 4.52887
0.0470546 -0.153031 4.51136
0.35779 0.780184 4.85946
0.426288 1.41125 5.07493
0.258425 0.265303 4.69797
0.415057 0.983337 5.02098
0.375767 0.634284 5.03396
0.304298 -0.78405 4.77955
0.203473 0.530636 4.84369
0.309747 1.20282 4.94735
-0.336313 0.774044 4.74702
0.296463 0.231397 4.98902
