ply
    format ascii 1.0           
    element vertex 51
    property double x           
    property double y           
    property double z           
    end_header
-0.217263 -0.259279 2.00117
-0.327186 -0.398289 1.99715
-0.265279 -0.583444 1.83147
-0.384386 -0.495975 2.01082
-0.166498 -0.228786 1.99563
-0.17684 -0.199044 2.0458
-0.32149 -0.437175 1.95537
-0.36364 -0.62917 1.94264
-0.27849 -0.396533 1.96752
-0.344426 -0.501805 1.91357
-0.37776 -0.518112 1.95655
-0.321124 -0.455956 1.89822
-0.238474 -0.310595 1.99513
-0.300563 -0.369684 2.03588
-0.390141 -0.560915 1.97238
-0.38181 -0.666327 1.98858
-0.390337 -0.612419 1.99105
-0.389738 -0.549075 2.02237
-0.353911 -0.472742 2.05678
-0.200025 -0.293215 2.04772
-0.329533 -0.44707 2.02177
-0.334966 -0.482824 1.9801
-0.166209 -0.238579 2.08529
-0.226066 -0.346286 2.047
-0.304834 -0.420497 2.06309
-0.355821 -0.52065 2.05362
-0.274431 -0.437142 1.91548
-0.36319 -0.560396 1.91905
-0.324885 -0.618089 1.88256
-0.24128 -0.539434 1.86333
-0.195069 -0.316779 1.96641
-0.278763 -0.640114 1.85364
-0.272761 -0.498481 1.89704
-0.176762 -0.374081 1.95461
-0.206607 -0.583268 1.83665
-0.303569 -0.540884 1.9096
-0.251041 -0.676366 1.88644
-0.230624 -0.363352 1.97104
-0.111563 -0.255533 2.00598
-0.212364 -0.424272 1.96286
-0.233899 -0.468089 1.9236
-0.158635 -0.413926 1.96958
-0.187386 -0.489456 1.94933
-0.155237 -0.290956 1.99759
-0.117747 -0.228687 2.05637
-0.137173 -0.342918 1.98082
-0.302318 -0.369733 2.03373
-0.365034 -0.63261 1.94347
-0.389986 -0.551891 2.02178
-0.241045 -0.312865 1.99492
-0.387869 -0.564141 1.97361
