ply
    format ascii 1.0           
    element vertex 45
    property double x           
    property double y           
    property double z           
    end_header
-0.101308 -0.306441 1.12556
-0.111833 -0.469394 1.15137
-0.107968 -0.406418 1.09304
-0.146136 -0.482939 1.12132
-0.105094 -0.233481 1.10723
-0.172578 -0.407105 1.05637
-0.13863 -0.357592 1.07024
-0.127932 -0.427268 1.08704
-0.147472 -0.454948 1.08767
-0.179492 -0.479531 1.09927
-0.211636 -0.488361 1.09229
-0.129918 -0.3841 1.08494
-0.174157 -0.446721 1.0703
-0.196669 -0.465845 1.0764
-0.113432 -0.304715 1.10019
-0.154123 -0.400311 1.08359
-0.0889858 -0.257518 1.12148
-0.194619 -0.42961 1.06388
-0.134031 -0.241321 1.11449
-0.101258 -0.277535 1.10192
-0.132401 -0.279027 1.11031
-0.163589 -0.37436 1.07538
-0.175245 -0.349607 1.08037
-0.187522 -0.38097 1.0645
-0.169424 -0.321585 1.09084
-0.146281 -0.306614 1.10552
-0.149433 -0.331986 1.07566
-0.116488 -0.33195 1.11566
-0.110955 -0.385496 1.11174
-0.123543 -0.355751 1.09777
-0.15406 -0.428316 1.07127
-0.114109 -0.437465 1.15096
-0.0995334 -0.307698 1.12495
-0.132192 -0.462556 1.13557
-0.137223 -0.491025 1.15043
-0.112667 -0.45663 1.17818
-0.110058 -0.331852 1.14505
-0.118786 -0.416295 1.12524
-0.135557 -0.438665 1.11509
-0.111036 -0.469154 1.14949
-0.146002 -0.482492 1.12054
-0.160537 -0.459066 1.11762
-0.166299 -0.490582 1.13772
-0.113464 -0.303471 1.09913
-0.19488 -0.428798 1.06637
