ply
    format ascii 1.0           
    element vertex 61
    property double x           
    property double y           
    property double z           
    end_header
0.241603 -1.0937 3.39488
-0.0597555 -0.531393 3.3534
0.281397 -1.16992 3.46303
0.271766 -1.0575 3.48841
0.122167 -0.942172 3.1662
0.234209 -1.2018 3.36353
0.0291769 -0.69033 3.38152
0.149409 -1.04739 3.25922
0.0986772 -0.861422 3.30769
0.0702404 -0.786154 3.46223
-0.0661471 -0.641962 3.32864
0.0599554 -1.24063 3.23261
0.0193374 -0.814728 3.25139
0.109257 -1.15111 3.24929
-0.0370711 -0.741147 3.2948
0.159111 -1.12856 3.33398
-0.168971 -0.612515 3.27856
0.029268 -1.15807 3.17991
0.0506468 -1.06682 3.21813
0.0669992 -0.894019 3.2254
-0.131469 -0.708113 3.27188
-0.14937 -0.800989 3.23799
-0.246918 -0.523139 3.2954
-0.164031 -0.520414 3.33247
0.0216562 -0.949853 3.1519
-0.286799 -0.448605 3.376
-0.0884021 -1.18138 3.17818
-0.195119 -0.404895 3.40847
-0.0474378 -1.09702 3.18995
-0.014896 -1.30199 3.26224
-0.146807 -1.11782 3.19291
-0.036695 -0.895017 3.21896
-0.0414399 -1.22185 3.23718
-0.133901 -1.0502 3.25645
-0.272851 -0.61271 3.32487
-0.0411936 -1.00385 3.22677
-0.0995706 -0.860334 3.27434
-0.127851 -0.97125 3.30804
-0.108893 -0.443271 3.39831
-0.22545 -0.706763 3.32577
-0.228093 -0.808393 3.32447
0.0623264 -0.779636 3.34557
-0.0159044 -0.604576 3.43616
0.146027 -0.864389 3.43487
0.162628 -1.02968 3.35637
0.172387 -0.917461 3.5135
0.0844758 -0.779691 3.45871
0.184512 -1.00005 3.45716
0.149423 -0.942787 3.26598
0.164787 -0.934685 3.36743
0.260363 -1.18419 3.56073
0.0197368 -0.707051 3.495
0.257832 -1.09641 3.59726
0.230566 -0.997051 3.56485
-0.173661 -0.470403 3.49587
-0.0983731 -0.540961 3.45881
-0.0701631 -0.608673 3.53195
-0.0143453 -0.800296 3.54568
-0.156681 -0.575586 3.54016
-0.0696472 -0.714549 3.55132
-0.0362809 -0.746774 3.29701
