ply
    format ascii 1.0           
    element vertex 66
    property double x           
    property double y           
    property double z           
    end_header
-0.184382 -1.75005 5.7603
-0.741195 -0.475767 6.30242
-0.494744 -0.343202 6.43413
-0.350472 -1.67831 5.60058
-0.126095 -1.00514 6.44559
0.153385 -1.89418 6.12934
-0.564387 -1.46015 5.58608
0.0216843 -1.86117 5.85998
-0.342625 -1.21616 5.97266
-0.387679 -2.03304 5.51706
-0.229122 -2.18054 5.58042
-0.0501365 -2.0812 5.7962
-0.184361 -1.96228 5.63353
-0.627608 -0.157943 6.54856
-0.388828 -0.676196 6.29563
-0.305662 -0.932043 6.29444
-0.525484 -1.82699 5.4968
0.0143868 -1.2987 6.03885
-0.118779 -1.44721 5.93926
-0.90313 0.0680916 6.78848
-0.505868 -0.847523 6.18426
0.175662 -1.41461 6.17259
-0.0753239 -1.67064 5.96175
0.215343 -1.65169 6.17336
-0.496834 -1.45658 5.82423
0.269806 -2.2474 6.38516
-0.759807 -0.908828 6.20806
0.0873855 -2.39436 6.1729
-0.122192 -2.28793 5.75268
-0.455962 -1.09104 6.16614
-0.693294 -1.66341 5.57965
-0.47253 -0.267104 6.82729
-0.607026 -1.2469 5.98169
-0.309633 -1.6085 5.9294
-0.245117 -1.19151 6.31147
-0.63806 -2.07771 5.62283
-0.647548 -0.74325 6.37985
-0.71594 -1.14755 6.1669
-1.11699 -1.62152 5.96246
-0.783504 -1.87532 5.64795
-0.903009 -1.49316 5.94233
-0.901934 -1.32131 6.17858
-0.922681 -1.17358 6.39942
-0.450881 -2.26415 5.63086
-1.10464 -1.4637 6.13256
-0.733775 -1.44672 6.01911
-0.615718 -2.42805 5.8459
-0.92914 -1.77027 5.89175
0.182066 -1.42062 6.18333
-0.127732 -1.01258 6.45633
-1.06067 -2.20843 6.59777
-0.181044 -1.7558 5.76009
0.299082 -2.23841 6.37239
0.120273 -2.38004 6.1521
-0.898257 0.0637884 6.77685
0.156369 -1.8997 6.14262
-0.0409244 -2.07447 5.79516
-0.329075 -2.3868 5.81339
-0.396742 -0.424095 6.66405
-0.116253 -2.29068 5.74618
0.138043 -2.13031 6.22999
-0.0756917 -1.67102 5.96306
-0.22318 -0.763312 6.47174
-0.244514 -1.18977 6.30679
0.298359 -2.01934 6.3887
0.0189006 -1.86257 5.87968
