ply
    format ascii 1.0           
    element vertex 63
    property double x           
    property double y           
    property double z           
    end_header
-0.256498 -0.280897 1.02945
-0.207685 -0.192262 1.02287
-0.176575 -0.0751463 1.05879
-0.227323 -0.291077 0.989891
-0.242861 -0.258513 1.01139
-0.188943 -0.197508 0.978362
-0.158679 -0.269649 0.961938
-0.1648 -0.20815 0.961025
-0.170529 -0.0512567 1.07886
-0.155106 -0.0207041 1.12016
-0.158738 -0.236788 0.955513
-0.145871 -0.0800608 1.05097
-0.245138 -0.304554 1.01187
-0.174606 -0.149512 1.02775
-0.195091 -0.143623 1.0503
-0.196254 -0.0970624 1.08534
-0.255438 -0.23306 1.03857
-0.200711 -0.219479 0.992565
-0.217353 -0.261851 0.993182
-0.22984 -0.31995 0.992713
-0.18261 -0.118687 1.03998
-0.199655 -0.153086 1.08125
-0.191438 -0.246444 0.986254
-0.21605 -0.198092 1.05477
-0.220737 -0.250261 1.11555
-0.191315 -0.173167 1.0419
-0.254013 -0.260646 1.0537
-0.24346 -0.286299 1.06569
-0.238244 -0.30974 1.04514
-0.178662 -0.1274 1.07341
-0.220576 -0.233274 1.08979
-0.197463 -0.184861 1.0739
-0.198906 -0.206783 1.09598
-0.119358 -0.303869 0.949334
-0.1555 -0.124656 1.02239
-0.146241 -0.328487 0.966104
-0.14915 -0.153922 1.00964
-0.201315 -0.300587 0.976319
-0.16465 -0.18058 1.02029
-0.204393 -0.327528 0.982616
-0.143995 -0.295387 0.966094
-0.122404 -0.276666 0.951461
-0.195617 -0.271384 0.971307
-0.224994 -0.227261 1.03659
-0.128819 -0.0567199 1.06747
-0.171565 -0.290485 0.976395
-0.0945446 -0.261245 0.96525
-0.154526 -0.110088 1.05069
-0.162171 -0.190381 0.989
-0.0845869 -0.234532 0.993554
-0.130289 -0.183259 1.00849
-0.145081 -0.0425392 1.09202
-0.196769 -0.142792 1.04967
-0.203039 -0.241418 1.0159
-0.214376 -0.198371 1.05589
-0.198242 -0.152884 1.08277
-0.221278 -0.233424 1.09007
-0.203118 -0.227567 1.11971
-0.22238 -0.249887 1.11611
-0.176663 -0.129089 1.07431
-0.197553 -0.181089 1.07399
-0.198823 -0.204116 1.09642
-0.153445 -0.111795 1.05278
