ply
    format ascii 1.0           
    element vertex 39
    property double x           
    property double y           
    property double z           
    end_header
-0.0177379 0.591067 1.81242
0.21712 -0.0178407 1.59894
0.18274 0.296469 1.63375
0.277713 0.105113 1.58808
0.275906 0.199826 1.529
0.00728899 0.522302 1.79662
0.0730356 0.47033 1.74212
0.0984232 0.40506 1.72754
0.292476 0.169768 1.59321
0.176949 0.312479 1.72002
0.201645 0.255787 1.69099
-0.0196643 0.495508 1.86308
0.28053 0.0660862 1.63569
0.266556 0.189278 1.64879
0.165122 0.219702 1.73501
0.0635269 0.386393 1.78661
-0.0629769 0.552887 1.85049
0.234573 0.0685461 1.68079
0.0308588 0.447059 1.79203
0.248394 0.134003 1.64605
0.135772 0.273503 1.76388
0.209094 0.0096274 1.66365
0.186019 0.0128737 1.54595
0.21739 0.164263 1.68467
0.180039 0.114055 1.69272
0.116305 0.343967 1.75354
0.0580299 0.313683 1.78143
0.186008 0.0571204 1.70448
0.203993 0.210702 1.64722
0.253434 0.222988 1.5927
0.133252 0.351179 1.68116
-0.0831289 0.575446 1.7831
0.187613 0.241973 1.59305
0.151217 0.235605 1.54047
0.283437 0.0691507 1.63899
0.209574 0.220498 1.52947
0.278022 0.200189 1.53084
0.166626 0.2202 1.73691
0.234725 0.0682593 1.68113
