ply
    format ascii 1.0           
    element vertex 53
    property double x           
    property double y           
    property double z           
    end_header
-1.1799 -0.525498 4.81185
-1.20067 -0.754701 4.75063
-1.08716 -0.769982 4.63622
-1.20966 -1.56234 4.09657
-1.0794 -1.74392 4.02482
-1.16555 -0.954205 4.54792
-1.31689 -1.29514 4.44441
-1.22298 -1.71566 4.0882
-1.06492 -1.1639 4.3754
-1.04831 -1.03535 4.47319
-1.20366 -1.28651 4.18232
-1.21401 -0.904982 4.80085
-1.37508 -1.60447 4.34934
-1.16244 -1.14353 4.50106
-1.10713 -1.32109 4.0472
-1.05327 -1.59296 4.03174
-1.21855 -1.43319 4.14046
-1.32374 -1.46508 4.41479
-1.05607 -1.45794 4.09657
-1.27777 -1.65436 4.23159
-1.40317 -1.55431 4.49991
-1.27555 -1.35068 4.30908
-1.21131 -1.07611 4.63761
-1.26379 -1.5093 4.27748
-1.11007 -0.686448 4.9305
-1.17121 -1.27134 4.40749
-1.29764 -1.50525 4.59964
-1.23558 -1.2575 4.55985
-1.17834 -1.78629 4.45103
-0.907034 -1.52676 4.11177
-1.02648 -0.92073 4.61532
-1.0443 -0.593147 4.8144
-0.853143 -1.23279 4.44701
-0.932459 -1.36107 4.13523
-0.980888 -0.712999 4.72761
-0.661312 -1.6201 4.30739
-0.953562 -1.27182 4.34316
-0.708667 -1.72908 4.23964
-0.829505 -1.44518 4.20742
-0.931712 -1.09414 4.55375
-0.835016 -1.35947 4.38328
-1.04499 -1.28773 4.22897
-1.41144 -1.55068 4.497
-0.915136 -1.66087 4.06378
-1.22285 -0.901777 4.8026
-1.27023 -1.35135 4.30939
-1.14456 -0.686022 4.91654
-1.32637 -1.4642 4.41539
-1.26383 -1.50765 4.27769
-1.23525 -1.25836 4.56116
-1.20876 -1.43346 4.14066
-1.33304 -1.49228 4.588
-1.38815 -1.67209 4.48351
