ply
    format ascii 1.0           
    element vertex 45
    property double x           
    property double y           
    property double z           
    end_header
-0.522861 3.18291 8.74632
-0.51276 2.37151 8.77303
-0.33951 0.397721 8.0381
-0.595408 2.90723 8.98961
-0.729459 1.24481 8.49542
-0.367246 2.56055 8.47188
-0.702248 1.66943 8.43671
-0.344755 2.09102 8.53061
-0.52885 1.43142 8.21672
-0.2093 3.06901 8.56238
-0.310366 1.49092 7.92075
-0.50892 1.04369 8.28164
-0.0625047 1.96484 8.31822
-0.29946 0.779123 7.9426
-0.0538151 1.31424 7.6933
0.0979636 0.675657 7.89867
-0.53395 0.663301 8.28678
-0.319986 1.11729 7.9303
-0.0728527 2.33625 8.42116
0.0704814 1.05252 7.91574
0.0393877 0.305633 8.00098
0.413172 0.920777 8.07654
0.343488 1.32309 8.01217
-0.0629507 2.77409 8.71603
0.393677 1.90631 8.63067
-0.484183 3.71428 8.68389
0.856559 0.573991 8.60862
0.94999 0.901857 8.69677
-0.190888 3.60517 8.85923
0.18292 2.28312 8.67239
-0.0135459 3.30295 8.79481
0.554799 1.20642 8.25365
0.628723 0.838934 8.57512
0.631377 0.383374 8.80309
-0.980139 1.09804 8.71979
-0.35408 2.08878 8.52133
-0.52575 0.657042 8.30544
-0.59441 2.89942 8.97429
-0.693433 1.68113 8.45892
-0.528285 1.43203 8.21981
-0.825381 0.859386 8.45296
-0.903723 0.770909 8.81551
-0.440747 0.521718 8.95626
-0.540323 2.17861 9.07115
-0.562148 1.69586 9.04983
