ply
    format ascii 1.0           
    element vertex 46
    property double x           
    property double y           
    property double z           
    end_header
-1.37469 2.0941 17.3005
-1.00364 -1.13522 17.4609
-1.87153 6.72736 21.2097
-3.28611 2.58775 19.9028
-2.74631 8.58374 22.0338
-1.37585 4.64468 20.2318
-1.36564 3.60191 19.6429
-2.80902 6.91368 21.8624
-2.31755 5.24618 20.5789
-0.846857 0.0569131 17.4363
-2.11769 2.43143 18.1594
-2.23571 3.8185 20.4009
-0.952849 1.16448 17.7693
-3.62077 0.13509 19.3395
-2.14465 -0.913138 17.7139
-2.06391 0.296567 17.685
-3.00442 5.89893 22.3308
-2.17969 1.31274 17.8822
-4.07335 0.644144 20.3333
-2.14709 2.7747 19.8116
-2.79854 2.03952 18.9949
-2.72171 -0.347235 18.6899
-2.73505 4.45016 21.3099
-3.32703 1.27244 19.7467
-2.68626 0.827776 18.9263
-3.82533 -0.387866 20.3669
-2.37404 -1.2083 20.5371
-2.66734 3.71946 22.2163
-2.73472 2.2536 21.7529
-0.935205 1.17612 17.78
-1.40219 4.63919 20.2259
-1.79219 8.16442 22.5478
-2.74692 8.60563 22.087
-0.13441 1.93224 18.2205
0.122875 0.685941 18.1611
-1.38561 5.78364 21.6129
1.56171 -0.679979 19.4562
0.547415 1.44109 18.736
0.920264 -1.41291 19.8837
1.83679 0.240008 19.9666
0.0764906 3.24643 20.5621
-0.602097 4.3337 20.9421
-1.24439 7.28633 22.0238
-2.16237 2.47153 18.2859
0.841283 0.111001 19.4968
-0.545608 2.79668 19.6672
