ply
    format ascii 1.0           
    element vertex 56
    property double x           
    property double y           
    property double z           
    end_header
0.857916 1.47985 6.91627
-0.937674 2.86193 7.72818
0.114443 1.12198 6.35653
-0.842751 3.32448 7.71428
-0.670936 3.56513 7.93064
-0.739105 2.25541 7.35651
-0.443828 1.54563 6.53215
-0.525449 2.56982 7.37741
-0.136748 1.79968 6.67612
-0.055209 1.44536 6.55601
-0.625354 3.03476 7.67159
-0.388409 2.84277 7.59336
0.292008 1.53711 6.92091
-0.143206 2.2394 7.18377
-1.12457 3.68893 8.1622
-0.026766 0.742889 6.40584
0.735244 0.809167 6.59606
0.387811 0.658717 6.41467
0.0986926 1.96264 7.03629
-0.485626 3.2951 7.89713
-0.143186 2.53205 7.56483
0.410214 1.03238 6.55875
-0.272469 1.9533 6.98919
0.556254 1.19354 6.84108
0.962588 1.04006 6.84179
-0.470341 3.46816 8.18617
1.11795 1.26453 7.15956
-0.168619 2.78733 7.89083
0.637635 0.128854 6.93063
0.95522 0.601632 6.87313
0.983358 1.6154 7.27705
-0.340954 3.28233 8.36772
-0.264961 3.01602 8.35345
0.0417608 2.46361 7.90668
0.600315 0.461001 6.6871
1.0912 0.852382 7.18075
0.241428 1.99437 7.42104
0.158275 2.16094 7.84161
-0.649786 3.56945 7.90802
-0.433017 1.54272 6.52375
-0.5133 0.169273 7.14738
-1.16639 3.26575 7.82097
-0.344621 1.11771 6.53154
0.157118 0.467582 6.64344
-0.540282 1.80909 6.79385
-0.365434 2.83083 7.52328
-0.664689 1.26288 6.73511
-0.600715 0.876643 6.94304
-0.928084 2.82891 7.64899
-0.208717 0.401769 6.99842
-1.09562 2.40921 7.73491
-0.612923 0.577717 7.12707
-1.16377 2.73174 7.81667
-0.838333 2.52566 7.5255
-1.11874 3.73774 8.29013
-1.3455 3.58563 8.44181
