ply
    format ascii 1.0           
    element vertex 43
    property double x           
    property double y           
    property double z           
    end_header
-0.605292 -1.39051 4.86649
-0.754274 -1.18599 4.6331
-0.712457 -0.85456 4.63391
-0.458639 -0.111722 4.89672
-0.610022 0.638523 4.87266
-1.03204 -1.24911 4.93954
-0.725013 0.106726 4.87545
-0.880056 -1.30441 5.31702
-1.02233 -0.980318 4.71064
-0.968109 -0.444593 4.88453
-0.581616 -1.39598 5.25282
-0.786322 0.650684 5.15127
-1.26783 -1.05876 5.23953
-0.307553 0.764957 4.88012
-1.14091 -0.639912 5.06777
-1.3113 -1.26697 5.48714
-0.669855 -0.513708 4.83228
-1.26899 -1.26943 5.81048
-1.21906 -0.77147 5.55923
-1.40162 -1.01309 5.6515
-0.930487 -0.0156758 5.13419
-1.01745 -0.961949 5.09176
-0.544578 0.931035 4.9791
-1.38916 -0.845096 5.92586
-0.654856 0.377165 5.03955
-1.06488 -0.415714 5.33072
-0.884467 -0.736409 4.87324
-0.655433 0.228066 5.47106
-0.749081 -0.236333 4.94638
-0.250122 0.46914 4.96939
-0.466607 1.15413 5.18184
-0.0531738 0.214075 4.99865
-0.417063 0.213445 4.92111
-0.613694 -1.38489 4.85375
-0.115964 -0.19339 5.01355
-0.374431 -0.649202 4.91811
-0.215487 1.01998 5.05943
0.211907 -1.02587 5.23885
-0.440093 -0.962359 4.78187
-0.318797 -1.22845 4.9586
0.0184751 -0.764439 5.19008
-0.155867 -0.479899 5.1236
-0.238067 -0.915007 5.05046
