ply
    format ascii 1.0           
    element vertex 41
    property double x           
    property double y           
    property double z           
    end_header
-0.0740378 -0.302105 1.22156
-0.118303 -0.340099 1.24511
-0.111616 -0.308625 1.24398
-0.0844651 -0.170433 1.36884
-0.0711701 -0.26763 1.22731
-0.105799 -0.267825 1.26685
-0.141199 -0.330837 1.26475
-0.11156 -0.18891 1.37776
-0.0805253 -0.205992 1.32472
-0.0377085 -0.278798 1.21934
-0.106075 -0.230942 1.32217
-0.0881151 -0.243016 1.27602
-0.0884602 -0.200598 1.35611
-0.0978787 -0.162208 1.41927
-0.0708508 -0.265172 1.26063
-0.075919 -0.234841 1.30387
-0.0278288 -0.31067 1.22553
-0.0503014 -0.226745 1.32296
-0.0432197 -0.256942 1.24485
-0.0566471 -0.247391 1.28091
-0.0599433 -0.166183 1.39117
-0.0218699 -0.243573 1.33653
-0.0264922 -0.21739 1.36877
-0.0569931 -0.205724 1.34806
-0.0504486 -0.194654 1.37702
0.0196281 -0.322377 1.31091
-0.0111959 -0.312848 1.25684
-0.029164 -0.266211 1.29067
-0.00307567 -0.301691 1.31784
-0.0205088 -0.27981 1.25894
-0.0651536 -0.162269 1.42299
-0.118254 -0.340261 1.24425
-0.125301 -0.312095 1.28596
-0.139926 -0.331489 1.2659
-0.0907922 -0.15888 1.40059
-0.113967 -0.27549 1.3027
-0.0236461 -0.272824 1.32251
-0.0975233 -0.160803 1.43159
-0.151176 -0.341588 1.29595
-0.0861228 -0.29291 1.25239
-0.104235 -0.266826 1.32502
