ply
    format ascii 1.0           
    element vertex 53
    property double x           
    property double y           
    property double z           
    end_header
-2.5612 1.42507 6.48977
-2.80565 1.7436 6.62628
-3.41481 2.57545 7.36506
-2.32197 1.67292 6.3242
-3.10467 2.33395 7.0603
-2.52187 1.93291 6.3041
-2.42096 1.17255 6.54719
-2.22105 2.04426 6.30445
-1.97535 1.87955 6.43379
-2.85637 2.02252 6.68546
-2.62907 1.10842 6.7306
-3.10653 2.00729 7.06806
-3.49154 2.2899 7.44985
-2.43428 2.18195 6.47164
-2.69195 1.00258 7.02548
-3.5708 2.63085 7.61254
-2.15826 1.48136 6.65438
-3.24375 2.34059 7.32191
-3.63612 2.59689 7.91187
-2.6059 1.96804 6.58974
-2.79015 2.37072 7.11665
-2.8731 2.15486 6.93823
-2.10999 1.08933 7.0114
-2.70337 1.33721 6.87349
-2.34795 0.993258 6.82148
-2.49067 1.6782 6.5934
-3.26941 2.1483 7.69758
-2.64042 2.18036 6.7737
-1.92207 1.62764 6.72721
-2.64351 1.5781 6.82323
-2.88513 1.67047 6.96895
-3.06849 2.62643 7.53088
-2.75979 2.6042 7.54346
-3.32104 2.7623 7.59789
-2.99189 2.4812 7.30283
-2.51321 2.44213 7.30627
-2.17815 2.16546 6.66434
-1.72281 2.1604 7.24466
-1.90642 2.00134 6.71519
-2.35029 2.23082 6.91575
-2.00739 2.17332 7.24087
-2.31649 2.23812 7.22867
-2.92739 2.5404 7.78912
-3.66761 2.60548 7.87807
-2.74787 2.41074 7.37939
-2.07435 2.0663 6.96385
-3.43001 2.76822 7.87678
-3.11778 2.01353 7.06091
-3.50943 2.2966 7.45489
-2.59545 1.97624 6.59499
-2.44791 1.18306 6.51026
-2.58204 1.43523 6.47301
-2.89498 1.68049 6.94411
