ply
    format ascii 1.0           
    element vertex 63
    property double x           
    property double y           
    property double z           
    end_header
-0.161288 -1.53963 7.17173
-0.107114 -1.60501 7.1519
-0.0922844 -1.5904 7.15546
-0.110971 -1.59459 7.15203
-0.155556 -1.55932 7.16581
-0.0922565 -1.60243 7.15425
-0.100995 -1.58482 7.15604
-0.12799 -1.56681 7.17012
-0.134019 -1.55788 7.17844
-0.0884113 -1.59854 7.16343
-0.119496 -1.56927 7.17878
-0.136779 -1.5633 7.16824
-0.114443 -1.57909 7.16482
-0.111156 -1.5858 7.15706
-0.120444 -1.59081 7.15262
-0.121065 -1.58208 7.1572
-0.0880342 -1.60746 7.16892
-0.163231 -1.5478 7.16696
-0.154792 -1.552 7.17148
-0.10141 -1.59687 7.15645
-0.140133 -1.57062 7.16468
-0.130782 -1.58189 7.15958
-0.139937 -1.57965 7.16385
-0.131687 -1.57548 7.16698
-0.156705 -1.56857 7.17062
-0.117875 -1.6029 7.15307
-0.109869 -1.61612 7.15452
-0.115824 -1.62309 7.16162
-0.126381 -1.61176 7.15314
-0.138346 -1.59602 7.16489
-0.169691 -1.5531 7.17371
-0.130778 -1.6028 7.15837
-0.129054 -1.59222 7.15888
-0.148016 -1.57247 7.16712
-0.139356 -1.60715 7.16179
-0.136455 -1.617 7.16328
-0.142695 -1.5564 7.17274
-0.164734 -1.57049 7.17322
-0.154662 -1.57813 7.17346
-0.137601 -1.58794 7.16423
-0.146222 -1.58217 7.16819
-0.123091 -1.61814 7.1603
-0.170634 -1.56219 7.17652
-0.170331 -1.54253 7.17241
-0.146096 -1.59334 7.16645
-0.153534 -1.54381 7.17526
-0.147938 -1.55034 7.17568
-0.162339 -1.56037 7.17157
-0.130688 -1.61322 7.15645
-0.121823 -1.5748 7.16947
-0.116869 -1.62341 7.1529
-0.118743 -1.56926 7.17946
-0.114438 -1.57917 7.16497
-0.087003 -1.59895 7.16381
-0.133366 -1.5578 7.17802
-0.0651461 -1.52976 7.08054
15.4121 30.6595 -39.5947
-0.144972 -1.52868 7.15926
-0.154651 -1.56783 7.21804
-0.0590146 -1.53671 7.08405
-1.63966 -3.83243 11.1048
-0.119546 -1.60419 7.20421
-0.153085 -1.54471 7.19188
