ply
    format ascii 1.0           
    element vertex 65
    property double x           
    property double y           
    property double z           
    end_header
-0.314753 -0.122196 2.56297
-0.125429 -0.500471 2.73108
-0.242178 -0.134282 2.6585
-0.545057 0.062823 2.89724
0.00163436 -0.317417 2.82815
-0.401666 -0.508105 2.55419
-0.263423 -0.211175 2.58889
-0.193469 -0.277368 2.65009
-0.636881 0.0369427 2.85314
-0.339513 -0.230836 2.50519
-0.0431506 -0.409651 2.78802
-0.47924 -0.0886813 2.78712
-0.285756 -0.340193 2.58706
-0.585727 -0.0616398 2.75356
-0.607895 -0.449975 2.6478
-0.657675 -0.177787 2.72988
-0.189175 -0.397659 2.65993
-0.692349 -0.379658 2.68853
-0.417148 -0.622317 2.58228
-0.304935 -0.577934 2.61536
-0.253493 -0.480696 2.63023
-0.42145 -0.402472 2.602
-0.213808 -0.553313 2.70561
-0.448261 -0.717836 2.65736
-0.580784 -0.350015 2.68367
-0.672065 0.0871417 2.93194
-0.654009 -0.290372 2.7399
-0.568243 -0.235481 2.70254
-0.692507 -0.489828 2.69953
-0.587849 -0.569342 2.69022
-0.411895 -0.167235 2.5735
-0.5192 -0.63303 2.63763
-0.715194 -0.605819 2.78951
-0.499611 -0.347938 2.62005
-0.395981 -0.289815 2.59817
-0.696637 -0.046897 2.88746
-0.701265 -0.706638 2.82338
-0.478283 -0.529865 2.64526
-0.748932 0.118766 2.95554
-0.787617 0.0612684 2.99656
-0.632717 -0.64879 2.73567
-0.480821 -0.151077 2.69869
-0.497162 -0.228423 2.61806
-0.547839 -0.706644 2.70477
-0.599406 -0.724517 2.7853
-0.717913 -0.104933 2.96475
-0.687496 -0.229161 2.81957
-0.689833 -0.437274 2.7923
-0.695817 -0.178917 2.90058
-0.684969 -0.336071 2.84084
-0.64581 -0.12082 2.82606
-0.731136 -0.619209 2.87724
-0.703223 0.0500204 2.99684
-0.252855 -0.478983 2.62893
-0.547269 0.0648929 2.89761
-0.125873 -0.503156 2.73416
-0.187586 -0.39309 2.65243
-0.0426117 -0.413142 2.7867
-0.256644 -0.209235 2.58154
-0.346164 -0.144589 2.76371
-0.1911 -0.279825 2.64634
-0.37308 -0.129115 2.90555
-0.552333 -0.0396394 2.85449
-0.104022 -0.276937 2.83777
-0.238842 -0.138633 2.65868
