ply
    format ascii 1.0           
    element vertex 34
    property double x           
    property double y           
    property double z           
    end_header
-0.0653981 0.319123 1.05563
0.0304316 0.184628 1.01249
0.082417 0.0118076 1.09084
-0.00644651 0.437418 1.11679
0.0328812 0.481983 1.17675
-0.183912 0.0695868 1.01633
0.0470804 -0.0291981 1.04781
-0.0272934 0.511663 1.13804
-0.0142023 0.118196 1.00716
-0.152613 -0.0159982 1.01946
-0.0510892 0.188775 1.01239
-0.0666327 0.244216 1.0743
-0.103724 0.148887 0.990743
-0.108502 0.0555736 1.02533
-0.0662129 0.457633 1.16541
-0.109009 0.321544 1.10999
-0.208611 -0.00914297 1.08061
-0.0673977 -0.0144476 1.00655
-0.0600054 0.383164 1.12541
-0.120307 0.124927 1.04107
-0.211142 0.0626311 1.07319
-0.154369 -0.0662481 1.08433
-0.0639882 -0.0128523 1.01045
0.0329057 0.48433 1.17569
-0.108352 0.04938 1.03207
0.00919769 0.372709 1.08661
0.021547 0.101163 1.08195
0.0259543 0.335961 1.20121
0.0500946 -0.0305052 1.04883
0.0286935 0.187835 1.01549
0.111016 0.0157313 1.1572
0.0667677 0.19417 1.08268
0.0594993 0.0594546 1.12831
0.0322216 0.41077 1.17971
