ply
    format ascii 1.0           
    element vertex 36
    property double x           
    property double y           
    property double z           
    end_header
-0.755407 -0.398167 3.49261
-0.579094 -0.535192 3.35066
-0.775284 -0.821217 3.4814
-0.711683 -0.183298 3.5673
-0.68611 -0.576947 3.40259
-0.770464 -0.0852822 3.63564
-0.375589 -0.727829 3.37684
-0.673627 -0.277939 3.50309
-0.583642 -0.421623 3.58534
-0.427726 -0.808134 3.33891
-0.644762 -0.0944596 3.64541
-0.599019 -0.655701 3.34822
-0.585794 -0.868114 3.38087
-0.492125 -0.659136 3.43099
-0.597804 -0.202149 3.62417
-0.55319 -0.315207 3.6487
-0.292411 -0.711735 3.45652
-0.490544 -0.496794 3.42377
-0.684316 -0.914351 3.45272
-0.697864 -0.503911 3.51081
-0.663695 -0.799356 3.44552
-0.741384 -0.67003 3.42146
-0.50475 -0.80143 3.40422
-0.750764 -0.600791 3.50266
-0.74654 -0.303105 3.59045
-0.760051 -0.526333 3.60351
-0.771302 -0.187655 3.68262
-0.777715 -0.736659 3.56242
-0.603776 -0.522427 3.46406
-0.643049 -0.093954 3.64595
-0.375059 -0.724718 3.37496
-0.585419 -0.42071 3.57677
-0.595585 -0.203495 3.61766
-0.39126 -0.684427 3.48756
-0.494202 -0.650965 3.42357
-0.558146 -0.306254 3.64054
