ply
    format ascii 1.0           
    element vertex 55
    property double x           
    property double y           
    property double z           
    end_header
-0.936879 -1.81546 8.52766
-0.731787 -0.018215 8.53102
-0.725024 0.562562 8.73099
-0.5565 1.1764 8.6257
-0.582142 1.37681 9.03946
-0.843954 -1.1794 8.26215
-0.68101 -1.80935 8.15117
-0.905452 -1.07931 8.70409
-0.994356 -1.51431 8.87709
-0.536072 0.83627 8.3726
-0.0864613 -1.8871 7.54399
-0.650067 0.140423 8.98116
-0.732506 -0.581307 8.62035
-0.376062 -0.0601887 8.13693
-0.832152 -2.17794 8.87809
-0.497735 1.61148 8.61565
-0.373924 -0.456799 7.93829
-0.496478 0.357927 8.35019
-0.258335 -0.999656 7.88632
-0.242834 1.31478 8.31686
-0.518786 -0.762906 8.23297
-0.516908 -1.37479 7.99991
0.124696 -1.0543 7.59665
-0.460104 -2.43984 8.51711
-0.333571 -2.03333 7.95681
0.209965 -1.52931 7.53354
-0.207486 0.64682 8.06775
-0.571004 -2.47742 8.90441
-0.0891341 1.73909 8.44241
-0.0517556 2.37869 9.22084
0.0319321 0.23978 8.07569
0.395816 2.4817 9.12724
0.354694 -0.692206 7.81607
0.267657 1.40339 8.39943
0.0676339 -0.208164 7.9756
0.742411 -2.0487 7.57927
0.682398 -1.54594 7.57044
0.280738 0.627825 8.1771
0.469379 0.0261955 8.09598
0.0253216 0.974628 8.29047
0.447297 0.939624 8.47336
0.204024 1.96429 8.667
0.702212 -0.94848 7.97068
-0.0591181 -1.43103 8.03165
0.263779 -2.15174 7.73418
0.571776 2.06892 8.98432
0.530753 1.61745 8.77961
0.855318 -1.4101 8.01843
1.05846 -1.81325 7.83436
0.50805 -0.447907 8.21414
-0.712926 -0.00797141 8.54333
-0.557804 1.19072 8.63576
-0.999606 -1.5004 8.8593
-0.790692 -2.20034 8.90561
-0.728828 -0.583206 8.61633
