ply
    format ascii 1.0           
    element vertex 63
    property double x           
    property double y           
    property double z           
    end_header
-0.417113 -0.53218 2.69949
-0.41425 -0.685676 2.60879
-0.630771 -0.747974 2.50774
-0.555375 -0.485555 2.49468
-0.406467 -0.630869 2.68995
-0.502761 -0.691789 2.55189
-0.475408 -0.491067 2.62288
-0.507547 -0.551077 2.55142
-0.719274 0.206273 2.86087
-0.514901 -0.288666 2.65225
-0.621223 -0.600876 2.44557
-0.49209 -0.152784 2.72752
-0.538562 -0.00707311 2.76
-0.477586 -0.371903 2.62977
-0.555681 -0.0866486 2.66883
-0.596349 0.0776449 2.71979
-0.540954 -0.625243 2.49499
-0.600124 -0.250188 2.5823
-0.628808 -0.365754 2.55358
-0.560939 -0.191817 2.65408
-0.45756 -0.468649 2.76796
-0.548591 -0.421962 2.58642
-0.649007 -0.45451 2.49211
-0.691505 -0.531541 2.45063
-0.606667 -0.0114414 2.68467
-0.70675 -0.677902 2.4594
-0.639478 -0.128512 2.62095
-0.694988 0.0313294 2.69594
-0.794134 -0.70947 2.45792
-0.780488 -0.619637 2.47375
-0.694432 -0.219652 2.61321
-0.713223 -0.744438 2.49418
-0.488982 -0.349597 2.73667
-0.495519 -0.253673 2.75341
-0.694945 0.194269 2.95958
-0.425774 -0.763427 2.76861
-0.511998 -0.324809 2.83342
-0.423274 -0.665167 2.78903
-0.522354 -0.43225 2.69615
-0.51789 -0.188735 2.82826
-0.613201 0.10132 2.89259
-0.457119 -0.752238 2.66566
-0.549414 -0.023504 2.86947
-0.534871 -0.0961256 2.79509
-0.581934 -0.133852 2.88263
-0.558862 0.0729826 2.81462
-0.500203 -0.538478 2.82717
-0.601464 -0.25149 2.58269
-0.5423 -0.621321 2.49689
-0.627344 -0.742152 2.50943
-0.69205 -0.53104 2.45426
-0.63821 -0.129156 2.62002
-0.691447 -0.220582 2.61489
-0.696176 0.0333513 2.69799
-0.704696 -0.67407 2.46074
-0.790244 -0.701474 2.46038
-0.78387 -0.62073 2.48978
-0.71484 -0.414289 2.56903
-0.752149 -0.0683347 2.73976
-0.750103 0.0837495 2.82823
-0.717976 -0.121031 2.6647
-0.657371 0.0929843 2.79807
-0.712216 0.215399 2.86029
