ply
    format ascii 1.0           
    element vertex 41
    property double x           
    property double y           
    property double z           
    end_header
-3.67054 1.08788 13.9784
-4.91616 1.86249 14.4038
-1.12804 -1.08752 13.0297
-2.14236 -1.73623 12.9283
-2.93455 0.385191 13.6695
-2.03829 -1.17901 13.0934
-1.04259 -1.63453 13.3049
-2.29798 -0.63158 13.2031
-1.58415 -1.55627 12.9175
-0.665777 -2.04888 13.1468
-2.46917 -0.115111 13.5179
-1.57552 -0.785283 13.3523
-0.527253 -1.76968 13.6562
-0.652313 -1.15729 13.498
-1.52019 -2.0322 13.3018
-3.44178 -0.213523 14.3083
-3.48979 0.394767 14.0622
-3.09155 -1.51815 13.5642
-3.11053 -1.06147 13.9095
-1.27041 -2.44866 13.6052
-2.14454 -2.04223 13.457
-2.91033 -0.502055 13.7973
-2.51014 -1.54231 13.3649
-2.62039 -1.00998 13.5849
-1.76474 -2.46182 14.3201
-2.73815 -1.92437 13.8491
-3.92669 1.3272 14.5034
-4.59339 1.08814 14.9986
-3.77221 0.709051 14.9831
-3.12914 -1.0306 14.5488
-2.95296 0.729047 14.1822
-4.86389 1.88802 14.2471
-1.50994 -2.03859 13.326
-0.471531 -1.82641 13.7274
-4.38879 2.0097 14.565
-1.01823 -1.66595 13.3512
-0.971327 -0.879174 14.1401
-0.637449 -1.21371 13.634
-1.99352 -0.509627 13.7567
-1.89722 -0.337136 14.4315
-3.91828 1.33945 14.5798
