ply
    format ascii 1.0           
    element vertex 35
    property double x           
    property double y           
    property double z           
    end_header
-0.166826 0.211351 2.02132
-0.203509 0.482916 2.08488
-0.0501403 -0.378308 1.89643
-0.0825617 -0.240088 1.96986
-0.215468 -0.106621 1.93227
-0.164397 0.0358592 1.99825
-0.252117 -0.257606 1.92056
-0.110665 -0.646642 1.9523
-0.277272 0.804201 2.11407
-0.364641 -0.366139 1.88796
-0.193801 0.779541 2.23429
-0.398834 0.644407 2.27656
0.0410697 -0.454869 2.01436
-0.221468 -0.4109 1.8859
-0.517906 -0.158455 2.04218
-0.359269 0.1892 2.17848
-0.407809 -0.258917 1.99395
-0.44468 -0.048049 2.10233
-0.278661 -0.516517 1.99106
-0.113657 -0.503804 1.97638
-0.337255 -0.124319 2.03026
-0.295472 -0.641596 2.08822
-0.509551 -0.291406 2.12732
-0.314797 0.0291147 2.06588
-0.3452 0.788448 2.25287
-0.394113 -0.554025 2.26762
-0.268133 0.311917 2.11217
-0.410739 -0.418066 2.03069
0.0421613 -0.460739 2.01425
-0.016891 -0.609382 2.06049
-0.0910779 -0.706984 2.17152
-0.118101 0.17093 2.23245
-0.107381 0.281921 2.12535
-0.446141 -0.04838 2.10798
-0.315628 0.0271464 2.06485
