ply
    format ascii 1.0           
    element vertex 50
    property double x           
    property double y           
    property double z           
    end_header
-0.992114 0.103954 7.86492
-0.97622 -0.0205172 7.67889
-0.493867 -1.41389 6.94236
-0.467248 -1.33759 7.16913
-0.914409 -0.24941 7.30265
-0.779954 -0.649735 7.2423
-0.821148 -0.431333 7.42894
-0.876019 -0.447647 7.21055
-0.707805 -0.849891 7.21871
-0.835082 -0.571703 7.05058
-0.587983 -1.21124 7.01645
-0.560717 -1.04526 6.86987
-0.911144 -0.779204 6.78881
-0.716866 -0.896555 6.91214
-0.832717 -0.791385 7.0455
-0.667448 -1.16994 6.73551
-1.00338 -0.423188 7.01428
-0.81061 -0.968262 6.76822
-1.14689 0.100541 7.70546
-0.990295 -0.625877 6.92019
-0.466685 -1.55837 7.14768
-1.01843 -0.961439 6.71119
-0.857891 -1.41871 6.77435
-1.04877 -1.32275 6.66591
-0.698809 -1.3359 6.88201
-0.619827 -1.58277 6.98217
-1.05819 -1.53945 6.71997
-1.2228 0.0573085 7.54059
-0.895371 -1.16143 6.72375
-1.20981 -1.17774 6.77615
-1.23671 -0.439506 7.0735
-1.40429 0.0438008 7.61372
-1.18496 -0.878127 6.8474
-1.36098 -1.33961 6.84322
-1.24044 -1.50309 6.84549
-1.28707 -0.739257 7.0421
-1.08204 -0.330987 7.19242
-1.12813 -0.609114 7.07898
-1.01874 -0.157874 7.51954
-1.3007 -0.602401 7.21908
-1.22333 -0.185611 7.57331
-1.26529 -1.06567 6.97917
-1.28904 -0.353593 7.29043
-0.97033 -0.0197779 7.67393
-1.13996 -0.221588 7.35328
-1.30081 -1.30779 7.06127
-1.0857 -0.823685 7.01274
-0.832708 -0.571859 7.0539
-0.710397 -0.899361 6.91136
-1.05834 -1.5377 6.7218
