ply
    format ascii 1.0           
    element vertex 60
    property double x           
    property double y           
    property double z           
    end_header
-0.709095 0.198566 3.11718
-0.687791 0.0557949 2.98799
-0.479778 -0.00666093 2.9555
-0.40358 -1.02149 2.35588
-0.816479 -0.841866 2.47912
-0.59638 -0.106146 2.848
-0.767078 -0.919073 2.37991
-0.800891 -0.691959 2.49339
-0.588294 0.236491 3.0557
-0.732986 -0.576786 2.5371
-0.591184 -0.986065 2.35914
-0.753478 -0.286358 2.84849
-0.56129 0.11182 2.98451
-0.72318 -0.398133 2.68742
-0.479601 -0.506268 2.6983
-0.641946 -0.208044 2.79676
-0.67557 -0.826976 2.40421
-0.314041 -0.84221 2.56489
-0.415645 -0.904767 2.43671
-0.546874 -0.701578 2.44788
-0.776187 -0.552389 2.6711
-0.541471 -0.380711 2.71866
-0.622065 -0.578243 2.62089
-0.515696 -0.295202 2.81694
-0.383033 -0.658364 2.70106
-0.400624 -0.416773 2.85787
-0.502717 -0.680175 2.59529
-0.561407 -0.890487 2.47217
-0.620073 0.296134 3.14921
-0.45365 -0.83457 2.55014
-0.483331 -0.159366 2.8944
-0.659409 -0.79905 2.53742
-0.294434 -0.770562 2.76778
-0.500096 0.268988 3.15049
-0.471994 0.145437 3.08789
-0.392723 -0.551842 2.79683
-0.440275 -0.29589 2.93893
-0.25837 -0.913961 2.65319
-0.762124 -1.02956 2.4387
-0.347059 -1.08804 2.47975
-0.300141 -0.970861 2.54305
-0.852056 -0.670167 2.63166
-0.687078 -0.0503324 2.91786
-0.750163 -0.283525 2.85846
-0.867658 -0.963463 2.50358
-0.812222 -0.844972 2.47063
-0.745547 -0.0854431 3.03479
-0.685664 0.25217 3.24378
-0.734779 0.0552978 3.11531
-0.882806 -0.882689 2.61062
-0.744115 -0.455198 2.83441
-0.738041 -0.647035 2.86241
-0.690283 0.108244 3.23678
-0.593654 0.217514 3.05349
-0.651714 -0.360874 2.80034
-0.685611 -0.191786 2.92043
-0.747961 -0.795684 2.848
-0.740734 -0.279413 3.00151
-0.618551 0.293576 3.15595
-0.56985 0.0997986 2.97432
