ply
    format ascii 1.0           
    element vertex 58
    property double x           
    property double y           
    property double z           
    end_header
-1.4641 1.60135 10.5467
0.239732 -2.60753 7.47314
-0.924805 -3.54068 7.43929
-0.991436 -2.77767 7.54734
-0.926786 -1.26896 8.5368
-0.608448 -3.87041 7.02853
0.269906 -4.08483 7.05712
-0.72835 -0.258344 9.09159
-1.32076 -2.70901 8.19445
-1.32969 -3.78017 8.08317
-1.23065 -0.714058 9.3261
-0.901911 1.8501 10.3686
-1.04728 -2.06918 8.43005
1.17778 -4.07603 7.08175
-0.761631 -2.14352 7.78056
-1.22509 0.953433 9.94741
-0.249995 -3.35159 7.21313
0.998675 -3.50504 7.4651
-0.664934 1.30209 10.0001
-0.103311 -1.03617 8.78173
-1.15034 2.12663 10.7916
-0.11396 -0.573233 9.25687
-0.210446 0.813543 9.93033
1.39814 -3.0863 8.15689
0.269011 -1.56252 8.693
-0.617139 0.27096 9.34867
0.834203 -2.23405 8.80294
0.353137 -2.49554 8.26625
0.725999 -3.20769 8.03718
-0.304815 -2.06229 8.2824
0.502403 -1.06066 9.5457
0.257047 -3.56831 7.61571
1.31935 -2.7204 9.1973
1.54136 -3.80194 8.16272
-0.323575 1.51342 10.4564
-0.313889 -3.16746 7.82023
-0.589747 2.09155 10.8261
0.650928 -1.73741 9.27347
0.145695 -0.505044 9.92608
-1.44782 1.63322 10.5745
-1.21928 -0.712986 9.32226
-0.763172 -2.14719 7.82888
-1.13041 -4.15568 7.56693
-1.06816 0.460524 9.67766
-0.73214 -4.61171 7.48533
-1.34147 -3.77235 8.04966
-1.30792 -2.7083 8.18927
-1.03692 -2.05364 8.45611
-1.43211 0.267176 10.1653
-1.08687 -1.54267 9.19159
-0.892152 -3.25362 9.31929
-0.907347 -2.49169 9.41331
-1.24264 -0.670601 10.0591
-0.867932 -1.18634 9.7647
-0.929004 -4.31811 8.1712
-1.01913 -0.106821 10.4567
-1.57836 0.925674 10.486
-0.434542 -4.81865 8.16457
