ply
    format ascii 1.0           
    element vertex 50
    property double x           
    property double y           
    property double z           
    end_header
0.121499 -0.874054 2.11205
0.0224255 -0.54957 2.09718
-0.0642895 -0.550539 2.18517
-0.0791306 -0.415988 2.23905
-0.0161963 -0.499858 2.14676
0.0272855 -0.627221 2.0911
-0.0666321 -0.476167 2.20654
0.0495894 -0.696338 2.08442
-0.0177386 -0.610472 2.15245
0.0410134 -0.763856 2.11386
0.0660277 -0.829287 2.13762
1.15048e-05 -0.710335 2.13617
-0.0224545 -0.431207 2.1057
-0.203507 -0.305869 2.23725
0.100694 -0.801406 2.08093
-0.341157 -0.315195 2.30369
-0.0739606 -0.400192 2.15384
0.00867564 -0.600181 2.02153
0.0547975 -0.743782 1.99659
0.0264443 -0.676079 2.01846
-8.4722e-05 -0.525022 2.02278
0.0188762 -0.745534 2.05106
0.0639837 -0.810808 2.01134
-0.0200703 -0.4962 2.07234
-0.0604944 -0.448948 2.0378
-0.165416 -0.340904 2.15267
0.125075 -0.860749 2.03324
0.0143396 -0.783602 1.95652
-0.0271673 -0.630625 1.9551
0.00584846 -0.715742 1.94971
-0.0740048 -0.497867 1.9906
-0.0884637 -0.725024 1.96162
-0.132703 -0.452548 2.04569
-0.0892401 -0.587625 1.9673
-0.233946 -0.377266 2.13532
-0.0974431 -0.418277 2.09004
-0.113465 -0.655079 1.96154
-0.0598268 -0.779746 1.97677
-0.150015 -0.498132 1.99346
0.0035099 -0.528451 2.0307
-0.28502 -0.401237 2.1616
-0.17152 -0.557089 2.01902
-0.172026 -0.422144 2.10111
-0.119249 -0.383046 2.14434
-0.330874 -0.363295 2.21367
-0.290309 -0.339615 2.17155
-0.379647 -0.335846 2.27768
-0.146006 -0.690432 2.01973
-0.155885 -0.630233 2.0263
-0.18884 -0.503977 2.06583
