ply
    format ascii 1.0           
    element vertex 64
    property double x           
    property double y           
    property double z           
    end_header
-0.390242 -1.01846 3.23151
-0.581499 -0.315948 3.27021
-0.617852 -1.084 3.08352
-0.449025 -0.94471 3.18518
-0.439058 -0.853069 3.19451
-0.384629 -0.951598 3.37065
-0.560586 -0.505057 3.26239
-0.329332 -1.1642 3.36303
-0.264313 -1.26114 3.48092
-0.429632 -0.791162 3.28036
-0.429785 -0.885601 3.29277
-0.627554 -0.243806 3.23324
-0.208814 -1.19075 3.55167
-0.268892 -1.17235 3.45239
-0.389652 -1.17525 3.27719
-0.523925 -0.482409 3.36543
-0.373255 -1.26349 3.31737
-0.596162 -0.243796 3.32735
-0.395873 -0.842233 3.3764
-0.557696 -0.695586 3.23358
-0.542693 -1.08306 3.16556
-0.345832 -1.33363 3.41211
-0.24183 -1.29227 3.59796
-0.406058 -1.04107 3.31872
-0.214225 -1.21837 3.65244
-0.260415 -1.26587 3.50958
-0.64319 -0.375128 3.24762
-0.523357 -1.15805 3.19301
-0.456762 -1.12503 3.21112
-0.603346 -1.147 3.15509
-0.646094 -0.584505 3.26535
-0.526286 -0.881595 3.16057
-0.556523 -0.631695 3.29837
-0.725845 -0.411645 3.28657
-0.737285 -1.12948 3.16251
-0.725006 -0.315055 3.25187
-0.707606 -1.07273 3.0855
-0.617228 -0.767296 3.23714
-0.47698 -1.03994 3.21273
-0.626051 -0.971471 3.22259
-0.640602 -0.676391 3.23937
-0.726951 -0.507092 3.29345
-0.638824 -0.164589 3.29737
-0.594454 -0.892722 3.22019
-0.68539 -1.21479 3.202
-0.70856 -0.217318 3.26206
-0.528636 -0.772086 3.26796
-0.540439 -0.962575 3.19579
-0.695206 -0.731913 3.30305
-0.618084 -1.03674 3.16057
-0.288595 -1.11058 3.50742
-0.385885 -0.961544 3.35206
-0.368335 -1.07994 3.37791
-0.599162 -0.435341 3.32371
-0.227887 -1.19237 3.51489
-0.704304 -1.02255 3.15013
-0.39264 -0.856378 3.35829
-0.482685 -0.697373 3.30457
-0.255085 -1.14252 3.5866
-0.294301 -1.24577 3.38327
-0.559861 -0.352563 3.35359
-0.348388 -1.31163 3.37062
-0.523205 -0.493311 3.36294
-0.422492 -0.892339 3.2775
