ply
    format ascii 1.0           
    element vertex 53
    property double x           
    property double y           
    property double z           
    end_header
-0.152567 -0.341234 2.14907
0.0537919 -0.471818 2.0097
-0.0428721 -0.381542 2.05908
-0.110285 -0.343572 2.09446
0.0896763 -0.499043 2.05794
-0.0141279 -0.403897 2.03465
-0.053596 -0.378213 2.09788
-0.0129895 -0.454463 2.1025
0.0594881 -0.482933 2.04174
0.0864949 -0.498193 2.01552
-0.177642 -0.313331 2.12699
-0.0712128 -0.390133 2.12741
-0.131582 -0.377739 2.15461
0.020569 -0.464533 2.07841
0.00563461 -0.433576 2.05956
0.0188489 -0.445937 2.02964
0.088647 -0.527006 2.07586
0.019086 -0.465737 1.99501
-0.0810142 -0.377889 2.05056
0.0996985 -0.534095 2.00106
0.10854 -0.53051 2.04537
-0.0245758 -0.418004 2.07798
-0.0342237 -0.419658 2.00116
-0.0539722 -0.394589 2.02641
-0.151514 -0.335638 2.10494
0.0651655 -0.487926 1.98373
-0.025878 -0.461114 1.9848
0.0517381 -0.553804 1.96804
0.0604234 -0.525037 1.99468
0.019813 -0.534996 1.95453
0.0368871 -0.500313 1.97153
-0.0100442 -0.495463 1.9838
-0.213733 -0.355947 2.12196
-0.0185897 -0.444911 2.02312
0.0145565 -0.580474 1.96073
-0.111186 -0.364407 2.06824
-0.145164 -0.359227 2.08046
-0.0163808 -0.533298 1.97047
-0.0812433 -0.374523 2.04918
-0.0610209 -0.451711 2.00061
-0.0736013 -0.416977 2.01001
-0.1492 -0.404587 2.05791
-0.0954115 -0.445838 2.01893
-0.100607 -0.412116 2.02803
-0.124175 -0.385524 2.04238
-0.0923927 -0.483898 2.02782
-0.179588 -0.347203 2.10178
-0.0150312 -0.578394 1.98581
-0.135478 -0.43802 2.07776
-0.0443415 -0.503712 1.99749
-0.0413687 -0.379919 2.05723
-0.1485 -0.344937 2.14294
-0.179023 -0.382452 2.07993
