ply
    format ascii 1.0           
    element vertex 43
    property double x           
    property double y           
    property double z           
    end_header
0.0912903 -0.190136 1.70527
0.0539859 -0.2933 1.68462
0.0447567 -0.2288 1.69557
-0.0274578 -0.046137 1.73085
0.0461261 -0.365501 1.68075
-0.0153764 -0.254017 1.69024
0.0291 0.0174538 1.69434
-0.0703781 -0.643425 1.75053
0.0923661 -0.418924 1.70304
0.130165 -0.29796 1.74631
0.0219586 -0.432936 1.68477
-0.0245262 -0.492696 1.71524
0.101789 -0.343053 1.70895
0.00763796 -0.0978832 1.70414
0.0183977 -0.171421 1.69885
-0.0127436 -0.373963 1.69498
0.0324766 -0.545727 1.73285
-0.0981673 -0.580717 1.76937
-0.0282276 -0.322045 1.70182
-0.0489531 -0.224537 1.73354
-0.0435167 -0.146318 1.71994
-0.0414854 -0.429395 1.72211
-0.0792316 -0.501386 1.75817
-0.0414353 -0.546915 1.74019
-0.11587 -0.669117 1.79988
-0.00140699 -0.616138 1.75194
-0.0872032 -0.393173 1.77956
-0.039077 -0.678797 1.81131
0.0820198 -0.579777 1.76035
0.0664514 -0.698694 1.82625
0.102361 -0.641784 1.79612
0.0231279 -0.648554 1.80362
0.121326 -0.671859 1.87572
0.0676852 -0.0470964 1.70915
0.0539214 -0.623317 1.75658
0.137372 -0.611315 1.85496
0.117014 -0.351369 1.69346
0.0878854 -0.502453 1.74593
0.113306 -0.452337 1.76763
0.134767 -0.29486 1.74616
0.122229 -0.579628 1.79945
1.43103 -1.01234 0.857864
1.43639 -1.03844 0.82353
