ply
    format ascii 1.0           
    element vertex 40
    property double x           
    property double y           
    property double z           
    end_header
0.602681 -0.184327 4.95496
0.701117 -0.947342 5.22629
0.883114 -0.855363 5.36084
0.835384 -1.06748 5.44235
0.595753 0.577871 4.96038
0.707035 -0.289597 5.1511
0.524075 1.03895 4.9762
0.669421 0.902782 5.14035
0.622463 -0.470296 5.09585
0.615348 -0.747096 5.11084
0.612491 -1.15112 5.33823
0.43194 -0.61293 5.07831
0.221047 -0.451453 5.06054
0.115284 -0.939557 5.25294
0.251098 -1.10001 5.35612
0.347252 -0.243819 4.93977
0.458075 0.226076 4.9368
0.455472 -0.966362 5.32326
0.427748 -0.0134994 4.92275
0.358847 0.624893 5.01577
0.0188364 -1.03362 5.51336
0.320405 -0.861663 5.13073
0.21507 -0.618932 5.20979
0.439693 0.436039 4.98018
0.0552069 -0.732411 5.35845
0.217523 0.13071 5.04781
0.253047 1.07671 5.18025
0.253769 -0.0427209 5.00969
0.510858 -0.916521 5.08016
0.638422 0.0634345 4.95217
0.670705 0.905235 5.13996
0.883202 -0.853832 5.36867
0.763114 0.228807 5.05029
0.497105 0.806054 4.98306
0.390566 1.25316 4.99742
0.833724 -0.666373 5.50195
0.616451 -0.744448 5.11955
0.62364 -0.471177 5.09317
0.738902 -0.720587 5.2502
0.699011 -0.286246 5.15749
