ply
    format ascii 1.0           
    element vertex 39
    property double x           
    property double y           
    property double z           
    end_header
-0.213992 0.606909 5.38959
-0.248826 -0.122189 4.98427
-0.0735924 0.192799 5.32354
-0.233771 -1.00503 4.84263
-0.292285 -0.743783 4.83271
-0.136375 -1.24374 5.00112
-0.47702 -0.573024 4.8405
-0.357752 -1.24212 4.82216
-0.694152 -0.376718 4.89764
-0.520648 -0.138448 4.89047
-0.74838 -1.15275 4.83427
-0.871761 -0.930204 4.80869
-1.02355 -1.13577 4.97293
-0.619106 -0.819382 4.75771
-0.472413 0.652284 5.40628
-0.736112 -0.613888 4.92394
-0.691747 0.430544 5.44222
-0.465504 -0.307167 5.0307
-0.375509 0.298565 5.17027
-0.267297 1.04096 5.63734
-0.666106 0.183558 5.19871
-0.580939 0.995501 5.7802
-0.420613 0.0795796 5.01881
-0.391381 0.474847 5.29503
-0.941138 -0.778127 5.00742
-0.062175 -1.01152 5.05673
-0.19135 -0.335596 5.14271
-0.310949 0.827065 5.52647
-0.152432 0.811791 5.74915
-0.121667 -0.880036 5.27643
-0.0727841 0.194065 5.33702
-0.196881 0.11268 5.12114
-0.145149 -0.552924 5.27523
-0.266093 -0.473631 4.96202
-0.157803 -0.339315 5.42191
-0.112795 -0.00512027 5.49495
-0.196361 -0.813407 5.01018
-0.416485 -0.886369 4.7225
-0.884978 -0.939922 4.83758
