ply
    format ascii 1.0           
    element vertex 51
    property double x           
    property double y           
    property double z           
    end_header
-0.139201 -0.13463 0.927261
-0.0691318 -0.275838 0.860648
-0.16975 -0.243562 0.854029
-0.183899 -0.343636 0.847934
-0.121513 -0.200342 0.866276
-0.168202 -0.126232 0.907577
-0.0977415 -0.247598 0.85386
-0.170929 -0.0659402 0.949001
-0.0749171 -0.245607 0.880706
-0.134211 -0.170958 0.925765
-0.0986627 -0.220171 0.88223
-0.100364 -0.310558 0.859201
-0.192263 -0.15303 0.910773
-0.133842 -0.337587 0.859598
-0.185527 -0.311435 0.853067
-0.114751 -0.278873 0.855073
-0.187913 -0.0987173 0.953216
-0.142493 -0.226895 0.865914
-0.136925 -0.304895 0.856199
-0.146014 -0.263061 0.857124
-0.153986 -0.197644 0.880956
-0.184736 -0.275403 0.857788
-0.214573 -0.320081 0.864402
-0.18939 -0.195525 0.898036
-0.200475 -0.246403 0.867686
-0.235042 -0.30244 0.887879
-0.179146 -0.222741 0.87656
-0.16519 -0.175959 0.909673
-0.209359 -0.351704 0.865583
-0.16406 -0.295405 0.868537
-0.206487 -0.292383 0.872747
-0.163422 -0.359512 0.899039
-0.0782726 -0.30171 0.886538
-0.110737 -0.195554 0.899472
-0.0687922 -0.272125 0.901758
-0.113214 -0.20278 0.9351
-0.131212 -0.357376 0.963432
-0.130599 -0.185069 0.958059
-0.0905129 -0.262595 0.942184
-0.104139 -0.225764 0.916459
-0.1236 -0.216121 0.973387
-0.108148 -0.231884 0.947949
-0.103979 -0.276336 0.976768
-0.101932 -0.294625 0.949962
-0.134105 -0.326327 0.968825
-0.146476 -0.340194 0.992611
-0.120581 -0.335971 0.9396
-0.0960659 -0.317738 0.914851
-0.100557 -0.254367 0.908054
-0.134851 -0.355104 0.899807
-0.165007 -0.176855 0.908446
