ply
    format ascii 1.0           
    element vertex 53
    property double x           
    property double y           
    property double z           
    end_header
-0.13307 4.69559 7.64074
-2.07127 -0.899034 6.05462
-0.322213 3.18599 6.90108
-2.43389 -0.547112 6.51433
0.392837 5.25307 7.59912
0.122452 -1.47752 5.53634
-0.995949 0.228986 5.86941
-1.61507 -1.29756 5.84867
-1.83389 -1.61297 6.39787
-1.01662 -1.08648 5.68197
-0.634047 -0.237895 5.63676
-0.215625 1.59701 6.27467
-1.79535 -0.306633 6.27248
0.394285 1.55933 6.20127
-1.33517 -1.97591 6.21607
-0.784673 0.762298 6.08589
-1.44238 -0.69373 5.95123
0.670922 4.35741 7.42042
0.114632 -1.98416 5.87784
-0.21143 -0.971305 5.76277
1.35397 -1.09079 5.3098
0.650934 -1.26191 5.35889
0.35403 -0.757034 5.62244
-0.287755 0.334819 5.77436
-0.0255872 -0.262403 5.69378
0.853367 -0.688269 5.2899
0.859394 0.520903 6.21387
0.749376 -1.91314 6.14493
0.392442 2.12267 6.45461
0.684991 3.65385 7.34218
0.0928221 3.65284 7.07956
0.203436 2.79886 6.8938
0.241745 0.660452 6.05112
-0.534316 -1.38729 5.97967
-0.0521698 4.08882 7.44828
0.351742 0.111891 5.99475
0.702888 2.93089 7.28166
1.32838 -0.437105 5.51166
0.951272 1.80086 6.68666
-0.278334 1.00444 6.01389
1.35572 0.515564 6.85815
-0.989134 -1.76946 5.73489
1.01279 3.9291 7.86938
-1.8624 -0.335574 6.37388
0.808418 1.12804 6.53334
-0.763088 -2.08301 6.17948
1.21797 -0.350626 7.44801
1.00538 1.88896 7.36312
1.05871 -1.39416 5.79597
1.23432 -1.21092 7.23503
1.62048 -0.835661 5.83662
-0.792766 0.774316 6.10358
1.12304 0.990175 7.01947
