ply
    format ascii 1.0           
    element vertex 42
    property double x           
    property double y           
    property double z           
    end_header
-0.440717 0.719742 5.68833
-0.304885 1.1961 5.41738
-0.48843 1.52306 5.68668
-0.258356 0.548181 5.44154
-0.223269 0.138715 5.26899
-0.699488 -0.373941 5.57944
0.0767398 -0.466725 5.15089
-0.626942 -0.094183 5.55571
-0.311455 0.905892 5.53097
0.203734 0.456603 5.11074
-0.409545 -0.376358 5.37311
-0.403343 -0.117507 5.40923
-0.25253 -0.640697 5.30634
-0.101601 0.767257 5.38588
-0.0419517 0.327582 5.17408
0.028006 0.0915393 5.03969
-0.173461 -0.35659 5.23166
-0.482534 -0.614308 5.53288
0.549965 0.188725 5.07117
-0.0517077 -0.112795 5.20596
-0.307922 0.363342 5.64281
-0.0576898 1.07281 5.45363
0.3284 -0.622793 5.26077
0.470305 -0.0450277 5.19512
0.207021 -0.0645724 5.17696
-0.578124 -0.489789 5.78752
-0.277626 1.47409 5.53355
0.804233 0.114375 5.18307
0.583696 -0.421413 5.30361
0.324425 -0.328146 5.205
0.700389 -0.0770639 5.37923
0.277267 0.188177 5.14969
0.447458 0.387751 5.21138
0.160322 0.774178 5.42878
0.620398 -0.6047 5.54241
0.717449 0.373574 5.29053
0.346074 0.591976 5.34425
0.752242 -0.313962 5.56451
0.861629 -0.252915 5.88591
0.865917 0.162418 5.44298
-0.27266 1.4695 5.53816
0.327467 -0.702075 5.54154
