ply
    format ascii 1.0           
    element vertex 48
    property double x           
    property double y           
    property double z           
    end_header
-0.424143 2.12931 5.55747
-1.26427 0.269776 4.86406
-0.72373 2.50049 5.91993
-0.493282 1.30374 5.31661
-0.807957 0.235514 4.75429
-0.638312 -0.117111 4.6305
-0.54472 1.73596 5.55915
-0.434286 0.844471 4.95032
-1.02626 -0.0901594 4.80571
-0.0248398 0.779302 4.78083
-1.11503 0.600025 4.99548
-0.246829 0.496623 4.84094
-0.128733 0.0317625 4.67816
0.085637 -0.284644 4.85331
0.602876 0.706563 5.09507
-0.706051 1.03878 5.45035
-0.137799 1.04406 5.01223
-0.447984 0.227103 4.70959
0.0905726 0.478364 4.94608
-0.171165 1.87873 5.65388
0.827198 0.491314 5.31953
0.215405 1.1439 5.10144
-0.239006 1.54265 5.41909
0.394502 0.401418 5.09929
0.161023 0.100378 4.92079
-0.400904 2.41995 5.83296
0.404851 -0.135429 5.11313
0.231924 0.774221 5.06007
0.566105 0.224713 5.40043
-0.774458 0.529612 4.93048
0.276924 -0.459354 5.33012
0.437756 0.940532 5.29679
0.0396118 1.45231 5.60431
0.703146 0.801748 5.53061
0.282791 1.17472 5.49015
0.494618 -0.150886 5.5363
0.785335 0.442236 5.65
-0.40923 2.41895 5.84303
-0.0771694 -0.475642 5.13799
-0.773385 0.520573 4.93988
-0.639255 -0.120494 4.61913
-0.432257 0.84444 4.95133
-0.541321 1.73087 5.54902
-0.135623 1.04733 4.99563
-1.031 -0.0885791 4.81304
-0.503607 1.30325 5.31316
-0.825519 1.48926 5.59443
-0.0806934 1.20784 5.32515
