ply
    format ascii 1.0           
    element vertex 43
    property double x           
    property double y           
    property double z           
    end_header
0.210432 -0.0501922 0.800022
0.146186 -0.215896 0.680624
0.208218 -0.00967064 0.831368
0.132402 -0.13193 0.716397
0.20006 -0.188992 0.740137
0.184943 -0.102372 0.748949
0.0926343 -0.174498 0.64184
0.12055 -0.198628 0.658617
0.198146 -0.0741687 0.773854
0.0653052 -0.127152 0.646087
0.174813 -0.19805 0.704582
0.0950644 -0.232577 0.647725
0.168789 -0.260037 0.757013
0.169183 -0.164963 0.727536
0.142367 -0.175447 0.693679
0.119688 -0.249609 0.681477
0.169957 -0.230541 0.729636
0.207115 -0.151513 0.771174
0.0730827 -0.204527 0.631489
0.224679 -0.0288877 0.863018
0.212657 0.00890547 0.866545
0.185324 -0.0255445 0.805025
0.204577 -0.111431 0.780547
0.170907 -0.136267 0.752662
0.212881 -0.0877572 0.812724
0.109743 -0.166896 0.675805
0.203196 -0.127549 0.818021
0.0906139 -0.135779 0.672938
0.190129 -0.187477 0.777758
0.206313 -0.0577619 0.839245
0.158711 -0.239044 0.78879
0.165541 -0.181588 0.81082
0.192275 -0.0970861 0.845574
0.156217 -0.201659 0.761831
0.133226 -0.270363 0.774508
0.180005 -0.0508096 0.867389
0.121259 -0.249781 0.680616
0.162485 -0.13271 0.831012
0.118282 -0.185955 0.81395
0.146403 -0.216202 0.681103
0.18601 -0.103477 0.748703
0.197318 -0.0741292 0.773399
0.124383 -0.200538 0.656976
