ply
    format ascii 1.0           
    element vertex 49
    property double x           
    property double y           
    property double z           
    end_header
-0.327435 -0.402783 3.72996
-0.495873 -1.04961 3.40515
-0.369251 -1.16411 3.3809
-0.583963 -1.42886 3.40057
-0.385208 -1.36794 3.37727
-0.268369 -0.308357 3.84553
-0.386961 -0.890219 3.45367
-0.321911 -1.45801 3.32496
-0.290609 -0.992053 3.48116
-0.195602 -1.49859 3.3605
-0.598988 -1.12994 3.40725
-0.385146 -0.789131 3.56367
-0.463562 -1.21648 3.32762
-0.489803 -0.945078 3.48094
-0.486722 -0.807991 3.50511
-0.468689 -0.674279 3.6176
-0.273501 -1.5742 3.31155
-0.56761 -1.29545 3.36884
-0.633232 -1.31367 3.47889
-0.56018 -0.883253 3.56644
-0.383111 -0.359918 3.84359
-0.588847 -1.05141 3.50248
-0.357737 -0.478992 3.90131
-0.577428 -0.986717 3.63073
-0.387517 -0.601181 3.66728
-0.512595 -1.21491 3.44337
-0.250253 -1.4031 3.40084
-0.291694 -0.686158 3.62836
-0.268222 -0.552874 3.85852
-0.380432 -1.07211 3.46682
-0.285062 -1.24626 3.42287
-0.207285 -1.1655 3.56844
-0.229406 -0.867584 3.63384
-0.196726 -1.42152 3.50171
-0.295967 -0.980441 3.47224
-0.131821 -1.53004 3.46623
-0.316428 -0.900471 3.56163
-0.222444 -1.04397 3.55636
-0.235908 -0.979143 3.66665
-0.208219 -1.60412 3.4099
-0.325709 -1.17582 3.50376
-0.302996 -1.35479 3.49263
-0.284897 -0.664641 3.74909
-0.244881 -1.27173 3.55278
-0.280324 -1.57426 3.31108
-0.319276 -0.78986 3.78783
-0.325917 -0.811874 3.66947
-0.248059 -0.428843 3.88882
-0.467824 -0.676313 3.61467
