ply
    format ascii 1.0           
    element vertex 43
    property double x           
    property double y           
    property double z           
    end_header
-0.120985 -0.506982 2.29361
0.129616 -0.460834 2.17615
-0.159939 -0.397702 2.25075
-0.107689 0.116066 2.16409
-0.118468 -0.0736868 2.19101
-0.0642601 -0.387518 2.16139
-0.176676 0.0612323 2.22997
0.0912792 -0.073055 2.09402
0.0464607 -0.214548 2.10329
0.119628 -0.289328 2.15638
-0.0918715 0.443858 2.26485
0.238678 -0.43414 2.19157
-0.0259742 -0.124617 2.1549
0.0729834 0.21439 2.2172
0.0177106 -0.0210083 2.16069
-0.0591574 0.0226429 2.21942
0.0415181 -0.408862 2.38261
-0.00733543 0.127067 2.22547
0.37721 -0.316227 2.27563
0.200862 -0.349508 2.2553
-0.0298253 0.261964 2.24924
0.285317 -0.264488 2.26198
0.105055 0.0996488 2.24329
0.336335 -0.411419 2.24356
-0.1295 0.266671 2.19438
-0.0454996 -0.232321 2.15525
0.191484 -0.215974 2.22305
0.115129 -0.132046 2.1986
0.222687 -0.126448 2.28661
0.0812413 0.302365 2.29302
-0.0181078 0.360077 2.3049
0.017493 0.460896 2.40075
-0.117605 -0.292008 2.09751
0.148067 0.0484421 2.33733
0.151561 -0.0495956 2.28072
0.123291 -0.0235685 2.18373
-0.179836 0.0608586 2.22733
0.277101 -0.483369 2.35612
-0.0266369 -0.123777 2.15295
-0.16001 -0.398992 2.25113
-0.11864 -0.0728415 2.19164
-0.154069 -0.129917 2.31452
0.018223 -0.0217115 2.15717
