ply
    format ascii 1.0           
    element vertex 55
    property double x           
    property double y           
    property double z           
    end_header
0.0290074 0.258814 0.816969
-0.00514495 0.16 0.786819
0.0198822 0.210019 0.802466
0.0105528 0.00923571 0.719509
0.0740212 0.262765 0.825987
0.0282298 0.128386 0.773307
0.0272412 0.0555479 0.735416
-0.0753404 0.0377426 0.71997
0.0527995 0.176669 0.788162
-0.0881913 0.0684702 0.754292
-0.0111354 0.0743426 0.758986
-0.00852914 0.228207 0.833795
-0.117797 0.0442043 0.732635
-0.0345439 0.158708 0.81574
0.0615415 0.076474 0.765306
-0.049234 0.0899092 0.764259
-0.041225 0.00816438 0.70823
-0.0932753 -0.00330991 0.734891
0.0333005 -0.0286187 0.711584
0.0540031 -0.00128345 0.736736
-0.0930583 -0.0448856 0.753668
-0.00974356 -0.0303291 0.720512
-0.0525818 -0.0267214 0.737874
-0.0210205 -0.0585464 0.756655
0.0260349 -0.0511956 0.758369
0.0928155 0.318032 0.879275
0.00710987 -0.0870588 0.797358
0.0858224 0.259183 0.899966
0.0786968 0.173486 0.826654
0.0644688 0.137645 0.807714
-0.0465662 0.0435241 0.752945
0.0490715 0.295383 0.84581
0.0562506 0.0285055 0.772851
0.0553861 -0.0303813 0.777414
0.0748213 0.219297 0.89641
0.0812072 0.136251 0.85751
0.0608524 0.0520878 0.860526
0.0678983 0.0955388 0.813298
0.0916089 0.278632 0.864113
0.0491341 0.221995 0.833586
0.0601664 0.0515055 0.812202
0.0760959 0.2405 0.862363
0.00452124 -0.0285497 0.898247
0.06666 0.200131 0.864063
0.0407418 0.0768158 0.885593
0.0211364 0.0177978 0.879808
0.0192104 -0.0547569 0.830027
0.0632757 0.297905 0.920193
-0.222684 -0.158965 0.886453
0.0403794 0.109485 0.857628
0.00536092 -0.0553515 0.761667
-0.153373 -0.106788 0.940112
0.0443176 0.132728 0.900497
-0.120283 -0.132602 0.881495
-0.0719141 -0.0776442 0.781762
