ply
    format ascii 1.0           
    element vertex 44
    property double x           
    property double y           
    property double z           
    end_header
-0.38491 2.30134 5.19855
-0.959691 0.188189 4.21274
-0.623282 0.0735883 4.31648
-0.285752 0.60834 4.65916
-1.36504 0.469789 4.58133
-0.633995 0.799119 4.54117
-0.73935 -0.301846 4.34594
-1.14989 -0.28653 4.2578
-0.364181 -0.369546 5.0953
-0.983138 1.04133 4.65201
-0.248311 1.99002 5.45839
-0.845524 1.49389 4.90095
-0.599776 1.75391 5.13486
-0.62007 0.380128 4.5642
-0.586913 1.1656 4.73113
-0.735356 2.43609 5.52746
-0.191313 1.21446 5.10802
-0.686121 -0.512972 4.69151
-0.370269 0.203508 4.84437
-0.985954 0.653381 4.61499
-1.31746 0.826488 4.85864
-0.318318 0.916324 4.91033
-0.272709 0.0432101 5.1859
-0.873054 2.02416 5.36441
-1.23447 1.32985 5.12322
-1.68077 -0.496137 4.86338
-1.47606 -0.20289 4.55673
-1.65542 0.533537 4.96365
-1.56006 0.140517 4.81492
-1.10887 0.117109 4.56579
-1.75267 -0.742208 5.19114
-1.64815 0.184654 5.24462
-1.30263 0.94913 5.36644
-1.18891 1.28694 5.58831
-0.95317 1.53826 5.31085
-0.830209 1.68331 5.69387
-1.73205 -0.325038 5.2409
-1.46405 0.542482 5.45717
-0.623134 0.375686 4.5585
-0.591077 1.15746 4.735
-0.640924 -0.403238 4.47263
-0.190085 1.2176 5.11079
-0.282934 0.609173 4.65603
-0.619122 0.0707234 4.32498
