ply
    format ascii 1.0           
    element vertex 38
    property double x           
    property double y           
    property double z           
    end_header
0.0776995 0.849008 1.58446
-0.259562 0.145163 1.25197
-0.169794 0.139453 1.15673
-0.226256 0.338599 1.30957
-0.113329 0.284363 1.17484
-0.111239 0.507367 1.3559
-0.0192655 0.864495 1.70127
-0.279536 0.226003 1.35061
-0.0645996 0.751624 1.62387
-0.0662259 0.626746 1.45624
-0.308458 0.329867 1.41792
-0.00945613 0.446 1.2989
-0.0107212 0.244957 1.18756
-0.0412943 0.133961 1.16953
-0.203601 0.424778 1.41774
-0.16183 0.240683 1.25749
-0.114406 0.397029 1.32744
0.00602174 0.541858 1.37696
0.123575 0.739576 1.64092
0.0964133 0.383567 1.31531
0.136162 0.533046 1.47275
-0.00557637 0.32044 1.27565
0.0943915 0.459211 1.40632
0.0140597 0.687959 1.53145
-0.0152604 0.0521214 1.24945
0.0776845 0.25385 1.33899
0.0869246 0.0711292 1.37606
0.117758 0.186494 1.42908
0.117999 0.337835 1.41269
0.096681 0.841049 1.70502
-0.00531963 0.179165 1.27741
0.122955 0.430779 1.566
0.152267 0.51674 1.60548
0.135231 0.540279 1.48054
-0.0644067 0.753223 1.62595
-0.112465 0.394839 1.3236
-0.26148 0.138854 1.26145
-0.020287 0.866334 1.6965
