ply
    format ascii 1.0           
    element vertex 41
    property double x           
    property double y           
    property double z           
    end_header
-0.282013 -1.00722 2.73149
-0.219797 -0.793466 2.58048
-0.290451 -0.774561 2.70847
-0.231591 -0.916121 2.57593
-0.153936 -0.647836 2.66337
-0.183853 -0.33996 2.97785
-0.233597 -0.623428 2.72848
-0.124835 -0.325804 2.87647
-0.20604 -0.526092 2.79919
-0.283963 -0.921912 2.66706
-0.325388 -0.790781 2.81425
-0.205789 -0.433362 2.9269
-0.217968 -0.707286 2.69683
-0.148096 -0.461171 2.84496
-0.0570166 -0.672115 2.65384
-0.265161 -0.599772 2.86536
-0.278561 -0.702329 2.78495
-0.294298 -0.864379 2.75057
-0.131343 -0.802329 2.57254
-0.149896 -0.573004 2.72427
-0.12721 -0.742213 2.64197
-0.133218 -0.895409 2.56421
-0.031874 -0.548409 2.7834
-0.0559923 -0.400224 2.90623
-0.0595605 -0.617239 2.73327
-0.0388342 -0.77559 2.67018
-0.0812506 -0.949345 2.62117
0.0134676 -0.913989 2.69958
0.0193886 -0.820184 2.73673
-0.0955412 -0.850994 2.63711
-0.0141885 -0.705568 2.7271
-0.0904953 -0.330007 2.97591
0.00492009 -0.563754 2.87718
-0.269559 -1.01218 2.7354
-0.176933 -0.340982 2.98259
-0.149946 -0.571822 2.72343
-0.199416 -0.431968 2.93113
-0.285741 -0.775551 2.70884
-0.272738 -0.929261 2.67167
-0.223536 -0.832031 2.65927
-0.266684 -0.704498 2.79156
