ply
    format ascii 1.0           
    element vertex 60
    property double x           
    property double y           
    property double z           
    end_header
0.775128 -1.66127 7.65256
0.334262 -1.36405 8.24388
0.654674 -1.61449 7.39188
-0.525956 -0.596083 7.88455
0.895965 -1.93185 7.81523
-0.395558 -0.924922 7.72089
0.756712 -2.1797 7.60857
-1.07753 -0.389336 7.77694
-0.650305 -0.679885 7.64593
-0.322572 -0.784844 7.94905
-0.0597997 -1.17036 7.72583
0.694501 -1.4969 7.88401
-1.06215 -0.300464 8.01977
-0.191811 -1.04266 7.93088
0.80179 -2.30879 7.81394
0.644133 -1.44849 7.67311
-0.307334 -1.16994 7.58421
0.411492 -1.57662 7.21653
0.675776 -1.91779 7.60004
0.392534 -1.36059 7.46164
-0.966569 -0.967912 7.66627
0.477805 -1.83946 7.38205
0.208575 -1.48002 7.33066
-1.006 -0.67167 7.67872
-0.16089 -1.41731 7.64207
0.478648 -2.09747 7.5063
-0.437723 -1.44444 7.60273
-0.689232 -0.97329 7.73586
-0.324695 -1.7098 7.71676
-0.893493 -0.459861 8.24991
0.205135 -1.74727 7.32971
-0.552511 -1.21897 7.7172
-0.17352 -1.95167 7.80865
-0.804136 -1.23228 7.82338
-1.34353 -0.307666 7.95752
-0.903955 -1.40486 8.02688
0.543683 -2.35061 7.72521
-0.697451 -1.54287 7.89504
-0.510923 -1.77008 7.93813
0.138858 -2.49673 8.16947
-0.114075 -2.16163 8.00199
0.228804 -1.32073 7.90287
-1.42225 -0.484523 8.13945
-0.0356397 -1.67488 7.82202
-1.26275 -0.595098 7.91319
0.286207 -2.29567 7.86916
-0.807601 -0.612759 7.88221
0.127251 -2.16313 7.99248
-1.07843 -0.275596 8.05636
0.15656 -1.47281 7.58679
0.0880758 -1.17711 8.11116
0.726551 -2.14351 7.5964
-0.670454 -0.55706 8.12004
0.630642 -1.57591 7.31895
0.874915 -1.8724 7.72999
0.766291 -1.60052 7.53608
0.339731 -1.36128 8.20184
-0.123974 -1.13107 8.32582
0.611545 -1.41461 7.50857
0.795765 -1.75724 7.98212
