ply
    format ascii 1.0           
    element vertex 63
    property double x           
    property double y           
    property double z           
    end_header
-0.774294 -0.591851 3.67701
-0.243473 1.0578 4.42102
-0.465192 0.972692 4.63451
-0.289342 -0.932689 3.44676
-0.422729 -1.17801 3.73132
-0.5109 -0.638196 3.52322
-0.356811 0.239056 4.19355
-0.466794 0.313238 4.4996
-0.916937 -0.492502 3.94435
-0.664134 -0.21558 3.83665
-0.358653 0.635737 4.46348
-0.33346 1.47756 4.95421
-0.702912 -0.760645 3.94066
-0.580698 -0.362913 3.61933
-0.337159 0.835685 5.10181
-0.0633591 1.64208 4.86397
-0.486315 -0.877908 3.70592
-0.1454 -1.31888 3.69309
-0.130977 0.468276 4.24753
-0.281918 -0.390339 3.49137
-0.156924 0.79861 4.27721
0.172035 -0.0241197 3.74305
-0.397439 1.14867 4.99978
0.0561325 0.258774 3.95873
-0.519143 -1.02242 4.0077
-0.012293 -0.709027 3.45539
-0.14831 0.00589806 3.89475
0.159111 0.715679 4.2627
-0.380529 0.00401581 4.42831
0.383447 0.179229 3.92916
-0.771704 -0.288871 4.10929
0.240589 0.439601 4.0992
0.158553 1.43959 4.6996
-0.366557 -0.216425 3.77919
0.452403 -1.05186 3.56743
1.01388 -1.11311 3.60157
0.955853 -0.869079 3.62797
0.681698 -0.839876 3.64972
0.016231 -1.0364 3.49277
0.29584 -0.328756 3.81332
0.510218 -0.128618 3.98144
0.712789 -1.20687 3.69879
0.554194 -0.594252 3.79542
0.29657 0.456741 4.13259
0.017106 1.20961 4.56309
0.654841 -1.50203 3.8618
0.277099 1.02525 4.59718
0.156154 -0.566365 3.65687
1.06679 -0.71581 4.14242
0.744877 -0.336033 4.2823
-0.0675462 -0.355967 3.73139
0.480749 0.774289 4.66416
0.778689 -0.545603 4.02432
0.580884 0.260815 4.14641
0.373286 -1.53797 3.94153
0.0160297 0.873163 4.47473
0.670145 -0.0586815 4.40225
0.188513 -1.22742 3.72041
0.507713 0.53114 4.38633
0.232304 -0.861607 3.62196
0.871541 -0.744909 3.91947
-0.923543 -0.497065 3.9801
-0.453039 0.964784 4.53112
