ply
    format ascii 1.0           
    element vertex 34
    property double x           
    property double y           
    property double z           
    end_header
-0.00119767 -0.478702 1.50413
-0.0128519 -0.322902 1.48458
0.0251363 -0.40256 1.46306
-0.114928 -0.454037 1.51381
-0.12815 -0.148069 1.59998
-0.141593 -0.201754 1.60337
-0.0498578 -0.289637 1.50594
0.0845997 -0.466291 1.52914
-0.0273522 -0.388877 1.46073
0.0606869 -0.386739 1.49698
-0.0700563 -0.359972 1.48147
-0.129385 -0.260842 1.51682
0.0544711 -0.441711 1.49474
-0.102852 -0.320044 1.51254
-0.146671 -0.349247 1.52397
-0.0275131 -0.507105 1.52376
-0.0904844 -0.409314 1.4974
-0.0667648 -0.476089 1.53732
0.0404012 -0.490108 1.54516
-0.0358855 -0.425495 1.51367
-0.147488 -0.309394 1.55798
-0.130215 -0.410495 1.53496
0.0521284 -0.362931 1.57878
-0.00825586 -0.288713 1.54906
-0.094834 -0.218332 1.63065
-0.0556785 -0.263524 1.55344
0.012444 -0.369759 1.5011
-0.114666 -0.240912 1.56344
-0.0516252 -0.244124 1.6068
0.0902361 -0.409685 1.53888
0.0113604 -0.339747 1.54445
-0.0216431 -0.291014 1.59873
-0.143575 -0.20429 1.60291
-0.123669 -0.465746 1.51452
