ply
    format ascii 1.0           
    element vertex 28
    property double x           
    property double y           
    property double z           
    end_header
0.385359 1.17717 5.15868
0.838616 -0.150106 4.9383
0.813346 0.127519 5.07727
0.786497 -0.372884 5.03091
0.785315 0.239564 5.30584
0.605262 0.431749 4.99018
0.413587 0.215977 4.86808
0.593323 0.739626 5.18445
0.661195 -0.0936318 4.84163
0.614041 0.207558 5.00348
0.369493 0.420653 4.93878
0.620015 -0.292885 4.93369
0.465869 0.586362 5.06466
0.464934 -0.154427 4.84505
0.520707 0.926723 5.29487
0.316205 0.767482 5.14882
0.206158 0.151512 5.02329
0.306748 1.00549 5.27078
0.426117 -0.368638 5.14256
0.0366624 0.347399 5.27646
0.299528 -0.0463139 4.89947
0.191964 0.389762 5.10166
0.145548 0.649917 5.07328
0.0705741 -0.120181 5.36197
0.664513 -0.413685 5.1997
0.280573 -0.234408 5.37734
0.52111 0.02776 4.93563
0.367473 -0.455291 5.3391
