ply
    format ascii 1.0           
    element vertex 53
    property double x           
    property double y           
    property double z           
    end_header
-0.390393 -1.35886 2.14559
-0.539901 -1.29308 2.22974
-0.0951291 -1.31146 2.28581
-0.301403 -1.17203 2.18608
-0.0763368 -1.39725 2.19472
-0.315876 -0.598038 2.6312
-0.318497 -1.05845 2.23031
-0.436817 -1.21845 2.21878
-0.351999 -0.964571 2.30565
-0.330461 -0.796909 2.45777
-0.32172 -1.2898 2.21254
-0.218985 -0.835386 2.44251
-0.197693 -1.12138 2.20428
-0.216113 -1.03468 2.28214
-0.337704 -0.714254 2.54923
-0.388129 -0.561657 2.70911
-0.437554 -0.869029 2.45711
-0.340608 -0.890198 2.39245
-0.422049 -0.789122 2.5358
-0.440118 -1.05662 2.37368
-0.391143 -1.12789 2.286
-0.464915 -1.39863 2.25084
-0.426958 -0.955127 2.39091
-0.23829 -0.77429 2.53471
-0.294771 -0.501014 2.74103
-0.240891 -0.941072 2.34695
-0.13447 -0.955299 2.39207
-0.23934 -0.693085 2.61465
-0.282698 -1.40625 2.21351
-0.213169 -0.594959 2.74222
-0.156502 -0.696024 2.70851
-0.129675 -1.05691 2.35756
-0.221638 -1.24098 2.24655
-0.171582 -0.79235 2.63002
0.0307599 -1.34388 2.35261
-0.0660496 -1.28573 2.39364
-0.158156 -0.887778 2.57068
0.0029129 -1.44475 2.28666
-0.17125 -0.91222 2.47298
-0.121861 -1.1886 2.41144
0.0952782 -1.44731 2.37465
0.0157695 -1.33312 2.48289
-0.168436 -1.169 2.30264
-0.389135 -1.35046 2.14536
-0.421829 -0.78909 2.53072
-0.432515 -1.21998 2.21808
-0.42313 -0.959438 2.38965
-0.295399 -0.495305 2.73757
-0.531549 -1.29196 2.22741
-0.541291 -1.28698 2.35195
-0.43226 -1.05688 2.37363
-0.387495 -1.12796 2.28534
-0.375547 -0.700793 2.65963
