ply
    format ascii 1.0           
    element vertex 47
    property double x           
    property double y           
    property double z           
    end_header
-0.288643 -0.909845 2.27561
-0.183839 0.0765124 2.10606
-0.277187 0.289971 2.0239
-0.167226 -0.370246 2.23888
-0.311308 -0.676336 2.23648
-0.258315 -0.0481953 2.16465
-0.352532 0.0710805 2.11349
-0.502887 -0.236551 2.24511
-0.25335 0.451 1.98663
-0.413175 0.400362 1.98736
-0.386637 -0.166602 2.14982
-0.427617 0.236756 2.06757
-0.285445 -0.525633 2.2877
-0.36175 0.548769 1.99221
-0.469747 -0.44201 2.34633
-0.365756 -0.34547 2.26644
-0.436247 -0.604261 2.32905
-0.392908 -0.7858 2.32803
-0.432137 -0.938919 2.39256
-0.524255 -0.784649 2.44136
-0.491519 0.518026 2.03397
-0.467233 -0.0669436 2.26292
-0.502596 -0.903252 2.55281
-0.512276 0.508744 2.17383
-0.494664 -0.629278 2.47879
-0.286101 -0.369927 2.12164
-0.184358 -0.782128 2.23369
-0.477788 0.374034 2.1244
-0.460625 0.101772 2.23464
-0.144435 0.237073 2.11722
-0.151052 -0.625469 2.28464
-0.25759 -0.0605181 2.16262
-0.0124851 -0.677635 2.34685
-0.221112 -0.223555 2.17765
0.00498562 -0.537529 2.44511
-0.141973 0.400001 2.09788
-0.162055 -0.372051 2.23399
-0.134898 -0.159911 2.2997
-0.136954 -0.498691 2.36609
-0.267281 0.565019 2.12049
-0.367272 0.556487 2.00854
0.0481459 -0.679335 2.495
-0.124163 -0.81647 2.38328
-0.119069 -0.0180776 2.36786
-0.164473 -0.324816 2.39872
-0.486033 0.521274 2.04214
-0.153979 -0.00997637 2.22597
