ply
    format ascii 1.0           
    element vertex 44
    property double x           
    property double y           
    property double z           
    end_header
-0.136073 0.0991473 1.90705
-0.119481 0.212598 1.86316
-0.179559 -0.694465 1.92779
-0.167375 -0.534048 1.92336
-0.254442 -0.709817 2.02684
-0.280504 -0.602276 2.08994
-0.12529 -0.325987 1.87378
-0.223491 -0.223714 2.00111
-0.140977 0.186371 1.96502
-0.212601 -0.374497 2.04502
-0.216651 -0.482187 2.0153
-0.156811 -0.181481 1.91819
-0.215542 -0.606464 1.9917
-0.10646 -0.0227604 1.91216
-0.144033 0.298929 1.91797
-0.211181 -0.773088 2.11085
-0.101861 -0.617104 1.89036
-0.043439 0.119511 1.85275
-0.148666 -0.00555868 2.01259
-0.0126595 0.228012 1.83817
0.000338801 -0.0404597 1.87273
-0.170575 -0.116318 2.0203
-0.0285773 -0.352082 1.91893
-0.0557401 -0.242399 1.89401
-0.11942 -0.443398 1.96165
-0.0644308 0.307761 1.86631
-0.0564858 -0.127109 1.90902
-0.0498085 -0.525498 1.92966
0.0518316 0.0577286 1.8847
0.0431387 -0.584109 1.93769
-0.0438072 -0.665278 1.97684
-0.00880627 -0.450794 1.99768
0.0736172 0.170898 1.88556
0.0937008 -0.502715 2.00589
0.033324 -0.223213 1.96934
0.0745108 -0.138992 2.01725
0.106697 -0.60882 2.02424
0.0267978 -0.112676 1.94229
0.0221769 0.285264 1.92482
0.00480102 -0.340893 2.01788
0.0374652 -0.0453574 1.98688
0.0423944 -0.738267 2.15421
0.0260907 -0.349948 2.12325
0.0454932 -0.221127 2.0818
