ply
    format ascii 1.0           
    element vertex 46
    property double x           
    property double y           
    property double z           
    end_header
-0.656119 -0.317713 2.28328
-0.617957 -0.577745 2.14798
-0.703305 -0.231405 2.31496
-0.643503 -0.273816 2.33499
-0.628149 -0.61021 2.08956
-0.665596 -0.66068 2.06744
-0.730218 -0.408123 2.2224
-0.683165 -0.45991 2.16312
-0.681194 -0.376571 2.25826
-0.659873 -0.427886 2.21764
-0.700886 -0.169166 2.35043
-0.632266 -0.489927 2.2013
-0.682521 -0.580709 2.1158
-0.725523 -0.32701 2.28021
-0.602196 -0.662639 2.13412
-0.764644 -0.190655 2.33003
-0.650799 -0.21809 2.36828
-0.762715 -0.265948 2.30814
-0.719201 -0.703833 2.09543
-0.675152 -0.550751 2.17186
-0.750543 -0.548005 2.21088
-0.709461 -0.639412 2.11512
-0.748931 -0.142457 2.3747
-0.76784 -0.357447 2.32176
-0.733356 -0.586946 2.1619
-0.713416 -0.495008 2.21549
-0.76442 -0.413124 2.28284
-0.740847 -0.736793 2.15655
-0.758163 -0.674196 2.15202
-0.804505 -0.221519 2.41154
-0.773858 -0.461809 2.23398
-0.785826 -0.246327 2.36333
-0.80094 -0.170698 2.37381
-0.647833 -0.212699 2.37397
-0.556549 -0.609352 2.15581
-0.61776 -0.567901 2.21233
-0.620452 -0.421723 2.33927
-0.624041 -0.444424 2.27893
-0.552649 -0.594615 2.22391
-0.705863 -0.174507 2.42062
-0.530425 -0.654243 2.20473
-0.637697 -0.379209 2.2982
-0.597045 -0.60122 2.27208
-0.627799 -0.518844 2.25763
-0.653647 -0.364238 2.348
-0.633018 -0.484194 2.33436
