ply
    format ascii 1.0           
    element vertex 60
    property double x           
    property double y           
    property double z           
    end_header
-0.482457 -0.298255 1.64601
-0.483345 -0.288558 1.64613
-0.477344 -0.320552 1.64737
-0.481771 -0.316745 1.64887
-0.477034 -0.315455 1.64528
-0.479346 -0.311623 1.64519
-0.480742 -0.307841 1.64521
-0.479024 -0.317906 1.64761
-0.481156 -0.313308 1.64671
-0.483217 -0.314788 1.64802
-0.484987 -0.312022 1.6483
-0.480729 -0.290149 1.64605
-0.476467 -0.318272 1.64614
-0.479561 -0.299271 1.64516
-0.481884 -0.294986 1.64543
-0.481935 -0.301537 1.6466
-0.478961 -0.302223 1.64629
-0.478203 -0.309153 1.64474
-0.475191 -0.313266 1.64517
-0.479078 -0.296275 1.6454
-0.474977 -0.320329 1.64927
-0.474045 -0.315679 1.64581
-0.473796 -0.318094 1.64744
-0.479536 -0.293078 1.64622
-0.476746 -0.301722 1.64819
-0.477381 -0.298514 1.64724
-0.476816 -0.309218 1.6468
-0.473011 -0.313271 1.64688
-0.476155 -0.30452 1.64932
-0.474285 -0.310595 1.64705
-0.475845 -0.307236 1.6487
-0.48068 -0.305059 1.64636
-0.478671 -0.30475 1.64811
-0.478155 -0.295715 1.64795
9.76137 3.89355 -21.373
-0.475341 -0.306242 1.65232
-0.47908 -0.307232 1.64762
-0.481295 -0.310787 1.64648
-0.476916 -0.312264 1.6467
-0.48632 -0.309441 1.65097
-0.478658 -0.314198 1.6472
-0.485054 -0.314069 1.65037
-0.473896 -0.318052 1.64732
-0.481034 -0.313163 1.64688
-0.483524 -0.306376 1.64735
-0.481885 -0.301454 1.64663
-0.482775 -0.303948 1.6473
-0.483918 -0.309668 1.64973
-0.482905 -0.314022 1.64872
-0.487078 -0.312379 1.65032
-0.479133 -0.321024 1.64951
-0.483505 -0.31645 1.65141
-0.481898 -0.308764 1.64778
-0.480289 -0.318607 1.65056
-0.482539 -0.311432 1.64854
-0.482377 -0.298216 1.64604
-0.48601 -0.314094 1.65271
-0.484102 -0.302426 1.64888
-0.483696 -0.299753 1.64797
-0.483525 -0.305251 1.65022
