ply
    format ascii 1.0           
    element vertex 55
    property double x           
    property double y           
    property double z           
    end_header
-0.164389 -0.395778 1.72311
-0.270383 -0.341596 1.71782
-0.362221 -0.465932 1.67503
-0.169714 -0.465199 1.72139
-0.205569 -0.461835 1.66597
-0.32706 -0.3261 1.70457
-0.283048 -0.415412 1.68633
-0.213379 -0.361026 1.7403
-0.151026 -0.433815 1.76335
-0.22075 -0.409311 1.70385
-0.479074 -0.145403 1.86105
-0.449316 -0.183184 1.80251
-0.307867 -0.286108 1.74437
-0.370657 -0.23449 1.81778
-0.262544 -0.31931 1.77269
-0.19706 -0.34887 1.80257
-0.507402 -0.100505 1.86574
-0.402703 -0.429424 1.69923
-0.412121 -0.264966 1.78529
-0.466093 -0.285025 1.77692
-0.324569 -0.376421 1.72231
-0.545316 -0.138519 1.85823
-0.423999 -0.307384 1.74796
-0.459752 -0.237898 1.79366
-0.435595 -0.366286 1.72745
-0.509906 -0.165153 1.82213
-0.383329 -0.340442 1.71541
-0.263593 -0.469386 1.6919
-0.427333 -0.148588 1.84034
-0.354948 -0.271064 1.77858
-0.400909 -0.406014 1.74623
-0.504156 -0.21592 1.81163
-0.47065 -0.338877 1.76585
-0.371165 -0.290775 1.73211
-0.552718 -0.0999665 1.89121
-0.270933 -0.38456 1.73432
-0.400494 -0.195929 1.8542
-0.424004 -0.229792 1.82882
-0.448219 -0.378174 1.74655
-0.192094 -0.348389 1.80415
-0.162361 -0.377528 1.77288
-0.437219 -0.133563 1.89264
-0.477407 -0.11064 1.91202
-0.204039 -0.463706 1.66458
-0.1404 -0.431463 1.76586
-0.407772 -0.174043 1.91276
-0.165047 -0.46748 1.72335
-0.392926 -0.226707 1.90406
-0.337171 -0.279192 1.8413
-0.150655 -0.403895 1.81803
-0.369101 -0.254299 1.87291
-0.447762 -0.155107 1.95154
-0.555213 -0.10167 1.89772
-0.301688 -0.309047 1.80871
-0.208653 -0.376056 1.84681
