ply
    format ascii 1.0           
    element vertex 49
    property double x           
    property double y           
    property double z           
    end_header
-0.235861 -0.624836 2.83669
-0.199381 -0.691892 2.88856
-0.366589 -0.333319 2.95162
-0.484772 -0.167086 3.03563
-0.367993 -0.261401 3.02779
-0.317716 -0.391513 2.89806
-0.241431 -0.468937 2.92109
-0.448217 -0.191825 3.11413
-0.271484 -0.651924 2.75671
-0.161555 -0.603077 2.94046
-0.227193 -0.54105 2.87091
-0.127432 -0.679758 2.97121
-0.253207 -0.73673 2.84222
-0.422524 -0.262426 2.96043
-0.312325 -0.587013 2.79528
-0.373999 -0.44992 2.86641
-0.308931 -0.523427 2.86052
-0.455648 -0.329247 2.91533
-0.315461 -0.711753 2.78774
-0.425578 -0.619215 2.77
-0.409412 -0.388062 2.89782
-0.391963 -0.693459 2.76209
-0.383453 -0.587854 2.82746
-0.502395 -0.241138 2.98193
-0.391357 -0.534296 2.88742
-0.449101 -0.468333 2.8929
-0.560738 -0.204289 3.03137
-0.561319 -0.292946 3.02571
-0.450657 -0.5961 2.87928
-0.453303 -0.685767 2.79991
-0.501019 -0.483376 2.93596
-0.455847 -0.544692 2.934
-0.529986 -0.388988 3.00328
-0.477237 -0.410383 2.94506
-0.485811 -0.31678 2.97928
-0.161292 -0.604932 2.93721
-0.509699 -0.125634 3.11085
-0.119258 -0.603678 3.00642
-0.233677 -0.625321 2.83475
-0.362465 -0.260737 3.02155
-0.199891 -0.533154 2.95519
-0.443753 -0.188997 3.10397
-0.195507 -0.688785 2.88438
-0.25133 -0.733402 2.83965
-0.241125 -0.490549 3.00577
-0.354636 -0.329594 3.06449
-0.176766 -0.573648 3.04455
-0.183662 -0.729045 2.9554
-0.38892 -0.260541 3.0995
