ply
    format ascii 1.0           
    element vertex 51
    property double x           
    property double y           
    property double z           
    end_header
-0.316444 -0.220641 2.37436
0.0846726 -0.476663 2.30456
-0.0929871 -0.586529 2.15516
0.0156873 -0.541957 2.25112
-0.0590286 -0.521185 2.20748
-0.296215 -0.304584 2.32003
-0.130566 -0.366295 2.26295
-0.0140634 -0.622813 2.23841
-0.239074 -0.346186 2.26161
0.0564502 -0.394387 2.32231
0.00949665 -0.438726 2.27386
-0.463108 -0.194764 2.41922
-0.0906097 -0.43645 2.22405
-0.183988 -0.321635 2.33071
-0.402298 -0.174402 2.47347
-0.482894 -0.153265 2.48875
-0.0572083 -0.390277 2.29419
-0.259842 -0.431227 2.26113
-0.151609 -0.538706 2.19495
-0.0903636 -0.643304 2.21
-0.377342 -0.269414 2.34002
-0.378552 -0.353886 2.32059
-0.167188 -0.674637 2.21205
-0.168446 -0.464807 2.24639
-0.233059 -0.626247 2.21941
-0.312337 -0.387674 2.29819
-0.504094 -0.265713 2.45173
-0.226733 -0.501624 2.29897
-0.385879 -0.238606 2.41817
-0.448072 -0.282575 2.39027
-0.201184 -0.563007 2.25528
-0.304707 -0.473538 2.32253
-0.242101 -0.584504 2.32828
-0.461973 -0.337408 2.45714
-0.345771 -0.425493 2.37769
-0.222222 -0.677383 2.26114
-0.258881 -0.523138 2.37614
-0.39139 -0.408169 2.44321
-0.330006 -0.496223 2.38433
-0.401851 -0.336515 2.38426
-0.492424 -0.230065 2.51532
0.0164635 -0.437954 2.27721
-0.485253 -0.151554 2.49436
-0.0990082 -0.360217 2.36382
-0.180653 -0.324632 2.33401
0.0956116 -0.479769 2.31112
-0.399612 -0.176344 2.47877
-0.0524329 -0.389944 2.29696
-0.314659 -0.213894 2.47745
0.00880267 -0.386725 2.38562
0.021824 -0.546784 2.26084
