ply
    format ascii 1.0           
    element vertex 38
    property double x           
    property double y           
    property double z           
    end_header
-0.419452 -0.225222 3.05305
-0.160726 -0.28582 2.7949
-0.250571 0.472849 3.38802
-0.0308574 0.338857 3.13657
0.0916157 -0.00659479 2.94072
-0.179471 0.192563 3.16332
-0.172262 -0.133022 2.93585
-0.12638 0.635185 3.41902
-0.18923 -0.448108 2.9243
0.0285544 -0.211812 2.8824
0.435024 -0.326938 2.9566
0.315846 -0.147499 2.95225
0.145163 0.170268 3.04701
0.0717157 0.646736 3.44753
-0.0362958 0.471606 3.31245
0.0058627 -0.497445 2.92209
0.177831 -0.36582 2.91773
0.496785 -0.13111 3.01337
0.0550759 0.813193 3.73031
0.155017 0.301894 3.23865
0.271487 0.0165748 3.05676
-0.122938 0.859958 3.65605
0.160601 0.486083 3.51297
0.315576 -0.468702 3.04477
0.277096 0.119737 3.20868
0.153281 0.654896 3.63196
0.540175 -0.246907 3.11552
-0.0498166 0.959932 3.83179
0.31733 -0.145131 2.94763
0.463999 -0.0613452 3.17859
-0.417642 -0.228732 3.05518
-0.263885 0.767678 3.76227
-0.06795 0.0199489 3.05553
-0.374918 -0.399654 2.98123
-0.192999 0.341065 3.27001
-0.235878 0.675851 3.581
-0.247509 -0.147439 3.09437
-0.301146 -0.167472 3.28174
