ply
    format ascii 1.0           
    element vertex 44
    property double x           
    property double y           
    property double z           
    end_header
-0.300108 -1.24322 8.2341
-0.289038 -0.918944 8.48322
-0.107605 -1.45984 7.99709
0.686402 -2.16781 8.10219
0.266126 -1.69451 8.04026
0.571082 -2.55826 7.95585
-0.802747 -0.632692 8.58844
0.338831 -1.72718 8.38747
0.334033 -2.35497 7.77042
-0.0252887 -2.28508 7.66955
0.49423 -1.89832 8.17772
-0.457246 -2.50446 7.69134
-0.55532 -1.00137 8.29121
0.898826 -2.42247 8.23197
0.883813 -2.07893 8.33181
-0.571156 -0.66274 8.83771
-0.313109 -1.74882 7.94732
-0.66603 -1.30753 8.16035
0.352704 -2.80175 7.84304
-0.846996 -0.456933 8.87281
0.149852 -2.53121 7.50043
-0.00927987 -1.99647 7.90038
0.332951 -2.00108 7.86711
-0.277102 -2.77122 7.65791
-0.459689 -1.52107 8.07699
0.0551814 -2.77718 7.69132
-0.272732 -2.30978 7.84068
-0.300506 -2.07275 8.06987
-0.855886 -0.965187 8.44281
-0.555438 -1.85924 8.12142
-1.06158 -0.840584 8.65799
-0.486848 -2.35138 8.10233
-1.00095 -1.18068 8.70431
-0.668074 -1.62837 8.33039
-0.696608 -1.93883 8.38572
-0.484711 -2.75285 7.85593
-0.488876 -2.11923 8.31358
-0.833096 -1.54794 8.66499
0.897218 -2.11642 8.36893
-0.862566 -0.449722 8.9039
-0.596931 -0.903653 8.61742
0.492286 -1.91095 8.18612
0.347536 -2.80673 7.85664
-0.584599 -0.659919 8.87729
