ply
    format ascii 1.0           
    element vertex 52
    property double x           
    property double y           
    property double z           
    end_header
0.0200407 0.184532 0.900454
0.0517844 0.359726 0.889663
0.0807592 0.256858 0.924502
-0.00777805 0.281369 0.90261
0.0124599 0.237831 0.898777
0.0432571 0.279682 0.898076
0.0431691 0.0117231 0.935305
-0.0347451 0.098015 0.951647
0.0429598 -0.0875162 0.979061
0.0183162 0.389043 0.910054
0.111414 -0.0483415 0.974811
-0.003344 0.351352 0.916666
0.0143456 0.0515763 0.925662
-0.0379539 -0.0291113 0.979135
0.118521 0.0264422 0.962289
-0.0360922 -0.0739376 0.970976
-0.0652235 0.0709514 0.98629
-0.0110068 0.166432 0.930995
0.0567947 0.163202 0.926657
0.00618873 -0.0542482 0.972697
0.0873754 -0.090661 0.955453
0.0970931 0.158718 0.962184
-0.0149384 0.211083 0.923642
0.0641694 -0.0433955 0.990085
-0.0349845 0.022495 0.986336
0.00866832 -0.00399659 0.982597
-0.0622699 -0.0614118 1.01472
0.0938985 -0.00579938 0.984469
-0.0290061 0.145142 0.967998
-0.0153476 0.251566 0.93716
-0.00774822 0.0564658 0.967597
-0.0306565 0.20516 0.967564
-0.0535665 -0.0145564 1.01764
-0.0475597 -0.114532 0.992712
0.00466626 0.338649 0.959867
0.0760483 0.0459173 0.948894
0.109959 0.077601 0.963642
0.111253 -0.0492889 0.972254
0.077846 -0.098285 1.04359
-0.032357 -0.102019 1.03839
0.0730001 0.319082 0.917224
0.0927554 -0.00677302 0.982051
0.13368 0.04014 1.00433
0.106636 -0.0684622 1.08407
0.129395 -0.00742716 1.01435
0.136364 -0.0482773 1.00901
0.145514 -0.025115 1.05389
0.0162731 0.238777 0.898068
0.0488678 0.216492 0.923952
0.0636715 0.25301 0.965775
0.0916601 0.156579 1.00752
-0.0310706 -0.0303891 0.975204
