ply
    format ascii 1.0           
    element vertex 49
    property double x           
    property double y           
    property double z           
    end_header
-0.152045 -0.144225 2.25342
-0.135503 -0.445393 2.15943
-0.182205 -0.330535 2.17116
-0.142386 -0.267861 2.25175
-0.131662 -0.32885 2.22096
0.0234767 -0.738177 2.16655
-0.0739055 -0.501622 2.22777
-0.0116631 -0.75238 2.09753
-0.0837428 -0.39451 2.21342
-0.0350016 -0.683984 2.12511
-0.138329 -0.661746 2.02031
-0.16658 -0.524883 2.10674
-0.115168 -0.582952 2.11118
-0.20104 -0.405116 2.14899
-0.081986 -0.71969 2.07609
-0.174809 -0.612627 2.04497
-0.123163 -0.537536 2.16575
-0.172176 -0.206762 2.2895
0.00980982 -0.668074 2.18566
-0.239798 -0.27486 2.22228
-0.0803113 -0.571299 2.20866
-0.0648918 -0.627488 2.10492
-0.221115 -0.160862 2.25653
-0.029226 -0.808344 2.15406
-0.0295763 -0.624778 2.23306
-0.208921 -0.476534 2.15424
-0.204791 -0.791717 2.09491
-0.235719 -0.747243 2.13688
-0.148417 -0.746194 2.09941
-0.265264 -0.520338 2.17172
-0.264521 -0.611443 2.13622
-0.209571 -0.559981 2.14388
-0.236017 -0.672797 2.0996
-0.247289 -0.373068 2.18784
0.078104 -0.69016 2.20926
-0.0655174 -0.594152 2.26993
-0.0260989 -0.622182 2.23065
-0.0556124 -0.631414 2.17606
0.03664 -0.744607 2.26237
-0.149527 -0.461832 2.27351
-0.0106483 -0.798002 2.2298
0.0296644 -0.676406 2.25384
-0.102845 -0.539049 2.28035
-0.162964 -0.412227 2.29942
-0.0167992 -0.755228 2.3306
-0.0818143 -0.720142 2.07832
-0.182836 -0.689219 2.06644
-0.220389 -0.16172 2.25649
-0.206693 -0.794032 2.09819
