ply
    format ascii 1.0           
    element vertex 57
    property double x           
    property double y           
    property double z           
    end_header
0.249379 0.240368 3.77232
-0.401627 -0.892689 3.27901
-0.0248288 -0.881883 3.45268
0.136479 -1.66458 3.88289
-0.0861082 -1.2897 3.62095
-0.0485785 2.5044 4.17636
-0.234234 -1.73302 3.69158
0.504356 1.58252 4.62174
0.268868 -0.600451 3.77845
0.548299 -0.382184 4.04749
0.906872 -0.821469 4.85489
0.474018 -0.897438 4.36797
0.237244 -0.992163 3.77144
0.276318 1.1783 4.02239
-0.0814308 1.62985 4.13475
-0.245745 -0.503821 3.31513
-0.508858 -1.40644 3.653
0.323345 2.09214 4.21139
-0.141726 0.497303 3.71437
0.248786 -0.196154 3.80386
0.283386 2.71712 4.37209
0.759396 -0.475595 4.73599
0.339106 1.61767 4.20934
0.66211 -0.0133523 4.55067
0.23303 -1.31348 4.02618
-0.574633 -0.168009 3.44705
0.239192 0.645103 3.8494
0.495577 -1.11022 4.83901
-0.116553 -0.288926 3.66006
0.580469 0.416835 4.39589
-0.662891 -0.580205 3.4075
0.516942 0.0529489 4.11624
-0.220199 0.0747105 3.77803
-0.0601058 0.921434 3.85707
-0.680286 -1.00549 3.4429
-0.564472 -1.74335 3.98343
-0.467993 0.956678 4.01998
-0.558788 0.389078 3.98184
-0.812371 -0.404623 3.75678
-0.846808 -0.791384 3.71767
-0.963556 -0.648958 4.29885
-0.696526 -1.14411 3.85471
-0.119036 2.05876 4.23662
0.271473 -0.599977 3.77456
0.539071 -0.375146 4.05579
0.517667 -1.13989 4.8192
0.51759 0.0506495 4.13039
0.768821 -0.486579 4.69968
0.282888 1.16589 4.00045
0.910386 -0.844459 4.83702
0.591792 0.402562 4.38851
0.312802 2.10829 4.25726
0.675103 -0.0378645 4.52851
0.484021 -0.919188 4.35238
-0.117578 -0.291103 3.6352
0.227269 -1.30257 4.08541
0.501273 1.54452 4.60697
