ply
    format ascii 1.0           
    element vertex 43
    property double x           
    property double y           
    property double z           
    end_header
-0.323241 -0.374859 2.94119
-0.475485 1.38754 2.90979
-0.629559 0.441749 2.62506
-0.785094 0.903139 3.02722
-0.730189 1.13816 3.13821
-0.82655 0.270138 2.66569
-0.595649 1.37936 3.14715
-0.927918 -0.0708536 2.9468
-0.291262 1.19886 2.9389
-0.353678 0.337165 2.57564
-0.415393 0.609192 2.67301
-0.503662 0.812509 2.83233
-0.552916 1.02802 2.96708
-0.58065 0.171829 2.59731
-0.309845 0.0589445 2.65574
-0.140199 -0.13194 2.76594
-0.662482 -0.142643 2.9945
-0.176112 0.518193 2.69817
-0.74229 0.0458128 2.79184
0.0461877 0.27889 2.75504
-0.365809 -0.186695 3.02888
-0.2111 0.877509 2.98608
-0.475344 -0.0300122 2.83609
0.145405 0.06273 2.86278
0.0728389 -0.426274 3.22466
-0.184117 0.23548 2.83306
0.197056 -0.171138 3.37861
-0.977322 -0.287785 3.17838
-0.134554 -0.615173 3.28843
-0.116259 -0.349755 3.02241
-0.7143 0.679188 2.9268
-0.835251 0.447857 2.86007
-0.316433 0.668185 2.96581
-0.782819 0.903121 3.0272
-0.948039 0.522461 3.08752
-1.11715 -0.129435 3.45831
-0.411086 -0.0678891 2.88547
-0.934757 0.197637 2.94624
-0.987888 -0.00439871 3.21458
-1.02089 0.271114 3.20344
-0.732569 1.13725 3.13486
-0.821168 0.700323 3.18592
-0.602676 1.36982 3.13797
