ply
    format ascii 1.0           
    element vertex 40
    property double x           
    property double y           
    property double z           
    end_header
-0.00944599 -0.0195489 0.421939
0.00996877 -0.0960452 0.403085
-0.0416491 -0.153049 0.384545
-0.0135048 -0.0950179 0.390758
0.00240569 -0.108955 0.388318
-0.0231748 -0.136696 0.384731
-0.0158243 -0.0497983 0.415984
0.0122335 -0.118017 0.406384
-0.0250862 -0.059181 0.398867
-0.0160617 -0.0770872 0.40181
0.009174 -0.0834612 0.421849
-0.0123479 -0.163044 0.431594
0.018282 -0.105736 0.424951
-0.00831352 -0.0362123 0.436749
-0.00480997 -0.0671266 0.417371
0.00432685 -0.144957 0.443792
-0.00756862 -0.127471 0.397482
-0.0216572 -0.142856 0.406125
0.0103775 -0.0919928 0.441041
0.0115489 -0.128822 0.428816
0.000842117 -0.130684 0.468715
0.0086973 -0.11241 0.459796
-0.0127005 -0.0636477 0.443329
-0.0156135 -0.0812991 0.456208
-0.041691 -0.182828 0.450721
-0.0159511 -0.16207 0.449459
-0.0150524 -0.139815 0.454706
-0.00139776 -0.115876 0.441377
-0.0407843 -0.150121 0.47798
-0.0330733 -0.169403 0.465795
-0.0354711 -0.0854665 0.464791
-0.0607513 -0.167695 0.4772
-0.00545565 -0.134736 0.418368
-0.0176796 -0.148993 0.429108
-0.0295734 -0.0217494 0.41609
-0.00970911 -0.0189326 0.423022
-0.0412686 -0.110149 0.383118
-0.0337283 -0.0406046 0.40707
-0.00548692 -0.0662641 0.418175
0.00859742 -0.0831515 0.421989
