ply
    format ascii 1.0           
    element vertex 53
    property double x           
    property double y           
    property double z           
    end_header
-0.0235404 0.051412 1.39989
0.134849 0.0239533 1.47045
0.113508 -0.0724886 1.50628
0.0645133 0.0940021 1.45206
0.249105 0.121871 1.57033
0.0436046 -0.0061495 1.43145
0.0404859 0.579112 1.59367
0.0825539 0.487746 1.58062
0.161991 0.101522 1.52858
0.316144 0.194703 1.5788
0.22656 0.208281 1.52318
0.13815 0.397198 1.58214
0.270228 0.281331 1.58598
-0.0311344 0.38728 1.524
-0.0592776 0.139568 1.41654
-0.00701324 0.661363 1.60931
0.0885924 0.310882 1.54131
0.0997715 0.178249 1.50596
-0.0064276 0.482153 1.54002
0.179919 0.317566 1.56931
0.048601 0.399267 1.5583
-0.0472354 0.789316 1.68455
-0.111216 0.857204 1.70058
-0.0987044 0.332983 1.54698
-0.146761 0.728029 1.63956
0.0170875 -0.0771413 1.49276
0.0023767 0.31184 1.57541
-0.0638206 0.233709 1.55691
-0.053513 -0.00136944 1.47483
0.0373689 0.225229 1.56107
-0.222446 0.871654 1.80974
-0.116182 0.528886 1.62427
-0.126154 0.629109 1.65201
-0.0501108 0.561771 1.56624
-0.0830859 0.446223 1.59074
-0.0588549 -0.0615153 1.56307
-0.116505 0.0980573 1.48936
-0.146165 0.468413 1.69904
-0.187069 0.68575 1.71527
-0.135324 0.190094 1.61636
-0.144562 0.916764 1.77717
-0.170191 0.596267 1.7575
-0.092021 0.0367216 1.56964
-0.1282 0.369829 1.63007
-0.198801 0.774685 1.80762
-0.111297 0.106725 1.65613
-0.168683 0.781579 1.71052
0.114184 -0.0725162 1.50685
0.136203 0.397249 1.58183
0.179836 0.315942 1.56557
0.160088 0.102722 1.52992
0.0360557 0.224875 1.55821
0.317141 0.195961 1.57293
