ply
    format ascii 1.0           
    element vertex 28
    property double x           
    property double y           
    property double z           
    end_header
-0.48685 -1.04214 3.66201
-0.457975 -0.863917 3.70375
-0.523638 -0.520091 3.76628
-0.34457 -1.11499 3.77284
-0.561384 -0.0860089 3.96665
-0.329471 -0.770394 3.80208
-0.475504 -0.685551 3.72635
-0.715509 -0.468233 3.75981
-0.248587 -1.012 3.89655
-0.634404 -0.770325 3.71202
-0.207039 -1.18593 3.899
-0.336573 -0.56499 3.87008
-0.4314 -0.266158 3.98168
-0.566519 -1.38137 3.92223
-0.823432 -0.963249 3.84675
-0.571389 -0.350374 3.8661
-0.711161 -1.25916 3.89648
-0.629532 -0.961761 3.74069
-0.647927 -1.12004 3.80387
-0.680416 -0.164907 4.05773
-0.714009 -0.652343 3.84082
-0.794886 -1.10383 3.90361
-0.410435 -0.407471 3.83947
-0.730982 -0.839818 3.84297
-0.740941 -0.342425 3.88981
-0.305158 -0.886348 4.00405
-0.348955 -0.435977 4.01712
-0.376461 -1.34235 4.05277
