ply
    format ascii 1.0           
    element vertex 41
    property double x           
    property double y           
    property double z           
    end_header
-3.62254 -0.941291 15.2265
-3.3344 -1.55912 14.2913
-2.11104 -1.60772 13.8466
-2.89923 -2.42335 13.7258
-2.98621 1.13819 16.3041
-1.30843 2.26173 16.6057
-0.820087 -3.03997 12.4404
-1.74509 -2.24936 12.9237
0.277722 -2.73661 12.3643
-2.90405 0.0478539 15.3496
-1.49314 -0.575654 14.0411
-1.42856 -3.88939 12.9281
0.55885 -1.68079 12.4237
-1.89107 1.386 16.0006
-2.47659 1.89415 16.9967
-2.44665 -0.812537 14.6171
0.0407967 -1.12339 13.2467
-0.452136 -2.02317 12.791
-0.893929 -1.43586 13.6615
-2.11709 -3.28103 13.7575
-1.74592 0.0873051 14.8647
-0.88126 1.21383 16.444
-1.20077 0.622418 15.7737
-0.756051 -0.00783532 15.191
-0.797075 -0.654464 14.3741
0.0340328 -3.47338 13.1244
1.08344 -2.40577 13.1267
-0.507593 -4.24266 13.9128
-0.202015 -0.00291535 16.0278
0.879591 -1.51992 15.2294
-0.842667 1.76439 17.3564
-3.74999 -2.32537 15.0685
-3.12045 -3.34174 14.7951
-3.6036 -0.243378 16.3081
-4.18694 -3.37271 15.5716
-2.46468 -3.96465 15.5214
-3.81666 -1.41753 16.2372
-3.83965 -2.58586 16.4027
-2.65425 0.917684 17.9454
-2.23442 1.52466 18.9272
-0.871403 -1.46396 13.7234
