ply
    format ascii 1.0           
    element vertex 61
    property double x           
    property double y           
    property double z           
    end_header
-1.34412 -0.970289 2.98119
-1.25226 -1.07485 3.18067
-1.31939 -1.03327 3.31275
-1.60594 -0.703465 2.98949
-1.76457 -0.489502 3.02388
-1.98732 -0.203406 2.89474
-1.31735 -1.0354 3.08606
-1.88198 -0.388745 2.9034
-1.5962 -0.728662 3.20425
-1.49072 -0.843502 3.14093
-1.28241 -1.16243 3.0834
-1.94863 -0.19996 3.00275
-1.90567 -0.297512 2.95683
-1.32281 -1.19567 2.97546
-1.83992 -0.50216 2.92137
-1.27703 -1.27785 3.04005
-1.6395 -0.666158 3.09882
-1.3402 -1.0945 2.99825
-1.42109 -0.964892 3.20566
-1.71137 -0.579211 3.10591
-1.38631 -0.938145 3.09067
-1.53674 -0.841847 3.02016
-1.3978 -1.05441 2.91527
-1.27977 -1.23871 3.17177
-1.85 -0.406273 3.01433
-1.84794 -0.63342 2.90603
-1.39285 -1.16829 2.89079
-1.46733 -0.928297 2.97808
-1.59344 -0.764319 3.07619
-1.67074 -0.64224 3.20562
-1.35758 -1.29837 2.9474
-1.62912 -0.803823 2.95123
-1.57792 -0.902862 2.92654
-1.70099 -0.717491 2.92912
-1.42251 -1.26835 2.87486
-1.55033 -0.826633 3.24772
-1.50365 -1.02844 2.92268
-1.76434 -0.594106 2.9742
-1.66256 -0.6148 2.99065
-1.44862 -0.86933 3.25346
-1.77906 -0.4934 3.14932
-1.75747 -0.575092 3.21673
-1.98782 -0.317968 2.86629
-1.50421 -1.18217 2.89067
-1.59423 -0.98716 2.90706
-1.93307 -0.438995 2.85937
-1.92824 -0.338739 3.07683
-1.92261 -0.554365 2.86945
-2.07307 -0.188953 2.99638
-1.28221 -1.159 3.26864
-1.7852 -0.59142 3.22708
-1.91412 -0.454229 3.13214
-2.01661 -0.264636 3.06908
-1.3691 -1.16412 3.36277
-1.52668 -0.903198 3.33363
-1.9757 -0.544649 3.2038
-1.81361 -0.795352 3.27689
-1.69303 -0.78255 3.2614
-1.90111 -0.622236 3.22948
-1.52419 -1.17285 3.3622
-1.44678 -1.07705 3.32453
