ply
    format ascii 1.0           
    element vertex 48
    property double x           
    property double y           
    property double z           
    end_header
1.66607 -3.2976 11.3112
1.66463 -3.52775 10.5748
1.31894 -3.9412 9.19864
1.03977 -4.10606 9.36843
1.49321 -3.57708 11.1839
1.38748 -3.70143 10.5374
1.31599 -3.88482 10.2769
1.19265 -4.03259 9.98088
1.7475 -3.43872 10.9752
1.63899 -3.68828 10.2638
1.50502 -3.82685 9.9682
1.16959 -4.61904 9.24516
2.0168 -3.42381 10.7321
1.16474 -4.21096 10.2838
1.52861 -3.72926 10.8454
2.07415 -3.25617 11.0544
1.9637 -3.62115 10.4242
1.27839 -4.29385 9.14195
1.27744 -4.04958 10.5882
1.53999 -3.92862 9.46311
2.03306 -3.85786 10.1773
1.57394 -4.4583 9.02084
1.42963 -4.79031 9.00462
1.74226 -3.96541 9.77016
1.40949 -4.11859 9.7241
2.04517 -4.61135 9.1635
1.72363 -4.69585 8.96761
1.9997 -4.10437 9.5638
1.95453 -3.16497 11.3805
1.63333 -4.18572 9.21737
1.16375 -4.40189 9.90412
1.13023 -4.53423 10.2559
1.47851 -4.09493 10.8842
1.08475 -4.42039 9.52858
1.88519 -3.29752 11.6988
1.24729 -4.75523 10.0242
1.23819 -4.90075 9.52685
1.12857 -4.67708 9.72978
1.62491 -3.8921 11.1347
1.03341 -4.12285 9.68804
1.42433 -4.37538 10.5861
1.33436 -5.00218 9.83899
1.54914 -5.23601 9.90282
1.72113 -5.0664 10.1002
1.37855 -4.67969 10.3971
1.74355 -3.65275 11.3775
1.69885 -3.42834 10.9684
1.72914 -4.37725 10.7763
