ply
    format ascii 1.0           
    element vertex 52
    property double x           
    property double y           
    property double z           
    end_header
-0.743676 -0.712922 2.30435
-0.701019 -0.905501 2.18267
-0.667681 -0.596221 2.44035
-0.78946 -0.825447 2.2145
-0.509289 -0.940542 2.29877
-0.72895 -0.508907 2.53506
-0.666831 -0.800092 2.22072
-0.605846 -0.764961 2.22565
-0.645745 -0.669377 2.37728
-0.570482 -0.909396 2.2774
-0.577363 -0.833501 2.29264
-0.604801 -0.839429 2.22743
-0.673553 -0.53566 2.57207
-0.496334 -0.897155 2.34744
-0.779341 -0.920519 2.18887
-0.661407 -0.586791 2.52782
-0.767632 -0.624203 2.37739
-0.466065 -0.956639 2.36978
-0.698768 -0.624054 2.38564
-0.734275 -0.571437 2.42055
-0.778149 -0.767514 2.27062
-0.575168 -0.978903 2.25654
-0.582166 -0.774083 2.419
-0.522808 -1.00753 2.29912
-0.577444 -0.764333 2.30181
-0.619136 -0.715604 2.42324
-0.638709 -0.657992 2.45235
-0.615184 -0.906437 2.21227
-0.561395 -0.835048 2.4301
-0.795075 -0.535577 2.51076
-0.62311 -0.725927 2.27356
-0.72096 -0.684396 2.36436
-0.712238 -0.859519 2.23754
-0.567723 -0.891414 2.36391
-0.789952 -0.687382 2.36528
-0.81013 -0.730457 2.32174
-0.708486 -0.774634 2.27965
-0.792475 -0.57447 2.45445
-0.674005 -0.72266 2.32527
-0.853724 -0.581419 2.55328
-0.840567 -0.897296 2.23115
-0.731429 -0.564245 2.49126
-0.521164 -0.895487 2.41127
-0.63517 -0.755193 2.37329
-0.762207 -0.479161 2.58634
-0.564383 -0.843494 2.43526
-0.645112 -0.661258 2.45341
-0.490177 -0.951054 2.43672
-0.592731 -0.820822 2.36665
-0.641253 -0.725356 2.48237
-0.69723 -0.595351 2.60625
-0.696408 -0.642021 2.56208
