ply
    format ascii 1.0           
    element vertex 48
    property double x           
    property double y           
    property double z           
    end_header
-0.772424 -1.6533 5.02045
-0.746721 -1.42003 5.12785
-0.93514 -1.59254 5.04895
-0.558346 -1.48902 5.11621
-0.770588 -0.714894 5.61618
-0.987331 -1.76474 4.97733
-0.573334 -1.10577 5.28324
-0.538596 -0.553789 5.79461
-0.701468 -0.990844 5.39198
-0.912339 -1.42888 5.20748
-0.448105 -1.77314 4.96429
-0.649481 -0.856503 5.5055
-0.361228 -1.61193 5.02873
-0.450752 -1.26592 5.26574
-0.838225 -0.904264 5.60377
-0.608392 -1.68472 4.9988
-0.563522 -0.701168 5.60581
-0.744122 -1.25705 5.20883
-0.211161 -1.82215 5.0677
-0.712429 -1.83794 4.99204
-0.987392 -1.36852 5.37312
-0.3614 -1.93055 5.015
-0.883914 -1.89701 5.07938
-0.939823 -2.03817 5.21718
-0.772191 -2.07785 5.14166
-0.443599 -1.44628 5.25934
-0.741095 -1.18249 5.37102
-0.212481 -1.64366 5.14747
-0.49157 -1.0261 5.50174
-0.515041 -0.88943 5.60605
-0.373427 -1.17619 5.55785
-0.602601 -1.33072 5.28413
-0.448207 -0.780001 5.78482
-0.373438 -1.32412 5.43063
-0.419349 -1.0286 5.68853
-0.512945 -1.19634 5.42069
-0.202709 -1.78137 5.28183
-0.366747 -1.92416 5.03006
-0.465848 -2.03706 5.1375
-0.797835 -1.08699 5.52104
-1.05754 -1.60926 5.20101
-0.916778 -1.19713 5.58843
-0.86481 -1.27913 5.44417
-0.836718 -0.823016 5.79191
-1.05782 -1.80489 5.16373
-1.02327 -1.73204 5.36274
-0.913141 -1.34411 5.64759
-0.955917 -1.54748 5.35241
