ply
    format ascii 1.0           
    element vertex 42
    property double x           
    property double y           
    property double z           
    end_header
-0.241633 -0.0617916 2.02641
-0.19701 -0.368378 1.82486
-0.198056 -0.298955 1.86115
-0.281991 -0.133855 1.99951
-0.146859 -0.496244 1.79617
-0.274286 -0.351487 1.81582
-0.139007 -0.254934 1.92964
-0.108622 -0.335012 1.94156
-0.284753 -0.488912 1.70242
-0.060026 -0.491216 1.86192
-0.093724 -0.550331 1.81738
-0.136572 -0.418024 1.85655
-0.263873 -0.422372 1.74672
-0.195883 -0.189233 1.94568
-0.164578 -0.0805206 2.06286
-0.331383 -0.315342 1.86671
-0.183044 -0.0189831 2.13845
-0.188809 -0.137281 2.00321
-0.206536 -0.466471 1.77188
-0.198179 -0.548598 1.76691
-0.343705 -0.412584 1.77622
-0.278658 -0.636403 1.79785
-0.349723 -0.60164 1.78983
-0.225109 -0.262685 1.92104
-0.284434 -0.554983 1.75853
-0.337498 -0.251085 1.96069
-0.0954058 -0.619435 1.85624
-0.269176 -0.218117 1.96913
-0.355596 -0.493598 1.75334
-0.314056 -0.099142 2.06341
-0.340786 -0.207121 2.01311
-0.166608 -0.651532 1.8622
-0.0393612 -0.590776 1.89797
-0.151585 -0.226373 2.03169
-0.12223 -0.409584 1.92845
-0.0378802 -0.516204 1.93362
-0.139512 -0.298019 2.07118
-0.175664 -0.342577 1.92182
-0.169135 -0.1214 2.13862
-0.11545 -0.361505 2.00439
-0.286924 -0.549809 1.76294
-0.338462 -0.596781 1.77472
