ply
    format ascii 1.0           
    element vertex 45
    property double x           
    property double y           
    property double z           
    end_header
-0.0901927 -0.4355 1.5305
-0.215874 -0.179885 1.69926
-0.0788399 -0.525624 1.49829
-0.220463 0.0887339 1.61594
-0.222488 0.00577931 1.5583
-0.111758 -0.399988 1.44158
-0.161888 -0.256805 1.6254
-0.199039 -0.0950812 1.64568
-0.15548 -0.347941 1.61472
-0.134234 -0.324586 1.53021
-0.238989 -0.128357 1.47623
-0.161681 -0.254098 1.47358
-0.123709 -0.495624 1.41795
-0.261054 -0.472924 1.74931
-0.285335 0.090294 1.52713
-0.237849 -0.100043 1.55927
-0.216946 -0.591569 1.4029
-0.274938 -0.0550389 1.47813
-0.23709 -0.00955886 1.66293
-0.18997 -0.501645 1.6494
-0.238469 -0.554608 1.70257
-0.210199 -0.417686 1.38917
-0.254578 -0.638146 1.47663
-0.212888 -0.181024 1.59974
-0.147512 -0.47489 1.58571
-0.328368 0.198428 1.69247
-0.17971 -0.566739 1.58308
-0.271025 -0.259951 1.72063
-0.219303 -0.390234 1.67448
-0.275977 0.0826286 1.70004
-0.221888 -0.203335 1.51687
-0.317429 -0.613654 1.6921
-0.169111 -0.347362 1.45246
-0.344128 -0.634205 1.60536
-0.351197 -0.561366 1.76258
-0.302982 -0.341273 1.69312
-0.307467 -0.0910671 1.69529
-0.352558 -0.465069 1.77518
-0.260914 -0.634837 1.47539
-0.313106 -0.611365 1.69216
-0.312293 -0.0068841 1.68824
-0.168075 -0.563255 1.48579
-0.390823 -0.143993 1.7009
-0.242007 -0.276081 1.64622
-0.394978 0.097843 1.68359
