ply
    format ascii 1.0           
    element vertex 46
    property double x           
    property double y           
    property double z           
    end_header
-0.0336597 -0.852574 2.0852
-0.0786219 -0.746235 2.06977
-0.10253 -0.970179 1.99728
-0.173119 -0.480568 2.21009
-0.0628223 -1.14896 1.94348
-0.138131 -1.07917 1.92987
-0.224146 -1.04128 1.92179
-0.114721 -0.583256 2.17045
-0.192118 -0.906669 1.97045
-0.18019 -0.812371 2.01031
-0.145615 -0.657501 2.10612
-0.306641 -0.985173 1.9065
-0.060651 -0.502477 2.23101
-0.00319524 -1.06782 1.98285
-0.347661 -1.07734 1.86692
-0.345548 -0.831043 2.06865
-0.292721 -0.885388 1.99296
-0.233557 -0.577865 2.19914
-0.214123 -1.15244 1.91936
-0.396363 -0.967539 1.9765
-0.324939 -1.16068 1.94824
-0.300297 -1.267 2.01117
-0.393982 -1.21648 2.02326
-0.315506 -0.73269 2.18987
-0.190346 -0.759838 2.09725
-0.303687 -0.6717 2.2458
-0.227511 -0.691558 2.16715
-0.279965 -0.795101 2.12648
-0.249743 -0.524319 2.29469
-0.417584 -1.07622 1.96338
-0.418607 -1.0289 2.08077
-0.339259 -0.811305 2.23496
-0.0496195 -1.23777 1.99826
-0.154845 -0.457313 2.30959
-0.0522397 -0.411368 2.33517
-0.0544263 -0.951946 2.08926
0.0412861 -1.19603 2.03323
-0.0532391 -0.697695 2.19679
-0.13437 -1.28299 2.05114
0.0559049 -1.09271 2.06212
-0.0606861 -0.613129 2.24232
-0.0213902 -0.791753 2.25244
-0.392512 -0.968291 1.97492
-0.0338299 -0.548718 2.35238
-0.322004 -1.15654 1.94709
-0.390755 -1.22016 2.02343
