ply
    format ascii 1.0           
    element vertex 48
    property double x           
    property double y           
    property double z           
    end_header
1.03911 1.60421 1.2804
1.17962 1.71142 1.36257
0.80483 1.17902 0.972724
1.14115 1.2479 1.21165
0.865146 1.01623 0.922991
0.997379 1.04046 1.0355
0.993217 1.25693 1.08899
1.1919 2.33189 1.40437
1.18012 1.89278 1.38072
1.30426 0.866368 1.1359
1.31419 2.02631 1.47268
1.27671 1.03102 1.20033
1.13545 1.02898 1.10989
0.718699 1.12106 0.75339
1.38195 1.8693 1.37812
1.1593 1.40459 1.28187
1.31403 1.24675 1.22731
0.94546 1.52647 1.12861
1.45013 1.09113 1.1585
1.09875 0.913407 0.96291
1.14115 2.09665 1.40276
0.95539 1.41066 1.00306
1.44529 1.37265 1.22013
0.732553 1.27638 0.837786
1.27965 0.881203 0.958263
1.22746 0.845476 0.773402
0.840881 0.984801 0.759631
1.22112 1.55213 1.26273
1.06314 1.82818 1.20071
1.33848 2.19612 1.39019
1.01213 1.8094 1.01492
1.12022 1.98432 1.25168
1.13601 2.20449 1.21393
1.09786 1.97431 1.06518
0.968378 1.62944 0.972567
1.07246 1.66691 1.12767
0.796707 1.27999 0.676134
1.07874 1.52755 0.839316
1.2393 0.846738 0.754012
1.45238 0.943099 1.05252
0.98288 0.960648 0.66658
1.36994 1.52408 1.18921
1.33095 1.71495 1.26239
1.4696 1.65858 1.19496
1.49182 1.8017 1.20998
1.40126 0.871365 0.8026
1.46445 2.05676 1.33838
1.43325 1.25346 1.09492
