ply
    format ascii 1.0           
    element vertex 44
    property double x           
    property double y           
    property double z           
    end_header
0.695758 -0.489877 3.22032
0.676306 -0.735707 3.43555
0.647354 1.25871 3.50263
0.290938 -0.686387 2.91443
0.571033 -0.690714 3.12426
0.546365 -0.253101 3.08357
0.126623 -0.547646 2.62547
0.660449 0.0689727 3.27739
0.42517 -0.121809 2.90814
0.669257 0.960538 3.34119
0.46391 0.111835 2.94814
0.257851 -0.890971 3.34166
0.219971 -0.323514 2.70011
0.468472 -0.533393 2.98458
0.641874 0.288276 3.13647
0.500214 -0.845759 3.29558
0.336986 -0.444894 2.84656
0.529817 0.522579 3.08421
0.571847 0.73452 3.20437
-0.0260409 -0.860212 3.0604
0.734315 -0.493344 3.45295
0.477169 1.00427 3.16484
0.610697 0.511875 3.39441
0.223246 -0.0425166 2.82064
0.314982 0.800611 3.13361
0.0743021 0.153381 2.88459
0.577264 0.352895 3.59522
0.0734351 -0.659583 2.82115
0.564081 -0.139549 3.30851
-0.00345699 -0.21734 2.71288
0.0742432 0.467797 3.10844
0.604341 0.733085 3.41912
0.394764 0.304719 3.07225
-0.19597 -0.723474 2.94198
0.295256 0.524133 3.13644
0.175398 0.26717 3.0468
-0.0953134 -0.459093 2.72067
0.226899 1.01093 3.27095
0.00492331 -0.0836561 2.92055
0.438829 1.15341 3.35468
0.0806965 0.64491 3.2003
0.052197 -0.661702 2.85682
-0.187465 -0.264753 2.89578
-0.0634058 0.330281 3.19891
