ply
    format ascii 1.0           
    element vertex 54
    property double x           
    property double y           
    property double z           
    end_header
-0.069461 -0.0407691 1.23689
-0.0900764 -0.139185 1.16905
-0.180965 -0.518966 1.06136
-0.133034 -0.245921 1.10154
-0.120302 -0.0512021 1.25756
-0.115433 -0.099811 1.19527
-0.153744 -0.406197 0.940347
-0.175701 -0.342156 1.04781
-0.131934 -0.188195 1.15024
-0.174261 -0.205714 1.18868
-0.178289 -0.279595 1.12591
-0.145243 -0.352008 0.969466
-0.151637 -0.14728 1.19985
-0.135178 -0.3032 1.06185
-0.104885 -0.376113 0.928622
-0.0844115 -0.224962 1.11545
-0.178713 -0.39129 0.985179
-0.0935108 -0.333172 0.973719
-0.108426 -0.443844 0.946085
-0.0574133 -0.100035 1.19444
-0.092296 -0.487882 0.976681
-0.072149 -0.184491 1.15138
-0.0532943 -0.27148 1.13186
-0.0596949 -0.316233 1.10234
-0.0796854 -0.328224 1.05634
-0.0420226 -0.150743 1.18375
-0.0550443 -0.458503 1.00758
-0.00699655 -0.420822 1.09295
-0.178664 -0.327898 1.10212
-0.121273 -0.343542 1.02194
-0.158023 -0.454203 0.979213
-0.217954 -0.509609 1.09302
-0.189388 -0.383851 1.09384
-0.176604 -0.397325 0.990956
-0.134757 -0.108791 1.25321
-0.184563 -0.261952 1.17997
-0.191465 -0.465167 1.0803
-0.208731 -0.42856 1.12629
-0.178415 -0.519274 1.05779
-0.140717 -0.245558 1.15785
-0.18708 -0.437288 1.02884
-0.171103 -0.563471 1.11409
-0.187512 -0.329018 1.15534
-0.203483 -0.486234 1.14368
-0.209009 -0.538637 1.12922
-0.178428 -0.334794 1.20947
-0.158341 -0.3894 1.04518
-0.167956 -0.378184 1.15059
-0.169017 -0.409672 1.19259
-0.149309 -0.477045 1.02887
-0.0974989 -0.482965 0.97471
-0.151761 -0.405841 0.940274
-0.0932618 -0.139917 1.16564
-0.112746 -0.437706 0.943482
