ply
    format ascii 1.0           
    element vertex 48
    property double x           
    property double y           
    property double z           
    end_header
-0.0392406 -0.0652058 0.856015
-0.04026 -0.114471 0.828145
-0.0529593 -0.0926635 0.830633
-0.0365613 -0.251783 0.736605
-0.0841497 -0.13957 0.819512
-0.0515148 -0.167365 0.796521
-0.0652525 -0.0652031 0.851818
-0.0569884 -0.136617 0.813835
-0.0352576 -0.225136 0.747335
-0.0728148 -0.112822 0.826473
-0.0647321 -0.213196 0.769919
-0.0779294 -0.178531 0.797415
-0.0822328 -0.263982 0.794763
-0.011118 -0.240545 0.740958
-0.0920029 -0.166148 0.814948
-0.104774 -0.313974 0.816316
-0.0483898 -0.196721 0.784148
-0.0958264 -0.235786 0.804858
-0.0851422 -0.206312 0.803233
-0.0331073 -0.158701 0.81314
-0.0123858 -0.217627 0.757296
-0.0276455 -0.291686 0.769176
-0.0228199 -0.271423 0.75019
-0.03677 -0.219276 0.773372
-0.0325415 -0.137162 0.828481
-0.0290802 -0.181494 0.833022
-0.028248 -0.204407 0.82072
-0.0306943 -0.0954636 0.845461
-0.103058 -0.284439 0.790006
-0.075693 -0.202976 0.791242
-0.0806691 -0.294411 0.787241
-0.0824019 -0.228245 0.788884
-0.0750071 -0.0906591 0.8497
-0.0502351 -0.270606 0.754929
-0.100319 -0.245304 0.800923
-0.0558221 -0.242476 0.751469
-0.0907122 -0.197891 0.810995
-0.107 -0.270769 0.812455
-0.0707064 -0.257672 0.767513
-0.0915738 -0.310745 0.816223
-0.109206 -0.295775 0.809778
-0.0594351 -0.27799 0.779161
-0.0995027 -0.197215 0.836825
-0.0991169 -0.234315 0.83526
-0.0597758 -0.236025 0.777179
-0.0852509 -0.223282 0.817824
-0.0379328 -0.219613 0.771087
-0.0131409 -0.238361 0.742548
