ply
    format ascii 1.0           
    element vertex 44
    property double x           
    property double y           
    property double z           
    end_header
-0.304069 -0.0437127 1.82798
-0.0348719 0.283947 1.81578
-0.192447 -0.16923 1.74612
-0.0196099 -0.210523 1.69688
0.0598424 -0.148112 1.68739
-0.141715 -0.0329054 1.74145
0.0548733 0.121244 1.78402
-0.0407469 -0.019835 1.69811
-0.0919831 -0.138102 1.72943
-0.123105 0.0644359 1.71488
0.0915381 0.273244 1.82538
0.0275546 0.350921 1.82541
-0.223865 -0.0991002 1.79956
0.103127 -0.0601619 1.73026
0.0560078 0.509857 1.91104
0.150462 0.081659 1.7876
0.0644417 0.0184231 1.77527
0.184837 -0.019719 1.78302
0.0118868 0.422483 1.89253
-0.0186899 0.160663 1.84752
-0.0224998 0.0702342 1.73822
0.122017 -0.173418 1.77248
0.119081 0.168505 1.83766
0.188237 0.149294 1.88914
0.267595 -0.0582816 1.79953
0.213842 0.0698078 1.85561
0.142839 0.242538 1.89658
0.128364 0.337206 1.93172
0.193513 -0.265554 1.93591
0.104564 0.535137 2.01175
0.113174 0.41232 1.86653
0.282044 -0.116007 1.87092
0.160774 -0.19438 1.8639
0.255073 -0.180194 1.94161
0.11184 0.44134 1.96907
0.238434 -0.114361 2.01232
0.215892 0.0672539 1.85639
0.149922 0.178037 1.96345
0.0914306 0.306777 2.01025
0.0680299 -0.352265 1.98455
0.188439 0.0764318 1.95057
0.225804 -0.0216844 1.88134
0.069537 0.405623 2.05547
-0.0363955 0.28291 1.81599
