ply
    format ascii 1.0           
    element vertex 50
    property double x           
    property double y           
    property double z           
    end_header
0.282794 -0.187187 1.70875
-0.0884155 -0.0519111 1.85265
0.00162629 0.169354 1.75861
-0.117769 -0.0615727 2.08566
-0.0208663 -0.148669 1.82272
-0.0393605 -0.230499 1.99316
-0.00960209 -0.228371 1.92656
0.0411069 0.228332 1.69452
0.0719352 -0.285296 1.80812
0.0341341 -0.318649 1.88922
0.106033 0.149308 1.68982
0.120477 0.2904 1.64042
0.0784432 -0.000552121 1.75432
0.0976869 -0.0938119 1.79275
0.0378053 0.432687 1.72921
0.115037 -0.194885 1.76877
0.162103 -0.0486102 1.71485
0.0661621 0.328141 1.72285
0.0893925 0.403734 1.66254
0.203587 -0.146249 1.7357
0.036844 0.186425 1.84963
0.00234299 -0.0518526 1.80044
0.351239 -0.201932 1.76884
0.177623 -0.272058 1.83413
0.153563 0.0562822 1.73012
0.24018 0.0532196 1.72594
0.194019 0.14635 1.71711
0.255948 -0.0371126 1.7282
0.390836 -0.21899 1.85589
0.181218 0.467461 1.68146
0.185921 0.252081 1.71079
0.265384 -0.260563 1.8685
0.312885 -0.317025 2.0734
0.353329 -0.28974 1.94269
0.180131 0.357433 1.68774
0.212838 0.368867 1.76883
0.408847 -0.129625 1.90075
0.299253 -0.112813 1.77317
0.0839136 0.407653 1.65517
-0.00206713 0.177215 1.75876
0.101438 0.498513 1.76354
0.0526612 0.0782394 1.83013
0.0545234 0.326834 1.71206
0.0258973 0.445281 1.72877
-0.0899179 -0.234949 2.04314
0.0263873 -0.326448 1.90874
0.0138287 0.0998995 1.93015
-0.153165 -0.0595443 2.11971
-0.0781965 -0.124206 1.922
0.0732887 -0.227891 1.89476
