ply
    format ascii 1.0           
    element vertex 58
    property double x           
    property double y           
    property double z           
    end_header
-0.081471 0.00710458 0.847032
-0.0311492 -0.060756 0.806961
-0.0633792 -0.17181 0.788206
-0.0471119 -0.0197046 0.825703
-0.0151833 -0.154168 0.792693
0.0649672 -0.123154 0.872575
-0.0649109 -0.0447429 0.827261
-0.0243412 -0.0359626 0.816773
0.0069139 -0.175342 0.800933
-0.0192139 -0.0109432 0.837174
0.0421376 -0.138476 0.828853
0.0330237 -0.187721 0.810069
0.0131051 -0.140763 0.796894
0.00727606 -0.0957088 0.823617
-0.0485406 0.00888077 0.832858
-0.0149565 -0.12719 0.783013
0.00269392 -0.115032 0.803356
-0.00376453 -0.0506992 0.831104
-0.026646 -0.117447 0.809237
-0.0218144 -0.0935157 0.82423
-0.04612 -0.106787 0.821953
0.0310767 -0.0963637 0.842222
0.0182411 -0.121233 0.828925
0.00930689 -0.0763828 0.843756
-0.0575334 0.0182702 0.863964
0.0196761 -0.167258 0.826242
0.046458 -0.120525 0.85242
-0.0373173 -0.00488449 0.859701
0.0162389 -0.0755077 0.86874
0.0328393 -0.0949869 0.870318
0.0449586 -0.168099 0.84844
-0.0201243 -0.0310849 0.859064
0.0461472 -0.165993 0.817192
0.0414332 -0.171147 0.876784
-0.00195764 -0.0545291 0.858309
0.0399926 -0.187506 0.90353
0.0242439 -0.143788 0.921271
0.0581622 -0.139291 0.895749
0.0401014 -0.11762 0.883515
0.00782417 -0.221299 0.898216
0.0108901 -0.0956201 0.887469
0.0431722 -0.160121 0.911524
-0.0581583 -0.0203227 0.874549
0.0548996 -0.153378 0.878404
0.00211546 -0.115104 0.803834
0.00871536 -0.175692 0.800268
-0.0300472 -0.0605001 0.808605
0.00769694 -0.0953655 0.823545
-0.0159309 -0.154159 0.794352
-0.013331 -0.125998 0.783306
0.0360314 -0.188554 0.905082
0.0317644 -0.189833 0.80985
-0.00190189 -0.0543857 0.858516
-0.0475579 0.00833882 0.83435
-0.0586556 -0.17097 0.788406
0.0370118 -0.170979 0.879338
-0.0165557 -0.19415 0.793579
-0.0731554 -0.000447704 0.826298
