ply
    format ascii 1.0           
    element vertex 44
    property double x           
    property double y           
    property double z           
    end_header
-0.0193857 -0.0627311 0.39158
-0.0205233 -0.133868 0.327646
-0.00453116 -0.157061 0.338535
-0.0329289 -0.169251 0.326272
-0.0169577 -0.122588 0.348298
-0.0330563 -0.133931 0.322048
-0.00447456 -0.0659128 0.393711
-0.00261211 -0.125364 0.351051
-0.00793294 -0.102845 0.365438
-0.0260263 -0.0907413 0.374105
-0.0226991 -0.153315 0.32691
0.00381608 -0.116895 0.361623
-0.0104204 -0.0923129 0.37131
-0.00357261 -0.180002 0.360861
-0.0230134 -0.115527 0.357036
-0.0360165 -0.147279 0.325423
-0.0144778 -0.148346 0.335262
-0.0027432 -0.0836657 0.392884
-0.00536294 -0.144493 0.35137
-0.0107389 -0.119022 0.360757
9.97849e-05 -0.156234 0.352161
-0.0149657 -0.138588 0.350411
-0.0148751 -0.0822623 0.378521
-0.00729205 -0.154808 0.377402
0.00144109 -0.161452 0.364995
0.00487911 -0.12438 0.377349
-0.018464 -0.182555 0.355474
-0.00676793 -0.112865 0.390036
-0.0309858 -0.127629 0.347794
0.000932136 -0.101179 0.387539
-0.000843217 -0.133299 0.36328
0.000968556 -0.0960251 0.376348
-0.0222197 -0.137644 0.340542
-0.00508794 -0.0902802 0.383766
-0.00509004 -0.0720988 0.40587
-0.00535155 -0.171693 0.372683
-0.00985289 -0.15045 0.364558
-0.0038125 -0.140524 0.372064
-0.013097 -0.13939 0.386768
-0.01139 -0.0589298 0.402731
-0.00881516 -0.126598 0.390753
0.00555665 -0.123433 0.376627
-0.00795666 -0.100997 0.395787
-0.00880163 -0.0888447 0.398148
