ply
    format ascii 1.0           
    element vertex 37
    property double x           
    property double y           
    property double z           
    end_header
-0.294923 -0.323607 3.74162
-0.42814 -0.318577 3.29943
-0.105727 0.246875 3.68639
-0.274104 -0.715767 3.65894
-0.468094 -0.611883 3.18197
-0.416667 -0.421408 3.49437
-0.0605957 0.0759742 3.39939
-0.335773 -0.249761 3.58104
-0.484481 -0.550259 3.34952
-0.364366 -0.542706 3.05846
-0.375225 -0.167025 3.40095
-0.205787 0.0714359 3.59988
-0.220555 -0.59183 2.95191
-0.162419 -0.784601 3.49913
-0.210476 -0.782551 2.97626
-0.0994651 -0.386908 3.08032
-0.354868 -0.0279332 3.66099
-0.351939 -0.719027 3.07688
-0.231586 -0.141911 3.25402
-0.33708 -0.455066 3.22751
-0.213374 -0.834099 3.07905
-0.239818 -0.326389 3.20856
-0.22404 -0.0428778 3.41336
-0.00566056 0.208039 3.51929
-0.0508731 -0.0991579 3.32067
0.0617877 -0.541752 3.16809
0.0414812 -0.731842 3.15855
0.155194 -0.886093 3.27483
0.305882 -0.779118 3.38158
0.0618862 -0.34429 3.23834
0.0102226 -1.00756 3.3018
-0.341982 -0.744881 3.11068
-0.344104 -0.486259 3.234
0.145376 -0.676289 3.33178
-0.104438 -0.887254 3.18577
-0.138583 -0.666138 3.11241
0.110672 -0.104927 3.66725
